<svg xmlns="http://www.w3.org/2000/svg" xmlns:xlink="http://www.w3.org/1999/xlink" width="524.811" height="596.997" viewBox="0 0 524.811 596.997">
  <defs>
    <filter id="Path_2175" x="0" y="481.683" width="524.811" height="115.314" filterUnits="userSpaceOnUse">
      <feOffset dx="10" dy="6" input="SourceAlpha"/>
      <feGaussianBlur stdDeviation="7.5" result="blur"/>
      <feFlood flood-opacity="0.161"/>
      <feComposite operator="in" in2="blur"/>
      <feComposite in="SourceGraphic"/>
    </filter>
    <filter id="Path_2175-2" x="0" y="279.717" width="524.811" height="115.314" filterUnits="userSpaceOnUse">
      <feOffset dx="10" dy="6" input="SourceAlpha"/>
      <feGaussianBlur stdDeviation="7.5" result="blur-2"/>
      <feFlood flood-opacity="0.161"/>
      <feComposite operator="in" in2="blur-2"/>
      <feComposite in="SourceGraphic"/>
    </filter>
    <filter id="Path_2175-3" x="0" y="77.751" width="524.811" height="115.314" filterUnits="userSpaceOnUse">
      <feOffset dx="10" dy="6" input="SourceAlpha"/>
      <feGaussianBlur stdDeviation="7.5" result="blur-3"/>
      <feFlood flood-opacity="0.161"/>
      <feComposite operator="in" in2="blur-3"/>
      <feComposite in="SourceGraphic"/>
    </filter>
  </defs>
  <g id="Group_4398" data-name="Group 4398" transform="translate(-18357.27 -10631)">
    <g id="Group_4250" data-name="Group 4250" transform="translate(18369.768 11034.932)">
      <g transform="matrix(1, 0, 0, 1, -12.5, -403.93)" filter="url(#Path_2175)">
        <path id="Path_2175-4" data-name="Path 2175" d="M0,0H479.811V55.354a14.96,14.96,0,0,1-14.96,14.96H14.96A14.96,14.96,0,0,1,0,55.354Z" transform="translate(12.5 498.18)" fill="#fff"/>
      </g>
      <g id="Group_2911" data-name="Group 2911" transform="translate(0 0)">
        <g id="Group_2886" data-name="Group 2886">
          <rect id="Rectangle_2233" data-name="Rectangle 2233" width="182.517" height="95.983" transform="translate(155.116)" fill="#1970a7"/>
          <path id="Rectangle_2234" data-name="Rectangle 2234" d="M0,0H132.124a10,10,0,0,1,10,10V95.983a0,0,0,0,1,0,0H0a0,0,0,0,1,0,0V0A0,0,0,0,1,0,0Z" transform="translate(337.69)" fill="#a031af"/>
          <path id="Rectangle_2232" data-name="Rectangle 2232" d="M10,0H155.589a0,0,0,0,1,0,0V95.983a0,0,0,0,1,0,0H0a0,0,0,0,1,0,0V10A10,10,0,0,1,10,0Z" fill="#4db748"/>
          <g id="Group_4251" data-name="Group 4251" transform="translate(57.419 32.009)">
            <path id="Path_2405" data-name="Path 2405" d="M63.581,46.069l-.192-1.112h2.6a1.1,1.1,0,0,0,1.068-1.348l-1.035-4.383a1.1,1.1,0,0,0-1.068-.844H62.233l-.011-.066A5.426,5.426,0,0,0,57.084,34H37.274a5.723,5.723,0,0,0-5.325,4.279l-.022.1h-2.7a1.1,1.1,0,0,0-1.068.844l-1.035,4.383a1.1,1.1,0,0,0,1.068,1.348h2.3l-.241,1.1A4.4,4.4,0,0,0,26,50.435V58.1a4.4,4.4,0,0,0,4.383,4.383v.783a3.1,3.1,0,0,0,3.139,3.051h2.487a3.1,3.1,0,0,0,3.139-3.051v-.783H54.487v.783a3.1,3.1,0,0,0,3.139,3.051h2.487a3.1,3.1,0,0,0,3.139-3.051v-.783A4.4,4.4,0,0,0,67.635,58.1v-7.67A4.394,4.394,0,0,0,63.581,46.069Zm.509-5.495.515,2.191H63l-.383-2.191Zm-30-1.824a3.558,3.558,0,0,1,3.183-2.558H57.084a3.231,3.231,0,0,1,2.98,2.5l1.293,7.357H32.492Zm-4.514,4.016.515-2.191h1.359l-.482,2.191ZM36.956,63.27a.912.912,0,0,1-.948.86H33.522a.912.912,0,0,1-.948-.86v-.783h4.383Zm24.1,0a.912.912,0,0,1-.948.86H57.626a.912.912,0,0,1-.948-.86v-.783h4.383ZM65.443,58.1A2.191,2.191,0,0,1,63.252,60.3H30.383A2.191,2.191,0,0,1,28.191,58.1v-7.67a2.191,2.191,0,0,1,2.191-2.191H63.252a2.191,2.191,0,0,1,2.191,2.191Z" transform="translate(-26 -34)" fill="#fff"/>
            <path id="Path_2406" data-name="Path 2406" d="M43.861,69.383H57.009a1.1,1.1,0,0,0,0-2.191H43.861a1.1,1.1,0,0,0,0,2.191ZM37.287,65a3.287,3.287,0,1,0,3.287,3.287A3.287,3.287,0,0,0,37.287,65Zm0,4.383a1.1,1.1,0,1,1,1.1-1.1A1.1,1.1,0,0,1,37.287,69.383Z" transform="translate(-29.617 -48.018)" fill="#fff"/>
            <path id="Path_2407" data-name="Path 2407" d="M85.287,65a3.287,3.287,0,1,0,3.287,3.287A3.287,3.287,0,0,0,85.287,65Zm0,4.383a1.1,1.1,0,1,1,1.1-1.1A1.1,1.1,0,0,1,85.287,69.383Z" transform="translate(-51.322 -48.018)" fill="#fff"/>
          </g>
          <g id="Group_4252" data-name="Group 4252" transform="translate(224.973 32.009)">
            <path id="Path_2405-2" data-name="Path 2405" d="M63.581,46.069l-.192-1.112h2.6a1.1,1.1,0,0,0,1.068-1.348l-1.035-4.383a1.1,1.1,0,0,0-1.068-.844H62.233l-.011-.066A5.426,5.426,0,0,0,57.084,34H37.274a5.723,5.723,0,0,0-5.325,4.279l-.022.1h-2.7a1.1,1.1,0,0,0-1.068.844l-1.035,4.383a1.1,1.1,0,0,0,1.068,1.348h2.3l-.241,1.1A4.4,4.4,0,0,0,26,50.435V58.1a4.4,4.4,0,0,0,4.383,4.383v.783a3.1,3.1,0,0,0,3.139,3.051h2.487a3.1,3.1,0,0,0,3.139-3.051v-.783H54.487v.783a3.1,3.1,0,0,0,3.139,3.051h2.487a3.1,3.1,0,0,0,3.139-3.051v-.783A4.4,4.4,0,0,0,67.635,58.1v-7.67A4.394,4.394,0,0,0,63.581,46.069Zm.509-5.495.515,2.191H63l-.383-2.191Zm-30-1.824a3.558,3.558,0,0,1,3.183-2.558H57.084a3.231,3.231,0,0,1,2.98,2.5l1.293,7.357H32.492Zm-4.514,4.016.515-2.191h1.359l-.482,2.191ZM36.956,63.27a.912.912,0,0,1-.948.86H33.522a.912.912,0,0,1-.948-.86v-.783h4.383Zm24.1,0a.912.912,0,0,1-.948.86H57.626a.912.912,0,0,1-.948-.86v-.783h4.383ZM65.443,58.1A2.191,2.191,0,0,1,63.252,60.3H30.383A2.191,2.191,0,0,1,28.191,58.1v-7.67a2.191,2.191,0,0,1,2.191-2.191H63.252a2.191,2.191,0,0,1,2.191,2.191Z" transform="translate(-26 -34)" fill="#fff"/>
            <path id="Path_2406-2" data-name="Path 2406" d="M43.861,69.383H57.009a1.1,1.1,0,0,0,0-2.191H43.861a1.1,1.1,0,0,0,0,2.191ZM37.287,65a3.287,3.287,0,1,0,3.287,3.287A3.287,3.287,0,0,0,37.287,65Zm0,4.383a1.1,1.1,0,1,1,1.1-1.1A1.1,1.1,0,0,1,37.287,69.383Z" transform="translate(-29.617 -48.018)" fill="#fff"/>
            <path id="Path_2407-2" data-name="Path 2407" d="M85.287,65a3.287,3.287,0,1,0,3.287,3.287A3.287,3.287,0,0,0,85.287,65Zm0,4.383a1.1,1.1,0,1,1,1.1-1.1A1.1,1.1,0,0,1,85.287,69.383Z" transform="translate(-51.322 -48.018)" fill="#fff"/>
          </g>
          <g id="Group_4253" data-name="Group 4253" transform="translate(388.042 32.009)">
            <path id="Path_2405-3" data-name="Path 2405" d="M63.581,46.069l-.192-1.112h2.6a1.1,1.1,0,0,0,1.068-1.348l-1.035-4.383a1.1,1.1,0,0,0-1.068-.844H62.233l-.011-.066A5.426,5.426,0,0,0,57.084,34H37.274a5.723,5.723,0,0,0-5.325,4.279l-.022.1h-2.7a1.1,1.1,0,0,0-1.068.844l-1.035,4.383a1.1,1.1,0,0,0,1.068,1.348h2.3l-.241,1.1A4.4,4.4,0,0,0,26,50.435V58.1a4.4,4.4,0,0,0,4.383,4.383v.783a3.1,3.1,0,0,0,3.139,3.051h2.487a3.1,3.1,0,0,0,3.139-3.051v-.783H54.487v.783a3.1,3.1,0,0,0,3.139,3.051h2.487a3.1,3.1,0,0,0,3.139-3.051v-.783A4.4,4.4,0,0,0,67.635,58.1v-7.67A4.394,4.394,0,0,0,63.581,46.069Zm.509-5.495.515,2.191H63l-.383-2.191Zm-30-1.824a3.558,3.558,0,0,1,3.183-2.558H57.084a3.231,3.231,0,0,1,2.98,2.5l1.293,7.357H32.492Zm-4.514,4.016.515-2.191h1.359l-.482,2.191ZM36.956,63.27a.912.912,0,0,1-.948.86H33.522a.912.912,0,0,1-.948-.86v-.783h4.383Zm24.1,0a.912.912,0,0,1-.948.86H57.626a.912.912,0,0,1-.948-.86v-.783h4.383ZM65.443,58.1A2.191,2.191,0,0,1,63.252,60.3H30.383A2.191,2.191,0,0,1,28.191,58.1v-7.67a2.191,2.191,0,0,1,2.191-2.191H63.252a2.191,2.191,0,0,1,2.191,2.191Z" transform="translate(-26 -34)" fill="#fff"/>
            <path id="Path_2406-3" data-name="Path 2406" d="M43.861,69.383H57.009a1.1,1.1,0,0,0,0-2.191H43.861a1.1,1.1,0,0,0,0,2.191ZM37.287,65a3.287,3.287,0,1,0,3.287,3.287A3.287,3.287,0,0,0,37.287,65Zm0,4.383a1.1,1.1,0,1,1,1.1-1.1A1.1,1.1,0,0,1,37.287,69.383Z" transform="translate(-29.617 -48.018)" fill="#fff"/>
            <path id="Path_2407-3" data-name="Path 2407" d="M85.287,65a3.287,3.287,0,1,0,3.287,3.287A3.287,3.287,0,0,0,85.287,65Zm0,4.383a1.1,1.1,0,1,1,1.1-1.1A1.1,1.1,0,0,1,85.287,69.383Z" transform="translate(-51.322 -48.018)" fill="#fff"/>
          </g>
        </g>
      </g>
      <path id="Path_4182" data-name="Path 4182" d="M14.672-5.488A5.318,5.318,0,0,1,13.1-1.5,6.864,6.864,0,0,1,9.016.336V2.8H7.14V.364A8.02,8.02,0,0,1,3.108-.952,6.34,6.34,0,0,1,.7-4.06L4.032-5.992A3.758,3.758,0,0,0,7.14-3.444V-8.288H7.112l-.056-.028q-.98-.364-1.6-.644a11.664,11.664,0,0,1-1.442-.812A5.362,5.362,0,0,1,2.73-10.878a5.564,5.564,0,0,1-.812-1.47,5.342,5.342,0,0,1-.35-1.96,5.112,5.112,0,0,1,1.61-3.948A6.594,6.594,0,0,1,7.14-19.964V-22.4H9.016v2.492a6.349,6.349,0,0,1,5.376,3.948l-3.248,1.9A3.1,3.1,0,0,0,9.016-16.1v4.676a20.431,20.431,0,0,1,3.5,1.652A4.969,4.969,0,0,1,14.672-5.488ZM5.4-14.28A1.615,1.615,0,0,0,5.8-13.2a4.3,4.3,0,0,0,1.344.938v-3.92a2.253,2.253,0,0,0-1.288.672A1.788,1.788,0,0,0,5.4-14.28ZM9.016-3.5q1.792-.392,1.792-1.96a1.681,1.681,0,0,0-.434-1.176,4.165,4.165,0,0,0-1.358-.9Zm14.2-8.96a6.963,6.963,0,0,1,4.76,1.694A5.945,5.945,0,0,1,29.9-6.048a5.85,5.85,0,0,1-2.03,4.732A7.459,7.459,0,0,1,22.9.392,8.167,8.167,0,0,1,18.7-.672a6.078,6.078,0,0,1-2.632-3.136l3.3-1.932A3.277,3.277,0,0,0,22.9-3.388a3.421,3.421,0,0,0,2.31-.714,2.439,2.439,0,0,0,.826-1.946,2.468,2.468,0,0,0-.812-1.932,3.192,3.192,0,0,0-2.212-.728H17.08L17.864-19.6H28.98v3.612H21.448L21.2-12.46ZM35.588-.336a2.291,2.291,0,0,1-1.68.7,2.291,2.291,0,0,1-1.68-.7,2.291,2.291,0,0,1-.7-1.68,2.291,2.291,0,0,1,.7-1.68,2.291,2.291,0,0,1,1.68-.7,2.291,2.291,0,0,1,1.68.7,2.291,2.291,0,0,1,.7,1.68A2.291,2.291,0,0,1,35.588-.336ZM43.12-19.6h3.36V0H42.616V-15.512l-3.7,1.036-.952-3.3ZM49.252,0V-2.884l6.692-6.888q2.24-2.352,2.24-3.92a2.471,2.471,0,0,0-.714-1.848,2.51,2.51,0,0,0-1.834-.7,3.463,3.463,0,0,0-3.276,2.3l-3.248-1.9a6.847,6.847,0,0,1,2.66-3.08,7.148,7.148,0,0,1,3.808-1.064,6.7,6.7,0,0,1,4.564,1.666,5.668,5.668,0,0,1,1.9,4.494q0,3.052-3.22,6.272L54.992-3.724h7.364V0Z" transform="translate(12.232 149.454)"/>
      <g id="Group_4259" data-name="Group 4259" transform="translate(304.228 106.804)">
        <path id="Path_4181" data-name="Path 4181" d="M-150.176-11.2h1.6V0h-1.84V-9.232l-2.256.64-.448-1.568ZM-139.1-1.376A3.766,3.766,0,0,1-142.336.208a3.787,3.787,0,0,1-3.24-1.584,6.993,6.993,0,0,1-1.16-4.224,6.993,6.993,0,0,1,1.16-4.224,3.787,3.787,0,0,1,3.24-1.584,3.787,3.787,0,0,1,3.24,1.584,6.993,6.993,0,0,1,1.16,4.224A6.958,6.958,0,0,1-139.1-1.376Zm-3.232-.208a2.116,2.116,0,0,0,1.9-1.04,5.6,5.6,0,0,0,.656-2.976,5.6,5.6,0,0,0-.656-2.976,2.116,2.116,0,0,0-1.9-1.04,2.121,2.121,0,0,0-1.9,1.04A5.543,5.543,0,0,0-144.9-5.6a5.543,5.543,0,0,0,.664,2.976A2.121,2.121,0,0,0-142.336-1.584ZM-134.4-6.16a1.156,1.156,0,0,1-.848.352,1.156,1.156,0,0,1-.848-.352,1.156,1.156,0,0,1-.352-.848,1.162,1.162,0,0,1,.344-.856,1.162,1.162,0,0,1,.856-.344,1.156,1.156,0,0,1,.848.352,1.156,1.156,0,0,1,.352.848A1.156,1.156,0,0,1-134.4-6.16Zm0,6a1.156,1.156,0,0,1-.848.352A1.156,1.156,0,0,1-136.1-.16a1.156,1.156,0,0,1-.352-.848,1.17,1.17,0,0,1,.344-.848,1.148,1.148,0,0,1,.856-.352,1.156,1.156,0,0,1,.848.352,1.156,1.156,0,0,1,.352.848A1.156,1.156,0,0,1-134.4-.16Zm1.68.16V-1.44l3.9-3.984a3.9,3.9,0,0,0,1.424-2.464,1.656,1.656,0,0,0-.488-1.272,1.744,1.744,0,0,0-1.24-.456,2.194,2.194,0,0,0-2.08,1.392l-1.552-.912a3.807,3.807,0,0,1,1.488-1.7,4.057,4.057,0,0,1,2.128-.576,3.7,3.7,0,0,1,2.528.928,3.193,3.193,0,0,1,1.056,2.528,5.457,5.457,0,0,1-1.9,3.648l-2.528,2.528h4.64V0Zm13.152-6.624A3.755,3.755,0,0,1-117.592-5.5a3.018,3.018,0,0,1,.76,2.1,3.272,3.272,0,0,1-1.136,2.64,4.167,4.167,0,0,1-2.784.96,4.476,4.476,0,0,1-2.3-.592,3.365,3.365,0,0,1-1.464-1.728l1.568-.912a2.077,2.077,0,0,0,2.192,1.44,2.234,2.234,0,0,0,1.52-.488,1.661,1.661,0,0,0,.56-1.32,1.637,1.637,0,0,0-.56-1.312,2.258,2.258,0,0,0-1.52-.48h-.416l-.736-1.1,2.416-3.184h-4.688V-11.2h6.88v1.568ZM-103.856,0l-.784-2.256h-4.768L-110.192,0h-2l4.064-11.2h2.208L-101.872,0ZM-108.8-3.984h3.552l-1.776-5.056ZM-89.952-11.2V0h-1.84V-7.984L-95.2-2.352h-.224L-98.832-8V0h-1.84V-11.2h1.984l3.376,5.6,3.392-5.6ZM-79.36-6.336h-1.984V-2.5a.957.957,0,0,0,.224.712,1,1,0,0,0,.664.24,10.936,10.936,0,0,0,1.1-.008V0a4.312,4.312,0,0,1-2.848-.344A2.414,2.414,0,0,1-83.072-2.5v-3.84h-1.472V-8h1.472V-9.728l1.728-.512V-8h1.984ZM-74.336.208a4.1,4.1,0,0,1-2.992-1.216A4.04,4.04,0,0,1-78.56-4a4.04,4.04,0,0,1,1.232-2.992,4.1,4.1,0,0,1,2.992-1.216,4.093,4.093,0,0,1,3,1.216A4.053,4.053,0,0,1-70.112-4a4.053,4.053,0,0,1-1.224,2.992A4.093,4.093,0,0,1-74.336.208Zm-1.776-2.4a2.413,2.413,0,0,0,1.776.72,2.413,2.413,0,0,0,1.776-.72A2.452,2.452,0,0,0-71.84-4a2.452,2.452,0,0,0-.72-1.808,2.413,2.413,0,0,0-1.776-.72,2.413,2.413,0,0,0-1.776.72A2.452,2.452,0,0,0-76.832-4,2.452,2.452,0,0,0-76.112-2.192ZM-62.4-11.2h1.6V0h-1.84V-9.232l-2.256.64-.448-1.568Zm11.072,9.824A3.766,3.766,0,0,1-54.56.208,3.787,3.787,0,0,1-57.8-1.376,6.993,6.993,0,0,1-58.96-5.6,6.993,6.993,0,0,1-57.8-9.824a3.787,3.787,0,0,1,3.24-1.584,3.787,3.787,0,0,1,3.24,1.584A6.993,6.993,0,0,1-50.16-5.6,6.958,6.958,0,0,1-51.328-1.376Zm-3.232-.208a2.116,2.116,0,0,0,1.9-1.04A5.6,5.6,0,0,0-52-5.6a5.6,5.6,0,0,0-.656-2.976,2.116,2.116,0,0,0-1.9-1.04,2.121,2.121,0,0,0-1.9,1.04A5.543,5.543,0,0,0-57.12-5.6a5.543,5.543,0,0,0,.664,2.976A2.121,2.121,0,0,0-54.56-1.584Zm7.936-4.576a1.156,1.156,0,0,1-.848.352,1.156,1.156,0,0,1-.848-.352,1.156,1.156,0,0,1-.352-.848,1.162,1.162,0,0,1,.344-.856,1.162,1.162,0,0,1,.856-.344,1.156,1.156,0,0,1,.848.352,1.156,1.156,0,0,1,.352.848A1.156,1.156,0,0,1-46.624-6.16Zm0,6a1.156,1.156,0,0,1-.848.352A1.156,1.156,0,0,1-48.32-.16a1.156,1.156,0,0,1-.352-.848,1.169,1.169,0,0,1,.344-.848,1.148,1.148,0,0,1,.856-.352,1.156,1.156,0,0,1,.848.352,1.156,1.156,0,0,1,.352.848A1.156,1.156,0,0,1-46.624-.16Zm10.192-3.568v1.712h-1.28V0h-1.856V-2.016h-5.5V-3.728l3.856-7.472h2l-3.856,7.472h3.5V-6.64h1.856v2.912Zm4.672-3.248a4,4,0,0,1,2.7.952,3.291,3.291,0,0,1,1.1,2.632,3.272,3.272,0,0,1-1.136,2.64,4.167,4.167,0,0,1-2.784.96,4.473,4.473,0,0,1-2.352-.616A3.383,3.383,0,0,1-35.68-2.192L-34.1-3.1a2.058,2.058,0,0,0,2.224,1.52,2.24,2.24,0,0,0,1.512-.488,1.651,1.651,0,0,0,.568-1.32,1.637,1.637,0,0,0-.56-1.312,2.208,2.208,0,0,0-1.488-.48H-35.1l.432-6.016h6.24v1.728h-4.544l-.192,2.5ZM-15.024,0l-.784-2.256h-4.768L-21.36,0h-2L-19.3-11.2h2.208L-13.04,0Zm-4.944-3.984h3.552L-18.192-9.04ZM-1.12-11.2V0H-2.96V-7.984L-6.368-2.352h-.224L-10-8V0h-1.84V-11.2h1.984L-6.48-5.6l3.392-5.6Z" transform="translate(153.004 45.649)"/>
        <path id="Path_4180" data-name="Path 4180" d="M-39.888-6.976a4,4,0,0,1,2.7.952,3.291,3.291,0,0,1,1.1,2.632,3.272,3.272,0,0,1-1.136,2.64A4.167,4.167,0,0,1-40,.208a4.473,4.473,0,0,1-2.352-.616,3.383,3.383,0,0,1-1.456-1.784l1.584-.912A2.058,2.058,0,0,0-40-1.584a2.24,2.24,0,0,0,1.512-.488,1.651,1.651,0,0,0,.568-1.32A1.637,1.637,0,0,0-38.48-4.7a2.208,2.208,0,0,0-1.488-.48h-3.264L-42.8-11.2h6.24v1.728H-41.1l-.192,2.5Zm6.9,6.816a1.156,1.156,0,0,1-.848.352,1.156,1.156,0,0,1-.848-.352,1.156,1.156,0,0,1-.352-.848,1.169,1.169,0,0,1,.344-.848,1.148,1.148,0,0,1,.856-.352,1.156,1.156,0,0,1,.848.352,1.156,1.156,0,0,1,.352.848A1.156,1.156,0,0,1-32.992-.16Zm4.336-11.04h1.6V0H-28.9V-9.232l-2.256.64L-31.6-10.16ZM-13.776,0H-15.84l-3.28-3.7V0h-1.728V-11.2h1.728v6.736L-16.016-8H-13.9l-3.52,3.92Zm9.9-8.208a2.877,2.877,0,0,1,2.192.88A3.306,3.306,0,0,1-.848-4.96V0H-2.576V-4.848a1.843,1.843,0,0,0-.416-1.288,1.461,1.461,0,0,0-1.136-.456A1.621,1.621,0,0,0-5.4-6.064,2.313,2.313,0,0,0-5.872-4.48V0H-7.6V-4.848a1.917,1.917,0,0,0-.392-1.288A1.387,1.387,0,0,0-9.1-6.592a1.665,1.665,0,0,0-1.28.536,2.243,2.243,0,0,0-.5,1.576V0h-1.728V-8h1.728v.96A2.558,2.558,0,0,1-8.592-8.208,2.449,2.449,0,0,1-6.32-6.944,2.7,2.7,0,0,1-3.872-8.208Z" transform="translate(161.004 14.649)"/>
      </g>
    </g>
    <g id="Group_4254" data-name="Group 4254" transform="translate(18369.768 10832.966)">
      <g transform="matrix(1, 0, 0, 1, -12.5, -201.97)" filter="url(#Path_2175-2)">
        <path id="Path_2175-5" data-name="Path 2175" d="M0,0H479.811V55.354a14.96,14.96,0,0,1-14.96,14.96H14.96A14.96,14.96,0,0,1,0,55.354Z" transform="translate(12.5 296.22)" fill="#fff"/>
      </g>
      <g id="Group_2911-2" data-name="Group 2911" transform="translate(0 0)">
        <g id="Group_2886-2" data-name="Group 2886">
          <path id="Rectangle_2234-2" data-name="Rectangle 2234" d="M0,0H178.5a10,10,0,0,1,10,10V95.983a0,0,0,0,1,0,0H0a0,0,0,0,1,0,0V0A0,0,0,0,1,0,0Z" transform="translate(291.313)" fill="#1970a7"/>
          <path id="Rectangle_2232-2" data-name="Rectangle 2232" d="M10,0H291.728a0,0,0,0,1,0,0V95.983a0,0,0,0,1,0,0H0a0,0,0,0,1,0,0V10A10,10,0,0,1,10,0Z" fill="#4db748"/>
          <g id="Group_4251-2" data-name="Group 4251" transform="translate(124.741 32.009)">
            <path id="Path_2405-4" data-name="Path 2405" d="M63.581,46.069l-.192-1.112h2.6a1.1,1.1,0,0,0,1.068-1.348l-1.035-4.383a1.1,1.1,0,0,0-1.068-.844H62.233l-.011-.066A5.426,5.426,0,0,0,57.084,34H37.274a5.723,5.723,0,0,0-5.325,4.279l-.022.1h-2.7a1.1,1.1,0,0,0-1.068.844l-1.035,4.383a1.1,1.1,0,0,0,1.068,1.348h2.3l-.241,1.1A4.4,4.4,0,0,0,26,50.435V58.1a4.4,4.4,0,0,0,4.383,4.383v.783a3.1,3.1,0,0,0,3.139,3.051h2.487a3.1,3.1,0,0,0,3.139-3.051v-.783H54.487v.783a3.1,3.1,0,0,0,3.139,3.051h2.487a3.1,3.1,0,0,0,3.139-3.051v-.783A4.4,4.4,0,0,0,67.635,58.1v-7.67A4.394,4.394,0,0,0,63.581,46.069Zm.509-5.495.515,2.191H63l-.383-2.191Zm-30-1.824a3.558,3.558,0,0,1,3.183-2.558H57.084a3.231,3.231,0,0,1,2.98,2.5l1.293,7.357H32.492Zm-4.514,4.016.515-2.191h1.359l-.482,2.191ZM36.956,63.27a.912.912,0,0,1-.948.86H33.522a.912.912,0,0,1-.948-.86v-.783h4.383Zm24.1,0a.912.912,0,0,1-.948.86H57.626a.912.912,0,0,1-.948-.86v-.783h4.383ZM65.443,58.1A2.191,2.191,0,0,1,63.252,60.3H30.383A2.191,2.191,0,0,1,28.191,58.1v-7.67a2.191,2.191,0,0,1,2.191-2.191H63.252a2.191,2.191,0,0,1,2.191,2.191Z" transform="translate(-26 -34)" fill="#fff"/>
            <path id="Path_2406-4" data-name="Path 2406" d="M43.861,69.383H57.009a1.1,1.1,0,0,0,0-2.191H43.861a1.1,1.1,0,0,0,0,2.191ZM37.287,65a3.287,3.287,0,1,0,3.287,3.287A3.287,3.287,0,0,0,37.287,65Zm0,4.383a1.1,1.1,0,1,1,1.1-1.1A1.1,1.1,0,0,1,37.287,69.383Z" transform="translate(-29.617 -48.018)" fill="#fff"/>
            <path id="Path_2407-4" data-name="Path 2407" d="M85.287,65a3.287,3.287,0,1,0,3.287,3.287A3.287,3.287,0,0,0,85.287,65Zm0,4.383a1.1,1.1,0,1,1,1.1-1.1A1.1,1.1,0,0,1,85.287,69.383Z" transform="translate(-51.322 -48.018)" fill="#fff"/>
          </g>
          <g id="Group_4253-2" data-name="Group 4253" transform="translate(364.105 32.009)">
            <path id="Path_2405-5" data-name="Path 2405" d="M63.581,46.069l-.192-1.112h2.6a1.1,1.1,0,0,0,1.068-1.348l-1.035-4.383a1.1,1.1,0,0,0-1.068-.844H62.233l-.011-.066A5.426,5.426,0,0,0,57.084,34H37.274a5.723,5.723,0,0,0-5.325,4.279l-.022.1h-2.7a1.1,1.1,0,0,0-1.068.844l-1.035,4.383a1.1,1.1,0,0,0,1.068,1.348h2.3l-.241,1.1A4.4,4.4,0,0,0,26,50.435V58.1a4.4,4.4,0,0,0,4.383,4.383v.783a3.1,3.1,0,0,0,3.139,3.051h2.487a3.1,3.1,0,0,0,3.139-3.051v-.783H54.487v.783a3.1,3.1,0,0,0,3.139,3.051h2.487a3.1,3.1,0,0,0,3.139-3.051v-.783A4.4,4.4,0,0,0,67.635,58.1v-7.67A4.394,4.394,0,0,0,63.581,46.069Zm.509-5.495.515,2.191H63l-.383-2.191Zm-30-1.824a3.558,3.558,0,0,1,3.183-2.558H57.084a3.231,3.231,0,0,1,2.98,2.5l1.293,7.357H32.492Zm-4.514,4.016.515-2.191h1.359l-.482,2.191ZM36.956,63.27a.912.912,0,0,1-.948.86H33.522a.912.912,0,0,1-.948-.86v-.783h4.383Zm24.1,0a.912.912,0,0,1-.948.86H57.626a.912.912,0,0,1-.948-.86v-.783h4.383ZM65.443,58.1A2.191,2.191,0,0,1,63.252,60.3H30.383A2.191,2.191,0,0,1,28.191,58.1v-7.67a2.191,2.191,0,0,1,2.191-2.191H63.252a2.191,2.191,0,0,1,2.191,2.191Z" transform="translate(-26 -34)" fill="#fff"/>
            <path id="Path_2406-5" data-name="Path 2406" d="M43.861,69.383H57.009a1.1,1.1,0,0,0,0-2.191H43.861a1.1,1.1,0,0,0,0,2.191ZM37.287,65a3.287,3.287,0,1,0,3.287,3.287A3.287,3.287,0,0,0,37.287,65Zm0,4.383a1.1,1.1,0,1,1,1.1-1.1A1.1,1.1,0,0,1,37.287,69.383Z" transform="translate(-29.617 -48.018)" fill="#fff"/>
            <path id="Path_2407-5" data-name="Path 2407" d="M85.287,65a3.287,3.287,0,1,0,3.287,3.287A3.287,3.287,0,0,0,85.287,65Zm0,4.383a1.1,1.1,0,1,1,1.1-1.1A1.1,1.1,0,0,1,85.287,69.383Z" transform="translate(-51.322 -48.018)" fill="#fff"/>
          </g>
        </g>
      </g>
      <path id="Path_4177" data-name="Path 4177" d="M14.672-5.488A5.318,5.318,0,0,1,13.1-1.5,6.864,6.864,0,0,1,9.016.336V2.8H7.14V.364A8.02,8.02,0,0,1,3.108-.952,6.34,6.34,0,0,1,.7-4.06L4.032-5.992A3.758,3.758,0,0,0,7.14-3.444V-8.288H7.112l-.056-.028q-.98-.364-1.6-.644a11.664,11.664,0,0,1-1.442-.812A5.362,5.362,0,0,1,2.73-10.878a5.564,5.564,0,0,1-.812-1.47,5.342,5.342,0,0,1-.35-1.96,5.112,5.112,0,0,1,1.61-3.948A6.594,6.594,0,0,1,7.14-19.964V-22.4H9.016v2.492a6.349,6.349,0,0,1,5.376,3.948l-3.248,1.9A3.1,3.1,0,0,0,9.016-16.1v4.676a20.431,20.431,0,0,1,3.5,1.652A4.969,4.969,0,0,1,14.672-5.488ZM5.4-14.28A1.615,1.615,0,0,0,5.8-13.2a4.3,4.3,0,0,0,1.344.938v-3.92a2.253,2.253,0,0,0-1.288.672A1.788,1.788,0,0,0,5.4-14.28ZM9.016-3.5q1.792-.392,1.792-1.96a1.681,1.681,0,0,0-.434-1.176,4.165,4.165,0,0,0-1.358-.9Zm16.24-8.148A6.571,6.571,0,0,1,28.49-9.59a5.3,5.3,0,0,1,1.246,3.542,5.85,5.85,0,0,1-2.03,4.732A7.459,7.459,0,0,1,22.736.392a8.01,8.01,0,0,1-4.1-1.05,6.037,6.037,0,0,1-2.618-3.094l3.3-1.9a3.194,3.194,0,0,0,3.416,2.268,3.421,3.421,0,0,0,2.31-.714,2.439,2.439,0,0,0,.826-1.946,2.449,2.449,0,0,0-.826-1.932,3.377,3.377,0,0,0-2.31-.728H21.9l-1.484-2.24,3.864-5.04H16.6V-19.6h12.32v3.192ZM35.5-.336a2.291,2.291,0,0,1-1.68.7,2.291,2.291,0,0,1-1.68-.7,2.291,2.291,0,0,1-.7-1.68,2.291,2.291,0,0,1,.7-1.68,2.291,2.291,0,0,1,1.68-.7,2.291,2.291,0,0,1,1.68.7,2.291,2.291,0,0,1,.7,1.68A2.291,2.291,0,0,1,35.5-.336ZM43.036-19.6H46.4V0H42.532V-15.512l-3.7,1.036-.952-3.3ZM49.168,0V-2.884L55.86-9.772q2.24-2.352,2.24-3.92a2.471,2.471,0,0,0-.714-1.848,2.51,2.51,0,0,0-1.834-.7,3.463,3.463,0,0,0-3.276,2.3l-3.248-1.9a6.847,6.847,0,0,1,2.66-3.08A7.148,7.148,0,0,1,55.5-19.992a6.7,6.7,0,0,1,4.564,1.666,5.668,5.668,0,0,1,1.9,4.494q0,3.052-3.22,6.272L54.908-3.724h7.364V0Z" transform="translate(12.232 148.419)"/>
      <g id="Group_4257" data-name="Group 4257" transform="translate(298.253 104.946)">
        <path id="Path_4178" data-name="Path 4178" d="M-148.144-11.2h1.6V0h-1.84V-9.232l-2.256.64-.448-1.568Zm11.072,9.824A3.766,3.766,0,0,1-140.3.208a3.787,3.787,0,0,1-3.24-1.584A6.993,6.993,0,0,1-144.7-5.6a6.993,6.993,0,0,1,1.16-4.224,3.787,3.787,0,0,1,3.24-1.584,3.787,3.787,0,0,1,3.24,1.584A6.993,6.993,0,0,1-135.9-5.6,6.958,6.958,0,0,1-137.072-1.376Zm-3.232-.208a2.116,2.116,0,0,0,1.9-1.04,5.6,5.6,0,0,0,.656-2.976,5.6,5.6,0,0,0-.656-2.976,2.116,2.116,0,0,0-1.9-1.04,2.121,2.121,0,0,0-1.9,1.04,5.543,5.543,0,0,0-.664,2.976,5.543,5.543,0,0,0,.664,2.976A2.121,2.121,0,0,0-140.3-1.584Zm7.936-4.576a1.156,1.156,0,0,1-.848.352,1.156,1.156,0,0,1-.848-.352,1.156,1.156,0,0,1-.352-.848,1.162,1.162,0,0,1,.344-.856,1.162,1.162,0,0,1,.856-.344,1.156,1.156,0,0,1,.848.352,1.156,1.156,0,0,1,.352.848A1.156,1.156,0,0,1-132.368-6.16Zm0,6a1.156,1.156,0,0,1-.848.352,1.156,1.156,0,0,1-.848-.352,1.156,1.156,0,0,1-.352-.848,1.17,1.17,0,0,1,.344-.848,1.148,1.148,0,0,1,.856-.352,1.156,1.156,0,0,1,.848.352,1.156,1.156,0,0,1,.352.848A1.156,1.156,0,0,1-132.368-.16Zm9.456-1.216A3.766,3.766,0,0,1-126.144.208a3.787,3.787,0,0,1-3.24-1.584,6.993,6.993,0,0,1-1.16-4.224,6.993,6.993,0,0,1,1.16-4.224,3.787,3.787,0,0,1,3.24-1.584,3.787,3.787,0,0,1,3.24,1.584,6.993,6.993,0,0,1,1.16,4.224A6.958,6.958,0,0,1-122.912-1.376Zm-3.232-.208a2.116,2.116,0,0,0,1.9-1.04,5.6,5.6,0,0,0,.656-2.976,5.6,5.6,0,0,0-.656-2.976,2.116,2.116,0,0,0-1.9-1.04,2.121,2.121,0,0,0-1.9,1.04A5.543,5.543,0,0,0-128.7-5.6a5.543,5.543,0,0,0,.664,2.976A2.121,2.121,0,0,0-126.144-1.584Zm9.408-5.856a3.934,3.934,0,0,1,2.848,1.064,3.662,3.662,0,0,1,1.1,2.76,3.662,3.662,0,0,1-1.1,2.76A3.934,3.934,0,0,1-116.736.208,3.955,3.955,0,0,1-119.6-.856a3.662,3.662,0,0,1-1.1-2.76,3.881,3.881,0,0,1,.672-2.256l3.552-5.328h2.1l-2.56,3.76Zm0,5.9a2.105,2.105,0,0,0,1.52-.568,2,2,0,0,0,.592-1.512,2,2,0,0,0-.592-1.512,2.105,2.105,0,0,0-1.52-.568,2.127,2.127,0,0,0-1.536.568,2,2,0,0,0-.592,1.512,2,2,0,0,0,.592,1.512A2.127,2.127,0,0,0-116.736-1.536ZM-99.968,0l-.784-2.256h-4.768L-106.3,0h-2l4.064-11.2h2.208L-97.984,0Zm-4.944-3.984h3.552l-1.776-5.056ZM-86.064-11.2V0H-87.9V-7.984l-3.408,5.632h-.224L-94.944-8V0h-1.84V-11.2H-94.8l3.376,5.6,3.392-5.6Zm10.592,4.864h-1.984V-2.5a.957.957,0,0,0,.224.712,1,1,0,0,0,.664.24,10.936,10.936,0,0,0,1.1-.008V0A4.312,4.312,0,0,1-78.32-.344,2.414,2.414,0,0,1-79.184-2.5v-3.84h-1.472V-8h1.472V-9.728l1.728-.512V-8h1.984ZM-70.448.208A4.1,4.1,0,0,1-73.44-1.008,4.04,4.04,0,0,1-74.672-4,4.04,4.04,0,0,1-73.44-6.992a4.1,4.1,0,0,1,2.992-1.216,4.093,4.093,0,0,1,3,1.216A4.053,4.053,0,0,1-66.224-4a4.053,4.053,0,0,1-1.224,2.992A4.093,4.093,0,0,1-70.448.208Zm-1.776-2.4a2.413,2.413,0,0,0,1.776.72,2.413,2.413,0,0,0,1.776-.72A2.452,2.452,0,0,0-67.952-4a2.452,2.452,0,0,0-.72-1.808,2.413,2.413,0,0,0-1.776-.72,2.413,2.413,0,0,0-1.776.72A2.452,2.452,0,0,0-72.944-4,2.452,2.452,0,0,0-72.224-2.192ZM-58.512-11.2h1.6V0h-1.84V-9.232l-2.256.64-.448-1.568ZM-47.44-1.376A3.766,3.766,0,0,1-50.672.208a3.787,3.787,0,0,1-3.24-1.584A6.993,6.993,0,0,1-55.072-5.6a6.993,6.993,0,0,1,1.16-4.224,3.787,3.787,0,0,1,3.24-1.584,3.787,3.787,0,0,1,3.24,1.584A6.993,6.993,0,0,1-46.272-5.6,6.958,6.958,0,0,1-47.44-1.376Zm-3.232-.208a2.116,2.116,0,0,0,1.9-1.04A5.6,5.6,0,0,0-48.112-5.6a5.6,5.6,0,0,0-.656-2.976,2.116,2.116,0,0,0-1.9-1.04,2.121,2.121,0,0,0-1.9,1.04A5.543,5.543,0,0,0-53.232-5.6a5.543,5.543,0,0,0,.664,2.976A2.121,2.121,0,0,0-50.672-1.584Zm7.936-4.576a1.156,1.156,0,0,1-.848.352,1.156,1.156,0,0,1-.848-.352,1.156,1.156,0,0,1-.352-.848,1.162,1.162,0,0,1,.344-.856,1.162,1.162,0,0,1,.856-.344,1.156,1.156,0,0,1,.848.352,1.156,1.156,0,0,1,.352.848A1.156,1.156,0,0,1-42.736-6.16Zm0,6a1.156,1.156,0,0,1-.848.352,1.156,1.156,0,0,1-.848-.352,1.156,1.156,0,0,1-.352-.848,1.169,1.169,0,0,1,.344-.848,1.148,1.148,0,0,1,.856-.352,1.156,1.156,0,0,1,.848.352,1.156,1.156,0,0,1,.352.848A1.156,1.156,0,0,1-42.736-.16Zm6.528-6.464A3.755,3.755,0,0,1-34.232-5.5a3.018,3.018,0,0,1,.76,2.1,3.272,3.272,0,0,1-1.136,2.64,4.167,4.167,0,0,1-2.784.96,4.476,4.476,0,0,1-2.3-.592,3.365,3.365,0,0,1-1.464-1.728l1.568-.912a2.077,2.077,0,0,0,2.192,1.44,2.234,2.234,0,0,0,1.52-.488,1.661,1.661,0,0,0,.56-1.32,1.637,1.637,0,0,0-.56-1.312,2.258,2.258,0,0,0-1.52-.48h-.416l-.736-1.1,2.416-3.184h-4.688V-11.2h6.88v1.568ZM-30.24-11.2h1.6V0h-1.84V-9.232l-2.256.64-.448-1.568ZM-15.024,0l-.784-2.256h-4.768L-21.36,0h-2L-19.3-11.2h2.208L-13.04,0Zm-4.944-3.984h3.552L-18.192-9.04ZM-1.12-11.2V0H-2.96V-7.984L-6.368-2.352h-.224L-10-8V0h-1.84V-11.2h1.984L-6.48-5.6l3.392-5.6Z" transform="translate(150.979 44.474)"/>
        <path id="Path_4179" data-name="Path 4179" d="M5.344-6.624A3.755,3.755,0,0,1,7.32-5.5a3.018,3.018,0,0,1,.76,2.1A3.272,3.272,0,0,1,6.944-.752,4.167,4.167,0,0,1,4.16.208a4.476,4.476,0,0,1-2.3-.592A3.365,3.365,0,0,1,.4-2.112l1.568-.912A2.077,2.077,0,0,0,4.16-1.584a2.234,2.234,0,0,0,1.52-.488,1.661,1.661,0,0,0,.56-1.32A1.637,1.637,0,0,0,5.68-4.7a2.258,2.258,0,0,0-1.52-.48H3.744l-.736-1.1L5.424-9.472H.736V-11.2h6.88v1.568ZM11.216-.16a1.156,1.156,0,0,1-.848.352A1.156,1.156,0,0,1,9.52-.16a1.156,1.156,0,0,1-.352-.848,1.169,1.169,0,0,1,.344-.848,1.148,1.148,0,0,1,.856-.352,1.156,1.156,0,0,1,.848.352,1.156,1.156,0,0,1,.352.848A1.156,1.156,0,0,1,11.216-.16ZM15.552-11.2h1.6V0h-1.84V-9.232l-2.256.64-.448-1.568ZM30.432,0H28.368l-3.28-3.7V0H23.36V-11.2h1.728v6.736L28.192-8H30.3l-3.52,3.92Zm9.9-8.208a2.877,2.877,0,0,1,2.192.88A3.306,3.306,0,0,1,43.36-4.96V0H41.632V-4.848a1.843,1.843,0,0,0-.416-1.288,1.461,1.461,0,0,0-1.136-.456,1.621,1.621,0,0,0-1.272.528,2.313,2.313,0,0,0-.472,1.584V0H36.608V-4.848a1.917,1.917,0,0,0-.392-1.288A1.387,1.387,0,0,0,35.1-6.592a1.665,1.665,0,0,0-1.28.536,2.243,2.243,0,0,0-.5,1.576V0H31.6V-8h1.728v.96a2.558,2.558,0,0,1,2.288-1.168,2.449,2.449,0,0,1,2.272,1.264A2.7,2.7,0,0,1,40.336-8.208Z" transform="translate(113.979 15.474)"/>
      </g>
    </g>
    <g id="Group_4255" data-name="Group 4255" transform="translate(18369.768 10631)">
      <g transform="matrix(1, 0, 0, 1, -12.5, 0)" filter="url(#Path_2175-3)">
        <path id="Path_2175-6" data-name="Path 2175" d="M0,0H479.811V55.354a14.96,14.96,0,0,1-14.96,14.96H14.96A14.96,14.96,0,0,1,0,55.354Z" transform="translate(12.5 94.25)" fill="#fff"/>
      </g>
      <g id="Group_2911-3" data-name="Group 2911" transform="translate(0 0)">
        <g id="Group_2886-3" data-name="Group 2886">
          <path id="Rectangle_2232-3" data-name="Rectangle 2232" d="M10,0H469.814a10,10,0,0,1,10,10V95.983a0,0,0,0,1,0,0H0a0,0,0,0,1,0,0V10A10,10,0,0,1,10,0Z" fill="#4db748"/>
          <g id="Group_4251-3" data-name="Group 4251" transform="translate(218.883 32.009)">
            <path id="Path_2405-6" data-name="Path 2405" d="M63.548,46.058l-.192-1.111h2.6A1.1,1.1,0,0,0,67.024,43.6l-1.034-4.379a1.1,1.1,0,0,0-1.067-.843H62.2l-.011-.066A5.421,5.421,0,0,0,57.057,34H37.264a5.718,5.718,0,0,0-5.32,4.275l-.022.1h-2.7a1.1,1.1,0,0,0-1.067.843L27.122,43.6a1.1,1.1,0,0,0,1.067,1.346h2.293l-.241,1.1A4.393,4.393,0,0,0,26,50.42v7.663a4.392,4.392,0,0,0,4.379,4.379v.783a3.094,3.094,0,0,0,3.136,3.049H36a3.094,3.094,0,0,0,3.136-3.049v-.783H54.462v.783A3.094,3.094,0,0,0,57.6,66.294h2.485a3.094,3.094,0,0,0,3.136-3.049v-.783A4.392,4.392,0,0,0,67.6,58.083V50.42A4.39,4.39,0,0,0,63.548,46.058Zm.509-5.49.515,2.189h-1.6l-.383-2.189ZM34.084,38.746a3.555,3.555,0,0,1,3.18-2.556H57.057a3.228,3.228,0,0,1,2.978,2.5l1.292,7.351H32.486Zm-4.51,4.012.515-2.189h1.357l-.482,2.189Zm7.373,20.487A.911.911,0,0,1,36,64.1H33.515a.911.911,0,0,1-.947-.859v-.783h4.379Zm24.083,0a.911.911,0,0,1-.947.859H57.6a.911.911,0,0,1-.947-.859v-.783H61.03Zm4.379-5.162a2.189,2.189,0,0,1-2.189,2.189H30.379a2.189,2.189,0,0,1-2.189-2.189V50.42a2.189,2.189,0,0,1,2.189-2.189H63.22a2.189,2.189,0,0,1,2.189,2.189Z" transform="translate(-26 -34)" fill="#fff"/>
            <path id="Path_2406-6" data-name="Path 2406" d="M43.852,69.379H56.989a1.095,1.095,0,0,0,0-2.189H43.852a1.095,1.095,0,0,0,0,2.189ZM37.284,65a3.284,3.284,0,1,0,3.284,3.284A3.284,3.284,0,0,0,37.284,65Zm0,4.379a1.095,1.095,0,1,1,1.095-1.095A1.095,1.095,0,0,1,37.284,69.379Z" transform="translate(-29.621 -48.032)" fill="#fff"/>
            <path id="Path_2407-6" data-name="Path 2407" d="M85.284,65a3.284,3.284,0,1,0,3.284,3.284A3.284,3.284,0,0,0,85.284,65Zm0,4.379a1.095,1.095,0,1,1,1.095-1.095A1.095,1.095,0,0,1,85.284,69.379Z" transform="translate(-51.348 -48.032)" fill="#fff"/>
          </g>
        </g>
      </g>
      <path id="Path_4176" data-name="Path 4176" d="M14.672-5.488A5.318,5.318,0,0,1,13.1-1.5,6.864,6.864,0,0,1,9.016.336V2.8H7.14V.364A8.02,8.02,0,0,1,3.108-.952,6.34,6.34,0,0,1,.7-4.06L4.032-5.992A3.758,3.758,0,0,0,7.14-3.444V-8.288H7.112l-.056-.028q-.98-.364-1.6-.644a11.664,11.664,0,0,1-1.442-.812A5.362,5.362,0,0,1,2.73-10.878a5.564,5.564,0,0,1-.812-1.47,5.342,5.342,0,0,1-.35-1.96,5.112,5.112,0,0,1,1.61-3.948A6.594,6.594,0,0,1,7.14-19.964V-22.4H9.016v2.492a6.349,6.349,0,0,1,5.376,3.948l-3.248,1.9A3.1,3.1,0,0,0,9.016-16.1v4.676a20.431,20.431,0,0,1,3.5,1.652A4.969,4.969,0,0,1,14.672-5.488ZM5.4-14.28A1.615,1.615,0,0,0,5.8-13.2a4.3,4.3,0,0,0,1.344.938v-3.92a2.253,2.253,0,0,0-1.288.672A1.788,1.788,0,0,0,5.4-14.28ZM9.016-3.5q1.792-.392,1.792-1.96a1.681,1.681,0,0,0-.434-1.176,4.165,4.165,0,0,0-1.358-.9ZM16.128,0V-2.884L22.82-9.772q2.24-2.352,2.24-3.92a2.471,2.471,0,0,0-.714-1.848,2.51,2.51,0,0,0-1.834-.7,3.463,3.463,0,0,0-3.276,2.3l-3.248-1.9a6.847,6.847,0,0,1,2.66-3.08,7.148,7.148,0,0,1,3.808-1.064,6.7,6.7,0,0,1,4.564,1.666,5.668,5.668,0,0,1,1.9,4.494q0,3.052-3.22,6.272L21.868-3.724h7.364V0ZM35.672-.336a2.291,2.291,0,0,1-1.68.7,2.291,2.291,0,0,1-1.68-.7,2.291,2.291,0,0,1-.7-1.68,2.291,2.291,0,0,1,.7-1.68,2.291,2.291,0,0,1,1.68-.7,2.291,2.291,0,0,1,1.68.7,2.291,2.291,0,0,1,.7,1.68A2.291,2.291,0,0,1,35.672-.336ZM43.2-19.6h3.36V0H42.7V-15.512L39-14.476l-.952-3.3Zm17.64,9.408A5.2,5.2,0,0,1,63.56-5.46a5.27,5.27,0,0,1-1.89,4.284A7.8,7.8,0,0,1,56.532.392,7.792,7.792,0,0,1,51.38-1.176,5.287,5.287,0,0,1,49.5-5.46a5.207,5.207,0,0,1,2.688-4.732,4.749,4.749,0,0,1-2.044-4.06,5.176,5.176,0,0,1,1.834-4.228,6.915,6.915,0,0,1,4.55-1.512,6.86,6.86,0,0,1,4.536,1.512,5.193,5.193,0,0,1,1.82,4.228A4.7,4.7,0,0,1,60.844-10.192Zm-2.492-5.544a2.654,2.654,0,0,0-1.82-.616,2.654,2.654,0,0,0-1.82.616,2.123,2.123,0,0,0-.7,1.68,2.166,2.166,0,0,0,.7,1.694,2.617,2.617,0,0,0,1.82.63,2.617,2.617,0,0,0,1.82-.63,2.166,2.166,0,0,0,.7-1.694A2.123,2.123,0,0,0,58.352-15.736ZM54.208-3.948a3.665,3.665,0,0,0,2.324.7,3.558,3.558,0,0,0,2.31-.714,2.431,2.431,0,0,0,.882-2,2.4,2.4,0,0,0-.882-1.974,3.558,3.558,0,0,0-2.31-.714,3.558,3.558,0,0,0-2.31.714,2.4,2.4,0,0,0-.882,1.974A2.489,2.489,0,0,0,54.208-3.948Z" transform="translate(12.232 149.385)"/>
      <g id="Group_4258" data-name="Group 4258" transform="translate(307.548 104.419)">
        <path id="Path_4175" data-name="Path 4175" d="M-146.928-11.2h1.6V0h-1.84V-9.232l-2.256.64-.448-1.568Zm11.072,9.824A3.766,3.766,0,0,1-139.088.208a3.787,3.787,0,0,1-3.24-1.584,6.993,6.993,0,0,1-1.16-4.224,6.993,6.993,0,0,1,1.16-4.224,3.787,3.787,0,0,1,3.24-1.584,3.787,3.787,0,0,1,3.24,1.584,6.993,6.993,0,0,1,1.16,4.224A6.958,6.958,0,0,1-135.856-1.376Zm-3.232-.208a2.116,2.116,0,0,0,1.9-1.04,5.6,5.6,0,0,0,.656-2.976,5.6,5.6,0,0,0-.656-2.976,2.116,2.116,0,0,0-1.9-1.04,2.121,2.121,0,0,0-1.9,1.04,5.543,5.543,0,0,0-.664,2.976,5.543,5.543,0,0,0,.664,2.976A2.121,2.121,0,0,0-139.088-1.584Zm7.936-4.576a1.156,1.156,0,0,1-.848.352,1.156,1.156,0,0,1-.848-.352,1.156,1.156,0,0,1-.352-.848,1.162,1.162,0,0,1,.344-.856A1.162,1.162,0,0,1-132-8.208a1.156,1.156,0,0,1,.848.352,1.156,1.156,0,0,1,.352.848A1.156,1.156,0,0,1-131.152-6.16Zm0,6A1.156,1.156,0,0,1-132,.192a1.156,1.156,0,0,1-.848-.352,1.156,1.156,0,0,1-.352-.848,1.17,1.17,0,0,1,.344-.848A1.148,1.148,0,0,1-132-2.208a1.156,1.156,0,0,1,.848.352,1.156,1.156,0,0,1,.352.848A1.156,1.156,0,0,1-131.152-.16Zm4.336-11.04h1.6V0h-1.84V-9.232l-2.256.64-.448-1.568Zm7.168,3.76A3.934,3.934,0,0,1-116.8-6.376a3.662,3.662,0,0,1,1.1,2.76,3.662,3.662,0,0,1-1.1,2.76A3.934,3.934,0,0,1-119.648.208a3.955,3.955,0,0,1-2.864-1.064,3.662,3.662,0,0,1-1.1-2.76,3.881,3.881,0,0,1,.672-2.256l3.552-5.328h2.1l-2.56,3.76Zm0,5.9a2.105,2.105,0,0,0,1.52-.568,2,2,0,0,0,.592-1.512,2,2,0,0,0-.592-1.512,2.105,2.105,0,0,0-1.52-.568,2.127,2.127,0,0,0-1.536.568,2,2,0,0,0-.592,1.512,2,2,0,0,0,.592,1.512A2.127,2.127,0,0,0-119.648-1.536ZM-102.88,0l-.784-2.256h-4.768L-109.216,0h-2l4.064-11.2h2.208L-100.9,0Zm-4.944-3.984h3.552l-1.776-5.056ZM-88.976-11.2V0h-1.84V-7.984l-3.408,5.632h-.224L-97.856-8V0H-99.7V-11.2h1.984l3.376,5.6,3.392-5.6Zm10.592,4.864h-1.984V-2.5a.957.957,0,0,0,.224.712,1,1,0,0,0,.664.24,10.936,10.936,0,0,0,1.1-.008V0a4.312,4.312,0,0,1-2.848-.344A2.414,2.414,0,0,1-82.1-2.5v-3.84h-1.472V-8H-82.1V-9.728l1.728-.512V-8h1.984ZM-73.36.208a4.1,4.1,0,0,1-2.992-1.216A4.04,4.04,0,0,1-77.584-4a4.04,4.04,0,0,1,1.232-2.992A4.1,4.1,0,0,1-73.36-8.208a4.093,4.093,0,0,1,3,1.216A4.053,4.053,0,0,1-69.136-4,4.053,4.053,0,0,1-70.36-1.008,4.093,4.093,0,0,1-73.36.208Zm-1.776-2.4a2.413,2.413,0,0,0,1.776.72,2.413,2.413,0,0,0,1.776-.72A2.452,2.452,0,0,0-70.864-4a2.452,2.452,0,0,0-.72-1.808,2.413,2.413,0,0,0-1.776-.72,2.413,2.413,0,0,0-1.776.72A2.452,2.452,0,0,0-75.856-4,2.452,2.452,0,0,0-75.136-2.192ZM-61.424-11.2h1.6V0h-1.84V-9.232l-2.256.64-.448-1.568Zm11.072,9.824A3.766,3.766,0,0,1-53.584.208a3.787,3.787,0,0,1-3.24-1.584A6.993,6.993,0,0,1-57.984-5.6a6.993,6.993,0,0,1,1.16-4.224,3.787,3.787,0,0,1,3.24-1.584,3.787,3.787,0,0,1,3.24,1.584A6.993,6.993,0,0,1-49.184-5.6,6.958,6.958,0,0,1-50.352-1.376Zm-3.232-.208a2.116,2.116,0,0,0,1.9-1.04A5.6,5.6,0,0,0-51.024-5.6a5.6,5.6,0,0,0-.656-2.976,2.116,2.116,0,0,0-1.9-1.04,2.121,2.121,0,0,0-1.9,1.04A5.543,5.543,0,0,0-56.144-5.6a5.543,5.543,0,0,0,.664,2.976A2.121,2.121,0,0,0-53.584-1.584Zm7.936-4.576a1.156,1.156,0,0,1-.848.352,1.156,1.156,0,0,1-.848-.352,1.156,1.156,0,0,1-.352-.848,1.162,1.162,0,0,1,.344-.856,1.162,1.162,0,0,1,.856-.344,1.156,1.156,0,0,1,.848.352,1.156,1.156,0,0,1,.352.848A1.156,1.156,0,0,1-45.648-6.16Zm0,6A1.156,1.156,0,0,1-46.5.192a1.156,1.156,0,0,1-.848-.352,1.156,1.156,0,0,1-.352-.848,1.169,1.169,0,0,1,.344-.848,1.148,1.148,0,0,1,.856-.352,1.156,1.156,0,0,1,.848.352,1.156,1.156,0,0,1,.352.848A1.156,1.156,0,0,1-45.648-.16Zm1.68.16V-1.44l3.9-3.984A3.9,3.9,0,0,0-38.64-7.888a1.656,1.656,0,0,0-.488-1.272,1.744,1.744,0,0,0-1.24-.456,2.194,2.194,0,0,0-2.08,1.392L-44-9.136a3.807,3.807,0,0,1,1.488-1.7,4.057,4.057,0,0,1,2.128-.576,3.7,3.7,0,0,1,2.528.928A3.193,3.193,0,0,1-36.8-7.952,5.457,5.457,0,0,1-38.7-4.3l-2.528,2.528h4.64V0ZM-31.76-6.976a4,4,0,0,1,2.7.952,3.291,3.291,0,0,1,1.1,2.632,3.272,3.272,0,0,1-1.136,2.64,4.167,4.167,0,0,1-2.784.96,4.473,4.473,0,0,1-2.352-.616A3.383,3.383,0,0,1-35.68-2.192L-34.1-3.1a2.058,2.058,0,0,0,2.224,1.52,2.24,2.24,0,0,0,1.512-.488,1.651,1.651,0,0,0,.568-1.32,1.637,1.637,0,0,0-.56-1.312,2.208,2.208,0,0,0-1.488-.48H-35.1l.432-6.016h6.24v1.728h-4.544l-.192,2.5ZM-15.024,0l-.784-2.256h-4.768L-21.36,0h-2L-19.3-11.2h2.208L-13.04,0Zm-4.944-3.984h3.552L-18.192-9.04ZM-1.12-11.2V0H-2.96V-7.984L-6.368-2.352h-.224L-10-8V0h-1.84V-11.2h1.984L-6.48-5.6l3.392-5.6Z" transform="translate(149.684 45.966)"/>
        <path id="Path_4174" data-name="Path 4174" d="M3.152-11.2h1.6V0H2.912V-9.232l-2.256.64L.208-10.16ZM8.848-.16A1.156,1.156,0,0,1,8,.192,1.156,1.156,0,0,1,7.152-.16,1.156,1.156,0,0,1,6.8-1.008a1.169,1.169,0,0,1,.344-.848A1.148,1.148,0,0,1,8-2.208a1.156,1.156,0,0,1,.848.352,1.156,1.156,0,0,1,.352.848A1.156,1.156,0,0,1,8.848-.16ZM16.8-5.824A2.933,2.933,0,0,1,18.448-3.1,2.98,2.98,0,0,1,17.376-.68a4.322,4.322,0,0,1-2.848.888A4.355,4.355,0,0,1,11.672-.68,2.971,2.971,0,0,1,10.592-3.1a2.98,2.98,0,0,1,.432-1.576A3.185,3.185,0,0,1,12.24-5.824a2.671,2.671,0,0,1-1.264-2.368A2.9,2.9,0,0,1,12-10.568a3.855,3.855,0,0,1,2.528-.84,3.863,3.863,0,0,1,2.52.84A2.89,2.89,0,0,1,18.08-8.192,2.663,2.663,0,0,1,16.8-5.824Zm-2.272-3.84a1.86,1.86,0,0,0-1.232.4,1.415,1.415,0,0,0-.48,1.152A1.414,1.414,0,0,0,13.3-6.976a1.821,1.821,0,0,0,1.224.416,1.829,1.829,0,0,0,1.216-.416,1.4,1.4,0,0,0,.5-1.136,1.4,1.4,0,0,0-.488-1.152A1.867,1.867,0,0,0,14.528-9.664Zm0,8.128a2.351,2.351,0,0,0,1.5-.456,1.548,1.548,0,0,0,.576-1.288,1.548,1.548,0,0,0-.576-1.288,2.351,2.351,0,0,0-1.5-.456,2.378,2.378,0,0,0-1.52.456,1.548,1.548,0,0,0-.576,1.288,1.548,1.548,0,0,0,.576,1.288A2.378,2.378,0,0,0,14.528-1.536ZM31.088,0H29.024l-3.28-3.7V0H24.016V-11.2h1.728v6.736L28.848-8H30.96L27.44-4.08Zm9.9-8.208a2.877,2.877,0,0,1,2.192.88,3.306,3.306,0,0,1,.832,2.368V0H42.288V-4.848a1.843,1.843,0,0,0-.416-1.288,1.461,1.461,0,0,0-1.136-.456,1.621,1.621,0,0,0-1.272.528,2.313,2.313,0,0,0-.472,1.584V0H37.264V-4.848a1.917,1.917,0,0,0-.392-1.288,1.387,1.387,0,0,0-1.112-.456,1.665,1.665,0,0,0-1.28.536,2.243,2.243,0,0,0-.5,1.576V0H32.256V-8h1.728v.96a2.558,2.558,0,0,1,2.288-1.168,2.449,2.449,0,0,1,2.272,1.264A2.7,2.7,0,0,1,40.992-8.208Z" transform="translate(112.684 14.966)"/>
      </g>
    </g>
  </g>
</svg>
