<svg xmlns="http://www.w3.org/2000/svg" width="329" height="329" viewBox="0 0 329 329">
  <g id="Group_3146" data-name="Group 3146" transform="translate(-0.077 0.154)">
    <circle id="Ellipse_327" data-name="Ellipse 327" cx="164.5" cy="164.5" r="164.5" transform="translate(0.077 -0.154)" fill="#1970a7"/>
    <path id="Icon_awesome-car" data-name="Icon awesome-car" d="M168.124,40.411H147.993l-5.6-13.988A37.47,37.47,0,0,0,107.433,2.75h-42.7A37.481,37.481,0,0,0,29.761,26.423l-5.6,13.988H4.037A4.034,4.034,0,0,0,.123,45.424l2.018,8.07a4.033,4.033,0,0,0,3.914,3.057H12.8a21.37,21.37,0,0,0-7.425,16.14v16.14a21.345,21.345,0,0,0,5.38,14.1v18.181a10.762,10.762,0,0,0,10.76,10.76H32.28a10.762,10.762,0,0,0,10.76-10.76v-10.76h86.082v10.76a10.762,10.762,0,0,0,10.76,10.76h10.76a10.762,10.762,0,0,0,10.76-10.76V102.931a21.332,21.332,0,0,0,5.38-14.1V72.692a21.379,21.379,0,0,0-7.421-16.14h6.749a4.033,4.033,0,0,0,3.914-3.057l2.018-8.07A4.037,4.037,0,0,0,168.124,40.411Zm-118.383-6A16.142,16.142,0,0,1,64.729,24.271h42.7A16.142,16.142,0,0,1,122.42,34.415l6.7,16.756H43.04l6.7-16.756ZM32.28,88.765c-6.456,0-10.76-4.291-10.76-10.727s4.3-10.727,10.76-10.727S48.42,76.965,48.42,83.4,38.736,88.765,32.28,88.765Zm107.6,0c-6.456,0-16.14,1.073-16.14-5.363s9.684-16.09,16.14-16.09,10.76,4.291,10.76,10.727-4.3,10.727-10.76,10.727Z" transform="translate(82.171 93.271)" fill="#fff"/>
  </g>
</svg>
