<svg xmlns="http://www.w3.org/2000/svg" width="532.16" height="532.16" viewBox="0 0 532.16 532.16">
  <g id="Group_2" data-name="Group 2" transform="translate(-2588.7 -2034.8)">
    <path id="Path_2" data-name="Path 2" d="M799.86,486.116A123.851,123.851,0,0,1,676.024,609.96H391.614A123.868,123.868,0,0,1,267.7,486.116v-284.4A123.883,123.883,0,0,1,391.614,77.8h284.4A123.868,123.868,0,0,1,799.86,201.714Z" transform="translate(2321 1957)" fill="#132f79"/>
    <path id="Path_3" data-name="Path 3" d="M656.739,312.6a51.07,51.07,0,0,0-18.251-18.741c-19.161-11.468-42.657-9.231-59.09,5.8-8.182,7.482-12.867,17.412-16.5,27.762a149.989,149.989,0,0,0-7.972,39.86c-1.049,16.5-1.678,33.076-1.608,49.58.21,20,1.329,40,2.1,59.929,1.259,31.958-10.769,59.02-30.489,83.286a151.543,151.543,0,0,1-33.566,30.559,23.8,23.8,0,0,1-3.147,1.958c-4.895,2.378-9.37-.14-9.86-5.594-.14-1.678-.07-3.427-.07-5.175,0-86.083-.14-172.235.07-258.388.07-31.958,11.329-59.859,32.937-83.425,20.7-22.587,46.293-36.083,76.642-39.65,38.321-4.545,72.167,6.224,100.7,32.377,24.475,22.447,37.692,50.489,40,83.425,2.1,29.58-5.454,56.782-22.867,81.048-20.489,28.531-48.181,45.524-82.656,51.4-6.224,1.049-12.587.909-18.881,1.259a6.16,6.16,0,0,1-6.853-4.965c-.979-3.5,1.049-5.874,3.916-7.552,4.615-2.727,9.3-5.175,13.776-8.112,11.888-7.762,21.748-17.412,27.9-30.419,7.552-15.944,7.273-32.167,2.448-48.81a135.374,135.374,0,0,1-4.685-22.377c-1.189-10.419,3.217-14.685,13.776-14.825.49,0,.979-.07,2.238-.21Z" transform="translate(2257.69 1920.448)" fill="#fff"/>
    <path id="Path_4" data-name="Path 4" d="M497.68,579.288a38.476,38.476,0,0,0,3.5-2.447c14.825-12.517,27.062-27.133,35.734-44.475a103.625,103.625,0,0,0,11.4-50.838c-.42-14.405-1.538-28.811-1.958-43.286-.35-13.147-.42-26.363-.07-39.58.35-12.447.979-24.895,2.378-37.272,1.958-16.783,6.084-33.007,13.846-48.181,18.182-35.734,58.111-40.839,84.334-27.342,17.482,8.951,28.042,24.056,35.244,41.888a6.591,6.591,0,0,1-8.811,8.391c-3.5-1.469-6.923-3.147-10.489-4.545-2.517-.979-3.986-.21-3.357,2.727,1.049,4.825,1.958,9.72,3.357,14.405,3.706,12.168,6.224,24.475,4.615,37.2-2.308,19.021-10.559,35.034-24.545,48.181-1.049,1.049-2.1,2.168-3.776,3.916a14.135,14.135,0,0,0,2.448-.28c2.238-.7,4.545-1.259,6.713-2.1,29.72-11.468,51.118-31.678,64.055-60.838a107.953,107.953,0,0,0,8.741-54.265c-2.517-28.042-13.986-52.027-34.545-71.467-24.265-22.937-53.356-33.216-86.432-30.559-31.888,2.587-58.321,16.783-78.46,41.888-15.035,18.671-24.056,40.139-24.2,64.055-.42,83.425-.14,166.851-.14,250.206C497.261,576,497.47,577.26,497.68,579.288Z" transform="translate(2251.996 1914.806)" fill="#fff"/>
    <path id="Path_5" data-name="Path 5" d="M668.843,343.7a6.268,6.268,0,0,1,6.294,6.294,6.658,6.658,0,0,1-6.5,6.643,6.988,6.988,0,0,1-6.433-6.853A6.45,6.45,0,0,1,668.843,343.7Z" transform="translate(2202.37 1877.042)" fill="#fff"/>
  </g>
</svg>
