<svg xmlns="http://www.w3.org/2000/svg" xmlns:xlink="http://www.w3.org/1999/xlink" width="122.994" height="122.994" viewBox="0 0 122.994 122.994">
  <defs>
    <clipPath id="clip-path">
      <path id="path22" d="M278.858-849.3a61.5,61.5,0,0,1-61.5,61.5,61.5,61.5,0,0,1-61.5-61.5,61.5,61.5,0,0,1,61.5-61.5,61.5,61.5,0,0,1,61.5,61.5" transform="translate(-155.864 910.799)"/>
    </clipPath>
    <clipPath id="clip-path-2">
      <path id="path28" d="M340.984-569.735h0l-32.753-32.753-4.8-4.595h74.911v-43.2L402.2-626.429a61.506,61.506,0,0,1-61.215,56.694" transform="translate(-303.431 650.286)"/>
    </clipPath>
    <linearGradient id="linear-gradient" x1="-0.5" y1="1.315" x2="-0.5" y2="1.315" gradientUnits="objectBoundingBox">
      <stop offset="0" stop-color="#edc72d"/>
      <stop offset="0.109" stop-color="#edc72d"/>
      <stop offset="0.677" stop-color="#c2a022"/>
      <stop offset="1" stop-color="#c2a022"/>
    </linearGradient>
  </defs>
  <g id="g10" transform="translate(-155.864 910.799)">
    <g id="g12" transform="translate(155.864 -910.799)">
      <path id="path16" d="M278.858-849.3a61.5,61.5,0,0,1-61.5,61.5,61.5,61.5,0,0,1-61.5-61.5,61.5,61.5,0,0,1,61.5-61.5,61.5,61.5,0,0,1,61.5,61.5" transform="translate(-155.864 910.799)" fill="#eec82d"/>
      <g id="g18">
        <g id="g20" clip-path="url(#clip-path)">
          <g id="g26" transform="translate(24.042 42.443)" clip-path="url(#clip-path-2)">
            <path id="path42" d="M340.891-569.807v-.022h-.022v-.022h-.022v-.022h-.022v-.022H340.8v-.022h-.022v-.022h-.022v-.022h-.022v-.022h-.022V-570H340.7v-.022h-.022v-.022h-.022v-.022h-.022v-.022h-.022v-.022h-.022v-.022h-.022v-.022h-.022v-.022h-.022v-.022H340.5v-.022h-.022v-.022h-.022v-.022h-.022v-.022h-.022v-.022h-.022v-.022h-.022v-.022h-.022v-.022h-.022v-.022H340.3v-.022h-.022v-.022h-.022v-.022h-.022v-.022h-.022v-.022H340.2v-.022h-.022v-.022h-.022v-.022h-.022v-.022h-.022v-.022h-.022v-.022h-.022v-.022h-.022v-.022h-.022v-.022H340v-.022h-.022v-.022h-.022v-.022h-.022v-.022h-.022v-.022h-.022v-.022h-.022v-.022h-.022v-.022h-.022v-.022H339.8v-.022h-.022v-.022h-.022v-.022h-.022v-.022h-.022V-571H339.7v-.022h-.022v-.022h-.022v-.022h-.022v-.022h-.022v-.022h-.022v-.022h-.022v-.022h-.022v-.022h-.022v-.022H339.5v-.022h-.022v-.022h-.022v-.022h-.022v-.022h-.022v-.022h-.022v-.022h-.022v-.022h-.022v-.022h-.022v-.022h-.022v-.022h-.022v-.022h-.022v-.022h-.022v-.022h-.022v-.022H339.2v-.022h-.022v-.022h-.022v-.022h-.022v-.022h-.022v-.022h-.022v-.022h-.022v-.022h-.022v-.022h-.022v-.022H339v-.022h-.022v-.022h-.022v-.022h-.022v-.022h-.022v-.022h-.022v-.022h-.022v-.022h-.022v-.022h-.022v-.022h-.022v-.022h-.022v-.022h-.022v-.022h-.022v-.022h-.022V-572H338.7v-.022h-.022v-.022h-.022v-.022h-.022v-.022h-.022v-.022h-.022v-.022h-.022v-.022h-.022v-.022h-.022v-.022H338.5v-.022h-.022v-.022h-.022v-.022h-.022v-.022h-.022v-.022h-.022v-.022h-.022v-.022h-.022v-.022h-.022v-.022h-.022v-.022h-.022v-.022h-.022v-.022h-.022v-.022h-.022v-.022H338.2v-.022h-.022v-.022h-.022v-.022h-.022v-.022h-.022v-.022h-.022v-.022h-.022v-.022h-.022v-.022h-.022v-.022H338v-.022h-.022v-.022h-.022v-.022h-.022v-.022h-.022v-.022h-.022v-.022h-.022v-.022h-.022v-.022h-.022v-.022h-.022v-.022h-.022v-.022h-.022v-.022h-.022v-.022h-.022V-573H337.7v-.022h-.022v-.022h-.022v-.022h-.022v-.022h-.022v-.022h-.022v-.022h-.022v-.022h-.022v-.022h-.022v-.022H337.5v-.022h-.022v-.022h-.022v-.022h-.022v-.022h-.022v-.022h-.022v-.022h-.022v-.022h-.022v-.022h-.022v-.022h-.022v-.022h-.022v-.022h-.022v-.022h-.022v-.022h-.022v-.022H337.2v-.022h-.022v-.022h-.022v-.022h-.022v-.022h-.022v-.022h-.022v-.022h-.022v-.022h-.022v-.022h-.022v-.022H337v-.022h-.022v-.022h-.022v-.022h-.022v-.022h-.022v-.022h-.022v-.022h-.022v-.022h-.022v-.022h-.022v-.022h-.022v-.022h-.022v-.022h-.022v-.022h-.022v-.022h-.022V-574H336.7v-.022h-.022v-.022h-.022v-.022h-.022v-.022h-.022v-.022h-.022v-.022h-.022v-.022h-.022v-.022h-.022v-.022H336.5v-.022h-.022v-.022h-.022v-.022h-.022v-.022h-.022v-.022h-.022v-.022h-.022v-.022h-.022v-.022h-.022v-.022h-.022v-.022h-.022v-.022h-.022v-.022h-.022v-.022h-.022v-.022H336.2v-.022h-.022v-.022h-.022v-.022h-.022v-.022h-.022v-.022h-.022v-.022h-.022v-.022h-.022v-.022h-.022v-.022H336v-.022h-.022v-.022h-.022v-.022h-.022v-.022h-.022v-.022h-.022v-.022h-.022v-.022h-.022v-.022h-.022v-.022h-.022v-.022h-.022v-.022h-.022v-.022h-.022v-.022h-.022V-575H335.7v-.022h-.022v-.022h-.022v-.022h-.022v-.022h-.022v-.022h-.022v-.022h-.022v-.022h-.022v-.022h-.022v-.022H335.5v-.022h-.022v-.022h-.022v-.022h-.022v-.022h-.022v-.022H335.4v-.022h-.022v-.022h-.022v-.022h-.022v-.022h-.022v-.022h-.022v-.022h-.022v-.022h-.022v-.022h-.022v-.022H335.2v-.022h-.022v-.022h-.022v-.022h-.022v-.022h-.022v-.022h-.022v-.022h-.022v-.022h-.022v-.022h-.022v-.022H335v-.022h-.022v-.022h-.022v-.022h-.022v-.022h-.022v-.022H334.9v-.022h-.022v-.022h-.022v-.022h-.022v-.022h-.022v-.022h-.022v-.022h-.022v-.022h-.022v-.022h-.022V-576H334.7v-.022h-.022v-.022h-.022v-.022h-.022v-.022h-.022v-.022h-.022v-.022h-.022v-.022h-.022v-.022h-.022v-.022H334.5v-.022h-.022v-.022h-.022v-.022h-.022v-.022h-.022v-.022H334.4v-.022h-.022v-.022h-.022v-.022h-.022v-.022h-.022v-.022h-.022v-.022h-.022v-.022h-.022v-.022h-.022v-.022H334.2v-.022h-.022v-.022h-.022v-.022h-.022v-.022h-.022v-.022h-.022v-.022h-.022v-.022h-.022v-.022h-.022v-.022H334v-.022h-.022v-.022h-.022v-.022h-.022v-.022h-.022v-.022H333.9v-.022h-.022v-.022h-.022v-.022h-.022v-.022h-.022v-.022h-.022v-.022h-.022v-.022h-.022v-.022h-.022V-577H333.7v-.022h-.022v-.022h-.022v-.022h-.022v-.022h-.022v-.022h-.022v-.022h-.022v-.022h-.022v-.022h-.022v-.022h-.022v-.022h-.022v-.022h-.022v-.022h-.022v-.022h-.022v-.022H333.4v-.022h-.022v-.022h-.022v-.022h-.022v-.022h-.022v-.022h-.022v-.022h-.022v-.022h-.022v-.022h-.022v-.022H333.2v-.022h-.022v-.022h-.022v-.022h-.022v-.022h-.022v-.022h-.022v-.022h-.022v-.022h-.022v-.022h-.022v-.022h-.022v-.022h-.022v-.022h-.022v-.022h-.022v-.022h-.022v-.022H332.9v-.022h-.022v-.022h-.022v-.022h-.022v-.022h-.022v-.022h-.022v-.022h-.022v-.022h-.022v-.022h-.022V-578H332.7v-.022h-.022v-.022h-.022v-.022h-.022v-.022h-.022v-.022h-.022v-.022h-.022v-.022h-.022v-.022h-.022v-.022h-.022v-.022h-.022v-.022h-.022v-.022h-.022v-.022h-.022v-.022H332.4v-.022h-.022v-.022h-.022v-.022h-.022v-.022h-.022v-.022h-.022v-.022h-.022v-.022h-.022v-.022h-.022v-.022H332.2v-.022h-.022v-.022h-.022v-.022h-.022v-.022h-.022v-.022h-.022v-.022h-.022v-.022h-.022v-.022h-.022v-.022h-.022v-.022h-.022v-.022h-.022v-.022h-.022v-.022h-.022v-.022H331.9v-.022h-.022v-.022h-.022v-.022h-.022v-.022h-.022v-.022h-.022v-.022h-.022v-.022h-.022v-.022h-.022V-579H331.7v-.022h-.022v-.022h-.022v-.022h-.022v-.022h-.022v-.022h-.022v-.022h-.022v-.022h-.022v-.022h-.022v-.022h-.022v-.022h-.022v-.022h-.022v-.022h-.022v-.022h-.022v-.022H331.4v-.022h-.022v-.022h-.022v-.022h-.022v-.022h-.022v-.022h-.022v-.022h-.022v-.022h-.022v-.022h-.022v-.022H331.2v-.022h-.022v-.022h-.022v-.022h-.022v-.022h-.022v-.022h-.022v-.022h-.022v-.022h-.022v-.022h-.022v-.022h-.022v-.022h-.022v-.022h-.022v-.022h-.022v-.022h-.022v-.022H330.9v-.022h-.022v-.022h-.022v-.022h-.022v-.022h-.022v-.022h-.022v-.022h-.022v-.022h-.022v-.022h-.022V-580H330.7v-.022h-.022v-.022h-.022v-.022h-.022v-.022h-.022v-.022h-.022v-.022h-.022v-.022h-.022v-.022h-.022v-.022h-.022v-.022h-.022v-.022h-.022v-.022h-.022v-.022h-.022v-.022H330.4v-.022h-.022v-.022h-.022v-.022h-.022v-.022h-.022v-.022h-.022v-.022h-.022v-.022h-.022v-.022h-.022v-.022H330.2v-.022h-.022v-.022h-.022v-.022h-.022v-.022h-.022v-.022h-.022v-.022h-.022v-.022h-.022v-.022h-.022v-.022h-.022v-.022h-.022v-.022h-.022v-.022h-.022v-.022h-.022v-.022H329.9v-.022h-.022v-.022h-.022v-.022h-.022v-.022h-.022v-.022h-.022v-.022h-.022v-.022h-.022v-.022h-.022v-.022H329.7v-.022h-.022v-.022h-.022v-.022h-.022v-.022h-.022v-.022H329.6v-.022h-.022v-.022h-.022v-.022h-.022v-.022h-.022v-.022h-.022v-.022h-.022v-.022h-.022v-.022h-.022v-.022H329.4v-.022h-.022v-.022h-.022v-.022h-.022v-.022h-.022v-.022h-.022v-.022h-.022v-.022h-.022v-.022h-.022v-.022H329.2v-.022h-.022v-.022h-.022v-.022h-.022v-.022h-.022v-.022H329.1v-.022h-.022v-.022h-.022v-.022h-.022v-.022h-.022v-.022h-.022v-.022h-.022v-.022h-.022v-.022h-.022v-.022H328.9v-.022h-.022v-.022h-.022v-.022h-.022v-.022h-.022v-.022h-.022v-.022h-.022v-.022h-.022v-.022h-.022v-.022H328.7v-.022h-.022v-.022h-.022v-.022h-.022v-.022h-.022v-.022H328.6v-.022h-.022v-.022h-.022v-.022h-.022v-.022h-.022v-.022h-.022v-.022h-.022v-.022h-.022v-.022h-.022v-.022H328.4v-.022h-.022v-.022h-.022v-.022h-.022v-.022h-.022v-.022h-.022v-.022h-.022v-.022h-.022v-.022h-.022v-.022h-.022v-.022h-.022v-.022h-.022v-.022h-.022v-.022h-.022v-.022H328.1v-.022h-.022v-.022h-.022v-.022h-.022v-.022h-.022v-.022h-.022v-.022h-.022v-.022h-.022v-.022h-.022v-.022H327.9v-.022h-.022v-.022h-.022v-.022h-.022v-.022h-.022v-.022h-.022v-.022h-.022v-.022h-.022v-.022h-.022v-.022h-.022v-.022h-.022v-.022h-.022v-.022h-.022v-.022h-.022v-.022H327.6v-.022h-.022v-.022h-.022v-.022h-.022v-.022h-.022v-.022h-.022v-.022h-.022v-.022h-.022v-.022h-.022v-.022H327.4v-.022h-.022v-.022h-.022v-.022h-.022v-.022h-.022v-.022h-.022v-.022h-.022v-.022h-.022v-.022h-.022v-.022h-.022v-.022h-.022v-.022h-.022v-.022h-.022v-.022h-.022v-.022H327.1v-.022h-.022v-.022h-.022v-.022h-.022v-.022h-.022v-.022h-.022v-.022h-.022v-.022h-.022v-.022h-.022v-.022H326.9v-.022h-.022v-.022h-.022v-.022h-.022v-.022h-.022v-.022h-.022v-.022h-.022v-.022h-.022v-.022h-.022v-.022h-.022v-.022h-.022v-.022h-.022v-.022h-.022v-.022h-.022v-.022H326.6v-.022h-.022v-.022h-.022v-.022h-.022v-.022h-.022v-.022h-.022v-.022h-.022v-.022h-.022v-.022h-.022v-.022H326.4v-.022h-.022v-.022h-.022v-.022h-.022v-.022h-.022v-.022h-.022v-.022h-.022v-.022h-.022v-.022h-.022v-.022h-.022v-.022h-.022v-.022h-.022v-.022h-.022v-.022h-.022v-.022H326.1v-.022h-.022v-.022h-.022v-.022h-.022v-.022h-.022v-.022h-.022v-.022h-.022v-.022h-.022v-.022h-.022v-.022H325.9v-.022h-.022v-.022h-.022v-.022h-.022v-.022h-.022v-.022h-.022v-.022h-.022v-.022h-.022v-.022h-.022v-.022h-.022v-.022h-.022v-.022h-.022v-.022h-.022v-.022h-.022v-.022H325.6v-.022h-.022v-.022h-.022v-.022h-.022v-.022h-.022v-.022h-.022v-.022h-.022v-.022h-.022v-.022h-.022v-.022H325.4v-.022h-.022v-.022h-.022v-.022h-.022v-.022h-.022v-.022h-.022v-.022h-.022v-.022h-.022v-.022h-.022v-.022h-.022v-.022h-.022v-.022h-.022v-.022h-.022v-.022h-.022v-.022H325.1v-.022h-.022v-.022h-.022v-.022h-.022v-.022h-.022v-.022h-.022v-.022h-.022v-.022h-.022v-.022h-.022v-.022H324.9v-.022h-.022v-.022h-.022v-.022h-.022v-.022h-.022v-.022h-.022v-.022h-.022v-.022h-.022v-.022h-.022v-.022h-.022v-.022h-.022v-.022h-.022v-.022h-.022v-.022h-.022v-.022H324.6v-.022h-.022v-.022h-.022v-.022h-.022v-.022h-.022v-.022h-.022v-.022h-.022v-.022h-.022v-.022h-.022v-.022H324.4v-.022h-.022v-.022h-.022v-.022h-.022v-.022h-.022v-.022h-.022v-.022h-.022v-.022h-.022v-.022h-.022v-.022h-.022v-.022h-.022v-.022h-.022v-.022h-.022v-.022h-.022v-.022H324.1v-.022h-.022v-.022h-.022v-.022h-.022v-.022h-.022v-.022h-.022v-.022h-.022v-.022h-.022v-.022h-.022v-.022H323.9v-.022h-.022v-.022h-.022v-.022h-.022v-.022h-.022v-.022H323.8v-.022h-.022v-.022h-.022v-.022h-.022v-.022h-.022v-.022h-.022v-.022h-.022v-.022h-.022v-.022h-.022v-.022H323.6v-.022h-.022v-.022h-.022v-.022h-.022v-.022h-.022v-.022h-.022v-.022h-.022v-.022h-.022v-.022h-.022v-.022H323.4v-.022h-.022v-.022h-.022v-.022h-.022v-.022h-.022v-.022H323.3v-.022h-.022v-.022h-.022v-.022h-.022v-.022h-.022v-.022h-.022v-.022h-.022v-.022h-.022v-.022h-.022v-.022H323.1v-.022h-.022v-.022h-.022v-.022h-.022v-.022h-.022v-.022h-.022v-.022h-.022v-.022h-.022v-.022h-.022v-.022H322.9v-.022h-.022v-.022h-.022v-.022h-.022v-.022h-.022v-.022H322.8v-.022h-.022v-.022h-.022v-.022h-.022v-.022h-.022v-.022h-.022v-.022h-.022v-.022h-.022v-.022h-.022v-.022H322.6v-.022h-.022v-.022h-.022v-.022h-.022v-.022h-.022v-.022h-.022v-.022h-.022v-.022h-.022v-.022h-.022v-.022h-.022v-.022h-.022v-.022h-.022v-.022h-.022v-.022h-.022v-.022H322.3v-.022h-.022v-.022h-.022v-.022h-.022v-.022h-.022v-.022h-.022v-.022h-.022v-.022h-.022v-.022h-.022v-.022H322.1v-.022h-.022v-.022h-.022v-.022h-.022v-.022h-.022v-.022h-.022v-.022h-.022v-.022h-.022v-.022h-.022v-.022h-.022v-.022h-.022v-.022h-.022v-.022h-.022v-.022h-.022v-.022H321.8v-.022h-.022v-.022h-.022v-.022h-.022v-.022h-.022v-.022h-.022v-.022h-.022v-.022h-.022v-.022h-.022v-.022H321.6v-.022h-.022v-.022h-.022v-.022h-.022v-.022h-.022v-.022h-.022v-.022h-.022v-.022h-.022v-.022h-.022v-.022h-.022v-.022h-.022v-.022h-.022v-.022h-.022v-.022h-.022v-.022H321.3v-.022h-.022v-.022h-.022v-.022h-.022v-.022h-.022v-.022h-.022v-.022h-.022v-.022h-.022v-.022h-.022v-.022H321.1v-.022h-.022v-.022h-.022v-.022h-.022v-.022h-.022v-.022h-.022v-.022h-.022v-.022h-.022v-.022h-.022v-.022h-.022v-.022h-.022v-.022h-.022v-.022h-.022v-.022h-.022v-.022H320.8v-.022h-.022v-.022h-.022v-.022h-.022v-.022h-.022v-.022h-.022v-.022h-.022v-.022h-.022v-.022h-.022v-.022H320.6v-.022h-.022v-.022h-.022v-.022h-.022v-.022h-.022v-.022h-.022v-.022h-.022v-.022h-.022v-.022h-.022v-.022h-.022v-.022h-.022v-.022h-.022v-.022h-.022v-.022h-.022v-.022H320.3v-.022h-.022v-.022h-.022v-.022h-.022v-.022h-.022v-.022h-.022v-.022h-.022v-.022h-.022v-.022h-.022v-.022H320.1v-.022h-.022v-.022h-.022v-.022h-.022v-.022h-.022v-.022h-.022v-.022h-.022v-.022h-.022v-.022h-.022v-.022h-.022v-.022h-.022v-.022h-.022v-.022h-.022v-.022h-.022v-.022H319.8v-.022h-.022v-.022h-.022v-.022h-.022v-.022h-.022v-.022h-.022v-.022h-.022v-.022h-.022v-.022h-.022v-.022H319.6v-.022h-.022v-.022h-.022v-.022h-.022v-.022h-.022v-.022h-.022v-.022h-.022v-.022h-.022v-.022h-.022v-.022h-.022v-.022h-.022v-.022h-.022v-.022h-.022v-.022h-.022v-.022H319.3v-.022h-.022v-.022h-.022v-.022h-.022v-.022h-.022v-.022h-.022v-.022h-.022v-.022h-.022v-.022h-.022v-.022H319.1v-.022h-.022v-.022h-.022v-.022h-.022v-.022h-.022v-.022h-.022v-.022h-.022v-.022h-.022v-.022h-.022v-.022h-.022v-.022h-.022v-.022h-.022v-.022h-.022v-.022h-.022v-.022H318.8v-.022h-.022v-.022h-.022v-.022h-.022v-.022h-.022v-.022h-.022v-.022h-.022v-.022h-.022v-.022h-.022v-.022H318.6v-.022h-.022v-.022h-.022v-.022h-.022v-.022h-.022v-.022h-.022v-.022h-.022v-.022h-.022v-.022h-.022v-.022h-.022v-.022h-.022v-.022h-.022v-.022h-.022v-.022h-.022v-.022H318.3v-.022h-.022v-.022h-.022v-.022h-.022v-.022h-.022v-.022h-.022v-.022h-.022v-.022h-.022v-.022h-.022v-.022H318.1v-.022h-.022v-.022h-.022v-.022h-.022v-.022h-.022v-.022H318v-.022h-.022v-.022h-.022v-.022h-.022v-.022h-.022v-.022h-.022v-.022h-.022v-.022h-.022v-.022h-.022v-.022H317.8v-.022h-.022v-.022h-.022v-.022h-.022v-.022h-.022v-.022h-.022v-.022h-.022v-.022h-.022v-.022h-.022v-.022H317.6v-.022h-.022v-.022h-.022v-.022h-.022v-.022h-.022v-.022H317.5v-.022h-.022v-.022h-.022v-.022h-.022v-.022h-.022v-.022h-.022v-.022h-.022v-.022h-.022v-.022h-.022v-.022H317.3v-.022h-.022v-.022h-.022v-.022h-.022v-.022h-.022v-.022h-.022v-.022h-.022v-.022h-.022v-.022h-.022v-.022H317.1v-.022h-.022v-.022h-.022v-.022h-.022v-.022h-.022v-.022H317v-.022h-.022v-.022h-.022v-.022h-.022v-.022h-.022v-.022h-.022v-.022h-.022v-.022h-.022v-.022h-.022v-.022H316.8v-.022h-.022v-.022h-.022v-.022h-.022v-.022h-.022v-.022h-.022v-.022h-.022v-.022h-.022v-.022h-.022v-.022h-.022v-.022h-.022v-.022h-.022v-.022h-.022v-.022h-.022v-.022H316.5v-.022h-.022v-.022h-.022v-.022h-.022v-.022h-.022v-.022h-.022v-.022h-.022v-.022h-.022v-.022h-.022v-.022H316.3v-.022h-.022v-.022h-.022v-.022h-.022v-.022h-.022v-.022h-.022v-.022h-.022v-.022h-.022v-.022h-.022v-.022h-.022v-.022h-.022v-.022h-.022v-.022h-.022v-.022h-.022v-.022H316v-.022h-.022v-.022h-.022v-.022h-.022v-.022h-.022v-.022h-.022v-.022h-.022v-.022h-.022v-.022h-.022v-.022H315.8v-.022h-.022v-.022h-.022v-.022h-.022v-.022h-.022v-.022h-.022v-.022h-.022v-.022h-.022v-.022h-.022v-.022h-.022v-.022h-.022v-.022h-.022v-.022h-.022v-.022h-.022v-.022H315.5v-.022h-.022v-.022h-.022v-.022h-.022v-.022h-.022v-.022h-.022v-.022h-.022v-.022h-.022v-.022h-.022v-.022H315.3v-.022h-.022v-.022h-.022v-.022h-.022v-.022h-.022v-.022h-.022v-.022h-.022v-.022h-.022v-.022h-.022v-.022h-.022v-.022h-.022v-.022h-.022v-.022h-.022v-.022h-.022v-.022H315v-.022h-.022v-.022h-.022v-.022h-.022v-.022h-.022v-.022h-.022v-.022h-.022v-.022h-.022v-.022h-.022v-.022H314.8v-.022h-.022v-.022h-.022v-.022h-.022v-.022h-.022V-596h-.022v-.022h-.022v-.022h-.022v-.022h-.022v-.022h-.022v-.022h-.022v-.022h-.022v-.022h-.022v-.022h-.022v-.022H314.5v-.022h-.022v-.022h-.022v-.022h-.022v-.022h-.022v-.022h-.022v-.022h-.022v-.022h-.022v-.022h-.022v-.022H314.3v-.022h-.022v-.022h-.022v-.022h-.022v-.022h-.022v-.022h-.022v-.022h-.022v-.022h-.022v-.022h-.022v-.022h-.022v-.022h-.022v-.022h-.022v-.022h-.022v-.022h-.022v-.022H314v-.022h-.022v-.022h-.022v-.022h-.022v-.022h-.022v-.022h-.022v-.022h-.022v-.022h-.022v-.022h-.022v-.022H313.8v-.022h-.022v-.022h-.022v-.022h-.022v-.022h-.022V-597h-.022v-.022h-.022v-.022h-.022v-.022h-.022v-.022h-.022v-.022h-.022v-.022h-.022v-.022h-.022v-.022h-.022v-.022H313.5v-.022h-.022v-.022h-.022v-.022h-.022v-.022h-.022v-.022h-.022v-.022h-.022v-.022h-.022v-.022h-.022v-.022H313.3v-.022h-.022v-.022h-.022v-.022h-.022v-.022h-.022v-.022h-.022v-.022h-.022v-.022h-.022v-.022h-.022v-.022h-.022v-.022h-.022v-.022h-.022v-.022h-.022v-.022h-.022v-.022H313v-.022h-.022v-.022h-.022v-.022h-.022v-.022h-.022v-.022h-.022v-.022h-.022v-.022h-.022v-.022h-.022v-.022H312.8v-.022h-.022v-.022h-.022v-.022h-.022v-.022h-.022V-598H312.7v-.022h-.022v-.022h-.022v-.022h-.022v-.022h-.022v-.022h-.022v-.022h-.022v-.022h-.022v-.022h-.022v-.022H312.5v-.022h-.022v-.022h-.022v-.022h-.022v-.022h-.022v-.022h-.022v-.022h-.022v-.022h-.022v-.022h-.022v-.022H312.3v-.022h-.022v-.022h-.022v-.022h-.022v-.022h-.022v-.022H312.2v-.022h-.022v-.022h-.022v-.022h-.022v-.022h-.022v-.022h-.022v-.022h-.022v-.022h-.022v-.022h-.022v-.022H312v-.022h-.022v-.022h-.022v-.022h-.022v-.022h-.022v-.022h-.022v-.022h-.022v-.022h-.022v-.022h-.022v-.022H311.8v-.022h-.022v-.022h-.022v-.022h-.022v-.022h-.022V-599H311.7v-.022h-.022v-.022h-.022v-.022h-.022v-.022h-.022v-.022h-.022v-.022h-.022v-.022h-.022v-.022h-.022v-.022H311.5v-.022h-.022v-.022h-.022v-.022h-.022v-.022h-.022v-.022h-.022v-.022h-.022v-.022h-.022v-.022h-.022v-.022H311.3v-.022h-.022v-.022h-.022v-.022h-.022v-.022h-.022v-.022H311.2v-.022h-.022v-.022h-.022v-.022h-.022v-.022h-.022v-.022h-.022v-.022h-.022v-.022h-.022v-.022h-.022v-.022H311v-.022h-.022v-.022h-.022v-.022h-.022v-.022h-.022v-.022h-.022v-.022h-.022v-.022h-.022v-.022h-.022v-.022h-.022v-.022h-.022v-.022h-.022v-.022h-.022v-.022h-.022V-600H310.7v-.022h-.022v-.022h-.022v-.022h-.022v-.022h-.022v-.022h-.022v-.022h-.022v-.022h-.022v-.022h-.022v-.022H310.5v-.022h-.022v-.022h-.022v-.022h-.022v-.022h-.022v-.022h-.022v-.022h-.022v-.022h-.022v-.022h-.022v-.022h-.022v-.022h-.022v-.022h-.022v-.022h-.022v-.022h-.022v-.022H310.2v-.022h-.022v-.022h-.022v-.022h-.022v-.022h-.022v-.022h-.022v-.022h-.022v-.022h-.022v-.022h-.022v-.022H310v-.022h-.022v-.022h-.022v-.022h-.022v-.022h-.022v-.022h-.022v-.022h-.022v-.022h-.022v-.022h-.022v-.022h-.022v-.022h-.022v-.022h-.022v-.022h-.022v-.022h-.022V-601H309.7v-.022h-.022v-.022h-.022v-.022h-.022v-.022h-.022v-.022h-.022v-.022h-.022v-.022h-.022v-.022h-.022v-.022H309.5v-.022h-.022v-.022h-.022v-.022h-.022v-.022h-.022v-.022h-.022v-.022h-.022v-.022h-.022v-.022h-.022v-.022h-.022v-.022h-.022v-.022h-.022v-.022h-.022v-.022h-.022v-.022H309.2v-.022h-.022v-.022h-.022v-.022h-.022v-.022h-.022v-.022h-.022v-.022h-.022v-.022h-.022v-.022h-.022v-.022H309v-.022h-.022v-.022h-.022v-.022h-.022v-.022h-.022v-.022h-.022v-.022h-.022v-.022h-.022v-.022h-.022v-.022h-.022v-.022h-.022v-.022h-.022v-.022h-.022v-.022h-.022V-602H308.7v-.022h-.022v-.022h-.022v-.022h-.022v-.022h-.022v-.022h-.022v-.022h-.022v-.022h-.022v-.022h-.022v-.022H308.5v-.022h-.022v-.022h-.022v-.022h-.022v-.022h-.022v-.022h-.022v-.022h-.022v-.022h-.022v-.022h-.022v-.022h-.022v-.022h-.022v-.022h-.022v-.022h-.022v-.022h-.022v-.022H308.2v-.022h-.022v-.022h-.022v-.022h-.022v-.022h-.022v-.022h-.022v-.022h-.022v-.022h-.022v-.022h-.022v-.022H308v-.022h-.022v-.022h-.022v-.022h-.022v-.022h-.022v-.022h-.043v-.022h-.022v-.022h-.022v-.022h-.022v-.022h-.022v-.022h-.022v-.022h-.022v-.022h-.022v-.022H307.7V-603h-.022v-.022h-.022v-.022h-.022v-.022h-.022v-.022h-.022v-.022h-.022v-.022h-.022v-.022h-.022v-.022H307.5v-.022h-.022v-.022h-.022v-.022h-.022v-.022h-.022v-.022h-.022v-.022h-.043v-.022h-.022v-.022h-.022v-.022h-.022v-.022h-.022v-.022h-.022v-.022h-.022v-.022H307.2v-.022h-.022v-.022h-.022v-.022h-.022v-.022h-.022v-.022h-.022v-.022h-.022v-.022h-.022v-.022h-.022v-.022H307v-.022h-.022v-.022h-.022v-.022h-.022v-.022h-.022v-.022H306.9v-.022h-.043v-.022h-.022v-.022h-.022v-.022h-.022v-.022h-.022v-.022h-.022v-.022h-.022v-.022H306.7v-.022h-.022v-.022h-.022V-604h-.022v-.022h-.022v-.022h-.022v-.022h-.022v-.022h-.022v-.022h-.022v-.022H306.5v-.022h-.022v-.022h-.022v-.022h-.022v-.022h-.022v-.022H306.4v-.022h-.022v-.022h-.043v-.022h-.022v-.022h-.022v-.022h-.022v-.022h-.022v-.022h-.022v-.022H306.2v-.022h-.022v-.022h-.022v-.022h-.022v-.022h-.022v-.022h-.022v-.022h-.022v-.022h-.022v-.022h-.022v-.022H306v-.022h-.022v-.022h-.022v-.022h-.022v-.022h-.022v-.022H305.9v-.022h-.022v-.022h-.043v-.022h-.022v-.022h-.022v-.022h-.022v-.022h-.022v-.022h-.022v-.022H305.7v-.022h-.022v-.022h-.022v-.022h-.022v-.022h-.022V-605h-.022v-.022h-.022v-.022h-.022v-.022h-.022v-.022H305.5v-.022h-.022v-.022h-.022v-.022h-.022v-.022h-.022v-.022H305.4v-.022h-.022v-.022h-.043v-.022h-.022v-.022h-.022v-.022h-.022v-.022h-.022v-.022h-.022v-.022H305.2v-.022h-.022v-.022h-.022v-.022h-.022v-.022h-.022v-.022h-.022v-.022h-.022v-.022h-.022v-.022h-.022v-.022h-.022v-.022h-.022v-.022h-.022v-.022h-.022v-.022h-.022v-.022H304.9v-.022h-.022v-.022h-.022v-.022h-.043v-.022h-.022v-.022h-.022v-.022h-.022v-.022h-.022v-.022H304.7v-.022h-.022v-.022h-.022v-.022h-.022v-.022h-.022v-.022h-.022v-.022h-.022V-606h-.022v-.022h-.022v-.022h-.022v-.022h-.022v-.022h-.022v-.022h-.022v-.022h-.022v-.022H304.4v-.022h-.022v-.022h-.022v-.022h-.043v-.022h-.022v-.022h-.022v-.022h-.022v-.022h-.022v-.022H304.2v-.022h-.022v-.022h-.022v-.022h-.022v-.022h-.022v-.022h-.022v-.022h-.022v-.022h-.022v-.022h-.022v-.022h-.022v-.022h-.022v-.022h-.022v-.022h-.022v-.022h-.022v-.022H303.9v-.022h-.022v-.022h-.022v-.022h-.043v-.022h-.022v-.022h-.022v-.022h-.022v-.022h-.022v-.022H303.7v-.022h-.022v-.022h-.022v-.022h-.022v-.022h-.022v-.022h-.022v-.022h-.022v-.022h-.022v-.022h-.022V-607h-.022v-.022h-.022v-.022h-.022v-.022h-.022v-.022h-.022v-.022H303.4v-.022h-.022v-.022h-.022v-.022h-.022v-.022h74.921V-650.4h.022v.022h.022v.022h.022v.022h.022v.022h.022v.022h.022v.022h.022v.022h.022v.022h.022v.022h.022v.022h.022v.022h.022v.022h.022v.022h.022v.022h.022v.022h.022v.022h.022v.022h.022v.022h.022v.022h.022v.022h.022v.022h.022v.022h.022v.022h.022v.022h.022v.022h.022v.022h.022v.022h.022v.022h.022v.022h.022v.022h.022v.022h.022v.022h.022v.022h.022v.022h.022v.022h.022v.022h.022v.022h.022v.022h.022v.022h.022v.022h.022v.022h.022v.022h.022v.022h.022v.022h.022v.022h.022v.022h.022v.022h.022v.022h.022v.022h.022v.022h.022v.022h.022v.022h.022v.022h.022v.022h.022v.022h.022v.022h.022v.022h.022v.022h.022v.022h.022v.022h.022v.022h.022v.022h.022v.022h.022v.022h.022v.022h.022v.022h.022v.022h.022v.022h.022v.022h.022v.022h.022v.022h.022v.022h.022v.022h.022v.022h.022v.022h.022v.022h.022v.022h.022v.022h.022v.022h.022v.022h.022v.022h.022v.022h.022v.022h.022v.022h.022v.022h.022v.022h.022v.022h.022v.022h.022v.022h.022v.022h.022v.022h.022v.022h.022v.022h.022v.022h.022v.022h.022v.022h.022v.022h.022v.022h.022v.022h.022v.022h.022v.022h.022v.022h.022v.022h.022v.022h.022v.022h.022v.022h.022v.022h.022v.022h.022v.022h.022v.022h.022v.022h.022v.022h.022v.022h.022v.022h.022v.022h.022v.022h.022v.022h.022v.022h.022v.022h.022v.022h.022v.022h.022v.022h.022v.022h.022v.022h.022v.022h.022v.022h.022v.022h.022v.022h.022v.022h.022v.022h.022v.022h.022v.022h.022v.022h.022v.022h.022v.022h.022v.022h.022v.022h.022v.022h.022v.022h.022v.022h.022v.022h.022v.022h.022v.022h.022v.022h.022v.022h.022v.022h.022v.022h.022v.022h.022v.022h.022v.022h.022v.022h.022v.022h.022v.022h.022v.022h.022v.022h.022v.022h.022v.022h.022v.022h.022v.022h.022v.022h.022v.022h.022v.022h.022v.022h.022v.022h.022v.022h.022v.022h.022v.022h.022v.022h.022v.022h.022v.022h.022v.022h.022v.022h.022v.022h.022v.022h.022v.022h.022v.022h.022v.022h.022v.022h.022v.022h.022v.022h.022v.022h.022v.022h.022v.022h.022v.022h.022v.022h.022v.022h.022v.022h.022v.022h.022v.022h.022v.022h.022v.022h.022v.022h.022v.022h.022v.022h.022v.022h.022v.022h.022v.022h.022v.022h.022v.022h.022v.022h.022v.022h.022v.022h.022v.022h.022v.022h.022v.022h.022v.022h.022v.022h.022v.022h.022v.022h.022v.022h.022v.022h.022v.022h.022v.022h.022v.022h.022v.022h.022v.022h.022v.022h.022v.022h.022v.022h.022v.022h.022v.022h.022v.022h.022v.022h.022v.022h.022v.022h.022v.022h.022v.022h.022v.022h.022v.022h.022v.022h.022v.022h.022v.022h.022v.022h.022v.022h.022v.022h.022v.022h.022v.022h.022v.022h.022v.022h.022v.022h.022v.022h.022v.022h.022v.022h.022v.022h.022v.022h.022v.022h.022v.022h.022v.022h.022v.022h.022v.022h.022v.022h.022v.022h.022v.022h.022v.022h.022v.022h.022v.022h.022v.022h.022v.022h.022v.022h.022v.022h.022v.022h.022v.022h.022v.022h.022v.022h.022v.022h.022v.022h.022v.022h.022v.022h.022v.022h.022v.022h.022v.022h.022v.022h.022v.022h.022v.022h.022v.022h.022v.022h.022v.022h.022v.022h.022v.022h.022v.022h.022v.022h.022v.022h.022v.022h.022v.022h.022v.022h.022v.022h.022v.022h.022v.022h.022v.022h.022v.022h.022v.022h.022v.022h.022v.022h.022v.022h.022v.022h.022v.022h.022v.022h.022v.022h.022v.022h.022v.022h.022v.022h.022v.022h.022v.022h.022v.022h.022v.022h.022v.022h.022v.022h.022v.022h.022v.022h.022v.022h.022v.022h.022v.022h.022v.022h.022v.022h.022v.022h.022v.022h.022v.022h.022v.022h.022v.022h.022v.022h.022v.022h.022v.022h.022v.022h.022v.022h.022v.022h.022v.022h.022v.022h.022v.022h.022v.022h.022v.022h.022v.022h.022v.022h.022v.022h.022v.022h.022v.022h.022v.022h.022v.022h.022v.022h.022v.022h.022v.022h.022v.022h.022v.022h.022v.022h.022v.022h.022v.022h.022v.022h.022v.022h.022v.022h.022v.022h.022v.022h.022v.022h.022v.022h.022v.022h.022v.022h.022v.022h.022v.022h.022v.022h.022v.022h.022v.022h.022v.022h.022v.022h.022v.022h.022v.022h.022v.022h.022v.022h.022v.022h.022v.022h.022v.022h.022v.022h.022v.022h.022v.022h.022v.022h.022v.022h.022v.022h.022v.022h.022v.022h.022v.022h.022v.022h.022v.022h.022v.022h.022v.022h.022v.022h.022v.022h.022v.022h.022v.022h.022v.022h.022v.022h.022v.022h.022v.022h.022v.022h.022v.022h.022v.022h.022v.022h.022v.022h.022v.022h.022v.022h.022v.022h.022v.022h.022v.022h.022v.022h.022v.022h.022v.022h.022v.022h.022v.022h.022v.022h.022v.022h.022v.022h.022v.022h.022v.022h.022v.022h.022v.022h.022v.022h.022v.022h.022v.022h.022v.022h.022v.022h.022v.022h.022v.022h.022v.022h.022v.022h.022v.022h.022v.022h.022v.022h.022v.022h.022v.022h.022v.022h.022v.022h.022v.022h.022v.022h.022v.022h.022v.022h.022v.022h.022v.022h.022v.022h.022v.022h.022v.022h.022v.022h.022v.022h.022v.022h.022v.022h.022v.022h.022v.022h.022v.022h.022v.022h.022v.022h.022v.022h.022v.022h.022v.022h.022v.022h.022v.022h.022v.022h.022v.022h.022v.022h.022v.022h.022v.022h.022v.022h.022v.022h.022v.022h.022v.022h.022v.022h.022v.022h.022v.022h.022v.022h.022v.022h.022v.022h.022v.022h.022v.022h.022v.022h.022v.022h.022v.022h.022v.022h.022v.022h.022v.022h.022v.022h.022v.022h.022v.022h.022v.022h.022v.022h.022v.022h.022v.022h.022v.022h.022v.022h.022v.022h.022v.022h.022v.022h.022v.022h.022v.022h.022v.022h.022v.022h.022v.022h.022v.022h.022v.022h.022v.022h.022v.022h.022v.022h.022v.022h.022v.022h.022v.022h.022v.022h.022v.022h.022v.022h.022v.022h.022v.022h.022v.022h.022v.022h.022v.022h.022v.022h.022v.022h.022v.022h.022v.022h.022v.022h.022v.022h.022v.022h.022v.022h.022v.022h.022v.022h.022v.022h.022v.022h.022v.022h.022v.022h.022v.022h.022v.022h.022v.022h.022v.022h.022v.022h.022v.022h.022v.022h.022v.022h.022v.022h.022v.022h.022v.022h.022v.022h.022v.022h.022v.022h.022v.022h.022v.022h.022v.022h.022v.022h.022v.022h.022v.022h.022v.022h.022v.022h.022v.022h.022v.022h.022v.022h.022v.022h.022v.022h.022v.022h.022v.022h.022v.022h.022v.022h.022v.022h.022v.022h.022v.022h.022v.022h.022v.022h.022v.022h.022v.022h.022v.022h.022v.022h.022v.022h.022v.022h.022v.022h.022v.022h.022v.022h.022v.022h.022v.022h.022v.022h.022v.022h.022v.022h.022v.022h.022v.022h.022v.022h.022v.022h.022v.022h.022v.022h.022v.022h.022v.022h.022v.022h.022v.022h.022v.022h.022v.022h.022v.022h.022v.022h.022v.022h.022v.022h.022v.022h.022v.022h.022v.022h.022v.022h.022v.022h.022v.022h.022v.022h.022v.022h.022v.022h.022v.022h.022v.022h.022v.022h.022v.022h.022v.022h.022v.022h.022v.022h.022v.022h.022v.022h.022v.022h.022v.022h.022v.022h.022v.022h.022v.022h.022v.022h.022v.022h.022v.022h.022v.022h.022v.022h.022v.022h.022v.022h.022V-637h.022v.022h.022v.022h.022v.022h.022v.022h.022v.022h.022v.022h.022v.022h.022v.022h.022v.022h.022v.022h.022v.022h.022v.022h.022v.022h.022v.022h.022v.022H392v.022h.022v.022h.022v.022h.022v.022h.022v.022h.022v.022h.022v.022h.022v.022h.022v.022h.022v.022h.022v.022h.022v.022h.022v.022h.022v.022h.022v.022h.022v.022h.022v.022h.022v.022h.022v.022h.022v.022h.022v.022h.022v.022h.022v.022h.022v.022h.022v.022h.022v.022h.022v.022h.022v.022h.022v.022h.022v.022h.022V-636h.022v.022h.022v.022h.022v.022h.022v.022h.022v.022h.022v.022h.022v.022h.022v.022h.022v.022h.022v.022h.022v.022h.022v.022h.022v.022h.022v.022h.022v.022H393v.022h.022v.022h.022v.022h.022v.022h.022v.022h.022v.022h.022v.022h.022v.022h.022v.022h.022v.022h.022v.022h.022v.022h.022v.022h.022v.022h.022v.022h.022v.022h.022v.022h.022v.022h.022v.022h.022v.022h.022v.022h.022v.022h.022v.022h.022v.022h.022v.022h.022v.022h.022v.022h.022v.022h.022v.022h.022v.022h.022V-635h.022v.022h.022v.022h.022v.022h.022v.022h.022v.022h.022v.022h.022v.022h.022v.022h.022v.022h.022v.022h.022v.022h.022v.022h.022v.022h.022v.022h.022v.022H394v.022h.022v.022h.022v.022h.022v.022h.022v.022h.022v.022h.022v.022h.022v.022h.022v.022h.022v.022h.022v.022h.022v.022h.022v.022h.022v.022h.022v.022h.022v.022h.022v.022h.022v.022h.022v.022h.022v.022h.022v.022h.022v.022h.022v.022h.022v.022h.022v.022h.022v.022h.022v.022h.022v.022h.022v.022h.022v.022h.022V-634h.022v.022h.022v.022h.022v.022h.022v.022h.022v.022h.022v.022h.022v.022h.022v.022h.022v.022h.022v.022h.022v.022h.022v.022h.022v.022h.022v.022h.022v.022H395v.022h.022v.022h.022v.022h.022v.022h.022v.022h.022v.022h.022v.022h.022v.022h.022v.022h.022v.022h.022v.022h.022v.022h.022v.022h.022v.022h.022v.022h.022v.022h.022v.022h.022v.022h.022v.022h.022v.022h.022v.022h.022v.022h.022v.022h.022v.022h.022v.022h.022v.022h.022v.022h.022v.022h.022v.022h.022v.022h.022V-633h.022v.022h.022v.022h.022v.022h.022v.022h.022v.022h.022v.022h.022v.022h.022v.022h.022v.022h.022v.022h.022v.022h.022v.022h.022v.022h.022v.022h.022v.022H396v.022h.022v.022h.022v.022h.022v.022h.022v.022h.022v.022h.022v.022h.022v.022h.022v.022h.022v.022h.022v.022h.022v.022h.022v.022h.022v.022h.022v.022h.022v.022h.022v.022h.022v.022h.022v.022h.022v.022h.022v.022h.022v.022h.022v.022h.022v.022h.022v.022h.022v.022h.022v.022h.022v.022h.022v.022h.022v.022h.022V-632h.022v.022h.022v.022h.022v.022h.022v.022h.022v.022h.022v.022h.022v.022h.022v.022h.022v.022h.022v.022h.022v.022h.022v.022h.022v.022h.022v.022h.022v.022H397v.022h.022v.022h.022v.022h.022v.022h.022v.022h.022v.022h.022v.022h.022v.022h.022v.022h.022v.022h.022v.022h.022v.022h.022v.022h.022v.022h.022v.022h.022v.022h.022v.022h.022v.022h.022v.022h.022v.022h.022v.022h.022v.022h.022v.022h.022v.022h.022v.022h.022v.022h.022v.022h.022v.022h.022v.022h.022v.022h.022V-631h.022v.022h.022v.022h.022v.022h.022v.022h.022v.022h.022v.022h.022v.022h.022v.022h.022v.022h.022v.022h.022v.022h.022v.022h.022v.022h.022v.022h.022v.022H398v.022h.022v.022h.022v.022h.022v.022h.022v.022h.022v.022h.022v.022h.022v.022h.022v.022h.022v.022h.022v.022h.022v.022h.022v.022h.022v.022h.022v.022h.022v.022h.022v.022h.022v.022h.022v.022h.022v.022h.022v.022h.022v.022h.022v.022h.022v.022h.022v.022h.022v.022h.022v.022h.022v.022h.022v.022h.022v.022h.022V-630h.022v.022h.022v.022h.022v.022h.022v.022h.022v.022h.022v.022h.022v.022h.022v.022h.022v.022h.022v.022h.022v.022h.022v.022h.022v.022h.022v.022h.022v.022H399v.022h.022v.022h.022v.022h.022v.022h.022v.022h.022v.022h.022v.022h.022v.022h.022v.022h.022v.022h.022v.022h.022v.022h.022v.022h.022v.022h.022v.022h.022v.022h.022v.022h.022v.022h.022v.022h.022v.022h.022v.022h.022v.022h.022v.022h.022v.022h.022v.022h.022v.022h.022v.022h.022v.022h.022v.022h.022v.022h.022V-629h.022v.022h.022v.022h.022v.022h.022v.022h.022v.022h.022v.022h.022v.022h.022v.022h.022v.022h.022v.022h.022v.022h.022v.022h.022v.022h.022v.022h.022v.022H400v.022h.022v.022h.022v.022h.022v.022h.022v.022h.022v.022h.022v.022h.022v.022h.022v.022h.022v.022h.022v.022h.022v.022h.022v.022h.022v.022h.022v.022h.022v.022h.022v.022h.022v.022h.022v.022h.022v.022h.022v.022h.022v.022h.022v.022h.022v.022h.022v.022h.022v.022h.022v.022h.022v.022h.022v.022h.022v.022h.022V-628h.022v.022h.022v.022h.022v.022h.022v.022h.022v.022h.022v.022h.022v.022h.022v.022h.022v.022h.022v.022h.022v.022h.022v.022h.022v.022h.022v.022h.022v.022H401v.022h.022v.022h.022v.022h.022v.022h.022v.022h.022v.022h.022v.022h.022v.022h.022v.022h.022v.022h.022v.022h.022v.022h.022v.022h.022v.022h.022v.022h.022v.022h.022v.022h.022v.022h.022v.022h.022v.022h.022v.022h.022v.022h.022v.022h.022v.022h.022v.022h.022v.022h.022v.022h.022v.022h.022v.022h.022v.022h.022V-627h.022v.022h.022v.022h.022v.022h.022v.022h.022v.022h.022v.022h.022v.022h.022v.022h.022v.022h.022v.022h.022v.022h.022v.022h.022v.022h.022v.022h.022v.022H402v.022h.022v.022h.022v.022h.022v.022h.022v.022h.022v.022h.022v.152h-.022v.239h-.022v.239h-.022v.261h-.022v.239h-.022v.239H402v.217h-.022v.2h-.022v.2h-.022v.2h-.022v.174h-.022v.2h-.022v.2h-.022v.2h-.022v.174H401.8v.152h-.022v.152h-.022v.152h-.022v.174h-.022v.152h-.022v.152h-.022v.152h-.022v.152h-.022v.152h-.022v.152h-.022v.13h-.022v.13h-.022v.13h-.022v.13H401.5v.13h-.022v.13h-.022v.13h-.022v.13h-.022v.13h-.022v.13h-.022v.13h-.022v.109h-.022v.13H401.3v.109h-.022v.109h-.022v.13h-.022v.109h-.022v.109h-.022v.109h-.022v.13h-.022v.109h-.022v.109h-.022v.109h-.022v.109h-.022v.109h-.022v.087h-.022v.109H401v.109h-.022v.109h-.022v.087h-.022v.109h-.022v.087h-.022v.109h-.022v.109h-.022v.087h-.022v.109H400.8v.087h-.022v.109h-.022v.087h-.022v.087h-.022v.108h-.022v.087h-.022v.087h-.022v.087h-.022v.087h-.022v.109h-.022v.087h-.022v.087h-.022v.087h-.022v.087H400.5v.087h-.022v.087h-.022v.087h-.022v.087h-.022v.087h-.022v.087h-.022v.087h-.022v.065h-.022v.087H400.3v.087h-.022v.087h-.022v.087h-.022v.065h-.022v.087h-.022v.087h-.022v.087h-.022v.065h-.022v.087h-.022v.087h-.022v.065h-.022v.087h-.022v.065h-.022v.087H400v.065h-.022v.087h-.022v.065h-.022v.087h-.022v.065h-.022v.087h-.022v.065h-.022v.087h-.022v.065H399.8v.065h-.022v.087h-.022v.065h-.022v.087h-.022v.065h-.022v.065h-.022v.087h-.022v.065h-.022v.065h-.022v.065h-.022v.087h-.022v.065h-.022v.065h-.022v.065H399.5v.065h-.022v.087h-.022v.065h-.022v.065h-.022v.065h-.022v.065h-.022v.065h-.022v.065h-.022v.065H399.3v.065h-.022v.087h-.022v.065h-.022v.065h-.022v.065h-.022v.065h-.022v.065h-.022v.065h-.022v.065h-.022v.065h-.022v.065h-.022v.065h-.022v.043h-.022v.065H399v.065h-.022v.065h-.022v.065h-.022v.065h-.022v.065h-.022v.065h-.022v.065h-.022v.044h-.022v.065H398.8v.065h-.022v.065h-.022v.065h-.022v.065h-.022v.044H398.7v.065h-.022v.065h-.022v.065h-.022v.044h-.022v.065h-.022v.065h-.022v.065h-.022v.044h-.022v.065H398.5v.065h-.022v.065h-.022v.044h-.022v.065h-.022v.065h-.022v.043h-.022v.065h-.022v.043h-.022v.065H398.3v.065h-.022v.043h-.022v.065h-.022v.065h-.022v.044H398.2v.065h-.022v.043h-.022v.065h-.022v.043h-.022v.065h-.022v.043h-.022v.065h-.022v.065h-.022v.043H398v.065h-.022v.043h-.022v.065h-.022v.044h-.022v.065h-.022v.044h-.022v.065h-.022v.043h-.022v.065H397.8v.043h-.022v.043h-.022v.065h-.022V-608h-.022v.065H397.7v.043h-.022v.065h-.022v.043h-.022v.065h-.022v.043h-.022v.043h-.022v.065h-.022v.044h-.022v.043H397.5v.065h-.022v.043h-.022v.065h-.022v.043h-.022v.043h-.022v.065h-.022v.044h-.022v.043h-.022V-607H397.3v.043h-.022v.043h-.022v.065h-.022v.043h-.022v.043H397.2v.043h-.022v.065h-.022v.043h-.022v.043h-.022v.065h-.022v.044h-.022v.043h-.022v.043h-.022v.043H397v.065h-.022v.043h-.022v.043h-.022v.043h-.022v.065h-.022v.043h-.022v.043h-.022v.043h-.022v.065h-.022v.044h-.022v.043h-.022v.043h-.022v.043h-.022v.065H396.7v.043h-.022v.043h-.022v.043h-.022v.043h-.022v.043h-.022v.044h-.022v.065h-.022v.043h-.022v.044H396.5v.043h-.022v.043h-.022v.043h-.022v.043h-.022V-605h-.022v.043h-.022v.065h-.022v.043h-.022v.043h-.022v.043h-.022v.043h-.022v.044h-.022v.043h-.022v.043H396.2v.043h-.022v.043h-.022v.065h-.022v.043h-.022v.043h-.022v.043h-.022v.043h-.022v.043h-.022v.043H396v.043h-.022v.043h-.022v.043h-.022V-604h-.022v.044h-.022v.043h-.022v.043h-.022v.043h-.022v.043h-.022v.044h-.022v.043h-.022v.043h-.022v.043h-.022v.043H395.7v.043h-.022v.043h-.022v.043h-.022v.043h-.022v.043h-.022v.044h-.022v.043h-.022v.022h-.022v.043H395.5v.043h-.022v.044h-.022v.043h-.022v.043h-.022v.043h-.022v.043h-.022v.043h-.022v.043h-.022v.043h-.022v.043h-.022v.022h-.022v.043h-.022v.044h-.022v.043H395.2v.043h-.022v.043h-.022v.044h-.022v.043h-.022v.022h-.022v.043h-.022v.043h-.022v.044h-.022v.043H395v.043h-.022v.043h-.022v.043h-.022v.022h-.022v.044h-.022V-602h-.022v.043h-.022v.043h-.022v.043h-.022v.043h-.022v.022h-.022v.043h-.022v.043h-.022v.043H394.7v.044h-.022v.022h-.022v.043h-.022v.043h-.022v.043h-.022v.044h-.022v.022h-.022v.043h-.022v.043H394.5v.043h-.022v.022h-.022v.044h-.022v.043h-.022v.043h-.022v.043h-.022v.022h-.022v.043h-.022v.043h-.022v.043h-.022v.022h-.022v.043h-.022v.043h-.022v.043H394.2v.022h-.022v.043h-.022v.043h-.022v.044h-.022v.043h-.022v.022h-.022v.043h-.022v.043h-.022v.022H394v.043h-.022v.044h-.022v.022h-.022v.043h-.022v.043h-.022v.043h-.022v.022h-.022v.044h-.022v.043h-.022v.022h-.022v.043h-.022V-600h-.022v.022h-.022v.044H393.7v.043h-.022v.022h-.022v.043h-.022v.043h-.022v.022h-.022v.043h-.022v.044h-.022v.022h-.022v.043H393.5v.043h-.022v.022h-.022v.043h-.022v.043h-.022v.043h-.022v.022h-.022v.043h-.022v.043h-.022v.022h-.022v.043h-.022v.022h-.022v.043h-.022v.044h-.022v.022H393.2v.043h-.022v.022h-.022V-599h-.022v.044h-.022v.022h-.022v.044h-.022v.022h-.022v.043h-.022v.043H393v.022h-.022v.044h-.022v.022h-.022v.043h-.022v.022H392.9v.043h-.022v.043h-.022v.022h-.022v.043h-.022v.022h-.022v.043h-.022v.043h-.022v.022h-.022v.044H392.7v.022h-.022v.043h-.022v.043h-.022v.022h-.022v.044h-.022v.022h-.022v.044h-.022v.022h-.022V-598H392.5v.022h-.022v.043h-.022v.022h-.022v.043h-.022v.043H392.4v.022h-.022v.043h-.022v.022h-.022v.043h-.022v.022h-.022v.044h-.022v.022h-.022v.043h-.022v.022H392.2v.043h-.022v.022h-.022v.044h-.022v.022h-.022v.043h-.022v.022h-.022v.043h-.022v.022h-.022v.043H392v.022h-.022v.044h-.022v.022h-.022v.043h-.022v.022H391.9v.043h-.022V-597h-.022v.022h-.022v.043h-.022v.022h-.022v.022h-.022v.043h-.022v.022h-.022v.043H391.7v.022h-.022v.043h-.022v.022h-.022v.043h-.022v.022h-.022v.022h-.022v.043h-.022v.022h-.022v.043H391.5v.022h-.022v.043h-.022v.022h-.022v.043h-.022v.022H391.4v.022h-.022v.044h-.022v.022h-.022v.044h-.022v.022h-.022v.044h-.022v.022h-.022v.043h-.022v.022H391.2v.022h-.022V-596h-.022v.022h-.022v.043h-.022v.022h-.022v.043h-.022v.022h-.022v.043h-.022v.022h-.022v.022h-.022v.043h-.022v.022h-.022v.043h-.022v.022H390.9v.022h-.022v.043h-.022v.022h-.022v.022h-.022v.043h-.022v.022h-.022v.043h-.022v.022h-.022v.022H390.7v.044h-.022v.022h-.022v.022h-.022v.043h-.022v.022h-.022v.043h-.022v.022h-.022v.022h-.022v.043h-.022v.022h-.022v.022h-.022v.043h-.022v.022h-.022v.043H390.4v.022h-.022v.022h-.022v.043h-.022v.022h-.022v.022h-.022v.043h-.022v.022h-.022v.043h-.022v.022H390.2v.022h-.022v.043h-.022v.022h-.022v.022h-.022v.043h-.022v.022h-.022v.022h-.022v.043h-.022v.022h-.022v.022h-.022v.022h-.022v.043h-.022v.022h-.022v.022H389.9v.043h-.022v.022h-.022v.022h-.022v.043h-.022v.022h-.022v.022h-.022v.043h-.022v.022h-.022v.022H389.7v.043h-.022v.022h-.022v.022h-.022v.022h-.022v.043h-.022v.022h-.022v.022h-.022v.043h-.022v.022h-.022v.022h-.022v.043h-.022v.022h-.022v.022h-.022v.043H389.4v.022h-.022v.022h-.022v.022h-.022v.043h-.022v.022h-.022v.022h-.022v.043h-.022v.022h-.022v.022H389.2v.022h-.022v.043h-.022v.022h-.022v.022h-.022v.022h-.022v.043h-.022v.022h-.022v.022h-.022v.022h-.022v.043h-.022v.022h-.022v.022h-.022v.022h-.022v.043H388.9v.022h-.022v.022h-.022v.022h-.022v.043h-.022v.022h-.022v.022h-.022v.022h-.022v.043h-.022v.022H388.7v.022h-.022v.022h-.022v.043h-.022v.022h-.022v.022h-.022v.022h-.022v.043h-.022v.022h-.022v.022h-.022v.022h-.022v.043h-.022v.022h-.022v.022h-.022v.022H388.4v.022h-.022v.043h-.022v.022h-.022v.022h-.022v.022h-.022v.022h-.022v.044h-.022v.022h-.022v.022H388.2v.022h-.022v.022h-.022v.043h-.022v.022h-.022v.022h-.022v.022h-.022v.022h-.022v.043h-.022v.022h-.022v.022h-.022v.022h-.022v.022h-.022v.043h-.022v.022H387.9v.022h-.022v.022h-.022v.022h-.022v.043h-.022v.022h-.022v.022h-.022v.022h-.022v.022h-.022v.022H387.7v.043h-.022v.022h-.022v.022h-.022v.022h-.022v.022h-.022v.043h-.022v.022h-.022v.022h-.022v.022h-.022v.022h-.022v.022h-.022v.044h-.022v.022h-.022v.022H387.4v.022h-.022v.022h-.022v.022h-.022v.022h-.022v.043h-.022v.022h-.022v.022h-.022v.022h-.022v.022H387.2v.022h-.022v.022h-.022v.043h-.022v.022h-.022v.022H387.1v.022h-.022v.022h-.022v.022h-.022v.022h-.022v.044h-.022v.022h-.022v.022h-.022v.022h-.022v.022H386.9v.022h-.022v.022h-.022v.043h-.022v.022h-.022v.022h-.022v.022h-.022v.022h-.022v.022h-.022v.022H386.7v.022h-.022v.043h-.022v.022h-.022v.022h-.022v.022H386.6v.022h-.022v.022h-.022v.022h-.022v.022h-.022v.043h-.022v.022h-.022v.022h-.022v.022h-.022v.022H386.4v.022h-.022v.022h-.022v.022h-.022v.022h-.022v.022h-.022v.022h-.022v.043h-.022v.022h-.022v.022H386.2v.022h-.022v.022h-.022v.022h-.022v.022h-.022v.022H386.1v.022h-.022v.022h-.022v.022h-.022v.043h-.022v.022h-.022v.022h-.022v.022h-.022v.022h-.022v.022H385.9v.022h-.022v.022h-.022v.022h-.022v.022h-.022v.022h-.022v.022h-.022v.043h-.022v.022h-.022v.022H385.7v.022h-.022v.022h-.022v.022h-.022v.022h-.022v.022H385.6v.022h-.022v.022h-.022v.022h-.022v.022h-.022v.022h-.022v.022h-.022v.022h-.022v.022h-.022v.043H385.4v.022h-.022v.022h-.022v.022h-.022v.022h-.022v.022h-.022v.022h-.022v.022h-.022v.022h-.022v.022h-.022v.022h-.022v.022h-.022v.022h-.022v.022h-.022v.022H385.1v.022h-.022v.022h-.022v.022h-.022v.022h-.022v.022h-.022v.022h-.022v.022h-.022v.022h-.022v.022H384.9v.022h-.022v.043h-.022v.022h-.022v.022h-.022v.022h-.022v.022h-.022v.022h-.022v.022h-.022v.022h-.022v.022h-.022v.022h-.022v.022h-.022v.022h-.022v.022H384.6v.022h-.022v.022h-.022v.022h-.022v.022h-.022v.022h-.022v.022h-.022v.022h-.022v.022h-.022v.022H384.4v.022h-.022v.022h-.022v.022h-.022v.022h-.022v.022h-.022v.022h-.022v.022h-.022v.022h-.022v.022h-.022v.022h-.022v.022h-.022v.022h-.022v.022h-.022v.022H384.1v.022h-.022v.022h-.022v.022h-.022v.022h-.022v.022h-.022v.022h-.022v.022h-.022v.022h-.022v.022H383.9v.022h-.022v.022h-.022v.022h-.022v.022h-.022v.022h-.022v.022h-.022v.022h-.022v.022h-.022v.022h-.043v.022h-.022v.022h-.022v.022h-.022v.022H383.6v.022h-.022v.022h-.022v.022h-.022v.022h-.022v.022h-.022v.022h-.022v.022h-.022v.022h-.022v.022H383.4v.022h-.022v.022h-.022v.022h-.022v.022h-.022v.022h-.022v.022h-.022v.022h-.022v.022h-.022v.022h-.022v.022h-.022v.022h-.043v.022h-.022v.022H383.1v.022h-.022v.022h-.022v.022h-.022v.022h-.022v.022h-.022v.022h-.022v.022h-.022v.022h-.022v.022H382.9v.022h-.022v.022h-.022v.022h-.022v.022h-.022v.022h-.022v.022h-.043v.022h-.022v.022h-.022v.022h-.022v.022h-.022v.022h-.022v.022h-.022v.022H382.6v.022h-.022v.022h-.022v.022h-.022v.022h-.022v.022h-.022v.022h-.043v.022h-.022v.022H382.4v.022h-.022v.022h-.022v.022h-.022v.022h-.022v.022h-.022v.022h-.022v.022h-.022v.022h-.043v.022h-.022v.022h-.022v.022h-.022v.022h-.022v.022H382.1v.022h-.022v.022h-.022v.022h-.022v.022h-.022v.022h-.043v.022h-.022v.022h-.022v.022H381.9v.022h-.022v.022h-.022v.022h-.022v.022h-.022v.022h-.022v.022h-.043v.022h-.022v.022h-.022v.022h-.022v.022h-.022v.022h-.022v.022h-.022v.022H381.6v.022h-.043v.022h-.022v.022h-.022v.022h-.022v.022h-.022v.022h-.022v.022h-.022v.022H381.4v.022h-.043v.022h-.022v.022h-.022v.022H381.3v.022h-.022v.022h-.022v.022h-.043v.022h-.022v.022h-.022v.022h-.022v.022h-.022v.022H381.1v.022h-.022v.022h-.043v.022h-.022v.022h-.022v.022h-.022v.022h-.022v.022h-.022v.022H380.9v.022h-.043v.022h-.022v.022h-.022v.022H380.8v.022h-.022v.022h-.022v.022h-.043v.022h-.022v.022h-.022v.022h-.022v.022h-.022v.022h-.043v.022h-.022v.022h-.022v.022h-.022v.022h-.022v.022h-.022v.022h-.043v.022H380.4v.022h-.022v.022h-.022v.022h-.022v.022H380.3v.022h-.022v.022h-.022v.022h-.022v.022h-.022v.022h-.043v.022h-.022v.022h-.022v.022H380.1v.022h-.022v.022h-.043v.022h-.022v.022h-.022v.022h-.022v.022h-.022v.022H379.9v.022h-.022v.022h-.022v.022h-.022v.022h-.022v.022h-.043v.022h-.022v.022h-.022v.022h-.022v.022h-.022v.022h-.043v.022h-.022v.022H379.6v.022h-.022v.022h-.043v.022h-.022v.022h-.022v.022h-.022v.022h-.043v.022h-.022v.022h-.022v.022h-.022v.022h-.043v.022H379.3v.022h-.022v.022h-.022v.022h-.043v.022h-.022v.022h-.022v.022h-.022v.022H379.1v.022h-.022v.022h-.022v.022h-.022v.022h-.043v.022h-.022v.022h-.022v.022h-.022v.022h-.043v.022h-.022v.022h-.022v.022H378.8v.022h-.022v.022h-.022v.022h-.022v.022h-.043v.022h-.022v.022h-.022v.022h-.022v.022h-.043v.022h-.022v.022h-.022v.022h-.022v.022h-.043v.022h-.022v.022h-.022v.022h-.043v.022h-.022v.022h-.022v.022H378.3v.022h-.022v.022h-.022v.022h-.043v.022h-.022v.022h-.022v.022h-.022v.022H378.1v.022h-.022v.022h-.022v.022h-.043v.022h-.022v.022h-.022v.022h-.043v.022h-.022v.022h-.022v.022h-.043v.022h-.022v.022H377.8v.022h-.044v.022h-.022v.022h-.022v.022h-.043v.022h-.022v.022h-.022v.022h-.043v.022h-.022v.022h-.022v.022h-.043v.022h-.022v.022h-.022v.022h-.022v.022h-.043v.022h-.022v.022h-.043v.022H377.3v.022h-.022v.022h-.043v.022h-.022v.022h-.022v.022h-.043v.022h-.022v.022h-.043v.022h-.022v.022h-.022v.022h-.043v.022h-.022v.022h-.022v.022h-.043v.022h-.022v.022h-.043v.022h-.022v.022H376.8v.022h-.043v.022h-.022v.022h-.043v.022h-.022v.022h-.022v.022H376.6v.022h-.022v.022h-.022v.022h-.043v.022h-.022v.022h-.043v.022h-.022v.022h-.022v.022h-.043v.022h-.022v.022H376.3v.022h-.022v.022h-.022v.022h-.043v.022h-.022v.022h-.043v.022h-.022v.022h-.043v.022h-.022v.022h-.022v.022h-.043v.022h-.022v.022h-.043v.022h-.022v.022h-.043v.022h-.022v.022H375.8v.022h-.022v.022h-.022v.022h-.043v.022h-.022v.022h-.043v.022h-.022v.022h-.043v.022h-.022v.022h-.043v.022H375.5v.022h-.043v.022h-.022v.022h-.022v.022h-.043v.022h-.022v.022H375.3v.022h-.022v.022h-.043v.022h-.022v.022h-.043v.022h-.022v.022H375.1v.022h-.022v.022h-.022v.022h-.044v.022h-.043v.022h-.022v.022h-.043v.022h-.022v.022h-.043v.022h-.022v.022h-.043v.022h-.022v.022h-.043V-580h-.022v.022h-.043v.022h-.022v.022h-.043v.022h-.022v.022h-.043v.022H374.5v.022h-.043v.022h-.022v.022h-.043v.022h-.022v.022h-.043v.022h-.043v.022h-.022v.022h-.043v.022h-.022v.022h-.043v.022h-.022v.022h-.043v.022h-.022v.022h-.043v.022H374v.022h-.043v.022h-.022v.022h-.043v.022h-.022v.022h-.043v.022h-.043v.022h-.022v.022h-.043v.022h-.022v.022h-.043v.022h-.043v.022h-.022v.022h-.043v.022h-.022v.022h-.043v.022h-.043v.022h-.022v.022h-.043v.022h-.022v.022H373.3v.022h-.043v.022h-.022v.022h-.043v.022h-.043V-579h-.022v.022h-.043v.022h-.022v.022h-.043v.022h-.043v.022h-.022v.022h-.043v.022h-.022v.022h-.043v.022H372.8v.022h-.022v.022h-.043v.022h-.022v.022h-.043v.022h-.043v.022h-.022v.022h-.043v.022h-.043v.022H372.5v.022h-.043v.022h-.043v.022h-.043v.022h-.022v.022H372.3v.022h-.043v.022h-.022v.022h-.043v.022h-.043v.022h-.022v.022h-.043v.022h-.043v.022h-.022v.022h-.043v.022h-.043v.022h-.043v.022h-.022v.022h-.043v.022h-.043v.022h-.022v.022h-.043v.022h-.043v.022h-.022v.022h-.043v.022h-.043v.022h-.022v.022H371.5V-578h-.043v.022h-.043v.022h-.022v.022h-.043v.022H371.3v.022h-.043v.022h-.022v.022h-.043v.022h-.043v.022h-.043v.022h-.043v.022h-.022v.022H371v.022h-.043v.022h-.043v.022h-.043v.022h-.022v.022H370.8v.022h-.043v.022h-.043v.022h-.043v.022h-.022v.022h-.043v.022h-.043v.022h-.043v.022H370.5v.022h-.043v.022h-.043v.022h-.043v.022h-.043v.022H370.3v.022h-.043v.022h-.043v.022h-.043v.022h-.043v.022h-.043v.022h-.022v.022h-.043v.022h-.043v.022h-.043v.022h-.043v.022h-.043v.022H369.8v.022h-.043v.022h-.043v.022H369.7V-577h-.043v.022h-.043v.022h-.043v.022h-.043v.022h-.043v.022h-.043v.022h-.043v.022h-.043v.022h-.022v.022h-.043v.022h-.043v.022H369.2v.022h-.043v.022h-.043v.022h-.043v.022h-.043v.022h-.043v.022h-.022v.022h-.043v.022h-.043v.022h-.043v.022h-.043v.022h-.043v.022H368.7v.022h-.043v.022h-.043v.022h-.043v.022h-.043v.022h-.043v.022h-.043v.022h-.043v.022h-.043v.022h-.043v.022h-.043v.022h-.043v.022h-.043v.022h-.043v.022h-.043v.022h-.043v.022H368v.022h-.043v.022h-.043v.022h-.043v.022h-.043v.022h-.043v.022h-.043V-576H367.7v.022h-.043v.022h-.043v.022h-.065v.022H367.5v.022h-.043v.022h-.043v.022h-.043v.022h-.043v.022h-.043v.022h-.043v.022h-.065v.022h-.043v.022h-.043v.022h-.043v.022H367v.022h-.043v.022h-.043v.022h-.043v.022h-.043v.022h-.065v.022h-.043v.022h-.043v.022h-.043v.022h-.043v.022h-.043v.022H366.5v.022h-.065v.022h-.043v.022h-.043v.022h-.043v.022h-.043v.022h-.043v.022h-.065v.022h-.043v.022h-.043v.022H366v.022h-.043v.022h-.043v.022h-.043v.022h-.065v.022h-.043v.022h-.043v.022h-.043v.022h-.065v.022h-.043V-575h-.043v.022h-.043v.022h-.065v.022h-.043v.022h-.043v.022h-.043v.022h-.065v.022h-.043v.022h-.043v.022h-.065v.022h-.043v.022h-.043v.022h-.065v.022h-.043v.022h-.043v.022h-.065v.022h-.043v.022h-.065v.022h-.043v.022h-.043v.022H364.5v.022h-.043v.022h-.065v.022h-.043v.022h-.043v.022h-.065v.022H364.2v.022h-.065v.022h-.043v.022h-.065v.022h-.043v.022h-.043v.022h-.065v.022h-.043v.022h-.065v.022h-.043v.022h-.065v.022h-.043v.022h-.065v.022H363.5v.022h-.065v.022H363.4v.022h-.065v.022h-.043v.022h-.065v.022h-.065V-574h-.043v.022h-.065v.022H363v.022h-.065v.022H362.9v.022h-.065v.022h-.065v.022h-.043v.022h-.065v.022h-.065v.022h-.043v.022h-.065v.022h-.043v.022h-.065v.022h-.065v.022h-.043v.022H362.2v.022h-.065v.022h-.065v.022h-.043v.022h-.065v.022H361.9v.022h-.065v.022h-.043v.022h-.065v.022h-.065v.022h-.065v.022h-.043v.022h-.065v.022h-.065v.022h-.065v.022h-.065v.022h-.065v.022h-.043v.022h-.065v.022h-.065v.022h-.065v.022h-.065v.022h-.065v.022h-.065v.022h-.043v.022h-.065v.022h-.065v.022h-.065v.022h-.065v.022h-.065V-573h-.065v.022h-.065v.022h-.065v.022h-.065v.022h-.065v.022h-.065v.022h-.065v.022h-.087v.022h-.065v.022h-.065v.022h-.065v.022h-.065v.022h-.065v.022h-.065v.022h-.065v.022h-.065v.022h-.087v.022H359.2v.022h-.065v.022h-.065v.022h-.065v.022h-.087v.022h-.065v.022h-.065v.022h-.065v.022h-.087v.022h-.065v.022h-.065v.022h-.087v.022h-.065v.022h-.087v.022H358.2v.022h-.065v.022h-.087v.022h-.065v.022H357.9v.022h-.065v.022h-.087v.022h-.065v.022H357.6v.022h-.065v.022h-.087v.022h-.065v.022h-.087v.022h-.065v.022h-.087V-572h-.087v.022h-.065v.022H356.9v.022h-.087v.022h-.087v.022h-.065v.022h-.087v.022h-.087v.022H356.4v.022h-.087v.022h-.065v.022h-.087v.022h-.087v.022h-.087v.022H355.9v.022h-.087v.022h-.087v.022h-.087v.022h-.087v.022h-.087v.022h-.087v.022h-.087v.022h-.109v.022H355.1v.022h-.087v.022h-.087v.022h-.109v.022h-.087v.022h-.087v.022h-.087v.022h-.109v.022h-.087v.022h-.109v.022h-.087v.022h-.109v.022h-.109v.022h-.087v.022h-.109v.022h-.087v.022h-.109v.022h-.109v.022h-.109v.022h-.109v.022h-.087v.022h-.109v.022h-.109V-571h-.109v.022h-.109v.022h-.13v.022h-.109v.022h-.109v.022h-.109v.022h-.13v.022h-.109v.022h-.13v.022h-.109v.022h-.109v.022h-.13v.022h-.13v.022h-.13v.022h-.13v.022h-.13v.022h-.13v.022h-.13v.022h-.13v.022h-.13v.022h-.152v.022h-.13v.022h-.13v.022h-.152v.022h-.152v.022h-.152v.022h-.152v.022h-.152v.022h-.174v.022h-.152v.022h-.174v.022h-.152v.022h-.152v.022h-.2v.022h-.2v.022h-.2v.022h-.174v.022h-.2v.022h-.2v.022h-.2v.022h-.217v.022h-.239v.022h-.239v.022h-.261v.022h-.239v.022h-.261V-570h-.261v.022h-.326v.022h-.348v.022h-.348v.022h-.348v.022h-.478v.022h-.586v.022h-.565v.022h-1.39v.022" transform="translate(-303.349 650.38)" fill="url(#linear-gradient)"/>
          </g>
        </g>
      </g>
      <path id="path44" d="M303.431-607.519h74.911v-43.288H303.431Z" transform="translate(-279.389 693.166)" fill="#3c3a44"/>
      <path id="path46" d="M508.616-614.253a18.742,18.742,0,0,1-18.742,18.742,18.742,18.742,0,0,1-18.742-18.742,18.742,18.742,0,0,1,18.742-18.742,18.742,18.742,0,0,1,18.742,18.742" transform="translate(-419.768 678.254)" fill="#c7c8c7"/>
      <path id="path48" d="M303.431-642.61h74.911v-8.2H303.431Z" transform="translate(-279.389 693.166)" fill="#c7c8c7"/>
      <path id="path50" d="M303.431-427.225h74.911v-8.2H303.431Z" transform="translate(-279.389 512.871)" fill="#c7c8c7"/>
      <path id="path52" d="M520.079-600.019a15.972,15.972,0,0,1-15.972,15.972,15.972,15.972,0,0,1-15.971-15.972,15.971,15.971,0,0,1,15.971-15.971,15.972,15.972,0,0,1,15.972,15.971" transform="translate(-434.002 664.021)" fill="#2a3341"/>
      <path id="path54" d="M538.42-577.244A11.54,11.54,0,0,1,526.88-565.7a11.539,11.539,0,0,1-11.539-11.54,11.539,11.539,0,0,1,11.539-11.539,11.539,11.539,0,0,1,11.539,11.539" transform="translate(-456.775 641.246)" fill="#486f87"/>
      <path id="path56" d="M535.63-580.034h-.543a10.959,10.959,0,0,1-3.221,7.776,10.959,10.959,0,0,1-7.775,3.221,10.959,10.959,0,0,1-7.775-3.221,10.96,10.96,0,0,1-3.221-7.776,10.958,10.958,0,0,1,3.221-7.775,10.958,10.958,0,0,1,7.775-3.221,10.958,10.958,0,0,1,7.775,3.221,10.958,10.958,0,0,1,3.221,7.775h1.086a12.082,12.082,0,0,0-12.082-12.082,12.082,12.082,0,0,0-12.082,12.082,12.082,12.082,0,0,0,12.082,12.083,12.083,12.083,0,0,0,12.082-12.083h-.543" transform="translate(-453.985 644.036)" fill="#4e879f"/>
      <path id="path58" d="M560.223-550.173a6.271,6.271,0,0,1-6.27,6.271,6.27,6.27,0,0,1-6.27-6.271,6.27,6.27,0,0,1,6.27-6.27,6.27,6.27,0,0,1,6.27,6.27" transform="translate(-483.847 614.175)" fill="#2e4457"/>
      <path id="path60" d="M569.775-538.312a3.962,3.962,0,0,1-3.962,3.962,3.962,3.962,0,0,1-3.962-3.962,3.962,3.962,0,0,1,3.962-3.961,3.962,3.962,0,0,1,3.962,3.961" transform="translate(-495.708 602.314)" fill="#1f2833"/>
      <path id="path62" d="M531.635-684.614a1.413,1.413,0,0,1-1.438,1.385H505.459a1.412,1.412,0,0,1-1.438-1.385v-9.571a1.412,1.412,0,0,1,1.438-1.385H530.2a1.413,1.413,0,0,1,1.438,1.385v9.571" transform="translate(-447.299 730.635)" fill="#c7c8c7"/>
      <path id="path64" d="M517.839-581.416a3.875,3.875,0,0,1-.465-1.847,3.893,3.893,0,0,1,3.893-3.893,3.877,3.877,0,0,1,1.877.482,12.133,12.133,0,0,0-5.305,5.258" transform="translate(-458.476 639.884)" fill="#99a7a9"/>
      <path id="path66" d="M527.444-573.063a3.879,3.879,0,0,1-2.691-1.08,11.022,11.022,0,0,1,2.23-3.208,11.025,11.025,0,0,1,3.3-2.271,3.879,3.879,0,0,1,1.056,2.665,3.893,3.893,0,0,1-3.893,3.893" transform="translate(-464.654 633.577)" fill="#aabdc2"/>
      <path id="path68" d="M520.965-577.974a3.906,3.906,0,0,1-.737-.967,12.134,12.134,0,0,1,5.305-5.258,3.909,3.909,0,0,1,.96.746,11.025,11.025,0,0,0-3.3,2.271,11.022,11.022,0,0,0-2.231,3.208" transform="translate(-460.866 637.408)" fill="#aec8cd"/>
      <path id="path70" d="M557.474-538.464a1.239,1.239,0,0,1-1.1-1.232,1.238,1.238,0,0,1,1.238-1.238,1.239,1.239,0,0,1,1.105.679,3.97,3.97,0,0,0-1.242,1.791" transform="translate(-491.121 601.193)" fill="#97aeb0"/>
      <path id="path72" d="M563.271-534.969a1.279,1.279,0,0,1-.137-.007,3.971,3.971,0,0,1,1.242-1.791,1.237,1.237,0,0,1,.133.56,1.239,1.239,0,0,1-1.239,1.239" transform="translate(-496.782 597.705)" fill="#8ea2a4"/>
      <path id="path74" d="M585.98-681.669a1.385,1.385,0,0,1-1.385,1.385H572.963a1.385,1.385,0,0,1-1.385-1.385v-4.156a1.386,1.386,0,0,1,1.385-1.385h11.632a1.385,1.385,0,0,1,1.385,1.385v4.156" transform="translate(-503.849 723.637)" fill="#486f87"/>
      <path id="path76" d="M529.629-681.685a1.385,1.385,0,0,1-1.385,1.385h-2.435a1.385,1.385,0,0,1-1.385-1.385v-.739a1.385,1.385,0,0,1,1.385-1.385h2.435a1.385,1.385,0,0,1,1.385,1.385v.739" transform="translate(-464.378 720.79)" fill="#2a3341"/>
      <path id="path78" d="M543.67-655.209a.97.97,0,0,1-.97.969.969.969,0,0,1-.97-.969.97.97,0,0,1,.97-.97.97.97,0,0,1,.97.97" transform="translate(-478.865 697.661)" fill="#b62436"/>
      <path id="path80" d="M352.625-663.487h-9.207v-2.468h9.207v2.468" transform="translate(-312.861 705.844)" fill="#858e93"/>
      <path id="path82" d="M726.2-573.6h6.033v-26.893H726.2Z" transform="translate(-633.284 651.046)" fill="#35333c"/>
      <path id="path84" d="M726.2-642.61h6.033v-8.2H726.2Z" transform="translate(-633.284 693.166)" fill="#aaafb0"/>
      <path id="path86" d="M726.2-427.271h6.033v-8.151H726.2Z" transform="translate(-633.284 512.871)" fill="#aaafb0"/>
      <path id="path88" d="M303.431-573.6h3.016v-26.893h-3.016Z" transform="translate(-279.389 651.046)" fill="#35333c"/>
      <path id="path90" d="M303.431-642.61h3.016v-8.2h-3.016Z" transform="translate(-279.389 693.166)" fill="#aaafb0"/>
      <path id="path92" d="M303.431-427.271h3.016v-8.151h-3.016Z" transform="translate(-279.389 512.871)" fill="#aaafb0"/>
    </g>
  </g>
</svg>
