<svg xmlns="http://www.w3.org/2000/svg" width="793.202" height="517.282" viewBox="0 0 793.202 517.282">
  <g id="g10" transform="translate(-20.3 2653.958)">
    <g id="g12" transform="translate(20.3 -2653.958)">
      <g id="g18" transform="translate(0 0)">
        <path id="path20" d="M992.277-2049.844c3.677-4.634,5.737-10.325,7.407-16,14.441-49.121,2.2-105.232-31.387-143.877-13.984-16.091-32.715-29.652-42.954-48.672-11.173-20.74-10.914-45.946-12.542-68.81-5.068-71.283-28.809-170.55-105.027-196.911-42.3-14.627-87.635-2.94-130.012,4.892-48.49,8.968-95.431,5.249-144.423,6-61.075.939-99.925,24.384-148.368,58.5-33.361,23.492-75.44,33.381-110.444,55.063-43.951,27.223-61.809,72.756-57.32,123.659,3.167,35.916,15.95,70.187,28.613,103.945q14.964,39.887,29.927,79.776c5.993,15.977,12.389,32.569,24.91,44.163,28.072,25.99,72.158,16.475,110.337,18.934,24.723,1.593,48.72,8.907,73.3,12.028a218.391,218.391,0,0,0,105.2-12.688c14.56-5.586,28.635-12.776,43.892-16.015,15.287-3.244,31.11-2.377,46.711-1.5,58.137,0,117.057,6.609,175.11,9.886,26.184,1.477,53.12,5.046,79.279,2.714,18.113-1.617,45.387.539,57.8-15.083" transform="translate(-216.535 2531.1)" fill="#dcefeb"/>
      </g>
      <path id="path22" d="M1729.383-2090.208h-88.267v405.22h88.267v-405.22" transform="translate(-1325.999 2187.734)" fill="#62c1c5"/>
      <g id="g24" transform="translate(428.898 207.406)">
        <path id="path26" d="M2243.765-1593.46h-88.272v295.339h88.272V-1593.46" transform="translate(-2155.493 1593.46)" fill="#62c1c5"/>
      </g>
      <g id="g28" transform="translate(379.532 158.402)">
        <path id="path30" d="M2020.592-1814.995h-88.27v344.342h88.27v-344.342" transform="translate(-1932.322 1814.995)" fill="#62c1c5"/>
      </g>
      <path id="path32" d="M1482.384-1593.463h-88.267v295.34h88.267v-295.34" transform="translate(-1133.635 1800.868)" fill="#62c1c5"/>
      <path id="path34" d="M756.189-1815.009h-103.6v344.345h103.6v-344.345" transform="translate(-556.132 1973.408)" fill="#62c1c5"/>
      <path id="path36" d="M1148.376-2090.208l-88.27,33.31v371.91h88.27v-405.22" transform="translate(-873.508 2187.734)" fill="#62c1c5"/>
      <g id="g38" transform="translate(515.336 140.011)">
        <path id="path40" d="M2669.56-1898.14h-123.3v362.735h123.3V-1898.14" transform="translate(-2546.261 1898.14)" fill="#62c1c5"/>
      </g>
      <g id="g42" transform="translate(535.641 114.679)">
        <path id="path44" d="M2720.75-2012.66h-82.69v59.05h82.69v-59.05" transform="translate(-2638.06 2012.66)" fill="#62c1c5"/>
      </g>
      <g id="g46" transform="translate(555.277 73.469)">
        <path id="path48" d="M2770.25-2198.962h-43.421v52.442h43.421v-52.442" transform="translate(-2726.829 2198.962)" fill="#62c1c5"/>
      </g>
      <g id="g50" transform="translate(573.167 24.781)">
        <path id="path52" d="M2815.339-2419.072h-7.633v58.542h7.633v-58.542" transform="translate(-2807.706 2419.072)" fill="#62c1c5"/>
      </g>
      <g id="g54" transform="translate(504.918 233.086)">
        <path id="path56" d="M2511.418-1477.366h-12.251v25.287h12.251v-25.287" transform="translate(-2499.166 1477.366)" fill="#fff"/>
      </g>
      <path id="path58" d="M1288.739-1929.555h-12.251v25.288h12.251v-25.288" transform="translate(-1042.026 2062.616)" fill="#fff"/>
      <path id="path60" d="M1063.6-1547.129h-12.252v25.288H1063.6v-25.288" transform="translate(-866.685 1764.784)" fill="#fff"/>
      <g id="g62" transform="translate(570.86 83.32)">
        <path id="path64" d="M2809.529-2154.429h-12.252v25.291h12.252v-25.291" transform="translate(-2797.277 2154.429)" fill="#fff"/>
      </g>
      <g id="g66" transform="translate(579.383 200.694)">
        <path id="path68" d="M2848.058-1623.8h-12.253v25.287h12.253V-1623.8" transform="translate(-2835.806 1623.802)" fill="#fff"/>
      </g>
      <path id="path70" d="M1911.234-1815.009h-12.252v25.288h12.252v-25.288" transform="translate(-1526.825 1973.408)" fill="#fff"/>
      <path id="path72" d="M1401.207-680.289s-34.826,79.894-160.733-2.144c0,0,126.671-88.943,160.733,2.144" transform="translate(-1013.979 1121.655)" fill="#213361"/>
      <path id="path74" d="M1240.474-683.746l160.733,2.144s-19.094-91.748-160.733-2.144" transform="translate(-1013.979 1122.968)" fill="#7c9af2"/>
      <path id="path76" d="M1480.165-593.994a.291.291,0,0,1-.121-.03l-33.124-16.7a.274.274,0,0,1-.121-.369.272.272,0,0,1,.366-.121l33.124,16.7a.271.271,0,0,1,.121.366.272.272,0,0,1-.245.153" transform="translate(-1174.642 1035.911)" fill="#213361"/>
      <path id="path78" d="M1742.677-630.371a.26.26,0,0,1-.145-.044l-41.4-26.376a.28.28,0,0,1-.085-.38.279.279,0,0,1,.38-.082l41.394,26.379a.276.276,0,0,1,.086.378.274.274,0,0,1-.233.127" transform="translate(-1372.643 1071.782)" fill="#213361"/>
      <g id="g80" transform="translate(639.126 156.426)">
        <path id="path82" d="M3192.087-1823.209c15.5,2.293,29.459,10.306,31.052,27.735,1.5,16.5-11.083,32.833-4.86,49.177,6.4,16.776,24.637,22.515,17.977,43.265-2.37,7.391-6.193,14.594-6,22.353.4,16.257,16.27,26.187,24.019,38.94,10.005,16.46,6.3,39.138-7.017,52.663-25.326,25.718-68.276,16.481-100.225,14.045-18.558-1.416-35.3-10.924-39.947-30.21-5.389-22.388,8.724-33.173,17.541-50.879,8.579-17.233-1.986-37.525-2.24-56.771-.285-21.518,17.09-33.331,20.274-53.1,2.308-14.3-5.741-29.027,2.272-42.533,4.237-7.151,12.085-11.568,20.176-13.487a73.925,73.925,0,0,1,26.981-1.2" transform="translate(-3105.891 1823.932)" fill="#1f8b8d"/>
      </g>
      <g id="g84" transform="translate(715.075 200.057)">
        <path id="path86" d="M3450.338-1340.867a1.093,1.093,0,0,1-1.093-1.095v-283.626a1.093,1.093,0,0,1,1.093-1.094,1.093,1.093,0,0,1,1.094,1.094v283.626a1.094,1.094,0,0,1-1.094,1.095" transform="translate(-3449.245 1626.682)" fill="#1a264c"/>
      </g>
      <g id="g88" transform="translate(683.948 259.125)">
        <path id="path90" d="M3340.739-1289.351a1.1,1.1,0,0,1-1-.64l-31.119-68.108a1.092,1.092,0,0,1,.54-1.45,1.1,1.1,0,0,1,1.451.54l31.124,68.106a1.1,1.1,0,0,1-.544,1.451,1.078,1.078,0,0,1-.456.1" transform="translate(-3308.524 1359.648)" fill="#1a264c"/>
      </g>
      <g id="g92" transform="translate(715.072 332.376)">
        <path id="path94" d="M3450.324-982.263a1.086,1.086,0,0,1-.626-.194,1.093,1.093,0,0,1-.272-1.525l30.642-44.042a1.1,1.1,0,0,1,1.528-.274,1.1,1.1,0,0,1,.269,1.524l-30.642,44.045a1.1,1.1,0,0,1-.9.466" transform="translate(-3449.229 1028.494)" fill="#1a264c"/>
      </g>
      <g id="g96" transform="translate(506.075 256.151)">
        <path id="path98" d="M2563.631-1372.6c10.65,1.576,20.246,7.083,21.336,19.061,1.037,11.337-7.616,22.563-3.339,33.793,4.392,11.529,16.928,15.472,12.354,29.732-1.631,5.079-4.258,10.028-4.124,15.36.281,11.172,11.178,17.994,16.5,26.759,6.876,11.311,4.331,26.9-4.823,36.189-17.4,17.675-46.917,11.326-68.871,9.653-12.757-.973-24.264-7.509-27.452-20.76-3.705-15.384,5.994-22.8,12.053-34.964,5.9-11.842-1.362-25.786-1.538-39.011-.195-14.788,11.74-22.907,13.932-36.492,1.586-9.827-3.945-19.949,1.558-29.23,2.915-4.913,8.307-7.948,13.866-9.267a50.8,50.8,0,0,1,18.542-.822" transform="translate(-2504.398 1373.095)" fill="#1f8b8d"/>
      </g>
      <g id="g100" transform="translate(60.87 471.833)">
        <path id="path102" d="M1184.658-375.316c0-12.552-155.119-22.725-346.473-22.725s-346.471,10.172-346.471,22.725,155.121,22.724,346.471,22.724,346.473-10.175,346.473-22.724" transform="translate(-491.714 398.041)" fill="#62c1c5"/>
      </g>
      <g id="g104" transform="translate(624.132 386.096)">
        <path id="path106" d="M3046.219-784.862a56.508,56.508,0,0,1,3.3,6.845c.59,1.976,2.627,3.454,1.663,4.161s-3.511-2.336-3.511-2.336-.761,4.126-.8,5.43-.707,3.616-1.663,3.66-.32-6.205-.32-6.205-1.052,5.208-1.927,5.436-.5-6.595-.5-6.595-.854,5.613-1.305,5.993-.959-.18-1.136-2.241a19.593,19.593,0,0,1,.168-4.209,44.6,44.6,0,0,1-1.166,4.327c-.274.431-.959.826-.9-2.253s1.263-9.715,3.211-12.788l4.9.776" transform="translate(-3038.105 785.637)" fill="#fb9391"/>
      </g>
      <g id="g108" transform="translate(643.594 476.591)">
        <path id="path110" d="M3126.092-375.811s.163,11.261.073,11.423.824,1.569.824,1.569l3.55.637,3.244-1.493s-.287-10.467.052-12.116-7.742-.021-7.742-.021" transform="translate(-3126.092 376.53)" fill="#fb9391"/>
      </g>
      <g id="g112" transform="translate(630.459 488.512)">
        <path id="path114" d="M3087.531-321.7a9.235,9.235,0,0,1-7.593-.935s-13.631,5.108-13.214,8.993c0,0-.58,1.159,5.324.908s15.082-.513,15.332-.649,1.4.486.151-8.317" transform="translate(-3066.709 322.639)" fill="#1a264c"/>
      </g>
      <g id="g116" transform="translate(685.241 476.591)">
        <path id="path118" d="M3314.371-375.81s.164,11.261.073,11.423.818,1.569.818,1.569l3.556.637,3.242-1.492s-.286-10.467.05-12.116-7.739-.021-7.739-.021" transform="translate(-3314.371 376.529)" fill="#fb9391"/>
      </g>
      <g id="g120" transform="translate(672.105 488.512)">
        <path id="path122" d="M3275.8-321.7a9.234,9.234,0,0,1-7.593-.935s-13.626,5.108-13.212,8.992c0,0-.582,1.159,5.322.909s15.088-.514,15.333-.649,1.4.487.15-8.317" transform="translate(-3254.982 322.638)" fill="#1a264c"/>
      </g>
      <g id="g124" transform="translate(635.225 358.081)">
        <path id="path126" d="M3143.485-900.578l3.047,117.8-9.216-.339-21.3-87.533-11.125,88.786-9.666-.914-6.963-118.194,14.809-11.322,40.418,11.712" transform="translate(-3088.258 912.289)" fill="#13676b"/>
      </g>
      <g id="g128" transform="translate(649.642 281.426)">
        <path id="path130" d="M3156.14-1257.654s-.863-1.6-1.71-1.061c-2.16,1.386-.326,3.586.975,4.158l.735-3.1" transform="translate(-3153.433 1258.828)" fill="#ea6868"/>
      </g>
      <g id="g132" transform="translate(651.226 265.249)">
        <path id="path134" d="M3161.773-1320.23l.014,0c0-.159.013-.318.031-.478a12.38,12.38,0,0,1,14.283-11.1,12.418,12.418,0,0,1,10.427,12.175,12.389,12.389,0,0,1-1.579,6.1c-1.406,2.781-2.633,5.155-3.888,7.111a17.689,17.689,0,0,0-2.687,10.895l.232,3.008c-7.945,3.344-11.058-.722-11.058-.722l.356-5.453a1.373,1.373,0,0,0-1.166-1.442.023.023,0,0,0-.013,0c-9.341-1.469-5.334-15.855-4.951-20.088" transform="translate(-3160.593 1331.965)" fill="#fb9391"/>
      </g>
      <g id="g136" transform="translate(664.513 283.561)">
        <path id="path138" d="M3220.666-1248.129a1.159,1.159,0,0,1,1.254-1.044,1.154,1.154,0,0,1,1.043,1.253,1.155,1.155,0,0,1-1.254,1.044,1.16,1.16,0,0,1-1.044-1.253" transform="translate(-3220.661 1249.178)" fill="#1a264c"/>
      </g>
      <g id="g140" transform="translate(654.501 280.591)">
        <path id="path142" d="M3175.406-1261.554a1.154,1.154,0,0,1,1.254-1.044,1.15,1.15,0,0,1,1.038,1.254,1.145,1.145,0,0,1-1.25,1.041,1.148,1.148,0,0,1-1.042-1.25" transform="translate(-3175.401 1262.603)" fill="#1a264c"/>
      </g>
      <g id="g144" transform="translate(664.222 280.29)">
        <path id="path146" d="M3223.92-1261.06a.642.642,0,0,0,.351-.065.67.67,0,0,0,.314-.9,3.617,3.617,0,0,0-4.808-1.6.68.68,0,0,0-.382.876.675.675,0,0,0,.876.383,2.28,2.28,0,0,1,3.1.929.667.667,0,0,0,.55.377" transform="translate(-3219.349 1263.964)" fill="#1a264c"/>
      </g>
      <g id="g148" transform="translate(653.627 277.517)">
        <path id="path150" d="M3176.019-1273.6a.729.729,0,0,0,.356-.065.678.678,0,0,0,.312-.9,3.623,3.623,0,0,0-4.81-1.6.674.674,0,0,0-.382.873.677.677,0,0,0,.876.384,2.276,2.276,0,0,1,3.1.929.684.684,0,0,0,.55.38" transform="translate(-3171.448 1276.5)" fill="#1a264c"/>
      </g>
      <g id="g152" transform="translate(671.463 276.204)">
        <path id="path154" d="M3258.755-1278.94l-4.107,8.037-2.2-.652-.365-10.883,6.673,3.5" transform="translate(-3252.082 1282.438)" fill="#1a264c"/>
      </g>
      <g id="g156" transform="translate(670.794 285.787)">
        <path id="path158" d="M3249.768-1238.111a1.836,1.836,0,0,1,1.041-.781c.881-.266,2.416-.5,3.355.622,1.375,1.655-2.037,5.392-4.867,3.12,0,0-.779-.938.472-2.961" transform="translate(-3249.056 1239.114)" fill="#fb9391"/>
      </g>
      <g id="g160" transform="translate(657.318 282.811)">
        <path id="path162" d="M3189.063-1247.152a2.308,2.308,0,0,0,2.1.13.2.2,0,0,0,.087-.269.2.2,0,0,0-.265-.088,1.88,1.88,0,0,1-2.2-.525c-.165-.177-.247-.318-.239-.416,0-.139.186-.3.434-.522a5.907,5.907,0,0,0,2-3.48.2.2,0,0,0-.152-.242.2.2,0,0,0-.239.153,5.461,5.461,0,0,1-1.878,3.271c-.308.277-.552.5-.569.8a1.008,1.008,0,0,0,.348.7,2.56,2.56,0,0,0,.578.48" transform="translate(-3188.137 1252.569)" fill="#ea6868"/>
      </g>
      <g id="g164" transform="translate(651.824 271.422)">
        <path id="path166" d="M3166.3-1303.1s-1.885,1.085-3,8.53c0,0,.16-8.4,1.168-9.231s1.833.7,1.833.7" transform="translate(-3163.297 1304.054)" fill="#1a264c"/>
      </g>
      <g id="g168" transform="translate(656.758 289.658)">
        <path id="path170" d="M3188.214-1219.517a1.616,1.616,0,0,0-.829-2.068c-.7-.177-1.467.467-1.709,1.433a1.623,1.623,0,0,0,.832,2.071c.7.174,1.467-.469,1.706-1.436" transform="translate(-3185.603 1221.613)" fill="#1a264c"/>
      </g>
      <g id="g172" transform="translate(652.78 303.208)">
        <path id="path174" d="M3184.739-1160.357H3172.4l-4.78,20.681V-1100s11.327,5.486,26.24-1.687l-4.348-46.431-4.772-12.24" transform="translate(-3167.619 1160.357)" fill="#fff"/>
      </g>
      <g id="g176" transform="translate(669.9 303.209)">
        <path id="path178" d="M3245.017-1160.354s18.613,7.878,22.271,12.944,14.636,27.013,9.57,71.754h-10.024l-.246-4.642-18.571,1.829-3-81.885" transform="translate(-3245.017 1160.354)" fill="#213361"/>
      </g>
      <g id="g180" transform="translate(624.407 303.209)">
        <path id="path182" d="M3072.5-1160.355s-18.614,7.877-22.271,12.945-14.634,27.012-9.569,71.754h10.5l-.226-4.643,18.572,1.829,3-81.885" transform="translate(-3039.352 1160.355)" fill="#213361"/>
      </g>
      <g id="g184" transform="translate(683.74 330.371)">
        <path id="path186" d="M3315.259-984.2a.274.274,0,0,1-.273-.256c-.022-.366-2.395-36.922-7.391-52.746a.274.274,0,0,1,.181-.342.272.272,0,0,1,.341.177c5.018,15.888,7.391,52.509,7.414,52.876a.274.274,0,0,1-.259.292h-.014" transform="translate(-3307.582 1037.558)" fill="#1a264c"/>
      </g>
      <g id="g188" transform="translate(635.731 330.371)">
        <path id="path190" d="M3090.817-984.649h-.009a.276.276,0,0,1-.261-.283c.063-1.755,1.666-43.019,4.993-52.448a.275.275,0,0,1,.351-.165.271.271,0,0,1,.165.348c-3.3,9.349-4.947,51.855-4.964,52.283a.275.275,0,0,1-.275.266" transform="translate(-3090.547 1037.561)" fill="#1a264c"/>
      </g>
      <g id="g192" transform="translate(656.103 303.631)">
        <path id="path194" d="M3192.44-1156.547l-2.171,3.692,4.517,52.233-6.973,11.258-5.171-11.538,5.013-52.267-1.587-3.693,4.258-1.584,2.113,1.9" transform="translate(-3182.641 1158.446)" fill="#fdd246"/>
      </g>
      <g id="g196" transform="translate(657.561 301.002)">
        <path id="path198" d="M3201.574-1168.124l-.925-2.029-5.8,2.029-4.8-2.206-.814,2.206,1.021,3.8,4.382-2.846,4.272,3.109,2.664-4.061" transform="translate(-3189.236 1170.33)" fill="#b9caef"/>
      </g>
      <g id="g200" transform="translate(691.12 398.413)">
        <path id="path202" d="M3358.278-721.047h-3.188v-5.722h-10.955v5.722h-3.188V-727.1a2.745,2.745,0,0,1,2.6-2.861h12.124a2.745,2.745,0,0,1,2.6,2.861v6.049" transform="translate(-3340.947 729.957)" fill="#1a264c"/>
      </g>
      <g id="g204" transform="translate(677.034 405.892)">
        <path id="path206" d="M3322.577-696.146h-43.415a1.9,1.9,0,0,0-1.9,1.893v27.237a1.893,1.893,0,0,0,1.9,1.893h43.415a1.893,1.893,0,0,0,1.9-1.893v-27.237a1.9,1.9,0,0,0-1.9-1.893" transform="translate(-3277.267 696.146)" fill="#213361"/>
      </g>
      <g id="g208" transform="translate(676.889 414.282)">
        <path id="path210" d="M3301.7-649.784a.214.214,0,0,1-.08-.012l-24.821-7.836a.272.272,0,0,1-.176-.333.264.264,0,0,1,.332-.174l24.736,7.81,22-7.869a.263.263,0,0,1,.336.159.267.267,0,0,1-.162.342l-22.082,7.9a.3.3,0,0,1-.086.015" transform="translate(-3276.612 658.214)" fill="#1a264c"/>
      </g>
      <g id="g212" transform="translate(700.607 419.757)">
        <path id="path214" d="M3386.66-633.465h-2.826v5.117h2.826v-5.117" transform="translate(-3383.833 633.465)" fill="#fff"/>
      </g>
      <g id="g216" transform="translate(690.183 387.907)">
        <path id="path218" d="M3340.986-777.451s-2.338,6.373-2.73,8.4-2.274,3.7-1.24,4.306,3.255-2.675,3.255-2.675a10.164,10.164,0,0,1,.683,2.454c.171,1.292.8,2.481,1.757,2.427s.622-2.288.622-2.288.563,2.4,1.628,2.079c.867-.262.677-3.474.677-3.474a19.809,19.809,0,0,0,.78,2.566c.336.625,1.507.829,1.485-1.239s-.046-2.009-.046-2.009a15.788,15.788,0,0,0,.977,2.428c.314.4,1.5.516,1.2-1.206-.539-3.032-2.135-8.9-4.381-11.768h-4.667" transform="translate(-3336.709 777.451)" fill="#fb9391"/>
      </g>
      <g id="g220" transform="translate(650.715 263.762)">
        <path id="path222" d="M3181.5-1337.605c-.357-.363-1.012-.655-1.307-.245a.89.89,0,0,0-.106.59,5.616,5.616,0,0,0,.414,1.722c-2.077-2.438-5.547-3.195-8.753-3.147s-6.386.748-9.587.591c-1.271-.062-2.792-.152-3.536.876a2.175,2.175,0,0,0,.12,2.486,3.836,3.836,0,0,0,2.225,1.351,1.77,1.77,0,0,0-1.962.445,1.773,1.773,0,0,0-.206,2.005c.544.953,1.8,1.162,2.894,1.251a98.317,98.317,0,0,0,10.466.3c-.5.41-1.012.817-1.525,1.227a1.374,1.374,0,0,0-.433.5.977.977,0,0,0,.151.87,2.588,2.588,0,0,0,2.038,1.038,10.58,10.58,0,0,0,2.354-.254,18.719,18.719,0,0,1,3.447-.239,1.755,1.755,0,0,1,.7.118,2.205,2.205,0,0,1,.691.664c1.23,1.478,3.175,2.105,5.012,2.663.575.174,1.329.286,1.645-.218a1.281,1.281,0,0,0,.147-.669,15.469,15.469,0,0,0-1.926-7.975.871.871,0,0,0,1.579.05c.486-.92-.669-1.678-1.32-2.059-.594-.345-1.16-.419-1.605-1-.691-.906-.763-2.059-1.619-2.938" transform="translate(-3158.287 1338.687)" fill="#1a264c"/>
      </g>
      <g id="g224" transform="translate(669.9 303.209)">
        <path id="path226" d="M3252.276-1157.027l-3.656,15.068,3.656,1.528-5.386,31.239-1.874-51.162,7.26,3.327" transform="translate(-3245.016 1160.354)" fill="#13676b"/>
      </g>
      <g id="g228" transform="translate(650.302 303.209)">
        <path id="path230" d="M3156.416-1157.028l3.654,15.068-3.654,1.528,5.385,31.239,1.874-51.162-7.258,3.326" transform="translate(-3156.416 1160.355)" fill="#13676b"/>
      </g>
      <path id="path232" d="M325.611-1823.218c15.5,2.294,29.462,10.308,31.051,27.735,1.5,16.5-11.084,32.835-4.858,49.177,6.391,16.779,24.634,22.516,17.974,43.267-2.372,7.391-6.193,14.594-6,22.353.405,16.257,16.268,26.187,24.021,38.94,10,16.46,6.3,39.138-7.019,52.663-25.325,25.718-68.277,16.481-100.224,14.045-18.56-1.416-35.3-10.924-39.947-30.21-5.389-22.388,8.721-33.174,17.538-50.879,8.581-17.233-1.983-37.524-2.237-56.771-.285-21.518,17.085-33.331,20.274-53.1,2.306-14.3-5.741-29.028,2.266-42.533,4.24-7.152,12.09-11.57,20.18-13.487a73.9,73.9,0,0,1,26.98-1.2" transform="translate(-234.355 1980.365)" fill="#1f8b8d"/>
      <path id="path234" d="M582.873-1341.554a1.369,1.369,0,0,1-1.368-1.368v-283.625a1.369,1.369,0,0,1,1.368-1.369,1.369,1.369,0,0,1,1.368,1.369v283.625a1.369,1.369,0,0,1-1.368,1.368" transform="translate(-500.774 1827.7)" fill="#1a264c"/>
      <path id="path236" d="M473.291-1290.043a1.368,1.368,0,0,1-1.245-.8l-31.124-68.106a1.369,1.369,0,0,1,.676-1.813,1.369,1.369,0,0,1,1.813.675l31.124,68.109a1.365,1.365,0,0,1-.676,1.811,1.344,1.344,0,0,1-.568.127" transform="translate(-391.191 1619.739)" fill="#1a264c"/>
      <path id="path238" d="M582.872-982.95a1.366,1.366,0,0,1-.78-.245,1.366,1.366,0,0,1-.342-1.9l30.646-44.045a1.37,1.37,0,0,1,1.9-.342,1.37,1.37,0,0,1,.342,1.906L584-983.537a1.363,1.363,0,0,1-1.124.587" transform="translate(-500.773 1361.832)" fill="#1a264c"/>
      <path id="path240" d="M1369.235-1651.72c10.49,1.552,19.943,6.975,21.02,18.776,1.018,11.169-7.506,22.226-3.288,33.289,4.327,11.358,16.675,15.242,12.166,29.29-1.6,5-4.191,9.877-4.062,15.13.274,11.007,11.013,17.728,16.26,26.361,6.775,11.143,4.268,26.494-4.751,35.651-17.142,17.41-46.219,11.157-67.846,9.506-12.564-.959-23.9-7.394-27.042-20.448-3.648-15.157,5.9-22.459,11.873-34.445,5.81-11.664-1.342-25.4-1.516-38.43-.192-14.566,11.567-22.562,13.726-35.949,1.56-9.677-3.887-19.649,1.534-28.791,2.87-4.843,8.184-7.834,13.661-9.131a50.069,50.069,0,0,1,18.265-.808" transform="translate(-1068.814 1846.62)" fill="#1f8b8d"/>
      <path id="path242" d="M1543.389-1325.663a.926.926,0,0,1-.926-.926v-192a.926.926,0,0,1,.926-.926.928.928,0,0,1,.926.926v192a.928.928,0,0,1-.926.926" transform="translate(-1249.167 1743.278)" fill="#1a264c"/>
      <path id="path244" d="M1469.207-1290.8a.929.929,0,0,1-.843-.54l-21.067-46.107a.923.923,0,0,1,.457-1.227.922.922,0,0,1,1.227.457l21.067,46.107a.926.926,0,0,1-.458,1.227.927.927,0,0,1-.383.083" transform="translate(-1174.985 1602.502)" fill="#1a264c"/>
      <path id="path246" d="M1543.386-1082.906a.916.916,0,0,1-.528-.165.925.925,0,0,1-.233-1.289l20.746-29.815a.924.924,0,0,1,1.289-.233.925.925,0,0,1,.233,1.289l-20.745,29.815a.925.925,0,0,1-.761.4" transform="translate(-1249.165 1427.909)" fill="#1a264c"/>
      <g id="g248" transform="translate(750.691 368.274)">
        <path id="path250" d="M3610.729-736.844a.306.306,0,0,1-.086,0,.439.439,0,0,1-.386-.49c7.708-63.331,16.841-108.68,25.716-127.691.2-.422.339-.728.385-.876a.447.447,0,0,1,.558-.286.441.441,0,0,1,.283.558,9.879,9.879,0,0,1-.426.979c-8.838,18.929-17.94,64.183-25.639,127.422a.44.44,0,0,1-.405.387" transform="translate(-3610.254 866.21)" fill="#1a264c"/>
      </g>
      <g id="g252" transform="translate(775.531 358.66)">
        <path id="path254" d="M3731.128-903.4c-1.069,2.147-7.5,6.86-8.116,6.553s-.726-8.279.342-10.426a4.344,4.344,0,0,1,5.821-1.95,4.344,4.344,0,0,1,1.953,5.822" transform="translate(-3722.55 909.673)" fill="#1a264c"/>
      </g>
      <g id="g256" transform="translate(763.103 370.616)">
        <path id="path258" d="M3674.788-853.162c1.093,2.2.982,10.352.353,10.668s-7.213-4.507-8.306-6.7a4.445,4.445,0,0,1,1.993-5.958,4.447,4.447,0,0,1,5.96,1.991" transform="translate(-3666.368 855.621)" fill="#1a264c"/>
      </g>
      <g id="g260" transform="translate(771.818 376.685)">
        <path id="path262" d="M3716.243-819.421c-2.39.573-10.31-1.374-10.474-2.055s6.012-6.011,8.4-6.583a4.443,4.443,0,0,1,5.358,3.283,4.441,4.441,0,0,1-3.281,5.356" transform="translate(-3705.766 828.183)" fill="#1a264c"/>
      </g>
      <g id="g264" transform="translate(744.002 413.118)">
        <path id="path266" d="M3593.744-660.047c2.229,3.466,3.515,17.1,2.527,17.734s-12.847-6.214-15.071-9.679a7.452,7.452,0,0,1,2.244-10.3,7.454,7.454,0,0,1,10.3,2.247" transform="translate(-3580.015 663.476)" fill="#1a264c"/>
      </g>
      <g id="g268" transform="translate(760.095 420.764)">
        <path id="path270" d="M3670.631-614.431c-3.878,1.386-17.451-.428-17.85-1.534s8.946-11.119,12.824-12.509a7.458,7.458,0,0,1,9.532,4.51,7.453,7.453,0,0,1-4.506,9.533" transform="translate(-3652.769 628.91)" fill="#1a264c"/>
      </g>
      <g id="g272" transform="translate(734.254 430.798)">
        <path id="path274" d="M3551.479-580.922c3.588,3.536,8.8,19.465,7.788,20.489s-17.01-3.955-20.6-7.491a9.126,9.126,0,0,1-.089-12.9,9.125,9.125,0,0,1,12.9-.094" transform="translate(-3535.949 583.547)" fill="#1a264c"/>
      </g>
      <g id="g276" transform="translate(756.71 439.56)">
        <path id="path278" d="M3659.006-525.95c-4.9,1.2-21.188-2.719-21.531-4.114s12.29-12.411,17.182-13.611a9.127,9.127,0,0,1,11.037,6.689,9.125,9.125,0,0,1-6.688,11.036" transform="translate(-3637.469 543.939)" fill="#1a264c"/>
      </g>
      <g id="g280" transform="translate(731.112 451.558)">
        <path id="path282" d="M3537.272-487.072c3.588,3.536,8.8,19.462,7.787,20.489s-17.008-3.955-20.6-7.494a9.128,9.128,0,0,1-.089-12.9,9.124,9.124,0,0,1,12.9-.092" transform="translate(-3521.743 489.699)" fill="#1a264c"/>
      </g>
      <g id="g284" transform="translate(753.57 460.32)">
        <path id="path286" d="M3644.8-432.1c-4.894,1.2-21.186-2.716-21.527-4.115s12.29-12.408,17.178-13.608a9.132,9.132,0,0,1,11.042,6.69A9.129,9.129,0,0,1,3644.8-432.1" transform="translate(-3623.271 450.089)" fill="#1a264c"/>
      </g>
      <g id="g288" transform="translate(724.013 480.646)">
        <path id="path290" d="M3502.224-357.52c4.668,1.905,15.549,14.647,15,15.98s-17.232,2.822-21.9.917a9.117,9.117,0,0,1-5-11.894,9.121,9.121,0,0,1,11.893-5" transform="translate(-3489.65 358.198)" fill="#1a264c"/>
      </g>
      <g id="g292" transform="translate(750.791 481.076)">
        <path id="path294" d="M3632.6-338.608c-4.7,1.805-21.355-.047-21.873-1.389s10.643-13.847,15.349-15.649a9.124,9.124,0,0,1,11.785,5.256,9.123,9.123,0,0,1-5.261,11.783" transform="translate(-3610.707 356.253)" fill="#1a264c"/>
      </g>
      <g id="g296" transform="translate(758.735 384.102)">
        <path id="path298" d="M3655.173-792.154c1.111,2.229,1,10.517.359,10.836s-7.326-4.574-8.438-6.807a4.513,4.513,0,0,1,2.024-6.052,4.516,4.516,0,0,1,6.055,2.023" transform="translate(-3646.619 794.653)" fill="#1a264c"/>
      </g>
      <g id="g300" transform="translate(767.298 390.471)">
        <path id="path302" d="M3695.979-756.955c-2.429.584-10.477-1.4-10.645-2.085s6.114-6.108,8.532-6.692a4.519,4.519,0,0,1,5.447,3.335,4.514,4.514,0,0,1-3.334,5.442" transform="translate(-3685.331 765.858)" fill="#1a264c"/>
      </g>
      <g id="g304" transform="translate(750.107 396.305)">
        <path id="path306" d="M3619.508-736.4c1.839,3.029,2.641,14.776,1.78,15.3s-10.907-5.624-12.742-8.653a6.414,6.414,0,0,1,2.159-8.807,6.406,6.406,0,0,1,8.8,2.159" transform="translate(-3607.616 739.486)" fill="#1a264c"/>
      </g>
      <g id="g308" transform="translate(763.601 404.637)">
        <path id="path310" d="M3683.739-689.168c-3.441.826-14.878-1.982-15.114-2.967s8.675-8.677,12.121-9.5a6.412,6.412,0,0,1,7.73,4.739,6.408,6.408,0,0,1-4.737,7.73" transform="translate(-3668.621 701.816)" fill="#1a264c"/>
      </g>
      <path id="path312" d="M464.745-769.963a.861.861,0,0,0,.089,0,.442.442,0,0,0,.385-.492c-7.71-63.331-16.842-108.677-25.715-127.688-.2-.425-.339-.728-.388-.879a.444.444,0,0,0-.557-.286.444.444,0,0,0-.285.557,10.317,10.317,0,0,0,.428.979c8.835,18.932,17.941,64.183,25.639,127.423a.446.446,0,0,0,.4.389" transform="translate(-389.209 1260.279)" fill="#13676b"/>
      <path id="path314" d="M407.506-936.506c1.069,2.147,7.5,6.857,8.115,6.553s.727-8.279-.342-10.426a4.34,4.34,0,0,0-5.823-1.95,4.341,4.341,0,0,0-1.95,5.822" transform="translate(-364.908 1294.12)" fill="#13676b"/>
      <path id="path316" d="M463.109-886.276c-1.1,2.194-.983,10.352-.356,10.665s7.211-4.5,8.306-6.7a4.443,4.443,0,0,0-1.992-5.958,4.444,4.444,0,0,0-5.958,1.994" transform="translate(-407.922 1252.027)" fill="#13676b"/>
      <path id="path318" d="M405.314-852.531c2.385.572,10.308-1.374,10.471-2.056s-6.012-6.011-8.4-6.583a4.439,4.439,0,0,0-5.356,3.282,4.443,4.443,0,0,0,3.283,5.356" transform="translate(-360.903 1230.655)" fill="#13676b"/>
      <path id="path320" d="M518.269-693.152c-2.225,3.462-3.513,17.1-2.523,17.731s12.848-6.211,15.072-9.677a7.456,7.456,0,0,0-2.246-10.3,7.457,7.457,0,0,0-10.3,2.247" transform="translate(-449.297 1102.377)" fill="#13676b"/>
      <path id="path322" d="M419.517-647.537c3.877,1.386,17.45-.427,17.846-1.537s-8.945-11.119-12.823-12.505a7.456,7.456,0,0,0-9.532,4.509,7.458,7.458,0,0,0,4.509,9.532" transform="translate(-370.765 1075.457)" fill="#13676b"/>
      <path id="path324" d="M536.413-614.037c-3.589,3.536-8.8,19.463-7.789,20.486s17.01-3.952,20.6-7.491a9.124,9.124,0,0,0,.093-12.9,9.122,9.122,0,0,0-12.9-.092" transform="translate(-459.491 1040.138)" fill="#13676b"/>
      <path id="path326" d="M411.124-559.062c4.894,1.2,21.187-2.716,21.529-4.114s-12.288-12.408-17.183-13.608a9.123,9.123,0,0,0-11.035,6.689,9.123,9.123,0,0,0,6.689,11.033" transform="translate(-362.665 1009.285)" fill="#13676b"/>
      <path id="path328" d="M550.611-520.188c-3.589,3.539-8.8,19.466-7.789,20.489s17.01-3.955,20.6-7.491a9.124,9.124,0,0,0,.093-12.9,9.125,9.125,0,0,0-12.9-.094" transform="translate(-470.548 967.046)" fill="#13676b"/>
      <path id="path330" d="M425.321-465.209c4.894,1.2,21.187-2.716,21.529-4.114s-12.289-12.408-17.183-13.608a9.124,9.124,0,0,0-11.035,6.686,9.125,9.125,0,0,0,6.688,11.036" transform="translate(-373.722 936.192)" fill="#13676b"/>
      <path id="path332" d="M571.044-390.63c-4.665,1.9-15.549,14.643-15.005,15.977s17.234,2.822,21.9.92a9.128,9.128,0,0,0,5-11.9,9.124,9.124,0,0,0-11.9-5" transform="translate(-480.925 864.631)" fill="#13676b"/>
      <path id="path334" d="M440.117-371.718c4.706,1.8,21.36-.047,21.875-1.392s-10.641-13.847-15.346-15.649A9.126,9.126,0,0,0,434.86-383.5a9.125,9.125,0,0,0,5.256,11.785" transform="translate(-386.095 863.117)" fill="#13676b"/>
      <path id="path336" d="M482.191-825.271c-1.113,2.23-1,10.517-.362,10.836s7.326-4.577,8.439-6.807a4.516,4.516,0,0,0-2.024-6.055,4.513,4.513,0,0,0-6.053,2.026" transform="translate(-422.774 1204.549)" fill="#13676b"/>
      <path id="path338" d="M424.792-790.062c2.424.581,10.473-1.4,10.639-2.088s-6.109-6.108-8.533-6.689a4.514,4.514,0,0,0-5.442,3.336,4.513,4.513,0,0,0,3.335,5.442" transform="translate(-376.03 1182.113)" fill="#13676b"/>
      <path id="path340" d="M501.575-769.506c-1.835,3.029-2.639,14.776-1.775,15.3s10.907-5.627,12.742-8.656a6.412,6.412,0,0,0-2.16-8.807,6.413,6.413,0,0,0-8.807,2.162" transform="translate(-436.871 1161.577)" fill="#13676b"/>
      <path id="path342" d="M416.15-722.28c3.443.826,14.879-1.985,15.115-2.967s-8.678-8.677-12.122-9.5a6.41,6.41,0,0,0-7.731,4.737,6.414,6.414,0,0,0,4.738,7.733" transform="translate(-368.165 1132.242)" fill="#13676b"/>
      <path id="path344" d="M425.519-543.191a.269.269,0,0,0,.05,0,.246.246,0,0,0,.217-.277c-4.333-35.589-9.465-61.072-14.451-71.757-.111-.236-.191-.407-.218-.493a.25.25,0,0,0-.313-.159.249.249,0,0,0-.16.313c.037.112.114.277.241.552,4.965,10.638,10.082,36.067,14.408,71.607a.25.25,0,0,0,.227.218" transform="translate(-367.697 1039.536)" fill="#1a264c"/>
      <path id="path346" d="M393.353-636.788c.6,1.206,4.216,3.852,4.561,3.681s.408-4.651-.193-5.857a2.44,2.44,0,0,0-3.272-1.1,2.442,2.442,0,0,0-1.1,3.274" transform="translate(-354.041 1058.56)" fill="#1a264c"/>
      <path id="path348" d="M424.6-608.556c-.615,1.233-.552,5.819-.2,5.993s4.052-2.531,4.668-3.763a2.494,2.494,0,0,0-1.119-3.348,2.5,2.5,0,0,0-3.348,1.118" transform="translate(-378.214 1034.898)" fill="#1a264c"/>
      <path id="path350" d="M392.121-589.6c1.34.321,5.793-.77,5.885-1.153s-3.378-3.38-4.719-3.7a2.5,2.5,0,0,0-3.01,1.846,2.5,2.5,0,0,0,1.844,3.008" transform="translate(-351.791 1022.896)" fill="#1a264c"/>
      <path id="path352" d="M455.6-500.036c-1.25,1.95-1.974,9.609-1.418,9.966s7.22-3.489,8.47-5.439a4.19,4.19,0,0,0-1.262-5.79,4.191,4.191,0,0,0-5.79,1.262" transform="translate(-401.464 950.808)" fill="#1a264c"/>
      <path id="path354" d="M400.1-474.4c2.179.779,9.806-.242,10.029-.864s-5.027-6.247-7.206-7.028a4.192,4.192,0,0,0-5.357,2.533A4.193,4.193,0,0,0,400.1-474.4" transform="translate(-357.332 935.678)" fill="#1a264c"/>
      <path id="path356" d="M465.794-455.567c-2.017,1.988-4.944,10.939-4.377,11.514s9.559-2.224,11.576-4.211a5.125,5.125,0,0,0,.052-7.25,5.127,5.127,0,0,0-7.251-.053" transform="translate(-407.193 915.824)" fill="#1a264c"/>
      <path id="path358" d="M395.386-424.671c2.75.673,11.906-1.528,12.1-2.312s-6.906-6.975-9.656-7.648a5.125,5.125,0,0,0-6.2,3.757,5.128,5.128,0,0,0,3.759,6.2" transform="translate(-352.781 898.486)" fill="#1a264c"/>
      <path id="path360" d="M473.773-402.834c-2.017,1.988-4.945,10.939-4.377,11.514s9.559-2.221,11.576-4.209a5.129,5.129,0,0,0,.053-7.252,5.127,5.127,0,0,0-7.251-.053" transform="translate(-413.407 874.755)" fill="#1a264c"/>
      <path id="path362" d="M403.364-371.937c2.75.675,11.906-1.528,12.1-2.312s-6.906-6.972-9.656-7.647a5.127,5.127,0,0,0-6.2,3.757,5.128,5.128,0,0,0,3.759,6.2" transform="translate(-358.995 857.417)" fill="#1a264c"/>
      <path id="path364" d="M485.255-330.023c-2.622,1.071-8.738,8.229-8.433,8.978s9.685,1.587,12.307.516a5.125,5.125,0,0,0,2.811-6.683,5.127,5.127,0,0,0-6.685-2.811" transform="translate(-419.238 817.198)" fill="#1a264c"/>
      <path id="path366" d="M411.678-319.393c2.645,1.015,12-.027,12.293-.782s-5.98-7.78-8.624-8.795a5.128,5.128,0,0,0-6.622,2.955,5.126,5.126,0,0,0,2.954,6.621" transform="translate(-365.947 816.346)" fill="#1a264c"/>
      <path id="path368" d="M435.323-574.28c-.625,1.253-.561,5.91-.2,6.09s4.117-2.572,4.743-3.825a2.539,2.539,0,0,0-1.138-3.4,2.537,2.537,0,0,0-3.4,1.139" transform="translate(-386.56 1008.223)" fill="#1a264c"/>
      <path id="path370" d="M403.067-554.49c1.362.327,5.885-.784,5.979-1.174s-3.433-3.43-4.795-3.758a2.535,2.535,0,0,0-3.058,1.873,2.536,2.536,0,0,0,1.874,3.058" transform="translate(-360.291 995.612)" fill="#1a264c"/>
      <path id="path372" d="M446.216-542.938c-1.031,1.7-1.483,8.305-1,8.6s6.129-3.162,7.161-4.864a3.6,3.6,0,0,0-1.214-4.949,3.606,3.606,0,0,0-4.949,1.215" transform="translate(-394.482 984.071)" fill="#1a264c"/>
      <path id="path374" d="M398.21-516.4c1.935.463,8.361-1.115,8.494-1.666s-4.877-4.878-6.812-5.341a3.6,3.6,0,0,0-4.345,2.663,3.6,3.6,0,0,0,2.663,4.344" transform="translate(-355.871 967.587)" fill="#1a264c"/>
      <path id="path376" d="M1161.533-554.012s-2.624,33.634.954,37.212,8.824,6.916,9.3,9.063-15.5-.239-16.935-2.386-1.193-5.724-2.624-15.741-3.578-28.148-3.578-28.148h12.881" transform="translate(-942.468 991.344)" fill="#ffa681"/>
      <path id="path378" d="M1188.872-371.645c-.326-1.46-2.859-3.474-5.572-5.739-.6,4.595-9.616-.115-12.714-1.882.312,2.607.6,4.117,1.35,5.235,1.431,2.147,17.413,4.533,16.935,2.386" transform="translate(-959.55 855.251)" fill="#213361"/>
      <path id="path380" d="M1078.822-554.012s-2.624,33.634.954,37.212,8.824,6.916,9.3,9.063-15.5-.239-16.935-2.386-1.193-5.724-2.624-15.741-3.578-28.148-3.578-28.148h12.881" transform="translate(-878.052 991.344)" fill="#ffa681"/>
      <path id="path382" d="M1106.161-371.645c-.326-1.46-2.859-3.474-5.571-5.739-.6,4.595-9.616-.115-12.714-1.882.311,2.607.6,4.117,1.35,5.235,1.431,2.147,17.413,4.533,16.935,2.386" transform="translate(-895.135 855.251)" fill="#213361"/>
      <path id="path384" d="M1031.335-1341.408a2.056,2.056,0,0,0-1.351.026c-.48.245-.682.811-1.018,1.235-.967,1.219-2.81,1.08-4.364,1s-3.52.333-3.858,1.852a3,3,0,0,1-.251,1.026,1.385,1.385,0,0,1-.522.431,21.443,21.443,0,0,1-4.072,1.168c-1.353.419-2.736,1.436-2.768,2.852-.015.666.277,1.318.212,1.979a3.791,3.791,0,0,1-1.894,2.41l-4.819,3.46a3.75,3.75,0,0,0-1.557,1.716c-.439,1.357.745,2.725.734,4.153-.013,1.752-1.733,2.953-2.5,4.53a4.561,4.561,0,0,0,2.168,5.916,3.827,3.827,0,0,1,1.416.773c.579.658.372,1.661.337,2.536a5.638,5.638,0,0,0,2.465,4.828c3.094,2.055,7.25.584,10.921,1.156,2.237.351,4.274,1.469,6.449,2.094a15.075,15.075,0,0,0,7.832.118,2.154,2.154,0,0,0,.813-.342c.58-.451.6-1.3.868-1.985.781-2.037,3.481-2.389,5.664-2.327s4.829-.026,5.91-1.926c.572-1,.52-2.286,1.149-3.256.762-1.177,2.3-1.581,3.265-2.6,1.334-1.413,1.248-3.64.8-5.533s-1.178-3.808-.84-5.721a29.21,29.21,0,0,1,1.285-3.634,3.707,3.707,0,0,0-.458-3.648c-1.078-1.133-2.942-.917-4.348-1.6-3.3-1.611-2.847-7.288-6.229-8.709a10.125,10.125,0,0,0-2.1-.478c-1.9-.357-3.167-1.333-4.8-2.23a15.938,15.938,0,0,0-4.539-1.265" transform="translate(-828.97 1604.647)" fill="#1a264c"/>
      <path id="path386" d="M972.826-842.211a52.214,52.214,0,0,1,4.02,5.778c.828,1.722,2.908,2.775,2.13,3.563s-3.551-1.625-3.551-1.625-.094,3.884.058,5.085-.12,3.409-.988,3.589-1.2-5.627-1.2-5.627-.2,4.917-.968,5.253-1.427-5.957-1.427-5.957.04,5.256-.317,5.671-.9-.026-1.367-1.882a18.216,18.216,0,0,1-.463-3.875,41.353,41.353,0,0,1-.433,4.129c-.185.43-.755.893-1.155-1.932s-.265-9.069,1.068-12.163l4.591-.006" transform="translate(-800.973 1215.793)" fill="#fb9391"/>
      <path id="path388" d="M1176.108-1240.6s1.312-.906,1.757-.145c1.135,1.941-1.172,2.929-2.417,2.855l.659-2.711" transform="translate(-963.337 1526.412)" fill="#ea6868"/>
      <path id="path390" d="M1108.685-1312.674l-.011,0c.057-.127.114-.253.166-.386a10.843,10.843,0,0,0-6.728-14.345,10.876,10.876,0,0,0-12.98,5.35,10.844,10.844,0,0,0-1.195,5.388,55.066,55.066,0,0,0,.4,8.577,16.969,16.969,0,0,1-2.032,11.2l-.236.41c4.685,5.273,8.42,3.371,8.42,3.371l1.889-4.722a1.416,1.416,0,0,1,1.535-.873c7.035,1.118,9.458-10.677,10.776-13.968" transform="translate(-893.725 1594.075)" fill="#fb9391"/>
      <path id="path392" d="M1136.119-1222.349s-.64-.749-1.134-.729a1.4,1.4,0,0,0-.881.522,1.076,1.076,0,0,0-.711-.764,13.347,13.347,0,0,0-2.251-.077s.9,2.749,2.693,2.723a2.343,2.343,0,0,0,2.241-1.6l.043-.074" transform="translate(-928.831 1512.672)" fill="#ea6868"/>
      <path id="path394" d="M1126.558-1258.408a1.1,1.1,0,0,0-.614-1.43,1.1,1.1,0,0,0-1.432.613,1.1,1.1,0,0,0,.613,1.43,1.1,1.1,0,0,0,1.433-.613" transform="translate(-923.606 1541.103)" fill="#1a264c"/>
      <path id="path396" d="M1165.579-1249.511a1.1,1.1,0,0,0-.613-1.433,1.1,1.1,0,0,0-1.433.614,1.1,1.1,0,0,0,.613,1.433,1.1,1.1,0,0,0,1.433-.613" transform="translate(-953.995 1534.177)" fill="#1a264c"/>
      <path id="path398" d="M1132.642-1223.406a5.537,5.537,0,0,1-3.606-1.935.132.132,0,0,1,.019-.185.133.133,0,0,1,.185.017c.1.127,2.523,3.038,5.245,1.292a.133.133,0,0,1,.182.041.129.129,0,0,1-.04.18,3.483,3.483,0,0,1-1.985.59" transform="translate(-927.168 1514.342)" fill="#1a264c"/>
      <path id="path400" d="M1122.179-1270.867a.387.387,0,0,1-.19-.268.388.388,0,0,1,.314-.451,4.661,4.661,0,0,1,3.045.667.386.386,0,0,1,.123.534.4.4,0,0,1-.536.124,3.913,3.913,0,0,0-2.5-.56.376.376,0,0,1-.261-.044" transform="translate(-921.697 1550.221)" fill="#1a264c"/>
      <path id="path402" d="M1165.6-1260.381a.38.38,0,0,1-.19-.268.389.389,0,0,1,.314-.452,4.61,4.61,0,0,1,3.045.667.386.386,0,0,1,.123.534.391.391,0,0,1-.535.124,3.887,3.887,0,0,0-2.5-.56.373.373,0,0,1-.26-.045" transform="translate(-955.513 1542.057)" fill="#1a264c"/>
      <path id="path404" d="M1144.965-1246.559a1.846,1.846,0,0,1-.521-.434.194.194,0,0,1,.039-.271.193.193,0,0,1,.272.038,1.459,1.459,0,0,0,1.713.4c.213-.08.28-.15.3-.192.038-.088-.034-.268-.126-.5a4.713,4.713,0,0,1-.193-3.206.194.194,0,0,1,.235-.142.2.2,0,0,1,.142.236,4.317,4.317,0,0,0,.176,2.97c.125.316.223.563.12.8a.824.824,0,0,1-.515.4,1.856,1.856,0,0,1-1.642-.091" transform="translate(-939.16 1534.063)" fill="#ea6868"/>
      <path id="path406" d="M1081.777-1316.73c.333-.463.452-1.056.8-1.507.886-1.144,2.683-.847,4-1.439,1.631-.734,2.522-2.837,4.293-3.079.784-.106,1.644.186,2.34-.189a4.126,4.126,0,0,0,1.131-1.274,1.385,1.385,0,0,1,1.464-.649,1.293,1.293,0,0,1,.569.513c.971,1.445.629,3.6,1.881,4.8a10.307,10.307,0,0,0,1.377.943,4.685,4.685,0,0,1,1.971,4,3.084,3.084,0,0,0,1.633-3.315,27.681,27.681,0,0,0-1.1-3.826c-.332-1.283-.371-2.625-.665-3.92a4.979,4.979,0,0,0-2.047-3.282,21.2,21.2,0,0,0-3.119-1.015,20.657,20.657,0,0,1-2.486-1.454,8.807,8.807,0,0,0-8.068-.286,17.408,17.408,0,0,0-2.5,1.587q-2.691,1.929-5.381,3.855a7.194,7.194,0,0,0-2.262,2.191c-.872,1.578-.445,3.527,0,5.273a3.153,3.153,0,0,0,1.3,2.2c1.491.749,3.665,1.534,4.862-.13" transform="translate(-885.188 1597.668)" fill="#1a264c"/>
      <path id="path408" d="M1088.638-1265.868a1.615,1.615,0,0,0-.5-1.023,2.711,2.711,0,0,0-2.866-.849c-1.732.74-.556,5.014,2.555,4.368,0,0,.984-.419.811-2.5" transform="translate(-892.483 1547.322)" fill="#fb9391"/>
      <path id="path410" d="M1069.854-906.013s2.942,18.368,4.134,38.642.954,26.954,0,27.909-5.486-1.67-7.633,0-4.055,3.339-9.78,3.1-12.165-4.294-18.606-2.622-9.3-.478-9.064-2.147,3.339-73.706,3.339-73.706l4.294-11.213h23.138l5.009,1.908,5.169,18.129" transform="translate(-849.198 1281.088)" fill="#1a264c"/>
      <path id="path412" d="M984.449-1196.432s-.311-6.409,5.279-6.352c0,0,2.149,6.532,7.754,4.53,0,0,1.935.212,2.055,1.823s0,4.114,0,4.114,10.555-.9,16.28,8.17,17.055,32.083.716,34.826c0,0-.835,8.824-.12,12.045s2.267,16.817,1.909,18.009-23.019,4.533-27.431,1.672-2.624-17.056-5.367-17.534-2.862,15.982-6.321,16.578-3.7-.717-3.339-5.008,1.193-37.333.477-39.6-3.7,16.221-4.532,24.928-1.073,15.861-1.073,15.861-6.083.953-9.66-.239c0,0-2.624-23.495,1.073-40.672s6.321-27.906,22.3-33.153" transform="translate(-795.678 1496.608)" fill="#fff"/>
      <path id="path414" d="M1212.966-1032.748a.07.07,0,0,1-.069-.068c-.005-.142-.551-14.455,0-19.648a.064.064,0,0,1,.075-.059.066.066,0,0,1,.061.074c-.55,5.182-.005,19.486,0,19.631a.069.069,0,0,1-.066.071h0" transform="translate(-992.311 1379.585)" fill="#213361"/>
      <path id="path416" d="M1183.37-1065.144s1.8-4.123,4.135-5.722a4.873,4.873,0,0,1,4.134-.967l2.532-1.578s1.47,8.025-4.623,11.638c-.508.3-6.178-3.371-6.178-3.371" transform="translate(-969.506 1395.851)" fill="#fb9391"/>
      <path id="path418" d="M1180.56-1113.413l8.63,2.5a.309.309,0,0,1,.212.384l-5.131,17.74a.31.31,0,0,1-.384.209l-8.63-2.5a.309.309,0,0,1-.212-.383l5.132-17.74a.31.31,0,0,1,.384-.212" transform="translate(-963.013 1427.015)" fill="#1a264c"/>
      <path id="path420" d="M1226.549-1078.738a1.109,1.109,0,0,0,.758-.3,1.11,1.11,0,0,0,.054-1.569l-1.867-2a1.112,1.112,0,0,0-1.571-.053,1.113,1.113,0,0,0-.054,1.572l1.867,2a1.116,1.116,0,0,0,.813.354" transform="translate(-1000.813 1403.291)" fill="#fb9391"/>
      <path id="path422" d="M1223.35-1070.395a1.1,1.1,0,0,0,.758-.3,1.113,1.113,0,0,0,.054-1.572l-1.867-2a1.112,1.112,0,0,0-1.571-.053,1.109,1.109,0,0,0-.055,1.569l1.867,2a1.114,1.114,0,0,0,.813.351" transform="translate(-998.322 1396.791)" fill="#fb9391"/>
      <path id="path424" d="M1219.966-1062.708a1.117,1.117,0,0,0,.758-.3,1.113,1.113,0,0,0,.054-1.572l-1.867-2a1.115,1.115,0,0,0-1.571-.053,1.113,1.113,0,0,0-.054,1.572l1.866,2a1.106,1.106,0,0,0,.813.354" transform="translate(-995.687 1390.806)" fill="#fb9391"/>
      <path id="path426" d="M1216.532-1055.107a.738.738,0,0,0,.478-.177.74.74,0,0,0,.087-1.044l-1.7-2.011a.74.74,0,0,0-1.045-.089.742.742,0,0,0-.087,1.045l1.7,2.014a.736.736,0,0,0,.566.262" transform="translate(-993.43 1384.319)" fill="#fb9391"/>
      <path id="path428" d="M1072.6-1029.866a12.866,12.866,0,0,1-5.916-1.469.274.274,0,0,1-.119-.369.276.276,0,0,1,.368-.118,12.619,12.619,0,0,0,13.219-1.082.274.274,0,0,1,.385.041.271.271,0,0,1-.039.383,13.631,13.631,0,0,1-7.9,2.613" transform="translate(-878.517 1364.352)" fill="#213361"/>
      <g id="g430" transform="translate(103.312 322.797)">
        <path id="path432" d="M694.818-924.069l5.305,2.542a16.662,16.662,0,0,0,7.2,1.637h433.171a45.172,45.172,0,0,0,11.016-1.363l41.465-10.417a14.907,14.907,0,0,0,10.933-17.646h0s1.326-31.778-10.152-48.991c0,0,2.5-14.272-4.56-18.687,0,0,.735-12.945-2.21-13.977s-37.074-3.678-45.31-5.736-76.21-32.661-110.934-33.838-106.223-4.415-139.768,8.237-81.654,40.606-81.654,40.606-95.189,10-110.784,35.309c-8.692,14.1-12.768,29.968-14.673,41.246a19.744,19.744,0,0,0,10.957,21.076" transform="translate(-683.585 1071.798)" fill="#fdd246"/>
      </g>
      <g id="g434" transform="translate(246.259 333.426)">
        <path id="path436" d="M1329.819-974.129s54.288-41.049,95.78-45.9,125.348-9.709,173.9,18.54c0,0-17.656,14.343-21.848,15.006s-197.222,13.387-210.169,13.682-37.663-1.324-37.663-1.324" transform="translate(-1329.819 1023.751)" fill="#1a264c"/>
      </g>
      <path id="path438" d="M1333.657-1028.891l6.179,2.943s-77.975,42.078-82.683,41.783-5.149-4.12-5.149-4.12,56.053-32.074,81.653-40.606" transform="translate(-1022.958 1361.179)" fill="#fff"/>
      <path id="path440" d="M733.874-697.1s4.708-12.944,14.418-17.065,27.659-5,27.659-2.648-14.124,11.181-14.124,14.124a11.48,11.48,0,0,0,1.765,5.589H733.874" transform="translate(-619.439 1119.132)" fill="#fff"/>
      <path id="path442" d="M734.455-504.777s1.545,7.064,3.9,7.064,7.5-15.083,6.915-16.92-13.168-.664-13.462-.295,2.648,10.152,2.648,10.152" transform="translate(-617.812 961.459)" fill="#1a264c"/>
      <path id="path444" d="M1557.895-1004.944l-6.548,39.43s-95.853,6.474-99.162,5.589-3.752-11.255,0-14.564,39.282-20.3,59.585-24.5,46.124-5.958,46.124-5.958" transform="translate(-1176.795 1342.53)" fill="#fff"/>
      <path id="path446" d="M1406.983-865.878s11.128-6.3,13.508-6.02,6.5,8.816,3.7,13.67l-14.567,1.177s-2.5-2.648-2.646-8.827" transform="translate(-1143.656 1238.92)" fill="#fdd246"/>
      <g id="g448" transform="translate(393.457 337.586)">
        <path id="path450" d="M1995.276-967.2l2.425-37.736s53.7.882,73.122,5.3l16.479,26.482-90.629,5.958h-1.4" transform="translate(-1995.276 1004.941)" fill="#fff"/>
      </g>
      <g id="g452" transform="translate(483.21 347.441)">
        <path id="path454" d="M2401.377-957.729,2412-943.771a1.654,1.654,0,0,0,2.33.3l8.959-6.981a1.652,1.652,0,0,0-.459-2.861l-19.588-6.981a1.653,1.653,0,0,0-1.867,2.56" transform="translate(-2401.03 960.391)" fill="#fff"/>
      </g>
      <g id="g456" transform="translate(248.328 368.919)">
        <path id="path458" d="M1538-767.826H1354.9a12.6,12.6,0,0,1-12.434-10.44c-1.59-9.09-3.448-22.622-3.277-35.445.292-21.568,5.261-36.569,5.312-36.716l.519.174c-.05.147-4.993,15.074-5.282,36.548-.174,12.782,1.681,26.278,3.268,35.345a12.049,12.049,0,0,0,11.894,9.99H1538a12.073,12.073,0,0,0,10-5.306l42.466-62.714a11.7,11.7,0,0,0,.111-12.974l-8.884-13.626.456-.3,8.887,13.626a12.247,12.247,0,0,1-.118,13.582l-42.468,62.711A12.607,12.607,0,0,1,1538-767.826" transform="translate(-1339.176 863.293)" fill="#1a264c"/>
      </g>
      <path id="path460" d="M1940.792-748.717c-7.866-30.738-.086-89.188-.006-89.775l.543.074c-.08.587-7.845,58.93-.006,89.565l-.531.136" transform="translate(-1556.649 1212.896)" fill="#1a264c"/>
      <path id="path462" d="M1821.722-734.049c0-3.6-3.36-6.509-7.5-6.509s-7.5,2.914-7.5,6.509,3.359,6.512,7.5,6.512,7.5-2.917,7.5-6.512" transform="translate(-1454.968 1136.626)" fill="#f6a50f"/>
      <path id="path464" d="M1804.085-722.6h-25.241a1.061,1.061,0,0,0-1.061,1.062v2.289a1.061,1.061,0,0,0,1.061,1.062h25.241a1.061,1.061,0,0,0,1.062-1.062v-2.289a1.061,1.061,0,0,0-1.062-1.062" transform="translate(-1432.435 1122.639)" fill="#fdd246"/>
      <g id="g466" transform="translate(465.843 391.34)">
        <path id="path468" d="M2337.523-755.42c0-3.6-3.36-6.512-7.5-6.512s-7.5,2.914-7.5,6.512,3.36,6.509,7.5,6.509,7.5-2.914,7.5-6.509" transform="translate(-2322.517 761.933)" fill="#f6a50f"/>
      </g>
      <g id="g470" transform="translate(459.442 395.312)">
        <path id="path472" d="M2319.883-743.973h-25.243a1.061,1.061,0,0,0-1.062,1.061v2.292a1.063,1.063,0,0,0,1.062,1.062h25.243a1.066,1.066,0,0,0,1.063-1.062v-2.292a1.064,1.064,0,0,0-1.063-1.061" transform="translate(-2293.579 743.973)" fill="#f6a50f"/>
      </g>
      <g id="g474" transform="translate(568.872 377.602)">
        <path id="path476" d="M2828.339-824.039h-29.423c-5.96,0-14.344,1.032-8.824,4.562s23.169,9.931,22.729,12.137-1.324,5.427-1.324,5.427,18.537.534,21.405-3.439c0,0,2.685-13.646-4.563-18.687" transform="translate(-2788.291 824.039)" fill="#fff"/>
      </g>
      <g id="g478" transform="translate(473.269 411.296)">
        <path id="path480" d="M2441.715-628.9a42.815,42.815,0,0,0-42.814-42.812,42.813,42.813,0,0,0-42.814,42.812,42.813,42.813,0,0,0,42.814,42.813,42.815,42.815,0,0,0,42.814-42.812" transform="translate(-2356.086 671.716)" fill="#1a264c"/>
      </g>
      <g id="g482" transform="translate(483.655 421.742)">
        <path id="path484" d="M2435.468-621.426a29.393,29.393,0,0,0-29.363,29.363,29.393,29.393,0,0,0,29.363,29.364,29.4,29.4,0,0,0,29.363-29.364A29.4,29.4,0,0,0,2435.468-621.426Zm0,61.791a32.464,32.464,0,0,1-32.429-32.428,32.464,32.464,0,0,1,32.429-32.428,32.465,32.465,0,0,1,32.429,32.428,32.465,32.465,0,0,1-32.429,32.428" transform="translate(-2403.039 624.49)" fill="#62c1c5"/>
      </g>
      <g id="g486" transform="translate(505.937 444.021)">
        <path id="path488" d="M2524.071-513.624a10.148,10.148,0,0,0-10.151-10.148,10.147,10.147,0,0,0-10.147,10.148,10.15,10.15,0,0,0,10.147,10.152,10.151,10.151,0,0,0,10.151-10.152" transform="translate(-2503.773 523.772)" fill="#62c1c5"/>
      </g>
      <g id="g490" transform="translate(510.936 424.372)">
        <path id="path492" d="M2533.142-590.534l3.53-22.067h-10.3l3.662,22.067h3.108" transform="translate(-2526.372 612.601)" fill="#62c1c5"/>
      </g>
      <g id="g494" transform="translate(521.233 428.773)">
        <path id="path496" d="M2575.273-571.6l17.127-14.357-7.778-6.748-11.7,19.067,2.35,2.038" transform="translate(-2572.922 592.705)" fill="#62c1c5"/>
      </g>
      <g id="g498" transform="translate(524.747 449.035)">
        <path id="path500" d="M2589.025-492.792l22.265,1.961-.73-10.272-21.753,5.208.219,3.1" transform="translate(-2588.806 501.104)" fill="#62c1c5"/>
      </g>
      <g id="g502" transform="translate(491.457 428.773)">
        <path id="path504" d="M2455.44-571.6l-17.128-14.357,7.779-6.748,11.7,19.067-2.349,2.038" transform="translate(-2438.312 592.705)" fill="#62c1c5"/>
      </g>
      <g id="g506" transform="translate(510.936 462.743)">
        <path id="path508" d="M2533.142-439.134l3.53,22.07h-10.3l3.662-22.07h3.108" transform="translate(-2526.372 439.134)" fill="#62c1c5"/>
      </g>
      <g id="g510" transform="translate(521.233 459.245)">
        <path id="path512" d="M2575.273-454.946l17.127,14.355-7.778,6.81-11.7-19.065,2.35-2.1" transform="translate(-2572.922 454.946)" fill="#62c1c5"/>
      </g>
      <g id="g514" transform="translate(491.457 459.307)">
        <path id="path516" d="M2455.44-454.665l-17.128,14.354,7.779,6.748,11.7-19.064-2.349-2.038" transform="translate(-2438.312 454.665)" fill="#62c1c5"/>
      </g>
      <g id="g518" transform="translate(484.938 449.035)">
        <path id="path520" d="M2431.1-492.792l-22.26,1.961.729-10.272,21.753,5.208-.222,3.1" transform="translate(-2408.841 501.103)" fill="#62c1c5"/>
      </g>
      <path id="path522" d="M1009.726-628.906a42.813,42.813,0,0,0-42.813-42.812A42.813,42.813,0,0,0,924.1-628.906a42.813,42.813,0,0,0,42.813,42.812,42.813,42.813,0,0,0,42.813-42.812" transform="translate(-767.586 1083.013)" fill="#1a264c"/>
      <path id="path524" d="M1003.474-621.427a29.4,29.4,0,0,0-29.364,29.364,29.4,29.4,0,0,0,29.364,29.364,29.4,29.4,0,0,0,29.364-29.364A29.4,29.4,0,0,0,1003.474-621.427Zm0,61.791a32.464,32.464,0,0,1-32.429-32.428,32.465,32.465,0,0,1,32.429-32.428,32.465,32.465,0,0,1,32.429,32.428,32.465,32.465,0,0,1-32.429,32.428" transform="translate(-804.148 1046.233)" fill="#62c1c5"/>
      <path id="path526" d="M1092.063-513.624a10.148,10.148,0,0,0-10.15-10.148,10.148,10.148,0,0,0-10.15,10.148,10.151,10.151,0,0,0,10.15,10.152,10.151,10.151,0,0,0,10.15-10.152" transform="translate(-882.586 967.793)" fill="#62c1c5"/>
      <path id="path528" d="M1101.139-590.532l3.531-22.067h-10.3l3.658,22.067h3.11" transform="translate(-900.193 1036.971)" fill="#62c1c5"/>
      <path id="path530" d="M1143.277-571.6l17.129-14.357-7.779-6.748-11.7,19.068,2.349,2.038" transform="translate(-936.452 1021.478)" fill="#62c1c5"/>
      <path id="path532" d="M1157.034-492.794l22.263,1.961-.729-10.272-21.755,5.208.22,3.1" transform="translate(-948.825 950.14)" fill="#62c1c5"/>
      <path id="path534" d="M1023.443-571.6l-17.129-14.357,7.779-6.748,11.7,19.068-2.349,2.038" transform="translate(-831.615 1021.478)" fill="#62c1c5"/>
      <path id="path536" d="M1101.139-439.132l3.531,22.07h-10.3l3.658-22.07h3.11" transform="translate(-900.193 901.875)" fill="#62c1c5"/>
      <path id="path538" d="M1143.277-454.946l17.129,14.355-7.779,6.81-11.7-19.064,2.349-2.1" transform="translate(-936.452 914.191)" fill="#62c1c5"/>
      <path id="path540" d="M1023.443-454.665l-17.129,14.354,7.779,6.748,11.7-19.064-2.349-2.038" transform="translate(-831.615 913.973)" fill="#62c1c5"/>
      <path id="path542" d="M999.106-492.794l-22.263,1.961.728-10.272,21.755,5.208-.22,3.1" transform="translate(-808.663 950.14)" fill="#62c1c5"/>
      <g id="g544" transform="translate(302.325 53.054)">
        <path id="path546" d="M1726.022-2219.884a71.367,71.367,0,0,0-71.366-71.369,71.37,71.37,0,0,0-71.372,71.369c0,39.418,65.542,123.38,71.372,123.38,4.857,0,71.366-83.962,71.366-123.38" transform="translate(-1583.284 2291.253)" fill="#13676b"/>
      </g>
      <g id="g548" transform="translate(324.871 78.442)">
        <path id="path550" d="M1782.861-2127.653a48.825,48.825,0,0,0-48.826-48.825,48.827,48.827,0,0,0-48.826,48.825,48.827,48.827,0,0,0,48.826,48.823,48.825,48.825,0,0,0,48.826-48.823" transform="translate(-1685.209 2176.479)" fill="#fff"/>
      </g>
      <path id="path552" d="M1949.587-868.3a58.172,58.172,0,0,0-7.609,1.952c-1.955.85-4.48.224-4.4,1.457s4.185,1.215,4.185,1.215-2.752,3.354-3.754,4.256-2.386,2.97-1.784,3.755,5.117-3.884,5.117-3.884-3.415,4.306-3.014,5.15,5.551-4,5.551-4-3.864,4.412-3.867,5.023.782.637,2.53-.593a20.388,20.388,0,0,0,3.215-2.937,46.3,46.3,0,0,0-2.642,3.8c-.162.5-.015,1.307,2.38-.787s6.84-7.474,7.969-11.063l-3.878-3.351" transform="translate(-1555.716 1236.115)" fill="#fb9391"/>
      <path id="path554" d="M2120.765-361.159s-.348,12.426-.451,12.6.832,1.773.832,1.773l3.89.867,3.643-1.492s.174-11.558.625-13.363-8.539-.38-8.539-.38" transform="translate(-1699.192 841.565)" fill="#fb9391"/>
      <path id="path556" d="M2075.962-302.037a10.186,10.186,0,0,1-8.329-1.389s-15.271,5-14.994,9.3c0,0-.7,1.25,5.831,1.25s16.661.139,16.938,0,1.525.6.554-9.164" transform="translate(-1646.476 796.187)" fill="#fdd246"/>
      <g id="g558" transform="translate(489.393 463.762)">
        <path id="path560" d="M2428.981-429s7.826,9.659,7.86,9.86,1.782.8,1.782.8l3.516-1.873,1.8-3.507s-7.392-8.886-8.226-10.55-6.728,5.267-6.728,5.267" transform="translate(-2428.981 434.526)" fill="#fb9391"/>
      </g>
      <g id="g562" transform="translate(491.135 474.57)">
        <path id="path564" d="M2450.066-385.665a10.2,10.2,0,0,1-7.23,4.371s-8.335,13.735-5.326,16.82c0,0,.288,1.4,5.24-2.846s12.741-10.739,12.858-11.025,1.552-.537-5.542-7.32" transform="translate(-2436.855 385.665)" fill="#fdd246"/>
      </g>
      <g id="g566" transform="translate(413.055 382.248)">
        <path id="path568" d="M2094.75-797.76s-10.273,37.486-10.828,44.706,3.887,49.982,3.887,49.982a42.238,42.238,0,0,0,6.941,1.944,33.214,33.214,0,0,0,7.829,0s2.724-42.208,3.279-46.372,7.774-27.768,10.829-28.88,8.886,27.768,16.244,38.6,26.243,27.213,26.243,27.213,11.383-8.054,11.383-10.275-11.04-8.639-18.152-28.476-5.45-47.05-5.45-47.05l-38.318-6.666-13.886,5.276" transform="translate(-2083.874 803.036)" fill="#dde7fe"/>
      </g>
      <g id="g570" transform="translate(458.92 391.945)">
        <path id="path572" d="M2306.8-743.26c-3.575,0-11.3-1.72-15.569-15.581a.276.276,0,0,1,.184-.342.272.272,0,0,1,.341.183c5.471,17.814,16.692,15.056,16.808,15.024a.275.275,0,0,1,.331.195.272.272,0,0,1-.19.336,8.641,8.641,0,0,1-1.905.186" transform="translate(-2291.22 759.196)" fill="#1a264c"/>
      </g>
      <path id="path574" d="M2113.229-757.378a.271.271,0,0,1-.265-.206.269.269,0,0,1,.2-.33c.092-.024,9.125-2.415,9.8-13.458a.27.27,0,0,1,.29-.257.273.273,0,0,1,.256.289c-.7,11.452-10.116,13.93-10.21,13.956a.511.511,0,0,1-.065.006" transform="translate(-1693.467 1160.825)" fill="#1a264c"/>
      <g id="g576" transform="translate(390.055 305.536)">
        <path id="path578" d="M2037.671-1149.834s-7.169,3.2-10.085,2.991-11.035,2.708-21.657,21.866-26.034,35.194-26.034,35.194l7.081,9.163s19.784-7.078,28.949-18.949c0,0-3.125,28.063-6.246,36.418a161.532,161.532,0,0,0,16.659,5.439c8.745,2.292,31.028,0,31.028,0l2.709-5.439,3.436,5.232,7.914-1.769v-26.762s21.762-9.58,10.933-31.655-27.613-31.729-44.688-31.729" transform="translate(-1979.895 1149.834)" fill="#13676b"/>
      </g>
      <g id="g580" transform="translate(426.228 331.535)">
        <path id="path582" d="M2144.047-1030.586l8.708-1.7a.766.766,0,0,1,.9.608l3.831,19.645a.767.767,0,0,1-.6.9l-8.711,1.7a.771.771,0,0,1-.9-.607l-3.832-19.645a.767.767,0,0,1,.609-.9" transform="translate(-2143.423 1032.299)" fill="#1a264c"/>
      </g>
      <g id="g584" transform="translate(429.058 337.041)">
        <path id="path586" d="M2174.156-998.689a58.418,58.418,0,0,0-5.559-5.553c-1.728-1.248-2.475-3.74-3.495-3.041s1.087,4.22,1.087,4.22-4.287-.657-5.575-1.061-3.771-.54-4.141.38,5.951,2.422,5.951,2.422-5.444-.743-5.963.033,6.267,2.737,6.267,2.737-5.769-1.076-6.294-.764-.152.994,1.8,1.87a20.247,20.247,0,0,0,4.169,1.271s-4.111-.451-4.621-.336-1.132.655,1.891,1.649,9.913,2.076,13.578,1.218l.907-5.043" transform="translate(-2156.218 1007.405)" fill="#fb9391"/>
      </g>
      <g id="g588" transform="translate(445.734 342.139)">
        <path id="path590" d="M2262.723-957.01a32.276,32.276,0,0,1-7.057-.8c-6.317-1.421-15.613-5.506-24.029-16.885a.137.137,0,0,1-.026-.106l1.251-6.3a.142.142,0,0,1,.1-.106c.176-.047,17.7-4.817,33.377-2.546a.131.131,0,0,1,.113.154.13.13,0,0,1-.153.118c-15.07-2.179-31.866,2.168-33.182,2.516l-1.224,6.155c8.353,11.267,17.562,15.313,23.82,16.726a28.238,28.238,0,0,0,11.72.366.138.138,0,0,1,.166.1.14.14,0,0,1-.1.165,22.378,22.378,0,0,1-4.773.436" transform="translate(-2231.609 984.358)" fill="#213361"/>
      </g>
      <g id="g592" transform="translate(461.979 325.466)">
        <path id="path594" d="M2312.472-1042.794a.137.137,0,0,1-.13-.091,116.47,116.47,0,0,0-7.279-16.646.137.137,0,0,1,.054-.186.133.133,0,0,1,.184.054,116.644,116.644,0,0,1,7.3,16.69.141.141,0,0,1-.086.174.277.277,0,0,1-.044.006" transform="translate(-2305.046 1059.736)" fill="#213361"/>
      </g>
      <path id="path596" d="M2143.995-1219.17s-1.129-1.239-1.766-.563c-1.616,1.723.516,3.277,1.808,3.5l-.041-2.932" transform="translate(-1715.812 1509.964)" fill="#ea6868"/>
      <g id="g598" transform="translate(426.766 272.164)">
        <path id="path600" d="M2146.067-1287.1h.006c-.024-.141-.055-.286-.076-.433a11.4,11.4,0,0,1,10.258-13.121,11.435,11.435,0,0,1,12.049,8.53,11.389,11.389,0,0,1-.042,5.8c-.629,2.8-1.194,5.2-1.871,7.223a16.279,16.279,0,0,0,.046,10.332l.883,2.637c-6.341,4.769-10.035,1.837-10.035,1.837l-.907-4.949a1.264,1.264,0,0,0-1.364-1.026H2155c-8.673.788-8.328-12.96-8.933-16.826" transform="translate(-2145.857 1300.703)" fill="#fb9391"/>
      </g>
      <path id="path602" d="M2159.839-1225.789a.829.829,0,0,1,.69-.95.829.829,0,0,1,.946.693.829.829,0,0,1-.69.947.829.829,0,0,1-.946-.69" transform="translate(-1729.973 1515.271)" fill="#213361"/>
      <g id="g604" transform="translate(440.007 289.029)">
        <path id="path606" d="M2205.728-1223.5a.827.827,0,0,1,.688-.947.831.831,0,0,1,.949.69.828.828,0,0,1-.691.947.824.824,0,0,1-.946-.69" transform="translate(-2205.717 1224.458)" fill="#213361"/>
      </g>
      <g id="g608" transform="translate(438.472 285.491)">
        <path id="path610" d="M2203.31-1238.313a.612.612,0,0,0,.3-.136.62.62,0,0,0,.081-.876,3.329,3.329,0,0,0-4.652-.349.624.624,0,0,0-.148.867.628.628,0,0,0,.869.144,2.1,2.1,0,0,1,2.976.133.623.623,0,0,0,.573.216" transform="translate(-2198.779 1240.451)" fill="#213361"/>
      </g>
      <g id="g612" transform="translate(428.386 285.394)">
        <path id="path614" d="M2157.712-1238.753a.617.617,0,0,0,.3-.136.621.621,0,0,0,.076-.876,3.332,3.332,0,0,0-4.651-.348.619.619,0,0,0-.145.867.622.622,0,0,0,.869.144,2.1,2.1,0,0,1,2.977.133.607.607,0,0,0,.57.215" transform="translate(-2153.179 1240.89)" fill="#213361"/>
      </g>
      <g id="g616" transform="translate(432.479 296.329)">
        <path id="path618" d="M2173.329-1190.063c2.228.687,4.485-1.041,4.511-1.062a.183.183,0,0,0,.033-.26.187.187,0,0,0-.26-.032c-.132.1-3.26,2.5-5.615.1a.185.185,0,0,0-.259,0,.188.188,0,0,0,0,.263,3.805,3.805,0,0,0,1.594,1" transform="translate(-2171.682 1191.456)" fill="#213361"/>
      </g>
      <g id="g620" transform="translate(419.187 270.585)">
        <path id="path622" d="M2141.754-1304.5a7.56,7.56,0,0,0-1.208-1.681,6.808,6.808,0,0,0-4.7-1.643c-1.7-.035-3.4.251-5.1.2-1.723-.05-3.482-.443-5.149-.009a2.534,2.534,0,0,0-1.02.484,6.536,6.536,0,0,0-.726.9c-1.015,1.253-2.761,1.575-4.354,1.811l-2.764.407a3.9,3.9,0,0,0-2.2.811,4.294,4.294,0,0,0-.922,2.457,3.015,3.015,0,0,1-1.223,2.265c-.27.144-.607.239-.736.516a.864.864,0,0,0-.048.433,2.571,2.571,0,0,0,2.632,2.212,4.821,4.821,0,0,1,.94-.062c1.131.153,1.472,1.678,2.434,2.289a2.475,2.475,0,0,0,2.032.15,15.073,15.073,0,0,0,1.918-.864,9.468,9.468,0,0,1,2.394-.737,3.621,3.621,0,0,1,1.759.05c.294.1.566.262.861.363a3.617,3.617,0,0,0,3.07-.637c.908-.59,1.692-1.369,2.642-1.891a3.126,3.126,0,0,1,3.1-.168,12.143,12.143,0,0,1,1.349,1.283c1.241,1.073,3.064,1.032,4.7.929a1.67,1.67,0,0,0,.965-.262,1.437,1.437,0,0,0,.4-.593c1.21-2.807.411-6.468-1.039-9.007" transform="translate(-2111.594 1307.84)" fill="#1a264c"/>
      </g>
      <g id="g624" transform="translate(443.82 280.787)">
        <path id="path626" d="M2229.654-1259.917l-1.817,7.919-2.113-.089-2.771-9.635,6.7,1.8" transform="translate(-2222.954 1261.721)" fill="#1a264c"/>
      </g>
      <g id="g628" transform="translate(445.99 288.699)">
        <path id="path630" d="M2233.005-1224.419a1.714,1.714,0,0,1,.754-.932,2.85,2.85,0,0,1,3.135-.2c1.6,1.165-.606,5.27-3.644,3.878,0,0-.907-.663-.245-2.749" transform="translate(-2232.764 1225.951)" fill="#fb9391"/>
      </g>
      <g id="g632" transform="translate(433.607 289.271)">
        <path id="path634" d="M2177.887-1218.139a2.126,2.126,0,0,0,1.906-.356.184.184,0,0,0,.017-.26.184.184,0,0,0-.258-.02,1.73,1.73,0,0,1-2.083.03c-.188-.124-.292-.23-.31-.319-.027-.124.1-.31.273-.563a5.434,5.434,0,0,0,1-3.557.186.186,0,0,0-.191-.18.182.182,0,0,0-.178.189,5.036,5.036,0,0,1-.942,3.342c-.212.315-.384.569-.327.843a.922.922,0,0,0,.467.551,2.359,2.359,0,0,0,.625.3" transform="translate(-2176.785 1223.366)" fill="#ea6868"/>
      </g>
      <g id="g636" transform="translate(451.876 30.56)">
        <path id="path638" d="M2267.1-2360.833c-3.667-.926-8.037-3.194-7.712-6.967.287-3.375,4.314-5.112,7.7-5.042s6.812,1.188,10.1.391c4.3-1.036,7.144-4.986,9.785-8.534,2.8-3.762,5.9-7.457,9.977-9.785s9.327-3.069,13.443-.812c3.147,1.727,5.329,4.99,8.66,6.329,4.5,1.815,9.486-.39,14.2-1.552s11.042-.373,12.47,4.267c1.2,3.884-1.752,8.833.992,11.824,14.052,15.339-13.5,10.061-23.531,10.748-18.654,1.283-37.675,3.777-56.09-.867" transform="translate(-2259.374 2392.944)" fill="#fff"/>
      </g>
      <path id="path640" d="M458.734-2029.336c3.67-.923,8.038-3.194,7.715-6.966-.289-3.374-4.318-5.111-7.7-5.043s-6.81,1.188-10.1.395c-4.3-1.041-7.143-4.99-9.786-8.535-2.8-3.763-5.9-7.459-9.973-9.787s-9.33-3.067-13.443-.81c-3.148,1.725-5.329,4.987-8.66,6.329-4.505,1.814-9.489-.389-14.2-1.554s-11.04-.375-12.469,4.267c-1.195,3.885,1.752,8.834-.991,11.828-14.053,15.336,13.5,10.057,23.529,10.747,18.654,1.28,37.676,3.775,56.089-.87" transform="translate(-340.106 2165.332)" fill="#fff"/>
      <g id="g642" transform="translate(172.444 61.04)">
        <path id="path644" d="M1003.853-2223.041c-3.67-.925-8.038-3.194-7.715-6.965.289-3.373,4.318-5.111,7.7-5.043s6.81,1.189,10.1.392c4.3-1.039,7.143-4.988,9.786-8.535,2.8-3.762,5.9-7.456,9.974-9.783s9.329-3.069,13.443-.812c3.148,1.726,5.329,4.988,8.66,6.331,4.505,1.812,9.49-.392,14.205-1.554s11.042-.374,12.471,4.268c1.192,3.884-1.753,8.829.99,11.825,14.054,15.335-13.5,10.059-23.529,10.746-18.655,1.281-37.676,3.777-56.089-.868" transform="translate(-996.121 2255.149)" fill="#fff"/>
      </g>
      <g id="g646" transform="translate(642.748 91.233)">
        <path id="path648" d="M3164.175-2116.275c2.249,3.719.437,9-3.259,11.288s-8.619,1.9-12.447-.158c-2.033-1.091-3.89-2.628-6.144-3.1-5.541-1.167-12.348,5.582-17.509,1.668-4.481-3.395-2.357-6.478,1.06-9.106,10.206-7.844,27,2.7,38.3-.59" transform="translate(-3122.268 2118.656)" fill="#fff"/>
      </g>
      <g id="g650" transform="translate(460.141 118.295)">
        <path id="path652" d="M2338.647-1993.935c2.246,3.72.434,9-3.259,11.291s-8.618,1.9-12.446-.159c-2.033-1.087-3.893-2.626-6.149-3.1-5.539-1.166-12.342,5.583-17.508,1.67-4.479-3.395-2.358-6.477,1.064-9.106,10.2-7.842,27,2.7,38.3-.593" transform="translate(-2296.74 1996.313)" fill="#fff"/>
      </g>
      <g id="g654" transform="translate(277.362 41.216)">
        <path id="path656" d="M1512.34-2342.4c2.248,3.719.433,9-3.263,11.293s-8.615,1.9-12.446-.16c-2.03-1.089-3.889-2.628-6.144-3.1-5.541-1.166-12.343,5.583-17.508,1.671-4.48-3.4-2.361-6.479,1.06-9.106,10.207-7.843,27,2.7,38.3-.594" transform="translate(-1470.43 2344.773)" fill="#fff"/>
      </g>
    </g>
  </g>
</svg>
