<svg xmlns="http://www.w3.org/2000/svg" width="428.337" height="389.578" viewBox="0 0 428.337 389.578">
  <g id="g10" transform="translate(0 597.611)">
    <g id="g12" transform="translate(0 -597.611)">
      <path id="path14" d="M239.7-209.3c-35.294,0-70.564-4.187-104.593-13.442-24.5-6.661-48.982-16.357-67.231-34.006a97.566,97.566,0,0,1-22.464-33.735,88.339,88.339,0,0,0,26.145,23.059,95.836,95.836,0,0,0,22.463,9.282A80.569,80.569,0,0,0,130-227.476a85.73,85.73,0,0,0,11.862,4.049,47.737,47.737,0,0,0,9.96,3,46.814,46.814,0,0,0,13.309,1.92,46.638,46.638,0,0,0,19.011-4.024,91.976,91.976,0,0,0,20.736-7.039,85.848,85.848,0,0,0,32.409-26.74c.131-.182.261-.363.39-.548l99.686,31.118A22.228,22.228,0,0,0,344-224.725a22.373,22.373,0,0,0,21.331-15.68l7.707-24.688a97.189,97.189,0,0,0,18.779-8.5c22.459-13.267,40.563-37.836,37.669-65.72-1.409-13.579-2.1-26.293-4.884-40.016-1.848-9.125-.791-17.215,1.409-25.015a128.68,128.68,0,0,1,15.256,47.38,120.755,120.755,0,0,1,.554,20.589c-1.474,25.388-10.843,50.338-27.2,69.794-30.658,36.471-80.663,50.1-128.069,54.881A467.1,467.1,0,0,1,239.7-209.3m20.746-334.422a24.883,24.883,0,0,0-16.308-8.576,26.3,26.3,0,0,0-7.56-1.5l-6.714-.334a118.519,118.519,0,0,1,38.483-6.4,109.482,109.482,0,0,1,35.723,5.815q.51.176,1.017.359c-18.378,4.33-31.7,8.043-44.64,10.639" transform="translate(-13.693 586.433)" fill="#ecf8f9"/>
      <path id="path16" d="M258.671-570.025a12.38,12.38,0,0,1-12.38-12.379,12.38,12.38,0,0,1,12.38-12.38,12.379,12.379,0,0,1,12.38,12.38,12.379,12.379,0,0,1-12.38,12.379" transform="translate(-74.259 596.758)" fill="#f2fafb"/>
      <path id="path18" d="M500.755-584.238a6.388,6.388,0,0,1-6.388-6.388,6.387,6.387,0,0,1,6.388-6.387,6.386,6.386,0,0,1,6.387,6.387,6.387,6.387,0,0,1-6.387,6.388" transform="translate(-149.056 597.43)" fill="#f2fafb"/>
      <path id="path20" d="M21.238-526.954c-7.012,0-13.942-6.376-17.5-13.3a22.026,22.026,0,0,1,9.536-29.655,37.262,37.262,0,0,1,16.366-3.519c8.791,0,17.5,2.751,20.808,9.195,5.556,10.822-11.1,20.11-17.892,30.2-3.408,5.065-7.377,7.08-11.319,7.08" transform="translate(-0.393 590.321)" fill="#e9f6f8"/>
      <path id="path22" d="M53.788-58.564a19.363,19.363,0,0,1-16.3-8.871c-5.8-8.991-7.255-27.233,1.738-33.039a8.317,8.317,0,0,1,4.6-1.4c7.621,0,15.561,10.228,23.4,14.441,13.147,7.069,6.05,19.966-2.942,25.771a19.286,19.286,0,0,1-10.493,3.1" transform="translate(-9.892 448.142)" fill="#e9f6f8"/>
      <path id="path24" d="M37.459-277.734A88.586,88.586,0,0,1,23.3-305.17a88.709,88.709,0,0,1-1.877-47.66c3.828-16.9,10.292-33.937,8.284-51.547-1.4-12.27-7.011-24.115-5.983-36.422.684-8.177,4.284-15.85,8.687-22.775,16.076-25.284,43-42.212,71.469-51.54q4.963-1.626,9.964-3.13l-.022.445a1.4,1.4,0,0,0,1.326,1.465l21.32,1.063-.256,5.131L85.57-493.487a71.078,71.078,0,0,0-48.942,71.5q.019.317.04.633a107.316,107.316,0,0,0,11.662,41.976,115.3,115.3,0,0,0-16.873,41.687,108.1,108.1,0,0,0,6,59.959" transform="translate(-5.737 573.681)" fill="#e9f6f8"/>
      <path id="path26" d="M90.653-185.453a95.835,95.835,0,0,1-22.463-9.282,88.339,88.339,0,0,1-26.145-23.059,108.1,108.1,0,0,1-6-59.959,115.3,115.3,0,0,1,16.873-41.687,103.728,103.728,0,0,0,6.027,10.218c9.289,13.863,22.11,29.367,25.318,46.382,2.557,13.557-2.966,27.262-3.638,41.059-.639,13.121,3.28,25.575,10.031,36.327" transform="translate(-10.322 513.74)" fill="#dbeff3"/>
      <path id="path28" d="M538.1-403.966q-2.91-5.289-6.286-10.312l14.19-45.455a22.357,22.357,0,0,0-14.663-27.972L480.77-503.494a101.365,101.365,0,0,0-14.177-11.033c-.673-1.124-1.392-2.236-2.167-3.337a99.5,99.5,0,0,0-47.248-36.129c5.354-1.261,11.139-2.575,17.465-3.928a63.556,63.556,0,0,1,13.313-1.383c34.3,0,69.882,26.137,89.583,55.873a80.212,80.212,0,0,1,5.982,10.75,87.748,87.748,0,0,1,6.091,53.852c-2.577,12.567-8.277,23.4-11.508,34.863" transform="translate(-125.783 586.061)" fill="#e9f6f8"/>
      <path id="path30" d="M465.862-262.427,469.6-274.41a54.913,54.913,0,0,0,15.725-8.178c9.147-6.911,15.844-16.9,20.429-27.656,9.512-22.311,9.889-47.966,2.055-70.86a55.372,55.372,0,0,0-2.817-6.683l7.554-24.2q3.37,5.012,6.286,10.313c-2.2,7.8-3.257,15.89-1.409,25.015,2.779,13.723,3.475,26.437,4.884,40.016,2.894,27.884-15.21,52.453-37.669,65.72a97.19,97.19,0,0,1-18.779,8.5M447.325-512.234c-1.121-.7-2.2-1.326-3.234-1.867a222.121,222.121,0,0,0-89.485-25.257q-.631-.88-1.336-1.7c12.938-2.6,26.262-6.31,44.64-10.639a99.5,99.5,0,0,1,47.248,36.129c.775,1.1,1.494,2.213,2.167,3.337" transform="translate(-106.514 583.768)" fill="#dbeff3"/>
      <path id="path32" d="M205.124-95.8a46.8,46.8,0,0,0,27.784-42.772c0-.546-.01-1.091-.028-1.632a116.377,116.377,0,0,0,11.909,1.331,22.168,22.168,0,0,0,11.217,7.918l2.653.828c-.129.184-.259.366-.39.548a85.848,85.848,0,0,1-32.409,26.74A91.976,91.976,0,0,1,205.124-95.8m-42.28-.893a85.728,85.728,0,0,1-11.862-4.049,80.569,80.569,0,0,1-35.975-30.67,116.365,116.365,0,0,0,20.274,3.634,48.415,48.415,0,0,0,27.562,31.085" transform="translate(-34.676 459.698)" fill="#d0e9ef"/>
      <path id="path34" d="M55.875-375.883a107.317,107.317,0,0,1-11.662-41.976q-.021-.316-.04-.633a71.078,71.078,0,0,1,48.942-71.5l50.638-16.654L141.3-457.436a115.3,115.3,0,0,0-11.522,12.521,83.2,83.2,0,0,0-10.44,16.332,1.4,1.4,0,0,0,.72,1.84,1.381,1.381,0,0,0,.559.117,1.4,1.4,0,0,0,1.281-.837l.006-.012a82.014,82.014,0,0,1,10.407-16.134,112.129,112.129,0,0,1,8.788-9.753l-.748,15a116.5,116.5,0,0,0-8.206,11.443c-31.421,5.44-59.013,24.641-76.267,51.033M368.269-487.616l-10.238-3.2a61.992,61.992,0,0,0-3.939-7.837,101.369,101.369,0,0,1,14.177,11.033" transform="translate(-13.281 570.183)" fill="#d1eaf0"/>
      <path id="path36" d="M118.992-246.521a116.364,116.364,0,0,1-20.274-3.634c-6.75-10.752-10.67-23.206-10.031-36.327.672-13.8,6.2-27.5,3.638-41.059C89.117-344.555,76.3-360.06,67.007-373.922a103.734,103.734,0,0,1-6.027-10.218c17.254-26.392,44.847-45.593,76.267-51.033A115.516,115.516,0,0,0,119.5-373.459h0a115.556,115.556,0,0,0,23.993,70.672,48.225,48.225,0,0,0-7.388,4.658q-1.4-2.242-2.649-4.44a140.306,140.306,0,0,1-9.189-19.489c-.957-2.523-1.647-4.576-2.1-5.992-.224-.708-.388-1.257-.5-1.627-.054-.185-.094-.325-.119-.418s-.036-.133-.036-.133a1.4,1.4,0,0,0-1.349-1.037,1.414,1.414,0,0,0-.36.047,1.4,1.4,0,0,0-.99,1.71h0a132.456,132.456,0,0,0,12.209,28.324c.905,1.586,1.868,3.2,2.89,4.828a48.105,48.105,0,0,0-16.791,36.531,48.09,48.09,0,0,0,1.867,13.3m262.483-22.562L416.867-382.46a55.372,55.372,0,0,1,2.817,6.683c7.833,22.895,7.456,48.55-2.055,70.86-4.585,10.752-11.282,20.744-20.429,27.656a54.914,54.914,0,0,1-15.725,8.178M279.364-480.962q-4.857-1.981-9.932-3.531l1.683-33.767a24.834,24.834,0,0,0-4.637-15.773,222.12,222.12,0,0,1,89.485,25.257c1.031.541,2.113,1.167,3.234,1.867a61.988,61.988,0,0,1,3.939,7.837l-41.527-12.963a22.27,22.27,0,0,0-6.644-1.017,22.428,22.428,0,0,0-14.494,5.343l-2.75-.859a9.244,9.244,0,0,0-2.764-.424,9.3,9.3,0,0,0-4.319,1.072,9.23,9.23,0,0,0-4.562,5.456l-6.712,21.5" transform="translate(-18.386 578.441)" fill="#cce7ee"/>
      <path id="path38" d="M596.2-114.719a4.191,4.191,0,0,1-4.191-4.191A4.191,4.191,0,0,1,596.2-123.1a4.191,4.191,0,0,1,4.191,4.191,4.191,4.191,0,0,1-4.191,4.191" transform="translate(-178.495 454.542)" fill="#8390ad"/>
      <path id="path40" d="M397.982-588.165a4.425,4.425,0,0,1-4.425-4.425,4.424,4.424,0,0,1,4.425-4.424,4.424,4.424,0,0,1,4.425,4.424,4.425,4.425,0,0,1-4.425,4.425" transform="translate(-118.661 597.43)" fill="#9bb5e3"/>
      <path id="path42" d="M113.349-44.721a4.191,4.191,0,0,1-4.191-4.191,4.191,4.191,0,0,1,4.191-4.191,4.191,4.191,0,0,1,4.191,4.191,4.191,4.191,0,0,1-4.191,4.191" transform="translate(-32.912 433.437)" fill="#8390ad"/>
      <path id="path44" d="M481.381-44.019a3.26,3.26,0,0,1-3.26-3.26,3.26,3.26,0,0,1,3.26-3.26,3.26,3.26,0,0,1,3.26,3.26,3.26,3.26,0,0,1-3.26,3.26" transform="translate(-144.158 432.664)" fill="#fcce87"/>
      <path id="path46" d="M104.718-547.784a3.26,3.26,0,0,1-3.26-3.261,3.26,3.26,0,0,1,3.26-3.26,3.26,3.26,0,0,1,3.26,3.26,3.261,3.261,0,0,1-3.26,3.261" transform="translate(-30.591 584.553)" fill="#fcce87"/>
      <path id="path48" d="M68.283-497.388a1.4,1.4,0,0,1-1.4-1.4,1.4,1.4,0,0,1,1.4-1.4,1.4,1.4,0,0,1,1.4,1.4,1.4,1.4,0,0,1-1.4,1.4" transform="translate(-20.167 568.235)" fill="#9bb5e3"/>
      <path id="path50" d="M152.819-593.663a1.969,1.969,0,0,1-.414-.044,1.974,1.974,0,0,1-1.518-2.342,1.974,1.974,0,0,1,1.928-1.562,1.96,1.96,0,0,1,.413.044,1.973,1.973,0,0,1,1.518,2.342,1.973,1.973,0,0,1-1.927,1.562" transform="translate(-45.48 597.611)" fill="#9bb5e3"/>
      <path id="path52" d="M608.459-333.45a1.97,1.97,0,0,1-.414-.044,1.973,1.973,0,0,1-1.518-2.342,1.974,1.974,0,0,1,1.928-1.562,1.985,1.985,0,0,1,.415.044,1.974,1.974,0,0,1,1.518,2.342,1.976,1.976,0,0,1-1.929,1.562" transform="translate(-182.86 519.154)" fill="#fcce87"/>
      <path id="path54" d="M581.735-505.581a1.744,1.744,0,0,1-.351-.036,1.679,1.679,0,0,1-1.291-1.991,1.679,1.679,0,0,1,1.639-1.328,1.691,1.691,0,0,1,.352.037,1.677,1.677,0,0,1,1.29,1.991,1.677,1.677,0,0,1-1.639,1.327" transform="translate(-174.892 570.875)" fill="#8390ad"/>
      <path id="path56" d="M547.3-565.71a6.391,6.391,0,0,1-6.39-6.392,6.391,6.391,0,0,1,6.39-6.391,6.391,6.391,0,0,1,6.391,6.391,6.391,6.391,0,0,1-6.391,6.392" transform="translate(-163.088 591.846)" fill="#fcce87"/>
      <path id="path58" d="M5.11-284.908A5.109,5.109,0,0,1,0-290.016a5.11,5.11,0,0,1,5.11-5.11,5.11,5.11,0,0,1,5.11,5.11,5.11,5.11,0,0,1-5.11,5.108" transform="translate(0 506.409)" fill="#e4f3f6"/>
      <path id="path60" d="M295.319-142.7a116.379,116.379,0,0,1-11.909-1.331,47.021,47.021,0,0,0-.812-7.242,81.783,81.783,0,0,1,8.48-1.625,22.346,22.346,0,0,0,2.334,7.166,22.687,22.687,0,0,0,1.907,3.031" transform="translate(-85.206 463.526)" fill="#eef7fc"/>
      <path id="path62" d="M170.169-397.44a116.5,116.5,0,0,1,8.206-11.443l-.518,10.4q-3.877.386-7.688,1.046" transform="translate(-51.307 540.708)" fill="#eef7fd"/>
      <path id="path64" d="M241.037-244.8a46.74,46.74,0,0,0-14.908-26.14,48.574,48.574,0,0,0-7.53-6.684l31.607-7.63-7.963,25.508a9.229,9.229,0,0,0,.648,7.082,9.233,9.233,0,0,0,5.455,4.563l1.014.316q.056.683.156,1.362a81.79,81.79,0,0,0-8.48,1.625m-72.289-36.6a115.556,115.556,0,0,1-23.993-70.672h0a115.516,115.516,0,0,1,17.751-61.714q3.805-.658,7.688-1.046l-1.164,23.356a10.227,10.227,0,0,0-7.395,12.292l5.676,23.513a9.57,9.57,0,0,0,.755,3.126L184.085-286.2a47.826,47.826,0,0,0-15.337,4.8M292.615-421.474l2.076-41.635q5.064,1.544,9.932,3.531L292.738-421.5l-.123.031" transform="translate(-43.645 557.057)" fill="#eef7fc"/>
      <path id="path66" d="M153.064-405.385a1.381,1.381,0,0,1-.559-.117,1.4,1.4,0,0,1-.72-1.84,83.2,83.2,0,0,1,10.44-16.332,115.29,115.29,0,0,1,11.522-12.521l-.2,4.074a112.127,112.127,0,0,0-8.788,9.753,82.012,82.012,0,0,0-10.407,16.134l-.006.012a1.4,1.4,0,0,1-1.281.837" transform="translate(-45.729 548.942)" fill="#f1fafe"/>
      <path id="path68" d="M158.86-208.831c-1.022-1.628-1.985-3.242-2.89-4.828a132.456,132.456,0,0,1-12.209-28.324h0a1.4,1.4,0,0,1,.99-1.71,1.414,1.414,0,0,1,.36-.048,1.4,1.4,0,0,1,1.349,1.037s.01.041.036.133.065.233.119.418c.107.37.271.919.5,1.627.449,1.417,1.138,3.469,2.1,5.992a140.306,140.306,0,0,0,9.189,19.489q1.25,2.193,2.649,4.44-1.119.855-2.186,1.773" transform="translate(-43.331 490.916)" fill="#ebf7fb"/>
      <path id="path70" d="M291.266-259.409l3.029.945a7.923,7.923,0,0,0,9.894-5.186l69.092-221.328a7.924,7.924,0,0,0-5.187-9.894l-3.029-.945a7.922,7.922,0,0,0-9.894,5.186L286.081-269.3a7.922,7.922,0,0,0,5.186,9.894" transform="translate(-86.148 567.027)" fill="#253561"/>
      <path id="path72" d="M296.04-257.312a9.241,9.241,0,0,1-2.765-.424l-3.029-.944a9.233,9.233,0,0,1-5.455-4.563,9.23,9.23,0,0,1-.648-7.082l69.091-221.328a9.23,9.23,0,0,1,4.562-5.456,9.231,9.231,0,0,1,7.083-.648l3.029.945a9.308,9.308,0,0,1,6.1,11.644L304.919-263.838a9.231,9.231,0,0,1-4.563,5.454,9.271,9.271,0,0,1-4.317,1.072" transform="translate(-85.544 567.632)" fill="#253561"/>
      <path id="path74" d="M413.457-209.424,311.119-241.371a20.935,20.935,0,0,1-13.746-26.223l68.582-219.7a20.936,20.936,0,0,1,26.223-13.746l102.338,31.946a20.935,20.935,0,0,1,13.746,26.223l-68.582,219.7a20.938,20.938,0,0,1-26.223,13.746" transform="translate(-89.372 568.782)" fill="#2f4270"/>
      <path id="path76" d="M413.269-211.36a19.417,19.417,0,0,0,14.893-1.346,19.414,19.414,0,0,0,9.58-11.483l68.583-219.7a19.562,19.562,0,0,0-12.83-24.473L391.156-500.309a19.56,19.56,0,0,0-24.473,12.829L298.1-267.78a19.41,19.41,0,0,0,1.347,14.894,19.408,19.408,0,0,0,11.483,9.579L413.269-211.36m5.808,3.683a22.227,22.227,0,0,1-6.641-1.017L310.1-240.64a22.184,22.184,0,0,1-13.124-10.949,22.187,22.187,0,0,1-1.539-17.025l68.582-219.7a22.356,22.356,0,0,1,27.973-14.664l102.339,31.947a22.357,22.357,0,0,1,14.663,27.972l-68.583,219.7a22.373,22.373,0,0,1-21.331,15.68" transform="translate(-88.767 569.384)" fill="#253561"/>
      <path id="path78" d="M491.183-346.266,371.72-383.557,399.049-471.1l119.462,37.292-27.329,87.545" transform="translate(-112.077 559.467)" fill="#fff"/>
      <path id="path80" d="M372.867-385.077l116.795,36.458,26.5-84.878L399.363-469.956l-26.5,84.879m117.712,39.605a1.386,1.386,0,0,1-.416-.063L370.7-382.827a1.392,1.392,0,0,1-.82-.685,1.389,1.389,0,0,1-.1-1.064l27.329-87.546a1.4,1.4,0,0,1,.685-.821,1.4,1.4,0,0,1,1.065-.1l119.463,37.292a1.394,1.394,0,0,1,.82.685,1.388,1.388,0,0,1,.1,1.064l-27.329,87.545a1.4,1.4,0,0,1-1.334.981" transform="translate(-111.474 560.07)" fill="#253561"/>
      <path id="path82" d="M524.858-453.154a.922.922,0,0,1-.277-.043l-83.388-26.03a.93.93,0,0,1-.611-1.166.931.931,0,0,1,1.166-.612l83.387,26.03a.931.931,0,0,1,.612,1.167.932.932,0,0,1-.889.654" transform="translate(-132.827 562.466)" fill="#fff"/>
      <path id="path84" d="M433-442.511l-18.6-5.806a1.1,1.1,0,0,1-.724-1.378l1.077-3.445a1.1,1.1,0,0,1,1.377-.723l18.6,5.806a1.1,1.1,0,0,1,.722,1.378l-1.075,3.445a1.1,1.1,0,0,1-1.378.723" transform="translate(-124.712 554.285)" fill="#f9aa39"/>
      <path id="path86" d="M432.873-443.8a.172.172,0,0,0,.212-.111l1.075-3.446-.111-.212-18.6-5.8-.21.111-1.077,3.446a.169.169,0,0,0,.112.211Zm.053,1.871a2.038,2.038,0,0,1-.607-.093l-18.6-5.806a2.035,2.035,0,0,1-1.336-2.544l1.078-3.446a2.013,2.013,0,0,1,.995-1.194,2.021,2.021,0,0,1,1.55-.14l18.6,5.8a2.024,2.024,0,0,1,1.194,1,2.017,2.017,0,0,1,.139,1.55l-1.074,3.443a2.024,2.024,0,0,1-1,1.195,2.027,2.027,0,0,1-.942.233" transform="translate(-124.31 554.687)" fill="#253561"/>
      <path id="path88" d="M472.569-430.158l-18.6-5.806a1.1,1.1,0,0,1-.723-1.378l1.075-3.445a1.1,1.1,0,0,1,1.379-.723l18.6,5.8a1.1,1.1,0,0,1,.723,1.378l-1.076,3.446a1.1,1.1,0,0,1-1.378.723" transform="translate(-136.643 550.56)" fill="#f9aa39"/>
      <path id="path90" d="M472.445-431.45l.211-.111,1.077-3.445-.112-.212-18.6-5.806-.211.112-1.076,3.445a.169.169,0,0,0,.11.212Zm.053,1.872a2.069,2.069,0,0,1-.608-.093l-18.6-5.806a2.036,2.036,0,0,1-1.335-2.545l1.075-3.445a2.034,2.034,0,0,1,2.546-1.335l18.6,5.806a2.017,2.017,0,0,1,1.195,1,2.02,2.02,0,0,1,.14,1.549l-1.076,3.446a2.015,2.015,0,0,1-1,1.194,2.024,2.024,0,0,1-.941.234" transform="translate(-136.241 550.962)" fill="#253561"/>
      <path id="path92" d="M515.115-416.877l-18.6-5.806a1.1,1.1,0,0,1-.723-1.378l1.076-3.445a1.1,1.1,0,0,1,1.378-.724l18.6,5.806a1.1,1.1,0,0,1,.723,1.378l-1.076,3.446a1.1,1.1,0,0,1-1.378.723" transform="translate(-149.471 546.556)" fill="#f9aa39"/>
      <path id="path94" d="M514.99-418.168a.17.17,0,0,0,.212-.111l1.076-3.446a.17.17,0,0,0-.112-.211l-18.6-5.806-.211.112-1.076,3.445a.168.168,0,0,0,.111.211Zm.049,1.871a2.026,2.026,0,0,1-.6-.092l-18.6-5.806a2.036,2.036,0,0,1-1.335-2.545l1.076-3.445a2.018,2.018,0,0,1,1-1.195,2.028,2.028,0,0,1,1.549-.14l18.6,5.806a2.034,2.034,0,0,1,1.335,2.544l-1.077,3.446a2.034,2.034,0,0,1-1.94,1.427" transform="translate(-149.069 546.958)" fill="#253561"/>
      <path id="path96" d="M555.173-404.373l-18.6-5.8a1.1,1.1,0,0,1-.723-1.379L536.929-415a1.1,1.1,0,0,1,1.378-.723l18.6,5.806a1.1,1.1,0,0,1,.723,1.378l-1.076,3.445a1.1,1.1,0,0,1-1.378.723" transform="translate(-161.549 542.786)" fill="#f9aa39"/>
      <path id="path98" d="M555.048-405.663a.17.17,0,0,0,.211-.111l1.077-3.446a.171.171,0,0,0-.113-.212l-18.6-5.8a.166.166,0,0,0-.211.111l-1.076,3.445.111.212Zm.053,1.871a2.027,2.027,0,0,1-.607-.093l-18.6-5.8a2.021,2.021,0,0,1-1.194-1,2.013,2.013,0,0,1-.14-1.55l1.074-3.444a2.034,2.034,0,0,1,2.546-1.334l18.6,5.8a2.036,2.036,0,0,1,1.335,2.545l-1.077,3.446a2.022,2.022,0,0,1-.995,1.194,2.029,2.029,0,0,1-.942.233" transform="translate(-161.147 543.188)" fill="#253561"/>
      <path id="path100" d="M478.159-279.289,361.95-315.565l6.715-21.512L484.874-300.8l-6.715,21.512" transform="translate(-109.131 519.057)" fill="#253561"/>
      <path id="path102" d="M363.1-317.086l113.542,35.443,5.882-18.844L368.979-335.931,363.1-317.086M477.556-278.5a1.384,1.384,0,0,1-.416-.063L360.93-314.836a1.4,1.4,0,0,1-.917-1.749l6.715-21.512a1.4,1.4,0,0,1,.685-.821,1.384,1.384,0,0,1,1.064-.1l116.209,36.276a1.4,1.4,0,0,1,.917,1.75l-6.715,21.513a1.393,1.393,0,0,1-.685.82,1.39,1.39,0,0,1-.648.159" transform="translate(-108.528 519.661)" fill="#253561"/>
      <path id="path104" d="M407.582-306.53a1.4,1.4,0,0,0,1.75-.917l1.8-5.758a1.387,1.387,0,0,0-.1-1.065,1.388,1.388,0,0,0-.821-.685l-20.618-6.436a1.386,1.386,0,0,0-1.064.1,1.387,1.387,0,0,0-.685.821l-1.8,5.758a1.4,1.4,0,0,0,.917,1.75l20.617,6.436m.415.995a2.332,2.332,0,0,1-.693-.105l-20.618-6.437a2.332,2.332,0,0,1-1.528-2.916l1.8-5.758a2.313,2.313,0,0,1,1.143-1.369,2.306,2.306,0,0,1,1.774-.16l20.618,6.436a2.31,2.31,0,0,1,1.367,1.142,2.312,2.312,0,0,1,.161,1.774l-1.8,5.759A2.333,2.333,0,0,1,408-305.535" transform="translate(-116.097 514.629)" fill="#fff"/>
      <path id="path106" d="M453.208-292.288a1.393,1.393,0,0,0,1.064-.1,1.385,1.385,0,0,0,.685-.821l1.8-5.758a1.382,1.382,0,0,0-.1-1.064,1.38,1.38,0,0,0-.821-.685l-20.617-6.436a1.385,1.385,0,0,0-1.064.1,1.388,1.388,0,0,0-.685.821l-1.8,5.758a1.387,1.387,0,0,0,.1,1.065,1.388,1.388,0,0,0,.821.685l20.617,6.435m.418,1a2.36,2.36,0,0,1-.7-.107l-20.617-6.435a2.315,2.315,0,0,1-1.368-1.142,2.312,2.312,0,0,1-.16-1.776l1.8-5.757a2.317,2.317,0,0,1,1.142-1.369,2.31,2.31,0,0,1,1.775-.159l20.617,6.435a2.315,2.315,0,0,1,1.368,1.142,2.314,2.314,0,0,1,.161,1.775l-1.8,5.758a2.315,2.315,0,0,1-1.141,1.367,2.316,2.316,0,0,1-1.079.268" transform="translate(-129.853 510.334)" fill="#fff"/>
      <path id="path108" d="M499.342-277.887a1.386,1.386,0,0,0,1.064-.1,1.381,1.381,0,0,0,.685-.821l1.8-5.758a1.385,1.385,0,0,0-.1-1.065,1.385,1.385,0,0,0-.821-.685l-20.618-6.436a1.386,1.386,0,0,0-1.064.1,1.386,1.386,0,0,0-.685.821l-1.8,5.758a1.4,1.4,0,0,0,.917,1.75Zm.418,1a2.359,2.359,0,0,1-.7-.106l-20.618-6.435a2.334,2.334,0,0,1-1.528-2.918l1.8-5.758a2.317,2.317,0,0,1,1.142-1.367,2.313,2.313,0,0,1,1.775-.161l20.618,6.436a2.315,2.315,0,0,1,1.368,1.142,2.314,2.314,0,0,1,.16,1.775l-1.8,5.757a2.313,2.313,0,0,1-1.142,1.368,2.311,2.311,0,0,1-1.078.267" transform="translate(-143.763 505.992)" fill="#fff"/>
      <path id="path110" d="M372.608-254.613l-14.785-4.615a7.923,7.923,0,0,1-5.187-9.894l2.677-8.576a7.923,7.923,0,0,1,9.894-5.187l14.785,4.615a7.923,7.923,0,0,1,5.186,9.894L382.5-259.8a7.922,7.922,0,0,1-9.894,5.187" transform="translate(-106.215 502.826)" fill="#556a90"/>
      <path id="path112" d="M362.253-282.45a6.516,6.516,0,0,0-6.211,4.564l-2.677,8.576a6.512,6.512,0,0,0,4.27,8.144l14.785,4.615a6.457,6.457,0,0,0,4.952-.455,6.459,6.459,0,0,0,3.194-3.814l2.676-8.576a6.511,6.511,0,0,0-4.269-8.144l-14.785-4.615a6.492,6.492,0,0,0-1.934-.3m12.1,28.99a9.243,9.243,0,0,1-2.765-.425L356.8-258.5a9.308,9.308,0,0,1-6.1-11.644l2.677-8.576a9.306,9.306,0,0,1,11.644-6.1l14.785,4.615a9.308,9.308,0,0,1,6.1,11.644l-2.677,8.576a9.225,9.225,0,0,1-4.563,5.454,9.272,9.272,0,0,1-4.317,1.073" transform="translate(-105.611 503.43)" fill="#253561"/>
      <path id="path114" d="M430.458-236.553l-14.786-4.616a7.922,7.922,0,0,1-5.186-9.894l2.676-8.575a7.924,7.924,0,0,1,9.894-5.187l14.786,4.616a7.922,7.922,0,0,1,5.187,9.893l-2.678,8.576a7.923,7.923,0,0,1-9.893,5.187" transform="translate(-123.657 497.381)" fill="#556a90"/>
      <path id="path116" d="M430.271-238.491a6.461,6.461,0,0,0,4.951-.456,6.454,6.454,0,0,0,3.193-3.814l2.678-8.576a6.456,6.456,0,0,0-.456-4.951,6.454,6.454,0,0,0-3.814-3.193L422.037-264.1a6.468,6.468,0,0,0-4.952.456,6.457,6.457,0,0,0-3.193,3.814l-2.677,8.575a6.456,6.456,0,0,0,.455,4.951,6.461,6.461,0,0,0,3.814,3.193l14.786,4.616m1.93,3.091a9.234,9.234,0,0,1-2.762-.425l-14.786-4.616a9.306,9.306,0,0,1-6.1-11.644l2.677-8.575a9.228,9.228,0,0,1,4.562-5.455,9.231,9.231,0,0,1,7.083-.648l14.785,4.616a9.305,9.305,0,0,1,6.1,11.643l-2.678,8.576a9.228,9.228,0,0,1-4.562,5.455A9.285,9.285,0,0,1,432.2-235.4" transform="translate(-123.053 497.985)" fill="#253561"/>
      <path id="path118" d="M487.438-218.767l-14.785-4.615a7.923,7.923,0,0,1-5.187-9.894l2.677-8.576a7.922,7.922,0,0,1,9.894-5.187l14.785,4.615a7.923,7.923,0,0,1,5.187,9.894l-2.677,8.576a7.923,7.923,0,0,1-9.894,5.187" transform="translate(-140.838 492.018)" fill="#556a90"/>
      <path id="path120" d="M477.089-246.6a6.5,6.5,0,0,0-3.023.752,6.458,6.458,0,0,0-3.194,3.814l-2.677,8.576a6.512,6.512,0,0,0,4.27,8.144l14.785,4.615a6.513,6.513,0,0,0,8.145-4.269l2.677-8.576a6.512,6.512,0,0,0-4.27-8.144l-14.785-4.615A6.47,6.47,0,0,0,477.089-246.6Zm12.094,28.99a9.236,9.236,0,0,1-2.765-.424l-14.785-4.615a9.309,9.309,0,0,1-6.1-11.644l2.677-8.576a9.226,9.226,0,0,1,4.563-5.454,9.222,9.222,0,0,1,7.082-.648l14.785,4.615a9.309,9.309,0,0,1,6.1,11.644l-2.677,8.576a9.316,9.316,0,0,1-8.879,6.526" transform="translate(-140.234 492.622)" fill="#253561"/>
      <path id="path122" d="M358.468-209.316l-14.785-4.616a7.923,7.923,0,0,1-5.187-9.894l2.678-8.575a7.922,7.922,0,0,1,9.893-5.187l14.786,4.616a7.923,7.923,0,0,1,5.186,9.894l-2.677,8.575a7.923,7.923,0,0,1-9.894,5.186" transform="translate(-101.952 489.168)" fill="#556a90"/>
      <path id="path124" d="M358.28-211.252a6.512,6.512,0,0,0,8.144-4.27L369.1-224.1a6.457,6.457,0,0,0-.456-4.953,6.451,6.451,0,0,0-3.813-3.192l-14.786-4.616a6.456,6.456,0,0,0-4.951.456,6.454,6.454,0,0,0-3.193,3.814l-2.678,8.575a6.459,6.459,0,0,0,.456,4.952,6.457,6.457,0,0,0,3.814,3.193l14.785,4.616m1.931,3.089a9.267,9.267,0,0,1-2.764-.423L342.662-213.2a9.228,9.228,0,0,1-5.455-4.562,9.236,9.236,0,0,1-.648-7.083l2.678-8.575a9.3,9.3,0,0,1,11.643-6.1l14.786,4.616a9.231,9.231,0,0,1,5.454,4.563,9.229,9.229,0,0,1,.648,7.082l-2.677,8.575a9.314,9.314,0,0,1-8.88,6.527" transform="translate(-101.348 489.772)" fill="#253561"/>
      <path id="path126" d="M416.317-191.257l-14.785-4.616a7.922,7.922,0,0,1-5.187-9.894l2.677-8.575a7.923,7.923,0,0,1,9.894-5.187l14.785,4.616a7.923,7.923,0,0,1,5.187,9.894l-2.677,8.575a7.923,7.923,0,0,1-9.894,5.187" transform="translate(-119.394 483.723)" fill="#556a90"/>
      <path id="path128" d="M416.13-193.194a6.513,6.513,0,0,0,8.144-4.27l2.677-8.575a6.465,6.465,0,0,0-.456-4.953,6.458,6.458,0,0,0-3.814-3.192L407.9-218.8a6.514,6.514,0,0,0-8.144,4.27l-2.677,8.575a6.459,6.459,0,0,0,.456,4.952,6.457,6.457,0,0,0,3.814,3.193Zm1.931,3.089a9.257,9.257,0,0,1-2.764-.423l-14.785-4.616a9.229,9.229,0,0,1-5.455-4.562,9.232,9.232,0,0,1-.649-7.083l2.677-8.575a9.308,9.308,0,0,1,11.644-6.1l14.785,4.616a9.232,9.232,0,0,1,5.456,4.563,9.233,9.233,0,0,1,.648,7.082l-2.677,8.575a9.314,9.314,0,0,1-8.88,6.527" transform="translate(-118.79 484.327)" fill="#253561"/>
      <path id="path130" d="M473.3-173.469l-14.785-4.616a7.924,7.924,0,0,1-5.187-9.894L456-196.554a7.922,7.922,0,0,1,9.893-5.187l14.786,4.616a7.922,7.922,0,0,1,5.186,9.893l-2.677,8.576a7.923,7.923,0,0,1-9.894,5.187" transform="translate(-136.574 478.36)" fill="#556a90"/>
      <path id="path132" d="M473.111-175.406a6.512,6.512,0,0,0,8.144-4.27l2.677-8.576a6.454,6.454,0,0,0-.456-4.952,6.453,6.453,0,0,0-3.813-3.193l-14.786-4.616a6.464,6.464,0,0,0-4.951.457,6.458,6.458,0,0,0-3.193,3.813l-2.678,8.575a6.512,6.512,0,0,0,4.27,8.145Zm1.931,3.089a9.267,9.267,0,0,1-2.764-.423l-14.785-4.616A9.308,9.308,0,0,1,451.39-189l2.678-8.575a9.3,9.3,0,0,1,11.643-6.1l14.786,4.616a9.23,9.23,0,0,1,5.454,4.562,9.23,9.23,0,0,1,.648,7.082l-2.677,8.576a9.314,9.314,0,0,1-8.88,6.527" transform="translate(-135.97 478.964)" fill="#253561"/>
      <path id="path134" d="M344.327-164.019l-14.785-4.616a7.92,7.92,0,0,1-5.186-9.893l2.677-8.576a7.922,7.922,0,0,1,9.894-5.186l14.785,4.616a7.921,7.921,0,0,1,5.186,9.894l-2.677,8.575a7.922,7.922,0,0,1-9.894,5.187" transform="translate(-97.688 475.511)" fill="#54b2d8"/>
      <path id="path136" d="M344.139-165.957a6.465,6.465,0,0,0,4.953-.456,6.458,6.458,0,0,0,3.193-3.813l2.677-8.575a6.462,6.462,0,0,0-.456-4.952,6.46,6.46,0,0,0-3.813-3.194l-14.785-4.616a6.462,6.462,0,0,0-4.953.457,6.458,6.458,0,0,0-3.193,3.813l-2.677,8.576a6.462,6.462,0,0,0,.456,4.952,6.453,6.453,0,0,0,3.813,3.192Zm1.932,3.091a9.274,9.274,0,0,1-2.764-.424l-14.785-4.616a9.23,9.23,0,0,1-5.455-4.563,9.227,9.227,0,0,1-.648-7.081l2.677-8.576a9.231,9.231,0,0,1,4.563-5.456,9.229,9.229,0,0,1,7.082-.648l14.785,4.616a9.307,9.307,0,0,1,6.1,11.644l-2.677,8.575a9.227,9.227,0,0,1-4.563,5.455,9.284,9.284,0,0,1-4.318,1.073" transform="translate(-97.084 476.115)" fill="#253561"/>
      <path id="path138" d="M402.177-145.96l-14.785-4.616a7.922,7.922,0,0,1-5.187-9.893l2.678-8.576a7.92,7.92,0,0,1,9.893-5.186l14.786,4.615a7.922,7.922,0,0,1,5.186,9.894l-2.677,8.575a7.922,7.922,0,0,1-9.894,5.187" transform="translate(-115.131 470.066)" fill="#f9aa39"/>
      <path id="path140" d="M391.828-173.8a6.49,6.49,0,0,0-3.023.752,6.458,6.458,0,0,0-3.193,3.813l-2.678,8.576a6.459,6.459,0,0,0,.456,4.952,6.458,6.458,0,0,0,3.814,3.192l14.785,4.616a6.455,6.455,0,0,0,4.952-.456,6.454,6.454,0,0,0,3.193-3.814l2.677-8.575a6.51,6.51,0,0,0-4.269-8.144L393.755-173.5a6.464,6.464,0,0,0-1.928-.3Zm12.092,28.99a9.271,9.271,0,0,1-2.763-.424l-14.785-4.616a9.228,9.228,0,0,1-5.456-4.562,9.233,9.233,0,0,1-.648-7.082l2.678-8.576a9.226,9.226,0,0,1,4.562-5.455,9.225,9.225,0,0,1,7.082-.648l14.786,4.615a9.307,9.307,0,0,1,6.1,11.644l-2.677,8.575a9.232,9.232,0,0,1-4.562,5.455,9.285,9.285,0,0,1-4.319,1.073" transform="translate(-114.526 470.67)" fill="#253561"/>
      <path id="path142" d="M459.157-128.172l-14.785-4.616a7.921,7.921,0,0,1-5.186-9.894l2.677-8.575a7.924,7.924,0,0,1,9.894-5.187l14.785,4.617a7.921,7.921,0,0,1,5.186,9.894l-2.677,8.575a7.922,7.922,0,0,1-9.894,5.187" transform="translate(-132.311 464.703)" fill="#5777c4"/>
      <path id="path144" d="M458.969-130.11a6.462,6.462,0,0,0,4.953-.457,6.456,6.456,0,0,0,3.193-3.814l2.677-8.575a6.458,6.458,0,0,0-.456-4.952,6.458,6.458,0,0,0-3.813-3.193l-14.785-4.616a6.469,6.469,0,0,0-4.953.456,6.455,6.455,0,0,0-3.192,3.814l-2.677,8.575a6.458,6.458,0,0,0,.455,4.952,6.454,6.454,0,0,0,3.813,3.192Zm1.932,3.091a9.276,9.276,0,0,1-2.764-.423l-14.785-4.617a9.225,9.225,0,0,1-5.454-4.562,9.225,9.225,0,0,1-.649-7.082l2.677-8.575a9.226,9.226,0,0,1,4.563-5.456,9.229,9.229,0,0,1,7.082-.648l14.785,4.616a9.228,9.228,0,0,1,5.455,4.562,9.232,9.232,0,0,1,.648,7.083l-2.677,8.574a9.226,9.226,0,0,1-4.563,5.455,9.283,9.283,0,0,1-4.318,1.073" transform="translate(-131.707 465.307)" fill="#253561"/>
      <path id="path146" d="M415.669-95.247l-102.15-31.889a6.29,6.29,0,0,1-4.118-7.857,6.292,6.292,0,0,1,7.857-4.119l102.151,31.887a6.292,6.292,0,0,1,4.118,7.858,6.293,6.293,0,0,1-7.858,4.119" transform="translate(-93.201 459.455)" fill="#253561"/>
      <path id="path148" d="M415.481-97.185a4.884,4.884,0,0,0,6.108-3.2,4.845,4.845,0,0,0-.342-3.713,4.846,4.846,0,0,0-2.86-2.395l-102.15-31.887a4.886,4.886,0,0,0-6.108,3.2,4.883,4.883,0,0,0,3.2,6.107Zm1.448,3.016a7.649,7.649,0,0,1-2.281-.349L312.5-126.406a7.677,7.677,0,0,1-5.036-9.606,7.678,7.678,0,0,1,9.607-5.037l102.151,31.888a7.612,7.612,0,0,1,4.5,3.764,7.61,7.61,0,0,1,.535,5.842,7.682,7.682,0,0,1-7.326,5.385" transform="translate(-92.597 460.059)" fill="#253561"/>
      <path id="path150" d="M457.41-147.338a2.22,2.22,0,0,1-2.22,2.22,2.22,2.22,0,0,1-2.22-2.22,2.221,2.221,0,0,1,2.22-2.221,2.221,2.221,0,0,1,2.22,2.221" transform="translate(-136.574 462.519)" fill="#fff"/>
      <path id="path152" d="M400.43-164.738a2.221,2.221,0,0,1-2.22,2.221,2.221,2.221,0,0,1-2.221-2.221,2.221,2.221,0,0,1,2.221-2.22,2.221,2.221,0,0,1,2.22,2.22" transform="translate(-119.394 467.765)" fill="#fff"/>
      <path id="path154" d="M340.7-183.82a2.222,2.222,0,0,1-2.22,2.221,2.222,2.222,0,0,1-2.221-2.221,2.221,2.221,0,0,1,2.221-2.221,2.221,2.221,0,0,1,2.22,2.221" transform="translate(-101.385 473.519)" fill="#fff"/>
      <path id="path156" d="M473.619-123.7a1.152,1.152,0,0,1-1.152,1.152,1.152,1.152,0,0,1-1.153-1.152,1.152,1.152,0,0,1,1.153-1.152,1.151,1.151,0,0,1,1.152,1.152" transform="translate(-142.105 455.069)" fill="#fff"/>
      <path id="path158" d="M483.163-240.26a1.484,1.484,0,0,1-1.484,1.485,1.485,1.485,0,0,1-1.485-1.485,1.485,1.485,0,0,1,1.485-1.484,1.484,1.484,0,0,1,1.484,1.484" transform="translate(-144.783 490.314)" fill="#253561"/>
      <path id="path160" d="M467.953-192.687a1.484,1.484,0,0,1-1.484,1.484,1.484,1.484,0,0,1-1.485-1.484,1.485,1.485,0,0,1,1.485-1.485,1.485,1.485,0,0,1,1.484,1.485" transform="translate(-140.197 475.97)" fill="#253561"/>
      <path id="path162" d="M533.5-317.386a3.887,3.887,0,0,1-3.886,3.886,3.886,3.886,0,0,1-3.887-3.886,3.886,3.886,0,0,1,3.887-3.886,3.887,3.887,0,0,1,3.886,3.886" transform="translate(-158.511 514.292)" fill="#2f4270"/>
      <path id="path164" d="M529.012-320.479a2.492,2.492,0,0,0-2.49,2.489,2.492,2.492,0,0,0,2.49,2.489,2.493,2.493,0,0,0,2.489-2.489A2.493,2.493,0,0,0,529.012-320.479Zm0,7.773a5.29,5.29,0,0,1-5.284-5.283,5.29,5.29,0,0,1,5.284-5.283,5.289,5.289,0,0,1,5.283,5.283,5.29,5.29,0,0,1-5.283,5.283" transform="translate(-157.908 514.895)" fill="#253561"/>
      <path id="path166" d="M243.4-158.066a46.8,46.8,0,0,1-46.8,46.8,46.8,46.8,0,0,1-46.8-46.8,46.8,46.8,0,0,1,46.8-46.8,46.8,46.8,0,0,1,46.8,46.8" transform="translate(-45.169 479.194)" fill="#253561"/>
      <path id="path168" d="M236.951-161.663a46.8,46.8,0,0,1-46.8,46.8,46.8,46.8,0,0,1-46.8-46.8,46.8,46.8,0,0,1,46.8-46.8,46.8,46.8,0,0,1,46.8,46.8" transform="translate(-43.224 480.278)" fill="#253561"/>
      <path id="path170" d="M236.951-161.663a46.8,46.8,0,0,1-46.8,46.8,46.8,46.8,0,0,1-46.8-46.8,46.8,46.8,0,0,1,46.8-46.8,46.8,46.8,0,0,1,46.8,46.8" transform="translate(-43.224 480.278)" fill="#f9aa39"/>
      <path id="path172" d="M189.552-207.666a45.451,45.451,0,0,0-45.4,45.4,45.451,45.451,0,0,0,45.4,45.4,45.451,45.451,0,0,0,45.4-45.4,45.451,45.451,0,0,0-45.4-45.4m0,93.593a48.247,48.247,0,0,1-48.192-48.193,48.247,48.247,0,0,1,48.192-48.194,48.248,48.248,0,0,1,48.193,48.194,48.248,48.248,0,0,1-48.193,48.193" transform="translate(-42.621 480.881)" fill="#253561"/>
      <path id="path174" d="M193.684-194.892a36.8,36.8,0,0,0-36.757,36.758,36.8,36.8,0,0,0,36.757,36.757,36.8,36.8,0,0,0,36.757-36.757,36.8,36.8,0,0,0-36.757-36.758Zm0,75.378a38.663,38.663,0,0,1-38.62-38.62,38.663,38.663,0,0,1,38.62-38.621,38.663,38.663,0,0,1,38.62,38.621,38.663,38.663,0,0,1-38.62,38.62" transform="translate(-46.753 476.749)" fill="#fff"/>
      <path id="path176" d="M194.873-188.908a32.616,32.616,0,0,0-32.578,32.579,32.615,32.615,0,0,0,32.578,32.577,32.614,32.614,0,0,0,32.578-32.577A32.615,32.615,0,0,0,194.873-188.908Zm0,67.019a34.48,34.48,0,0,1-34.441-34.44,34.481,34.481,0,0,1,34.441-34.441,34.48,34.48,0,0,1,34.44,34.441,34.48,34.48,0,0,1-34.44,34.44" transform="translate(-48.372 474.945)" fill="#fff"/>
      <path id="path178" d="M217.036-146.005a11.708,11.708,0,0,1-3.311,8.131,11.054,11.054,0,0,1-5.033,3.073v2.226a4.039,4.039,0,0,1-1.112,2.807,3.806,3.806,0,0,1-2.755,1.165,3.959,3.959,0,0,1-2.862-1.165,4,4,0,0,1-1.191-2.807v-1.8H197.09a5.817,5.817,0,0,1-4-1.4,4.785,4.785,0,0,1-1.43-3.575c0-2.887,1.933-4.345,5.43-4.345h8.715a1.914,1.914,0,0,0,1.165-.424,1.594,1.594,0,0,0,.662-1.324,1.576,1.576,0,0,0-.874-1.563,2.791,2.791,0,0,0-.609-.212,2.938,2.938,0,0,1-.292-.053H201.7a11.184,11.184,0,0,1-7.5-3.1,10.163,10.163,0,0,1-3.072-7.338,11.408,11.408,0,0,1,3.39-8,11.6,11.6,0,0,1,6.252-3.232v-1.484a3.831,3.831,0,0,1,1.191-2.808A3.88,3.88,0,0,1,204.8-174.4a3.893,3.893,0,0,1,2.755,1.166,3.879,3.879,0,0,1,1.139,2.808v1.324h1.4c3.469,0,5.51,1.669,5.51,4.557,0,3.179-2.041,4.874-5.51,4.874h-8.133a1.426,1.426,0,0,0-1.536,1.456c0,.875.477,1.59,1.245,1.59h4a11.9,11.9,0,0,1,8.052,2.993,10.062,10.062,0,0,1,3.311,7.629" transform="translate(-57.627 470.01)" fill="#253561"/>
      <path id="path180" d="M245.189-140.853a3.377,3.377,0,0,1-3.378,3.377,3.377,3.377,0,0,1-3.377-3.377,3.378,3.378,0,0,1,3.377-3.377,3.378,3.378,0,0,1,3.378,3.377" transform="translate(-71.89 460.913)" fill="#253561"/>
      <path id="path182" d="M177.268-140.853a3.377,3.377,0,0,1-3.377,3.377,3.376,3.376,0,0,1-3.377-3.377,3.377,3.377,0,0,1,3.377-3.377,3.378,3.378,0,0,1,3.377,3.377" transform="translate(-51.411 460.913)" fill="#253561"/>
      <path id="path184" d="M150.443-228.83a16.9,16.9,0,0,1-20.185,12.8,16.9,16.9,0,0,1-12.8-20.185,16.9,16.9,0,0,1,20.186-12.8,16.9,16.9,0,0,1,12.8,20.185" transform="translate(-35.289 492.63)" fill="#253561"/>
      <path id="path186" d="M148.453-230.606a16.9,16.9,0,0,1-20.185,12.8,16.9,16.9,0,0,1-12.8-20.186,16.9,16.9,0,0,1,20.185-12.8,16.9,16.9,0,0,1,12.8,20.185" transform="translate(-34.689 493.166)" fill="#253561"/>
      <path id="path188" d="M148.453-230.606a16.9,16.9,0,0,1-20.185,12.8,16.9,16.9,0,0,1-12.8-20.186,16.9,16.9,0,0,1,20.185-12.8,16.9,16.9,0,0,1,12.8,20.185" transform="translate(-34.689 493.166)" fill="#f9aa39"/>
      <path id="path190" d="M148.05-231.009h.009Zm-16.525-19.668a15.857,15.857,0,0,0-8.523,2.49,15.863,15.863,0,0,0-7.031,10,15.866,15.866,0,0,0,2.1,12.042,15.866,15.866,0,0,0,10,7.031,16,16,0,0,0,19.073-12.1,15.868,15.868,0,0,0-2.1-12.041,15.869,15.869,0,0,0-10-7.031A16.168,16.168,0,0,0,131.524-250.677Zm.033,33.813a17.812,17.812,0,0,1-3.9-.433,17.717,17.717,0,0,1-11.166-7.851,17.716,17.716,0,0,1-2.343-13.446A17.714,17.714,0,0,1,122-249.76,17.708,17.708,0,0,1,135.45-252.1a17.711,17.711,0,0,1,11.165,7.85,17.713,17.713,0,0,1,2.344,13.447,17.869,17.869,0,0,1-17.4,13.942" transform="translate(-34.286 493.569)" fill="#253561"/>
      <path id="path192" d="M130.332-220.084a13.172,13.172,0,0,0,10-1.748,13.171,13.171,0,0,0,5.843-8.3,13.278,13.278,0,0,0-10.047-15.84,13.178,13.178,0,0,0-10,1.748,13.171,13.171,0,0,0-5.843,8.3A13.28,13.28,0,0,0,130.332-220.084Zm2.913,1.022a14.086,14.086,0,0,1-3.066-.34A13.981,13.981,0,0,1,119.6-236.077a13.87,13.87,0,0,1,6.15-8.736,13.872,13.872,0,0,1,10.525-1.841,13.979,13.979,0,0,1,10.576,16.675,13.87,13.87,0,0,1-6.149,8.737,13.9,13.9,0,0,1-7.459,2.18" transform="translate(-35.959 491.897)" fill="#fff"/>
      <path id="path194" d="M133.648-244.182a11.684,11.684,0,0,0-6.278,1.837,11.678,11.678,0,0,0-5.178,7.355,11.769,11.769,0,0,0,8.9,14.038,11.667,11.667,0,0,0,8.86-1.551,11.67,11.67,0,0,0,5.178-7.354,11.674,11.674,0,0,0-1.55-8.86,11.673,11.673,0,0,0-7.355-5.177A11.816,11.816,0,0,0,133.648-244.182Zm.016,24.212a12.459,12.459,0,0,1-2.721-.3,12.469,12.469,0,0,1-9.433-14.872A12.372,12.372,0,0,1,127-242.935a12.375,12.375,0,0,1,9.386-1.642,12.468,12.468,0,0,1,9.433,14.872,12.476,12.476,0,0,1-12.151,9.735" transform="translate(-36.545 491.259)" fill="#fff"/>
      <path id="path196" d="M140.831-227.62a4.233,4.233,0,0,1-1.808,2.6,4,4,0,0,1-2.015.685l-.176.783a1.462,1.462,0,0,1-.613.9,1.376,1.376,0,0,1-1.063.193,1.426,1.426,0,0,1-.915-.635,1.443,1.443,0,0,1-.2-1.084l.142-.635-1.3-.29a2.1,2.1,0,0,1-1.3-.809,1.729,1.729,0,0,1-.222-1.374c.227-1.017,1.024-1.377,2.256-1.1l3.072.686a.692.692,0,0,0,.443-.058.577.577,0,0,0,.338-.414.57.57,0,0,0-.185-.619,1.038,1.038,0,0,0-.2-.122l-.1-.042-1.465-.328a4.041,4.041,0,0,1-2.4-1.683,3.665,3.665,0,0,1-.5-2.827,4.118,4.118,0,0,1,1.827-2.552,4.194,4.194,0,0,1,2.457-.646l.116-.522a1.379,1.379,0,0,1,.643-.895,1.4,1.4,0,0,1,1.09-.187,1.4,1.4,0,0,1,.879.628,1.392,1.392,0,0,1,.179,1.078l-.1.467.495.111c1.223.274,1.81,1.022,1.582,2.04-.251,1.12-1.1,1.557-2.326,1.283l-2.865-.641a.514.514,0,0,0-.657.392.5.5,0,0,0,.313.658l1.41.315a4.3,4.3,0,0,1,2.6,1.69,3.637,3.637,0,0,1,.564,2.949" transform="translate(-39.592 489.374)" fill="#253561"/>
      <path id="path198" d="M151.359-223.934a1.22,1.22,0,0,1-1.458.924,1.22,1.22,0,0,1-.924-1.458,1.22,1.22,0,0,1,1.458-.923,1.219,1.219,0,0,1,.924,1.457" transform="translate(-44.909 485.392)" fill="#253561"/>
      <path id="path200" d="M127.418-229.292a1.221,1.221,0,0,1-1.457.924,1.221,1.221,0,0,1-.924-1.457,1.22,1.22,0,0,1,1.457-.925,1.221,1.221,0,0,1,.924,1.458" transform="translate(-37.691 487.008)" fill="#253561"/>
      <path id="path202" d="M111.745-179.277a22.759,22.759,0,0,1-15.7,28.1,22.76,22.76,0,0,1-28.1-15.7,22.761,22.761,0,0,1,15.7-28.1,22.76,22.76,0,0,1,28.1,15.7" transform="translate(-20.224 476.474)" fill="#253561"/>
      <path id="path204" d="M108.25-180.106a22.761,22.761,0,0,1-15.7,28.1,22.761,22.761,0,0,1-28.1-15.7,22.762,22.762,0,0,1,15.7-28.1,22.761,22.761,0,0,1,28.1,15.7" transform="translate(-19.17 476.724)" fill="#253561"/>
      <path id="path206" d="M108.25-180.106a22.761,22.761,0,0,1-15.7,28.1,22.761,22.761,0,0,1-28.1-15.7,22.762,22.762,0,0,1,15.7-28.1,22.761,22.761,0,0,1,28.1,15.7" transform="translate(-19.17 476.724)" fill="#f9aa39"/>
      <path id="path208" d="M85.779-195.881a21.441,21.441,0,0,0-5.853.819,21.391,21.391,0,0,0-14.736,26.379,21.391,21.391,0,0,0,26.378,14.734,21.216,21.216,0,0,0,12.83-10.137,21.221,21.221,0,0,0,1.9-16.239,21.223,21.223,0,0,0-10.137-12.832,21.254,21.254,0,0,0-10.387-2.723Zm-.023,45.537A24.2,24.2,0,0,1,62.5-167.922,24.188,24.188,0,0,1,79.165-197.75a24.185,24.185,0,0,1,29.828,16.661A24.187,24.187,0,0,1,92.331-151.26a24.127,24.127,0,0,1-6.575.916" transform="translate(-18.569 477.326)" fill="#253561"/>
      <path id="path210" d="M88.124-190.132a17.993,17.993,0,0,0-4.911.686,18.005,18.005,0,0,0-12.4,22.2,18.011,18.011,0,0,0,22.2,12.4,17.862,17.862,0,0,0,10.792-8.537,17.856,17.856,0,0,0,1.611-13.665,17.862,17.862,0,0,0-8.537-10.793,17.915,17.915,0,0,0-8.754-2.3Zm0,36.673a18.715,18.715,0,0,1-17.982-13.593,18.7,18.7,0,0,1,12.884-23.065,18.542,18.542,0,0,1,14.2,1.673,18.551,18.551,0,0,1,8.867,11.211,18.551,18.551,0,0,1-1.672,14.2,18.548,18.548,0,0,1-11.21,8.867,18.623,18.623,0,0,1-5.084.71" transform="translate(-20.933 474.963)" fill="#fff"/>
      <path id="path212" d="M88.711-187.138a15.976,15.976,0,0,0-4.356.609,15.842,15.842,0,0,0-9.573,7.572,15.844,15.844,0,0,0-1.429,12.12,15.842,15.842,0,0,0,7.572,9.572,15.845,15.845,0,0,0,12.12,1.43,15.845,15.845,0,0,0,9.573-7.573,15.841,15.841,0,0,0,1.429-12.12,15.843,15.843,0,0,0-7.571-9.572,15.886,15.886,0,0,0-7.765-2.038Zm-.023,32.609a16.593,16.593,0,0,1-8.1-2.125,16.539,16.539,0,0,1-7.9-9.992,16.531,16.531,0,0,1,1.49-12.652,16.53,16.53,0,0,1,9.992-7.9,16.527,16.527,0,0,1,12.652,1.49,16.53,16.53,0,0,1,7.9,9.991,16.533,16.533,0,0,1-1.489,12.652,16.535,16.535,0,0,1-9.992,7.9,16.655,16.655,0,0,1-4.549.636" transform="translate(-21.723 474.06)" fill="#fff"/>
      <path id="path214" d="M99.575-167.906a5.7,5.7,0,0,1-.472,4.246,5.386,5.386,0,0,1-1.949,2.107l.295,1.042a1.957,1.957,0,0,1-.149,1.461,1.849,1.849,0,0,1-1.135.911,1.922,1.922,0,0,1-1.493-.167,1.942,1.942,0,0,1-.931-1.156l-.239-.845-1.724.49a2.831,2.831,0,0,1-2.058-.128,2.324,2.324,0,0,1-1.143-1.485c-.384-1.351.328-2.29,1.965-2.754l4.081-1.155a.933.933,0,0,0,.489-.353.779.779,0,0,0,.134-.709.767.767,0,0,0-.616-.616,1.318,1.318,0,0,0-.313-.018c-.091.011-.144.012-.144.012l-1.947.551a5.436,5.436,0,0,1-3.921-.456,4.945,4.945,0,0,1-2.412-3.027,5.553,5.553,0,0,1,.526-4.195,5.651,5.651,0,0,1,2.5-2.342l-.2-.7a1.857,1.857,0,0,1,.187-1.472,1.883,1.883,0,0,1,1.171-.921,1.9,1.9,0,0,1,1.444.18,1.9,1.9,0,0,1,.906,1.164l.175.62.657-.185c1.625-.46,2.8.051,3.184,1.4.422,1.489-.309,2.553-1.934,3.014l-3.807,1.078a.693.693,0,0,0-.526.885c.116.41.434.682.794.58l1.873-.531a5.793,5.793,0,0,1,4.166.333,4.9,4.9,0,0,1,2.562,3.133" transform="translate(-25.838 471.591)" fill="#253561"/>
      <path id="path216" d="M112.727-168.627a1.643,1.643,0,0,1-1.133,2.028,1.642,1.642,0,0,1-2.028-1.132,1.644,1.644,0,0,1,1.133-2.028,1.644,1.644,0,0,1,2.028,1.132" transform="translate(-33.016 468.629)" fill="#253561"/>
      <path id="path218" d="M80.939-159.625a1.643,1.643,0,0,1-1.132,2.028,1.641,1.641,0,0,1-2.028-1.133,1.642,1.642,0,0,1,1.132-2.027,1.643,1.643,0,0,1,2.028,1.132" transform="translate(-23.432 465.914)" fill="#253561"/>
      <path id="path220" d="M292.7-370.537l-96.925-4.832a8.246,8.246,0,0,1-7.824-8.646l7.268-145.817a24.948,24.948,0,0,1,26.159-23.674L285.72-550.3A24.947,24.947,0,0,1,309.4-524.14L302.166-379.1a9.024,9.024,0,0,1-9.461,8.563" transform="translate(-56.667 584.322)" fill="#253561"/>
      <path id="path222" d="M283.777-370.537l-96.925-4.832a8.246,8.246,0,0,1-7.825-8.646L186.3-529.832a24.949,24.949,0,0,1,26.159-23.674l64.338,3.207a24.949,24.949,0,0,1,23.675,26.159L293.238-379.1a9.023,9.023,0,0,1-9.46,8.563" transform="translate(-53.975 584.322)" fill="#fff"/>
      <path id="path224" d="M283.243-372.535a7.612,7.612,0,0,0,8-7.237l7.231-145.04a23.579,23.579,0,0,0-22.349-24.695l-64.338-3.207a23.393,23.393,0,0,0-16.976,6.06,23.393,23.393,0,0,0-7.719,16.289l-7.269,145.817a6.857,6.857,0,0,0,6.5,7.181l96.925,4.832m.385,2.8c-.173,0-.347,0-.522-.013l-96.925-4.832a9.654,9.654,0,0,1-9.151-10.11L184.3-530.5a26.167,26.167,0,0,1,8.634-18.22,26.207,26.207,0,0,1,18.989-6.779l64.338,3.207a26.376,26.376,0,0,1,25,27.624L294.03-379.632a10.434,10.434,0,0,1-10.4,9.9" transform="translate(-53.372 584.925)" fill="#253561"/>
      <path id="path226" d="M268.916-550.936l0-.03-91.7-4.572c-10.555-.526-19.556,7.974-20.1,18.984l-.377,7.573,92.74,4.623.377-7.574c.531-10.647,8.966-18.945,19.066-19.005" transform="translate(-47.256 584.932)" fill="#fff"/>
      <path id="path228" d="M157.595-530.909l89.949,4.483.308-6.177a21.516,21.516,0,0,1,11.276-18.026l-82.586-4.117a17.241,17.241,0,0,0-12.777,4.787,18.884,18.884,0,0,0-5.864,12.872l-.307,6.178m91.275,7.345-.069,0-92.74-4.622a1.4,1.4,0,0,1-1.326-1.465l.377-7.573a21.669,21.669,0,0,1,6.735-14.765,20,20,0,0,1,14.833-5.545l91.7,4.572a1.4,1.4,0,0,1,.971.463,1.4,1.4,0,0,1,.354,1.017,1.425,1.425,0,0,1-1.388,1.342c-9.423.056-17.187,7.821-17.679,17.678l-.377,7.573a1.4,1.4,0,0,1-.457.967,1.4,1.4,0,0,1-.938.361" transform="translate(-46.653 585.535)" fill="#253561"/>
      <path id="path230" d="M248.779-525.219,158.83-529.7l.307-6.178A18.885,18.885,0,0,1,165-548.753a17.259,17.259,0,0,1,11.925-4.807q.425,0,.852.02l82.586,4.117A21.516,21.516,0,0,0,249.087-531.4l-.308,6.177" transform="translate(-47.889 584.329)" fill="#ebebf0"/>
      <path id="path232" d="M249.473-524.357l-92.74-4.623.377-7.573c.533-10.687,9.026-19.007,19.176-19.007.307,0,.618.008.929.023l91.7,4.572,0,.03c-10.1.06-18.535,8.359-19.066,19.005l-.377,7.573m-73.179-29.806a17.259,17.259,0,0,0-11.925,4.807,18.884,18.884,0,0,0-5.864,12.872l-.307,6.178,89.949,4.483.308-6.177a21.516,21.516,0,0,1,11.276-18.026l-82.586-4.117q-.427-.021-.852-.021" transform="translate(-47.256 584.932)" fill="#253561"/>
      <path id="path234" d="M219.574-495l23.374,1.165" transform="translate(-66.203 566.672)" fill="#fff"/>
      <path id="path236" d="M242.346-493.038l-.07,0L218.9-494.205a1.4,1.4,0,0,1-1.325-1.465A1.409,1.409,0,0,1,219.04-497l23.375,1.165a1.4,1.4,0,0,1,1.325,1.465,1.4,1.4,0,0,1-1.394,1.327" transform="translate(-65.601 567.275)" fill="#253561"/>
      <path id="path238" d="M295.459-490.247l23.375,1.165" transform="translate(-89.083 565.24)" fill="#fff"/>
      <path id="path240" d="M318.232-488.288l-.07,0-23.375-1.165a1.4,1.4,0,0,1-1.326-1.465,1.407,1.407,0,0,1,1.464-1.325L318.3-491.08a1.4,1.4,0,0,1,1.325,1.465,1.4,1.4,0,0,1-1.394,1.327" transform="translate(-88.481 565.843)" fill="#253561"/>
      <path id="path242" d="M217.606-455.54l46.428,2.027" transform="translate(-65.61 554.775)" fill="#fff"/>
      <path id="path244" d="M263.432-452.72h-.062l-46.427-2.027a1.4,1.4,0,0,1-1.336-1.457,1.377,1.377,0,0,1,1.458-1.336l46.427,2.028a1.4,1.4,0,0,1,1.336,1.457,1.4,1.4,0,0,1-1.4,1.336" transform="translate(-65.007 555.379)" fill="#253561"/>
      <path id="path246" d="M215.75-433.8l19.36,1.082" transform="translate(-65.05 548.221)" fill="#fff"/>
      <path id="path248" d="M234.508-431.925l-.079,0L215.07-433.01a1.4,1.4,0,0,1-1.318-1.472,1.4,1.4,0,0,1,1.473-1.317l19.36,1.082a1.4,1.4,0,0,1,1.317,1.472,1.4,1.4,0,0,1-1.394,1.32" transform="translate(-64.447 548.824)" fill="#253561"/>
      <path id="path250" d="M218.589-475.252l33.334,1.662" transform="translate(-65.906 560.719)" fill="#fff"/>
      <path id="path252" d="M251.321-472.8l-.07,0-33.334-1.662a1.4,1.4,0,0,1-1.326-1.465,1.4,1.4,0,0,1,1.465-1.325l33.334,1.661a1.4,1.4,0,0,1,1.325,1.465,1.4,1.4,0,0,1-1.394,1.328" transform="translate(-65.303 561.321)" fill="#253561"/>
      <path id="path254" d="M277.881-472.3l4.327.216" transform="translate(-83.783 559.827)" fill="#fff"/>
      <path id="path256" d="M281.606-471.286l-.072,0-4.326-.216a1.4,1.4,0,0,1-1.325-1.465,1.374,1.374,0,0,1,1.465-1.325l4.327.216A1.4,1.4,0,0,1,283-472.615a1.4,1.4,0,0,1-1.394,1.328" transform="translate(-83.18 560.431)" fill="#253561"/>
      <path id="path258" d="M320.48-448.492a9.775,9.775,0,0,1-3.047,6.661,9.231,9.231,0,0,1-4.3,2.382l-.079,1.854a3.36,3.36,0,0,1-1.027,2.3,3.166,3.166,0,0,1-2.338.874,3.292,3.292,0,0,1-2.342-1.073,3.33,3.33,0,0,1-.893-2.382l.063-1.5-3.07-.13a4.848,4.848,0,0,1-3.283-1.311,4,4,0,0,1-1.067-3.032c.1-2.406,1.768-3.552,4.682-3.427l7.263.309a1.6,1.6,0,0,0,.986-.312,1.333,1.333,0,0,0,.6-1.081,1.316,1.316,0,0,0-.672-1.333,2.344,2.344,0,0,0-.5-.2c-.153-.029-.24-.055-.24-.055l-3.467-.147a9.336,9.336,0,0,1-6.137-2.849,8.474,8.474,0,0,1-2.3-6.225,9.515,9.515,0,0,1,3.11-6.546,9.68,9.68,0,0,1,5.325-2.473l.052-1.236a3.2,3.2,0,0,1,1.093-2.3,3.236,3.236,0,0,1,2.4-.871,3.252,3.252,0,0,1,2.255,1.069,3.234,3.234,0,0,1,.848,2.38l-.047,1.1,1.171.05c2.893.122,4.534,1.586,4.431,3.993-.113,2.65-1.874,3.99-4.766,3.867l-6.778-.289a1.19,1.19,0,0,0-1.332,1.159c-.031.728.341,1.342.981,1.369l3.334.142a9.929,9.929,0,0,1,6.6,2.781,8.39,8.39,0,0,1,2.489,6.475" transform="translate(-90.177 559.918)" fill="#253561"/>
      <path id="path260" d="M320.078-448.894l-.93-.04a8.844,8.844,0,0,1-2.756,6.023l-.006.006,0,0a8.3,8.3,0,0,1-3.876,2.146l-.681.165-.109,2.555h0a2.429,2.429,0,0,1-.738,1.664l-.006.006,0,0a2.231,2.231,0,0,1-1.553.618l-.1,0a2.359,2.359,0,0,1-1.7-.771v0a2.408,2.408,0,0,1-.65-1.62l0-.092.1-2.432-4-.17a3.921,3.921,0,0,1-2.665-1.04l-.658.659.667-.65a3.008,3.008,0,0,1-.807-2.165l0-.177a3.058,3.058,0,0,1,.251-1.154,2.018,2.018,0,0,1,1-1,4.754,4.754,0,0,1,2.08-.389c.123,0,.25,0,.379.008l7.264.309.09,0a2.517,2.517,0,0,0,1.506-.508l-.571-.736.534.764a2.347,2.347,0,0,0,.722-.793,2.315,2.315,0,0,0,.274-1.01v0l0-.142a2.431,2.431,0,0,0-.285-1.191,2.191,2.191,0,0,0-.869-.855l-.016-.008-.017-.008a3.3,3.3,0,0,0-.7-.271l-.024-.006-.024,0-.13-.028-.026-.007h0l-.142.508.147-.507h-.006l-.142.508.147-.507-.108-.032-3.58-.152-.04.93.066-.929a8.406,8.406,0,0,1-5.526-2.56l0,0a7.533,7.533,0,0,1-2.058-5.206c0-.114,0-.228.007-.344a8.589,8.589,0,0,1,2.809-5.9,8.756,8.756,0,0,1,4.811-2.234l.781-.1.086-2.023h0a2.253,2.253,0,0,1,.793-1.653h0a2.282,2.282,0,0,1,1.613-.63l.122,0a2.317,2.317,0,0,1,1.608.768l.685-.63-.7.617a2.282,2.282,0,0,1,.617,1.6l0,.128,0,.052-.045,1.052-.039.93,2.1.089a4.408,4.408,0,0,1,2.706.859,2.456,2.456,0,0,1,.838,1.992l0,.172a2.938,2.938,0,0,1-.918,2.223,3.817,3.817,0,0,1-2.558.759c-.1,0-.211,0-.319-.007l-6.777-.289-.113,0a2.215,2.215,0,0,0-1.528.575,2.121,2.121,0,0,0-.661,1.479h0l0,.124a2.43,2.43,0,0,0,.44,1.441,1.859,1.859,0,0,0,1.435.775l3.334.142a9,9,0,0,1,5.988,2.511l0,0h0a7.411,7.411,0,0,1,2.219,5.4c0,.123,0,.246-.008.37l.93.04.93.039c.007-.15.01-.3.01-.449a9.286,9.286,0,0,0-2.778-6.732l0,0a10.861,10.861,0,0,0-7.221-3.05l-3.334-.142h-.007l-.008.03.02-.024-.011-.006-.008.03.02-.024-.049-.083a.731.731,0,0,1-.047-.277v-.044h0a.261.261,0,0,1,.071-.2.364.364,0,0,1,.258-.074h.034l6.777.289c.135.006.267.008.4.008a5.644,5.644,0,0,0,3.776-1.213,4.8,4.8,0,0,0,1.561-3.554c0-.084.006-.168.006-.251a4.34,4.34,0,0,0-1.493-3.41,6.224,6.224,0,0,0-3.835-1.3l-.24-.01.007-.174h0l0-.207a4.165,4.165,0,0,0-1.087-2.832l-.006-.006-.006-.007a4.183,4.183,0,0,0-2.9-1.369l-.2,0a4.162,4.162,0,0,0-2.872,1.119h0a4.14,4.14,0,0,0-1.393,2.943h0l-.053,1.236.931.04-.116-.924a10.613,10.613,0,0,0-5.839,2.71,10.446,10.446,0,0,0-3.41,7.194c-.007.142-.009.283-.009.423a9.4,9.4,0,0,0,2.558,6.475l0,0h0a10.268,10.268,0,0,0,6.749,3.139h.013l3.48.147.039-.93-.261.894c.024.007.14.04.327.075l.174-.915-.223.9a1.473,1.473,0,0,1,.3.126l.419-.832-.452.814a.319.319,0,0,1,.142.126.6.6,0,0,1,.053.292v.062l0,.026,0-.027a.454.454,0,0,1-.048.2.487.487,0,0,1-.154.159l-.019.013-.019.014-.364.117h-.011l-7.264-.309c-.155-.007-.307-.009-.458-.009a5.791,5.791,0,0,0-3.669,1.063,3.819,3.819,0,0,0-1.105,1.416,4.926,4.926,0,0,0-.418,1.851c0,.086-.006.171-.006.256a4.876,4.876,0,0,0,1.336,3.465l0,0,0,0a5.772,5.772,0,0,0,3.9,1.583l2.139.091-.024.571h0l0,.172a4.267,4.267,0,0,0,1.142,2.881h0a4.232,4.232,0,0,0,2.99,1.374l.181,0a4.093,4.093,0,0,0,2.839-1.133h0a4.294,4.294,0,0,0,1.316-2.936h0l.079-1.855-.93-.039.219.905a10.177,10.177,0,0,0,4.734-2.619l-.648-.669.639.678a10.707,10.707,0,0,0,3.339-7.3l-.93-.039" transform="translate(-89.775 560.32)" fill="#fff"/>
      <path id="path262" d="M158.61-527.456l19.848.811a1.4,1.4,0,0,0,1.453-1.338,1.4,1.4,0,0,0-1.338-1.454l-19.849-.811a1.4,1.4,0,0,0-1.453,1.339,1.4,1.4,0,0,0,1.339,1.453" transform="translate(-47.418 577.301)" fill="#253561"/>
      <path id="path264" d="M66.521-438.931,142.2-337.282l64.881-48.3L129.972-489.156l-.667,11.515-10.651-2.529-.632,10.929-10.08-2.393-.61,10.539-9.891-2.349-.6,10.344-9.891-2.348-.542,9.367-10.841-2.573-.655,11.319-8.392-1.6" transform="translate(-20.057 564.911)" fill="#54b2d8"/>
      <path id="path266" d="M69.18-437.492l72.7,97.653,62.641-46.635L130.54-485.845l-.444,7.682a1.4,1.4,0,0,1-.561,1.039,1.391,1.391,0,0,1-1.157.238l-9.029-2.144-.537,9.266a1.4,1.4,0,0,1-.561,1.039,1.386,1.386,0,0,1-1.157.239l-8.458-2.008-.515,8.875a1.394,1.394,0,0,1-.56,1.039,1.389,1.389,0,0,1-1.157.238L98.136-462.3l-.5,8.68a1.4,1.4,0,0,1-.56,1.04,1.39,1.39,0,0,1-1.157.238l-8.269-1.963-.447,7.7a1.394,1.394,0,0,1-.56,1.04,1.393,1.393,0,0,1-1.157.238l-9.22-2.19-.559,9.657a1.4,1.4,0,0,1-.535,1.021,1.407,1.407,0,0,1-1.12.271Zm72.413,101-.2-.014a1.4,1.4,0,0,1-.918-.549L64.8-438.7a1.4,1.4,0,0,1-.064-1.575,1.4,1.4,0,0,1,1.445-.631l6.828,1.3.563-9.73a1.394,1.394,0,0,1,.56-1.039,1.392,1.392,0,0,1,1.157-.239l9.22,2.19.446-7.7a1.394,1.394,0,0,1,.56-1.039,1.389,1.389,0,0,1,1.157-.239l8.269,1.963.5-8.68a1.4,1.4,0,0,1,.56-1.04,1.391,1.391,0,0,1,1.157-.238l8.269,1.963.515-8.875a1.392,1.392,0,0,1,.56-1.039,1.4,1.4,0,0,1,1.157-.239l8.459,2.009.537-9.267a1.4,1.4,0,0,1,.561-1.039,1.392,1.392,0,0,1,1.157-.238l9.029,2.144.571-9.852a1.4,1.4,0,0,1,.994-1.257,1.4,1.4,0,0,1,1.522.5L207.6-387.022a1.4,1.4,0,0,1-.287,1.955l-64.881,48.3a1.387,1.387,0,0,1-.834.277" transform="translate(-19.454 565.514)" fill="#253561"/>
      <path id="path268" d="M99.672-405.028l19.949-14.851" transform="translate(-30.052 544.023)" fill="#fff"/>
      <path id="path270" d="M99.07-404.234a1.393,1.393,0,0,1-1.122-.563,1.4,1.4,0,0,1,.287-1.954L118.183-421.6a1.4,1.4,0,0,1,1.955.287,1.4,1.4,0,0,1-.286,1.954L99.9-404.511a1.39,1.39,0,0,1-.833.277" transform="translate(-29.449 544.626)" fill="#fff"/>
      <path id="path272" d="M108.125-399.049l36.673-27.3" transform="translate(-32.601 545.974)" fill="#fff"/>
      <path id="path274" d="M107.522-398.255a1.4,1.4,0,0,1-1.121-.563,1.4,1.4,0,0,1,.287-1.955l36.672-27.3a1.4,1.4,0,0,1,1.955.287,1.4,1.4,0,0,1-.287,1.955l-36.672,27.3a1.392,1.392,0,0,1-.834.277" transform="translate(-31.997 546.577)" fill="#253561"/>
      <path id="path276" d="M166.306-432.157l4.912-3.656" transform="translate(-50.143 548.827)" fill="#fff"/>
      <path id="path278" d="M165.7-431.363a1.4,1.4,0,0,1-1.121-.563,1.4,1.4,0,0,1,.287-1.955l4.912-3.656a1.4,1.4,0,0,1,1.955.287,1.4,1.4,0,0,1-.287,1.955l-4.912,3.655a1.392,1.392,0,0,1-.834.277" transform="translate(-49.539 549.43)" fill="#fff"/>
      <path id="path280" d="M120.291-375.252l13.475-10.032" transform="translate(-36.269 533.592)" fill="#fff"/>
      <path id="path282" d="M119.689-374.458a1.393,1.393,0,0,1-1.121-.563,1.4,1.4,0,0,1,.287-1.954l13.475-10.032a1.4,1.4,0,0,1,1.955.287,1.4,1.4,0,0,1-.287,1.954l-13.475,10.032a1.393,1.393,0,0,1-.834.277" transform="translate(-35.666 534.195)" fill="#253561"/>
      <path id="path284" d="M147.913-399.923l26.257-19.547" transform="translate(-44.597 543.9)" fill="#fff"/>
      <path id="path286" d="M147.31-399.13a1.394,1.394,0,0,1-1.122-.562,1.4,1.4,0,0,1,.287-1.955l26.257-19.547a1.4,1.4,0,0,1,1.955.287,1.4,1.4,0,0,1-.287,1.954l-26.257,19.548a1.389,1.389,0,0,1-.833.276" transform="translate(-43.994 544.503)" fill="#253561"/>
      <path id="path288" d="M138.156-356.427l29.57-22.014" transform="translate(-41.655 531.529)" fill="#fff"/>
      <path id="path290" d="M137.554-355.633a1.394,1.394,0,0,1-1.121-.562,1.4,1.4,0,0,1,.287-1.955l29.57-22.014a1.4,1.4,0,0,1,1.954.287,1.4,1.4,0,0,1-.286,1.954l-29.57,22.014a1.387,1.387,0,0,1-.834.277" transform="translate(-41.052 532.132)" fill="#fff"/>
      <path id="path292" d="M200.941-362.354l13.639-10.154" transform="translate(-60.585 529.74)" fill="#fff"/>
      <path id="path294" d="M200.339-361.56a1.393,1.393,0,0,1-1.121-.563,1.4,1.4,0,0,1,.287-1.954l13.638-10.154a1.4,1.4,0,0,1,1.955.287,1.4,1.4,0,0,1-.287,1.955l-13.638,10.153a1.392,1.392,0,0,1-.834.277" transform="translate(-59.982 530.343)" fill="#253561"/>
      <path id="path296" d="M208.751-444.592,199.326-369l57.544,7.176,9.6-77.021-5.929,4.615-4.381-5.628-5.628,4.38-4.145-5.326-5.427,4.224-4.066-5.226-5.327,4.145-4.067-5.226-4.824,3.754-4.457-5.729-5.829,4.536-3.567-4.583" transform="translate(-60.099 551.57)" fill="#f9aa39"/>
      <path id="path298" d="M200.282-370.817l54.772,6.829,9.013-72.288-3.268,2.543a1.4,1.4,0,0,1-1.96-.245l-3.522-4.525-4.526,3.522a1.4,1.4,0,0,1-1.959-.244l-3.288-4.224-4.325,3.366a1.386,1.386,0,0,1-1.03.283,1.394,1.394,0,0,1-.929-.528l-3.209-4.123-4.224,3.287a1.4,1.4,0,0,1-1.96-.244l-3.21-4.123-3.722,2.9a1.381,1.381,0,0,1-1.03.284,1.394,1.394,0,0,1-.929-.528l-3.6-4.626-4.726,3.679a1.4,1.4,0,0,1-1.959-.245l-1.527-1.961Zm55.985,9.785-.172-.011-57.544-7.175a1.4,1.4,0,0,1-1.214-1.559l9.425-75.591a1.46,1.46,0,0,1,.074-.308,1.394,1.394,0,0,1,.53-.939,1.4,1.4,0,0,1,1.96.244l2.709,3.48,4.726-3.678a1.4,1.4,0,0,1,1.031-.284,1.4,1.4,0,0,1,.929.528l3.6,4.626,3.722-2.9a1.4,1.4,0,0,1,1.96.245l3.209,4.123,4.224-3.287a1.4,1.4,0,0,1,1.96.244l3.209,4.123,4.324-3.365a1.4,1.4,0,0,1,1.96.244l3.288,4.224,4.526-3.521a1.4,1.4,0,0,1,1.959.244l3.522,4.525,4.827-3.756a1.393,1.393,0,0,1,1.548-.113,1.4,1.4,0,0,1,.7,1.388l-9.6,77.02a1.387,1.387,0,0,1-.528.929,1.4,1.4,0,0,1-.858.3" transform="translate(-59.496 552.173)" fill="#253561"/>
      <path id="path300" d="M238.529-419.624l-.116-.007-17.692-2.206a.929.929,0,0,1-.808-1.038.926.926,0,0,1,1.039-.809l17.692,2.206a.931.931,0,0,1,.808,1.038.931.931,0,0,1-.923.817" transform="translate(-66.303 545.173)" fill="#fff"/>
      <path id="path302" d="M220.185-413.916l32.525,4.056" transform="translate(-66.388 542.225)" fill="#fff"/>
      <path id="path304" d="M252.308-409.331l-.116-.007-32.524-4.056a.931.931,0,0,1-.809-1.038.928.928,0,0,1,1.04-.809l32.525,4.056a.931.931,0,0,1,.808,1.038.931.931,0,0,1-.924.817" transform="translate(-65.985 542.627)" fill="#253561"/>
      <path id="path306" d="M275.742-406.41l-.116-.007-4.356-.543a.93.93,0,0,1-.808-1.039.925.925,0,0,1,1.039-.808l4.356.543a.931.931,0,0,1,.808,1.038.931.931,0,0,1-.923.817" transform="translate(-81.544 540.687)" fill="#fff"/>
      <path id="path308" d="M218.669-401.763l11.952,1.49" transform="translate(-65.93 538.561)" fill="#fff"/>
      <path id="path310" d="M230.219-399.744l-.116-.007-11.952-1.49a.93.93,0,0,1-.808-1.039.932.932,0,0,1,1.039-.808l11.952,1.49a.93.93,0,0,1,.808,1.039.93.93,0,0,1-.923.816" transform="translate(-65.529 538.963)" fill="#253561"/>
      <path id="path312" d="M243.167-398.708l23.288,2.9" transform="translate(-73.317 537.64)" fill="#fff"/>
      <path id="path314" d="M266.054-395.275l-.116-.007-23.288-2.9a.93.93,0,0,1-.808-1.039.927.927,0,0,1,1.039-.808l23.288,2.9a.931.931,0,0,1,.808,1.039.931.931,0,0,1-.923.817" transform="translate(-72.915 538.042)" fill="#253561"/>
      <path id="path316" d="M216.445-383.918l26.225,3.27" transform="translate(-65.26 533.18)" fill="#fff"/>
      <path id="path318" d="M242.269-380.119l-.116-.007L215.927-383.4a.929.929,0,0,1-.808-1.038.924.924,0,0,1,1.039-.809l26.225,3.27a.931.931,0,0,1,.808,1.039.93.93,0,0,1-.923.816" transform="translate(-64.858 533.583)" fill="#253561"/>
      <path id="path320" d="M254.835-361.787l12.1,1.509" transform="translate(-76.835 526.508)" fill="#fff"/>
      <path id="path322" d="M266.33-359.484l-.174-.011L254.059-361a1.4,1.4,0,0,1-1.213-1.559,1.39,1.39,0,0,1,1.559-1.214l12.1,1.508a1.4,1.4,0,0,1,1.214,1.559,1.4,1.4,0,0,1-1.385,1.225" transform="translate(-76.232 527.111)" fill="#253561"/>
      <path id="path324" d="M355.557-294.527l-150.25,36.272a8.816,8.816,0,0,1-10.639-6.5L170.759-363.79a8.817,8.817,0,0,1,6.5-10.639L327.511-410.7a8.817,8.817,0,0,1,10.639,6.5l23.909,99.035a8.818,8.818,0,0,1-6.5,10.639" transform="translate(-51.411 541.331)" fill="#5777c4"/>
      <path id="path326" d="M354.955-295.13h0M328.977-410.155a7.409,7.409,0,0,0-1.742.208L176.985-373.674a7.429,7.429,0,0,0-5.471,8.954l23.909,99.034a7.375,7.375,0,0,0,3.344,4.591,7.371,7.371,0,0,0,5.609.88l150.251-36.272h0a7.429,7.429,0,0,0,5.471-8.954l-23.909-99.035a7.433,7.433,0,0,0-7.212-5.678M202.617-257.211a10.15,10.15,0,0,1-5.306-1.5,10.154,10.154,0,0,1-4.6-6.318L168.8-364.065a10.225,10.225,0,0,1,7.532-12.325l150.25-36.273a10.226,10.226,0,0,1,12.325,7.531L362.814-306.1a10.225,10.225,0,0,1-7.531,12.324h0L205.033-257.5a10.283,10.283,0,0,1-2.416.29" transform="translate(-50.808 541.934)" fill="#253561"/>
      <path id="path328" d="M356.428-403.355l.008-.16.123-.031-.053.172-.077.019" transform="translate(-107.466 539.098)" fill="#a2aec5"/>
      <path id="path330" d="M356.539-404.415l.053-.172,9.047-2.205L366.5-407l-.061.2-9.9,2.389" transform="translate(-107.5 540.14)" fill="#253561"/>
      <path id="path332" d="M375.236-408.954l.064-.2,8.807-2.147a14.21,14.21,0,0,1,1.564-.291l-.042.133-10.393,2.509" transform="translate(-113.137 541.526)" fill="#2b3d6a"/>
      <path id="path334" d="M370.706-407.138l.061-.2,3.167-.772-.064.2-3.165.765" transform="translate(-111.771 540.474)" fill="#253561"/>
      <path id="path336" d="M390.115-411.5l.042-.133c.285-.036.569-.063.852-.083l-.894.216" transform="translate(-117.623 541.562)" fill="#253561"/>
      <path id="path338" d="M349.419-402.16l.007-.149,4.9-1.193-.008.16-4.9,1.182" transform="translate(-105.353 539.085)" fill="#253561"/>
      <path id="path340" d="M306.375-394.09l-.017-.071,27.253-6.644-.007.142-27.23,6.573" transform="translate(-92.37 538.272)" fill="#b0b5c8"/>
      <path id="path342" d="M345.366-400.961l.007-.142,2.832-.691-.007.149-2.831.684" transform="translate(-104.131 538.57)" fill="#253561"/>
      <path id="path344" d="M235.774-262l-3.689-15.132c-2.987-12.248,7.484-25.319,23.384-29.2,5.7-1.389,9.447-6.072,8.378-10.46-2.529-10.37,6.336-21.436,19.8-24.718,7.089-1.729,11.758-7.557,10.426-13.018l-9.583-39.31,61.76-14.91a7.409,7.409,0,0,1,1.742-.208,7.433,7.433,0,0,1,7.212,5.678l23.909,99.035a7.429,7.429,0,0,1-5.472,8.954h0L235.774-262" transform="translate(-69.822 540.727)" fill="#4462b7"/>
      <path id="path346" d="M237.937-261.4l-.351-1.443,137.868-33.284h0a7.429,7.429,0,0,0,5.472-8.954l-23.909-99.035A7.433,7.433,0,0,0,349.8-409.8a7.409,7.409,0,0,0-1.742.208L286.3-394.678l-.662-2.714,27.23-6.573,2.831-.684,4.9-1.182.077-.019,9.9-2.389,3.165-.765,10.393-2.509.894-.216c.31-.02.618-.03.926-.03a14.064,14.064,0,0,1,13.648,10.732L381.956-309.3a12.427,12.427,0,0,1-9.131,15.018L237.937-261.4" transform="translate(-71.634 541.574)" fill="#253561"/>
      <path id="path348" d="M243.758-274.6l-20.408,4.975a.951.951,0,0,1-1.149-.7L221.16-274.6a.951.951,0,0,1,.7-1.15l20.407-4.975a.951.951,0,0,1,1.149.7l1.042,4.272a.952.952,0,0,1-.7,1.149" transform="translate(-66.673 502.075)" fill="#253561"/>
      <path id="path350" d="M281.2-283.73l-20.406,4.974a.952.952,0,0,1-1.151-.7l-1.041-4.271a.953.953,0,0,1,.7-1.15l20.407-4.975a.952.952,0,0,1,1.15.7l1.041,4.272a.953.953,0,0,1-.7,1.15" transform="translate(-77.961 504.827)" fill="#253561"/>
      <path id="path352" d="M317.837-292.665l-20.407,4.976a.952.952,0,0,1-1.149-.7l-1.042-4.272a.953.953,0,0,1,.7-1.149l20.407-4.975a.952.952,0,0,1,1.15.7l1.041,4.271a.951.951,0,0,1-.7,1.149" transform="translate(-89.009 507.52)" fill="#253561"/>
      <path id="path354" d="M354.479-301.6l-20.408,4.975a.951.951,0,0,1-1.149-.7l-1.041-4.271a.952.952,0,0,1,.7-1.15l20.406-4.975a.951.951,0,0,1,1.149.7l1.042,4.271a.953.953,0,0,1-.7,1.15" transform="translate(-100.057 510.214)" fill="#253561"/>
      <path id="path356" d="M244.583-251.983l-16.8,4.1a.951.951,0,0,1-1.15-.7l-.513-2.107a.952.952,0,0,1,.7-1.15l16.8-4.1a.951.951,0,0,1,1.149.7l.514,2.107a.952.952,0,0,1-.7,1.149" transform="translate(-68.169 494.602)" fill="#fff"/>
      <path id="path358" d="M383.733-385.885l-17.06,2.813a.952.952,0,0,1-1.094-.784L365.226-386a.952.952,0,0,1,.784-1.094l17.06-2.813a.954.954,0,0,1,1.094.784l.352,2.14a.951.951,0,0,1-.783,1.093" transform="translate(-110.115 534.989)" fill="#fff"/>
      <path id="path360" d="M272.242-362.732l-67.469,16.449a1.281,1.281,0,0,1-1.547-.941l-.691-2.835a1.28,1.28,0,0,1,.942-1.547l67.468-16.449a1.279,1.279,0,0,1,1.547.941l.692,2.835a1.281,1.281,0,0,1-.941,1.547" transform="translate(-61.055 528.409)" fill="#fff"/>
      <path id="path362" d="M278.658-260.44l-16.8,4.1a.952.952,0,0,1-1.149-.7l-.514-2.107a.949.949,0,0,1,.7-1.149l16.8-4.1a.952.952,0,0,1,1.15.7l.513,2.108a.951.951,0,0,1-.7,1.149" transform="translate(-78.443 497.152)" fill="#fff"/>
      <path id="path364" d="M311.894-268.28l-16.8,4.1a.95.95,0,0,1-1.149-.7l-.514-2.107a.95.95,0,0,1,.7-1.149l16.8-4.1a.95.95,0,0,1,1.149.7l.514,2.108a.951.951,0,0,1-.7,1.149" transform="translate(-88.464 499.515)" fill="#fff"/>
      <path id="path366" d="M248.025-234.4l-16.8,4.1a.952.952,0,0,1-1.151-.7l-.512-2.107a.951.951,0,0,1,.7-1.149l16.8-4.1a.952.952,0,0,1,1.149.7l.513,2.108a.952.952,0,0,1-.7,1.15" transform="translate(-69.207 489.301)" fill="#f9aa39"/>
      <path id="path368" d="M242.365-306.585,217.8-300.654a2.533,2.533,0,0,1-3.056-1.867l-1.784-7.39-1.638-6.79a2.531,2.531,0,0,1,1.866-3.055l24.565-5.931a2.532,2.532,0,0,1,3.055,1.866l3.424,14.181a2.532,2.532,0,0,1-1.867,3.055" transform="translate(-63.694 515.645)" fill="#f9aa39"/>
      <path id="path370" d="M211.509-305.741l30.97-7.8" transform="translate(-63.772 511.961)" fill="#f9aa39"/>
      <path id="path372" d="M210.9-304.946A1.4,1.4,0,0,1,209.552-306a1.4,1.4,0,0,1,1.013-1.7l30.97-7.8a1.4,1.4,0,0,1,1.7,1.013,1.4,1.4,0,0,1-1.013,1.7l-30.97,7.8a1.4,1.4,0,0,1-.342.043" transform="translate(-63.169 512.564)" fill="#5777c4"/>
      <path id="path374" d="M237.134-310.6a4.718,4.718,0,0,1-4.244,5.149,4.719,4.719,0,0,1-5.149-4.244,4.717,4.717,0,0,1,4.244-5.149,4.718,4.718,0,0,1,5.149,4.244" transform="translate(-68.659 512.361)" fill="#f9aa39"/>
      <path id="path376" d="M231.839-314.072c-.107,0-.215.006-.324.016a3.3,3.3,0,0,0-2.244,1.193,3.3,3.3,0,0,0-.743,2.432,3.318,3.318,0,0,0,3.625,2.988,3.3,3.3,0,0,0,2.244-1.194,3.3,3.3,0,0,0,.743-2.431,3.3,3.3,0,0,0-1.194-2.244,3.3,3.3,0,0,0-2.107-.759Zm-.009,9.438a6.125,6.125,0,0,1-6.084-5.529,6.076,6.076,0,0,1,1.369-4.477,6.07,6.07,0,0,1,4.133-2.2,6.124,6.124,0,0,1,6.674,5.5,6.123,6.123,0,0,1-5.5,6.674q-.3.029-.59.029" transform="translate(-68.056 512.964)" fill="#5777c4"/>
      <path id="path378" d="M385.141-271.041a9.118,9.118,0,0,1,1.024-7.3,9.112,9.112,0,0,0-6.6-.636,9.154,9.154,0,0,0-6.308,11.3,9.153,9.153,0,0,0,11.3,6.307,9.106,9.106,0,0,0,5.285-4.007,9.117,9.117,0,0,1-4.7-5.672" transform="translate(-112.434 501.643)" fill="#fff"/>
      <path id="path380" d="M401.049-285.018a9.109,9.109,0,0,0-5.283,4.007,9.12,9.12,0,0,0-1.024,7.3,9.118,9.118,0,0,0,4.7,5.671,9.1,9.1,0,0,0,6.6.636,9.153,9.153,0,0,0,6.308-11.3,9.155,9.155,0,0,0-11.3-6.308" transform="translate(-118.913 503.467)" fill="#f9aa39"/>
      <path id="path382" d="M412.762-520.738a1.307,1.307,0,0,1,.513-.555l15.167-8.97a1.321,1.321,0,0,1,1.808.464,1.325,1.325,0,0,1-.464,1.808l-15.168,8.971a1.321,1.321,0,0,1-1.808-.465,1.318,1.318,0,0,1-.048-1.252" transform="translate(-124.411 577.36)" fill="#253561"/>
      <path id="path384" d="M398.05-530.777a1.292,1.292,0,0,1,.052-.542l7.305-23.439a1.318,1.318,0,0,1,1.651-.866,1.318,1.318,0,0,1,.867,1.651l-7.306,23.44a1.319,1.319,0,0,1-1.652.866,1.321,1.321,0,0,1-.917-1.109" transform="translate(-120.013 584.97)" fill="#253561"/>
      <path id="path386" d="M361.789-552.283A1.318,1.318,0,0,1,362.37-554a1.319,1.319,0,0,1,1.783.549l12.494,23.635a1.321,1.321,0,0,1-.55,1.782,1.318,1.318,0,0,1-1.783-.549L361.82-552.218l-.031-.064" transform="translate(-109.046 584.508)" fill="#253561"/>
      <path id="path388" d="M301.454-105.4a1.141,1.141,0,0,1-.491.432L287.107-98.6a1.142,1.142,0,0,1-1.514-.561,1.146,1.146,0,0,1,.56-1.515l13.857-6.367a1.144,1.144,0,0,1,1.514.562,1.141,1.141,0,0,1-.07,1.082" transform="translate(-86.077 449.732)" fill="#253561"/>
      <path id="path390" d="M316.143-100.821a1.13,1.13,0,0,1-.093.463l-8.383,19.523a1.141,1.141,0,0,1-1.5.6,1.141,1.141,0,0,1-.6-1.5l8.383-19.523a1.139,1.139,0,0,1,1.5-.6,1.141,1.141,0,0,1,.692,1.036" transform="translate(-92.104 448.165)" fill="#253561"/>
      <path id="path392" d="M344.421-79.623a1.142,1.142,0,0,1-.653,1.428,1.143,1.143,0,0,1-1.486-.633l-8.643-21.461a1.143,1.143,0,0,1,.632-1.485,1.141,1.141,0,0,1,1.485.632L344.4-79.68l.02.058" transform="translate(-100.571 448.136)" fill="#253561"/>
      <path id="path394" d="M84.106-306.467,83.477-322.5l27.606,25.668-25.51,27.752-.629-16.029s-23.823-4.782-38.866,22.927a39.2,39.2,0,0,1,12.579-36.188s7.85-7.941,25.448-8.1" transform="translate(-13.707 514.662)" fill="#f9aa39"/>
      <path id="path396" d="M84.419-319.772l.5,12.647a1.4,1.4,0,0,1-.385,1.019,1.4,1.4,0,0,1-1,.433c-16.828.151-24.393,7.61-24.468,7.685a38.106,38.106,0,0,0-12.694,30.95c15.41-24.3,38.024-20.089,38.262-20.041a1.4,1.4,0,0,1,1.122,1.315l.5,12.645,22.277-24.236ZM45.491-261.385l-.186-.013a1.4,1.4,0,0,1-1.174-1.064,40.971,40.971,0,0,1,13-37.546c.271-.277,7.968-7.869,24.932-8.429l-.573-14.609a1.4,1.4,0,0,1,.813-1.324,1.4,1.4,0,0,1,1.534.247l27.606,25.667a1.4,1.4,0,0,1,.077,1.968L86.015-268.736a1.4,1.4,0,0,1-1.511.367,1.4,1.4,0,0,1-.914-1.257L83.007-284.5c-4.727-.539-23.559-1.065-36.288,22.383a1.4,1.4,0,0,1-1.228.73" transform="translate(-13.121 515.264)" fill="#253561"/>
      <path id="path398" d="M493.546-238.915l-.445,16.037-25.826-27.459,27.31-25.981-.445,16.035s23.45,6.367,40.315-20.274a39.194,39.194,0,0,1-14.974,35.264s-8.365,7.4-25.935,6.378" transform="translate(-140.887 502.016)" fill="#f9aa39"/>
      <path id="path400" d="M468.641-250.884l22.554,23.98.352-12.652a1.4,1.4,0,0,1,.451-.99,1.4,1.4,0,0,1,1.026-.365c16.707.959,24.852-5.962,24.931-6.032a38.027,38.027,0,0,0,14.744-30.04c-17,23.222-39.3,17.51-39.528,17.445a1.4,1.4,0,0,1-1.03-1.387l.351-12.649Zm23.857,28.8a1.394,1.394,0,0,1-1.018-.441l-25.826-27.458a1.4,1.4,0,0,1,.055-1.969l27.31-25.982a1.4,1.4,0,0,1,1.532-.264,1.4,1.4,0,0,1,.827,1.315L494.965-262c4.679.858,23.434,2.639,37.705-19.9a1.392,1.392,0,0,1,1.458-.621,1.393,1.393,0,0,1,1.1,1.14A40.969,40.969,0,0,1,519.74-244.8c-.288.259-8.472,7.318-25.441,6.74l-.406,14.615a1.4,1.4,0,0,1-.9,1.267,1.4,1.4,0,0,1-.5.091" transform="translate(-140.284 502.619)" fill="#253561"/>
    </g>
  </g>
</svg>
