<svg id="Group_4419" data-name="Group 4419" xmlns="http://www.w3.org/2000/svg" width="873.217" height="1007.56" viewBox="0 0 873.217 1007.56">
  <path id="Path_4212" data-name="Path 4212" d="M507.779,168.926V1H4V135.341H188.719a16.783,16.783,0,0,1,16.793,16.793V454.4a16.783,16.783,0,0,1-16.793,16.793H4V941.387H709.29V202.512H541.364A33.586,33.586,0,0,1,507.779,168.926ZM642.12,874.217H71.171v-67.17H642.12Zm0-134.341H71.171v-67.17H642.12Zm0-134.341H71.171v-67.17H642.12Zm0-134.341H272.682V404.023H642.12Zm0-134.341H272.682V269.682H642.12Z" transform="translate(130.341 32.587)" fill="#f2f2f2"/>
  <path id="Path_4213" data-name="Path 4213" d="M872.8,199.406a33.231,33.231,0,0,0-9.417-21.643L695.453,9.837A33.581,33.581,0,0,0,671.7,0l-.01,0H117.548a16.783,16.783,0,0,0-16.793,16.793V167.928H16.793A16.783,16.783,0,0,0,0,184.721V486.988a16.783,16.783,0,0,0,16.793,16.793h83.963V990.767a16.783,16.783,0,0,0,16.793,16.793H856.424a16.783,16.783,0,0,0,16.793-16.793V201.514A16.113,16.113,0,0,0,872.8,199.406ZM839.631,973.974H134.341V503.781H319.06a16.783,16.783,0,0,0,16.793-16.793V184.721a16.783,16.783,0,0,0-16.793-16.793H134.341V33.587H638.12V201.514A33.586,33.586,0,0,0,671.705,235.1H839.631ZM33.585,201.514H302.267V470.2H33.585Zm638.12,0V33.587L839.631,201.514Z" transform="translate(0 0)"/>
  <path id="Path_4214" data-name="Path 4214" d="M20,1V168.926H187.926Z" transform="translate(651.705 32.587)" fill="#e6e6e6"/>
  <path id="Path_4215" data-name="Path 4215" d="M269.682,274.682V6H1V274.682Z" transform="translate(32.585 195.513)" fill="#7fbc49"/>
  <rect id="Rectangle_2309" data-name="Rectangle 2309" width="367" height="202" transform="translate(404.645 301.823)" fill="#7fbc49"/>
  <rect id="Rectangle_2311" data-name="Rectangle 2311" width="570" height="68" transform="translate(201.645 569.823)" fill="#b3b3b3"/>
  <rect id="Rectangle_2312" data-name="Rectangle 2312" width="570" height="66" transform="translate(201.645 707.823)" fill="#b3b3b3"/>
  <rect id="Rectangle_2313" data-name="Rectangle 2313" width="570" height="66" transform="translate(201.645 839.823)" fill="#b3b3b3"/>
</svg>
