<svg xmlns="http://www.w3.org/2000/svg" width="200" height="200" viewBox="0 0 200 200">
  <g id="Group_3080" data-name="Group 3080" transform="translate(6680 3988)">
    <rect id="Rectangle_2276" data-name="Rectangle 2276" width="200" height="200" transform="translate(-6680 -3988)" fill="#b4a7ff"/>
    <g id="Group_3076" data-name="Group 3076" transform="translate(-1188 18)">
      <path id="path338" d="M143.065-814.761c4.62-.467,6.144,1.6,8.875,2.3s5.471.04,11.605,2.82,12.139-.083,13.8,6.768,2.139,11.679-1.681,19.752-5.045,12-5.079,16.444-.245,10.256-3.5,10.916-9.215-2.46-9.855-8.62-14.167-50.38-14.167-50.38" transform="translate(-5508 -3131.337)" fill="#2c1e14"/>
      <path id="path340" d="M96.222-814.917c-3.925-1.053-9.251,2.5-11.815,2.479s-10.292,4.713-14.073,7.42-17.839,8.077-16.184,15.612,10.016,9.837,13.043,16.86,4.987,19.517,9.941,20.065,6.176-2.863,7.249-9.521,11.839-52.914,11.839-52.914" transform="translate(-5508 -3131.337)" fill="#2c1e14"/>
      <path id="path342" d="M157.413-757.259c-1.632,4.324-8.289,11.345-9.469,15.66a4.926,4.926,0,0,1-3.732,3.611c-2.344.695-5.695.588-9.905.284a20.526,20.526,0,0,1-3.583,1.889,11.165,11.165,0,0,1-5,.961,3.087,3.087,0,0,0-.342-.016c-3.336-.243-9.524.561-13.01.289h-.04a6.525,6.525,0,0,1-1.735-.341l-.082-.028s-6.266.283-10.745-2.5a9.673,9.673,0,0,1-2.556-2.233c-4.066-5.159-11.061-8.123-12.694-16.669-1.661-8.573-1.456-12.32-2.946-20.032s-2.239-19.507,5.007-30.423a34.694,34.694,0,0,1,7.926-8.381c3.906-2.953,7.857-4.635,10.636-4.929,4.791-.512,8.7,1.773,11.449,1.7,7.292-.165,12.322-1.729,16.192-1.469,3.321.216,8.131,2.945,12.013,5.039.653.347,1.267.68,1.852.984,4.089,2.081,7.24,6.892,9.68,17.62,2.424,10.74.345,14.6,1.221,20.072s1.48,14.605-.137,18.916" transform="translate(-5508 -3131.337)" fill="#e68428"/>
      <path id="path344" d="M104.185-804.942c-3.075-.365-4.794.991-8.089,7.464s-7.776,11.264-9.845,13.709-.035,4.855,2.987,12.4,5.4,9.271,6.543,17.315-1.008,21.107,4.978,20.724c0,0,.776-36.221,3.189-38.948s31.645-2.175,31.645-2.175,3.127,40.357,6.889,40.136,5.492-2.945,5.547-10.468-2.78-17.459-1.545-22.749,6.457-18.076,6.821-21.152-2.871-4.807-6.779-8.084-5.743-9.839-9.676-9.671-16.439,3.668-16.439,3.668l-16.226-2.168" transform="translate(-5508 -3131.337)" fill="#2e2d2d"/>
      <path id="path346" d="M144.212-737.989c0,3.844.265,6.759-4.669,8.185-5.14,1.5-6.623-6.163-6.623-6.163-.785.843-1.685,1.091-3.771,1.552a23.4,23.4,0,0,1-6.585.385c-1.367-.139-3.355.148-5,.135a25.1,25.1,0,0,1-5.187-.687h-.04a16.3,16.3,0,0,1-1.735-.341l-.082-.028c-.2,4.813-.727,5.957-7.029,5.571-4.047-.249-4.211-3.971-3.716-8.071.262-2.281.745-4.685.841-6.668.3-5.481.462-7.123-.148-19.135s5.755-16.551,9.71-18.736,3.788-3.735,2.649-10.759-1.484-8.547-8.638-12.195-10.045-6.735-9.678-10.247c3.906-2.953,7.857-4.635,10.636-4.929,4.791-.512,8.7,1.773,11.449,1.7,7.292-.165,12.322-1.729,16.192-1.469,3.321.216,8.131,2.945,12.013,5.039-4.823,6.681-7.94,8.409-12.058,10.457s-6.016,3.54-6.407,10.212.448,8.045,6.065,12.353,8.243,19.372,8.7,25.969,3.145,13.263,3.116,17.365l0,.505" transform="translate(-5508 -3131.337)" fill="#fbf8ef"/>
      <path id="path348" d="M120.207-751.147a.623.623,0,0,1-.623-.623v-10.515a.624.624,0,0,1,.623-.624.623.623,0,0,1,.623.624v10.515a.623.623,0,0,1-.623.623" transform="translate(-5508 -3131.337)" fill="#100f0d"/>
      <path id="path350" d="M110.8-736.018h-.037a.621.621,0,0,1-.585-.659c.255-4.351,1.655-14.552,9.1-15.285,7.169-.7,11.361,3.584,13.585,13.909a.623.623,0,0,1-.478.74.624.624,0,0,1-.74-.477c-2.628-12.2-7.664-13.379-12.244-12.932-6.674.657-7.8,10.975-7.981,14.12a.621.621,0,0,1-.621.585" transform="translate(-5508 -3131.337)" fill="#100f0d"/>
      <path id="path352" d="M103.151-783.551a4.787,4.787,0,0,0-4.787-4.787,4.788,4.788,0,0,0-4.787,4.787,4.788,4.788,0,0,0,4.787,4.787,4.787,4.787,0,0,0,4.787-4.787" transform="translate(-5508 -3131.337)" fill="#100f0d"/>
      <path id="path354" d="M145.378-783.551a4.787,4.787,0,0,0-4.787-4.787,4.787,4.787,0,0,0-4.787,4.787,4.787,4.787,0,0,0,4.787,4.787,4.787,4.787,0,0,0,4.787-4.787" transform="translate(-5508 -3131.337)" fill="#100f0d"/>
      <path id="path356" d="M118.155-775.791c5.813.083,12.652-.152,12.652,3.6s-2.736,11.444-10.088,12.128-11.625-5.661-12.48-9.84,4.434-5.965,9.916-5.888" transform="translate(-5508 -3131.337)" fill="#100f0d"/>
    </g>
  </g>
</svg>
