<svg xmlns="http://www.w3.org/2000/svg" width="293.986" height="98.271" viewBox="0 0 293.986 98.271">
  <g id="Group_19" data-name="Group 19" transform="translate(-158 -1341.518)">
    <g id="Download_on_the_App_Store_Badge_US-UK_RGB_blk_092917" transform="translate(158 1341.518)">
      <g id="Group_4035" data-name="Group 4035">
        <g id="Group_4033" data-name="Group 4033">
          <path id="Path_4082" data-name="Path 4082" d="M270.575,0H23.424c-.9,0-1.791,0-2.689,0-.752,0-1.5.019-2.258.031A32.465,32.465,0,0,0,13.554.47a16.375,16.375,0,0,0-4.67,1.54,15.816,15.816,0,0,0-3.977,2.9A15.375,15.375,0,0,0,2.013,8.889,16.218,16.218,0,0,0,.477,13.565a31.92,31.92,0,0,0-.44,4.918C.014,19.237.012,19.993,0,20.746V77.532c.012.763.014,1.5.037,2.265a31.919,31.919,0,0,0,.44,4.918,16.184,16.184,0,0,0,1.535,4.678A15.251,15.251,0,0,0,4.908,93.36a15.415,15.415,0,0,0,3.977,2.9,16.462,16.462,0,0,0,4.67,1.55,33.057,33.057,0,0,0,4.923.434c.759.017,1.505.026,2.258.026.9,0,1.789,0,2.689,0h247.15c.883,0,1.78,0,2.663,0,.749,0,1.516-.01,2.265-.026a32.623,32.623,0,0,0,4.914-.434,16.717,16.717,0,0,0,4.688-1.55,15.423,15.423,0,0,0,3.973-2.9,15.711,15.711,0,0,0,2.9-3.966,16.224,16.224,0,0,0,1.521-4.678,33.18,33.18,0,0,0,.456-4.918c.01-.763.01-1.5.01-2.265.019-.893.019-1.78.019-2.687V23.428c0-.9,0-1.792-.019-2.682,0-.753,0-1.509-.01-2.262a33.179,33.179,0,0,0-.456-4.918,16.258,16.258,0,0,0-1.521-4.676A15.886,15.886,0,0,0,285.1,2.011,16.626,16.626,0,0,0,280.416.47,32.045,32.045,0,0,0,275.5.036C274.754.024,273.986.01,273.238,0c-.883,0-1.78,0-2.663,0Z" transform="translate(0 0)" fill="#a6a6a6"/>
          <path id="Path_4083" data-name="Path 4083" d="M19.475,94.846c-.749,0-1.479-.01-2.222-.026a31.17,31.17,0,0,1-4.592-.4,14.455,14.455,0,0,1-4.07-1.346,13.28,13.28,0,0,1-3.432-2.5,13.072,13.072,0,0,1-2.507-3.431,14.057,14.057,0,0,1-1.334-4.071,30.5,30.5,0,0,1-.409-4.606c-.016-.518-.036-2.243-.036-2.243V19.471s.022-1.7.036-2.2a30.391,30.391,0,0,1,.407-4.6A14.14,14.14,0,0,1,2.651,8.591,13.2,13.2,0,0,1,5.145,5.156,13.673,13.673,0,0,1,8.59,2.644a14.306,14.306,0,0,1,4.062-1.336A30.921,30.921,0,0,1,17.26.9l2.217-.03H271.954L274.2.906a30.426,30.426,0,0,1,4.566.4,14.589,14.589,0,0,1,4.105,1.346A13.742,13.742,0,0,1,288.8,8.6a14.157,14.157,0,0,1,1.315,4.051,31.928,31.928,0,0,1,.427,4.636c.007.7.007,1.443.007,2.187.019.921.019,1.8.019,2.682V73.57c0,.893,0,1.763-.019,2.642,0,.8,0,1.531-.01,2.284a31.272,31.272,0,0,1-.42,4.554,14.1,14.1,0,0,1-1.327,4.1,13.463,13.463,0,0,1-2.5,3.4,13.3,13.3,0,0,1-3.438,2.512,14.4,14.4,0,0,1-4.1,1.351,30.815,30.815,0,0,1-4.592.4c-.72.017-1.473.026-2.2.026l-2.663,0Z" transform="translate(1.272 1.275)"/>
        </g>
        <g id="_Group_" data-name="&lt;Group&gt;" transform="translate(24.498 21.424)">
          <g id="_Group_2" data-name="&lt;Group&gt;">
            <g id="_Group_3" data-name="&lt;Group&gt;">
              <path id="_Path_" data-name="&lt;Path&gt;" d="M46.325,29.519a12.158,12.158,0,0,1,5.79-10.2,12.445,12.445,0,0,0-9.805-5.3c-4.125-.433-8.125,2.469-10.227,2.469-2.143,0-5.38-2.426-8.865-2.354a13.058,13.058,0,0,0-10.989,6.7C7.476,29.06,11.021,41.15,15.572,47.8c2.277,3.256,4.939,6.893,8.421,6.764,3.408-.141,4.68-2.173,8.794-2.173,4.075,0,5.269,2.173,8.822,2.091,3.657-.059,5.96-3.271,8.158-6.557a26.931,26.931,0,0,0,3.73-7.6A11.748,11.748,0,0,1,46.325,29.519Z" transform="translate(-9.972 -1.068)" fill="#fff"/>
              <path id="_Path_2" data-name="&lt;Path&gt;" d="M26.767,17.3A11.971,11.971,0,0,0,29.5,8.72a12.179,12.179,0,0,0-7.88,4.077,11.39,11.39,0,0,0-2.81,8.258A10.07,10.07,0,0,0,26.767,17.3Z" transform="translate(2.876 -8.72)" fill="#fff"/>
            </g>
          </g>
          <g id="Group_4034" data-name="Group 4034" transform="translate(60.082 22.481)">
            <path id="Path_4084" data-name="Path 4084" d="M53.774,40.34H42.145l-2.793,8.246H34.427L45.442,18.078h5.117L61.574,48.586H56.564ZM43.35,36.535h9.218L48.024,23.152H47.9Z" transform="translate(-34.427 -17.569)" fill="#fff"/>
            <path id="Path_4085" data-name="Path 4085" d="M67.583,32.705c0,6.912-3.7,11.353-9.282,11.353a7.541,7.541,0,0,1-7-3.892H51.2V51.184H46.631v-29.6h4.419v3.7h.084a7.89,7.89,0,0,1,7.082-3.932C63.862,21.35,67.583,25.813,67.583,32.705Zm-4.693,0c0-4.5-2.327-7.464-5.878-7.464-3.488,0-5.835,3.023-5.835,7.464,0,4.482,2.346,7.483,5.835,7.483C60.563,40.188,62.891,37.249,62.891,32.705Z" transform="translate(-16.649 -12.809)" fill="#fff"/>
            <path id="Path_4086" data-name="Path 4086" d="M77.548,32.705c0,6.912-3.7,11.353-9.282,11.353a7.541,7.541,0,0,1-7-3.892h-.106V51.184H56.6v-29.6h4.419v3.7H61.1a7.89,7.89,0,0,1,7.082-3.932C73.827,21.35,77.548,25.813,77.548,32.705Zm-4.693,0c0-4.5-2.327-7.464-5.878-7.464-3.488,0-5.835,3.023-5.835,7.464,0,4.482,2.346,7.483,5.835,7.483,3.551,0,5.878-2.939,5.878-7.483Z" transform="translate(-2.133 -12.809)" fill="#fff"/>
            <path id="Path_4087" data-name="Path 4087" d="M74.482,40.387c.338,3.025,3.277,5.012,7.294,5.012,3.848,0,6.617-1.987,6.617-4.714,0-2.368-1.67-3.786-5.624-4.758l-3.954-.952c-5.6-1.353-8.2-3.973-8.2-8.224,0-5.264,4.587-8.879,11.1-8.879,6.447,0,10.866,3.616,11.015,8.879H88.119c-.276-3.045-2.793-4.882-6.471-4.882s-6.195,1.859-6.195,4.566c0,2.157,1.607,3.426,5.54,4.4l3.361.825c6.259,1.48,8.86,3.995,8.86,8.457,0,5.708-4.546,9.282-11.778,9.282-6.766,0-11.334-3.491-11.629-9.009Z" transform="translate(17.114 -17.871)" fill="#fff"/>
            <path id="Path_4088" data-name="Path 4088" d="M87.984,19.3v5.264h4.23v3.616h-4.23V40.441c0,1.9.847,2.793,2.706,2.793a14.266,14.266,0,0,0,1.5-.106v3.594a12.538,12.538,0,0,1-2.536.211c-4.5,0-6.259-1.691-6.259-6.005V28.179H80.163V24.564H83.4V19.3Z" transform="translate(32.198 -15.79)" fill="#fff"/>
            <path id="Path_4089" data-name="Path 4089" d="M86.065,32.727c0-7,4.122-11.4,10.549-11.4,6.449,0,10.552,4.4,10.552,11.4,0,7.018-4.081,11.4-10.552,11.4S86.065,39.745,86.065,32.727Zm16.449,0c0-4.8-2.2-7.634-5.9-7.634s-5.9,2.855-5.9,7.634c0,4.82,2.2,7.632,5.9,7.632s5.9-2.812,5.9-7.632Z" transform="translate(40.796 -12.831)" fill="#fff"/>
            <path id="Path_4090" data-name="Path 4090" d="M96.186,21.583h4.355v3.786h.106A5.305,5.305,0,0,1,106,21.35a7.041,7.041,0,0,1,1.564.17v4.271a6.383,6.383,0,0,0-2.051-.276,4.6,4.6,0,0,0-4.758,5.117V43.825H96.186Z" transform="translate(55.54 -12.809)" fill="#fff"/>
            <path id="Path_4091" data-name="Path 4091" d="M121.282,37.314c-.614,4.038-4.546,6.809-9.577,6.809-6.471,0-10.487-4.335-10.487-11.291,0-6.977,4.038-11.5,10.295-11.5,6.154,0,10.024,4.227,10.024,10.971v1.564h-15.71v.276a5.793,5.793,0,0,0,5.984,6.3,5.032,5.032,0,0,0,5.137-3.129Zm-15.434-6.639h11.12a5.349,5.349,0,0,0-5.456-5.645,5.631,5.631,0,0,0-5.664,5.645Z" transform="translate(62.87 -12.831)" fill="#fff"/>
          </g>
        </g>
      </g>
      <g id="_Group_4" data-name="&lt;Group&gt;" transform="translate(87.635 20.728)">
        <g id="Group_4036" data-name="Group 4036">
          <path id="Path_4092" data-name="Path 4092" d="M40.966,8.741a6.485,6.485,0,0,1,6.9,7.284c0,4.683-2.531,7.375-6.9,7.375H35.671V8.741ZM37.948,21.327h2.764a4.609,4.609,0,0,0,4.834-5.272,4.621,4.621,0,0,0-4.834-5.242H37.948Z" transform="translate(-35.671 -8.019)" fill="#fff"/>
          <path id="Path_4093" data-name="Path 4093" d="M41.7,15.848a5.241,5.241,0,1,1,10.434,0,5.242,5.242,0,1,1-10.434,0Zm8.188,0c0-2.4-1.077-3.8-2.968-3.8s-2.965,1.4-2.965,3.8c0,2.417,1.068,3.809,2.965,3.809s2.968-1.4,2.968-3.809Z" transform="translate(-26.931 -6.003)" fill="#fff"/>
          <path id="Path_4094" data-name="Path 4094" d="M58.863,21.257H56.6L54.312,13.11h-.173l-2.277,8.148H49.619L46.569,10.195h2.214l1.982,8.441h.163L53.2,10.195H55.3l2.274,8.441h.173l1.972-8.441H61.9Z" transform="translate(-19.795 -5.876)" fill="#fff"/>
          <path id="Path_4095" data-name="Path 4095" d="M53.854,10.328h2.1v1.757h.163a3.312,3.312,0,0,1,3.3-1.971,3.6,3.6,0,0,1,3.829,4.115V21.39H61.065V14.777c0-1.778-.773-2.662-2.387-2.662a2.538,2.538,0,0,0-2.641,2.8v6.472H53.854Z" transform="translate(-9.183 -6.009)" fill="#fff"/>
          <path id="Path_4096" data-name="Path 4096" d="M59.094,8.437h2.183V23.818H59.094Z" transform="translate(-1.549 -8.437)" fill="#fff"/>
          <path id="Path_4097" data-name="Path 4097" d="M61.232,15.848a5.241,5.241,0,1,1,10.435,0,5.242,5.242,0,1,1-10.435,0Zm8.188,0c0-2.4-1.077-3.8-2.968-3.8s-2.965,1.4-2.965,3.8c0,2.417,1.068,3.809,2.965,3.809s2.968-1.4,2.968-3.809Z" transform="translate(1.53 -6.003)" fill="#fff"/>
          <path id="Path_4098" data-name="Path 4098" d="M66.4,18.256c0-1.991,1.483-3.139,4.115-3.3l3-.173v-.955c0-1.168-.773-1.828-2.265-1.828-1.219,0-2.063.447-2.306,1.23H66.828c.223-1.9,2.011-3.119,4.52-3.119,2.773,0,4.338,1.381,4.338,3.718v7.559h-2.1V19.829h-.173a3.722,3.722,0,0,1-3.323,1.737A3.342,3.342,0,0,1,66.4,18.256Zm7.111-.945v-.925l-2.7.173c-1.523.1-2.214.62-2.214,1.6,0,1,.864,1.575,2.051,1.575a2.608,2.608,0,0,0,2.865-2.418Z" transform="translate(9.095 -6.003)" fill="#fff"/>
          <path id="Path_4099" data-name="Path 4099" d="M71.348,18.282c0-3.5,1.8-5.71,4.592-5.71a3.646,3.646,0,0,1,3.392,1.941H79.5V8.437h2.183V23.818H79.587V22.07h-.173A3.84,3.84,0,0,1,75.94,24C73.126,24,71.348,21.786,71.348,18.282Zm2.255,0c0,2.346,1.106,3.758,2.956,3.758s2.977-1.432,2.977-3.749-1.149-3.758-2.977-3.758S73.6,15.955,73.6,18.282Z" transform="translate(16.302 -8.437)" fill="#fff"/>
          <path id="Path_4100" data-name="Path 4100" d="M79.245,15.848a5.241,5.241,0,1,1,10.434,0,5.242,5.242,0,1,1-10.434,0Zm8.188,0c0-2.4-1.077-3.8-2.968-3.8s-2.965,1.4-2.965,3.8c0,2.417,1.068,3.809,2.965,3.809S87.433,18.255,87.433,15.848Z" transform="translate(27.769 -6.003)" fill="#fff"/>
          <path id="Path_4101" data-name="Path 4101" d="M84.669,10.328h2.1v1.757h.163a3.312,3.312,0,0,1,3.3-1.971,3.6,3.6,0,0,1,3.829,4.115V21.39H91.881V14.777c0-1.778-.773-2.662-2.387-2.662a2.538,2.538,0,0,0-2.642,2.8v6.472H84.669Z" transform="translate(35.708 -6.009)" fill="#fff"/>
          <path id="Path_4102" data-name="Path 4102" d="M95.853,9.074v2.8h2.4v1.839h-2.4v5.688c0,1.159.477,1.666,1.564,1.666a7.288,7.288,0,0,0,.833-.05V22.84a7.162,7.162,0,0,1-1.188.112c-2.428,0-3.395-.854-3.395-2.987V13.717H91.911V11.878h1.756v-2.8Z" transform="translate(46.257 -7.509)" fill="#fff"/>
          <path id="Path_4103" data-name="Path 4103" d="M95.7,8.437h2.164v6.1h.173a3.4,3.4,0,0,1,3.373-1.982,3.644,3.644,0,0,1,3.81,4.124v7.142h-2.185v-6.6c0-1.767-.823-2.662-2.366-2.662a2.584,2.584,0,0,0-2.785,2.8v6.461H95.7Z" transform="translate(51.784 -8.437)" fill="#fff"/>
          <path id="Path_4104" data-name="Path 4104" d="M110.662,18.4a4.491,4.491,0,0,1-4.794,3.2,5.025,5.025,0,0,1-5.11-5.71,5.1,5.1,0,0,1,5.1-5.78c3.078,0,4.935,2.1,4.935,5.577v.762h-7.812v.122a2.924,2.924,0,0,0,2.946,3.169A2.652,2.652,0,0,0,108.56,18.4Zm-7.68-3.565h5.588a2.669,2.669,0,0,0-2.723-2.866,2.829,2.829,0,0,0-2.865,2.866Z" transform="translate(59.076 -6.003)" fill="#fff"/>
        </g>
      </g>
    </g>
  </g>
</svg>
