<svg id="g12" xmlns="http://www.w3.org/2000/svg" xmlns:xlink="http://www.w3.org/1999/xlink" width="333.227" height="98.734" viewBox="0 0 333.227 98.734">
  <defs>
    <clipPath id="clip-path">
      <path id="path54" d="M27.956,4.643l-.183-.175A4.943,4.943,0,0,1,26.63,1v.36h0V-52.869a4.767,4.767,0,0,1,1.323-3.649L58.535-25.936,27.956,4.643M26.63-53.247c0-.136,0-.268.011-.4-.007.129-.011.262-.011.4m.011-.4a.016.016,0,0,1,0-.006.016.016,0,0,0,0,.006m0-.017v0" transform="translate(-26.63 56.518)"/>
    </clipPath>
    <linearGradient id="linear-gradient" x1="-1.545" y1="1.711" x2="-1.537" y2="1.711" gradientUnits="objectBoundingBox">
      <stop offset="0" stop-color="#00a0ff"/>
      <stop offset="0.007" stop-color="#00a1ff"/>
      <stop offset="0.26" stop-color="#00beff"/>
      <stop offset="0.512" stop-color="#00d2ff"/>
      <stop offset="0.76" stop-color="#00dfff"/>
      <stop offset="1" stop-color="#00e3ff"/>
    </linearGradient>
    <clipPath id="clip-path-2">
      <path id="path78" d="M54.057-24.752h0l.233-.132,12.077-6.862a5.3,5.3,0,0,0,2.3-2.288,5.288,5.288,0,0,1-2.3,2.289L54.289-24.883l-.233.131m0-.362-10.2-10.2,10.195-10.2,12.308,6.992a4.6,4.6,0,0,1,2.587,3.2v0a4.6,4.6,0,0,1-2.587,3.2L54.06-25.113" transform="translate(-43.864 45.506)"/>
    </clipPath>
    <linearGradient id="linear-gradient-2" x1="-3.237" y1="4.059" x2="-3.227" y2="4.059" gradientUnits="objectBoundingBox">
      <stop offset="0" stop-color="#ffe000"/>
      <stop offset="0.409" stop-color="#ffbd00"/>
      <stop offset="0.775" stop-color="orange"/>
      <stop offset="1" stop-color="#ff9c00"/>
    </linearGradient>
    <clipPath id="clip-path-3">
      <path id="path98" d="M29.6-8.255a3.177,3.177,0,0,1-2.181-.8h0a3.181,3.181,0,0,0,2.182.8q.111,0,.226-.006c-.077,0-.154.006-.228.006m0-.362a3.173,3.173,0,0,1-2.181-.8h0L58-40,68.2-29.8h0L32.37-9.444a5.685,5.685,0,0,1-2.765.828m-2.19-.447c-.054-.049-.107-.1-.159-.155l.159.155" transform="translate(-27.256 39.999)"/>
    </clipPath>
    <linearGradient id="linear-gradient-3" x1="-1.232" y1="2.333" x2="-1.226" y2="2.333" gradientUnits="objectBoundingBox">
      <stop offset="0" stop-color="#ff3a44"/>
      <stop offset="1" stop-color="#c31162"/>
    </linearGradient>
    <clipPath id="clip-path-4">
      <path id="path114" d="M57.927-25.4h0L27.345-55.984a3.178,3.178,0,0,1,2.179-.8,5.7,5.7,0,0,1,2.77.83L68.122-35.6,57.927-25.4M68.352-35.828,32.294-56.315a5.693,5.693,0,0,0-2.77-.83h0a5.68,5.68,0,0,1,2.766.829L68.352-35.828M29.506-57.146h0" transform="translate(-27.345 57.146)"/>
    </clipPath>
    <linearGradient id="linear-gradient-4" x1="-1.234" y1="3.333" x2="-1.228" y2="3.333" gradientUnits="objectBoundingBox">
      <stop offset="0" stop-color="#32a071"/>
      <stop offset="0.068" stop-color="#2da771"/>
      <stop offset="0.476" stop-color="#15cf74"/>
      <stop offset="0.801" stop-color="#06e775"/>
      <stop offset="1" stop-color="#00f076"/>
    </linearGradient>
    <clipPath id="clip-path-5">
      <path id="path138" d="M49.37-34.235h0l.233-.132-.233.132" transform="translate(-49.37 34.367)"/>
    </clipPath>
    <linearGradient id="linear-gradient-5" x1="-393.081" y1="481.772" x2="-392.02" y2="481.772" gradientUnits="objectBoundingBox">
      <stop offset="0" stop-color="#ccb300"/>
      <stop offset="0.409" stop-color="#cc9700"/>
      <stop offset="0.775" stop-color="#cc8400"/>
      <stop offset="1" stop-color="#cc7d00"/>
    </linearGradient>
    <clipPath id="clip-path-6">
      <path id="path158" d="M29.613-12.944a3.181,3.181,0,0,1-2.182-.8h0l-.008-.007-.159-.155-.016-.016.183-.183a3.173,3.173,0,0,0,2.181.8,5.685,5.685,0,0,0,2.765-.828L68.206-34.491l.23.23-.233.132L32.377-13.773a5.9,5.9,0,0,1-2.539.823q-.114.006-.226.006" transform="translate(-27.247 34.491)"/>
    </clipPath>
    <linearGradient id="linear-gradient-6" x1="-1.225" y1="2.963" x2="-1.219" y2="2.963" gradientUnits="objectBoundingBox">
      <stop offset="0" stop-color="#cc2e36"/>
      <stop offset="1" stop-color="#9c0e4e"/>
    </linearGradient>
    <clipPath id="clip-path-7">
      <path id="path176" d="M27.773-21.621h0a4.941,4.941,0,0,1-1.142-3.468v-.36a4.943,4.943,0,0,0,1.142,3.468l.183.175-.183.184" transform="translate(-26.63 25.449)"/>
    </clipPath>
    <linearGradient id="linear-gradient-7" x1="-37.186" y1="12.308" x2="-37" y2="12.308" gradientUnits="objectBoundingBox">
      <stop offset="0" stop-color="#008de0"/>
      <stop offset="0.007" stop-color="#008de0"/>
      <stop offset="0.26" stop-color="#00a7e0"/>
      <stop offset="0.512" stop-color="#00b8e0"/>
      <stop offset="0.76" stop-color="#00c4e0"/>
      <stop offset="1" stop-color="#00c7e0"/>
    </linearGradient>
    <clipPath id="clip-path-8">
      <path id="path200" d="M27.247-23.3h0l.183-.184h0l-.183.183" transform="translate(-27.247 23.481)"/>
    </clipPath>
    <linearGradient id="linear-gradient-8" x1="-275.042" y1="236.065" x2="-273.696" y2="236.065" gradientUnits="objectBoundingBox">
      <stop offset="0" stop-color="#e0333c"/>
      <stop offset="1" stop-color="#ab0f56"/>
    </linearGradient>
    <clipPath id="clip-path-9">
      <path id="path218" d="M49.6-29.574h0l-.23-.23L61.679-36.8A4.6,4.6,0,0,0,64.266-40a3.055,3.055,0,0,1-.285,1.273,5.3,5.3,0,0,1-2.3,2.288L49.6-29.574" transform="translate(-49.372 39.997)"/>
    </clipPath>
    <linearGradient id="linear-gradient-9" x1="-6.137" y1="7.104" x2="-6.12" y2="7.104" gradientUnits="objectBoundingBox">
      <stop offset="0" stop-color="#e0c500"/>
      <stop offset="0.409" stop-color="#e0a600"/>
      <stop offset="0.775" stop-color="#e09100"/>
      <stop offset="1" stop-color="#e08900"/>
    </linearGradient>
    <clipPath id="clip-path-10">
      <path id="path240" d="M64.266-35.206a4.6,4.6,0,0,0-2.587-3.2L49.371-45.4l.23-.23h0l12.077,6.862c1.723.98,2.586,2.271,2.587,3.562" transform="translate(-49.371 45.63)"/>
    </clipPath>
    <linearGradient id="linear-gradient-10" x1="-6.136" y1="8.104" x2="-6.12" y2="8.104" gradientUnits="objectBoundingBox">
      <stop offset="0" stop-color="#ffe840"/>
      <stop offset="0.409" stop-color="#ffce40"/>
      <stop offset="0.775" stop-color="#ffbc40"/>
      <stop offset="1" stop-color="#ffb540"/>
    </linearGradient>
    <clipPath id="clip-path-11">
      <path id="path262" d="M26.63-52.7v-.377c0-.136,0-.269.011-.4v-.006a.016.016,0,0,1,0-.006v-.015a4.7,4.7,0,0,1,1.131-3.028h0l.18.181A4.767,4.767,0,0,0,26.63-52.7m1.318-4,.007-.007-.007.007" transform="translate(-26.63 56.713)"/>
    </clipPath>
    <linearGradient id="linear-gradient-11" x1="-37.214" y1="26.187" x2="-37.027" y2="26.187" gradientUnits="objectBoundingBox">
      <stop offset="0" stop-color="#40b8ff"/>
      <stop offset="0.007" stop-color="#40b9ff"/>
      <stop offset="0.26" stop-color="#40ceff"/>
      <stop offset="0.512" stop-color="#40ddff"/>
      <stop offset="0.76" stop-color="#40e7ff"/>
      <stop offset="1" stop-color="#40eaff"/>
    </linearGradient>
    <clipPath id="clip-path-12">
      <path id="path288" d="M68.2-35.6,32.377-55.955a5.7,5.7,0,0,0-2.77-.83,3.178,3.178,0,0,0-2.179.8l-.18-.181h0c.057-.06.115-.118.176-.173l.007-.006a3.175,3.175,0,0,1,2.159-.8h.018a5.693,5.693,0,0,1,2.77.83L68.435-35.828h0l-.23.23" transform="translate(-27.247 57.146)"/>
    </clipPath>
    <linearGradient id="linear-gradient-12" x1="-1.225" y1="4.91" x2="-1.219" y2="4.91" gradientUnits="objectBoundingBox">
      <stop offset="0" stop-color="#65b895"/>
      <stop offset="0.068" stop-color="#62bd95"/>
      <stop offset="0.476" stop-color="#50db97"/>
      <stop offset="0.801" stop-color="#44ed98"/>
      <stop offset="1" stop-color="#40f498"/>
    </linearGradient>
  </defs>
  <path id="path16" d="M334.219,32.068H25.675A12.378,12.378,0,0,1,13.333,19.726V-54.325A12.378,12.378,0,0,1,25.675-66.667H334.219a12.378,12.378,0,0,1,12.342,12.342V19.726a12.378,12.378,0,0,1-12.342,12.342" transform="translate(-13.333 66.667)"/>
  <path id="path18" d="M334.219-66.667H25.675A12.378,12.378,0,0,0,13.333-54.325V19.726A12.378,12.378,0,0,0,25.675,32.068H334.219a12.378,12.378,0,0,0,12.342-12.342V-54.325a12.378,12.378,0,0,0-12.342-12.342m0,1.975a10.379,10.379,0,0,1,10.367,10.367V19.726a10.379,10.379,0,0,1-10.367,10.368H25.675A10.38,10.38,0,0,1,15.308,19.726V-54.325A10.38,10.38,0,0,1,25.675-64.692H334.219" transform="translate(-13.333 66.667)" fill="#a6a6a6"/>
  <path id="path20" d="M83.443-49.175A6.684,6.684,0,0,1,81.6-44.231a7.181,7.181,0,0,1-5.441,2.192,7.449,7.449,0,0,1-5.45-2.223,7.445,7.445,0,0,1-2.244-5.512,7.447,7.447,0,0,1,2.244-5.513,7.452,7.452,0,0,1,5.45-2.223,7.638,7.638,0,0,1,3.04.621,6.107,6.107,0,0,1,2.316,1.655l-1.3,1.3a5,5,0,0,0-4.055-1.757,5.631,5.631,0,0,0-4.045,1.644,5.668,5.668,0,0,0-1.707,4.271A5.668,5.668,0,0,0,72.119-45.5a5.631,5.631,0,0,0,4.045,1.644A5.615,5.615,0,0,0,80.3-45.514a4.658,4.658,0,0,0,1.242-3H76.163v-1.779H83.34a6.317,6.317,0,0,1,.1,1.118" transform="translate(33.602 74.459)" fill="#fff"/>
  <path id="path22" d="M83.557-49.061H83.31a6.436,6.436,0,0,1-1.767,4.769l0,0v0a6.933,6.933,0,0,1-5.263,2.115A7.2,7.2,0,0,1,71-44.324a7.2,7.2,0,0,1-2.171-5.338A7.2,7.2,0,0,1,71-55a7.2,7.2,0,0,1,5.276-2.153,7.394,7.394,0,0,1,2.943.6,5.868,5.868,0,0,1,2.224,1.587l.189-.159-.174-.175-1.3,1.3.174.174.19-.158a5.254,5.254,0,0,0-4.245-1.846,5.878,5.878,0,0,0-4.215,1.714,5.917,5.917,0,0,0-1.783,4.449,5.917,5.917,0,0,0,1.783,4.449A5.878,5.878,0,0,0,76.277-43.5a5.86,5.86,0,0,0,4.311-1.726h0A4.91,4.91,0,0,0,81.9-48.379l.023-.268h-5.4v-1.285h6.93v-.247l-.243.043a6.016,6.016,0,0,1,.1,1.074H83.8a6.529,6.529,0,0,0-.107-1.162l-.037-.2H76.03v2.273h5.625V-48.4l-.246-.021a4.419,4.419,0,0,1-1.17,2.847h0a5.366,5.366,0,0,1-3.962,1.581A5.377,5.377,0,0,1,72.4-45.568a5.419,5.419,0,0,1-1.631-4.094A5.419,5.419,0,0,1,72.4-53.756a5.377,5.377,0,0,1,3.873-1.575,4.752,4.752,0,0,1,3.866,1.669l.174.206,1.492-1.494.16-.16-.146-.173A6.342,6.342,0,0,0,79.414-57a7.885,7.885,0,0,0-3.138-.641,7.7,7.7,0,0,0-5.624,2.3,7.7,7.7,0,0,0-2.317,5.688,7.7,7.7,0,0,0,2.318,5.689,7.7,7.7,0,0,0,5.623,2.294A7.435,7.435,0,0,0,81.9-43.947l-.178-.171.175.175A6.934,6.934,0,0,0,83.8-49.061h-.247" transform="translate(33.489 74.346)" fill="#fff"/>
  <path id="path24" d="M86.679-55.514H79.935v4.7h6.082v1.78H79.935v4.7h6.745v1.819H78.033v-14.81h8.646v1.819" transform="translate(41.744 74.612)" fill="#fff"/>
  <path id="path26" d="M86.793-55.4v-.247H79.8v5.189h6.082v1.285H79.8v5.189h6.745v1.326H78.393V-56.973h8.152V-55.4h.247v0h.247v-2.066H77.9v15.3h9.14v-2.313H80.295v-4.2h6.082v-2.273H80.295v-4.2h6.744V-55.4h-.247" transform="translate(41.63 74.498)" fill="#fff"/>
  <path id="path28" d="M89.816-42.523h-1.9V-55.514H83.775v-1.819H93.953v1.819H89.816v12.991" transform="translate(46.632 74.612)" fill="#fff"/>
  <path id="path30" d="M89.93-42.41v-.247H88.272V-55.647H84.136v-1.326h9.684v1.326H89.683V-42.41h.247v0h.247V-55.153h4.136v-2.313H83.642v2.313h4.136v12.991h2.4v-.247H89.93" transform="translate(46.518 74.498)" fill="#fff"/>
  <path id="path32" d="M93.25-42.523v-14.81h1.9v14.81h-1.9" transform="translate(54.698 74.612)" fill="#fff"/>
  <path id="path34" d="M93.364-42.41h.247V-56.973h1.409v14.316H93.364v.247h0v.247h2.149v-15.3h-2.4v15.3h.247v-.247" transform="translate(54.584 74.498)" fill="#fff"/>
  <path id="path36" d="M101.615-42.523h-1.9V-55.514H95.575v-1.819h10.177v1.819h-4.136v12.991" transform="translate(56.676 74.612)" fill="#fff"/>
  <path id="path38" d="M101.729-42.41v-.247h-1.658V-55.647H95.935v-1.326h9.683v1.326h-4.136V-42.41h.247v0h.247V-55.153h4.136v-2.313H95.441v2.313h4.136v12.991h2.4v-.247h-.247" transform="translate(56.563 74.498)" fill="#fff"/>
  <path id="path40" d="M108.021-45.524a5.438,5.438,0,0,0,4.024,1.664,5.433,5.433,0,0,0,4.023-1.664,5.8,5.8,0,0,0,1.647-4.251,5.8,5.8,0,0,0-1.647-4.251,5.433,5.433,0,0,0-4.023-1.664,5.438,5.438,0,0,0-4.024,1.664,5.8,5.8,0,0,0-1.644,4.251A5.8,5.8,0,0,0,108.021-45.524Zm9.454,1.24a7.268,7.268,0,0,1-5.43,2.245,7.255,7.255,0,0,1-5.428-2.245,7.568,7.568,0,0,1-2.182-5.491,7.567,7.567,0,0,1,2.182-5.491,7.255,7.255,0,0,1,5.428-2.246,7.262,7.262,0,0,1,5.421,2.255,7.573,7.573,0,0,1,2.192,5.481,7.585,7.585,0,0,1-2.182,5.491" transform="translate(64.218 74.459)" fill="#fff"/>
  <path id="path42" d="M108.135-45.411l-.176.174a5.687,5.687,0,0,0,4.2,1.737,5.683,5.683,0,0,0,4.2-1.737,6.049,6.049,0,0,0,1.718-4.425,6.049,6.049,0,0,0-1.718-4.425h0a5.683,5.683,0,0,0-4.2-1.737,5.687,5.687,0,0,0-4.2,1.737h0a6.052,6.052,0,0,0-1.715,4.425,6.052,6.052,0,0,0,1.715,4.425l.176-.174.175-.174a5.554,5.554,0,0,1-1.573-4.078,5.554,5.554,0,0,1,1.573-4.078h0a5.19,5.19,0,0,1,3.848-1.591,5.186,5.186,0,0,1,3.847,1.591h0a5.548,5.548,0,0,1,1.575,4.078,5.548,5.548,0,0,1-1.575,4.078,5.186,5.186,0,0,1-3.847,1.591,5.19,5.19,0,0,1-3.848-1.591Zm9.454,1.24-.176-.172a7.023,7.023,0,0,1-5.254,2.169,7.013,7.013,0,0,1-5.252-2.169l-.007-.008.007.008a7.323,7.323,0,0,1-2.111-5.32,7.323,7.323,0,0,1,2.111-5.32h0a7.014,7.014,0,0,1,5.252-2.17,7.017,7.017,0,0,1,5.244,2.181,7.326,7.326,0,0,1,2.121,5.309,7.339,7.339,0,0,1-2.112,5.32l.176.172.177.172a7.836,7.836,0,0,0,2.251-5.663,7.826,7.826,0,0,0-2.261-5.653,7.51,7.51,0,0,0-5.6-2.331,7.508,7.508,0,0,0-5.606,2.321h0a7.826,7.826,0,0,0-2.251,5.664A7.826,7.826,0,0,0,106.553-44l.007.007L106.553-44a7.51,7.51,0,0,0,5.606,2.32A7.521,7.521,0,0,0,117.766-44l-.177-.172" transform="translate(64.105 74.346)" fill="#fff"/>
  <path id="path44" d="M114.1-42.523v-14.81h2.316l7.2,11.521h.082l-.082-2.854v-8.667h1.9v14.81h-1.986L116-54.6h-.082L116-51.748v9.224h-1.9" transform="translate(72.446 74.612)" fill="#fff"/>
  <path id="path46" d="M114.214-42.41h.247V-56.973h1.932l7.2,11.521h.472l-.089-3.1v-8.417h1.411v14.316h-1.6l-7.53-12.08h-.472l.089,3.106v8.974h-1.655v.247h0v.247h2.148v-9.475L116.28-54.5l-.247.007v.247h.082v-.247l-.209.131,7.6,12.2h2.37v-15.3h-2.4v8.917l.082,2.858.247-.007v-.247h-.082v.247l.209-.131-7.27-11.637h-2.7v15.3h.247v-.247" transform="translate(72.333 74.498)" fill="#fff"/>
  <path id="path48" d="M230.706-11.965h4.606V-42.822h-4.606Zm41.486-19.742-5.28,13.378h-.158l-5.48-13.378h-4.961l8.217,18.7-4.685,10.4h4.806l12.663-29.1ZM246.071-15.47c-1.511,0-3.614-.754-3.614-2.621,0-2.382,2.621-3.295,4.882-3.295a8.2,8.2,0,0,1,4.209,1.033,5.584,5.584,0,0,1-5.477,4.883Zm.555-16.912c-3.335,0-6.788,1.469-8.217,4.725l4.088,1.707a4.365,4.365,0,0,1,4.209-2.263c2.382,0,4.8,1.43,4.843,3.971v.317a10.186,10.186,0,0,0-4.8-1.191c-4.406,0-8.894,2.421-8.894,6.947,0,4.129,3.614,6.789,7.662,6.789A6.5,6.5,0,0,0,251.39-14.4h.158v2.381h4.445V-23.847c0-5.478-4.088-8.535-9.367-8.535Zm-28.465,4.431H211.61V-38.528h6.551a5.346,5.346,0,0,1,5.4,5.288A5.375,5.375,0,0,1,218.161-27.951Zm-.118-14.872H207.007v30.857h4.6V-23.656h6.433c5.1,0,10.123-3.7,10.123-9.583S223.148-42.822,218.043-42.822ZM157.862-15.464a6.024,6.024,0,0,1-5.846-6.323c0-3.7,2.664-6.4,5.846-6.4,3.141,0,5.607,2.7,5.607,6.4C163.469-18.128,161-15.464,157.862-15.464Zm5.289-14.515h-.159a7.276,7.276,0,0,0-5.528-2.346A10.441,10.441,0,0,0,147.4-21.787a10.4,10.4,0,0,0,10.06,10.459,7.16,7.16,0,0,0,5.528-2.385h.159V-12.2c0,4.017-2.147,6.164-5.607,6.164a5.812,5.812,0,0,1-5.29-3.738l-4.016,1.67a10.005,10.005,0,0,0,9.305,6.2c5.408,0,9.981-3.182,9.981-10.936V-31.689h-4.374Zm7.555,18.014h4.613V-42.823h-4.613Zm11.413-10.18a5.758,5.758,0,0,1,5.487-6.124,4.061,4.061,0,0,1,3.9,2.227Zm14.316-3.5c-.874-2.347-3.54-6.681-8.987-6.681-5.408,0-9.9,4.255-9.9,10.5a10.273,10.273,0,0,0,10.418,10.5,10.444,10.444,0,0,0,8.75-4.652l-3.579-2.386a6,6,0,0,1-5.17,2.9,5.341,5.341,0,0,1-5.09-3.181l14.037-5.806ZM84.6-29.1v4.454H95.256a9.294,9.294,0,0,1-2.426,5.607A10.907,10.907,0,0,1,84.6-15.782a11.694,11.694,0,0,1-11.691-11.85A11.7,11.7,0,0,1,84.6-39.483,11.357,11.357,0,0,1,92.631-36.3l3.141-3.141A15.534,15.534,0,0,0,84.6-43.937a16.532,16.532,0,0,0-16.543,16.3A16.532,16.532,0,0,0,84.6-11.329,14.9,14.9,0,0,0,95.971-15.9c2.943-2.943,3.858-7.078,3.858-10.418A14.453,14.453,0,0,0,99.59-29.1Zm27.347,13.64a6.074,6.074,0,0,1-5.926-6.363,6.049,6.049,0,0,1,5.926-6.363,6.049,6.049,0,0,1,5.925,6.363A6.074,6.074,0,0,1,111.945-15.464Zm0-16.861a10.348,10.348,0,0,0-10.539,10.5,10.373,10.373,0,0,0,10.539,10.5,10.372,10.372,0,0,0,10.538-10.5A10.348,10.348,0,0,0,111.945-32.325Zm22.988,16.861a6.074,6.074,0,0,1-5.925-6.363,6.049,6.049,0,0,1,5.925-6.363,6.049,6.049,0,0,1,5.925,6.363A6.074,6.074,0,0,1,134.933-15.464Zm0-16.861a10.347,10.347,0,0,0-10.538,10.5,10.372,10.372,0,0,0,10.538,10.5,10.372,10.372,0,0,0,10.538-10.5,10.348,10.348,0,0,0-10.538-10.5" transform="translate(33.25 86.016)" fill="#fff"/>
  <g id="g50" transform="translate(24.616 18.787)">
    <g id="g52" clip-path="url(#clip-path)">
      <path id="path72" d="M27.956,4.643l-.183-.175A4.943,4.943,0,0,1,26.63,1v.36h0V-52.869a4.767,4.767,0,0,1,1.323-3.649L58.535-25.936,27.956,4.643M26.63-53.247c0-.136,0-.268.011-.4-.007.129-.011.262-.011.4m.011-.4a.016.016,0,0,1,0-.006.016.016,0,0,0,0,.006m0-.017v0" transform="translate(-26.63 56.518)" fill="url(#linear-gradient)"/>
    </g>
  </g>
  <g id="g74" transform="translate(56.521 39.173)">
    <g id="g76" clip-path="url(#clip-path-2)">
      <path id="path92" d="M54.057-24.752h0l.233-.132,12.077-6.862a5.3,5.3,0,0,0,2.3-2.288,5.288,5.288,0,0,1-2.3,2.289L54.289-24.883l-.233.131m0-.362-10.2-10.2,10.195-10.2,12.308,6.992a4.6,4.6,0,0,1,2.587,3.2v0a4.6,4.6,0,0,1-2.587,3.2L54.06-25.113" transform="translate(-43.864 45.506)" fill="url(#linear-gradient-2)"/>
    </g>
  </g>
  <g id="g94" transform="translate(25.774 49.369)">
    <g id="g96" clip-path="url(#clip-path-3)">
      <path id="path108" d="M29.6-8.255a3.177,3.177,0,0,1-2.181-.8h0a3.181,3.181,0,0,0,2.182.8q.111,0,.226-.006c-.077,0-.154.006-.228.006m0-.362a3.173,3.173,0,0,1-2.181-.8h0L58-40,68.2-29.8h0L32.37-9.444a5.685,5.685,0,0,1-2.765.828m-2.19-.447c-.054-.049-.107-.1-.159-.155l.159.155" transform="translate(-27.256 39.999)" fill="url(#linear-gradient-3)"/>
    </g>
  </g>
  <g id="g110" transform="translate(25.939 17.626)">
    <g id="g112" clip-path="url(#clip-path-4)">
      <path id="path130" d="M57.927-25.4h0L27.345-55.984a3.178,3.178,0,0,1,2.179-.8,5.7,5.7,0,0,1,2.77.83L68.122-35.6,57.927-25.4M68.352-35.828,32.294-56.315a5.693,5.693,0,0,0-2.77-.83h0a5.68,5.68,0,0,1,2.766.829L68.352-35.828M29.506-57.146h0" transform="translate(-27.345 57.146)" fill="url(#linear-gradient-4)"/>
    </g>
  </g>
  <path id="path132" d="M29.838-13.116a5.9,5.9,0,0,0,2.539-.823L68.2-34.3h0L32.377-13.939a5.885,5.885,0,0,1-2.539.823m-2.409-.8-.008-.007.008.007h0m-.167-.162-.016-.015h0l.016.016" transform="translate(-1.489 94.223)"/>
  <g id="g134" transform="translate(66.714 59.796)">
    <g id="g136" clip-path="url(#clip-path-5)">
      <path id="path152" d="M49.37-34.235h0l.233-.132-.233.132" transform="translate(-49.37 34.367)" fill="url(#linear-gradient-5)"/>
    </g>
  </g>
  <g id="g154" transform="translate(25.758 59.566)">
    <g id="g156" clip-path="url(#clip-path-6)">
      <path id="path168" d="M29.613-12.944a3.181,3.181,0,0,1-2.182-.8h0l-.008-.007-.159-.155-.016-.016.183-.183a3.173,3.173,0,0,0,2.181.8,5.685,5.685,0,0,0,2.765-.828L68.206-34.491l.23.23-.233.132L32.377-13.773a5.9,5.9,0,0,1-2.539.823q-.114.006-.226.006" transform="translate(-27.247 34.491)" fill="url(#linear-gradient-6)"/>
    </g>
  </g>
  <path id="path170" d="M27.773-21.785a4.943,4.943,0,0,1-1.142-3.468h0a4.941,4.941,0,0,0,1.142,3.468h0" transform="translate(-2.014 101.919)"/>
  <g id="g172" transform="translate(24.616 76.305)">
    <g id="g174" clip-path="url(#clip-path-7)">
      <path id="path194" d="M27.773-21.621h0a4.941,4.941,0,0,1-1.142-3.468v-.36a4.943,4.943,0,0,0,1.142,3.468l.183.175-.183.184" transform="translate(-26.63 25.449)" fill="url(#linear-gradient-7)"/>
    </g>
  </g>
  <g id="g196" transform="translate(25.758 79.949)">
    <g id="g198" clip-path="url(#clip-path-8)">
      <path id="path210" d="M27.247-23.3h0l.183-.184h0l-.183.183" transform="translate(-27.247 23.481)" fill="url(#linear-gradient-8)"/>
    </g>
  </g>
  <path id="path212" d="M57.263-38.723A3.055,3.055,0,0,0,57.548-40v0a3.064,3.064,0,0,1-.285,1.275" transform="translate(24.063 89.369)"/>
  <g id="g214" transform="translate(66.717 49.373)">
    <g id="g216" clip-path="url(#clip-path-9)">
      <path id="path232" d="M49.6-29.574h0l-.23-.23L61.679-36.8A4.6,4.6,0,0,0,64.266-40a3.055,3.055,0,0,1-.285,1.273,5.3,5.3,0,0,1-2.3,2.288L49.6-29.574" transform="translate(-49.372 39.997)" fill="url(#linear-gradient-9)"/>
    </g>
  </g>
  <path id="path234" d="M64.161-35.2h0c0-1.291-.864-2.582-2.587-3.562L49.5-45.63h0l12.077,6.862c1.725.98,2.589,2.273,2.587,3.564" transform="translate(17.45 84.574)" fill="#404040"/>
  <g id="g236" transform="translate(66.716 38.944)">
    <g id="g238" clip-path="url(#clip-path-10)">
      <path id="path254" d="M64.266-35.206a4.6,4.6,0,0,0-2.587-3.2L49.371-45.4l.23-.23h0l12.077,6.862c1.723.98,2.586,2.271,2.587,3.562" transform="translate(-49.371 45.63)" fill="url(#linear-gradient-10)"/>
    </g>
  </g>
  <path id="path256" d="M26.63-52.709v0m.011-.4v0m0-.012v0m0-.015c.143-2.536,1.522-4,3.472-4.009a3.175,3.175,0,0,0-2.159.8h0l-.007.007c-.061.055-.118.113-.176.173h0a4.7,4.7,0,0,0-1.131,3.028" transform="translate(-2.014 74.771)" fill="#404040"/>
  <g id="g258" transform="translate(24.616 18.427)">
    <g id="g260" clip-path="url(#clip-path-11)">
      <path id="path280" d="M26.63-52.7v-.377c0-.136,0-.269.011-.4v-.006a.016.016,0,0,1,0-.006v-.015a4.7,4.7,0,0,1,1.131-3.028h0l.18.181A4.767,4.767,0,0,0,26.63-52.7m1.318-4,.007-.007-.007.007" transform="translate(-26.63 56.713)" fill="url(#linear-gradient-11)"/>
    </g>
  </g>
  <path id="path282" d="M28.512-57.146h0" transform="translate(-0.412 74.771)" fill="#404040"/>
  <g id="g284" transform="translate(25.758 17.626)">
    <g id="g286" clip-path="url(#clip-path-12)">
      <path id="path304" d="M68.2-35.6,32.377-55.955a5.7,5.7,0,0,0-2.77-.83,3.178,3.178,0,0,0-2.179.8l-.18-.181h0c.057-.06.115-.118.176-.173l.007-.006a3.175,3.175,0,0,1,2.159-.8h.018a5.693,5.693,0,0,1,2.77.83L68.435-35.828h0l-.23.23" transform="translate(-27.247 57.146)" fill="url(#linear-gradient-12)"/>
    </g>
  </g>
</svg>
