<svg xmlns="http://www.w3.org/2000/svg" xmlns:xlink="http://www.w3.org/1999/xlink" width="1335.35" height="750.883" viewBox="0 0 1335.35 750.883">
  <defs>
    <clipPath id="clip-path">
      <path id="path376" d="M282.223-103.854l-7.008,6.6s1.236,10.1-1.032,12.572-6.389,5.979-4.74,10.719a14.539,14.539,0,0,0,4.536,6.8h26.589s4.74-7.008,4.74-9.069-2.474-25.97-6.6-27.621S282.223-103.854,282.223-103.854Z" transform="translate(-269.064 104.587)"/>
    </clipPath>
    <clipPath id="clip-path-2">
      <path id="path388" d="M326.619-93.639s-1.03,9.689,0,14.635,1.855,10.925,1.855,10.925h62.866s6.393-2.885,6.393-6.39-2.476-8.864-13.812-8.657c-12.366-6.185-28.031-19.993-28.031-19.993l-17.729,6.592Z" transform="translate(-326.161 103.119)"/>
    </clipPath>
    <clipPath id="clip-path-3">
      <path id="path402" d="M338.176-225.945S318.9-141.434,304.062-126.18c6.6,14.018-4.123,25.559-4.123,25.559l3.608,94.508s-1.959-2.164-10.615-1.752a44.741,44.741,0,0,0-16.489,4.534s-16.078-65.547-5.361-103.475c1.238-35.041,2.063-87.4.825-95.64S267-227.056,267.1-243.534s74.479-10.856,74.479-10.856Z" transform="translate(-267.095 255.315)"/>
    </clipPath>
    <clipPath id="clip-path-4">
      <path id="path430" d="M302.444-274.554l30.918-16.283L307.391-303,289.87-288.777Z" transform="translate(-289.87 303.001)"/>
    </clipPath>
    <clipPath id="clip-path-5">
      <path id="path450" d="M289.641-316.6c6.871,12.78,5.7,33.8,3.437,50.707C303.9-269.3,324-261.364,324-261.364v21.233s-23.7,14.634-45.965,7.832c-17.108-9.07-23.5-90.487-22.674-96.054s37.722-29.888,37.722-29.888S282.77-329.383,289.641-316.6Z" transform="translate(-255.286 358.24)"/>
    </clipPath>
  </defs>
  <g id="g10" transform="translate(0 541.675)">
    <g id="g12" transform="translate(0 -541.675)">
      <path id="path14" d="M733.2-331.783a51.452,51.452,0,0,1,3.707-3.98,35.963,35.963,0,0,1,3.255-2.753l1.917-1.355,1.409-1.037c3.809-2.768,8.021-5.592,12.654-8.362a266.908,266.908,0,0,1,32.093-16.045,318.915,318.915,0,0,1,33.006-11.5c10.33-2.844,18.614-4.095,20.569-1.19,1.92,2.846-2.562,9.661-10.334,17.192a143.416,143.416,0,0,1-29.4,21.467,126.548,126.548,0,0,1-18.047,8.124,123.113,123.113,0,0,1-17.158,4.657c-5.473,1.125-10.667,1.909-15.5,2.446l-1.766.177c-.515.024-1.034.058-1.56.119-1.05.11-2.121.286-3.2.487a58.827,58.827,0,0,1-6.332,1.006l-5.317-9.449" transform="translate(456.899 642.631)" fill="#dfe9f1"/>
      <path id="path16" d="M735.078-329.643c1.725-.738,3.588-1.827,5.753-2.969,1.073-.567,2.227-1.128,3.424-1.628l3.173-1.247,12.516-4.876c4.168-1.647,8.38-3.222,12.522-4.93,4.129-1.727,8.224-3.545,12.318-5.387a537.076,537.076,0,0,0,48.028-24.864" transform="translate(458.067 645.2)" fill="none" stroke="#c3d0da" stroke-linecap="round" stroke-linejoin="round" stroke-miterlimit="10" stroke-width="1.043"/>
      <path id="path18" d="M782.456-368.432,790.939-365" transform="translate(487.59 649.631)" fill="none" stroke="#c3d0da" stroke-linecap="round" stroke-linejoin="round" stroke-miterlimit="10" stroke-width="1.043"/>
      <path id="path20" d="M779.263-362.8l-.8-9.953" transform="translate(485.103 646.942)" fill="none" stroke="#c3d0da" stroke-linecap="round" stroke-linejoin="round" stroke-miterlimit="10" stroke-width="1.043"/>
      <path id="path22" d="M771.285-362.826l7.564,5.514" transform="translate(480.629 653.125)" fill="none" stroke="#c3d0da" stroke-linecap="round" stroke-linejoin="round" stroke-miterlimit="10" stroke-width="1.043"/>
      <path id="path24" d="M765.7-355.978c.329-3.705.634-7.373.885-11.061" transform="translate(477.149 650.499)" fill="none" stroke="#c3d0da" stroke-linecap="round" stroke-linejoin="round" stroke-miterlimit="10" stroke-width="1.043"/>
      <path id="path26" d="M759.425-357.462c3.259,2.29,6.538,4.53,9.858,6.77" transform="translate(473.238 656.467)" fill="none" stroke="#c3d0da" stroke-linecap="round" stroke-linejoin="round" stroke-miterlimit="10" stroke-width="1.043"/>
      <path id="path28" d="M749.092-350.326l1.775-7.9" transform="translate(466.799 655.989)" fill="none" stroke="#c3d0da" stroke-linecap="round" stroke-linejoin="round" stroke-miterlimit="10" stroke-width="1.043"/>
      <path id="path30" d="M733.876-318.229c2.768-1.089,6.239-2.839,11.485-5.376,2.623-1.251,5.64-2.671,9.421-4.088.918-.353,1.95-.7,2.969-1.043q1.4-.445,2.807-.9c1.894-.606,3.761-1.106,5.7-1.638a203.5,203.5,0,0,1,23.421-4.53c7.826-1.125,15.613-1.913,23.267-2.974,1.658-.2,3.2-.47,4.932-.712q2.815-.5,5.739-1.017c3.738-.628,7.335-1.186,10.682-1.844a74.568,74.568,0,0,0,9.339-2.335,35.414,35.414,0,0,0,8.3-4.062c5.441-3.549,10.386-7.83,14.524-10.367,4.138-2.606,7.464-3.549,9.488-2.365,1.991,1.2,2.77,4.235,2.4,8.992a49.744,49.744,0,0,1-6.385,19.651,51.438,51.438,0,0,1-4.224,6.369,53.326,53.326,0,0,1-5.865,6.317,69.385,69.385,0,0,1-13.26,9.38,111.229,111.229,0,0,1-12.942,6.027l-2.993,1.158-1.489.55-1.716.6c-2.292.82-4.543,1.454-6.77,2.076a116.424,116.424,0,0,1-28.076,3.577c-8.5.117-16.113-.465-23.161-1.048q-5.071-.454-10.048-.9c-3.286-.225-6.711-.357-10.083-.621-6.744-.491-13.31-1.729-18.11-4.285l.651-14.589" transform="translate(456.912 653.65)" fill="#dfe9f1"/>
      <path id="path32" d="M733.681-315.024c9.334,1.552,21.936-2.98,34.27-3.828,12.206-1.26,24.2-1.615,36.207-3.023a139.9,139.9,0,0,0,17.939-3.171,181.64,181.64,0,0,0,17.642-5.261,53.953,53.953,0,0,0,17.019-9.577c5.157-4.484,9.1-9.893,12.567-15.147" transform="translate(457.196 657.982)" fill="none" stroke="#c3d0da" stroke-linecap="round" stroke-linejoin="round" stroke-miterlimit="10" stroke-width="1.405"/>
      <path id="path34" d="M801.658-340.865a57.513,57.513,0,0,0,12.2,4.272" transform="translate(499.556 666.81)" fill="none" stroke="#c3d0da" stroke-linecap="round" stroke-linejoin="round" stroke-miterlimit="10" stroke-width="1.405"/>
      <path id="path36" d="M796.53-333.813a105.27,105.27,0,0,0,.517-13.334" transform="translate(496.361 662.895)" fill="none" stroke="#c3d0da" stroke-linecap="round" stroke-linejoin="round" stroke-miterlimit="10" stroke-width="1.405"/>
      <path id="path38" d="M785.314-335.907c2.69,3.218,5.519,6.4,8.5,9.432" transform="translate(489.371 669.899)" fill="none" stroke="#c3d0da" stroke-linecap="round" stroke-linejoin="round" stroke-miterlimit="10" stroke-width="1.405"/>
      <path id="path40" d="M777.1-329.286c1.946-4.6,3.7-9.232,5.175-13.853" transform="translate(484.253 665.393)" fill="none" stroke="#c3d0da" stroke-linecap="round" stroke-linejoin="round" stroke-miterlimit="10" stroke-width="1.405"/>
      <path id="path42" d="M767.913-333.774c3.149,4.335,6.337,8.65,9.639,12.925" transform="translate(478.528 671.229)" fill="none" stroke="#c3d0da" stroke-linecap="round" stroke-linejoin="round" stroke-miterlimit="10" stroke-width="1.405"/>
      <path id="path44" d="M752.885-328.819c1.768-3.238,3.627-6.477,5.523-9.68" transform="translate(469.163 668.284)" fill="none" stroke="#c3d0da" stroke-linecap="round" stroke-linejoin="round" stroke-miterlimit="10" stroke-width="1.405"/>
      <path id="path46" d="M703.792-344.521a12.8,12.8,0,0,1,3.779-.874,20.4,20.4,0,0,1,2.225-.1,18.735,18.735,0,0,0,2,.009.5.5,0,0,0,.143-.048,3.546,3.546,0,0,1,.4-.006l.922.009,1.8.052c1.195.045,2.346.119,3.476.208,2.257.175,4.393.415,6.382.641l2.868.32,1.361.147,1.524.2a158.974,158.974,0,0,1,26.483,5.8,141.441,141.441,0,0,1,14.513,5.426,132.372,132.372,0,0,1,14.777,7.65,147.122,147.122,0,0,1,27.433,21.259,187.12,187.12,0,0,1,20.155,23.458,140.376,140.376,0,0,1,15.357,25.845c7.447,16.638,9.129,30.162,4.53,33.361-4.672,3.259-15.3-3.655-28-13.063-6.393-4.781-13.427-10.046-20.59-15.4-7.525-5.7-15-11.52-21.845-16.965-7.585-6.144-14.9-12.07-22.042-17.859-6.88-5.588-13.606-10.853-20.434-15.968l-19.588-14.691c-3.251-2.374-6.09-4.727-8.847-6.811-1.4-1.05-2.714-2.008-4.22-2.937-1.272-.915-2.982-1.891-4.138-1.461l-.418-18.19" transform="translate(438.571 663.892)" fill="#dfe9f1"/>
      <path id="path48" d="M704.366-339.258a9.243,9.243,0,0,1,3.56.063c.729.119,1.379.268,1.783.377.283.089.892.227,1.411.355,2.095.532,4.062,1.164,5.928,1.829s3.642,1.363,5.35,2.043l5.135,2.039c6.932,2.779,13.79,5.768,20.5,9.049A206.337,206.337,0,0,1,767.6-312.671a211.345,211.345,0,0,1,18.045,12.832,325.33,325.33,0,0,1,32.238,29.587,245.523,245.523,0,0,1,27.172,33.268" transform="translate(438.929 667.719)" fill="none" stroke="#c3d0da" stroke-linecap="round" stroke-linejoin="round" stroke-miterlimit="10" stroke-width="1.704"/>
      <path id="path50" d="M777.467-294.434c-.651,4.9-1.433,9.717-2.37,14.491" transform="translate(483.004 695.744)" fill="none" stroke="#c3d0da" stroke-linecap="round" stroke-linejoin="round" stroke-miterlimit="10" stroke-width="1.704"/>
      <path id="path52" d="M772.147-296.737c5.03-2.037,10.124-4.012,15.247-5.91" transform="translate(481.167 690.625)" fill="none" stroke="#c3d0da" stroke-linecap="round" stroke-linejoin="round" stroke-miterlimit="10" stroke-width="1.704"/>
      <path id="path54" d="M763.618-308.57c-1.227,4.96-2.5,9.832-3.885,14.719" transform="translate(473.43 686.935)" fill="none" stroke="#c3d0da" stroke-linecap="round" stroke-linejoin="round" stroke-miterlimit="10" stroke-width="1.704"/>
      <path id="path56" d="M754.44-312.6c5.625-2.288,11.371-4.374,17.234-6.326" transform="translate(470.132 680.48)" fill="none" stroke="#c3d0da" stroke-linecap="round" stroke-linejoin="round" stroke-miterlimit="10" stroke-width="1.704"/>
      <path id="path58" d="M745.769-321.65q-.231,9.775-1.2,19.346" transform="translate(463.98 678.784)" fill="none" stroke="#c3d0da" stroke-linecap="round" stroke-linejoin="round" stroke-miterlimit="10" stroke-width="1.704"/>
      <path id="path60" d="M729.166-328.175q5.853-3.318,12-6.369" transform="translate(454.383 670.748)" fill="none" stroke="#c3d0da" stroke-linecap="round" stroke-linejoin="round" stroke-miterlimit="10" stroke-width="1.704"/>
      <path id="path62" d="M183.063-414.925a12.911,12.911,0,0,1-6.51-1.288,13.863,13.863,0,0,1-2.7-1.727c-1.034-.909-.7-.541-.887-.643a3.409,3.409,0,0,0-.963,0l-.452.076-.227.048a6.417,6.417,0,0,1-.641-.123l-1.279-.268-1.113-.141c-3.053-.364-6.821-.569-11.348-.783-2.265-.11-4.717-.227-7.395-.426-1.331-.1-2.742-.221-4.2-.376l-4.152-.5c-5.563-.738-11.3-1.764-17.2-3.041-9.921-2.177-21.276-4.989-30.755-7.153-9.428-2.283-17.073-4.012-17.739-7.228-.661-3.075,6.057-7.594,16.428-10.38,10.324-2.863,23.859-3.606,35.137-2.4a115.813,115.813,0,0,1,18.089,3.35c2.853.755,5.256,1.521,7.934,2.357,2.628.84,5.258,1.751,7.811,2.785a53.465,53.465,0,0,1,13.785,7.8,31.189,31.189,0,0,1,2.606,2.389,18.332,18.332,0,0,1,2.428,2.688,14.769,14.769,0,0,1,1.625,2.883,5.793,5.793,0,0,0,.509,1.19,2.376,2.376,0,0,0,1.065.835l.147,10.072" transform="translate(47.02 597.662)" fill="#dfe9f1"/>
      <path id="path64" d="M178.529-424.618a7.622,7.622,0,0,1-3.947-1.881,7.692,7.692,0,0,1-.617-.625l-.164-.219-.342-.42a10.18,10.18,0,0,0-1.58-1.5,10.645,10.645,0,0,0-.948-.645l-1.292-.734c-.859-.485-1.645-.9-2.523-1.292a60.077,60.077,0,0,0-11.271-3.681c-3.974-.937-8.067-1.673-12.18-2.484-4.094-.814-8.175-1.641-12.278-2.385-16.367-3.015-33.17-5.185-50.469-3.789" transform="translate(50.424 602.102)" fill="none" stroke="#c3d0da" stroke-linecap="round" stroke-linejoin="round" stroke-miterlimit="10" stroke-width="0.969"/>
      <path id="path66" d="M96.778-441.83c-1.666-2.272-3.39-4.579-5.191-6.817" transform="translate(57.074 599.645)" fill="none" stroke="#c3d0da" stroke-linecap="round" stroke-linejoin="round" stroke-miterlimit="10" stroke-width="0.969"/>
      <path id="path68" d="M100.122-444.119c-1.5,2.69-2.951,5.458-4.327,8.189" transform="translate(59.696 602.467)" fill="none" stroke="#c3d0da" stroke-linecap="round" stroke-linejoin="round" stroke-miterlimit="10" stroke-width="0.969"/>
      <path id="path70" d="M107.491-439.926c-.942-2.751-1.922-5.467-2.932-8.2" transform="translate(65.157 599.971)" fill="none" stroke="#c3d0da" stroke-linecap="round" stroke-linejoin="round" stroke-miterlimit="10" stroke-width="0.969"/>
      <path id="path72" d="M114.516-442.1c-2.219,2.627-4.4,5.3-6.528,7.964" transform="translate(67.294 603.723)" fill="none" stroke="#c3d0da" stroke-linecap="round" stroke-linejoin="round" stroke-miterlimit="10" stroke-width="0.969"/>
      <path id="path74" d="M119.787-436.907l-3.952-10.379" transform="translate(72.183 600.493)" fill="none" stroke="#c3d0da" stroke-linecap="round" stroke-linejoin="round" stroke-miterlimit="10" stroke-width="0.969"/>
      <path id="path76" d="M130.381-438.8c-1.861,1.675-3.637,3.4-5.4,5.149" transform="translate(77.886 605.783)" fill="none" stroke="#c3d0da" stroke-linecap="round" stroke-linejoin="round" stroke-miterlimit="10" stroke-width="0.969"/>
      <path id="path78" d="M130.6-415.671a8.214,8.214,0,0,1-1.061-2.865c-.412-1.511-.938-3.419-1.519-5.867-.286-1.221-.588-2.588-.844-4.27q-.342-1.987-.691-4.012c-.445-2.7-.856-5.51-1.221-8.455a148.78,148.78,0,0,1,.205-41.081c.509-3.21,1.154-6.655,2.008-10.083.841-3.406,1.845-6.767,2.948-10.016a167.577,167.577,0,0,1,7.277-17.8c1.25-2.638,2.5-5.064,3.691-7.263a36.985,36.985,0,0,1,3.653-5.737c2.5-3.093,5-4.121,6.776-3.532,1.79.63,2.974,2.415,4.067,5.372a33.408,33.408,0,0,1,1.452,5.867c.39,2.584.66,5.317.827,8.269.335,5.88.234,12.351.022,18.653-.255,6.194-.511,12.414-.755,18.324a239.423,239.423,0,0,1-4.818,38.7q-.971,4.431-2.112,8.572c-.775,2.87-1.578,5.066-2.311,7.722-1.491,5.116-3.346,10.44-6.512,13.576l-11.08-4.075" transform="translate(77.233 544.705)" fill="#dfe9f1"/>
      <path id="path80" d="M131.618-417.231a16.174,16.174,0,0,0,1.4-5.376c.25-2.153.331-4.482.4-6.941l.145-3.783.2-3.638.349-7.3c.436-9.75.785-19.558,1.5-29.314a237.085,237.085,0,0,1,3.7-28.92c1.822-9.51,4.09-19.038,5.813-28.819" transform="translate(82.019 548.126)" fill="none" stroke="#c3d0da" stroke-linecap="round" stroke-linejoin="round" stroke-miterlimit="10" stroke-width="1.135"/>
      <path id="path82" d="M136.778-513.941l8.754-4.61" transform="translate(85.234 556.084)" fill="none" stroke="#c3d0da" stroke-linecap="round" stroke-linejoin="round" stroke-miterlimit="10" stroke-width="1.135"/>
      <path id="path84" d="M139.466-509.231c-3.045-1.956-6.069-3.978-9.076-6.036" transform="translate(81.253 558.131)" fill="none" stroke="#c3d0da" stroke-linecap="round" stroke-linejoin="round" stroke-miterlimit="10" stroke-width="1.135"/>
      <path id="path86" d="M134.678-501.026q4.717-1.886,9.477-3.627" transform="translate(83.926 564.745)" fill="none" stroke="#c3d0da" stroke-linecap="round" stroke-linejoin="round" stroke-miterlimit="10" stroke-width="1.135"/>
      <path id="path88" d="M137.917-493.079q-5.036-3.373-10-6.956" transform="translate(79.713 567.623)" fill="none" stroke="#c3d0da" stroke-linecap="round" stroke-linejoin="round" stroke-miterlimit="10" stroke-width="1.135"/>
      <path id="path90" d="M133.625-485.889q5.688-3.159,11.4-6.213" transform="translate(83.269 572.566)" fill="none" stroke="#c3d0da" stroke-linecap="round" stroke-linejoin="round" stroke-miterlimit="10" stroke-width="1.135"/>
      <path id="path92" d="M135.808-474.114l-7.1-5.35" transform="translate(80.207 580.441)" fill="none" stroke="#c3d0da" stroke-linecap="round" stroke-linejoin="round" stroke-miterlimit="10" stroke-width="1.135"/>
      <path id="path94" d="M236.117-410.563,180.4-418.189a686.086,686.086,0,0,1-73.073-14.4c-11.4-2.963-23.808-6.54-36.053-10.444-12.295-3.906-24.341-8.2-34.881-12.492C15.355-464.159-.318-472.606,0-480.021c.309-7.321,17.005-13.189,39.915-15.758a301.82,301.82,0,0,1,37.462-1.675,308.572,308.572,0,0,1,39.663,3.049,241.089,241.089,0,0,1,77.242,24.6c5.4,2.865,10.563,5.791,15.437,8.929,4.851,3.112,9.353,6.317,13.521,9.559a196.278,196.278,0,0,1,21.3,19.281l-8.423,21.467" transform="translate(0 569.212)" fill="#dfe9f1"/>
      <path id="path96" d="M232.036-429.236a355.875,355.875,0,0,0-51.56-21.724c-17.884-5.99-36.29-10.882-54.889-15.162-18.609-4.261-37.438-7.83-56.335-11.05-18.89-3.16-37.793-6.207-57-8.62" transform="translate(7.637 576.497)" fill="none" stroke="#c3d0da" stroke-linecap="round" stroke-linejoin="round" stroke-miterlimit="10" stroke-width="2.218"/>
      <path id="path98" d="M46.909-474.772,37.02-491.5" transform="translate(23.07 572.942)" fill="none" stroke="#c3d0da" stroke-linecap="round" stroke-linejoin="round" stroke-miterlimit="10" stroke-width="2.218"/>
      <path id="path100" d="M55.747-479.792q-5.767,8.95-11.394,17.93" transform="translate(27.639 580.237)" fill="none" stroke="#c3d0da" stroke-linecap="round" stroke-linejoin="round" stroke-miterlimit="10" stroke-width="2.218"/>
      <path id="path102" d="M71.495-469.117c-1.89-6.371-3.83-12.7-5.814-19.052" transform="translate(40.93 575.017)" fill="none" stroke="#c3d0da" stroke-linecap="round" stroke-linejoin="round" stroke-miterlimit="10" stroke-width="2.218"/>
      <path id="path104" d="M88.1-473.675q-7.991,8.729-15.682,17.606" transform="translate(45.127 584.049)" fill="none" stroke="#c3d0da" stroke-linecap="round" stroke-linejoin="round" stroke-miterlimit="10" stroke-width="2.218"/>
      <path id="path106" d="M99.225-460.883q-3.7-12.141-7.805-24.235" transform="translate(56.969 576.919)" fill="none" stroke="#c3d0da" stroke-linecap="round" stroke-linejoin="round" stroke-miterlimit="10" stroke-width="2.218"/>
      <path id="path108" d="M123.884-463.383c-4.6,3.422-9.139,7.005-13.559,10.548" transform="translate(68.75 590.462)" fill="none" stroke="#c3d0da" stroke-linecap="round" stroke-linejoin="round" stroke-miterlimit="10" stroke-width="2.218"/>
      <path id="path110" d="M731.325-438.8a47.035,47.035,0,0,1-4.149-22.352,54.58,54.58,0,0,1,1.649-10.563,76.243,76.243,0,0,1,6.358-16.32c3.045-5.627,6.828-10.178,10.65-10.453,3.608-.219,6.172,3.467,7.938,7.4a52.971,52.971,0,0,1,2.956,9.057,46.1,46.1,0,0,1,5.084-22.542,70.981,70.981,0,0,1,7.014-11.321c3.541-4.53,8.014-8.488,12.392-8.168,5.824.442,10.085,8.254,10.5,18.519a59.154,59.154,0,0,1,13.779-8.821c3.179-1.517,21.833-9.767,27.624-3.041,3.564,4.114.608,11.84-.42,14.582-3.229,8.546-10.258,13.271-13.059,15.193-4.746,3.242-6.38,4.023-9.215,4.8,12.6,2.623,17.506,10.17,16.772,15.725-.5,3.7-4.634,6.5-8.914,8.5a65,65,0,0,1-9.806,3.508,48.816,48.816,0,0,1-25.5-.149c3.826,1.649,16.151,7.906,15.245,13.855-.494,3.4-5.192,5.783-10.726,7.51a108.922,108.922,0,0,1-15.985,3.352,97.531,97.531,0,0,1-12.862.82,107.839,107.839,0,0,1-16.82-1.242c-2.85-.467-5.212-1.043-6.915-1.465a46.688,46.688,0,0,1-3.6-6.373" transform="translate(453.094 552.633)" fill="#dfe9f1"/>
      <path id="path112" d="M728.4-427.117s.019-.119.058-.344a8.035,8.035,0,0,1,.225-.989,19.707,19.707,0,0,1,1.381-3.595,68.584,68.584,0,0,1,7.618-11.36,186.256,186.256,0,0,1,12.725-14.55c4.93-5.112,10.468-10.341,16.2-15.431a507.812,507.812,0,0,1,52.934-40.676" transform="translate(453.908 558.882)" fill="none" stroke="#c3d0da" stroke-linecap="round" stroke-linejoin="round" stroke-miterlimit="10" stroke-width="2.161"/>
      <path id="path114" d="M760.226-496.073c12.206,2,24.168,4.45,36.03,7.157" transform="translate(473.738 570.091)" fill="none" stroke="#c3d0da" stroke-linecap="round" stroke-linejoin="round" stroke-miterlimit="10" stroke-width="2.161"/>
      <path id="path116" d="M757.678-480.07c.349-12.137,1.2-24.425,2.359-36.726" transform="translate(472.15 557.178)" fill="none" stroke="#c3d0da" stroke-linecap="round" stroke-linejoin="round" stroke-miterlimit="10" stroke-width="2.161"/>
      <path id="path118" d="M739.526-476.5a268.069,268.069,0,0,1,34.188,3.106" transform="translate(460.839 582.286)" fill="none" stroke="#c3d0da" stroke-linecap="round" stroke-linejoin="round" stroke-miterlimit="10" stroke-width="2.161"/>
      <path id="path120" d="M738.265-459.505a272.765,272.765,0,0,1-1.742-39.676" transform="translate(458.923 568.154)" fill="none" stroke="#c3d0da" stroke-linecap="round" stroke-linejoin="round" stroke-miterlimit="10" stroke-width="2.161"/>
      <path id="path122" d="M187.629-323.7a63.282,63.282,0,0,1,7.09,29.76,73.36,73.36,0,0,1-1.5,14.314,102.733,102.733,0,0,1-7.436,22.365c-3.714,7.774-8.491,14.145-13.607,14.775-4.833.539-8.533-4.24-11.17-9.4a71.163,71.163,0,0,1-4.592-11.975,62.06,62.06,0,0,1-5.3,30.645,95.433,95.433,0,0,1-8.661,15.693c-4.453,6.328-10.194,11.955-16.1,11.816-7.855-.195-14.118-10.408-15.375-24.176a79.57,79.57,0,0,1-17.923,12.795c-4.169,2.251-28.681,14.61-36.92,5.962-5.075-5.292-1.623-15.874-.429-19.631,3.762-11.706,12.888-18.534,16.521-21.3,6.163-4.683,8.3-5.846,12.061-7.073-17.106-2.669-24.22-12.483-23.613-20,.42-5,5.791-9.055,11.4-12.029a86.953,86.953,0,0,1,12.947-5.382,65.705,65.705,0,0,1,34.278-1.53c-5.256-1.959-22.248-9.533-21.43-17.588.429-4.605,6.583-8.127,13.906-10.821a146.245,146.245,0,0,1,21.26-5.594,131.454,131.454,0,0,1,17.227-1.972,145.192,145.192,0,0,1,22.7.524c3.861.435,7.073,1.05,9.392,1.5a63.057,63.057,0,0,1,5.273,8.319" transform="translate(33.307 670.931)" fill="#dfe9f1"/>
      <path id="path124" d="M181.872-342.689s-.019.158-.054.463a11.051,11.051,0,0,1-.236,1.344,26.346,26.346,0,0,1-1.615,4.928c-1.736,4.168-5.116,9.607-9.467,15.783a249.354,249.354,0,0,1-16.116,20.421c-6.281,7.207-13.367,14.608-20.728,21.841C104.2-248.894,70.14-222.98,65.269-219.639" transform="translate(40.673 665.674)" fill="none" stroke="#c3d0da" stroke-linecap="round" stroke-linejoin="round" stroke-miterlimit="10" stroke-width="2.161"/>
      <path id="path126" d="M115.529-289.956c-16.541-1.863-32.787-4.341-48.913-7.172" transform="translate(41.513 694.064)" fill="none" stroke="#c3d0da" stroke-linecap="round" stroke-linejoin="round" stroke-miterlimit="10" stroke-width="2.161"/>
      <path id="path128" d="M100.305-295.442c.355,16.338.045,32.911-.676,49.526" transform="translate(62.085 695.115)" fill="none" stroke="#c3d0da" stroke-linecap="round" stroke-linejoin="round" stroke-miterlimit="10" stroke-width="2.161"/>
      <path id="path130" d="M140.968-319.708A360.585,360.585,0,0,1,94.8-321.561" transform="translate(59.078 678.839)" fill="none" stroke="#c3d0da" stroke-linecap="round" stroke-linejoin="round" stroke-miterlimit="10" stroke-width="2.161"/>
      <path id="path132" d="M125.755-322.926c3.114,17.147,4.449,35.168,5.037,53.211" transform="translate(78.365 677.989)" fill="none" stroke="#c3d0da" stroke-linecap="round" stroke-linejoin="round" stroke-miterlimit="10" stroke-width="2.161"/>
      <path id="path134" d="M290.477-449.822,174.534-270.756H290.477Zm0,348.473-7.008-6.724,7.008-82.166H85l-7.008-6.724L85-262.381l170.7-268.6,119.239-6.724,7.01,6.724v260.228h55.393v80.517H381.945v88.89H290.477" transform="translate(48.602 544.147)" fill="#b5c1ca"/>
      <path id="path136" d="M584.945-315.953c0-79.227-23.187-140.422-84.38-140.422-61.835,0-85.025,61.195-85.025,140.422S438.729-174.89,500.565-174.89c61.193,0,84.38-61.836,84.38-141.062Zm-262.16,0c0-110.79,54.752-221.579,177.78-221.579,122.381,0,177.778,110.79,177.778,221.579S622.946-93.731,500.565-93.731c-123.028,0-177.78-111.432-177.78-222.222" transform="translate(201.145 544.256)" fill="#b5c1ca"/>
      <path id="path138" d="M764.834-449.822,648.891-270.756H764.834Zm0,348.473-7.008-6.724,7.008-82.166H559.358l-7.008-6.724,7.008-65.417,170.693-268.6,119.241-6.724,7.008,6.724v260.228l48.389-6.724,7.008,6.724v80.517H856.3v88.89H764.834" transform="translate(344.2 544.147)" fill="#b5c1ca"/>
      <path id="path140" d="M283.469-456.546,167.526-277.48H283.469Zm0,348.473v-88.89H77.992v-72.141l170.694-268.6H374.935V-277.48h55.4v80.517h-55.4v88.89H283.469" transform="translate(48.602 544.147)" fill="#e4eaed"/>
      <path id="path142" d="M580.627-320.1c0-79.229-23.187-140.42-84.382-140.42-61.833,0-85.023,61.19-85.023,140.42s23.189,141.063,85.023,141.063c61.195,0,84.382-61.835,84.382-141.063Zm-262.16,0c0-110.79,54.752-221.579,177.778-221.579,122.383,0,177.78,110.79,177.78,221.579s-55.4,222.224-177.78,222.224c-123.026,0-177.778-111.435-177.778-222.224" transform="translate(198.454 541.675)" fill="#e4eaed"/>
      <path id="path144" d="M757.826-456.546,641.884-277.48H757.826Zm0,348.473v-88.89H552.351v-72.141l170.692-268.6H849.292V-277.48h55.4v80.517h-55.4v88.89H757.826" transform="translate(344.2 544.147)" fill="#e4eaed"/>
      <path id="path146" d="M258.349,30.4a30.955,30.955,0,0,0-.56-7.023l-.372-1.774-.463-1.813-.361-1.424-.268-1.146c-.857-3.4-1.835-6.724-2.839-9.932q-2.86-8.756-5.975-18.281c-4.114-12.307-8.739-25.574-14.028-39.648S222.24-79.6,215.429-95.141q-5.11-11.657-10.882-23.8-2.893-6.064-5.975-12.228c-2.069-4.127-4.3-8.512-6.579-12.734-7.683-14.314-16.69-29.1-25.8-43.232s-18.312-27.682-26.635-39.622l-3.228-4.616q-1.642-2.282-3.28-4.363c-2.18-2.772-4.326-5.3-6.4-7.65-4.142-4.679-7.965-8.655-11.33-12.031-6.751-6.664-11.755-11.182-15.289-10.064-1.714.55-3.021,2.558-3.754,5.811a42.863,42.863,0,0,0-.393,12.94,147.531,147.531,0,0,0,2.872,17.058c.624,2.861,1.277,5.865,1.957,8.992.308,1.482.625,2.969.89,4.408l.211,1.093.3,1.357q.321,1.373.64,2.768a422.361,422.361,0,0,0,14.571,47.433c5.919,16.2,12.536,32.223,18.913,46.827q1.379,3.129,2.743,6.226l2.862,6.35Q144.743-97.9,147.74-91.8c3.986,8.135,8.12,15.976,12.333,23.514a462.061,462.061,0,0,0,26.189,41.525,423.8,423.8,0,0,0,26.667,33.9c4.348,5.045,8.763,9.692,12.76,13.979,2.008,2.169,3.935,4.3,5.763,6.45a40.124,40.124,0,0,1,2.578,3.218,10.348,10.348,0,0,1,1.617,3.54l22.7-3.922" transform="translate(59.574 713.682)" fill="#3b97d3"/>
      <path id="path148" d="M240.891,21.015a23.587,23.587,0,0,0-1.8-6.03c-.42-.978-.781-1.712-1.125-2.421l-1.13-2.3c-1.526-3.032-3.121-5.929-4.72-8.728L222.755-14.74Q213.549-31.013,204.78-47.6c-11.715-22.094-22.93-44.528-33.883-67.112-5.488-11.291-10.83-22.651-16.428-33.857l-16.924-33.623c-5.65-11.228-11.259-22.508-16.648-33.965l-4.007-8.622-3.876-8.538c-2.512-5.38-5.387-10.8-8.291-16.454" transform="translate(65.259 723.576)" fill="none" stroke="#285680" stroke-linecap="round" stroke-linejoin="round" stroke-miterlimit="10" stroke-width="2.047"/>
      <path id="path150" d="M130.146-210.351q-10.083-3.623-20.159-7.419" transform="translate(68.539 743.517)" fill="none" stroke="#285680" stroke-linecap="round" stroke-linejoin="round" stroke-miterlimit="10" stroke-width="2.047"/>
      <path id="path152" d="M127.342-195.945l12-19.372" transform="translate(79.354 745.046)" fill="none" stroke="#285680" stroke-linecap="round" stroke-linejoin="round" stroke-miterlimit="10" stroke-width="2.047"/>
      <path id="path154" d="M145.914-181.154l-20.584-2.363" transform="translate(78.101 764.862)" fill="none" stroke="#285680" stroke-linecap="round" stroke-linejoin="round" stroke-miterlimit="10" stroke-width="2.047"/>
      <path id="path156" d="M145.492-157.465l11.232-23.7" transform="translate(90.664 766.33)" fill="none" stroke="#285680" stroke-linecap="round" stroke-linejoin="round" stroke-miterlimit="10" stroke-width="2.047"/>
      <path id="path158" d="M164.128-147.317,137.649-152.6" transform="translate(85.777 784.13)" fill="none" stroke="#285680" stroke-linecap="round" stroke-linejoin="round" stroke-miterlimit="10" stroke-width="2.047"/>
      <path id="path160" d="M168.2-114.593l6.157-18.7" transform="translate(104.817 796.162)" fill="none" stroke="#285680" stroke-linecap="round" stroke-linejoin="round" stroke-miterlimit="10" stroke-width="2.047"/>
      <path id="path162" d="M280.512-21.386a11.915,11.915,0,0,0,0-5.895,19.9,19.9,0,0,0-2.127-4.993c-1.753-3.044-3.556-5.965-5.424-8.871-3.707-5.774-7.655-11.111-11.178-16.039-1.762-2.463-3.411-4.83-4.934-7.083a61.363,61.363,0,0,1-3.707-6.382A51.186,51.186,0,0,1,248.8-81.615c-4.623-18.361-.95-34.837-13.219-48.119-1.844-2-8.96-9.906-16.948-8.531-4.181.721-6.211,3.638-17.117,15.225-13.237,14.065-16.655,16.5-20.027,15.822-4.246-.857-6.308-6.038-8.107-10.014-4.217-9.319-.6-13.758-5-22.728-1.269-2.582-3.635-7.5-7.615-8.057-4.12-.578-5.983,3.963-9.01,3.523-2.876-.416-3.474-4.986-4.273-10.983s-1.919-13.338-5.133-19.5c-3.464-6.635-11.861-13.533-18.512-11.156-4.3,1.539-6.67,6.519-8.91,11.356-6.952,15.015-1.815,25.444-8.669,30.634-.495.372-3.754,2.755-6.849,1.8-5.3-1.638-3.649-10.882-10.4-20.889-1.8-2.664-5.881-8.856-10.312-8.293-4.7.6-5.043,8.3-10.125,9.356-4.386.909-6.533-4.35-14.866-9.077-1.76-1-14.657-8.43-21.629-3.989-4.834,3.08-6.577,11.708-4.819,18.666,2.255,8.919,10.1,14.32,19.357,20.108,9.274,5.807,19.848,11.894,28.113,22.443,2.644,3.376,5.02,7.127,4.76,11.377C79.045-95.39,71-93.7,69.188-87.714a13.488,13.488,0,0,0,.2,7.372,28.107,28.107,0,0,0,4.388,8.512c4.066,5.614,10.071,10.538,16.337,12.54,8.2,2.618,14.107-.377,21.059-3.775S126.12-70.29,137.971-70a52.47,52.47,0,0,1,8.764.945c3.667.763,7.511,2.307,8.414,5.069,1.691,5.177-8.91,8.746-12.1,19.852-2.49,8.67.218,20.768,7.731,26.555,2.733,2.1,5.863,3.2,12.465,2.729s16.692-2.458,32.97-6.971c16.123-4.466,24.95-7.618,31.133-9.511s9.65-2.54,14.706-2.6A36.068,36.068,0,0,1,257.6-31.071a28.873,28.873,0,0,1,8.373,5.581c.541.522,1.63,1.544,2.292,2.243.364.38.589.659.881,1.019s.6.753.876,1.158a9.009,9.009,0,0,1,1.744,6.142,9.357,9.357,0,0,1,4.411-3.3,8.978,8.978,0,0,0,4.335-3.156" transform="translate(16.57 762.933)" fill="#ee5e43"/>
      <path id="path164" d="M267.784-32.843a7.844,7.844,0,0,0-.433-1.279,12.336,12.336,0,0,0-2.045-3.173c-.541-.63-1.136-1.262-1.816-1.92-.781-.757-1.645-1.558-2.565-2.424a72.855,72.855,0,0,0-6.1-5.134A130.411,130.411,0,0,0,236.44-57.857c-7.475-3.869-15.515-8.135-23.743-12.483-16.463-8.7-33.5-18.075-47.764-26.224s-26.025-14.645-32.274-17.177-15.5-6.456-25.753-11.345A345.936,345.936,0,0,1,75.531-142.41c-10.046-6.183-19.157-12.239-25.734-16.742s-10.7-7.371-10.7-7.371" transform="translate(24.366 775.451)" fill="none" stroke="#c4422b" stroke-linecap="round" stroke-linejoin="round" stroke-miterlimit="10" stroke-width="2.379"/>
      <path id="path166" d="M115.274-134.005C99.756-127.379,83.979-120.988,67-115.967" transform="translate(41.75 795.715)" fill="#f29c1f"/>
      <path id="path168" d="M115.274-134.005C99.756-127.379,83.979-120.988,67-115.967" transform="translate(41.75 795.715)" fill="none" stroke="#c4422b" stroke-linecap="round" stroke-linejoin="round" stroke-miterlimit="10" stroke-width="2.379"/>
      <path id="path170" d="M92.215-114.977c-2.081-18.854-3.386-37.644-2.36-55.626" transform="translate(55.771 772.909)" fill="#f29c1f"/>
      <path id="path172" d="M92.215-114.977c-2.081-18.854-3.386-37.644-2.36-55.626" transform="translate(55.771 772.909)" fill="none" stroke="#c4422b" stroke-linecap="round" stroke-linejoin="round" stroke-miterlimit="10" stroke-width="2.379"/>
      <path id="path174" d="M167.023-106.731c-17,7.193-34.267,14.082-52.006,20.48" transform="translate(71.674 812.711)" fill="#f29c1f"/>
      <path id="path176" d="M167.023-106.731c-17,7.193-34.267,14.082-52.006,20.48" transform="translate(71.674 812.711)" fill="none" stroke="#c4422b" stroke-linecap="round" stroke-linejoin="round" stroke-miterlimit="10" stroke-width="2.379"/>
      <path id="path178" d="M142.516-88.605c.322-17.9.909-35.759,1.855-53.518" transform="translate(88.81 790.656)" fill="none" stroke="#c4422b" stroke-linecap="round" stroke-linejoin="round" stroke-miterlimit="10" stroke-width="2.379"/>
      <path id="path180" d="M107.187-115.215c-.139-11.83-.348-23.674-.346-35.447" transform="translate(66.579 785.335)" fill="#f29c1f"/>
      <path id="path182" d="M107.187-115.215c-.139-11.83-.348-23.674-.346-35.447" transform="translate(66.579 785.335)" fill="none" stroke="#c4422b" stroke-linecap="round" stroke-linejoin="round" stroke-miterlimit="10" stroke-width="2.379"/>
      <path id="path184" d="M201.906-66.162a94.3,94.3,0,0,0,50.073-11.513,93.954,93.954,0,0,0,37.553-38.384A184.836,184.836,0,0,1,271.5-104.878c-16.307,8.86-25.308,10.564-37.819,16.645a129.571,129.571,0,0,0-31.775,22.07" transform="translate(125.819 806.898)" fill="#ee5e43"/>
      <path id="path186" d="M201.906-55.107c12.615-4.892,28.81-13.465,42.719-28.546,4.359-4.729,10.425-11.42,15.048-22.119a71.835,71.835,0,0,0,5.817-29.078,125.988,125.988,0,0,1-19,26.751c-8.9,9.582-14.353,12.415-22.718,21.073a119.893,119.893,0,0,0-21.867,31.918" transform="translate(125.819 795.189)" fill="#ee5e43"/>
      <path id="path188" d="M201.906-49.679A94.3,94.3,0,0,0,231.7-91.537a93.96,93.96,0,0,0,2.6-53.635,350.375,350.375,0,0,0-23.287,57.89,348.783,348.783,0,0,0-9.107,37.6" transform="translate(125.819 788.757)" fill="#ee5e43"/>
      <path id="path190" d="M203.448-46.178c14.286-23.021,15.078-39.12,12.987-49.71-1.283-6.514-4.2-13.689-4.2-25.464a74.965,74.965,0,0,1,4.46-25.2,54.223,54.223,0,0,0-16.5,21.958c-2.37,6.012-3.9,13.407-1.586,40.036.84,9.654,2.266,22.784,4.841,38.384" transform="translate(123.05 787.894)" fill="#ee5e43"/>
      <path id="path192" d="M216.128-49.524a159.383,159.383,0,0,0-5.512-51.084c-3.919-13.946-7.919-20.3-11.187-24.472a59.112,59.112,0,0,0-22.484-17.357,99.071,99.071,0,0,1,12.4,22.59c5.694,14.658,4.811,22.995,8.622,36.161,2.459,8.488,7.337,20.6,18.158,34.161" transform="translate(110.264 790.461)" fill="#ee5e43"/>
      <path id="path194" d="M229.023-57.24a94.263,94.263,0,0,0-23.293-45.8A93.955,93.955,0,0,0,159.4-130.182a350.162,350.162,0,0,0,40.52,47.453,349.211,349.211,0,0,0,29.1,25.49" transform="translate(99.33 798.097)" fill="#ee5e43"/>
      <path id="path196" d="M240.964-69.2A100.256,100.256,0,0,0,198.6-103.159a100.234,100.234,0,0,0-53.265-6.8c29.29,9.345,45.875,19.547,55.882,27.762,4.6,3.779,16.615,14.362,32.5,13.945a35.621,35.621,0,0,0,7.248-.946" transform="translate(90.568 810.051)" fill="#ee5e43"/>
      <path id="path198" d="M700.1-15.925a129.038,129.038,0,0,0,40.682-3.913,122.6,122.6,0,0,0,16.911-5.722c12.455-5.3,40.955-19.025,39.709-32.108-1.19-12.475-29.018-17.37-32.571-17.827a94.105,94.105,0,0,0,39.936-10.193,132.974,132.974,0,0,0,19.7-12.035,51.373,51.373,0,0,0,10.358-10.085,22.735,22.735,0,0,0,3.088-5.646,16.634,16.634,0,0,0,.972-6.081c-.245-11.228-15.271-19.259-34.545-20.449a112.413,112.413,0,0,0,8.181-10.429,120.641,120.641,0,0,0,8.412-14.232c.66-1.309,2.117-4.244,3.813-7.869,1.708-3.655,3.584-7.971,5.486-12.472,3.863-9.142,8.291-20.25,3.552-27.193-2.9-4.24-8.131-6.038-13.427-6.679a49.954,49.954,0,0,0-13.708.6,42.874,42.874,0,0,0-13.07,4.66,58.045,58.045,0,0,0-10.351,7.259A74.665,74.665,0,0,0,771.736-193.5c-6.839,9.343-8.051,12.189-9.62,17.511-2.35-11.786-6.958-20.246-12.293-25.514s-11.6-7.192-16.9-6.532a12.986,12.986,0,0,0-4.883,1.725,19.5,19.5,0,0,0-4.456,3.893A54.285,54.285,0,0,0,716-190.513a125.83,125.83,0,0,0-7.5,20.06,85.7,85.7,0,0,0,1.123,50.722c-3.776-6.91-16.567-30.316-28.342-26.648-6.808,2.119-11.44,12.808-14.234,25.215a167.134,167.134,0,0,0-3.647,35.408,120.752,120.752,0,0,0,3.277,26.589,108.618,108.618,0,0,0,12.161,30.615A90.025,90.025,0,0,0,686.5-17.6a122.3,122.3,0,0,0,13.6,1.675" transform="translate(413.39 742.682)" fill="#ee5f43"/>
      <path id="path200" d="M670.641-6.56s1.716-3.076,4.547-8.514c1.415-2.716,3.123-6.017,5.153-9.741,2.021-3.707,4.508-7.839,7.2-12.381,10.758-18.156,26.046-41.974,42.73-65.5s34.437-46.937,48.56-65.348c7.07-9.224,13-17.34,17.757-23.345s8.263-9.97,9.557-11.6" transform="translate(417.913 752.722)" fill="none" stroke="#c4422b" stroke-linecap="round" stroke-linejoin="round" stroke-miterlimit="10" stroke-width="2.692"/>
      <path id="path202" d="M724.642-131.319c-4.887-22.783-9.319-45.825-13.585-68.9" transform="translate(443.098 754.457)" fill="none" stroke="#c4422b" stroke-linecap="round" stroke-linejoin="round" stroke-miterlimit="10" stroke-width="2.692"/>
      <path id="path204" d="M716.12-150.873c22.763-2.091,45.422-3.634,68.058-4.975" transform="translate(446.253 782.103)" fill="none" stroke="#c4422b" stroke-linecap="round" stroke-linejoin="round" stroke-miterlimit="10" stroke-width="2.692"/>
      <path id="path206" d="M694.942-89.189c-6.317-21.057-11.788-42.723-16.742-64.579" transform="translate(422.623 783.399)" fill="none" stroke="#c4422b" stroke-linecap="round" stroke-linejoin="round" stroke-miterlimit="10" stroke-width="2.692"/>
      <path id="path208" d="M686.37-106.012c24.014-4.13,47.768-6.98,71.481-9.155" transform="translate(427.714 807.455)" fill="none" stroke="#c4422b" stroke-linecap="round" stroke-linejoin="round" stroke-miterlimit="10" stroke-width="2.692"/>
      <path id="path210" d="M685.764,21.538a19.981,19.981,0,0,1,3.651-5.62,64.7,64.7,0,0,0,4.869-7.289c1.454-2.486,2.744-5.088,4.147-7.322a117.785,117.785,0,0,1,8.518-12.292c5.729-7.2,11.405-12.373,16.1-15.232,7.38-4.5,14.9-7.057,21.586-10.379,6.7-3.385,12.522-7.214,16.695-15.269,1.236-2.353,6.149-11.953,2.519-19.244-1.9-3.779-4.986-4.763-18.374-10.678-16.251-7.12-19.489-9.057-20.094-12.345-.734-4.012,2.863-7.982,5.48-10.936,6.25-7.09,11.252-5.69,17-13.286,1.666-2.2,4.8-6.473,3.662-10.447-1.182-4.077-5.636-3.7-6.534-6.666-.861-2.859,2.571-5.592,6.98-9.609,4.411-4,9.784-9.315,12.741-16.822,3.441-8.819,3.681-20.263-1.755-24.092-3.5-2.506-8.412-1.318-13.139-.162-14.652,3.549-19.461,13.544-26.985,11.165-.545-.171-4.036-1.331-5.036-4.181-1.7-4.852,5.867-8.921,9.2-19.554a33.739,33.739,0,0,0,1.456-6.008c.264-2.363.093-4.432-1.379-6.112-1.56-1.894-3.748-1.485-6-1.134-2.257.37-4.575.673-6.419-.978-3.194-2.742-.922-7.832-3.417-16.47a44.232,44.232,0,0,0-3.3-8.243c-1.941-3.6-4.623-7.189-8.276-8.109-2.539-.621-5.495.123-8.233,1.853a20.475,20.475,0,0,0-6.83,7.4c-4.142,7.7-2.119,15.788-.714,23.436.186,1.019.325,1.814.483,2.982q.208,1.932.418,3.9c.266,2.625.485,5.3.578,8.014a55.783,55.783,0,0,1-1.673,16.7c-.983,3.629-2.441,7.218-5.716,9.148-5.579,3.285-11.111-1.281-16.5.428-3.818,1.2-7.278,5.114-9.477,9.793-2.2,4.7-3.145,10.139-1.909,14.768,1.6,6.081,6.486,8.994,12.117,12.721,5.609,3.733,12.011,8.259,16.264,17.794.844,1.811,5.346,12.667,1.374,15.918-3.7,3-10.537-4.041-20.965-2.85-8.111.918-17.208,6.421-19.549,13.507-.853,2.6-.734,5.19,1.764,10.081,2.491,4.921,7.348,12.083,15.792,24.308,16.788,24.873,20.242,27.4,22.869,36.192a50.279,50.279,0,0,1,2.082,14.21c.011,1.444-.032,2.956-.143,4.536-.1,1.515-.314,3.41-.5,4.65a21.711,21.711,0,0,1-3.214,8.551l-1.127,1.6c-.491.837-1.006,1.774-1.457,2.714,2.16-.151,3.588,1.236,5.138,2.536,1.541,1.318,3.238,2.546,5.248,2.42" transform="translate(398.092 725.931)" fill="#3b97d3"/>
      <path id="path212" d="M664.808,7.323s.115-.264.353-.807c.2-.407.5-1.025.909-1.865A38.779,38.779,0,0,0,669-4.012c.887-4.471,1.965-9.917,3.175-16.011,2.424-12.425,5.3-27.537,8.1-42.758,2.861-15.182,5.354-30.56,6.871-43.569,1.541-13.007,2.151-23.627,1.8-29.184-.381-6.116-.97-15.225-1.915-25.406s-2.2-21.462-3.316-32.045c-.524-5.309-1.032-10.429-1.5-15.119-.387-4.681-.74-8.934-1.039-12.526-.312-3.307-.74-6.047-1.047-7.953-.331-1.917-.515-2.987-.515-2.987" transform="translate(414.277 734.916)" fill="none" stroke="#285680" stroke-linecap="round" stroke-linejoin="round" stroke-miterlimit="10" stroke-width="2.047"/>
      <path id="path214" d="M693.275-161.4c-11.565-10.133-23.388-19.577-35.413-28.658" transform="translate(409.949 760.784)" fill="none" stroke="#285680" stroke-linecap="round" stroke-linejoin="round" stroke-miterlimit="10" stroke-width="2.047"/>
      <path id="path216" d="M679.324-166.273c14.411-9.449,28.563-19.844,42.55-30.219" transform="translate(423.323 756.777)" fill="none" stroke="#285680" stroke-linecap="round" stroke-linejoin="round" stroke-miterlimit="10" stroke-width="2.047"/>
      <path id="path218" d="M685.691-106.437c-10.884-12.927-21.655-25.555-32.779-37.742" transform="translate(406.865 789.376)" fill="none" stroke="#285680" stroke-linecap="round" stroke-linejoin="round" stroke-miterlimit="10" stroke-width="2.047"/>
      <path id="path220" d="M673.956-120.04c15.61-4.56,31.255-9.271,46.846-14.271" transform="translate(419.978 795.525)" fill="none" stroke="#285680" stroke-linecap="round" stroke-linejoin="round" stroke-miterlimit="10" stroke-width="2.047"/>
      <path id="path222" d="M679.33-156.479q14.667-6.759,29.2-14.143" transform="translate(423.327 772.897)" fill="none" stroke="#285680" stroke-linecap="round" stroke-linejoin="round" stroke-miterlimit="10" stroke-width="2.047"/>
      <path id="path224" d="M686.634.364c-.058-2.768-1.266-50.318-10.146-69.26-1.472-3.134-3.482-7.422-7.949-11.071-5.913-4.824-9.7-3.289-17.853-7.906-6.787-3.846-14.532-10.778-13.167-14.288.892-2.29,5.694-3.233,9.449-2.344,6.746,1.6,7.012,8.384,14.42,10.535,3.233.941,7.769.978,9.062-1.186s-1.1-5.735-1.915-6.96c-3.361-5.036-7.943-7.161-16.534-10.884-12.037-5.214-16.128-6.7-21.99-10.691-8.652-5.884-8.713-8.728-8.618-9.713.316-3.331,4.421-6.549,8.07-6.4,2.207.089,3.2,1.368,10.624,8.763a71.1,71.1,0,0,0,9.548,8.332c4.454,3.166,6.7,3.85,8.334,3.09a4.112,4.112,0,0,0,2.125-2.651c1.483-6.1-14.05-15.372-19.244-18.476-5.564-3.324-9.315-4.887-15.132-9.7-7.075-5.848-7.408-8.395-7.068-9.838.515-2.173,3.006-3.714,5.138-4.071,1.517-.255,4.019-.108,10.615,5.508a80.922,80.922,0,0,1,8.806,8.782c6.33,7.319,8.01,11.029,11.055,10.815a4.8,4.8,0,0,0,3.948-2.671c2.829-7.254-21.211-26.334-33.919-35.246-5.278-3.7-10.938-7.287-10.622-11.892.249-3.634,4.173-7.2,7.986-7.434,4.878-.3,8.449,4.941,10.862,8.484,3.519,5.166,2.417,6.869,6.633,14.046,4.558,7.765,7.622,8.8,8.958,9.1,1.816.411,5.157.539,6.538-1.322.651-.879,1.584-3.173-5.159-15.143-6-10.641-8.821-12.531-8.888-17.7-.063-4.753,2.231-10.338,5.363-10.8,2.952-.435,6.146,3.759,7.6,6.8,2.335,4.893.459,7.421,2.337,17.266,1.041,5.458,2.071,7.049,3.417,7.471,2.069.649,4.469-1.593,5.1-2.179,6.555-6.125,1.625-14.535,7.289-25.356,1.335-2.554,4.125-7.884,9.886-9.678,4.759-1.482,11.617-.574,14.942,4.24,3.341,4.837,1.578,11.392-.829,15.184-3.692,5.809-8.278,4.164-18.344,11.414-3.948,2.846-12.594,9.072-11.505,15.284.063.368.574,3.29,2.692,4.207,4.151,1.8,8.635-6.653,19.937-11.027,2.952-1.143,10.674-4.131,13.736-.874,2.3,2.443,1.519,7.91-1.173,11.042-1.811,2.108-3.707,2.246-12.4,4.413-10.611,2.642-12.741,3.675-14.671,5.38-2.783,2.458-5.763,6.858-4.428,9.486,1.236,2.435,5.7,2.4,9.572,2.337,10.707-.188,13.511-4.3,22.607-3.95,2.824.1,9.57.364,11.3,4.276,1.08,2.446-.028,5.791-1.967,7.72-3.571,3.554-10.016,2.366-15.79,1.3-5.307-.976-5.675-1.985-11.169-2.727-5.378-.725-9.137-1.175-11.626,1.223-2.032,1.959-3.136,5.75-1.686,7.956,1.4,2.13,4.454,1.677,16.8,1.48,2.5-.039,6.443.013,14.342.119,10.758.143,13.366.394,14.792,2.428,1.593,2.268,1.253,6.1-.651,7.871-.734.68-2.026,1.355-8.025.66-5.612-.647-6.237-1.437-10.587-1.991-6.614-.842-10.639.29-12.682,1.047-2.1.775-4.484,1.658-4.922,3.534-.53,2.277,2.054,5.036,4.439,6.406,3.8,2.19,6.644.6,17.664-.675,11.444-1.322,14.279-.548,16.238,1.006.284.223,3.647,2.961,3.175,6.25-.428,3-3.777,4.631-5.339,5.393-5.629,2.744-11.866,1.4-14,.9-4.175-.989-5.785-2.554-9.551-2.078a9.483,9.483,0,0,0-5.545,2.279c-2.14,2.078-2.757,5.508-1.95,11.107,1.324,9.18,5.1,14.606,7.642,19.956,2.809,5.907,3.56,12.832,5.066,26.683a186.8,186.8,0,0,1,.383,36.189q-5.714.21-11.431.422" transform="translate(382.403 744.523)" fill="#71c285"/>
      <path id="path226" d="M214.828-36.825a91.752,91.752,0,0,1-28.942-2.786,86.561,86.561,0,0,1-12.033-4.069c-8.862-3.768-29.139-13.535-28.251-22.843.846-8.875,20.644-12.357,23.172-12.684a66.942,66.942,0,0,1-28.413-7.25,94.891,94.891,0,0,1-14.017-8.561,36.722,36.722,0,0,1-7.37-7.176,16.143,16.143,0,0,1-2.2-4.017,11.766,11.766,0,0,1-.691-4.326c.173-7.99,10.864-13.7,24.575-14.55a79.58,79.58,0,0,1-5.82-7.421,86.146,86.146,0,0,1-5.986-10.122c-.467-.933-1.5-3.021-2.711-5.6-1.215-2.6-2.549-5.668-3.9-8.873-2.748-6.5-5.9-14.407-2.526-19.346,2.059-3.017,5.784-4.3,9.551-4.753a35.509,35.509,0,0,1,9.753.424,30.511,30.511,0,0,1,9.3,3.316,41.276,41.276,0,0,1,7.367,5.166,53.162,53.162,0,0,1,8.179,9.135c4.863,6.648,5.724,8.672,6.843,12.457,1.669-8.386,4.947-14.4,8.746-18.153s8.25-5.116,12.022-4.644a9.248,9.248,0,0,1,3.474,1.225,13.936,13.936,0,0,1,3.173,2.772,38.538,38.538,0,0,1,5.4,8.473,89.574,89.574,0,0,1,5.339,14.269,60.985,60.985,0,0,1-.8,36.088c2.686-4.917,11.786-21.571,20.164-18.961,4.841,1.511,8.14,9.111,10.126,17.941a118.713,118.713,0,0,1,2.593,25.189,86.03,86.03,0,0,1-2.329,18.917,77.285,77.285,0,0,1-8.652,21.782,63.243,63.243,0,0,1-5.462,7.789,86.531,86.531,0,0,1-9.67,1.193" transform="translate(72.339 766.193)" fill="#f29c1f"/>
      <path id="path228" d="M224.86-30.163s-1.223-2.188-3.238-6.055c-1.006-1.933-2.22-4.281-3.666-6.932s-3.205-5.577-5.12-8.808c-7.655-12.916-18.53-29.864-30.4-46.6s-24.5-33.394-34.547-46.494c-5.032-6.562-9.248-12.336-12.633-16.61s-5.88-7.092-6.8-8.254" transform="translate(80.048 773.336)" fill="none" stroke="#805333" stroke-linecap="round" stroke-linejoin="round" stroke-miterlimit="10" stroke-width="2.225"/>
      <path id="path230" d="M153.14-118.921c3.476-16.21,6.629-32.6,9.663-49.017" transform="translate(95.43 774.57)" fill="none" stroke="#805333" stroke-linecap="round" stroke-linejoin="round" stroke-miterlimit="10" stroke-width="2.225"/>
      <path id="path232" d="M174.081-132.834c-16.195-1.489-32.316-2.584-48.421-3.541" transform="translate(78.306 794.239)" fill="none" stroke="#805333" stroke-linecap="round" stroke-linejoin="round" stroke-miterlimit="10" stroke-width="2.225"/>
      <path id="path234" d="M175.132-88.949c4.5-14.983,8.388-30.4,11.912-45.944" transform="translate(109.134 795.162)" fill="none" stroke="#805333" stroke-linecap="round" stroke-linejoin="round" stroke-miterlimit="10" stroke-width="2.225"/>
      <path id="path236" d="M196.179-100.916c-17.082-2.939-33.982-4.967-50.854-6.514" transform="translate(90.56 812.275)" fill="none" stroke="#805333" stroke-linecap="round" stroke-linejoin="round" stroke-miterlimit="10" stroke-width="2.225"/>
      <path id="path238" d="M276.01-20.1c-3.679-6.956-8.865-12.3-13.254-16.428q-2.941-2.707-6.012-5.536-2.522-2.47-5.144-5.032c-7.785-7.49-16.058-15.059-23.5-22.826-7.713-7.964-16.082-17.452-26.291-27.8a449.507,449.507,0,0,0-33.309-30.2c-40.676-33.361-100.24-70.3-108.155-61.3-7.909,9.038,35.893,62.257,74.3,99.322C145.627-79.274,156.752-69.483,167.3-60.8c10.627,8.834,21.728,17.547,33.3,24.525,11.648,7.024,22.637,11.588,32.749,15.545,10.7,4.532,19.8,5.456,27.068,11.022L276.01-20.1" transform="translate(37.021 760.458)" fill="#3b97d3"/>
      <path id="path240" d="M260.859-21.808c-4.434-5.443-9.629-8.8-14.206-11.6l-6.583-3.907-1.513-.932L236.929-39.3l-3.242-2.086c-8.611-5.56-17.1-11.12-25.031-17.269-7.962-6.164-15.552-13.041-23.127-20.008-7.549-7.007-15.209-13.955-22.879-20.826-30.681-27.548-61.817-54.5-93.012-81.445" transform="translate(43.396 766.474)" fill="none" stroke="#285680" stroke-linecap="round" stroke-linejoin="round" stroke-miterlimit="10" stroke-width="2.047"/>
      <path id="path242" d="M101.644-159.028l-17.536.851" transform="translate(52.413 780.122)" fill="none" stroke="#285680" stroke-linecap="round" stroke-linejoin="round" stroke-miterlimit="10" stroke-width="2.047"/>
      <path id="path244" d="M101.7-146.02l3.123-18.463" transform="translate(63.373 776.723)" fill="none" stroke="#285680" stroke-linecap="round" stroke-linejoin="round" stroke-miterlimit="10" stroke-width="2.047"/>
      <path id="path246" d="M122.694-140.164l-16.409,4.579" transform="translate(66.233 791.878)" fill="none" stroke="#285680" stroke-linecap="round" stroke-linejoin="round" stroke-miterlimit="10" stroke-width="2.047"/>
      <path id="path248" d="M126.941-122.474l1.036-21.562" transform="translate(79.105 789.465)" fill="none" stroke="#285680" stroke-linecap="round" stroke-linejoin="round" stroke-miterlimit="10" stroke-width="2.047"/>
      <path id="path250" d="M146.981-120.145c-7.291,1.229-14.52,2.546-21.761,3.9" transform="translate(78.032 804.352)" fill="none" stroke="#285680" stroke-linecap="round" stroke-linejoin="round" stroke-miterlimit="10" stroke-width="2.047"/>
      <path id="path252" d="M158.275-97.654c-.643-5.294-1.028-10.531-1.268-15.755" transform="translate(97.84 808.55)" fill="none" stroke="#285680" stroke-linecap="round" stroke-linejoin="round" stroke-miterlimit="10" stroke-width="2.047"/>
      <path id="path254" d="M422.23.993A42.892,42.892,0,0,1,423.354-13.3a75.524,75.524,0,0,1,4.9-13.611c1.762-3.843,3.621-7.261,4.958-10,1.355-2.772,10.029-20.281,10.808-21.789l.593-1.13s1.708-3.032,2.21-3.9c3.974-6.923,8.378-13.6,12.9-20.058s9.211-12.715,13.751-18.794c2.175-2.911,4.792-6.293,7.367-9.548q3.9-4.912,8-9.871c10.951-13.221,23.047-26.656,36.419-39.964,5.6-5.566,11.5-10.975,17.775-16.645,6.235-5.633,12.782-11.28,19.512-16.727s13.652-10.635,20.56-15.411c7.005-4.841,13.745-8.648,20.22-12.273,25.83-14.455,46.664-22.2,51.932-16.238,5.222,5.908-4.988,24.938-22.257,47.844-2.158,2.863-37.239,49.093-42.423,55.676-5.147,6.538-10.676,13.191-15.727,19.238a500.1,500.1,0,0,1-35.8,38.41c-6.027,5.846-11.856,11.241-18.158,16.924C514.776-55.649,508.8-50.82,503.115-46.24c-5.549,4.464-10.936,8.823-16.188,13.017-1.245.993-2.623,2.227-3.943,3.35s-9.161,7.726-11.721,9.791-5.034,4.1-7.57,5.976c-2.482,1.837-4.833,3.491-6.993,5.219a42.372,42.372,0,0,0-5.863,5.5,19.423,19.423,0,0,0-3.854,6.878L422.23.993" transform="translate(263.008 728.866)" fill="#3b97d3"/>
      <path id="path256" d="M430.032-6.542a34.7,34.7,0,0,1,3.653-11.9,60.13,60.13,0,0,1,6.066-9.481c2.1-2.786,4.168-5.077,6.021-7.493L463.1-57.21c4.06-4.921,8.25-9.626,12.468-14.245,0,0,92.619-99.906,101.224-108.7s17.348-17.353,26.427-25.362l28.236-24.027" transform="translate(267.977 736.178)" fill="none" stroke="#285680" stroke-linecap="round" stroke-linejoin="round" stroke-miterlimit="10" stroke-width="2.381"/>
      <path id="path258" d="M524.34-203.053c7.391.169,14.749.5,22.008,1" transform="translate(326.745 752.688)" fill="none" stroke="#285680" stroke-linecap="round" stroke-linejoin="round" stroke-miterlimit="10" stroke-width="2.381"/>
      <path id="path260" d="M519.517-186.548c-2.431-7.612-4.8-15.255-7.042-22.979" transform="translate(319.351 748.653)" fill="none" stroke="#285680" stroke-linecap="round" stroke-linejoin="round" stroke-miterlimit="10" stroke-width="2.381"/>
      <path id="path262" d="M500.665-178.269l21.484,4.657" transform="translate(311.992 768.132)" fill="none" stroke="#285680" stroke-linecap="round" stroke-linejoin="round" stroke-miterlimit="10" stroke-width="2.381"/>
      <path id="path264" d="M491.194-155.457l-5.3-26.918" transform="translate(302.788 765.573)" fill="none" stroke="#285680" stroke-linecap="round" stroke-linejoin="round" stroke-miterlimit="10" stroke-width="2.381"/>
      <path id="path266" d="M476.31-151.853l28.282,3.519" transform="translate(296.814 784.593)" fill="none" stroke="#285680" stroke-linecap="round" stroke-linejoin="round" stroke-miterlimit="10" stroke-width="2.381"/>
      <path id="path268" d="M456.286-121.387c-.807-6.8-1.476-13.658-2.156-20.46" transform="translate(282.994 790.828)" fill="none" stroke="#285680" stroke-linecap="round" stroke-linejoin="round" stroke-miterlimit="10" stroke-width="2.381"/>
      <path id="path270" d="M455.757,11.9a12.542,12.542,0,0,1-1.9-2.567c-.437-.764-.985-1.751-1.569-2.994-.316-.67-.628-1.343-.931-2.027s-.586-1.374-.883-2.069c-2.114-4.958-4.279-10.2-6.423-15.735-1.009-2.606-2.041-5.259-3.071-7.967-.874-2.3-1.857-4.673-2.839-7.059-1.98-4.821-4.261-9.791-6.668-15-4.815-10.408-10.492-21.659-16.571-34.066-1.534-3.129-15.574-32.725-18.779-39.691-10.825-23.5-23.627-52.051-32.045-76.13-2.192-6.27-3.625-11.925-4.88-17.021-1.234-5.014-2.342-9.6-3.32-13.654-.965-4.008-1.249-7.38-.729-9.815a6.642,6.642,0,0,1,3.205-4.783,8.328,8.328,0,0,1,5.3-.66,19.532,19.532,0,0,1,8.116,3.38,81.992,81.992,0,0,1,12.213,10.507c4.038,4.058,7.934,8.278,11.6,12.1a372.935,372.935,0,0,1,51.482,68.828c4.151,7.254,7.94,14.576,11.28,21.9,3.231,7.083,6.174,14.223,8.8,21.365A222.141,222.141,0,0,1,478.362-58.88a167.874,167.874,0,0,1,1.855,20.145c.1,3.246.076,6.443-.028,9.559-.1,3.037-.262,5.692-.429,8.49q-.484,8.265-1.192,15.98c-.441,4.829-.242,10.274-1.617,14.712L455.757,11.9" transform="translate(221.153 729.987)" fill="#3b97d3"/>
      <path id="path272" d="M460.76,3.311a27.936,27.936,0,0,0-.805-6.133l-.872-4.069c-.3-1.461-.478-2.712-.721-4.073,0,0-4.869-28.79-5.387-31.307-1.032-5.038-2.318-10.057-3.738-15.062-5.694-20.049-14.184-39.614-23.083-58.931s-19.142-38.144-29.8-56.659c-5.33-9.263-21.7-36.826-24.146-41.23-2.513-4.521-5.014-9.271-7.893-14.124" transform="translate(227.026 736.969)" fill="none" stroke="#285680" stroke-linecap="round" stroke-linejoin="round" stroke-miterlimit="10" stroke-width="2.047"/>
      <path id="path274" d="M381.646-191.237l5.142-18.5" transform="translate(237.824 748.523)" fill="none" stroke="#285680" stroke-linecap="round" stroke-linejoin="round" stroke-miterlimit="10" stroke-width="2.047"/>
      <path id="path276" d="M394.208-190.245c-6.874.1-13.745.279-20.594.483" transform="translate(232.819 760.669)" fill="none" stroke="#285680" stroke-linecap="round" stroke-linejoin="round" stroke-miterlimit="10" stroke-width="2.047"/>
      <path id="path278" d="M396-166.135c3.329-5.4,6.558-10.817,9.784-16.314" transform="translate(246.766 765.527)" fill="none" stroke="#285680" stroke-linecap="round" stroke-linejoin="round" stroke-miterlimit="10" stroke-width="2.047"/>
      <path id="path280" d="M411.23-157.753c-7.685-1.5-15.318-2.809-22.964-3.95" transform="translate(241.95 778.456)" fill="none" stroke="#285680" stroke-linecap="round" stroke-linejoin="round" stroke-miterlimit="10" stroke-width="2.047"/>
      <path id="path282" d="M408.968-136.308c4.333-6.915,8.512-13.957,12.626-21.073" transform="translate(254.851 781.148)" fill="none" stroke="#285680" stroke-linecap="round" stroke-linejoin="round" stroke-miterlimit="10" stroke-width="2.047"/>
      <path id="path284" d="M423.526-117.239c-5.231-2.465-10.449-4.7-15.716-6.756" transform="translate(254.129 801.953)" fill="none" stroke="#285680" stroke-linecap="round" stroke-linejoin="round" stroke-miterlimit="10" stroke-width="2.047"/>
      <path id="path286" d="M482.875-47.437a16.13,16.13,0,0,1-1.785-.14,14.146,14.146,0,0,1-1.944-.355c-.736-.208-1.6-.441-2.244-.675l-1.922-.725a53.154,53.154,0,0,1-6.006-3c-1.751-1-3.335-2.017-4.85-3s-2.943-1.942-4.077-2.623c-.3-.179-.483-.253-.725-.39-.089-.032-.11-.008-.162-.017l-.048,0a1.233,1.233,0,0,1,.078-.111l1.229-1.758c.39-.545-2.595,3.612-1.348,1.859,0,0-44.243-24.442-48.063-26.637-3.675-2.112-7.469-4.306-11.414-6.6-12.877-7.484-29.08-15.427-42.514-21.9-13.4-6.459-23.633-11.935-23.014-16.076.593-3.962,11.909-6.488,27.825-5.875a144.39,144.39,0,0,1,26.2,3.564,140.92,140.92,0,0,1,26.834,9.02,144.637,144.637,0,0,1,13.334,7c4.155,2.452,8.088,5.036,11.81,7.691A160.116,160.116,0,0,1,459.8-91.542c2.865,2.843,5.525,5.7,7.979,8.542,1.229,1.419,2.42,2.82,3.536,4.237a55.583,55.583,0,0,1,3.51,4.6c1.829,3,3.318,5.681,4.96,8.138,1.608,2.411,3.17,4.811,5.72,6.006l-2.63,12.585" transform="translate(208.159 794.743)" fill="#3b97d3"/>
      <path id="path288" d="M478.349-57.134c-.519-.122-1.028-.307-1.537-.462-.578-.234-1.162-.492-1.729-.752a24.452,24.452,0,0,1-2.759-1.675,42.592,42.592,0,0,1-4.3-3.525c-2.526-2.332-4.831-4.842-6.813-6.8-.379-.374-1-.9-1.621-1.411l-5.5-4.518c-2.474-1.972-4.971-3.928-7.51-5.835a342.542,342.542,0,0,0-31.84-21.209A213.544,213.544,0,0,0,379.85-120a268.808,268.808,0,0,0-37.62-10.594" transform="translate(213.262 797.843)" fill="none" stroke="#285680" stroke-linecap="round" stroke-linejoin="round" stroke-miterlimit="10" stroke-width="1.233"/>
      <path id="path290" d="M364.662-121.036c-1.651-3.484-3.4-6.995-5.244-10.446" transform="translate(223.973 797.287)" fill="none" stroke="#285680" stroke-linecap="round" stroke-linejoin="round" stroke-miterlimit="10" stroke-width="1.233"/>
      <path id="path292" d="M371.556-123.085c-3.21,2.682-6.3,5.355-9.317,8.159" transform="translate(225.731 802.52)" fill="none" stroke="#285680" stroke-linecap="round" stroke-linejoin="round" stroke-miterlimit="10" stroke-width="1.233"/>
      <path id="path294" d="M379.615-113.656c-.286-3.777-.636-7.642-1.1-11.438" transform="translate(235.871 801.268)" fill="none" stroke="#285680" stroke-linecap="round" stroke-linejoin="round" stroke-miterlimit="10" stroke-width="1.233"/>
      <path id="path296" d="M391.778-113.792c-4.3,1.918-8.575,3.859-12.689,5.971" transform="translate(236.232 808.311)" fill="none" stroke="#285680" stroke-linecap="round" stroke-linejoin="round" stroke-miterlimit="10" stroke-width="1.233"/>
      <path id="path298" d="M395.571-102.973q-.3-7.359-.89-14.779" transform="translate(245.948 805.843)" fill="none" stroke="#285680" stroke-linecap="round" stroke-linejoin="round" stroke-miterlimit="10" stroke-width="1.233"/>
      <path id="path300" d="M412.009-99.524q-5.142,1.078-10.18,2.314" transform="translate(250.401 817.202)" fill="none" stroke="#285680" stroke-linecap="round" stroke-linejoin="round" stroke-miterlimit="10" stroke-width="1.233"/>
      <path id="path302" d="M422.767-61.241a35.4,35.4,0,0,1,2.731-7.246,77.843,77.843,0,0,1,4.129-6.953c1.251-1.961,2.476-3.775,2.158-4.158,1.292-2,2.677-3.975,4.127-5.893a138.991,138.991,0,0,1,18.519-19.482,120.71,120.71,0,0,1,23.544-16.472c2.387-1.275,5.064-2.586,7.588-3.675,2.437-1.049,5-2.058,7.663-3a111.689,111.689,0,0,1,17.433-4.648,99.737,99.737,0,0,1,16.9-1.6,86.361,86.361,0,0,1,8.951.366c.729.069,1.539.13,2.195.227l1.885.331c1.257.219,2.5.467,3.727.729a140.078,140.078,0,0,1,26.812,8.663,101.348,101.348,0,0,1,19.807,11.07c5.11,3.831,8.516,7.789,9.033,11.9.513,4.055-1.935,8.166-6.547,11.966-4.595,3.787-11.332,7.208-18.8,10.048a214.814,214.814,0,0,1-23.3,7.09l-2.857.709-28.232,8.3c-1,.277-2,.538-2.857.735-1.857.429-3.7.879-5.532,1.321-7.594,1.827-15.723,3.828-24.2,5.52-8.43,1.687-15.669,2.05-22.681,3.03-.876.122-3.9.581-3.9.581a5.7,5.7,0,0,0-1.426.342,33.414,33.414,0,0,1-5.5,1.05c-3.248.476-6.789,1.15-9.278,2.78l-22.094-13.63" transform="translate(263.449 795.488)" fill="#71c285"/>
      <path id="path304" d="M429.984-67.247a25.939,25.939,0,0,1,4.263-5.012,45.8,45.8,0,0,1,4.8-3.928c.721-.517,1.45-1.022,1.987-1.366.325-.14,1.3-.95,2-1.458,1.517-1.117,3.043-2.192,4.582-3.191a179.09,179.09,0,0,1,18.342-10.072c11.944-5.938,24.391-11.877,37.136-15.939,12.773-4.073,25.687-6.692,38.378-6.379,13.087.33,26.2,1.239,39.849,1.747" transform="translate(267.947 807.797)" fill="none" stroke="#4c8056" stroke-linecap="round" stroke-linejoin="round" stroke-miterlimit="10" stroke-width="2.479"/>
      <path id="path306" d="M501.617-114.541c3.233,5.609,6.345,11.254,9.414,16.924" transform="translate(312.585 807.844)" fill="none" stroke="#4c8056" stroke-linecap="round" stroke-linejoin="round" stroke-miterlimit="10" stroke-width="2.479"/>
      <path id="path308" d="M495.947-106.265c.961-7.252,2.407-14.5,3.841-21.735" transform="translate(309.051 799.457)" fill="none" stroke="#4c8056" stroke-linecap="round" stroke-linejoin="round" stroke-miterlimit="10" stroke-width="2.479"/>
      <path id="path310" d="M483.8-113.1c4.127,5.731,8.01,11.594,11.581,17.61" transform="translate(301.484 808.742)" fill="none" stroke="#4c8056" stroke-linecap="round" stroke-linejoin="round" stroke-miterlimit="10" stroke-width="2.479"/>
      <path id="path312" d="M475.177-101.515a223.4,223.4,0,0,1-.138-23.852" transform="translate(295.863 801.098)" fill="none" stroke="#4c8056" stroke-linecap="round" stroke-linejoin="round" stroke-miterlimit="10" stroke-width="2.479"/>
      <path id="path314" d="M465.367-107.085c6.716,5.811,13.191,11.834,19.281,18.141" transform="translate(289.995 812.49)" fill="none" stroke="#4c8056" stroke-linecap="round" stroke-linejoin="round" stroke-miterlimit="10" stroke-width="2.479"/>
      <path id="path316" d="M451.107-93.528c-.682-5.586-1.534-11.047-2.184-16.647" transform="translate(279.748 810.565)" fill="none" stroke="#4c8056" stroke-linecap="round" stroke-linejoin="round" stroke-miterlimit="10" stroke-width="2.479"/>
      <path id="path318" d="M419.548,34.262c-6.1-22.9-8.746-50.322-6.423-81.212a276.242,276.242,0,0,1,8.029-49A381.08,381.08,0,0,1,438.028-146c5.9-14.236,13.08-29.221,20.768-43.546,1.922-3.58,3.857-7.129,5.843-10.6q3.022-5.272,6.032-10.408a179.743,179.743,0,0,1,13.076-19.209,205.848,205.848,0,0,1,23.93-26.4c6.8-6.153,12.252-9.484,15.807-8.029,3.482,1.426,4.932,7.746,4.4,17.153-.528,9.384-3.149,21.67-6.179,34.48-1.513,6.4-3.008,12.94-4.382,19.4-1.58,7.441-3.458,15.152-5.417,22.876-3.922,15.463-8.358,31.1-12.892,45.543q-3.9,12.437-8.029,24.122c-1.381,3.887-33.071,88.708-37.2,100.224S446,21.861,443.22,31.947l-23.672,2.315" transform="translate(256.921 714.375)" fill="#71c285"/>
      <path id="path320" d="M424.236,22.948A272.408,272.408,0,0,1,426.548-14.1c1.511-12.09,3.554-24,5.99-35.8s5.235-23.471,8.514-35.006c3.283-11.557,7.049-22.845,10.9-34.112,7.7-22.531,16.117-44.74,24.843-66.826l9.929-24.761q1.652-3.986,3.456-7.934c4.8-10.529,10.278-20.893,15.708-31.61" transform="translate(264.356 723.343)" fill="none" stroke="#4c8056" stroke-linecap="round" stroke-linejoin="round" stroke-miterlimit="10" stroke-width="2.288"/>
      <path id="path322" d="M458.584-212.427l19.822-8" transform="translate(285.769 741.863)" fill="none" stroke="#4c8056" stroke-linecap="round" stroke-linejoin="round" stroke-miterlimit="10" stroke-width="2.288"/>
      <path id="path324" d="M460.45-199.049l-14.792-17.694" transform="translate(277.713 744.157)" fill="none" stroke="#4c8056" stroke-linecap="round" stroke-linejoin="round" stroke-miterlimit="10" stroke-width="2.288"/>
      <path id="path326" d="M446.763-183.226l20.794-3.915" transform="translate(278.402 762.604)" fill="none" stroke="#4c8056" stroke-linecap="round" stroke-linejoin="round" stroke-miterlimit="10" stroke-width="2.288"/>
      <path id="path328" d="M447.039-161.035q-7.551-10.716-14.933-21.672" transform="translate(269.269 765.366)" fill="none" stroke="#4c8056" stroke-linecap="round" stroke-linejoin="round" stroke-miterlimit="10" stroke-width="2.288"/>
      <path id="path330" d="M435.652-148.824c8.652-2.965,17.3-5.618,25.992-8.287" transform="translate(271.479 781.317)" fill="none" stroke="#4c8056" stroke-linecap="round" stroke-linejoin="round" stroke-miterlimit="10" stroke-width="2.288"/>
      <path id="path332" d="M433.13-116.953c-4-5.2-7.958-10.533-11.793-15.967" transform="translate(262.558 796.392)" fill="none" stroke="#4c8056" stroke-linecap="round" stroke-linejoin="round" stroke-miterlimit="10" stroke-width="2.288"/>
      <path id="path334" d="M443.106,154.261h-17.2V-451.791a8.126,8.126,0,0,1,8.127-8.127h.944a8.128,8.128,0,0,1,8.127,8.127V154.261" transform="translate(265.408 592.622)" fill="#35495e"/>
      <path id="path336" d="M530.525-216.149H378.11a10.7,10.7,0,0,1-10.7-10.7v-48.3a10.7,10.7,0,0,1,10.7-10.7H530.595a10.7,10.7,0,0,1,7.2,2.785q13.105,11.92,26.215,23.841a10.7,10.7,0,0,1,.089,15.749l-26.284,24.46a10.7,10.7,0,0,1-7.289,2.868" transform="translate(228.953 701.092)" fill="#804537"/>
      <path id="path338" d="M532.391-214.453H379.977a10.7,10.7,0,0,1-10.7-10.7v-48.3a10.7,10.7,0,0,1,10.7-10.7H532.464a10.7,10.7,0,0,1,7.2,2.785l26.213,23.841a10.7,10.7,0,0,1,.091,15.749q-13.144,12.232-26.286,24.46a10.694,10.694,0,0,1-7.289,2.868" transform="translate(230.116 702.149)" fill="#f29c1f"/>
      <path id="path340" d="M547.492-321.446,412.5-250.677a10.694,10.694,0,0,1-14.444-4.508l-22.43-42.777a10.7,10.7,0,0,1,4.51-14.446l135.05-70.8a10.7,10.7,0,0,1,7.67-.877l34.285,8.942a10.7,10.7,0,0,1,7.393,13.909q-5.96,16.933-11.92,33.865a10.7,10.7,0,0,1-5.127,5.925" transform="translate(233.313 639.659)" fill="#4c8056"/>
      <path id="path342" d="M550.833-321.446,415.846-250.677a10.7,10.7,0,0,1-14.448-4.508l-22.425-42.777a10.7,10.7,0,0,1,4.508-14.446l135.05-70.8a10.7,10.7,0,0,1,7.67-.877l34.287,8.942a10.7,10.7,0,0,1,7.393,13.909q-5.963,16.933-11.923,33.865a10.707,10.707,0,0,1-5.125,5.925" transform="translate(235.395 639.659)" fill="#4fba6f"/>
      <path id="path344" d="M398.326-410.552l123.465-36.222A9.034,9.034,0,0,1,533-440.647l11.477,39.127a9.032,9.032,0,0,1-6.125,11.211L414.833-354.072a9.032,9.032,0,0,1-6.495-.545q-13.45-6.541-26.9-13.08a9.036,9.036,0,0,1-3.813-12.738Q385.36-393.467,393.1-406.5a9.026,9.026,0,0,1,5.224-4.056" transform="translate(234.527 600.583)" fill="#2c3e50"/>
      <path id="path346" d="M400.984-409.288l123.465-36.22a9.033,9.033,0,0,1,11.211,6.125l11.477,39.127a9.033,9.033,0,0,1-6.125,11.213L417.49-352.807a9.038,9.038,0,0,1-6.493-.545q-13.449-6.541-26.9-13.083a9.033,9.033,0,0,1-3.818-12.736l15.478-26.061a9.042,9.042,0,0,1,5.224-4.056" transform="translate(236.183 601.372)" fill="#3b97d3"/>
      <path id="path348" d="M438.012-415.127a5.129,5.129,0,0,0-5.127-5.127,5.127,5.127,0,0,0-5.127,5.127A5.125,5.125,0,0,0,432.885-410a5.128,5.128,0,0,0,5.127-5.127" transform="translate(266.559 617.339)" fill="#2c3e50"/>
      <path id="path350" d="M438.224-337.783a5.071,5.071,0,0,0-5.073-5.071,5.069,5.069,0,0,0-5.068,5.071,5.069,5.069,0,0,0,5.068,5.073,5.072,5.072,0,0,0,5.073-5.073" transform="translate(266.762 665.57)" fill="#2c3e50"/>
      <path id="path352" d="M438.012-260.715a5.128,5.128,0,0,0-5.127-5.127,5.125,5.125,0,0,0-5.127,5.127,5.127,5.127,0,0,0,5.127,5.127,5.129,5.129,0,0,0,5.127-5.127" transform="translate(266.559 713.561)" fill="#2c3e50"/>
      <path id="path354" d="M598.821-43.987A76.288,76.288,0,0,0,622.9-46.3a72.757,72.757,0,0,0,10.012-3.384c7.376-3.138,24.248-11.263,23.507-19.011-.7-7.384-17.177-10.282-19.279-10.552a55.7,55.7,0,0,0,23.64-6.034,78.72,78.72,0,0,0,11.663-7.125,30.429,30.429,0,0,0,6.131-5.969,13.425,13.425,0,0,0,1.829-3.344,9.772,9.772,0,0,0,.573-3.6c-.143-6.648-9.038-11.4-20.449-12.106a66.335,66.335,0,0,0,4.845-6.174,71.774,71.774,0,0,0,4.978-8.423c.392-.777,1.253-2.513,2.257-4.662s2.123-4.716,3.248-7.382c2.287-5.411,4.908-11.987,2.1-16.1-1.712-2.508-4.813-3.575-7.947-3.954a29.519,29.519,0,0,0-8.114.353,25.371,25.371,0,0,0-7.737,2.759,34.245,34.245,0,0,0-6.129,4.3,44.272,44.272,0,0,0-6.806,7.6c-4.047,5.532-4.763,7.215-5.694,10.367-1.389-6.977-4.116-11.985-7.276-15.1a12.243,12.243,0,0,0-10.005-3.865,7.675,7.675,0,0,0-2.889,1.017,11.644,11.644,0,0,0-2.64,2.307,32.194,32.194,0,0,0-4.493,7.051,74.5,74.5,0,0,0-4.441,11.873,50.743,50.743,0,0,0,.664,30.028c-2.233-4.092-9.806-17.947-16.777-15.777-4.03,1.255-6.772,7.583-8.425,14.926a98.659,98.659,0,0,0-2.158,20.963,71.346,71.346,0,0,0,1.937,15.739,64.325,64.325,0,0,0,7.2,18.123,53.688,53.688,0,0,0,4.545,6.482,71.418,71.418,0,0,0,8.049.992" transform="translate(359.614 776.857)" fill="#f29c1f"/>
      <path id="path356" d="M581.381-38.444s1.017-1.82,2.692-5.038c.84-1.608,1.85-3.562,3.052-5.767s2.669-4.642,4.261-7.33c6.369-10.747,15.418-24.847,25.3-38.775s20.385-27.786,28.745-38.687c4.188-5.458,7.7-10.263,10.511-13.821s4.893-5.9,5.659-6.865" transform="translate(362.29 782.801)" fill="none" stroke="#805333" stroke-linecap="round" stroke-linejoin="round" stroke-miterlimit="10" stroke-width="2.225"/>
      <path id="path358" d="M613.35-112.3c-2.894-13.489-5.517-27.13-8.042-40.786" transform="translate(377.2 783.827)" fill="none" stroke="#805333" stroke-linecap="round" stroke-linejoin="round" stroke-miterlimit="10" stroke-width="2.225"/>
      <path id="path360" d="M608.305-123.872c13.474-1.24,26.888-2.153,40.289-2.947" transform="translate(379.068 800.193)" fill="none" stroke="#805333" stroke-linecap="round" stroke-linejoin="round" stroke-miterlimit="10" stroke-width="2.225"/>
      <path id="path362" d="M595.769-87.358c-3.742-12.468-6.982-25.291-9.912-38.23" transform="translate(365.079 800.961)" fill="none" stroke="#805333" stroke-linecap="round" stroke-linejoin="round" stroke-miterlimit="10" stroke-width="2.225"/>
      <path id="path364" d="M590.695-97.315c14.214-2.446,28.277-4.134,42.312-5.42" transform="translate(368.094 815.201)" fill="none" stroke="#805333" stroke-linecap="round" stroke-linejoin="round" stroke-miterlimit="10" stroke-width="2.225"/>
      <path id="path366" d="M131.76-81.532h910.056" transform="translate(82.107 828.414)" fill="none" stroke="#2c3e50" stroke-linecap="round" stroke-linejoin="round" stroke-miterlimit="10" stroke-width="8"/>
      <path id="path368" d="M306.9-401.809a6.787,6.787,0,0,1-6.787-6.789v-1.244a6.787,6.787,0,0,1,6.787-6.787h1.244a6.788,6.788,0,0,1,6.787,6.787v1.244a6.789,6.789,0,0,1-6.787,6.789Zm6.86-25.068a5.815,5.815,0,0,1-5.787,5.131h-4.389a3.522,3.522,0,0,1-3.523-3.523v-.009a23.535,23.535,0,0,1,2.162-10.76q2.159-4.22,8.65-9.494t7.75-6.91a9.233,9.233,0,0,0,1.952-5.7,9.6,9.6,0,0,0-3.454-7.41q-3.454-3.087-9.31-3.084a14.1,14.1,0,0,0-9.44,3.216,14.1,14.1,0,0,0-3.6,4.846,7.436,7.436,0,0,1-7.64,4.22l0,0a6.792,6.792,0,0,1-5.166-3.56,6.788,6.788,0,0,1-.041-6.272,24.43,24.43,0,0,1,5.659-7.144q7.463-6.59,19.6-6.592,12.761,0,20.3,6.672t7.544,15.532a17.085,17.085,0,0,1-2.768,9.282q-2.772,4.379-11.843,11.923-4.694,3.9-5.828,6.276a11.08,11.08,0,0,0-.829,3.359" transform="translate(175.216 580.156)" fill="#2c3e50"/>
      <path id="path370" d="M282.223-103.854l-7.008,6.6s1.236,10.1-1.032,12.572-6.389,5.979-4.74,10.719a14.539,14.539,0,0,0,4.536,6.8h26.589s4.74-7.008,4.74-9.069-2.474-25.97-6.6-27.621-16.489,0-16.489,0" transform="translate(167.669 814.047)" fill="#2c3e50"/>
      <g id="g372" transform="translate(436.733 709.46)">
        <g id="g374" transform="translate(0 0)" clip-path="url(#clip-path)">
          <path id="path380" d="M323.283-77.918H261.17V-83.14h62.112v5.222" transform="translate(-273.983 117.952)" fill="#231f20"/>
        </g>
      </g>
      <path id="path382" d="M326.619-93.639s-1.03,9.689,0,14.635,1.855,10.925,1.855,10.925h62.866s6.393-2.885,6.393-6.39-2.476-8.864-13.812-8.657c-12.366-6.185-28.031-19.993-28.031-19.993l-17.729,6.592-11.542,2.887" transform="translate(203.249 814.962)" fill="#2c3e50"/>
      <g id="g384" transform="translate(529.41 711.844)">
        <g id="g386" transform="translate(0 0)" clip-path="url(#clip-path-2)">
          <path id="path392" d="M400.352-77.3h-78.4v-6.6h78.4v6.6" transform="translate(-328.781 115.094)" fill="#231f20"/>
        </g>
      </g>
      <path id="path394" d="M297.765-196.72l30.677,69.826s-1.443,7.263,0,10.975,3.917,8.657,3.917,8.657-2.474,35.865,0,47.82,8.657,33.253,7.832,37.858,4.123,8.315,4.123,10.786V3.631h14.018l15.253-9.479-6.6-95.229s1.647-16.9.411-21.025-5.772-20.2-5.772-20.2,7.146-77.5-12.5-101-39.849-14.015-39.849-14.015l-11.509,60.6" transform="translate(185.554 717.692)" fill="#a36648"/>
      <path id="path396" d="M338.176-225.945S318.9-141.434,304.062-126.18c6.6,14.018-4.123,25.559-4.123,25.559l3.608,94.508s-1.959-2.164-10.615-1.752a44.741,44.741,0,0,0-16.489,4.534s-16.078-65.547-5.361-103.475c1.238-35.041,2.063-87.4.825-95.64S267-227.056,267.1-243.534s74.479-10.856,74.479-10.856l-3.4,28.444" transform="translate(166.442 720.121)" fill="#cb8252"/>
      <g id="g398" transform="translate(433.538 464.806)">
        <g id="g400" clip-path="url(#clip-path-3)">
          <path id="path406" d="M272.936-250.125l5,41.146-2.268,75.526s-4.913,26.3-4.976,34.132c-.346,41.635,1.154,62.314,7.244,93.478" transform="translate(-264.881 258.549)" fill="none" stroke="#a36648" stroke-miterlimit="10" stroke-width="1.333"/>
          <path id="path408" d="M274.973-199.625s18.409-5.514,18.958-15.545,0-35.452,0-35.452" transform="translate(-262.187 258.239)" fill="none" stroke="#a36648" stroke-miterlimit="10" stroke-width="1.333"/>
          <path id="path410" d="M347.183-241.1c0,.266-19.411,1.329-20.867,1.5a175.911,175.911,0,0,1-31.861.855c-10.323-.658-20.638-1.593-30.957-2.355v-7.832h83.685v7.832" transform="translate(-269.337 259.293)" fill="#a36648"/>
          <path id="path412" d="M347.183-241.1c0,.266-19.411,1.329-20.867,1.5a175.911,175.911,0,0,1-31.861.855c-10.323-.658-20.638-1.593-30.957-2.355v-7.832h83.685Z" transform="translate(-269.337 259.293)" fill="none" stroke="#a36648" stroke-miterlimit="10" stroke-width="1.333"/>
        </g>
      </g>
      <path id="path414" d="M290.609-361.431l-18.023,22.7s5.222,111.582,0,121.474-7.971,15.392-6.322,18.69,4.123,12.094,2.749,14.567-1.1,6.594-1.1,6.594,33.138,7.354,52.858,1.255c23.936-7.4,51.153,0,51.153,0s-5.973-26.265-7.034-35.335-3.261-43.7-3.261-43.7l7.421-48.1-15.117-36.826-10.856-12.918-6.659-3.1-30.991-1.16-14.818-4.149" transform="translate(165.626 653.994)" fill="#35495e"/>
      <path id="path416" d="M271.481-273.185l-.8,10.208s27.964-3.515,39.04-9.083,24.062-13.189,24.062-13.189l25.938,6.183-.688-10.17-25.25-6.527-47.2,20.614-15.1,1.963" transform="translate(168.674 694.916)" fill="#2c3e50"/>
      <path id="path418" d="M286.4-374.818s2.164,10.2,1.753,17.21-9.585,17.212-9.585,17.212S299.594-310.4,310-310.508s21.335-26.074,21.025-27.929-8.479-3.506-8.479-3.506v-22.391l-26.356-22.542L286.4-374.817" transform="translate(173.592 638.138)" fill="#d08b73"/>
      <path id="path420" d="M329.755-392.334s5.051-.9,4.947-4.263-.2-14.6-21.54-14.6-32.359,16.283-37,24.631-2.179,14.351,2.041,22.168c3.255,6.029,13.057,20.151,13.057,20.151l4.071-22.118,3.4-.31,5.116,6.6,11.477-1.444-4.123-30.2,18.549-.617" transform="translate(170.532 622.984)" fill="#2c3e50"/>
      <path id="path422" d="M297.444-377.5c0-4.727-2.9-8.555-6.486-8.555s-6.484,3.828-6.484,8.555,2.9,8.553,6.484,8.553,6.486-3.828,6.486-8.553" transform="translate(177.271 638.652)" fill="#d08b73"/>
      <path id="path424" d="M302.444-274.554l30.918-16.283L307.391-303,289.87-288.777l12.574,14.223" transform="translate(180.634 690.405)" fill="#d08b73"/>
      <g id="g426" transform="translate(470.504 387.405)">
        <g id="g428" clip-path="url(#clip-path-4)">
          <path id="path434" d="M299.872-290.265l19.168,9.382,8.04-9.38L294-305.414l5.876,15.149" transform="translate(-287.298 301.497)" fill="#bc6c56"/>
        </g>
      </g>
      <path id="path436" d="M355.939-337.668s-9.481,18.551-8.246,26.591a175.08,175.08,0,0,0,4.069,17.93H332.029s-26.384-7.008-32.98-5.975-23.908,5.975-23.908,5.975l2.127,7.01,29.669-3.917,19.32,6.073H351.61l11.611-1.95-1.1-35.246-6.183-16.491" transform="translate(171.455 668.802)" fill="#2c3e50"/>
      <path id="path438" d="M334.51-304.62s-21.644-5.153-30.712-5.359-27.347,1.649-27.347,1.649v15.046s29.407-1.649,34.355,1.855,22.536,11.063,22.536,11.063l12.3-5.5L334.51-304.62" transform="translate(172.272 686.047)" fill="#d08b73"/>
      <path id="path440" d="M310.887-357.034s32.257,9.172,39.267,21.333,4.532,30.507,5.975,38.547,10.925,42.048,4.125,47.612-49.365,0-49.365,0v-26.795s14.117-2.268,23.8-1.855c-4.74-13.4-8.243-24.942-3.3-39.988s-20.51-38.854-20.51-38.854" transform="translate(193.731 656.734)" fill="#35495e"/>
      <path id="path442" d="M275.585-333.859A31.6,31.6,0,0,1,288.5-313.2l2.428,14.176-20.359,8.451v-40.193l5.017-3.093" transform="translate(168.606 671.176)" fill="#2c3e50"/>
      <path id="path444" d="M289.641-316.6c6.871,12.78,5.7,33.8,3.437,50.707C303.9-269.3,324-261.364,324-261.364v21.233s-23.7,14.634-45.965,7.832c-17.108-9.07-23.5-90.487-22.674-96.054s37.722-29.888,37.722-29.888-10.308,28.857-3.437,41.637" transform="translate(159.082 655.982)" fill="#35495e"/>
      <g id="g446" transform="translate(414.368 297.742)">
        <g id="g448" clip-path="url(#clip-path-5)">
          <path id="path454" d="M281.352-304.16l-2.783,4.833s3.487-.374,11.749,2.164,23.908,8.038,23.908,8.038L311.96-298.3l-26.795-6.294-3.813.433" transform="translate(-240.777 391.671)" fill="#2c3e50"/>
        </g>
      </g>
      <path id="path456" d="M291.834-372.988s4.763,8.627,7.261,10.094,15.19,3.675,15.19,3.675v8.315s-10-.448-16.84-7.352c-6.064-6.125-5.612-14.732-5.612-14.732" transform="translate(181.853 646.792)" fill="#bc6c56"/>
      <path id="path458" d="M292.761-378.449s-3.575,17,3.526,21.64a28.506,28.506,0,0,0,18.352,4.742c3.956-.517,12.879-4.432,12.879-10.2v-18.757l-27.786-1.34-6.971,3.919" transform="translate(181.875 640.947)" fill="#2c3e50"/>
      <path id="path460" d="M319.5-398.868a16.016,16.016,0,0,1,5.9,9.278c.688,3.573.126,10.873.126,10.873s6.2,8.228,6.477,10.152-7.38.972-7.38.972-5.817,10.434-11.728,9.471c-5.168-.84-10.384-4.348-13.812-8.187-2.987-3.344-3.731-7.261-3.917-11.568-.162-3.763-.853-7.432-1.013-11.2-.128-2.933-.682-7.181.675-9.927,2.839-5.742,13.158-2.078,19.028-1.718,3.368.206,3.973.53,5.644,1.853" transform="translate(183.167 628.587)" fill="#d08b73"/>
      <path id="path462" d="M275.141-355.935s23.449,35.833,37.871,33.571c20.294-3.184,25.776-33.571,25.776-33.571" transform="translate(171.455 657.419)" fill="none" stroke="#2c3e50" stroke-miterlimit="10" stroke-width="1.08"/>
      <path id="path464" d="M291.455-383.5s-3.712-.894-4.4,1.924.879,5.359,2.4,4.054-.076-1.569,0-2.881,3.924-1.034,2-3.1" transform="translate(178.776 640.157)" fill="#bc6c56"/>
    </g>
  </g>
</svg>
