<svg xmlns="http://www.w3.org/2000/svg" width="866.665" height="636.942" viewBox="0 0 866.665 636.942">
  <g id="g10" transform="translate(-314.666 1066.469)">
    <g id="g12">
      <path id="path16" d="M1024.027-893.238c-3.643,0-7.255.135-10.835.379a149.377,149.377,0,0,0-147.161-123.832,148.673,148.673,0,0,0-89.872,30.067,157.241,157.241,0,0,0-136.932-79.845,157.3,157.3,0,0,0-157.3,157.3,159.085,159.085,0,0,0,.837,16.3c-3.568-.243-7.164-.376-10.792-.376a157.3,157.3,0,0,0-157.3,157.3,157.3,157.3,0,0,0,157.3,157.3h552.057a157.3,157.3,0,0,0,157.3-157.3,157.3,157.3,0,0,0-157.3-157.3" fill="#aad0e2"/>
      <path id="path18" d="M1024.027-893.238c-3.643,0-7.255.135-10.835.379a149.377,149.377,0,0,0-147.161-123.832,148.673,148.673,0,0,0-89.872,30.067,157.241,157.241,0,0,0-136.932-79.845,157.3,157.3,0,0,0-157.3,157.3,159.085,159.085,0,0,0,.837,16.3c-3.568-.243-7.164-.376-10.792-.376a157.3,157.3,0,0,0-157.3,157.3,157.3,157.3,0,0,0,157.3,157.3h552.057a157.3,157.3,0,0,0,157.3-157.3,157.3,157.3,0,0,0-157.3-157.3" fill="#b3d5e3"/>
      <path id="path20" d="M703.064-1031.6a151.6,151.6,0,0,0-46.211-7.173A151.793,151.793,0,0,0,505.06-886.979a153.661,153.661,0,0,0,.808,15.732c-3.443-.232-6.913-.361-10.413-.361A151.794,151.794,0,0,0,343.661-719.817a151,151,0,0,0,20.16,75.605c-5.791-68.487,4.573-199.245,168.73-196.045-1.677-44.716,6.251-184.9,170.513-191.342" fill="#c3dee8"/>
      <path id="path22" d="M548.032-578.632h475.995a157.3,157.3,0,0,0,157.3-157.3,156.961,156.961,0,0,0-9.135-52.87C1068.763-585.1,718.948-603.129,548.032-578.632" fill="#a5c7dd"/>
      <path id="path24" d="M874.106-617.515h-34.86V-732.789A91.351,91.351,0,0,0,748-824.035a91.351,91.351,0,0,0-91.248,91.246v115.274H621.89V-732.789A126.25,126.25,0,0,1,748-858.9,126.25,126.25,0,0,1,874.106-732.789v115.274" fill="#72716f"/>
      <path id="path26" d="M927.47-443.044a13.518,13.518,0,0,1-13.517,13.517H582.044a13.518,13.518,0,0,1-13.517-13.517V-658.7a13.518,13.518,0,0,1,13.517-13.517H913.952A13.518,13.518,0,0,1,927.47-658.7v215.655" fill="#f2cb30"/>
      <path id="path28" d="M839.246-672.217s29.939-37.357,33.684-77.547v77.547H839.246" fill="#5c5a5a"/>
      <path id="path30" d="M927.47-443.044V-575.18C818.122-482.665,660.458-447.9,571.115-435.148a13.469,13.469,0,0,0,10.929,5.621H913.952a13.518,13.518,0,0,0,13.517-13.517" fill="#eab531"/>
      <path id="path32" d="M777.659-587.42A29.661,29.661,0,0,0,748-617.081a29.661,29.661,0,0,0-29.661,29.661,29.588,29.588,0,0,0,12.023,23.808l-9.441,67.074h54.16l-9.441-67.074a29.588,29.588,0,0,0,12.023-23.808" fill="#72716f"/>
      <path id="path34" d="M720.918-496.537s42.323-16.193,45.425-62.061l8.735,62.061h-54.16" fill="#5c5a5a"/>
    </g>
  </g>
</svg>
