<svg xmlns="http://www.w3.org/2000/svg" xmlns:xlink="http://www.w3.org/1999/xlink" width="632" height="554.339" viewBox="0 0 632 554.339">
  <defs>
    <filter id="Path_4185" x="0" y="232" width="392" height="122" filterUnits="userSpaceOnUse">
      <feOffset dy="3" input="SourceAlpha"/>
      <feGaussianBlur stdDeviation="3" result="blur"/>
      <feFlood flood-opacity="0.161"/>
      <feComposite operator="in" in2="blur"/>
      <feComposite in="SourceGraphic"/>
    </filter>
    <filter id="Rectangle_5" x="132" y="0" width="500" height="253" filterUnits="userSpaceOnUse">
      <feOffset dy="10" input="SourceAlpha"/>
      <feGaussianBlur stdDeviation="15" result="blur-2"/>
      <feFlood flood-color="#939393" flood-opacity="0.161"/>
      <feComposite operator="in" in2="blur-2"/>
      <feComposite in="SourceGraphic"/>
    </filter>
    <clipPath id="clip-path">
      <path id="Path_49" data-name="Path 49" d="M14.395-2.449a.685.685,0,0,1-.328-.082l-3.634-2-3.634,2a.684.684,0,0,1-.752-.058.766.766,0,0,1-.281-.735l.713-4.212L3.543-10.529a.774.774,0,0,1-.178-.748.723.723,0,0,1,.577-.509L8-12.407l1.789-3.838a.71.71,0,0,1,.641-.422.71.71,0,0,1,.641.422l1.81,3.83,4.062.621a.723.723,0,0,1,.577.509.774.774,0,0,1-.178.748L14.409-7.544l.713,4.212a.766.766,0,0,1-.285.748A.688.688,0,0,1,14.395-2.449Z" transform="translate(-3.333 16.667)" fill="none" clip-rule="evenodd"/>
    </clipPath>
    <clipPath id="clip-path-2">
      <path id="Path_48" data-name="Path 48" d="M0,1.331H21.331V-20H0Z" transform="translate(0 20)" fill="none"/>
    </clipPath>
    <clipPath id="clip-path-3">
      <path id="Path_52" data-name="Path 52" d="M34.395-2.449a.685.685,0,0,1-.328-.082l-3.634-2-3.634,2a.684.684,0,0,1-.752-.058.766.766,0,0,1-.281-.735l.713-4.212-2.936-2.992a.774.774,0,0,1-.178-.748.723.723,0,0,1,.577-.509L28-12.407l1.789-3.838a.71.71,0,0,1,.641-.422.71.71,0,0,1,.641.422l1.81,3.83,4.062.621a.723.723,0,0,1,.577.509.774.774,0,0,1-.178.748L34.409-7.544l.713,4.212a.766.766,0,0,1-.285.748A.688.688,0,0,1,34.395-2.449Z" transform="translate(-23.333 16.667)" fill="none" clip-rule="evenodd"/>
    </clipPath>
    <clipPath id="clip-path-4">
      <path id="Path_51" data-name="Path 51" d="M20,1.331H41.331V-20H20Z" transform="translate(-20 20)" fill="none"/>
    </clipPath>
    <clipPath id="clip-path-5">
      <path id="Path_55" data-name="Path 55" d="M54.395-2.449a.685.685,0,0,1-.328-.082l-3.634-2-3.634,2a.684.684,0,0,1-.752-.058.766.766,0,0,1-.281-.735l.713-4.212-2.936-2.992a.774.774,0,0,1-.178-.748.723.723,0,0,1,.577-.509L48-12.407l1.789-3.838a.71.71,0,0,1,.641-.422.71.71,0,0,1,.641.422l1.81,3.83,4.062.621a.723.723,0,0,1,.577.509.774.774,0,0,1-.178.748L54.409-7.544l.713,4.212a.766.766,0,0,1-.285.748A.688.688,0,0,1,54.395-2.449Z" transform="translate(-43.333 16.667)" fill="none" clip-rule="evenodd"/>
    </clipPath>
    <clipPath id="clip-path-6">
      <path id="Path_54" data-name="Path 54" d="M40,1.331H61.331V-20H40Z" transform="translate(-40 20)" fill="none"/>
    </clipPath>
    <clipPath id="clip-path-7">
      <path id="Path_58" data-name="Path 58" d="M74.395-2.449a.685.685,0,0,1-.328-.082l-3.634-2-3.634,2a.684.684,0,0,1-.752-.058.766.766,0,0,1-.281-.735l.713-4.212-2.936-2.992a.774.774,0,0,1-.178-.748.723.723,0,0,1,.577-.509L68-12.407l1.789-3.838a.71.71,0,0,1,.641-.422.71.71,0,0,1,.641.422l1.81,3.83,4.062.621a.723.723,0,0,1,.577.509.774.774,0,0,1-.178.748L74.409-7.544l.713,4.212a.766.766,0,0,1-.285.748A.688.688,0,0,1,74.395-2.449Z" transform="translate(-63.333 16.667)" fill="none" clip-rule="evenodd"/>
    </clipPath>
    <clipPath id="clip-path-8">
      <path id="Path_57" data-name="Path 57" d="M60,1.331H81.331V-20H60Z" transform="translate(-60 20)" fill="none"/>
    </clipPath>
    <clipPath id="clip-path-9">
      <path id="Path_61" data-name="Path 61" d="M94.395-2.449a.685.685,0,0,1-.328-.082l-3.634-2-3.634,2a.684.684,0,0,1-.752-.058.766.766,0,0,1-.281-.735l.713-4.212-2.936-2.992a.774.774,0,0,1-.178-.748.723.723,0,0,1,.577-.509L88-12.407l1.789-3.838a.71.71,0,0,1,.641-.422.71.71,0,0,1,.641.422l1.81,3.83,4.062.621a.723.723,0,0,1,.577.509.774.774,0,0,1-.178.748L94.409-7.544l.713,4.212a.766.766,0,0,1-.285.748A.688.688,0,0,1,94.395-2.449ZM90.433-6.115a.631.631,0,0,1,.328.082l2.686,1.5-.513-3.15a.772.772,0,0,1,.207-.666l2.138-2.192-2.993-.464a.72.72,0,0,1-.506-.419l-1.347-2.805-1.347,2.805a.716.716,0,0,1-.534.4l-2.993.464L87.7-8.367A.772.772,0,0,1,87.9-7.7L87.39-4.589l2.686-1.5A.626.626,0,0,1,90.433-6.115Z" transform="translate(-83.333 16.667)" fill="none" clip-rule="evenodd"/>
    </clipPath>
    <clipPath id="clip-path-10">
      <path id="Path_60" data-name="Path 60" d="M80,1.331h21.331V-20H80Z" transform="translate(-80 20)" fill="none"/>
    </clipPath>
    <filter id="Rectangle_2198" x="453.906" y="74.288" width="163.828" height="165.571" filterUnits="userSpaceOnUse">
      <feOffset dy="10" input="SourceAlpha"/>
      <feGaussianBlur stdDeviation="15" result="blur-3"/>
      <feFlood flood-opacity="0.161"/>
      <feComposite operator="in" in2="blur-3"/>
      <feComposite in="SourceGraphic"/>
    </filter>
    <filter id="Rectangle_2209" x="168" y="375" width="400" height="152" filterUnits="userSpaceOnUse">
      <feOffset dy="3" input="SourceAlpha"/>
      <feGaussianBlur stdDeviation="3" result="blur-4"/>
      <feFlood flood-opacity="0.161"/>
      <feComposite operator="in" in2="blur-4"/>
      <feComposite in="SourceGraphic"/>
    </filter>
    <filter id="Rectangle_2198-2" x="450.322" y="418.418" width="134.861" height="135.921" filterUnits="userSpaceOnUse">
      <feOffset dy="10" input="SourceAlpha"/>
      <feGaussianBlur stdDeviation="15" result="blur-5"/>
      <feFlood flood-opacity="0.161"/>
      <feComposite operator="in" in2="blur-5"/>
      <feComposite in="SourceGraphic"/>
    </filter>
  </defs>
  <g id="Group_4400" data-name="Group 4400" transform="translate(-16782 -8353.348)">
    <g id="Group_4263" data-name="Group 4263" transform="translate(16791 8591.132)">
      <g transform="matrix(1, 0, 0, 1, -9, -237.78)" filter="url(#Path_4185)">
        <path id="Path_4185-2" data-name="Path 4185" d="M10,0H364a10,10,0,0,1,10,10V94a10,10,0,0,1-10,10H10A10,10,0,0,1,0,94V10A10,10,0,0,1,10,0Z" transform="translate(9 238)" fill="#fff"/>
      </g>
      <g id="Group_2753" data-name="Group 2753" transform="translate(14.339 46.601)">
        <rect id="Rectangle_2220" data-name="Rectangle 2220" width="342" height="9" transform="translate(-0.338 -0.385)" fill="#fff"/>
        <rect id="Rectangle_2217" data-name="Rectangle 2217" width="148.507" height="7.886" transform="translate(10 0)" fill="#4db748"/>
        <path id="Rectangle_2219" data-name="Rectangle 2219" d="M0,0H169.494a3.943,3.943,0,0,1,3.943,3.943v0a3.943,3.943,0,0,1-3.943,3.943H0a0,0,0,0,1,0,0V0A0,0,0,0,1,0,0Z" transform="translate(168.303 0)" fill="#1970a7"/>
        <rect id="Rectangle_2224" data-name="Rectangle 2224" width="9.9" height="7.886" transform="translate(158.461 0)" fill="#403d3d" opacity="0.5"/>
        <path id="Rectangle_2302" data-name="Rectangle 2302" d="M3.943,0H9.9a0,0,0,0,1,0,0V7.886a0,0,0,0,1,0,0H3.943A3.943,3.943,0,0,1,0,3.943v0A3.943,3.943,0,0,1,3.943,0Z" transform="translate(0.463)" fill="#959aac"/>
        <rect id="Rectangle_2301" data-name="Rectangle 2301" width="2" height="14" transform="translate(6.662 -2.385)" fill="#2d342c"/>
      </g>
      <path id="Path_4189" data-name="Path 4189" d="M2.73-9.8H4.41V0H2.478V-7.756L.63-7.238.154-8.89Zm7.1,10A3.4,3.4,0,0,1,6.951-1.2,6.03,6.03,0,0,1,5.908-4.9,6.03,6.03,0,0,1,6.951-8.6,3.4,3.4,0,0,1,9.828-10,3.39,3.39,0,0,1,12.712-8.6a6.06,6.06,0,0,1,1.036,3.7,6.06,6.06,0,0,1-1.036,3.7A3.39,3.39,0,0,1,9.828.2Zm-1.484-2.7a1.638,1.638,0,0,0,1.484.812,1.648,1.648,0,0,0,1.491-.826A4.555,4.555,0,0,0,11.83-4.9a4.588,4.588,0,0,0-.511-2.394A1.648,1.648,0,0,0,9.828-8.12a1.632,1.632,0,0,0-1.484.826A4.641,4.641,0,0,0,7.84-4.9,4.641,4.641,0,0,0,8.344-2.506ZM26.306-7.2a2.489,2.489,0,0,1,1.925.784,2.981,2.981,0,0,1,.721,2.1V0H27.146V-4.186a1.434,1.434,0,0,0-.308-.98,1.1,1.1,0,0,0-.868-.35,1.187,1.187,0,0,0-.959.406,1.776,1.776,0,0,0-.343,1.176V0H22.862V-4.186a1.434,1.434,0,0,0-.308-.98,1.1,1.1,0,0,0-.868-.35,1.213,1.213,0,0,0-.959.406,1.729,1.729,0,0,0-.357,1.176V0H18.564V-7H20.37v.742A2.18,2.18,0,0,1,22.316-7.2a2.075,2.075,0,0,1,1.9,1.008A2.373,2.373,0,0,1,26.306-7.2Zm5.082-.644a1.063,1.063,0,0,1-.777-.329,1.063,1.063,0,0,1-.329-.777,1.086,1.086,0,0,1,.329-.784,1.052,1.052,0,0,1,.777-.336,1.067,1.067,0,0,1,.791.336,1.086,1.086,0,0,1,.329.784,1.063,1.063,0,0,1-.329.777A1.078,1.078,0,0,1,31.388-7.84ZM30.492,0V-7H32.3V0Zm7.35-7.2a2.534,2.534,0,0,1,1.9.77A2.923,2.923,0,0,1,40.488-4.3V0H38.682V-4.074A1.434,1.434,0,0,0,38.3-5.145,1.377,1.377,0,0,0,37.3-5.516a1.487,1.487,0,0,0-1.12.434,1.8,1.8,0,0,0-.42,1.3V0H33.95V-7h1.806v.784A2.332,2.332,0,0,1,37.842-7.2Zm8.806.2h1.806V0H46.648V-.784A2.332,2.332,0,0,1,44.562.2a2.534,2.534,0,0,1-1.9-.77A2.923,2.923,0,0,1,41.916-2.7V-7h1.806v4.074A1.434,1.434,0,0,0,44.1-1.855a1.377,1.377,0,0,0,1.008.371,1.487,1.487,0,0,0,1.12-.434,1.8,1.8,0,0,0,.42-1.3ZM54.11-5.264H52.528v2.912a.692.692,0,0,0,.182.532.835.835,0,0,0,.532.189,7.839,7.839,0,0,0,.868-.007V0a3.847,3.847,0,0,1-2.625-.35,2.33,2.33,0,0,1-.763-2V-5.264H49.5V-7h1.218V-8.414l1.806-.546V-7H54.11ZM56.7-2.758a1.794,1.794,0,0,0,1.974,1.316,1.847,1.847,0,0,0,1.568-.7L61.7-1.3A3.472,3.472,0,0,1,58.646.2,3.766,3.766,0,0,1,55.86-.854,3.587,3.587,0,0,1,54.81-3.5a3.619,3.619,0,0,1,1.036-2.639A3.563,3.563,0,0,1,58.506-7.2a3.338,3.338,0,0,1,2.541,1.064,3.694,3.694,0,0,1,1,2.632,4.228,4.228,0,0,1-.07.742Zm-.028-1.4h3.57A1.692,1.692,0,0,0,59.6-5.222a1.826,1.826,0,0,0-1.1-.35,1.9,1.9,0,0,0-1.2.371A1.773,1.773,0,0,0,56.672-4.158Zm8.022-.854q0,.28.371.455a4.947,4.947,0,0,0,.9.308,9.333,9.333,0,0,1,1.064.336,2.065,2.065,0,0,1,.9.679,1.877,1.877,0,0,1,.371,1.19A1.923,1.923,0,0,1,67.5-.385,3.344,3.344,0,0,1,65.492.2a2.945,2.945,0,0,1-2.94-1.666l1.568-.882a1.3,1.3,0,0,0,1.372.91q.966,0,.966-.6,0-.28-.371-.455a5.3,5.3,0,0,0-.9-.315,9.441,9.441,0,0,1-1.064-.35,2.184,2.184,0,0,1-.9-.665,1.747,1.747,0,0,1-.371-1.141A1.955,1.955,0,0,1,63.609-6.6a2.991,2.991,0,0,1,1.9-.595,3.171,3.171,0,0,1,1.554.385,2.814,2.814,0,0,1,1.106,1.1l-1.54.84a1.152,1.152,0,0,0-1.12-.714,1.026,1.026,0,0,0-.581.154A.48.48,0,0,0,64.694-5.012Z" transform="translate(118 31.216)" fill="#4eb848"/>
      <path id="Path_4187" data-name="Path 4187" d="M.182-9.8H6.51v1.638L3.192,0H1.148l3.22-7.952H.182ZM9.73-6.622a3.511,3.511,0,0,1,2.478.987A3.258,3.258,0,0,1,13.16-3.22a3.265,3.265,0,0,1-.994,2.457A3.537,3.537,0,0,1,9.6.2,3.527,3.527,0,0,1,7.049-.756,3.271,3.271,0,0,1,6.062-3.22a3.455,3.455,0,0,1,.574-1.974L9.688-9.8H11.9ZM8.442-2.058A1.631,1.631,0,0,0,9.6-1.624a1.655,1.655,0,0,0,1.169-.434,1.507,1.507,0,0,0,.469-1.162,1.49,1.49,0,0,0-.469-1.148A1.655,1.655,0,0,0,9.6-4.8a1.646,1.646,0,0,0-1.162.427A1.5,1.5,0,0,0,7.98-3.22,1.518,1.518,0,0,0,8.442-2.058ZM24.192,0,23.6-1.764H19.7L19.11,0H17.024l3.43-9.8h2.394L26.292,0ZM20.314-3.57H23l-1.344-4ZM31.486-7h1.988l-2.66,7H28.756L26.1-7h1.988l1.694,4.9Zm4.1,4.242a1.794,1.794,0,0,0,1.974,1.316,1.847,1.847,0,0,0,1.568-.7l1.456.84A3.472,3.472,0,0,1,37.534.2a3.766,3.766,0,0,1-2.786-1.05A3.587,3.587,0,0,1,33.7-3.5a3.619,3.619,0,0,1,1.036-2.639A3.563,3.563,0,0,1,37.394-7.2a3.338,3.338,0,0,1,2.541,1.064,3.694,3.694,0,0,1,1,2.632,4.228,4.228,0,0,1-.07.742Zm-.028-1.4h3.57a1.692,1.692,0,0,0-.637-1.064,1.826,1.826,0,0,0-1.1-.35,1.9,1.9,0,0,0-1.2.371A1.773,1.773,0,0,0,35.56-4.158ZM55.37-9.8V0H53.452V-6.356l-2.758,4.55H50.47L47.712-6.342V0H45.78V-9.8h1.988l2.814,4.634,2.8-4.634ZM58-7.84a1.063,1.063,0,0,1-.777-.329,1.063,1.063,0,0,1-.329-.777,1.086,1.086,0,0,1,.329-.784A1.052,1.052,0,0,1,58-10.066a1.067,1.067,0,0,1,.791.336,1.086,1.086,0,0,1,.329.784,1.063,1.063,0,0,1-.329.777A1.078,1.078,0,0,1,58-7.84ZM57.106,0V-7h1.806V0Zm3.458,0V-10.22H62.37V0Zm9.912,0h-2.1L65.828-3.178V0H64.022V-9.8h1.806v5.88L68.236-7h2.156L67.578-3.542Zm5.306-7h1.932L75.166,0a4.611,4.611,0,0,1-1.449,2.191A3.33,3.33,0,0,1,71.47,2.8V1.12A1.814,1.814,0,0,0,72.625.812,2.151,2.151,0,0,0,73.3-.224L70.434-7h1.974l1.82,4.7ZM84.2,0,81.452-9.8h2.03l1.876,7.266L87.4-9.8h1.652l2.058,7.266L92.988-9.8h2.03L92.274,0h-2.2L88.228-6.468,86.394,0Zm16.338-7h1.806V0h-1.806V-.826A2.748,2.748,0,0,1,98.252.2a3.172,3.172,0,0,1-2.4-1.071,3.7,3.7,0,0,1-1-2.625,3.7,3.7,0,0,1,1-2.625,3.172,3.172,0,0,1,2.4-1.071,2.748,2.748,0,0,1,2.282,1.022ZM97.2-2.072a1.878,1.878,0,0,0,1.386.546,1.889,1.889,0,0,0,1.393-.553,1.924,1.924,0,0,0,.553-1.421,1.924,1.924,0,0,0-.553-1.421,1.889,1.889,0,0,0-1.393-.553,1.865,1.865,0,0,0-1.386.553A1.937,1.937,0,0,0,96.656-3.5,1.961,1.961,0,0,0,97.2-2.072ZM108.542-7h1.932l-2.548,7a4.611,4.611,0,0,1-1.449,2.191,3.33,3.33,0,0,1-2.247.609V1.12a1.814,1.814,0,0,0,1.155-.308,2.151,2.151,0,0,0,.679-1.036L103.194-7h1.974l1.82,4.7ZM118.258.2a4.378,4.378,0,0,1-2.45-.651,3.482,3.482,0,0,1-1.4-1.771l1.652-.966a2.2,2.2,0,0,0,2.254,1.5,1.94,1.94,0,0,0,1.19-.294.9.9,0,0,0,.378-.742.9.9,0,0,0-.462-.8,7.125,7.125,0,0,0-1.652-.623,10.265,10.265,0,0,1-1.113-.392,4.8,4.8,0,0,1-.91-.525,2.141,2.141,0,0,1-.693-.833,2.727,2.727,0,0,1-.238-1.176,2.624,2.624,0,0,1,.945-2.121A3.428,3.428,0,0,1,118.034-10a3.783,3.783,0,0,1,2.093.581A3.9,3.9,0,0,1,121.534-7.8l-1.624.938a1.956,1.956,0,0,0-1.876-1.26,1.479,1.479,0,0,0-.945.273.862.862,0,0,0-.343.707.892.892,0,0,0,.385.749,5.382,5.382,0,0,0,1.477.623q.448.14.679.217t.63.238a3.8,3.8,0,0,1,.616.3,4.858,4.858,0,0,1,.5.378,1.936,1.936,0,0,1,.427.49,2.75,2.75,0,0,1,.252.609,2.744,2.744,0,0,1,.1.777A2.627,2.627,0,0,1,120.827-.6,3.959,3.959,0,0,1,118.258.2Zm8.526-5.46H125.2v2.912a.693.693,0,0,0,.182.532.835.835,0,0,0,.532.189,7.839,7.839,0,0,0,.868-.007V0a3.847,3.847,0,0,1-2.625-.35,2.33,2.33,0,0,1-.763-2V-5.264h-1.218V-7H123.4V-8.414L125.2-8.96V-7h1.582Zm3.192-.532a1.886,1.886,0,0,1,.833-1.008A2.54,2.54,0,0,1,132.1-7.14v2.016a2.127,2.127,0,0,0-1.477.336,1.6,1.6,0,0,0-.651,1.442V0H128.17V-7h1.806Zm4.438,3.038a1.794,1.794,0,0,0,1.974,1.316,1.847,1.847,0,0,0,1.568-.7l1.456.84A3.472,3.472,0,0,1,136.36.2a3.766,3.766,0,0,1-2.786-1.05,3.587,3.587,0,0,1-1.05-2.646,3.619,3.619,0,0,1,1.036-2.639A3.563,3.563,0,0,1,136.22-7.2a3.338,3.338,0,0,1,2.541,1.064,3.694,3.694,0,0,1,1,2.632,4.229,4.229,0,0,1-.07.742Zm-.028-1.4h3.57a1.692,1.692,0,0,0-.637-1.064,1.826,1.826,0,0,0-1.1-.35,1.9,1.9,0,0,0-1.2.371A1.773,1.773,0,0,0,134.386-4.158Zm8.106,1.4a1.794,1.794,0,0,0,1.974,1.316,1.847,1.847,0,0,0,1.568-.7l1.456.84A3.472,3.472,0,0,1,144.438.2a3.766,3.766,0,0,1-2.786-1.05A3.587,3.587,0,0,1,140.6-3.5a3.619,3.619,0,0,1,1.036-2.639A3.563,3.563,0,0,1,144.3-7.2a3.338,3.338,0,0,1,2.541,1.064,3.694,3.694,0,0,1,1,2.632,4.229,4.229,0,0,1-.07.742Zm-.028-1.4h3.57a1.692,1.692,0,0,0-.637-1.064,1.826,1.826,0,0,0-1.1-.35,1.9,1.9,0,0,0-1.2.371A1.773,1.773,0,0,0,142.464-4.158Zm10.43-1.106h-1.582v2.912a.693.693,0,0,0,.182.532.835.835,0,0,0,.532.189,7.839,7.839,0,0,0,.868-.007V0a3.847,3.847,0,0,1-2.625-.35,2.33,2.33,0,0,1-.763-2V-5.264h-1.218V-7h1.218V-8.414l1.806-.546V-7h1.582Z" transform="translate(67 78.216)" fill="#4eb848"/>
      <path id="Path_4186" data-name="Path 4186" d="M4.256.2a4.378,4.378,0,0,1-2.45-.651,3.482,3.482,0,0,1-1.4-1.771l1.652-.966a2.2,2.2,0,0,0,2.254,1.5A1.94,1.94,0,0,0,5.5-1.988.9.9,0,0,0,5.88-2.73a.9.9,0,0,0-.462-.8,7.125,7.125,0,0,0-1.652-.623A10.265,10.265,0,0,1,2.653-4.55a4.8,4.8,0,0,1-.91-.525,2.141,2.141,0,0,1-.693-.833A2.727,2.727,0,0,1,.812-7.084,2.624,2.624,0,0,1,1.757-9.2,3.428,3.428,0,0,1,4.032-10a3.783,3.783,0,0,1,2.093.581A3.9,3.9,0,0,1,7.532-7.8L5.908-6.86A1.956,1.956,0,0,0,4.032-8.12a1.479,1.479,0,0,0-.945.273.862.862,0,0,0-.343.707.892.892,0,0,0,.385.749,5.382,5.382,0,0,0,1.477.623q.448.14.679.217t.63.238a3.8,3.8,0,0,1,.616.3,4.858,4.858,0,0,1,.5.378,1.937,1.937,0,0,1,.427.49,2.75,2.75,0,0,1,.252.609,2.744,2.744,0,0,1,.105.777A2.627,2.627,0,0,1,6.825-.6,3.959,3.959,0,0,1,4.256.2Zm8.526-5.46H11.2v2.912a.693.693,0,0,0,.182.532.835.835,0,0,0,.532.189,7.839,7.839,0,0,0,.868-.007V0a3.847,3.847,0,0,1-2.625-.35,2.33,2.33,0,0,1-.763-2V-5.264H8.176V-7H9.394V-8.414L11.2-8.96V-7h1.582ZM19.166-7h1.806V0H19.166V-.826A2.748,2.748,0,0,1,16.884.2a3.172,3.172,0,0,1-2.4-1.071,3.7,3.7,0,0,1-1-2.625,3.7,3.7,0,0,1,1-2.625,3.172,3.172,0,0,1,2.4-1.071,2.748,2.748,0,0,1,2.282,1.022ZM15.834-2.072a1.878,1.878,0,0,0,1.386.546,1.889,1.889,0,0,0,1.393-.553A1.924,1.924,0,0,0,19.166-3.5a1.924,1.924,0,0,0-.553-1.421,1.889,1.889,0,0,0-1.393-.553,1.865,1.865,0,0,0-1.386.553A1.937,1.937,0,0,0,15.288-3.5,1.961,1.961,0,0,0,15.834-2.072ZM24.416-5.8A1.886,1.886,0,0,1,25.249-6.8a2.54,2.54,0,0,1,1.3-.336v2.016a2.127,2.127,0,0,0-1.477.336,1.6,1.6,0,0,0-.651,1.442V0H22.61V-7h1.806Zm7.378.532H30.212v2.912a.692.692,0,0,0,.182.532.835.835,0,0,0,.532.189,7.839,7.839,0,0,0,.868-.007V0a3.847,3.847,0,0,1-2.625-.35,2.33,2.33,0,0,1-.763-2V-5.264H27.188V-7h1.218V-8.414l1.806-.546V-7h1.582ZM44.562-7H46.48L44.254,0H42.532L41.244-4.242,39.956,0H38.234L36.008-7h1.918l1.19,4.3L40.39-7H42.1l1.274,4.312ZM52.5-7h1.806V0H52.5V-.826A2.748,2.748,0,0,1,50.218.2a3.172,3.172,0,0,1-2.4-1.071,3.7,3.7,0,0,1-1-2.625,3.7,3.7,0,0,1,1-2.625,3.172,3.172,0,0,1,2.4-1.071A2.748,2.748,0,0,1,52.5-6.174ZM49.168-2.072a1.878,1.878,0,0,0,1.386.546,1.889,1.889,0,0,0,1.393-.553A1.924,1.924,0,0,0,52.5-3.5a1.924,1.924,0,0,0-.553-1.421,1.889,1.889,0,0,0-1.393-.553,1.865,1.865,0,0,0-1.386.553A1.937,1.937,0,0,0,48.622-3.5,1.961,1.961,0,0,0,49.168-2.072ZM55.944,0V-10.22H57.75V0Zm9.912,0h-2.1L61.208-3.178V0H59.4V-9.8h1.806v5.88L63.616-7h2.156L62.958-3.542Zm1.792-7.84a1.063,1.063,0,0,1-.777-.329,1.063,1.063,0,0,1-.329-.777,1.086,1.086,0,0,1,.329-.784,1.052,1.052,0,0,1,.777-.336,1.067,1.067,0,0,1,.791.336,1.086,1.086,0,0,1,.329.784,1.063,1.063,0,0,1-.329.777A1.078,1.078,0,0,1,67.648-7.84ZM66.752,0V-7h1.806V0ZM74.1-7.2a2.534,2.534,0,0,1,1.9.77A2.923,2.923,0,0,1,76.748-4.3V0H74.942V-4.074a1.434,1.434,0,0,0-.378-1.071,1.377,1.377,0,0,0-1.008-.371,1.487,1.487,0,0,0-1.12.434,1.8,1.8,0,0,0-.42,1.3V0H70.21V-7h1.806v.784A2.332,2.332,0,0,1,74.1-7.2ZM83.65-7h1.764V-.336a2.982,2.982,0,0,1-1.071,2.478A4.014,4.014,0,0,1,81.76,3a4.376,4.376,0,0,1-1.995-.434,3.034,3.034,0,0,1-1.323-1.274l1.54-.882a1.911,1.911,0,0,0,1.834.98A1.917,1.917,0,0,0,83.16.938a1.639,1.639,0,0,0,.49-1.274v-.756A2.638,2.638,0,0,1,81.41-.028a3.3,3.3,0,0,1-2.485-1.043,3.533,3.533,0,0,1-1-2.541,3.527,3.527,0,0,1,1.008-2.534A3.3,3.3,0,0,1,81.41-7.2a2.638,2.638,0,0,1,2.24,1.064ZM80.276-2.226a1.971,1.971,0,0,0,1.414.532A1.933,1.933,0,0,0,83.1-2.233a1.842,1.842,0,0,0,.553-1.379A1.825,1.825,0,0,0,83.1-4.977a1.933,1.933,0,0,0-1.407-.539,1.933,1.933,0,0,0-1.407.539,1.825,1.825,0,0,0-.553,1.365A1.878,1.878,0,0,0,80.276-2.226ZM91.448-7.84a1.063,1.063,0,0,1-.777-.329,1.063,1.063,0,0,1-.329-.777,1.086,1.086,0,0,1,.329-.784,1.052,1.052,0,0,1,.777-.336,1.067,1.067,0,0,1,.791.336,1.086,1.086,0,0,1,.329.784,1.063,1.063,0,0,1-.329.777A1.078,1.078,0,0,1,91.448-7.84ZM90.552,0V-7h1.806V0ZM97.9-7.2a2.534,2.534,0,0,1,1.9.77,2.923,2.923,0,0,1,.749,2.128V0H98.742V-4.074a1.434,1.434,0,0,0-.378-1.071,1.377,1.377,0,0,0-1.008-.371,1.487,1.487,0,0,0-1.12.434,1.8,1.8,0,0,0-.42,1.3V0H94.01V-7h1.806v.784A2.332,2.332,0,0,1,97.9-7.2Z" transform="translate(14 31.216)"/>
      <path id="Path_4188" data-name="Path 4188" d="M2.954,0,.21-9.8H2.24L4.116-2.534,6.16-9.8H7.812L9.87-2.534,11.746-9.8h2.03L11.032,0h-2.2L6.986-6.468,5.152,0ZM19.292-7H21.1V0H19.292V-.826A2.748,2.748,0,0,1,17.01.2a3.172,3.172,0,0,1-2.4-1.071,3.7,3.7,0,0,1-1-2.625,3.7,3.7,0,0,1,1-2.625A3.172,3.172,0,0,1,17.01-7.2a2.748,2.748,0,0,1,2.282,1.022ZM15.96-2.072a1.878,1.878,0,0,0,1.386.546,1.889,1.889,0,0,0,1.393-.553A1.924,1.924,0,0,0,19.292-3.5a1.924,1.924,0,0,0-.553-1.421,1.889,1.889,0,0,0-1.393-.553,1.865,1.865,0,0,0-1.386.553A1.937,1.937,0,0,0,15.414-3.5,1.961,1.961,0,0,0,15.96-2.072ZM22.736,0V-10.22h1.806V0Zm9.912,0h-2.1L28-3.178V0H26.194V-9.8H28v5.88L30.408-7h2.156L29.75-3.542Zm8.4-5.264H39.466v2.912a.692.692,0,0,0,.182.532.835.835,0,0,0,.532.189,7.839,7.839,0,0,0,.868-.007V0a3.847,3.847,0,0,1-2.625-.35,2.33,2.33,0,0,1-.763-2V-5.264H36.442V-7H37.66V-8.414l1.806-.546V-7h1.582Zm7.028,4.4A3.6,3.6,0,0,1,45.444.2,3.569,3.569,0,0,1,42.819-.875,3.569,3.569,0,0,1,41.748-3.5a3.569,3.569,0,0,1,1.071-2.625A3.569,3.569,0,0,1,45.444-7.2a3.593,3.593,0,0,1,2.632,1.071A3.558,3.558,0,0,1,49.154-3.5,3.581,3.581,0,0,1,48.076-.868Zm-3.99-1.246a1.843,1.843,0,0,0,1.358.546A1.843,1.843,0,0,0,46.8-2.114,1.878,1.878,0,0,0,47.348-3.5,1.878,1.878,0,0,0,46.8-4.886a1.843,1.843,0,0,0-1.358-.546,1.82,1.82,0,0,0-1.351.546A1.891,1.891,0,0,0,43.554-3.5,1.9,1.9,0,0,0,44.086-2.114Z" transform="translate(14 78.216)"/>
    </g>
    <g id="Group_4264" data-name="Group 4264" transform="translate(16959.48 8388)">
      <g id="Group_2762" data-name="Group 2762" transform="translate(0)">
        <g transform="matrix(1, 0, 0, 1, -177.48, -34.65)" filter="url(#Rectangle_5)">
          <rect id="Rectangle_5-2" data-name="Rectangle 5" width="410" height="163" rx="10" transform="translate(177 35)" fill="#fff"/>
        </g>
        <g id="Group_2760" data-name="Group 2760" transform="translate(157.726 40.626)">
          <g id="Group_2516" data-name="Group 2516" transform="translate(0 0)">
            <path id="Connor_Chavez" data-name="Connor Chavez" d="M12.144-16.1v3.036H7.8V0H4.623V-13.064H.3V-16.1Zm8.027,4.278a4.163,4.163,0,0,1,3.116,1.265,4.8,4.8,0,0,1,1.231,3.5V0H21.551V-6.693a2.356,2.356,0,0,0-.621-1.76,2.262,2.262,0,0,0-1.656-.609,2.443,2.443,0,0,0-1.84.713,2.965,2.965,0,0,0-.69,2.139V0H13.777V-16.1h2.967v5.888A3.831,3.831,0,0,1,20.171-11.822Zm16.675,10.4A5.922,5.922,0,0,1,32.522.322a5.864,5.864,0,0,1-4.312-1.759A5.864,5.864,0,0,1,26.45-5.75a5.864,5.864,0,0,1,1.759-4.312,5.864,5.864,0,0,1,4.313-1.759,5.9,5.9,0,0,1,4.324,1.759A5.845,5.845,0,0,1,38.617-5.75,5.883,5.883,0,0,1,36.846-1.426ZM30.291-3.473a3.029,3.029,0,0,0,2.231.9,3.029,3.029,0,0,0,2.231-.9,3.085,3.085,0,0,0,.9-2.277,3.085,3.085,0,0,0-.9-2.277,3.029,3.029,0,0,0-2.231-.9,2.99,2.99,0,0,0-2.219.9,3.106,3.106,0,0,0-.885,2.277A3.129,3.129,0,0,0,30.291-3.473Zm23.138-8.349a4.089,4.089,0,0,1,3.162,1.288,4.9,4.9,0,0,1,1.185,3.45V0H54.809V-6.877a2.357,2.357,0,0,0-.506-1.61,1.8,1.8,0,0,0-1.426-.575A1.95,1.95,0,0,0,51.3-8.4a2.918,2.918,0,0,0-.564,1.932V0H47.771V-6.877a2.357,2.357,0,0,0-.506-1.61,1.8,1.8,0,0,0-1.426-.575,1.992,1.992,0,0,0-1.576.667,2.84,2.84,0,0,0-.586,1.932V0H40.71V-11.5h2.967v1.219a3.582,3.582,0,0,1,3.2-1.541A3.408,3.408,0,0,1,50-10.166,3.9,3.9,0,0,1,53.429-11.822Zm15.617.322h2.967V0H69.046V-1.357A4.515,4.515,0,0,1,65.3.322a5.211,5.211,0,0,1-3.945-1.759A6.08,6.08,0,0,1,59.708-5.75a6.08,6.08,0,0,1,1.645-4.312A5.211,5.211,0,0,1,65.3-11.822a4.515,4.515,0,0,1,3.749,1.679ZM63.572-3.4a3.085,3.085,0,0,0,2.277.9,3.1,3.1,0,0,0,2.289-.908,3.16,3.16,0,0,0,.909-2.335,3.16,3.16,0,0,0-.909-2.335,3.1,3.1,0,0,0-2.289-.908,3.064,3.064,0,0,0-2.277.908,3.182,3.182,0,0,0-.9,2.335A3.221,3.221,0,0,0,63.572-3.4Zm13.777-4.83q0,.46.609.747a8.128,8.128,0,0,0,1.483.506,15.333,15.333,0,0,1,1.748.552,3.393,3.393,0,0,1,1.484,1.115,3.084,3.084,0,0,1,.609,1.955A3.159,3.159,0,0,1,81.96-.632a5.493,5.493,0,0,1-3.3.954q-3.542,0-4.83-2.737l2.576-1.449A2.132,2.132,0,0,0,78.66-2.369q1.587,0,1.587-.989,0-.46-.609-.747a8.7,8.7,0,0,0-1.483-.518A15.511,15.511,0,0,1,76.406-5.2,3.589,3.589,0,0,1,74.923-6.29a2.869,2.869,0,0,1-.61-1.875,3.213,3.213,0,0,1,1.254-2.68,4.914,4.914,0,0,1,3.117-.977,5.209,5.209,0,0,1,2.553.632,4.622,4.622,0,0,1,1.817,1.806L80.523-8a1.892,1.892,0,0,0-1.84-1.173,1.685,1.685,0,0,0-.954.253A.789.789,0,0,0,77.349-8.234ZM107-8.648v1.242a7.431,7.431,0,0,1-2.208,5.589,7.855,7.855,0,0,1-5.7,2.139A8.414,8.414,0,0,1,92.909-2.1a8.019,8.019,0,0,1-2.45-5.923,8.123,8.123,0,0,1,2.426-5.957A8.148,8.148,0,0,1,98.9-16.422a8.408,8.408,0,0,1,4.117,1.023,7.585,7.585,0,0,1,2.9,2.725L103.2-11.109a4.271,4.271,0,0,0-1.737-1.61,5.4,5.4,0,0,0-2.587-.621,5.083,5.083,0,0,0-3.784,1.506A5.2,5.2,0,0,0,93.61-8.027a5.055,5.055,0,0,0,1.506,3.761,5.441,5.441,0,0,0,3.991,1.484,5.325,5.325,0,0,0,3.048-.816A4.061,4.061,0,0,0,103.8-5.842H98.923V-8.648Zm5.083-.874a3.1,3.1,0,0,1,1.368-1.656,4.172,4.172,0,0,1,2.128-.552v3.312a3.494,3.494,0,0,0-2.426.552,2.635,2.635,0,0,0-1.07,2.369V0h-2.967V-11.5h2.967Zm6.693-3.358a1.746,1.746,0,0,1-1.277-.541,1.746,1.746,0,0,1-.54-1.276,1.784,1.784,0,0,1,.54-1.288,1.728,1.728,0,0,1,1.277-.552,1.754,1.754,0,0,1,1.3.552,1.784,1.784,0,0,1,.54,1.288,1.746,1.746,0,0,1-.54,1.276A1.772,1.772,0,0,1,118.772-12.88ZM117.3,0V-11.5h2.967V0Zm22.149-11.5V0h-2.967V-8.648H133.1V0h-2.967V-8.648h-3.4V0h-2.967V-8.648h-1.656V-11.5h1.656v-.115a4.818,4.818,0,0,1,1.357-3.7,5.258,5.258,0,0,1,4.048-1.1v2.852q-2.438-.184-2.438,1.955v.115h3.4v-.345q0-4.807,5.4-4.807a12.768,12.768,0,0,1,2.714.322v2.714a24.1,24.1,0,0,0-2.714-.184,3.2,3.2,0,0,0-1.829.425,1.738,1.738,0,0,0-.609,1.53v.345Zm9.108-.322a4.163,4.163,0,0,1,3.116,1.265,4.8,4.8,0,0,1,1.231,3.5V0h-2.967V-6.693a2.356,2.356,0,0,0-.621-1.76,2.262,2.262,0,0,0-1.656-.609,2.443,2.443,0,0,0-1.84.713,2.965,2.965,0,0,0-.69,2.139V0h-2.967V-11.5h2.967v1.288A3.831,3.831,0,0,1,148.557-11.822Z" transform="translate(-0.207 17.721)"/>
            <path id="ST3751_-_Toyota_Vios" data-name="ST3751 - Toyota Vios" d="M9.435-3.5V-2.38H7.905V0H6.715V-2.38H.425V-3.5l4.42-8.4H6.154L1.734-3.5H6.715V-7.14h1.19V-3.5Zm.425-8.4h7.31v1.122L12.682,0H11.441l4.488-10.778H9.86ZM24.412-7.089A2.763,2.763,0,0,1,27.1-8.636v1.088a2.785,2.785,0,0,0-1.921.68,2.727,2.727,0,0,0-.765,2.142V0H23.29V-8.5h1.122Zm5.355-3.451a.787.787,0,0,1-.578.238.787.787,0,0,1-.578-.238.787.787,0,0,1-.238-.578.787.787,0,0,1,.238-.578.787.787,0,0,1,.578-.238.787.787,0,0,1,.578.238.787.787,0,0,1,.238.578A.787.787,0,0,1,29.767-10.54ZM28.628,0V-8.5H29.75V0ZM39.44-11.9h1.122V0H39.44V-1.666A3.805,3.805,0,0,1,36.006.2a4.213,4.213,0,0,1-3.1-1.292A4.315,4.315,0,0,1,31.62-4.25,4.315,4.315,0,0,1,32.9-7.412a4.213,4.213,0,0,1,3.1-1.292,3.805,3.805,0,0,1,3.434,1.87ZM33.711-1.853a3.235,3.235,0,0,0,2.38.969,3.221,3.221,0,0,0,2.38-.978A3.264,3.264,0,0,0,39.44-4.25a3.264,3.264,0,0,0-.969-2.389,3.221,3.221,0,0,0-2.38-.977,3.221,3.221,0,0,0-2.38.977,3.264,3.264,0,0,0-.969,2.389A3.292,3.292,0,0,0,33.711-1.853ZM46.869-8.7A3.856,3.856,0,0,1,49.92-7.369a4.641,4.641,0,0,1,1.165,3.153q0,.187-.034.527H43.588a3.048,3.048,0,0,0,1.1,2.048,3.5,3.5,0,0,0,2.287.757,3.344,3.344,0,0,0,1.674-.4,2.7,2.7,0,0,0,1.063-1.046l.986.578a4.037,4.037,0,0,1-1.53,1.428A4.551,4.551,0,0,1,46.954.2,4.416,4.416,0,0,1,43.69-1.054a4.33,4.33,0,0,1-1.258-3.2,4.377,4.377,0,0,1,1.241-3.179A4.264,4.264,0,0,1,46.869-8.7Zm0,1.088a3.224,3.224,0,0,0-2.219.791,3.215,3.215,0,0,0-1.062,2.048h6.341a3.169,3.169,0,0,0-1.037-2.091A3,3,0,0,0,46.869-7.616Zm6.545,1.343a1.052,1.052,0,0,0,.51.918,4.017,4.017,0,0,0,1.241.527q.731.187,1.462.417a2.87,2.87,0,0,1,1.241.765,1.95,1.95,0,0,1,.51,1.4A2.151,2.151,0,0,1,57.52-.476,3.465,3.465,0,0,1,55.3.2,3.812,3.812,0,0,1,53.218-.34a2.91,2.91,0,0,1-1.2-1.411l.952-.561a1.991,1.991,0,0,0,.859,1.046,2.746,2.746,0,0,0,1.47.382,2.7,2.7,0,0,0,1.394-.332,1.111,1.111,0,0,0,.561-1.028,1.052,1.052,0,0,0-.51-.918,4.017,4.017,0,0,0-1.241-.527q-.731-.187-1.462-.417A2.87,2.87,0,0,1,52.8-4.871a1.95,1.95,0,0,1-.51-1.4,2.181,2.181,0,0,1,.825-1.734A3.114,3.114,0,0,1,55.2-8.7a3.477,3.477,0,0,1,1.819.468A2.867,2.867,0,0,1,58.174-6.97l-.935.544a1.978,1.978,0,0,0-2.04-1.19,2.228,2.228,0,0,0-1.258.349A1.123,1.123,0,0,0,53.414-6.273Z" transform="translate(-0.207 57.721)" fill="#acb1c0"/>
            <g id="Group_2515" data-name="Group 2515" transform="translate(0 24.619)">
              <g id="Group_61" data-name="Group 61" clip-path="url(#clip-path)">
                <g id="Group_60" data-name="Group 60" transform="translate(-3.555 -3.555)" clip-path="url(#clip-path-2)">
                  <path id="Path_47" data-name="Path 47" d="M-1.667-21.667H23.22V3.22H-1.667Z" transform="translate(-0.111 19.889)" fill="#fa0"/>
                </g>
              </g>
              <g id="Group_63" data-name="Group 63" transform="translate(19.118)" clip-path="url(#clip-path-3)">
                <g id="Group_62" data-name="Group 62" transform="translate(-3.555 -3.555)" clip-path="url(#clip-path-4)">
                  <path id="Path_50" data-name="Path 50" d="M18.333-21.667H43.22V3.22H18.333Z" transform="translate(-20.111 19.889)" fill="#fa0"/>
                </g>
              </g>
              <g id="Group_65" data-name="Group 65" transform="translate(39.432)" clip-path="url(#clip-path-5)">
                <g id="Group_64" data-name="Group 64" transform="translate(-3.555 -3.555)" clip-path="url(#clip-path-6)">
                  <path id="Path_53" data-name="Path 53" d="M38.333-21.667H63.22V3.22H38.333Z" transform="translate(-40.111 19.889)" fill="#fa0"/>
                </g>
              </g>
              <g id="Group_67" data-name="Group 67" transform="translate(58.55)" clip-path="url(#clip-path-7)">
                <g id="Group_66" data-name="Group 66" transform="translate(-3.555 -3.555)" clip-path="url(#clip-path-8)">
                  <path id="Path_56" data-name="Path 56" d="M58.333-21.667H83.22V3.22H58.333Z" transform="translate(-60.111 19.889)" fill="#fa0"/>
                </g>
              </g>
              <g id="Group_69" data-name="Group 69" transform="translate(77.668)" clip-path="url(#clip-path-9)">
                <g id="Group_68" data-name="Group 68" transform="translate(-3.555 -3.555)" clip-path="url(#clip-path-10)">
                  <path id="Path_59" data-name="Path 59" d="M78.333-21.667H103.22V3.22H78.333Z" transform="translate(-80.111 19.889)" fill="#fa0"/>
                </g>
              </g>
            </g>
          </g>
        </g>
        <path id="Path_4183" data-name="Path 4183" d="M4.632-16.8.24-15.216l.936,3.288,2.976-.816V0h3.84V-16.8ZM14.4-8.5c0-.432.384-.672,1.008-.672a1.743,1.743,0,0,1,1.608,1.056l3.072-1.656a5.25,5.25,0,0,0-4.68-2.568c-2.5,0-4.7,1.32-4.7,3.936,0,4.152,5.9,3.456,5.9,4.776,0,.48-.432.744-1.3.744A1.971,1.971,0,0,1,13.272-4.3L10.152-2.52c.936,1.944,2.76,2.856,5.16,2.856C17.9.336,20.3-.84,20.3-3.6,20.3-8.04,14.4-7.128,14.4-8.5Zm14.376-.048V-12H26.3v-3.36l-3.6,1.08V-12h-1.92v3.456H22.7V-4.3C22.7-.936,24.072.48,28.776,0V-3.264c-1.584.1-2.472,0-2.472-1.032V-8.544ZM43.9-16.8h-6.72V0H43.9a8.135,8.135,0,0,0,8.16-8.4A8.135,8.135,0,0,0,43.9-16.8Zm0,13.1h-2.88V-13.1H43.9c2.64,0,4.464,1.824,4.464,4.7S46.536-3.7,43.9-3.7ZM57.7-9.864V-12H54.1V0h3.6V-5.424C57.7-7.8,59.808-8.4,61.3-8.16v-4.08A3.6,3.6,0,0,0,57.7-9.864Zm7.08-3.192a2.182,2.182,0,0,0,2.16-2.16,2.182,2.182,0,0,0-2.16-2.16,2.182,2.182,0,0,0-2.16,2.16A2.182,2.182,0,0,0,64.776-13.056ZM62.976,0h3.6V-12h-3.6Zm13.9-12-2.5,7.608L71.88-12H67.9l4.44,12h4.08l4.44-12Zm8.04,7.44h8.52A6.976,6.976,0,0,0,93.576-6a6.059,6.059,0,0,0-6.1-6.336A6.153,6.153,0,0,0,81.1-6C81.1-2.424,83.64.336,87.744.336a6.089,6.089,0,0,0,5.232-2.472L90.1-3.792a3.133,3.133,0,0,1-2.3.912A2.731,2.731,0,0,1,84.912-4.56ZM84.84-7.248a2.477,2.477,0,0,1,2.616-1.9A2.471,2.471,0,0,1,90-7.248ZM99.216-9.864V-12h-3.6V0h3.6V-5.424c0-2.376,2.112-2.976,3.6-2.736v-4.08A3.6,3.6,0,0,0,99.216-9.864Z" transform="translate(157.52 139.348)" opacity="0.5"/>
        <g id="Group_2761" data-name="Group 2761" transform="translate(321.427 74.636)">
          <g id="Group_2719" data-name="Group 2719" transform="translate(0)">
            <g id="Group_2721" data-name="Group 2721" transform="translate(0)">
              <g id="Group_2620" data-name="Group 2620">
                <g transform="matrix(1, 0, 0, 1, -498.91, -109.29)" filter="url(#Rectangle_2198)">
                  <rect id="Rectangle_2198-3" data-name="Rectangle 2198" width="73.828" height="75.572" rx="10" transform="translate(498.91 109.29)" fill="#4db748"/>
                </g>
              </g>
            </g>
            <path id="Path_4184" data-name="Path 4184" d="M-10.352-22.4l-5.856,2.112L-14.96-15.9l3.968-1.088V0h5.12V-22.4ZM6.448.448c5.792,0,9.12-4.736,9.12-11.648S12.24-22.848,6.448-22.848s-9.12,4.736-9.12,11.648S.656.448,6.448.448Zm0-4.992c-2.688,0-4-2.336-4-6.656s1.312-6.656,4-6.656,4,2.336,4,6.656S9.136-4.544,6.448-4.544ZM-8.406,4.748a2.964,2.964,0,0,0-2.61,1.188,2.678,2.678,0,0,0-2.358-1.188,2.762,2.762,0,0,0-2.412,1.08V5h-2.7v9h2.7V8.924c0-1.062.5-1.692,1.4-1.692.864,0,1.3.576,1.3,1.476V14h2.7V8.924c0-1.062.5-1.692,1.4-1.692.864,0,1.3.576,1.3,1.476V14h2.7V8.474C-4.986,6.224-6.336,4.748-8.406,4.748Zm6.624-.54a1.637,1.637,0,0,0,1.62-1.62A1.637,1.637,0,0,0-1.782.968,1.637,1.637,0,0,0-3.4,2.588,1.637,1.637,0,0,0-1.782,4.208ZM-3.132,14h2.7V5h-2.7ZM6.822,4.748a3.078,3.078,0,0,0-2.574,1.1V5h-2.7v9h2.7V9.086c0-1.278.684-1.854,1.674-1.854A1.484,1.484,0,0,1,7.488,8.87V14h2.7V8.474C10.188,6.044,8.64,4.748,6.822,4.748ZM14.6,7.628c0-.324.288-.5.756-.5a1.307,1.307,0,0,1,1.206.792l2.3-1.242a3.938,3.938,0,0,0-3.51-1.926c-1.872,0-3.528.99-3.528,2.952,0,3.114,4.428,2.592,4.428,3.582,0,.36-.324.558-.972.558a1.478,1.478,0,0,1-1.53-1.062l-2.34,1.332a3.942,3.942,0,0,0,3.87,2.142c1.944,0,3.744-.882,3.744-2.952C19.026,7.97,14.6,8.654,14.6,7.628Z" transform="translate(37.384 43.59)" fill="#fff"/>
          </g>
        </g>
        <g id="Group_4265" data-name="Group 4265" transform="translate(17.923 27.483)">
          <rect id="Rectangle_2276" data-name="Rectangle 2276" width="118" height="117" rx="58.5" transform="translate(-0.404 -0.135)" fill="#ffa5dc"/>
          <g id="Group_3105" data-name="Group 3105" transform="translate(29.562 22.261)">
            <path id="path914" d="M452.681-624.342s9.4-1.823,16.866-.079l5.69-9.15,6.722,4.906-1.822,6.828s1.48,9.32,2.734,19.128.569,11.632,1.709,14.138-2.165,15.238-2.165,15.238l-36.911.711s.228-22.443.57-29.392a95.783,95.783,0,0,0-.57-13.9l-6.151-6.266,5.582-8.089,7.747,5.925" transform="translate(-430.634 633.57)" fill="#959595"/>
            <path id="path916" d="M498.688-585.025a3.636,3.636,0,0,0-3.637-3.636,3.635,3.635,0,0,0-3.636,3.636,3.636,3.636,0,0,0,3.636,3.636,3.636,3.636,0,0,0,3.637-3.636" transform="translate(-452.2 614.967)" fill="#100f0d"/>
            <path id="path918" d="M465.564-585.025a3.635,3.635,0,0,0-3.637-3.636,3.635,3.635,0,0,0-3.636,3.636,3.636,3.636,0,0,0,3.636,3.636,3.636,3.636,0,0,0,3.637-3.636" transform="translate(-438.479 614.967)" fill="#100f0d"/>
            <path id="path920" d="M488.662-592.051s6.952-2.267,12.459-1.729c0,0-.048-.886-1.243-1.232a5.314,5.314,0,0,1,2.723.325c1,.562,1.014-.968-1.941-1.861a5.062,5.062,0,0,1,3.151-.435c1.51.4-.879-2.48-3.6-1.719a10.35,10.35,0,0,1,3.316-1.456c1.211-.091-.27-1.951-3.736-1.011,0,0,2.541-3.182-3.487-1.428s-9.552,5.045-10.1,6.053a6.183,6.183,0,0,1,1.952-.273s-2.136,1.689-1.688,2.164.87-.351,2.081-.442c0,0-1.4.908-1.5,1.865l2.027-.282s-1.447,1.767-.41,1.461" transform="translate(-450.041 620.958)" fill="#e9e8e7"/>
            <path id="path922" d="M462.718-595.817a16.666,16.666,0,0,0-6.943-4.346c-4.807-1.736-8.278-.646-8.58-.012s1.823,1.01,3.467,2.332c0,0-3.04-.447-4.4.84s3.486.828,4.084,1.587c0,0-1.884.138-1.854.841s1.7.288,3.174.415a12,12,0,0,0-1.147.743s7.163.135,12.239,1.984c0,0,1.347-.072-.608-1.575a2.274,2.274,0,0,1,1.267.259s.429-.608-1.205-1.7a4.176,4.176,0,0,1,1.193.127c.489.158.123-.7-.681-1.5" transform="translate(-433.394 620.12)" fill="#e9e8e7"/>
            <path id="path924" d="M438.768-627.93s-15.38,5.354-14.24,9.57,4.9,9.115,4.67,11.051,8.544-4.214,9.57-10.31a28.065,28.065,0,0,0,0-10.31" transform="translate(-424.468 631.234)" fill="#464648"/>
            <path id="path926" d="M500.615-633.57a69.141,69.141,0,0,0,7.063,1.937c2.962.57,8.945,2.063,5.983,5.139s-3.3,4.785-3.417,6.037-3.933.06-6.212-3.964a38.566,38.566,0,0,1-3.418-9.149" transform="translate(-456.011 633.57)" fill="#464648"/>
            <path id="path928" d="M467.515-565.681a7.5,7.5,0,0,1,4.676-1.025,7.035,7.035,0,0,0-1.486,2.278,13.462,13.462,0,0,1,5.127.54s-2.394.372-2.621.827c0,0,10.367-.265,12.19,5.279,0,0,1.161.874,2.061,4.8s-1.264,8.259-1.264,8.259-1.709-4.443-2.62-4.786c0,0,1.025,10.747-5.7,12.268,0,0,1.253-5.659,0-6.684,0,0-.235,4.063-1.6,5.62l-1.136-1.405s-3.546,6.228-6.273,6.418-3.98-1.141-5.575-3.95c0,0,.228,2.315-1.823.719s-3.418-1.708-3.418-4.671c0,0-2.091,1.86-1.558,3.951,0,0-1.89-.646-2.16-3.951,0,0-1.78,3.456,0,5.659a8.391,8.391,0,0,1-5.282-7.766s-1.481.4-1.708,1.538c0,0-2.165-3.335.683-8.274a3.671,3.671,0,0,0-2.279,1.324s-1.025-12.417,11.393-14.013a1.057,1.057,0,0,0-.647-1.168s1.045-.83,4.093,0a5.962,5.962,0,0,0-1.509-2.134,11.667,11.667,0,0,1,5.644.911s1.015-3.089,1.979-2.368a2.457,2.457,0,0,1,.807,1.8" transform="translate(-433.277 606.238)" fill="#e9e8e7"/>
            <path id="path930" d="M480.325-546.777a.365.365,0,0,1-.365-.366v-3.964a.365.365,0,0,1,.365-.365.365.365,0,0,1,.365.365v3.964a.365.365,0,0,1-.365.366" transform="translate(-447.455 599.561)" fill="#100f0d"/>
            <path id="path932" d="M478.711-542.248a8.955,8.955,0,0,1-2.917-.573,8.313,8.313,0,0,0-2.487-.525,6.754,6.754,0,0,0-2.746.492,11.731,11.731,0,0,1-1.585.459,11.271,11.271,0,0,1-5.458-.482.365.365,0,0,1-.178-.484.365.365,0,0,1,.484-.179,10.536,10.536,0,0,0,5.007.43,10.951,10.951,0,0,0,1.492-.434,7.541,7.541,0,0,1,3-.531,9.022,9.022,0,0,1,2.695.56,8.241,8.241,0,0,0,2.761.536,9.934,9.934,0,0,0,4.463-1.706.365.365,0,0,1,.508.091.365.365,0,0,1-.09.508,10.525,10.525,0,0,1-4.872,1.838h-.077" transform="translate(-440.556 596.777)" fill="#100f0d"/>
            <path id="path934" d="M458.325-534.716H458.3a.365.365,0,0,1-.335-.393,24.47,24.47,0,0,1,2.2-8.643.364.364,0,0,1,.49-.156.364.364,0,0,1,.157.491,24.265,24.265,0,0,0-2.121,8.367.364.364,0,0,1-.363.335" transform="translate(-438.342 596.446)" fill="#959595"/>
            <path id="path936" d="M500.2-534.836h0a.365.365,0,0,1-.362-.366,21.143,21.143,0,0,0-1.564-7.523.365.365,0,0,1,.187-.481.367.367,0,0,1,.481.189,21.5,21.5,0,0,1,1.625,7.818.364.364,0,0,1-.365.363" transform="translate(-455.028 596.15)" fill="#959595"/>
            <path id="path938" d="M505.853-544.219a.364.364,0,0,1-.3-.161,4.938,4.938,0,0,0-3.244-2.263.364.364,0,0,1-.321-.4.364.364,0,0,1,.4-.323,5.659,5.659,0,0,1,3.771,2.58.367.367,0,0,1-.1.508l-.2.062" transform="translate(-456.578 597.863)" fill="#959595"/>
            <path id="path940" d="M473.437-526.644a.364.364,0,0,1-.321-.191c-.835-1.549-.7-5.981-.7-6.168a.365.365,0,0,1,.376-.354.366.366,0,0,1,.353.377c-.039,1.225-.005,4.656.611,5.8a.365.365,0,0,1-.148.494l-.173.044" transform="translate(-444.327 592.058)" fill="#959595"/>
            <path id="path942" d="M488.317-526.5l-.165-.04a.364.364,0,0,1-.16-.49,18,18,0,0,0,1.329-4.032.365.365,0,0,1,.426-.29.365.365,0,0,1,.291.427,18.385,18.385,0,0,1-1.395,4.224.364.364,0,0,1-.326.2" transform="translate(-450.766 591.229)" fill="#959595"/>
            <path id="path944" d="M480.4-524.762a.364.364,0,0,1-.288-.14c-1.325-1.7-1.322-4.748-1.321-4.877a.361.361,0,0,1,.367-.362.363.363,0,0,1,.362.366c0,.029,0,2.925,1.168,4.422a.366.366,0,0,1-.063.512.363.363,0,0,1-.224.077" transform="translate(-446.972 590.725)" fill="#959595"/>
            <path id="path946" d="M452.707-543.93a.361.361,0,0,1-.219-.073.365.365,0,0,1-.073-.511c.849-1.13,4.19-2.045,4.569-2.146a.364.364,0,0,1,.446.258.365.365,0,0,1-.258.447c-.96.255-3.581,1.092-4.172,1.879a.366.366,0,0,1-.292.146" transform="translate(-436.015 597.574)" fill="#959595"/>
            <path id="path948" d="M471.574-573.1l-.081-.009a.365.365,0,0,1-.275-.436l1.936-8.461a.365.365,0,0,1,.437-.275.365.365,0,0,1,.274.437l-1.936,8.461a.366.366,0,0,1-.355.284" transform="translate(-443.83 612.33)" fill="#464648"/>
            <path id="path950" d="M488.668-576.482a.363.363,0,0,1-.355-.282l-1.148-4.956a.365.365,0,0,1,.273-.437.366.366,0,0,1,.438.273l1.147,4.956a.366.366,0,0,1-.273.438l-.083.009" transform="translate(-450.436 612.277)" fill="#464648"/>
            <path id="path952" d="M499.962-615.459a.361.361,0,0,1-.212-.069c-2.1-1.506-7.391-2.312-7.444-2.32a.365.365,0,0,1-.308-.415.368.368,0,0,1,.416-.307c.224.034,5.519.84,7.761,2.448a.364.364,0,0,1,.084.508.365.365,0,0,1-.3.153" transform="translate(-452.44 627.358)" fill="#464648"/>
            <path id="path954" d="M451.389-611.3l-.127-.023a.366.366,0,0,1-.215-.47c1.092-2.922,5.056-4.642,5.223-4.714a.366.366,0,0,1,.479.192.366.366,0,0,1-.192.479c-.039.016-3.846,1.671-4.827,4.3a.365.365,0,0,1-.342.237" transform="translate(-435.468 626.515)" fill="#464648"/>
            <path id="path956" d="M476.045-562.448c2.766-.326,6.317.228,6.089,2.277a5.324,5.324,0,0,1-4.671,4.481c-2.392.076-7.778-6.008-1.418-6.759" transform="translate(-444.593 604.145)" fill="#100f0d"/>
          </g>
        </g>
      </g>
    </g>
    <g id="Group_4266" data-name="Group 4266" transform="translate(16959.48 8734.52)">
      <g transform="matrix(1, 0, 0, 1, -177.48, -381.17)" filter="url(#Rectangle_2209)">
        <rect id="Rectangle_2209-2" data-name="Rectangle 2209" width="382" height="134" rx="15" transform="translate(177 381)" fill="#fff"/>
      </g>
      <g id="Group_2725" data-name="Group 2725" transform="translate(74.083 7.576)">
        <path id="Path_4190" data-name="Path 4190" d="M9.54-12.6H.18v2.772H3.42V0H6.3V-9.828H9.54Zm6.444,3.348a3.078,3.078,0,0,0-2.574,1.1V-12.6h-2.7V0h2.7V-4.914c0-1.278.684-1.854,1.674-1.854A1.484,1.484,0,0,1,16.65-5.13V0h2.7V-5.526C19.35-7.956,17.8-9.252,15.984-9.252Zm9.54,9.5A4.717,4.717,0,0,0,30.294-4.5a4.717,4.717,0,0,0-4.77-4.752A4.717,4.717,0,0,0,20.754-4.5,4.717,4.717,0,0,0,25.524.252Zm0-2.628A2.019,2.019,0,0,1,23.454-4.5a2.019,2.019,0,0,1,2.07-2.124A2.019,2.019,0,0,1,27.594-4.5,2.019,2.019,0,0,1,25.524-2.376ZM41.9-9.252a2.964,2.964,0,0,0-2.61,1.188,2.678,2.678,0,0,0-2.358-1.188,2.762,2.762,0,0,0-2.412,1.08V-9h-2.7V0h2.7V-5.076c0-1.062.5-1.692,1.4-1.692.864,0,1.3.576,1.3,1.476V0h2.7V-5.076c0-1.062.5-1.692,1.4-1.692.864,0,1.3.576,1.3,1.476V0h2.7V-5.526C45.324-7.776,43.974-9.252,41.9-9.252ZM53.712-9v.846a3.381,3.381,0,0,0-2.682-1.1,4.519,4.519,0,0,0-4.3,4.752A4.519,4.519,0,0,0,51.03.252a3.381,3.381,0,0,0,2.682-1.1V0h2.7V-9ZM51.57-2.3a2.055,2.055,0,0,1-2.142-2.2A2.055,2.055,0,0,1,51.57-6.7a2.055,2.055,0,0,1,2.142,2.2A2.055,2.055,0,0,1,51.57-2.3Zm9.288-4.068c0-.324.288-.5.756-.5a1.307,1.307,0,0,1,1.206.792l2.3-1.242a3.938,3.938,0,0,0-3.51-1.926c-1.872,0-3.528.99-3.528,2.952,0,3.114,4.428,2.592,4.428,3.582,0,.36-.324.558-.972.558a1.478,1.478,0,0,1-1.53-1.062L57.672-1.89A3.942,3.942,0,0,0,61.542.252c1.944,0,3.744-.882,3.744-2.952C65.286-6.03,60.858-5.346,60.858-6.372ZM83.79-7.02H77.472V-4.5h3.366a3.131,3.131,0,0,1-3.222,1.944,3.634,3.634,0,0,1-3.96-3.708,3.622,3.622,0,0,1,3.708-3.78,3.6,3.6,0,0,1,3.078,1.476l2.448-1.4a6.445,6.445,0,0,0-5.508-2.88,6.534,6.534,0,0,0-6.606,6.57A6.542,6.542,0,0,0,77.58.252,5.889,5.889,0,0,0,83.79-5.94ZM88.02-7.4V-9h-2.7V0h2.7V-4.068a2.128,2.128,0,0,1,2.7-2.052V-9.18A2.7,2.7,0,0,0,88.02-7.4Zm5.31-2.394a1.637,1.637,0,0,0,1.62-1.62,1.637,1.637,0,0,0-1.62-1.62,1.637,1.637,0,0,0-1.62,1.62A1.637,1.637,0,0,0,93.33-9.792ZM91.98,0h2.7V-9h-2.7Zm18-9h-5v-.18c0-1.044.666-1.26,1.674-1.26a20.7,20.7,0,0,1,2.25.144V-12.78a10.91,10.91,0,0,0-2.25-.252c-2.988,0-4.374,1.332-4.374,3.852V-9h-2.34c0-1.044.666-1.35,1.674-1.26v-2.592c-2.988-.18-4.374,1.332-4.374,3.852H96.03v2.592h1.206V0h2.7V-6.408h2.34V0h2.7V-6.408h2.3V0h2.7Zm7.254-.252a3.078,3.078,0,0,0-2.574,1.1V-9h-2.7V0h2.7V-4.914c0-1.278.684-1.854,1.674-1.854A1.484,1.484,0,0,1,117.9-5.13V0h2.7V-5.526C120.6-7.956,119.052-9.252,117.234-9.252Z" transform="translate(0 17)" fill="#4db748"/>
        <path id="Path_4191" data-name="Path 4191" d="M.22,0H4.98V-1.54H2.63L3.79-2.71a3.155,3.155,0,0,0,1.09-2.2A2.227,2.227,0,0,0,2.51-7.14,2.5,2.5,0,0,0,.15-5.61l1.35.79a1.126,1.126,0,0,1,1.03-.76.7.7,0,0,1,.75.74A1.983,1.983,0,0,1,2.57-3.6L.22-1.16ZM8.38.14c1.81,0,2.85-1.48,2.85-3.64S10.19-7.14,8.38-7.14,5.53-5.66,5.53-3.5,6.57.14,8.38.14Zm0-1.56c-.84,0-1.25-.73-1.25-2.08s.41-2.08,1.25-2.08,1.25.73,1.25,2.08S9.22-1.42,8.38-1.42ZM13.26-7l-1.83.66.39,1.37,1.24-.34V0h1.6V-7Zm2.2,0v1.54h2.82L16.08,0h1.7l2.28-5.66V-7Zm11.7,0v2.68h-2.2V-7h-1.6V0h1.6V-2.78h2.2V0h1.6V-7Zm5.9,2-.94,3.06L31.01-5H29.36L31.35-.23A1.114,1.114,0,0,1,30.1.6V2c1.4.07,2.29-.56,2.85-2.15L34.66-5Zm5.38,0v2.73c0,.71-.38,1.03-.93,1.03a.825.825,0,0,1-.87-.91V-5h-1.5v3.07A1.87,1.87,0,0,0,37.01.14a1.71,1.71,0,0,0,1.43-.61V0h1.5V-5Zm5.53-.14a1.71,1.71,0,0,0-1.43.61V-5h-1.5V0h1.5V-2.73c0-.71.38-1.03.93-1.03a.825.825,0,0,1,.87.91V0h1.5V-3.07A1.87,1.87,0,0,0,43.97-5.14ZM50.5-7v2.47a1.878,1.878,0,0,0-1.49-.61A2.511,2.511,0,0,0,46.62-2.5,2.511,2.511,0,0,0,49.01.14,1.878,1.878,0,0,0,50.5-.47V0H52V-7ZM49.31-1.28A1.142,1.142,0,0,1,48.12-2.5a1.142,1.142,0,0,1,1.19-1.22A1.142,1.142,0,0,1,50.5-2.5,1.142,1.142,0,0,1,49.31-1.28ZM56.73-5v.47a1.878,1.878,0,0,0-1.49-.61A2.511,2.511,0,0,0,52.85-2.5,2.511,2.511,0,0,0,55.24.14a1.878,1.878,0,0,0,1.49-.61V0h1.5V-5ZM55.54-1.28A1.142,1.142,0,0,1,54.35-2.5a1.142,1.142,0,0,1,1.19-1.22A1.142,1.142,0,0,1,56.73-2.5,1.142,1.142,0,0,1,55.54-1.28Zm4.54-4.16a.909.909,0,0,0,.9-.9.909.909,0,0,0-.9-.9.909.909,0,0,0-.9.9A.909.909,0,0,0,60.08-5.44ZM59.33,0h1.5V-5h-1.5Zm7.6.14c1.52,0,2.6-.8,2.6-2.15,0-1.48-1.19-1.85-2.25-2.17-1.09-.33-1.26-.55-1.26-.87,0-.28.25-.53.75-.53a1.227,1.227,0,0,1,1.21.81l1.35-.79a2.715,2.715,0,0,0-2.56-1.58,2.19,2.19,0,0,0-2.35,2.13c0,1.34,1.02,1.84,2.06,2.13s1.45.46,1.45.89c0,.27-.19.57-.95.57a1.466,1.466,0,0,1-1.47-.97l-1.38.8A2.757,2.757,0,0,0,66.93.14Zm5.9,0A2.621,2.621,0,0,0,75.48-2.5a2.621,2.621,0,0,0-2.65-2.64A2.621,2.621,0,0,0,70.18-2.5,2.621,2.621,0,0,0,72.83.14Zm0-1.46A1.121,1.121,0,0,1,71.68-2.5a1.121,1.121,0,0,1,1.15-1.18A1.121,1.121,0,0,1,73.98-2.5,1.121,1.121,0,0,1,72.83-1.32Zm6.43-3.82a1.71,1.71,0,0,0-1.43.61V-5h-1.5V0h1.5V-2.73c0-.71.38-1.03.93-1.03a.825.825,0,0,1,.87.91V0h1.5V-3.07A1.87,1.87,0,0,0,79.26-5.14ZM85.79-5v.47a1.878,1.878,0,0,0-1.49-.61A2.511,2.511,0,0,0,81.91-2.5,2.511,2.511,0,0,0,84.3.14a1.878,1.878,0,0,0,1.49-.61V0h1.5V-5ZM84.6-1.28A1.142,1.142,0,0,1,83.41-2.5,1.142,1.142,0,0,1,84.6-3.72,1.142,1.142,0,0,1,85.79-2.5,1.142,1.142,0,0,1,84.6-1.28Zm6.72-2.28V-5H90.29V-6.4l-1.5.45V-5h-.8v1.44h.8v1.77c0,1.4.57,1.99,2.53,1.79V-1.36c-.66.04-1.03,0-1.03-.43V-3.56ZM95.7-5v.47a1.878,1.878,0,0,0-1.49-.61A2.511,2.511,0,0,0,91.82-2.5,2.511,2.511,0,0,0,94.21.14,1.878,1.878,0,0,0,95.7-.47V0h1.5V-5ZM94.51-1.28A1.142,1.142,0,0,1,93.32-2.5a1.142,1.142,0,0,1,1.19-1.22A1.142,1.142,0,0,1,95.7-2.5,1.142,1.142,0,0,1,94.51-1.28ZM5.3,6H.1V7.54H1.9V13H3.5V7.54H5.3Zm6.4,0H9.88L8.55,8.7,7.22,6H5.4l2.35,4.31V13h1.6V10.31Zm7.03,3.1H15.22v1.4h1.87a1.739,1.739,0,0,1-1.79,1.08,2.019,2.019,0,0,1-2.2-2.06,2.1,2.1,0,0,1,3.77-1.28l1.36-.78a3.581,3.581,0,0,0-3.06-1.6,3.641,3.641,0,1,0,.11,7.28A3.272,3.272,0,0,0,18.73,9.7Zm3.1,4.04c1.52,0,2.6-.8,2.6-2.15,0-1.48-1.19-1.85-2.25-2.17-1.09-.33-1.26-.55-1.26-.87,0-.28.25-.53.75-.53a1.227,1.227,0,0,1,1.21.81l1.35-.79a2.715,2.715,0,0,0-2.56-1.58,2.19,2.19,0,0,0-2.35,2.13c0,1.34,1.02,1.84,2.06,2.13s1.45.46,1.45.89c0,.27-.19.57-.95.57a1.466,1.466,0,0,1-1.47-.97l-1.38.8A2.757,2.757,0,0,0,21.83,13.14Zm8.1-4.81a2.42,2.42,0,0,0-2.6-2.47,2.425,2.425,0,0,0-2.6,2.47,2.4,2.4,0,0,0,2.33,2.46L25.54,13h1.84l2.14-3.25A2.55,2.55,0,0,0,29.93,8.33Zm-3.6,0a.953.953,0,0,1,1-.97.97.97,0,1,1,0,1.94A.953.953,0,0,1,26.33,8.33Zm4.4,2.4h3.8V9.29h-3.8Zm9.8-2.4a2.6,2.6,0,0,0-5.2,0,2.4,2.4,0,0,0,2.33,2.46L36.14,13h1.84l2.14-3.25A2.55,2.55,0,0,0,40.53,8.33Zm-3.6,0a.953.953,0,0,1,1-.97.97.97,0,1,1,0,1.94A.953.953,0,0,1,36.93,8.33Zm6.95,4.81c1.81,0,2.85-1.48,2.85-3.64s-1.04-3.64-2.85-3.64S41.03,7.34,41.03,9.5,42.07,13.14,43.88,13.14Zm0-1.56c-.84,0-1.25-.73-1.25-2.08s.41-2.08,1.25-2.08,1.25.73,1.25,2.08S44.72,11.58,43.88,11.58Z" transform="translate(0.436 34.253)" fill="#4db748"/>
      </g>
      <g id="Group_2727" data-name="Group 2727" transform="translate(15.534 67.319)">
        <g id="Group_2554" data-name="Group 2554" transform="translate(36.325)">
          <path id="pin-2" d="M15.566,12.447l-3.927,3.713a.652.652,0,0,1-.9,0L6.816,12.447a6.067,6.067,0,0,1,0-8.658,6.244,6.244,0,0,1,8.75,0,6.067,6.067,0,0,1,0,8.658Zm-.916-7.731a4.94,4.94,0,0,0-6.919,0,4.761,4.761,0,0,0-.01,6.793l3.469,3.281,3.464-3.275a4.764,4.764,0,0,0,0-6.8ZM11.191,10.8A2.607,2.607,0,1,1,13.8,8.191,2.607,2.607,0,0,1,11.191,10.8Zm0-1.3a1.3,1.3,0,1,0-1.3-1.3A1.3,1.3,0,0,0,11.191,9.495Z" transform="translate(-5 -2)"/>
          <path id="ST3751_-_Toyota_Vios-2" data-name="ST3751 - Toyota Vios" d="M.2-7.7H5.005v.913L2.2,0H1.133L3.916-6.732H.2ZM7.469-5.038a2.631,2.631,0,0,1,1.9.72,2.473,2.473,0,0,1,.748,1.865,2.491,2.491,0,0,1-.748,1.87,2.62,2.62,0,0,1-1.9.726A2.615,2.615,0,0,1,5.561-.583a2.5,2.5,0,0,1-.742-1.87,2.586,2.586,0,0,1,.462-1.54L7.755-7.7H8.921L7.106-5.016Q7.348-5.038,7.469-5.038ZM6.281-1.276a1.652,1.652,0,0,0,1.188.44,1.622,1.622,0,0,0,1.183-.446,1.563,1.563,0,0,0,.456-1.172,1.545,1.545,0,0,0-.456-1.166,1.633,1.633,0,0,0-1.183-.44,1.629,1.629,0,0,0-1.188.44A1.555,1.555,0,0,0,5.83-2.453,1.592,1.592,0,0,0,6.281-1.276ZM19.074,0l-.627-1.727H14.982L14.355,0H13.266l2.871-7.7h1.155L20.163,0Zm-3.74-2.684H18.1l-1.386-3.8ZM24.607-5.5h1.034L23.441,0H22.319l-2.2-5.5h1.034L22.88-1.023Zm2.3,3.19a1.813,1.813,0,0,0,.677,1.144A2.1,2.1,0,0,0,28.9-.759a1.721,1.721,0,0,0,1.584-.8L31.3-1.1A2.687,2.687,0,0,1,28.875.143a2.88,2.88,0,0,1-2.128-.82,2.81,2.81,0,0,1-.819-2.073,2.846,2.846,0,0,1,.8-2.068,2.773,2.773,0,0,1,2.079-.825,2.53,2.53,0,0,1,1.974.852,2.966,2.966,0,0,1,.764,2.052,2.891,2.891,0,0,1-.033.429Zm1.9-2.431a1.889,1.889,0,0,0-1.276.435,1.881,1.881,0,0,0-.627,1.16H30.58a1.833,1.833,0,0,0-.616-1.188A1.764,1.764,0,0,0,28.809-4.741ZM42.7-7.7V0H41.69V-6.017L39.171-1.826h-.132L36.52-6.006V0H35.5V-7.7h1.155L39.1-3.63,41.547-7.7Zm2.035,1.2a.628.628,0,0,1-.462-.187.615.615,0,0,1-.187-.451.633.633,0,0,1,.187-.457.619.619,0,0,1,.462-.193.606.606,0,0,1,.451.193.633.633,0,0,1,.187.457.615.615,0,0,1-.187.451A.615.615,0,0,1,44.737-6.5ZM44.253,0V-5.5h.957V0Zm2.42,0V-8.03h.957V0Zm7.073,0H52.558L50.05-2.607V0h-.957V-7.7h.957v4.631L52.426-5.5h1.232L51.029-2.838Zm4.609-5.5h1.023L57.134.341a3.147,3.147,0,0,1-.985,1.425,2.077,2.077,0,0,1-1.458.434V1.309Q55.7,1.386,56.177.187l.1-.209L53.878-5.5H54.9l1.87,4.312ZM64.691,0,62.48-7.7h1.078l1.76,6.336L67.188-7.7h1.034l1.87,6.336L71.852-7.7H72.93L70.719,0H69.531L67.705-6.149,65.879,0ZM77.825-5.5h.957V0h-.957V-.946A2.334,2.334,0,0,1,75.746.143,2.639,2.639,0,0,1,73.777-.7a2.84,2.84,0,0,1-.814-2.051A2.84,2.84,0,0,1,73.777-4.8a2.639,2.639,0,0,1,1.969-.841,2.334,2.334,0,0,1,2.079,1.089ZM75.867-.781a1.887,1.887,0,0,0,1.4-.567,1.915,1.915,0,0,0,.561-1.4,1.915,1.915,0,0,0-.561-1.4,1.887,1.887,0,0,0-1.4-.566,1.874,1.874,0,0,0-1.386.566,1.915,1.915,0,0,0-.561,1.4,1.915,1.915,0,0,0,.561,1.4A1.874,1.874,0,0,0,75.867-.781ZM84.073-5.5H85.1L82.852.341a3.147,3.147,0,0,1-.985,1.425A2.077,2.077,0,0,1,80.41,2.2V1.309Q81.422,1.386,81.9.187l.1-.209L79.6-5.5h1.023l1.87,4.312ZM91.234.143a3.263,3.263,0,0,1-1.842-.506,2.677,2.677,0,0,1-1.072-1.386l.88-.506a1.937,1.937,0,0,0,2.057,1.4,1.942,1.942,0,0,0,1.21-.324,1.038,1.038,0,0,0,.418-.863.922.922,0,0,0-.418-.825,6.008,6.008,0,0,0-1.4-.583q-.484-.154-.737-.247a6.251,6.251,0,0,1-.632-.286,1.993,1.993,0,0,1-.566-.4,1.991,1.991,0,0,1-.336-.533,1.8,1.8,0,0,1-.148-.748,1.964,1.964,0,0,1,.7-1.589,2.586,2.586,0,0,1,1.716-.589,2.75,2.75,0,0,1,1.589.462A2.876,2.876,0,0,1,93.676-6.16l-.858.495a1.762,1.762,0,0,0-1.749-1.188,1.572,1.572,0,0,0-1.012.308,1.014,1.014,0,0,0-.385.836.893.893,0,0,0,.363.77,4.752,4.752,0,0,0,1.254.55q.319.1.451.143t.412.154q.281.11.412.176t.357.187a1.454,1.454,0,0,1,.336.231q.11.11.258.269a1.059,1.059,0,0,1,.215.325,2.6,2.6,0,0,1,.116.38,2.026,2.026,0,0,1,.049.457,1.97,1.97,0,0,1-.737,1.611A2.955,2.955,0,0,1,91.234.143Zm6.6-4.719H96.371v2.981a.837.837,0,0,0,.16.577.656.656,0,0,0,.49.176q.33.006.814-.017V0A2.83,2.83,0,0,1,96-.2a1.519,1.519,0,0,1-.583-1.391V-4.576H94.325V-5.5h1.089V-6.754l.957-.286V-5.5h1.463Zm2.123,0A1.725,1.725,0,0,1,101.673-5.6v1a1.734,1.734,0,0,0-1.21.374,1.582,1.582,0,0,0-.506,1.309V0H99V-5.5h.957Zm3.025,2.266a1.813,1.813,0,0,0,.676,1.144,2.1,2.1,0,0,0,1.314.407,1.721,1.721,0,0,0,1.584-.8l.814.462a2.687,2.687,0,0,1-2.42,1.243,2.88,2.88,0,0,1-2.128-.82A2.81,2.81,0,0,1,102-2.75a2.846,2.846,0,0,1,.8-2.068,2.773,2.773,0,0,1,2.079-.825,2.53,2.53,0,0,1,1.974.852,2.966,2.966,0,0,1,.765,2.052,2.89,2.89,0,0,1-.033.429Zm1.9-2.431a1.889,1.889,0,0,0-1.276.435,1.881,1.881,0,0,0-.627,1.16h3.674a1.833,1.833,0,0,0-.616-1.188A1.764,1.764,0,0,0,104.885-4.741Zm4.5,2.431a1.813,1.813,0,0,0,.676,1.144,2.1,2.1,0,0,0,1.314.407,1.721,1.721,0,0,0,1.584-.8l.814.462a2.687,2.687,0,0,1-2.42,1.243,2.88,2.88,0,0,1-2.128-.82,2.81,2.81,0,0,1-.82-2.073,2.846,2.846,0,0,1,.8-2.068,2.773,2.773,0,0,1,2.079-.825,2.53,2.53,0,0,1,1.974.852,2.966,2.966,0,0,1,.765,2.052,2.89,2.89,0,0,1-.033.429Zm1.9-2.431a1.889,1.889,0,0,0-1.276.435,1.881,1.881,0,0,0-.627,1.16h3.674a1.833,1.833,0,0,0-.616-1.188A1.764,1.764,0,0,0,111.287-4.741Zm6.666.165H116.49v2.981a.837.837,0,0,0,.16.577.656.656,0,0,0,.49.176q.33.006.814-.017V0a2.83,2.83,0,0,1-1.837-.2,1.519,1.519,0,0,1-.583-1.391V-4.576h-1.089V-5.5h1.089V-6.754l.957-.286V-5.5h1.463Z" transform="translate(22.224 11.685)"/>
        </g>
        <line id="Line_37" data-name="Line 37" y2="21.508" transform="translate(42.419 14.531)" fill="none" stroke="#4db748" stroke-linecap="round" stroke-width="1" opacity="0.998"/>
        <g id="Group_2720" data-name="Group 2720" transform="translate(36.325 35.847)">
          <path id="pin-2-2" data-name="pin-2" d="M15.566,12.447l-3.927,3.713a.652.652,0,0,1-.9,0L6.816,12.447a6.067,6.067,0,0,1,0-8.658,6.244,6.244,0,0,1,8.75,0,6.067,6.067,0,0,1,0,8.658Zm-.916-7.731a4.94,4.94,0,0,0-6.919,0,4.761,4.761,0,0,0-.01,6.793l3.469,3.281,3.464-3.275a4.764,4.764,0,0,0,0-6.8ZM11.191,10.8A2.607,2.607,0,1,1,13.8,8.191,2.607,2.607,0,0,1,11.191,10.8Zm0-1.3a1.3,1.3,0,1,0-1.3-1.3A1.3,1.3,0,0,0,11.191,9.495Z" transform="translate(-5 -2)"/>
          <path id="ST3751_-_Toyota_Vios-3" data-name="ST3751 - Toyota Vios" d="M5.61-5.258a2.593,2.593,0,0,1-.473,1.551h.011L2.662,0H1.507L3.333-2.7q-.242.022-.374.022a2.626,2.626,0,0,1-1.908-.72A2.483,2.483,0,0,1,.308-5.258a2.483,2.483,0,0,1,.743-1.865,2.626,2.626,0,0,1,1.908-.72,2.626,2.626,0,0,1,1.908.72A2.483,2.483,0,0,1,5.61-5.258ZM1.771-6.424A1.555,1.555,0,0,0,1.32-5.258a1.563,1.563,0,0,0,.457,1.172,1.622,1.622,0,0,0,1.182.445,1.622,1.622,0,0,0,1.183-.445A1.563,1.563,0,0,0,4.6-5.258a1.555,1.555,0,0,0-.451-1.166,1.629,1.629,0,0,0-1.188-.44A1.652,1.652,0,0,0,1.771-6.424Zm8.635,2.442a2.254,2.254,0,0,1,.88.77,1.954,1.954,0,0,1,.319,1.1,2.017,2.017,0,0,1-.737,1.655,2.919,2.919,0,0,1-1.9.6,2.9,2.9,0,0,1-1.892-.6,2.017,2.017,0,0,1-.737-1.655,1.954,1.954,0,0,1,.319-1.1,2.254,2.254,0,0,1,.88-.77,1.88,1.88,0,0,1-.946-1.683,1.956,1.956,0,0,1,.7-1.611,2.579,2.579,0,0,1,1.677-.567,2.6,2.6,0,0,1,1.688.567,1.956,1.956,0,0,1,.7,1.611A1.88,1.88,0,0,1,10.406-3.982ZM8.965-6.864a1.523,1.523,0,0,0-.974.308,1.092,1.092,0,0,0-.39.913,1.108,1.108,0,0,0,.4.908,1.477,1.477,0,0,0,.968.325,1.477,1.477,0,0,0,.968-.325,1.108,1.108,0,0,0,.4-.908,1.1,1.1,0,0,0-.385-.913A1.518,1.518,0,0,0,8.965-6.864Zm0,6.028a1.874,1.874,0,0,0,1.182-.347,1.186,1.186,0,0,0,.446-1,1.174,1.174,0,0,0-.446-.984,1.874,1.874,0,0,0-1.182-.347,1.855,1.855,0,0,0-1.172.347,1.174,1.174,0,0,0-.445.984,1.186,1.186,0,0,0,.445,1A1.855,1.855,0,0,0,8.965-.836ZM17.259,0,15.048-7.7h1.078l1.76,6.336L19.756-7.7H20.79l1.87,6.336L24.42-7.7H25.5L23.287,0H22.1L20.273-6.149,18.447,0ZM30.393-5.5h.957V0h-.957V-.946A2.334,2.334,0,0,1,28.314.143,2.639,2.639,0,0,1,26.345-.7a2.84,2.84,0,0,1-.814-2.051A2.84,2.84,0,0,1,26.345-4.8a2.639,2.639,0,0,1,1.969-.841,2.334,2.334,0,0,1,2.079,1.089ZM28.435-.781a1.887,1.887,0,0,0,1.4-.567,1.915,1.915,0,0,0,.561-1.4,1.915,1.915,0,0,0-.561-1.4,1.887,1.887,0,0,0-1.4-.566,1.873,1.873,0,0,0-1.386.566,1.915,1.915,0,0,0-.561,1.4,1.915,1.915,0,0,0,.561,1.4A1.873,1.873,0,0,0,28.435-.781ZM36.641-5.5h1.023L35.42.341a3.147,3.147,0,0,1-.984,1.425,2.077,2.077,0,0,1-1.458.434V1.309q1.012.077,1.485-1.122l.1-.209L32.164-5.5h1.023l1.87,4.312ZM47.718-1.023A3.826,3.826,0,0,1,44.891.143a3.826,3.826,0,0,1-2.827-1.166A3.868,3.868,0,0,1,40.909-3.85a3.863,3.863,0,0,1,1.155-2.833,3.836,3.836,0,0,1,2.827-1.16,3.854,3.854,0,0,1,2.833,1.16,3.854,3.854,0,0,1,1.16,2.833A3.85,3.85,0,0,1,47.718-1.023Zm-4.95-.693a2.884,2.884,0,0,0,2.123.858,2.856,2.856,0,0,0,2.117-.863,2.912,2.912,0,0,0,.853-2.128,2.925,2.925,0,0,0-.853-2.14,2.856,2.856,0,0,0-2.117-.864,2.856,2.856,0,0,0-2.118.864,2.925,2.925,0,0,0-.853,2.14A2.94,2.94,0,0,0,42.768-1.716ZM53.053-5.643a2.639,2.639,0,0,1,1.969.841,2.84,2.84,0,0,1,.814,2.052A2.84,2.84,0,0,1,55.022-.7a2.639,2.639,0,0,1-1.969.842A2.334,2.334,0,0,1,50.974-.946V2.2h-.957V-5.5h.957v.946A2.334,2.334,0,0,1,53.053-5.643ZM52.932-.781a1.873,1.873,0,0,0,1.386-.567,1.915,1.915,0,0,0,.561-1.4,1.915,1.915,0,0,0-.561-1.4,1.874,1.874,0,0,0-1.386-.566,1.887,1.887,0,0,0-1.4.566,1.915,1.915,0,0,0-.561,1.4,1.915,1.915,0,0,0,.561,1.4A1.887,1.887,0,0,0,52.932-.781Zm7.084-4.862a2.639,2.639,0,0,1,1.969.841A2.84,2.84,0,0,1,62.8-2.75,2.84,2.84,0,0,1,61.985-.7a2.639,2.639,0,0,1-1.969.842A2.334,2.334,0,0,1,57.937-.946V2.2H56.98V-5.5h.957v.946A2.334,2.334,0,0,1,60.016-5.643ZM59.9-.781a1.873,1.873,0,0,0,1.386-.567,1.915,1.915,0,0,0,.561-1.4,1.915,1.915,0,0,0-.561-1.4A1.874,1.874,0,0,0,59.9-4.719a1.887,1.887,0,0,0-1.4.566,1.915,1.915,0,0,0-.561,1.4,1.915,1.915,0,0,0,.561,1.4A1.887,1.887,0,0,0,59.9-.781Zm8.69.088a2.819,2.819,0,0,1-2.057.836,2.8,2.8,0,0,1-2.051-.836,2.786,2.786,0,0,1-.842-2.057,2.786,2.786,0,0,1,.842-2.057,2.8,2.8,0,0,1,2.051-.836,2.819,2.819,0,0,1,2.057.836,2.777,2.777,0,0,1,.847,2.057A2.777,2.777,0,0,1,68.585-.693Zm-2.057-.1a1.883,1.883,0,0,0,1.386-.561,1.9,1.9,0,0,0,.561-1.4,1.9,1.9,0,0,0-.561-1.4,1.883,1.883,0,0,0-1.386-.561,1.87,1.87,0,0,0-1.375.561,1.9,1.9,0,0,0-.561,1.4,1.9,1.9,0,0,0,.561,1.4A1.87,1.87,0,0,0,66.528-.792Zm4.741-3.223a.579.579,0,0,0,.319.512,2.859,2.859,0,0,0,.77.308q.451.115.9.264a1.748,1.748,0,0,1,.77.506,1.328,1.328,0,0,1,.319.919,1.445,1.445,0,0,1-.577,1.2,2.333,2.333,0,0,1-1.479.451,2.573,2.573,0,0,1-1.375-.352,1.968,1.968,0,0,1-.814-.935l.825-.473a1.161,1.161,0,0,0,.5.627,1.585,1.585,0,0,0,.869.231,1.52,1.52,0,0,0,.781-.182.611.611,0,0,0,.308-.566.579.579,0,0,0-.319-.512,2.859,2.859,0,0,0-.77-.308q-.451-.115-.9-.27a1.814,1.814,0,0,1-.77-.506A1.292,1.292,0,0,1,70.3-4a1.464,1.464,0,0,1,.555-1.177,2.1,2.1,0,0,1,1.392-.462,2.338,2.338,0,0,1,1.194.3,1.937,1.937,0,0,1,.786.841l-.8.451a1.152,1.152,0,0,0-1.177-.7,1.212,1.212,0,0,0-.693.193A.619.619,0,0,0,71.269-4.015ZM75.911-6.5a.628.628,0,0,1-.462-.187.615.615,0,0,1-.187-.451.633.633,0,0,1,.187-.457.618.618,0,0,1,.462-.193.606.606,0,0,1,.451.193.633.633,0,0,1,.187.457.615.615,0,0,1-.187.451A.615.615,0,0,1,75.911-6.5ZM75.427,0V-5.5h.957V0Zm5.412-4.576H79.376v2.981a.837.837,0,0,0,.16.577.656.656,0,0,0,.49.176q.33.006.814-.017V0A2.83,2.83,0,0,1,79-.2a1.519,1.519,0,0,1-.583-1.391V-4.576H77.33V-5.5h1.089V-6.754l.957-.286V-5.5h1.463ZM82.368-2.31a1.813,1.813,0,0,0,.676,1.144,2.1,2.1,0,0,0,1.314.407,1.721,1.721,0,0,0,1.584-.8l.814.462A2.687,2.687,0,0,1,84.337.143a2.88,2.88,0,0,1-2.128-.82,2.81,2.81,0,0,1-.82-2.073,2.846,2.846,0,0,1,.8-2.068,2.773,2.773,0,0,1,2.079-.825,2.53,2.53,0,0,1,1.974.852,2.966,2.966,0,0,1,.765,2.052,2.89,2.89,0,0,1-.033.429Zm1.9-2.431A1.889,1.889,0,0,0,83-4.306a1.881,1.881,0,0,0-.627,1.16h3.674a1.833,1.833,0,0,0-.616-1.188A1.764,1.764,0,0,0,84.271-4.741ZM93.445.143A3.263,3.263,0,0,1,91.6-.363,2.677,2.677,0,0,1,90.53-1.749l.88-.506a1.937,1.937,0,0,0,2.057,1.4,1.942,1.942,0,0,0,1.21-.324,1.038,1.038,0,0,0,.418-.863.922.922,0,0,0-.418-.825,6.008,6.008,0,0,0-1.4-.583q-.484-.154-.737-.247a6.251,6.251,0,0,1-.632-.286,1.993,1.993,0,0,1-.566-.4,1.991,1.991,0,0,1-.336-.533,1.8,1.8,0,0,1-.148-.748,1.964,1.964,0,0,1,.7-1.589,2.586,2.586,0,0,1,1.716-.589,2.75,2.75,0,0,1,1.589.462A2.876,2.876,0,0,1,95.887-6.16l-.858.495A1.762,1.762,0,0,0,93.28-6.853a1.572,1.572,0,0,0-1.012.308,1.014,1.014,0,0,0-.385.836.893.893,0,0,0,.363.77,4.752,4.752,0,0,0,1.254.55q.319.1.451.143t.412.154q.281.11.412.176t.357.187a1.454,1.454,0,0,1,.336.231q.11.11.258.269a1.059,1.059,0,0,1,.215.325,2.6,2.6,0,0,1,.116.38,2.026,2.026,0,0,1,.049.457A1.97,1.97,0,0,1,95.37-.456,2.955,2.955,0,0,1,93.445.143ZM101.9-5.5h.957V0H101.9V-.946A2.334,2.334,0,0,1,99.825.143,2.639,2.639,0,0,1,97.856-.7a2.84,2.84,0,0,1-.814-2.051A2.84,2.84,0,0,1,97.856-4.8a2.639,2.639,0,0,1,1.969-.841A2.334,2.334,0,0,1,101.9-4.554ZM99.946-.781a1.887,1.887,0,0,0,1.4-.567,1.915,1.915,0,0,0,.561-1.4,1.915,1.915,0,0,0-.561-1.4,1.887,1.887,0,0,0-1.4-.566,1.874,1.874,0,0,0-1.386.566A1.915,1.915,0,0,0,98-2.75a1.915,1.915,0,0,0,.561,1.4A1.874,1.874,0,0,0,99.946-.781Zm7.359-3.8h-1.463v2.981a.837.837,0,0,0,.16.577.656.656,0,0,0,.49.176q.33.006.814-.017V0a2.83,2.83,0,0,1-1.837-.2,1.519,1.519,0,0,1-.583-1.391V-4.576H103.8V-5.5h1.089V-6.754l.957-.286V-5.5h1.463Zm4.961-.924h.957V0h-.957V-.792a1.955,1.955,0,0,1-1.782.935,2.045,2.045,0,0,1-1.551-.611,2.3,2.3,0,0,1-.583-1.656V-5.5h.957v3.322a1.418,1.418,0,0,0,.363,1.039,1.341,1.341,0,0,0,1,.368,1.551,1.551,0,0,0,1.155-.446,1.88,1.88,0,0,0,.44-1.37Zm3.366.924A1.725,1.725,0,0,1,117.348-5.6v1a1.734,1.734,0,0,0-1.21.374,1.582,1.582,0,0,0-.506,1.309V0h-.957V-5.5h.957Zm5.39-1.067a2.045,2.045,0,0,1,1.551.61,2.3,2.3,0,0,1,.583,1.656V0H122.2V-3.322a1.418,1.418,0,0,0-.363-1.039,1.341,1.341,0,0,0-1-.369,1.551,1.551,0,0,0-1.155.445,1.88,1.88,0,0,0-.44,1.37V0h-.957V-5.5h.957v.792A1.955,1.955,0,0,1,121.022-5.643ZM132.407,0l-.627-1.727h-3.465L127.688,0H126.6l2.871-7.7h1.155L133.5,0Zm-3.74-2.684h2.761l-1.386-3.8ZM137.94-5.5h1.034l-2.2,5.5h-1.122l-2.2-5.5h1.034l1.727,4.477Zm2.3,3.19a1.813,1.813,0,0,0,.676,1.144,2.1,2.1,0,0,0,1.314.407,1.721,1.721,0,0,0,1.584-.8l.814.462a2.687,2.687,0,0,1-2.42,1.243,2.88,2.88,0,0,1-2.128-.82,2.81,2.81,0,0,1-.82-2.073,2.846,2.846,0,0,1,.8-2.068,2.773,2.773,0,0,1,2.079-.825,2.53,2.53,0,0,1,1.975.852,2.966,2.966,0,0,1,.764,2.052,2.89,2.89,0,0,1-.033.429Zm1.9-2.431a1.889,1.889,0,0,0-1.276.435,1.881,1.881,0,0,0-.627,1.16h3.674a1.833,1.833,0,0,0-.616-1.188A1.764,1.764,0,0,0,142.142-4.741Z" transform="translate(22.224 11.685)"/>
        </g>
        <g id="Group_2726" data-name="Group 2726" transform="translate(0 1.985)">
          <path id="Icon_awesome-car" data-name="Icon awesome-car" d="M14,5.887H12.326L11.86,4.722A3.121,3.121,0,0,0,8.948,2.75H5.391A3.122,3.122,0,0,0,2.479,4.722L2.013,5.887H.336A.336.336,0,0,0,.01,6.3l.168.672A.336.336,0,0,0,.5,7.231h.562A1.78,1.78,0,0,0,.448,8.575V9.919A1.778,1.778,0,0,0,.9,11.094v1.514a.9.9,0,0,0,.9.9h.9a.9.9,0,0,0,.9-.9v-.9h7.169v.9a.9.9,0,0,0,.9.9h.9a.9.9,0,0,0,.9-.9V11.094a1.777,1.777,0,0,0,.448-1.174V8.575a1.781,1.781,0,0,0-.618-1.344h.562a.336.336,0,0,0,.326-.255l.168-.672A.336.336,0,0,0,14,5.887Zm-9.86-.5a1.344,1.344,0,0,1,1.248-.845H8.948a1.344,1.344,0,0,1,1.248.845l.558,1.4H3.585l.558-1.4ZM2.689,9.914a.845.845,0,0,1-.9-.893.845.845,0,0,1,.9-.893,1.724,1.724,0,0,1,1.344,1.34C4.033,10,3.226,9.914,2.689,9.914Zm8.962,0c-.538,0-1.344.089-1.344-.447a1.724,1.724,0,0,1,1.344-1.34.845.845,0,0,1,.9.893.845.845,0,0,1-.9.893Z" transform="translate(10.754 16.368)"/>
          <path id="Path_4192" data-name="Path 4192" d="M-30.288-5.6l-1.464.528.312,1.1.992-.272V0h1.28V-5.6Zm4.2,5.712c1.448,0,2.28-1.184,2.28-2.912s-.832-2.912-2.28-2.912-2.28,1.184-2.28,2.912S-27.536.112-26.088.112Zm0-1.248c-.672,0-1-.584-1-1.664s.328-1.664,1-1.664,1,.584,1,1.664S-25.416-1.136-26.088-1.136Zm3.64-1.472a.765.765,0,0,0,.76-.76.765.765,0,0,0-.76-.76.765.765,0,0,0-.76.76A.765.765,0,0,0-22.448-2.608Zm0,2.72a.765.765,0,0,0,.76-.76.765.765,0,0,0-.76-.76.765.765,0,0,0-.76.76A.765.765,0,0,0-22.448.112Zm1.3-.112h3.808V-1.232h-1.88l.928-.936a2.524,2.524,0,0,0,.872-1.76,1.782,1.782,0,0,0-1.9-1.784,2,2,0,0,0-1.888,1.224l1.08.632a.9.9,0,0,1,.824-.608.557.557,0,0,1,.6.592,1.586,1.586,0,0,1-.568.992l-1.88,1.952Zm5.472-5.6-1.464.528.312,1.1.992-.272V0h1.28V-5.6ZM-7.96,0h1.4l-1.9-5.6H-10.1L-12,0h1.4l.28-.88h2.08ZM-9.936-2.08l.656-2.056.656,2.056ZM-.48-5.6H-1.76L-3.28-3.112-4.8-5.6H-6.08V0H-4.8V-3.256L-3.352-.88h.144L-1.76-3.256V0H-.48Z" transform="translate(31.986 7.524)"/>
          <path id="Path_4193" data-name="Path 4193" d="M-30.584-5.6l-1.464.528.312,1.1.992-.272V0h1.28V-5.6Zm4.2,5.712c1.448,0,2.28-1.184,2.28-2.912s-.832-2.912-2.28-2.912-2.28,1.184-2.28,2.912S-27.832.112-26.384.112Zm0-1.248c-.672,0-1-.584-1-1.664s.328-1.664,1-1.664,1,.584,1,1.664S-25.712-1.136-26.384-1.136Zm3.64-1.472a.765.765,0,0,0,.76-.76.765.765,0,0,0-.76-.76.765.765,0,0,0-.76.76A.765.765,0,0,0-22.744-2.608Zm0,2.72a.765.765,0,0,0,.76-.76.765.765,0,0,0-.76-.76.765.765,0,0,0-.76.76A.765.765,0,0,0-22.744.112Zm5.68-2.192h-.56v-1.2h-1.3v1.2h-1.168L-18.3-5.6H-19.68l-1.784,3.52V-.9h2.544V0h1.3V-.9h.56ZM-15.68-5.6l-1.464.528.312,1.1.992-.272V0h1.28V-5.6ZM-7.96,0h1.4l-1.9-5.6H-10.1L-12,0h1.4l.28-.88h2.08ZM-9.936-2.08l.656-2.056.656,2.056ZM-.48-5.6H-1.76L-3.28-3.112-4.8-5.6H-6.08V0H-4.8V-3.256L-3.352-.88h.144L-1.76-3.256V0H-.48Z" transform="translate(31.986 43.524)"/>
        </g>
      </g>
      <g id="Group_2734" data-name="Group 2734" transform="translate(317.842 72.246)">
        <g id="Group_2722" data-name="Group 2722" transform="translate(0)">
          <g id="Group_2719-2" data-name="Group 2719" transform="translate(0)">
            <g id="Group_2721-2" data-name="Group 2721" transform="translate(0)">
              <g id="Group_2620-2" data-name="Group 2620">
                <g transform="matrix(1, 0, 0, 1, -495.32, -453.42)" filter="url(#Rectangle_2198-2)">
                  <rect id="Rectangle_2198-4" data-name="Rectangle 2198" width="44.861" height="45.921" rx="10" transform="translate(495.32 453.42)" fill="#4db748"/>
                </g>
              </g>
            </g>
            <path id="Path_4194" data-name="Path 4194" d="M-5.823-12.6l-3.294,1.188.7,2.466,2.232-.612V0H-3.3V-12.6ZM3.627.252c3.258,0,5.13-2.664,5.13-6.552s-1.872-6.552-5.13-6.552S-1.5-10.188-1.5-6.3.369.252,3.627.252Zm0-2.808c-1.512,0-2.25-1.314-2.25-3.744s.738-3.744,2.25-3.744S5.877-8.73,5.877-6.3,5.139-2.556,3.627-2.556ZM-4.67,8.86a1.647,1.647,0,0,0-1.45.66,1.488,1.488,0,0,0-1.31-.66,1.535,1.535,0,0,0-1.34.6V9h-1.5v5h1.5V11.18c0-.59.28-.94.78-.94.48,0,.72.32.72.82V14h1.5V11.18c0-.59.28-.94.78-.94.48,0,.72.32.72.82V14h1.5V10.93A1.871,1.871,0,0,0-4.67,8.86Zm3.68-.3a.909.909,0,0,0,.9-.9.909.909,0,0,0-.9-.9.909.909,0,0,0-.9.9A.909.909,0,0,0-.99,8.56ZM-1.74,14h1.5V9h-1.5ZM3.79,8.86a1.71,1.71,0,0,0-1.43.61V9H.86v5h1.5V11.27c0-.71.38-1.03.93-1.03a.825.825,0,0,1,.87.91V14h1.5V10.93A1.87,1.87,0,0,0,3.79,8.86Zm4.32,1.6c0-.18.16-.28.42-.28a.726.726,0,0,1,.67.44l1.28-.69A2.188,2.188,0,0,0,8.53,8.86c-1.04,0-1.96.55-1.96,1.64,0,1.73,2.46,1.44,2.46,1.99,0,.2-.18.31-.54.31a.821.821,0,0,1-.85-.59l-1.3.74a2.19,2.19,0,0,0,2.15,1.19c1.08,0,2.08-.49,2.08-1.64C10.57,10.65,8.11,11.03,8.11,10.46Z" transform="translate(21.227 22.42)" fill="#fff"/>
          </g>
        </g>
      </g>
    </g>
  </g>
</svg>
