<svg xmlns="http://www.w3.org/2000/svg" width="966.815" height="458.313" viewBox="0 0 966.815 458.313">
  <g id="g10" transform="translate(-267.877 1891.057)">
    <g id="g12" transform="translate(267.877 -1891.057)">
      <g id="g18" transform="translate(8.748 0)">
        <path id="path20" d="M354.432-1483.024s-90.72-152.454,25.263-264.22,215.733-49.844,266.347-52.949,66.842-100.993,216.564-130.516,391.326,3.008,259.431,212.578c-78.345,124.492,162.329,67.665,128.586,235.427l-896.191-.32" transform="translate(-320.67 1940.057)" fill="#ebf2f9"/>
      </g>
      <path id="path22" d="M1071.93-1418.452s.435-2.725.567-4.574a13.871,13.871,0,0,0-1.015-5.14c-.482-1.529,2.008-3.3,2.008-4.339s-1.286-1.366-3.053-.8-6.991,5.783-5.544,8.515a23.414,23.414,0,0,1,1.878,7.089h0c-.546,3.578-5.027,32.87-6.667,41.545-2.5,13.242-24.726,16.82-24.726,16.82l10.8,15.215s22.473-21.7,25.5-29.29c2.253-5.65.452-41.224.252-45.037h0" transform="translate(-835.975 1568.689)" fill="#d9935c"/>
      <path id="path24" d="M668.422-1257.727s12.288,4.783,23.351-7.576c-.257.394-7.754,11.91-14.171,14,.826.579,1.624,1.188,2.395,1.813,3.293,2.655,6.166,5.567,9.391,7.305,0,0,0,0,.006,0,8,4.308,14.871,6.294,20.66,6.518,5.476-2.457,8.633-7.754,10.41-12.356.856-.664,1.705-1.334,2.535-1.985a21.309,21.309,0,0,1-5.8,13.634c7.943-2.04,13.02-8.141,15.46-15.766.149-.462.286-.931.413-1.4.072-.254.14-.508.2-.765a36.793,36.793,0,0,0,.917-5.412,43.622,43.622,0,0,0-2.584-19.3c-.1-.277-.212-.55-.319-.82a.2.2,0,0,1-.013-.033,36.589,36.589,0,0,0-3.339-6.41c-2.372-3.606-2.789-8.343-2.242-13.147,1.188-10.5,6.963-21.307,6.963-21.307a16.4,16.4,0,0,0-2.788-3.159c-3.671-3.323-11.155-7.779-23.605-5.48-18.944,3.495-25.5,16.98-23.312,33.6s1.682,26.238-10.953,30.6c-.043.016-.085.03-.131.045a5.7,5.7,0,0,0-3.449,7.4" transform="translate(-566.652 1492.741)" fill="#163560"/>
      <path id="path26" d="M823.711-1120.642s15.456,17.468,21.911,19.771c6.65,2.37,30.516-1.078,30.516-1.078s-2.758-21.011-2.175-27.507,15-30.23,16.161-40.037-9.949-19.794-9.949-19.794-7.521.017-8.008-.879c-.219-.407-.414-.821-.588-1.237a20.446,20.446,0,0,1-1.2-9.667L856-1201.667c.128,1.741.23,3.229.309,4.522a9.7,9.7,0,0,1-6.7,9.836c-3.937,1.267-7.326,2.766-7.571,3.689-1.241,4.706,10.555,37.079,6.5,40.235-16.985,13.2-24.823,22.741-24.823,22.741" transform="translate(-680.773 1398.638)" fill="#d9935c"/>
      <path id="path28" d="M944.743-1201.666s.963,7.118,15.581,10.262a20.447,20.447,0,0,1-1.2-9.667l-14.384-.594" transform="translate(-769.518 1398.638)" fill="#cc7c46"/>
      <path id="path30" d="M938.468-1271.416s-14.145,10.234-20.383,1.327-12.264-13.584-3.5-20.5,12.921-4.754,15.726-2.288,11.671,18.564,8.153,21.456" transform="translate(-744.184 1467.254)" fill="#d9935c"/>
      <path id="path32" d="M989.816-1225.6s.944.964,3.636-.9c0,0,2.261-1.563,1.443-2.755a8.825,8.825,0,0,0-5.079,3.653" transform="translate(-802.568 1418.867)" fill="#fff"/>
      <path id="path34" d="M892.513-1333.458s5.451-8.541-3.469-13.009c-14.985-7.509-15.563,12.65-20.042,14.054s-9.752,10.426-4.329,16.7,12.426,4.785,13.877,7.964,6.262,1.651,5.924.508c-.131-.442-1.3-1.087-1.959-2.746-.363-.916.626-1.944.262-1.958-3.6-.137-5.747-5.619-1.885-5.221a4.826,4.826,0,0,0,5.3-4.819c-.164-1.526-3.85-5.045-.425-7.008s4.806-1.84,6.748-4.463" transform="translate(-709.119 1506.037)" fill="#163560"/>
      <path id="path36" d="M860.456-672.5c-3.64-.729-10.745-5.492-10.745-5.492s-3.081-55.358,1.136-69.2c2.463-8.084,7.562-34.262,11.376-54.628,2.714-14.487,4.775-26.037,4.775-26.037H811.246s4.27,45.919,12.423,68.291c2.005,5.5,3.323,9.82,3.009,11.211-5.241,23.208,15.8,70.36,15.8,70.36a20.116,20.116,0,0,0-.951,9.027H871.52c-.582-2.287-7.426-2.806-11.065-3.535" transform="translate(-671.633 1124.544)" fill="#d9935c"/>
      <path id="path38" d="M708-1144.751s-17.372,21.6-22.289,24.079c-5.593,2.817-27.848,4.357-32.481,4.651h0a26.554,26.554,0,0,1-4.642-2.38c-2.065-1.4-6.7,2.34-7.306,3.709s-.457,2.426.38,2.516,2.469-1.753,3.652-1.235a11.209,11.209,0,0,0,4.034,1.258c1.266.045,2.858-.06,3.315-.094,3.819.869,25.845,5.67,37.013,3.459,3.186-.631,27.264-20.094,27.264-20.094l2.219-19.777L708-1144.751" transform="translate(-546.741 1359.771)" fill="#d9935c"/>
      <path id="path40" d="M834.818-827.855s-3.392,46.161,6.153,69.529l38.107-43.492c2.714-14.487,4.775-26.037,4.775-26.037H834.818" transform="translate(-688.487 1124.544)" fill="#cc7b44"/>
      <path id="path42" d="M577.847-908.758c-8.119-1.172-12.53,5.495-14.78,15.042-1.707,7.244-2.172,16.15-2.073,24.547a238.891,238.891,0,0,0,2.073,27.814s-7.618-8.739-19.217-10.677c-28.986-4.841-39.2-10.688-40.532-11.51-.348-.967-.834-2.422-1.439-4.492-1.284-4.393-2.078-6.285-7.84-6.712s-11.647-6.986-12.812-4.947,5.533,11.065,7.862,13.395,9.327,7.853,9.336,7.86h0c25.431,23.877,71.765,43.417,71.765,43.417,10.484-5.011,49.39-75.857,49.39-75.857a89.568,89.568,0,0,0-41.733-17.88" transform="translate(-429.55 1183.964)" fill="#d9935c"/>
      <path id="path44" d="M771.251-1200.524v0s12.329,1.146,14.38.339c2.03-.8,6.029-3.821,9.98-6.9.856-.664,1.705-1.334,2.535-1.985,3.957-3.1,7.4-5.767,8.1-5.63a.025.025,0,0,1,.01,0,.3.3,0,0,1,.143.075,8.965,8.965,0,0,1,1.409,3.42c1.3,4.657,2.577,12.453,2.35,13.676a.027.027,0,0,0,0,.013.367.367,0,0,1-.036.1c0,.006,0,.01-.006.013s0,.007-.01.013c-.517.726-8.308,7.1-11.7,9.853-.95.781-1.558,1.269-1.558,1.269s.078.042.228.117.338.173.592.3c.585.3,1.464.729,2.584,1.259l0,0c2.568,1.22,6.388,2.948,10.739,4.621,7.745,2.99,17.165,5.812,24.154,5.327q.757-.054,1.474-.156s-1.145-6.619.508-9.531,12.737-29.677,13.228-31.636a41.955,41.955,0,0,0,.748-6.346c.042-.575.082-1.129.13-1.65.146-1.611.348-2.877.768-3.286.016-.017.039-.039.065-.062a.35.35,0,0,1,.036-.036c.026-.026.058-.058.094-.091.056-.058.12-.124.195-.192a.352.352,0,0,1,.053-.052c2.736-2.714,16.5-16.475,22.449-24.506.039-.055.078-.107.114-.157a17.386,17.386,0,0,0,2.492-4.194l0,0c.133-.413.253-.85.364-1.3,1.491-6.128.941-15.346.941-15.346a.035.035,0,0,0-.016-.006,28.272,28.272,0,0,0-4.618-.82,30.1,30.1,0,0,0-5.756-.049h0s-2.216,13.108-2.851,13.817c-1.685,1.881-20.643,16.7-24.047,17.729-.007,0-.01,0-.013,0a1.03,1.03,0,0,1-.293.052h-.049c-.436-.007-.866-.013-1.27-.013a.237.237,0,0,0-.068,0c-1.663-.013-2.928.013-2.928.013s4.888,6.68,4.308,12.121-16.309,5.246-20.578,1.946a43.415,43.415,0,0,1-6.918-7.709c-1.083-1.451-1.972-2.737-2.512-3.534-.361-.53-.563-.843-.563-.843l-.016.007c-.029.006-.088.026-.179.059-.036.01-.075.026-.12.039s-.094.032-.147.049c-.732.251-2.229.778-3.732,1.422a25.369,25.369,0,0,0-2.3,1.1.047.047,0,0,0-.013.01,8.537,8.537,0,0,0-1.275.836c-3.449,2.838-19.86,22.782-21.938,24.171-.007.006-.01.01-.017.01a.538.538,0,0,1-.117.062c-1.351.413-9.521,2.336-9.521,2.336v0a22.768,22.768,0,0,0-.69,4.751,14.6,14.6,0,0,0,.69,5.089" transform="translate(-641.798 1451.801)" fill="#c65447"/>
      <path id="path46" d="M780.586-827.6c1.49-1.586,9.584-7.992,40.069-3.841,0,0-19.153-21.941-38-20.706-1.707,7.244-2.172,16.15-2.073,24.547" transform="translate(-649.143 1142.39)" fill="#cc7b44"/>
      <path id="path48" d="M869.1-1022.567a151.439,151.439,0,0,0,14.146,6.3c4.392-5.465,6.637-14.68,6.032-20.282-.961-8.932-9.381-13.721-10.62-14.378,1.567,1.247,4.25,16.4,3.713,17.224a.05.05,0,0,1-.011.014c-.516.728-8.309,7.1-11.7,9.855-.953.778-1.559,1.268-1.559,1.268" transform="translate(-714.052 1288.11)" fill="#c4453b"/>
      <path id="path50" d="M1075.089-1178.744c1.065-1.038,23.559-23.27,25.5-29.292,0,0-28.925,18.2-25.5,29.292" transform="translate(-864.887 1403.308)" fill="#c4453b"/>
      <path id="path52" d="M704.151-930.869s35.285,31.1,43.936,45.66c.228.384,0,1.327,0,1.739,0,0-9.294,1.4-16.573-2.732s-11.356-3.265-16.306-2.39a18.076,18.076,0,0,1-16.7-5.242c-5.429-5.531-13.292-3.009-17.368-2.813A15.518,15.518,0,0,1,669.88-901.5c-2.329-2.717-9.9-5.239-13.006-3.4s-8.927,1.07-12.616-1.843-5.631-7.959-13.007-6.406-11.065,1.553-14.365-.777-9.124-6.3-14.171-4.9-12.651-6.956-12.651-6.956-.37-1.56,0-1.738c5.036-2.434,43.5-18.668,75.875-16.091,0,0,16.375,11.7,38.213,12.738" transform="translate(-509.332 1209.62)" fill="#c65447"/>
      <path id="path54" d="M590.512-932.238s.369.406,1,1.027c2.127,2.084,7.215,6.58,11.1,6.043a4.366,4.366,0,0,0,.557-.115.008.008,0,0,0,.005,0c5.048-1.4,10.866,2.571,14.164,4.9s6.99,2.33,14.365.775a10.921,10.921,0,0,1,4.173-.155c3.729.658,5.573,3.6,7.994,5.837v0c.272.251.55.492.842.722a13.947,13.947,0,0,0,7.019,2.766,9.285,9.285,0,0,0,5.6-.922,6.733,6.733,0,0,1,4.018-.567c3.167.329,6.891,1.893,8.656,3.615a4.719,4.719,0,0,1,.332.348,15.493,15.493,0,0,0,11.259,4.855c2.908-.139,7.736-1.462,12.241-.2h0a11.3,11.3,0,0,1,5.125,3.02,18,18,0,0,0,8.828,5.093h0a19.657,19.657,0,0,0,7.87.146c3.237-.573,6.1-1.142,9.727-.317l0,0a24.2,24.2,0,0,1,6.575,2.7c7.281,4.133,16.574,2.728,16.574,2.728-7.426-13.971-43.935-47.394-43.935-47.394-21.839-1.035-38.216-12.738-38.216-12.738-34.754-2.767-75.874,17.829-75.874,17.829" transform="translate(-509.781 1214.342)" fill="#f1a34f"/>
      <path id="path56" d="M1025.976-789.576h0a19.661,19.661,0,0,0,7.87.146c3.237-.573,6.1-1.142,9.727-.317-.206-.26-13.76-17.577-15.486-16.477s-5.834,14.435-2.113,16.648" transform="translate(-827.972 1108.72)" fill="#ee9849"/>
      <path id="path58" d="M888.48-822.5a4.733,4.733,0,0,1,.332.349,15.493,15.493,0,0,0,11.259,4.855c2.908-.139,7.736-1.462,12.241-.2-.107-.238-7.1-15.239-10.636-15.768-3.071-.46-12.372,6.1-13.2,10.767" transform="translate(-728.264 1128.528)" fill="#ee9849"/>
      <path id="path60" d="M594.261-898.545c2.127,2.084,7.215,6.58,11.1,6.043.184-.035.369-.072.557-.115a.008.008,0,0,0,.005,0c.374-.157,24.394-10.4,25.629-12.7,1.15-2.135-31.03,3.734-37.287,6.77" transform="translate(-512.531 1181.677)" fill="#ee9849"/>
      <path id="path62" d="M691.061-866.8c3.3,2.33,6.99,2.33,14.365.775a10.919,10.919,0,0,1,4.173-.155s14.143-8.132,13.522-10.679-32.06,8.32-32.06,10.059" transform="translate(-583.508 1160.758)" fill="#ee9849"/>
      <path id="path64" d="M790.462-834.521v0c.273.252.551.492.843.722a13.945,13.945,0,0,0,7.019,2.766,9.286,9.286,0,0,0,5.6-.922,6.732,6.732,0,0,1,4.018-.567c.9-.8,8.386-7.528,6.96-9.2-1.517-1.785-25.26,4.734-24.436,7.2" transform="translate(-656.378 1134.936)" fill="#ee9849"/>
      <path id="path66" d="M526.9-419.278a16.189,16.189,0,0,0,5.393.633c-9.767-5.73-41.607-15.707-26.466-17.745,13.891-1.874,24.322,12.257,27.792,17.695,1.577-.064,3.279-.228,5.047-.441-13.814-15.707-55.325-64.833-32.868-63.581,22.159,1.231,33.089,47.394,36.185,63.14,1.6-.231,3.22-.48,4.816-.733-.74-5.026-.76-13.516,6.748-16.13,10.277-3.575,7.71,10.336,4.018,14.679,2.644-.2,4.7-.114,5.72.5a9.853,9.853,0,0,1,4.384,5.517H506.027c3.942-1.693,14.574-5.776,20.871-3.535" transform="translate(-442.872 871.491)" fill="#82b378"/>
      <g id="g68" transform="translate(900.588 411.287)">
        <path id="path70" d="M3663.922-358.146s2.3-41.554,15.556-40.077,0,14.4-3.747,22.052a201.127,201.127,0,0,0-7.778,19.808l-4.031-1.782" transform="translate(-3663.922 398.262)" fill="#82b378"/>
      </g>
      <g id="g72" transform="translate(908.226 429.164)">
        <path id="path74" d="M3692.554-307.225s7.313-25.214,17.071-23.977,5.829,8.511-1.08,12.833-15.991,11.143-15.991,11.143" transform="translate(-3692.554 331.245)" fill="#82b378"/>
      </g>
      <g id="g76" transform="translate(888.73 449.237)">
        <path id="path78" d="M3660.229-249.484h-39.7c-2.976-1.611.821-6.188,4.815-6.488a23.663,23.663,0,0,1,6.075.719c1.457.309,3.025.68,4.679,1.035,1.074.238,2.185.466,3.328.675.407.078.821.149,1.241.224h.006a42.163,42.163,0,0,0,7.8.612c7.495-.178,10.773,2.277,11.754,3.223" transform="translate(-3619.468 255.995)" fill="#82b378"/>
      </g>
      <path id="path80" d="M1892.808-1288.32s25.687-5.806,31.417-.99,16.93,89.336,16.93,89.336-15.664-33.942-20.4-50.851c-4.973-17.76-27.946-37.494-27.946-37.494" transform="translate(-1464.68 1464.303)" fill="#588ddb"/>
      <path id="path82" d="M1894.208-1199.742c-.63-.678-64.982-70.153-65.409-76.826-.427-6.7,15.34-14.111,36.414-14.327,0,0-15.522,11.356-14.874,15.3,1.163,7.058,11.57,13.027,19.733,31.4,9.6,21.6,23.937,44.135,24.136,44.452" transform="translate(-1417.739 1464.065)" fill="#72a9f7"/>
      <path id="path84" d="M1617.805-1111.117s13.338-6.082,17.993-5.694,38.015,7.893,41.952,11.2S1617.805-1111.117,1617.805-1111.117Zm103.406,27.568c-.359-.28-4.695-3.633-11.325-8.465l-.021-.012c-19.9-14.5-60.458-42.287-76.357-40.285a59.509,59.509,0,0,0-20.306,6.974l0,0c-13.555,7.346-23.517,18.183-19.366,22.273,6.093,6.005,85.594-2.514,127.4,19.528a.13.13,0,0,0-.021-.015" transform="translate(-1244.76 1347.859)" fill="#72a9f7"/>
      <path id="path86" d="M1721.232-1064.075c-41.806-22.042-121.307-13.523-127.4-19.528-4.151-4.091,5.812-14.928,19.366-22.273-.171.169-8.33,8.225-1.106,9.932,6.669,1.573,56.812-3.345,97.772,23.377l.021.012a110.267,110.267,0,0,1,11.325,8.465.113.113,0,0,1,.021.016" transform="translate(-1244.76 1328.401)" fill="#588ddb"/>
      <path id="path88" d="M2071.938-1120.816s20.089-39.7,17.289-61.4c0,0-4.9,5.33-6.573,6.251,0,0-4.137-6.2-4.439-7.011s.3.808.3.808-8.3,48.659-6.58,61.354" transform="translate(-1595.853 1385.101)" fill="#588ddb"/>
      <g id="g90" transform="translate(476.474 225.971)">
        <path id="path92" d="M2074.042-1054.6s16.934-38.55,57.526-38.357c0,0-6.766,5.986-6.811,8.387,0,0,7.228,2.01,9.4,2.252,0,0-36.069,6.81-55.562,28.226l-4.549-.508" transform="translate(-2074.042 1092.956)" fill="#72a9f7"/>
      </g>
      <g id="g94" transform="translate(323.863 275.902)">
        <path id="path96" d="M1501.946-725.331H1689.9V-905.778h-187.95v180.447" transform="translate(-1501.946 905.778)" fill="#d86713"/>
      </g>
      <g id="g98" transform="translate(417.841 275.902)">
        <path id="path100" d="M1854.243-725.332h187.949V-905.78H1854.243v180.448" transform="translate(-1854.243 905.78)" fill="#f1a34f"/>
      </g>
      <g id="g102" transform="translate(417.838 275.903)">
        <path id="path104" d="M1854.231-905.777h188.434V-848.4L1854.231-725.33V-905.777" transform="translate(-1854.231 905.777)" fill="#ea913d"/>
      </g>
      <path id="path106" d="M1487.076-975.3v31.285h97.943V-975.3h-97.943" transform="translate(-1167.18 1232.657)" fill="#f4a762"/>
      <g id="g108" transform="translate(417.839 257.357)">
        <path id="path110" d="M1854.234-975.3v31.285h191.778V-975.3H1854.234" transform="translate(-1854.234 975.301)" fill="#ffb871"/>
      </g>
      <g id="g112" transform="translate(509.251 257.358)">
        <path id="path114" d="M2196.911-975.3v199.245h14.528V-975.3h-14.528" transform="translate(-2196.911 975.296)" fill="#72a9f7"/>
      </g>
      <path id="path116" d="M1650.863-975.3v198.826h14.526V-975.3h-14.526" transform="translate(-1287.275 1232.657)" fill="#588ddb"/>
      <g id="g118" transform="translate(712.766 316.175)">
        <path id="path120" d="M2983.654-753.375s-12.66-2.863-15.484-.491-8.338,44.022-8.338,44.022,7.72-16.724,10.05-25.058c2.45-8.75,13.773-18.474,13.773-18.474" transform="translate(-2959.832 754.807)" fill="#d86713"/>
      </g>
      <g id="g122" transform="translate(712.768 316.22)">
        <path id="path124" d="M2959.84-709.722c.307-.334,32.022-34.572,32.229-37.859.212-3.3-7.554-6.953-17.943-7.06,0,0,7.65,5.6,7.333,7.537-.575,3.479-5.7,6.42-9.728,15.476a196.456,196.456,0,0,1-11.891,21.906" transform="translate(-2959.84 754.64)" fill="#f1a34f"/>
      </g>
      <g id="g126" transform="translate(712.76 337.052)">
        <path id="path128" d="M2981.244-663.337c1.939-1.633,18.377-5.332,20.673-5.521s8.864,2.806,8.864,2.806S2979.3-661.708,2981.244-663.337Zm-21.433,10.876c20.6-10.862,59.781-6.661,62.784-9.621,2.044-2.017-2.862-7.359-9.545-10.976v0a29.4,29.4,0,0,0-10.006-3.435c-7.836-.985-27.817,12.7-37.63,19.85,0,0-.005.007-.01.007-3.265,2.383-5.4,4.033-5.577,4.172a.031.031,0,0,0-.016.007" transform="translate(-2959.811 676.547)" fill="#f1a34f"/>
      </g>
      <g id="g130" transform="translate(712.761 340.541)">
        <path id="path132" d="M2959.811-642.869c20.6-10.862,59.781-6.662,62.784-9.621,2.045-2.017-2.862-7.359-9.545-10.976.084.082,4.1,4.051.546,4.895-3.287.775-28-1.651-48.181,11.516,0,0,0,.007-.011.007a54.133,54.133,0,0,0-5.577,4.172.034.034,0,0,0-.016.007" transform="translate(-2959.811 663.466)" fill="#d86713"/>
      </g>
      <g id="g134" transform="translate(705.251 339.605)">
        <path id="path136" d="M2939.362-645.462s-9.218-13.423-7.486-20.988a22.707,22.707,0,0,0,3.119,2.056s2.135-2.216,2.3-2.5-.16.285-.16.285,3.28,16.724,2.232,21.148" transform="translate(-2931.66 666.975)" fill="#d86713"/>
      </g>
      <g id="g138" transform="translate(664.462 333.32)">
        <path id="path140" d="M2827.053-662.718s-13.364-28.276-46.128-27.814c0,0,5.416,4.357,5.435,6.129,0,0-5.856,1.54-7.6,1.732,0,0,29.058,4.734,44.622,20.366l3.676-.412" transform="translate(-2778.755 690.538)" fill="#f1a34f"/>
      </g>
      <g id="g142" transform="translate(695.347 366.844)">
        <path id="path144" d="M2987.152-475.946h-92.619v-88.919h92.619v88.919" transform="translate(-2894.532 564.865)" fill="#b54139"/>
      </g>
      <g id="g146" transform="translate(649.035 366.844)">
        <path id="path148" d="M2813.544-475.945h-92.62v-88.919h92.62v88.919" transform="translate(-2720.924 564.864)" fill="#e57970"/>
      </g>
      <g id="g150" transform="translate(648.805 366.928)">
        <path id="path152" d="M2812.921-564.548h-92.863v28.273l92.863,60.646v-88.919" transform="translate(-2720.058 564.548)" fill="#d6675c"/>
      </g>
      <g id="g154" transform="translate(741.661 357.706)">
        <path id="path156" d="M3068.149-583.7h48.26v-15.415h-48.26V-583.7" transform="translate(-3068.149 599.119)" fill="#d35950"/>
      </g>
      <g id="g158" transform="translate(647.152 357.707)">
        <path id="path160" d="M2713.865-583.7h94.5v-15.415h-94.5V-583.7" transform="translate(-2713.865 599.117)" fill="#e57970"/>
      </g>
      <g id="g162" transform="translate(689.449 357.707)">
        <path id="path164" d="M2872.422-500.935h7.16v-98.18h-7.16v98.18" transform="translate(-2872.422 599.116)" fill="#ffb871"/>
      </g>
      <g id="g166" transform="translate(761.228 357.707)">
        <path id="path168" d="M3148.66-599.116H3141.5v97.974h7.161v-97.974" transform="translate(-3141.5 599.116)" fill="#ea913d"/>
      </g>
      <path id="path170" d="M1320.882-648.66s10.121-2.287,12.38-.391,6.669,35.2,6.669,35.2-6.171-13.373-8.038-20.039c-1.96-7-11.01-14.771-11.01-14.771" transform="translate(-1045.319 993.989)" fill="#d86713"/>
      <path id="path172" d="M1321.436-613.762c-.249-.267-25.606-27.643-25.774-30.272s6.044-5.559,14.346-5.645c0,0-6.115,4.474-5.859,6.029.458,2.781,4.557,5.132,7.776,12.374a155.488,155.488,0,0,0,9.511,17.514" transform="translate(-1026.825 993.898)" fill="#f1a34f"/>
      <path id="path174" d="M1212.528-578.839s5.255-2.4,7.089-2.244,14.979,3.109,16.53,4.414S1212.528-578.839,1212.528-578.839Zm40.742,10.862c-.142-.114-1.849-1.433-4.46-3.336,0,0-.007,0-.007-.007-7.843-5.712-23.823-16.66-30.087-15.87a23.442,23.442,0,0,0-8,2.746v0c-5.341,2.892-9.266,7.163-7.631,8.774,2.4,2.365,33.725-.989,50.2,7.693,0,0-.007,0-.011,0" transform="translate(-958.669 948.108)" fill="#f1a34f"/>
      <path id="path176" d="M1253.281-560.3c-16.472-8.682-47.8-5.328-50.2-7.693-1.635-1.611,2.289-5.883,7.631-8.775-.067.064-3.282,3.24-.435,3.912,2.627.619,22.383-1.32,38.524,9.208,0,0,0,0,.007.007a42.8,42.8,0,0,1,4.46,3.336s.007,0,.01,0" transform="translate(-958.67 940.44)" fill="#d86713"/>
      <path id="path178" d="M1391.261-562.38s7.366-10.734,5.986-16.784a18.535,18.535,0,0,1-2.5,1.647s-1.707-1.775-1.835-2l.128.228s-2.621,13.374-1.782,16.912" transform="translate(-1096.803 942.501)" fill="#d86713"/>
      <path id="path180" d="M1392.29-576.171s10.684-22.614,36.88-22.241c0,0-4.329,3.482-4.343,4.9,0,0,4.681,1.231,6.079,1.387,0,0-23.233,3.784-35.678,16.283l-2.938-.327" transform="translate(-1097.679 956.31)" fill="#f1a34f"/>
      <path id="path182" d="M1166.877-497.932v71.1h74.056v-71.1h-74.056" transform="translate(-932.396 882.631)" fill="#4a75cb"/>
      <path id="path184" d="M1305.682-497.932v71.1h74.054v-71.1h-74.054" transform="translate(-1034.174 882.631)" fill="#72a9f7"/>
      <path id="path186" d="M1305.682-497.932h74.246v22.6l-74.246,48.493v-71.1" transform="translate(-1034.174 882.631)" fill="#6699ea"/>
      <path id="path188" d="M1161.022-525.332V-513h38.589v-12.328h-38.589" transform="translate(-928.103 902.722)" fill="#3160aa"/>
      <path id="path190" d="M1305.682-525.332V-513h75.562v-12.328h-75.562" transform="translate(-1034.174 902.722)" fill="#36c"/>
      <path id="path192" d="M1440.7-525.332v78.505h5.723v-78.505H1440.7" transform="translate(-1133.177 902.722)" fill="#ffb871"/>
      <path id="path194" d="M1225.552-525.332v78.338h5.724v-78.338h-5.724" transform="translate(-975.419 902.722)" fill="#ea913d"/>
      <g id="g196" transform="translate(0 455.749)">
        <path id="path198" d="M1253.6-229.021H288.972a1.1,1.1,0,0,1-1.095-1.1v-.373a1.1,1.1,0,0,1,1.095-1.1H1253.6a1.1,1.1,0,0,1,1.095,1.1v.373a1.1,1.1,0,0,1-1.095,1.1" transform="translate(-287.877 231.586)" fill="#2e3552"/>
      </g>
      <path id="path200" d="M1789.825-1860.769s3.461,4.741,3.091,10.151c-.277,4.012-3.856,8.077-4.094,8.237l5.648,3.013s4.19-7.437,2.774-13.651a15.847,15.847,0,0,0-3.905-6.31,5.424,5.424,0,0,0-3.514-1.441" transform="translate(-1388.433 1881.92)" fill="#6bb7bf"/>
      <path id="path202" d="M1739.454-1880.632l-3.578-7.91s16.7.565,22.226,14.17c0,0-11.68-8.33-18.648-6.26" transform="translate(-1349.61 1902.284)" fill="#86d1cd"/>
      <g id="g204" transform="translate(561.688 403.098)">
        <path id="path206" d="M2403.023-428.96a10,10,0,0,1-4.254,4.382,9.088,9.088,0,0,1-5.288.228l.056,3.681s4.91.043,7.644-2.4a9.116,9.116,0,0,0,2.093-3.72,3.122,3.122,0,0,0-.25-2.173" transform="translate(-2393.481 428.96)" fill="#6bb7bf"/>
      </g>
      <g id="g208" transform="translate(567.763 393.42)">
        <path id="path210" d="M2416.257-461.236l2.992-4s4.355,8.568-.959,15.138c0,0,.947-8.2-2.032-11.136" transform="translate(-2416.257 465.238)" fill="#86d1cd"/>
      </g>
      <path id="path212" d="M1269.531-1182.992s-3.979-3.005-5.006-7.494c-.762-3.332,1.15-7.513,1.306-7.7l-5.332-1.062s-1.579,7.075,1.095,11.78a13.494,13.494,0,0,0,4.725,4.168,4.607,4.607,0,0,0,3.212.311" transform="translate(-1000.704 1396.867)" fill="#6bb7bf"/>
      <path id="path214" d="M1284.463-1151.863l4.85,5.551s-13.711,3.64-21.548-6.06c0,0,11.543,3.9,16.7.509" transform="translate(-1006.372 1362.493)" fill="#86d1cd"/>
      <g id="g216" transform="translate(584.394 48.795)">
        <path id="path218" d="M2481.048-1740.265a14,14,0,0,1,1.767-8.35c1.751-2.719,5.85-4.19,6.08-4.21l-2.809-4.313s-5.837,3.609-7.255,8.536a12.722,12.722,0,0,0,.3,5.957,4.37,4.37,0,0,0,1.912,2.381" transform="translate(-2478.602 1757.139)" fill="#6bb7bf"/>
      </g>
      <g id="g220" transform="translate(584.354 58.147)">
        <path id="path222" d="M2489.272-1710.435l-.552,6.959s-11.539-6.877-10.154-18.605c0,0,4.992,10.4,10.706,11.646" transform="translate(-2478.45 1722.081)" fill="#86d1cd"/>
      </g>
      <g id="g224" transform="translate(694.999 176.721)">
        <path id="path226" d="M2893.226-1273.63s2.928-6.3,15.95-2.989c5.837,1.485,15.94,10.071,2.583,17.319-13.9,7.54-18.292-.337-18.292-.337s22.385-3.676,19.189-12.717c-3.525-9.979-12.9.825-12.9.825a17.221,17.221,0,0,0-6.528-2.1" transform="translate(-2893.226 1277.582)" fill="#f1a34f"/>
      </g>
      <g id="g228" transform="translate(691.841 185.4)">
        <path id="path230" d="M2882.369-1236.193a6.938,6.938,0,0,1,1.5-8.853l5.551,4.426s-5.4,4.26,0,8.094c0,0-6.275-1.724-7.052-3.668" transform="translate(-2881.389 1245.046)" fill="#db7714"/>
      </g>
      <path id="path232" d="M1891.379-1451.993s7.875-5.47,13.786,2.685l6.491-2.792s-3.2-5.065-15.789-2.821c-8.234,1.469-4.489,2.927-4.489,2.927" transform="translate(-1463.009 1584.755)" fill="#5685d8"/>
      <path id="path234" d="M1864.635-1446.641s2.145-8.849,18.3-8.849c0,0-6.05.573-10.781,8.429l-7.516.42" transform="translate(-1444.022 1584.752)" fill="#739af0"/>
      <g id="g236" transform="translate(622.618 232.665)">
        <path id="path238" d="M2632.475-1052.593s-8.1-3.192-4.919-11.771l-5.385-3.5s-2.211,4.975,5.834,13.352c5.259,5.481,4.47,1.916,4.47,1.916" transform="translate(-2621.893 1067.862)" fill="#5685d8"/>
      </g>
      <g id="g240" transform="translate(625.24 241.735)">
        <path id="path242" d="M2647.633-1024.5s-7.77,2.841-15.909-9.362c0,0,3.484,4.283,11.8,3.9l4.1,5.466" transform="translate(-2631.723 1033.861)" fill="#739af0"/>
      </g>
      <g id="g244" transform="translate(680.716 278.969)">
        <path id="path246" d="M2839.686-889.088s3.726-2.353,4.121-5.195c0,0,3.624.2,4.408,1.372,0,0-1.668,4.7-3.628,5.587,0,0-4.408.294-4.9-1.764" transform="translate(-2839.686 894.283)" fill="#f1a34f"/>
      </g>
      <path id="path248" d="M1558.716-1602.4s4.474-2.824,4.944-6.238c0,0,4.357.235,5.3,1.647,0,0-2,5.651-4.353,6.711,0,0-5.3.352-5.887-2.12" transform="translate(-1219.709 1697.045)" fill="#f1a34f"/>
      <path id="path250" d="M1344.96-910.912s-4.773-3.013-5.275-6.655c0,0-4.645.251-5.648,1.758,0,0,2.134,6.027,4.645,7.157,0,0,5.648.376,6.278-2.261" transform="translate(-1054.965 1190.325)" fill="#f1a34f"/>
      <path id="path252" d="M2081.532-1603.732s-5.1-3.222-5.641-7.117c0,0-4.969.27-6.043,1.882,0,0,2.284,6.445,4.969,7.654,0,0,6.043.4,6.715-2.419" transform="translate(-1594.493 1698.668)" fill="#86d1cd"/>
      <g id="g254" transform="translate(675.139 83.332)">
        <path id="path256" d="M2818.777-1620.984s4.788-3.027,5.293-6.685c0,0,4.666.252,5.678,1.766,0,0-2.144,6.054-4.667,7.189,0,0-5.677.378-6.3-2.27" transform="translate(-2818.777 1627.67)" fill="#86d1cd"/>
      </g>
      <g id="g258" transform="translate(800.336 420.64)">
        <path id="path260" d="M3318.846-331.37c-.252,3.19-4.756,3.19-9.864,2.561s-3.759.672-10.912.719-9.605-2.337-9.948-3.361c-.3-.91,3.153-1.647,6.845-2.518.464-.107.93-.221,1.4-.334a18.784,18.784,0,0,0,10.514-6.808c3.108-3.98,5.942-22.088,5.942-22.088l11.181,2.084s-6.509,15.525-7.175,20.615c-.3,2.284,1.321,3.81,1.7,5.809a12.2,12.2,0,0,1,.314,3.322" transform="translate(-3288.104 363.2)" fill="#ffb27d"/>
      </g>
      <g id="g262" transform="translate(800.336 449.148)">
        <path id="path264" d="M3308.958-249.933c-5.108-.633-3.732.157-10.89.2s-9.6-2.337-9.943-3.362c-.3-.91,3.153-1.647,6.841-2.518l.044.067a20.061,20.061,0,0,0,10.489,1.96c4.808-.448,9.72-2.415,13.035-2.749a12.336,12.336,0,0,1,.312,3.322c-.256,3.191-4.78,3.706-9.888,3.077" transform="translate(-3288.107 256.331)" fill="#365da4"/>
      </g>
      <g id="g266" transform="translate(821.078 287.223)">
        <path id="path268" d="M3413.758-857.9s-6.1,19.655-11.1,39.6c-.5,2.031-1,4.062-1.48,6.076-1.085,4.571-2.066,9.052-2.866,13.209-.342,1.782-.649,3.5-.917,5.15-.278,1.7-.5,3.319-.691,4.834a52.965,52.965,0,0,0-.424,6.473c.006.456.018.886.047,1.292,1.132,16.856-18.73,66.742-18.73,66.742s-1.92.833-6.052.082a18.2,18.2,0,0,1-5.686-2.44,306.476,306.476,0,0,0,6.359-39.516,370.927,370.927,0,0,0,1.457-55.557c-.221-4.887-.308-9.453-.3-13.672.047-17.966,1.868-29.636,2.495-33.039,2.031-10.944,37.883.765,37.883.765" transform="translate(-3365.86 863.342)" fill="#1c468a"/>
      </g>
      <g id="g270" transform="translate(828.597 287.223)">
        <path id="path272" d="M3434.428-857.9s-6.1,19.655-11.1,39.6c-.5,2.031-1,4.062-1.479,6.076-1.085,4.571-2.066,9.052-2.866,13.209-.343,1.782-.65,3.5-.917,5.15-.279,1.7-.5,3.319-.69,4.834l-23.325-36.6c.046-17.966,1.868-29.636,2.495-33.039,2.031-10.944,37.883.765,37.883.765" transform="translate(-3394.05 863.342)" fill="#163560"/>
      </g>
      <g id="g274" transform="translate(845.566 424.062)">
        <path id="path276" d="M3488.4-321.964c-.257,3.191-4.76,3.191-9.865,2.561s-3.754.672-10.912.718-9.608-2.337-9.948-3.361c-.3-.91,3.152-1.646,6.848-2.518.462-.106.93-.22,1.4-.334,4.164-1.028,6.936-4.119,10.514-6.808,3.386-2.55,1.018-14.91,1.018-14.91l10.514-3.756s-1.584,12.434-1.584,19.277c0,2.305,1.328,3.809,1.708,5.809a12.616,12.616,0,0,1,.31,3.322" transform="translate(-3457.66 350.372)" fill="#ffb27d"/>
      </g>
      <g id="g278" transform="translate(845.566 449.148)">
        <path id="path280" d="M3478.642-249.98c-5.1-.633-3.859.2-11.017.249s-9.608-2.337-9.947-3.361c-.3-.91,3.152-1.646,6.848-2.518l.041.068a20.058,20.058,0,0,0,10.485,1.96c4.807-.448,9.726-2.415,13.041-2.749a12.637,12.637,0,0,1,.31,3.322c-.257,3.191-4.655,3.66-9.76,3.03" transform="translate(-3457.66 256.332)" fill="#365da4"/>
      </g>
      <g id="g282" transform="translate(847.375 274.898)">
        <path id="path284" d="M3464.441-895.681s11.666,58.135,13.637,89.776,4.428,57.836,4.428,57.836a15.448,15.448,0,0,0,5.468.751,20.146,20.146,0,0,0,5.529-1.128s11.56-47.6,7.73-66.661-.633-36.631,1.2-52.437c2.634-22.662-7.5-33.2-14.584-40.376-7.167-7.268-23.409,12.239-23.409,12.239" transform="translate(-3464.441 909.542)" fill="#1c468a"/>
      </g>
      <g id="g286" transform="translate(835.542 159.832)">
        <path id="path288" d="M3423.652-1318.445c-1.162-9.465,1.8-24.61,20.687-22.19s24.845,20.985,21.032,29.24,5.483,10.245,8.407,19.122c2.505,7.626,3.377,17.094,7.432,21.344,13.079,13.7-12.553,34.768-28,30.326-28.15-8.092-31.775-9.3-30.777-31.414.515-11.332,9.327-15.722,3.734-19-13.521-7.92.109-6.011-2.512-27.428" transform="translate(-3420.082 1340.893)" fill="#aa443e"/>
      </g>
      <g id="g290" transform="translate(844.831 189.992)">
        <path id="path292" d="M3454.9-1205.149l5.587,8.382,11.26-.554,5.2-13.443s-1.6-.3-2.35-17.067l-14.051,4.287a27.381,27.381,0,0,1-.249,9.128,15.184,15.184,0,0,1-5.4,9.267" transform="translate(-3454.904 1227.831)" fill="#ffb27d"/>
      </g>
      <g id="g294" transform="translate(832.959 205.494)">
        <path id="path296" d="M3420.706-1168.452c.719,0,13.958-4.43,32.856,3.27,0,0-8.97,51.337-5.116,61.135a103.753,103.753,0,0,1,5.321,18.494l-41.814.519s.584-33.63-1.345-45.533,10.1-37.885,10.1-37.885" transform="translate(-3410.399 1169.719)" fill="#ffb27d"/>
      </g>
      <g id="g298" transform="translate(773.22 206.433)">
        <path id="path300" d="M3289.338-1105.473a17.427,17.427,0,0,1-.478-2.6,40.027,40.027,0,0,1,1.935-16.206.016.016,0,0,0,.006-.015c.029-.078.053-.158.077-.236.041-.13.094-.33.159-.588v-.02c.065-.235.13-.518.207-.841.018-.1.047-.218.071-.34,1.079-4.819,3.438-16.926,4.064-18.576a16.8,16.8,0,0,0,.637-2.644c.631-3.646.908-9.444-1.215-11.867-2.961-3.372-13.04-5.916-13.04-5.916-2.064,3.237-9.135,11.276-17.917,9.829-5.072-.839-5.857-10.712-5.857-10.712-5.449.751-6.847,1.58-6.847,1.58s-13.07,8.156-31.535,34.125c-.59.826-1.982.731-5.391.07-4.341-.846-13.205-.736-26.57-2.7,0,0-.466.333-.59,1.8a21.469,21.469,0,0,1-.6,4.182,166.236,166.236,0,0,0,18.165,7.113c3.309,1.052,6.776,2.033,10.08,2.772a51.6,51.6,0,0,0,8.569,1.287s10.669-4.1,21.008-15.492c.6,9.562,1.94,21.912,1.121,30.931-.472,5.135-3.981,22.412-3.1,25.286,1.834,5.987,15.942,6.3,28.539,5.672.271-.012.543-.028.82-.045,1.952-.113,3.875-.283,5.662-.483a78.115,78.115,0,0,0,8.2-1.307,39.8,39.8,0,0,0,8.056-2.584,8.563,8.563,0,0,0,4.205-3.565c-1.215-6.517-7.048-20.712-8.452-27.912" transform="translate(-3186.456 1166.2)" fill="#f1a34f"/>
      </g>
      <g id="g302" transform="translate(840.33 217.853)">
        <path id="path304" d="M3446.36-1057.49c2.389,8.094,3.775,14.756,9.767,19.26,1.952-.113,3.875-.283,5.662-.483a78.1,78.1,0,0,0,8.2-1.306,39.784,39.784,0,0,0,8.056-2.584,8.564,8.564,0,0,0,4.205-3.565c-1.215-6.517-7.047-20.712-8.451-27.912a16.677,16.677,0,0,1-.277-1.887,46.905,46.905,0,0,1,1.734-16.914.017.017,0,0,0,.006-.015c.077-.276.154-.548.236-.824v-.02c.053-.178.118-.465.206-.842.017-.105.047-.218.07-.34.961-4.567,3.48-18.9,4.117-20.767a18.747,18.747,0,0,0,.631-2.853l-5.037-4.845s-28.888,12.335-35.246,29.349,2.69,24.937,6.116,36.549" transform="translate(-3438.03 1123.388)" fill="#ea913d"/>
      </g>
      <g id="g306" transform="translate(791.381 236.463)">
        <path id="path308" d="M3254.537-1037.489c6.4,2.029,13.349,3.806,18.652,4.059,0,0,10.812-4.151,21.217-15.717.435-1.966.858-5.263-1.522-4.311-3.34,1.334-15.691,17.192-20.364,17.524-3.346.238-12.853-.89-17.983-1.555" transform="translate(-3254.537 1053.627)" fill="#ea913d"/>
      </g>
      <g id="g310" transform="translate(814.198 211.142)">
        <path id="path312" d="M3340.069-1111.6s14.241,7.153,26.583,10.112a55.421,55.421,0,0,0,9.9,1.592s13.277-4.083,23.4-18.276c19.575-27.414,4.466-30.37,4.466-30.37s-13.074,8.156-31.543,34.125c-.643.909-2.262.7-6.465-.145-4.49-.906-13.42-.8-25.745-2.609a6.869,6.869,0,0,0-.333,1.92c-.273,3.227-.261,3.651-.261,3.651" transform="translate(-3340.069 1148.547)" fill="#f1a34f"/>
      </g>
      <g id="g314" transform="translate(773.219 239.342)">
        <path id="path316" d="M3186.454-1036.689a166.494,166.494,0,0,0,18.163,7.114c3.313,1.052,6.778,2.033,10.08,2.771a24.312,24.312,0,0,0-.49-13.163c-4.339-.846-13.621-.9-26.987-2.866l-.766,6.144" transform="translate(-3186.454 1042.833)" fill="#ed975d"/>
      </g>
      <g id="g318" transform="translate(758.794 236.496)">
        <path id="path320" d="M3150.9-1049.822a27.945,27.945,0,0,1-6.2-2.067c-2.819-1.409-10.333-2.348-11.932-.845s1.693,7.608,8.547,7.8,8.834,1.314,8.834,1.314l.749-6.2" transform="translate(-3132.377 1053.5)" fill="#ed975d"/>
      </g>
      <g id="g322" transform="translate(850.224 189.991)">
        <path id="path324" d="M3475.121-1214.419c5.809-.469,14.3-13.415,14.3-13.415l-14.05,4.287a27.368,27.368,0,0,1-.254,9.128" transform="translate(-3475.121 1227.834)" fill="#ed975d"/>
      </g>
      <g id="g326" transform="translate(843.875 167.454)">
        <path id="path328" d="M3454.238-1284.544s16.827,3.379,18.77-7.132,5.425-17.154-5.234-19.756-13.5,1.022-15,4.373-2.861,21.365,1.465,22.515" transform="translate(-3451.321 1312.319)" fill="#ffb27d"/>
      </g>
      <g id="g330" transform="translate(855.012 165.261)">
        <path id="path332" d="M3493.073-1320.083s-.3,3.565,5.237,9.614,5.494,17.39,5.494,17.39,8.048-18.085,3.073-23.684-13.8-3.321-13.8-3.321" transform="translate(-3493.07 1320.541)" fill="#aa443e"/>
      </g>
      <g id="g334" transform="translate(842.492 160.617)">
        <path id="path336" d="M3465.426-1337.489s-8.361-2.8-16.664,5.381c-3.576,3.524-3.034,10.451-1.117,14.471,0,0,2.937-8.613,8.291-10.492s9.49-9.36,9.49-9.36" transform="translate(-3446.138 1337.951)" fill="#aa443e"/>
      </g>
      <g id="g338" transform="translate(845.984 188.737)">
        <path id="path340" d="M3465.279-1231.216s-.45,1.247-3.619.681c0,0-2.661-.475-2.416-1.875a8.681,8.681,0,0,1,6.035,1.194" transform="translate(-3459.229 1232.537)" fill="#fff"/>
      </g>
      <g id="g342" transform="translate(785.585 209.235)">
        <path id="path344" d="M3241.429-1155.178s-4.579-1.036-5.6-.177-3.019,15.929-3.019,15.929a87.453,87.453,0,0,0,3.633-9.067c.893-3.167,4.986-6.685,4.986-6.685" transform="translate(-3232.81 1155.695)" fill="#c65447"/>
      </g>
      <g id="g346" transform="translate(785.585 209.25)">
        <path id="path348" d="M3232.808-1139.385c.113-.121,11.589-12.508,11.664-13.7s-2.735-2.516-6.489-2.555c0,0,2.767,2.026,2.649,2.727-.209,1.259-2.064,2.323-3.518,5.6a69.994,69.994,0,0,1-4.306,7.925" transform="translate(-3232.808 1155.638)" fill="#e57970"/>
      </g>
      <g id="g350" transform="translate(785.579 216.791)">
        <path id="path352" d="M3240.543-1122.592c.7-.59,6.646-1.929,7.477-2a11.633,11.633,0,0,1,3.212,1.016s-11.391,1.572-10.69.982Zm-7.756,3.936c7.456-3.931,21.63-2.412,22.716-3.482.739-.73-1.038-2.662-3.451-3.972h-.006a10.5,10.5,0,0,0-3.619-1.243c-2.832-.357-10.065,4.6-13.614,7.183v0c-1.185.861-1.956,1.459-2.021,1.51,0,0-.006,0-.006,0" transform="translate(-3232.787 1127.372)" fill="#e57970"/>
      </g>
      <g id="g354" transform="translate(785.579 218.052)">
        <path id="path356" d="M3232.787-1115.188c7.456-3.931,21.63-2.412,22.716-3.482.739-.73-1.038-2.662-3.451-3.972.028.03,1.484,1.467.2,1.772-1.19.28-10.131-.6-17.434,4.168v0a19.388,19.388,0,0,0-2.021,1.51s-.006,0-.006,0" transform="translate(-3232.787 1122.642)" fill="#c65447"/>
      </g>
      <g id="g358" transform="translate(782.865 217.714)">
        <path id="path360" d="M3225.4-1116.126s-3.334-4.858-2.7-7.6a8.178,8.178,0,0,0,1.127.745s.773-.8.832-.9l-.058.1s1.186,6.051.8,7.653" transform="translate(-3222.612 1123.911)" fill="#c65447"/>
      </g>
      <g id="g362" transform="translate(768.103 215.439)">
        <path id="path364" d="M3184.756-1122.37s-4.836-10.233-16.692-10.064c0,0,1.958,1.576,1.968,2.217,0,0-2.116.557-2.756.627,0,0,10.517,1.713,16.153,7.368l1.328-.148" transform="translate(-3167.275 1132.437)" fill="#e57970"/>
      </g>
      <g id="g366" transform="translate(779.282 227.57)">
        <path id="path368" d="M3242.69-1054.79h-33.51v-32.174h33.51v32.174" transform="translate(-3209.18 1086.964)" fill="#d86713"/>
      </g>
      <g id="g370" transform="translate(762.526 227.569)">
        <path id="path372" d="M3179.878-1054.791h-33.51v-32.174h33.51v32.174" transform="translate(-3146.368 1086.965)" fill="#f1a34f"/>
      </g>
      <g id="g374" transform="translate(762.441 227.569)">
        <path id="path376" d="M3179.643-1086.965h-33.6v10.229l33.6,21.944v-32.174" transform="translate(-3146.047 1086.965)" fill="#ea913d"/>
      </g>
      <g id="g378" transform="translate(796.037 224.263)">
        <path id="path380" d="M3271.99-1093.78h17.462v-5.578H3271.99v5.578" transform="translate(-3271.99 1099.358)" fill="#f4a762"/>
      </g>
      <g id="g382" transform="translate(761.841 224.263)">
        <path id="path384" d="M3143.8-1093.782h34.2v-5.578h-34.2v5.578" transform="translate(-3143.799 1099.36)" fill="#ffb871"/>
      </g>
      <g id="g386" transform="translate(777.143 224.263)">
        <path id="path388" d="M3201.164-1063.832h2.59v-35.526h-2.59v35.526" transform="translate(-3201.164 1099.358)" fill="#e57970"/>
      </g>
      <g id="g390" transform="translate(803.125 224.262)">
        <path id="path392" d="M3301.148-1099.362h-2.588v35.451h2.588v-35.451" transform="translate(-3298.561 1099.362)" fill="#c65447"/>
      </g>
      <g id="g394" transform="translate(796.569 235.097)">
        <path id="path396" d="M3318.192-1035.647a14.545,14.545,0,0,1-.248-13.074c-4.318-.872-12.818-1.27-24.448-2.914-.523-.492-1.819-1.8-1.886-2.659-.084-1.073-3.592-3.282-4.9-4.453,0,0-1.2.37-.292,1.95.248.428.738,1.123,1.205,1.764l-.507-.332c-1.239-.826-11.062-.788-12.762.817s2.753,8.54,7.825,8.54c2.2,0,8.286.84,10.16,1.106,3.569,1.6,15.492,6.77,25.85,9.254" transform="translate(-3273.985 1058.747)" fill="#ffb27d"/>
      </g>
      <g id="g398" transform="translate(599.433 338.989)">
        <path id="path400" d="M2534.991-657.788s17.248,5.986,22.926,5.232c0,0,.382-2.909-4.613-5.619s-9.309-11.755-12.025-11.072a25.536,25.536,0,0,0-6.3,3.137l.013,8.323" transform="translate(-2534.979 669.284)" fill="#163560"/>
      </g>
      <g id="g402" transform="translate(620.038 310.271)">
        <path id="path404" d="M2616.208-763.493s18.011-2.96,22.645-6.331c0,0-1.052-2.735-6.742-2.735s-13.781-5.9-15.84-4a25.537,25.537,0,0,0-4.048,5.762l3.986,7.309" transform="translate(-2612.222 776.94)" fill="#163560"/>
      </g>
      <g id="g406" transform="translate(516.174 264.195)">
        <path id="path408" d="M2306.146-863.36c-4.912-.157-9.521-.366-13.855-.622-65.757-3.884-67.677-18.506-67.677-18.506-10.934-33.51,33.005-66.786,33.005-66.786s26.664-3.745,25.6,11.927-37.942,46.454-37.942,46.454c12.28,1.149,32.249,8.056,45.938,13.26,8.735,3.322,14.911,5.951,14.911,5.951a8.161,8.161,0,0,1,.993,4.226,12.709,12.709,0,0,1-.977,4.1" transform="translate(-2222.865 949.666)" fill="#1c468a"/>
      </g>
      <g id="g410" transform="translate(516.179 264.193)">
        <path id="path412" d="M2292.308-863.989c-65.758-3.884-67.677-18.506-67.677-18.506-10.934-33.51,33.007-66.787,33.007-66.787s26.664-3.744,25.6,11.927S2245.3-890.9,2245.3-890.9c12.283,1.149,32.25,8.056,45.938,13.26,1.65,4.261,2.73,9.369,1.072,13.651" transform="translate(-2222.883 949.673)" fill="#163560"/>
      </g>
      <g id="g414" transform="translate(535.685 262.089)">
        <path id="path416" d="M2384.409-895.947a.371.371,0,0,0-.064.014c-56.6,15.287-76.577,15.063-82.33,13.914-2.554-.512-4.347-4.236-4.347-4.236-10.93-33.51,35.676-71.282,35.676-71.282s20.08-.909,25.683,8.251a10.167,10.167,0,0,1,1.411,6.147c-.68,10.093-15.957,24.638-26.746,33.715-5.7,4.794-10.152,8.067-10.526,8.344l-.022.014c18.83-11.62,57.219-2.177,57.219-2.177a12.13,12.13,0,0,1,2.932,2.874,10.47,10.47,0,0,1,1.114,4.421" transform="translate(-2296.007 957.562)" fill="#1c468a"/>
      </g>
      <g id="g418" transform="translate(581.171 145.737)">
        <path id="path420" d="M2529.1-1391.367c-.7,2.446-5.176,17.656-9.036,29.386-2.361,7.17-4.518,13.055-5.428,13.843a56.106,56.106,0,0,1-7.21,4.02,189.56,189.56,0,0,1-19.482,8.33,62.349,62.349,0,0,1-12.059,3.316,14.457,14.457,0,0,1-3.4.248c-6.092-.373-6.423-7.087-5.676-12.6.251-1.576.539-3.067.831-4.228.411-1.7.787-2.818.787-2.818s.95-.207,2.568-.539c3.068-.663,8.536-1.782,14.672-2.777a167.5,167.5,0,0,1,17.987-2.072s2.984-5.43,6.759-12.186c4.558-8.206,10.234-18.361,12.93-22.837a3.157,3.157,0,0,0,.5-1.45,11.755,11.755,0,0,0,5.265,2.363" transform="translate(-2466.521 1393.73)" fill="#ffb27d"/>
      </g>
      <g id="g422" transform="translate(537.726 108.476)">
        <path id="path424" d="M2318.378-1491.964c-.5,1.119-1.038,2.2-1.531,3.275,0,0,1.2,2.776,2.814,6.839a1.674,1.674,0,0,0,.169.414c.288.663.537,1.368.829,2.114,1.657,4.31,3.563,9.574,4.972,14.506.043.166.123.332.166.5a56.368,56.368,0,0,1,1.906,8.952,14.354,14.354,0,0,1,.04,3.523l-14.838,10.652s-.083-.291-.245-.87c-1.247-4.145-6.677-22.463-8.374-35.188a40.75,40.75,0,0,1-.541-7.917s-1.2-5.843,5.182-19.023c3.276-6.755,8.536-15.376,16.954-26.154,0,0,.907-1.535,1.74-3.066a42.681,42.681,0,0,0,4.775,3.647,3.607,3.607,0,0,0-1.918,1.906,265.223,265.223,0,0,1-10.485,32.039.126.126,0,0,1-.044.083,2.017,2.017,0,0,1-.205.5,4.346,4.346,0,0,0-.161.415c-.292.745-.624,1.492-.955,2.239-.082.207-.166.414-.248.621" transform="translate(-2303.655 1533.41)" fill="#ffb27d"/>
      </g>
      <g id="g426" transform="translate(514.807 140.911)">
        <path id="path428" d="M2274.967-1322.641s-20.066-20.818-37.228-33.481a44.892,44.892,0,0,1-1.817-7.394,8.913,8.913,0,0,0-.5,5.729c-4.662-3.285-9.022-5.842-12.6-7.063-1.2-6.983,5.518-14.323,5.518-14.323-5.77,2.339-8.111,10.038-8.875,13.566a7.056,7.056,0,0,0-1.732.057s-.579-23.582,35.441-23.582c14.015,0,12.009-24.348,31.954-22.6,0,0,21.782,4.257,17.717,23.254s2.618,23.254,4.938,27.513-7.553,34.065-32.823,38.323" transform="translate(-2217.74 1411.821)" fill="#aa443e"/>
      </g>
      <g id="g430" transform="translate(566.445 171.479)">
        <path id="path432" d="M2434.632-1277.346l-21.011,8.319-2.229-9.308a37.968,37.968,0,0,1,.536-8.809,71.226,71.226,0,0,1,2.29-9.586c.029-.091.049-.139.049-.139l.54-.013,1.742-.047,11.806-.3a22.8,22.8,0,0,0-.777,4.91,17.392,17.392,0,0,0,7.054,14.976" transform="translate(-2411.316 1297.232)" fill="#ffb27d"/>
      </g>
      <g id="g434" transform="translate(542.755 185.73)">
        <path id="path436" d="M2337.254-1243.807s-28.227,15.619-6.568,78.854l45.131,2.46s-19.282-26.825-14.671-36.047,13.833-38.142,13.833-38.142l-37.725-7.125" transform="translate(-2322.511 1243.807)" fill="#e5b0b4"/>
      </g>
      <g id="g438" transform="translate(537.266 137.693)">
        <path id="path440" d="M2399.409-1383.975s-3.933,13.213-5.823,14.268-26.641,13.756-34.14,14.777a16.547,16.547,0,0,0-3.55.714l0,0a.6.6,0,0,0-.3.231.492.492,0,0,0-.022.057c-.528,1.4-7.172,24.034-7.329,30.041-.114,4.187,18.343,31.118,18.125,34.173a2.158,2.158,0,0,1-.188.749c-1.038,2.291-6.12,2.095-10.293-.092a66.285,66.285,0,0,0-10.621-4.332c-4.841-1.491-10.28-2.474-14.71-1.567-8.517,1.747-17.251-.436-20.312-9.826s-2.619-28.606-3.492-32.536-1.637-16.259,3.6-24.448h0a.01.01,0,0,1,0-.01s.65-1.311-.441-4.038-9.062-31.447-7.857-40.072a45.032,45.032,0,0,1,5.609-18,15.136,15.136,0,0,1,6.042,3.218c2.781,2.484,4.6,5.064,5.038,5.174,0,0-2.933,6.554-2.767,7.1s10.1,28.717,10.642,30.354c0,0,3.911-.34,4.758.51,0,0-.336,8.081,18.006,1.383,0,0,1.131-.183,1.183.764,0,0,23.66-3.777,31.884-4.366,0,0,.441-.049,2.986-4.805,3.021-5.656,4.265-6.994,4.265-6.994a10.459,10.459,0,0,1,9.708,7.575" transform="translate(-2301.932 1423.887)" fill="#2559a5"/>
      </g>
      <g id="g442" transform="translate(571.899 207.654)">
        <path id="path444" d="M2461.564-1097.409a2.165,2.165,0,0,1-.187.749c-1.041,2.291-6.121,2.095-10.293-.092a66.148,66.148,0,0,0-10.622-4.332c-2.923-7.267-6.958-18.3-8.494-27.267-2.344-13.671,16.11-30.849,18.8-33.273-.529,1.4-7.17,24.034-7.328,30.041-.113,4.187,18.342,31.118,18.125,34.173" transform="translate(-2431.762 1161.623)" fill="#174a87"/>
      </g>
      <g id="g446" transform="translate(567.061 171.725)">
        <path id="path448" d="M2429.273-1291.646s-9.836,5-15.65,5.179a71.037,71.037,0,0,1,2.29-9.586,5.916,5.916,0,0,1,.587-.151,4.544,4.544,0,0,1,1.218-.094c.174.009.348.028.526.047,4.88.566,11.03,4.606,11.03,4.606" transform="translate(-2413.624 1296.308)" fill="#ed975d"/>
      </g>
      <g id="g450" transform="translate(563.273 146.595)">
        <path id="path452" d="M2400.79-1362.742s16.773,8.5,21.9-2.027,10.756-16.518.265-22.39-14.548-2.877-17.117.22-9.281,21.716-5.05,24.2" transform="translate(-2399.424 1390.514)" fill="#ffb27d"/>
      </g>
      <g id="g454" transform="translate(564.681 145.656)">
        <path id="path456" d="M2417.813-1389.833s5.085,5.057,3.591,9.861.922,14.362,7.476,15.454,14.343-21.058,5.715-25.316-22.707-6.365-26.962-1.014-2.62,12.115-2.62,12.115,5.9-11.428,12.8-11.1" transform="translate(-2404.704 1394.035)" fill="#aa443e"/>
      </g>
      <g id="g458" transform="translate(565.355 168.517)">
        <path id="path460" d="M2412.973-1305.964s-.691,1.134-3.68-.052c0,0-2.512-.995-1.991-2.318a8.675,8.675,0,0,1,5.672,2.369" transform="translate(-2407.23 1308.335)" fill="#fff"/>
      </g>
      <g id="g462" transform="translate(610.901 405.224)">
        <path id="path464" d="M2581.616-370.464h25.5a27.51,27.51,0,0,0-9.74-3.71c4.6-8.721,13.276-26.537,9.078-29.276-4.318-2.813-8.918,18.944-10.8,29.07-.734-.061-1.445-.085-2.13-.075-1.229-12.986-5.618-52.331-13.36-45.811-7.5,6.324,6.214,35.251,11.645,45.911a20.769,20.769,0,0,0-10.191,3.891" transform="translate(-2577.968 420.99)" fill="#82b378"/>
      </g>
      <g id="g466" transform="translate(560.471 99.663)">
        <path id="path468" d="M2399.7-1559.387a19.277,19.277,0,0,0-1.928,1.47c2.139-3.633,3.179-6.868,2.825-8.409-.151-.637-7.27,1.231-8.445,4.457-.6,1.657-3.23,6.541-3.23,6.541l4.023,2.036s1.6-.865,2.3-.673,3.187-.9,3.96-2.083c0,0,1.709-3.549.494-3.338" transform="translate(-2388.922 1566.45)" fill="#ffb27d"/>
      </g>
      <g id="g470" transform="translate(635.563 132.009)">
        <path id="path472" d="M2679.332-1445.166c-1.983.5-6.635,7.722-6.612,9.024,0,.17,0,.35,0,.525-.254-.645-.53-1.332-.731-1.715-.736-1.414-1.573-.7-1.573-.7.249,1.509.227,5.136.976,5.7s1.118,2.89,1.118,2.89l5.258,2.522s2.941-6.537,4.166-8.458c2.388-3.74-.619-10.291-2.606-9.789" transform="translate(-2670.42 1445.193)" fill="#ffb27d"/>
      </g>
    </g>
  </g>
</svg>
