<svg xmlns="http://www.w3.org/2000/svg" width="2516.854" height="1429.652" viewBox="0 0 2516.854 1429.652">
  <g id="g10" transform="translate(-124.875 2525.126)">
    <g id="g12" transform="translate(0 -2666.66)">
      <g id="g18" transform="translate(156.852 304.685)">
        <path id="path20" d="M379.4-938.479s-280.243-300.888-47.393-626.65c206.6-289.034,447.474-269.277,624.2-151.984,75.272,49.957,292.287,6.156,476.989-287.948,251.9-401.074,1125.02-157.823,965.822,459.246-77.056,298.617,234.455,309.47,75.726,607.965L379.4-938.479" transform="translate(-239.526 2201.382)" fill="#ebf3fa"/>
      </g>
      <g id="g22" transform="translate(2083.106 1114.735)">
        <path id="path24" d="M3667.279-910.909C3647.536-983.771,3524.6-961,3524.6-961s-83.5,127.511-107.771,130.54c-24.3,3.038,50.081-122.953,50.081-122.953-47.063-4.549-166.969,53.129-166.969,53.129s7.576,148.754-16.694,145.723c-24.3-3.039,0-132.06,0-132.06-45.539,13.657-88.043,66.786-88.043,66.786-53.131,86.526,60.707,150.274,60.707,150.274s1.525,51.609-30.354,110.808v.008s-7.2,10.923-14.5,29.5h12.405c1.016-3.328,2.144-6.549,3.383-9.64a.069.069,0,0,1,.016-.052.536.536,0,0,1,.064-.132c.842-1.92,2.065-4.652,3.59-7.97v-.017c0-.01.016-.01.016-.017,3.781-7.422,6.354-12.906,7.974-16.869,0-.01.016-.027.016-.035,11.357-23.312,27.733-53.68,38.645-60.045a24.492,24.492,0,0,1-2.653-5.693c.842,1.816,1.731,3.7,2.653,5.693,21.252,45.534,127.514,53.129,186.713,40.985s33.388-28.84,1.525-55.941c-31.878-27.1-98.669-19.961-118.413-30.586-19.728-10.626,9.117-21.252,48.588-18.214,39.455,3.038,59.2,42.5,122.94,48.572,63.757,6.077,112.33-113.838,112.33-113.838-44.014,13.655-122.956-10.626-125.99-25.809s113.838-13.665,132.057-18.214,50.1-40.985,30.37-113.846" transform="translate(-3181.072 964.369)" fill="#dfebfd"/>
      </g>
      <path id="path26" d="M1296.266-869.077s5.422,43.281-2.689,43.8S1291-873.949,1291-873.949s-38.589-21.566-54.287-21.016c0,0,22.1,43.3,14.108,41.8s-33.083-45.49-33.083-45.49-40.311-10.058-48.339,13.708,1.8,36.488,7.75,38.374,44.74,3.754,43.424,8.731-27.987,11.412-42.307,5.99c0,0,13.666,40.757,34.933,40.041s28.614-13.4,41.764-13.6,22.5,3.9,15.738,7.029-28.765-.611-39.889,7.727-20.021,13.35-.636,18.589,54.774,4.881,62.754-9.8q.524-.956,1-1.833a7.782,7.782,0,0,1-1,1.833c3.493,2.34,8.3,12.748,11.6,20.711.463,1.345,1.2,3.222,2.305,5.771h0c.445,1.144.8,2.087,1.039,2.742,5.859,17.742.358,47.419.358,47.419l4.121,1.38c11.15-29.564-3.632-55.321-3.632-55.321-9.369-20.283-7.814-37.37-7.814-37.37s39.055-18.825,23.2-48.6c0,0-13.01-18.484-27.835-23.941" transform="translate(-402.581 2057.153)" fill="#afcdfb"/>
      <path id="path28" d="M918.7-600.305c-3.5-53.383,84.176-66.349,84.176-66.349s85.259,66.331,102.241,62.786-61.82-70.941-61.82-70.941c30.508-13.857,124.163-2.715,124.163-2.715s29.062,101.492,44.656,93.887-30.323-88.561-30.323-88.561c33.676-1.292,74.373,24.578,74.373,24.578,55.487,45.813-6.208,114.7-6.208,114.7s10.827,34.96,45.8,67.335h0a124.164,124.164,0,0,1,16.5,16.458l-8.321,2.846c-1.449-2-2.934-3.894-4.47-5.684a.068.068,0,0,0-.035-.035c-.017-.026-.044-.052-.061-.079-1.013-1.091-2.462-2.637-4.243-4.514a.008.008,0,0,0-.009-.009.009.009,0,0,0-.009-.009c-4.252-4.112-7.229-7.2-9.22-9.482-.009-.009-.018-.017-.018-.026-12.975-13.018-30.926-29.625-39.71-31.389a16.8,16.8,0,0,0,.472-4.427q-.223,2.122-.472,4.427c-3.8,35.423-73.3,64.908-115.786,70.356s-29.015-11.674-13.862-37.169,61.578-36.034,72.371-47.69-10.987-12.154-36.753-1.056-29.939,42.093-71.294,60.8-101.46-50.545-101.46-50.545c32.654-.943,80.006-35.353,78.557-46.232s-79.476,16.982-92.736,18.109-43-15.978-46.5-69.37" transform="translate(-317.06 1981.56)" fill="#cde0fb"/>
      <g id="g30" transform="translate(2221.303 385.544)">
        <path id="path32" d="M3414.41-2039.718s-9.346-7.057-11.755-17.6c-1.789-7.825,2.7-17.645,3.056-18.089l-12.512-2.5s-3.717,16.618,2.574,27.666c1.913,3.386,7.5,8.047,11.094,9.791a10.821,10.821,0,0,0,7.543.728" transform="translate(-3392.109 2077.904)" fill="#6bb7bf"/>
      </g>
      <g id="g34" transform="translate(2226.131 414.919)">
        <path id="path36" d="M3438.7-2031.851l11.4,13.036s-32.209,8.551-50.619-14.23c0,0,27.111,9.167,39.221,1.194" transform="translate(-3399.482 2033.045)" fill="#86d1cd"/>
      </g>
      <g id="g38" transform="translate(1675.455 231.001)">
        <path id="path40" d="M2561.28-2292.411s11.618-19.3,32.118-7.488l11.238-12.22s-11.734-7.773-36.553,9.125c-16.233,11.058-6.8,10.583-6.8,10.583" transform="translate(-2558.555 2313.903)" fill="#f99746"/>
      </g>
      <g id="g42" transform="translate(1666.556 234.876)">
        <path id="path44" d="M2545.1-2271.445s-3.905-21.035,30.709-36.541c0,0-12.413,7.039-15.006,28.418l-15.7,8.122" transform="translate(-2544.965 2307.986)" fill="#f99746"/>
      </g>
      <path id="path46" d="M1454.669-1343.924s-19.034-7.5-11.56-27.643l-12.643-8.216s-5.186,11.682,13.7,31.354c12.355,12.879,10.5,4.505,10.5,4.505" transform="translate(-493.509 2222.487)" fill="#5685d8"/>
      <path id="path48" d="M1476.593-1325.269s-18.248,6.671-37.37-21.994c0,0,8.19,10.058,27.722,9.15l9.648,12.844" transform="translate(-496.756 2211.262)" fill="#739af0"/>
      <path id="path50" d="M1551.516-1735.771s10.5-6.635,11.613-14.651c0,0,10.233.55,12.442,3.868,0,0-4.7,13.271-10.233,15.76,0,0-12.433.83-13.822-4.977" transform="translate(-535.515 2350.415)" fill="#f1a34f"/>
      <g id="g54" transform="translate(1546.353 447.492)">
        <path id="path56" d="M2397.243-1961.473s-15.657-9.881-17.307-21.83c0,0-15.23.825-18.53,5.766,0,0,7.008,19.772,15.24,23.48,0,0,18.54,1.233,20.6-7.416" transform="translate(-2361.406 1983.303)" fill="#86d1cd"/>
      </g>
      <g id="g58" transform="translate(1958.676 405.509)">
        <path id="path60" d="M3575.606-2029.567l97.29,304.653a25.738,25.738,0,0,1-16.632,32.252l-534.431,170.7a25.752,25.752,0,0,1-32.257-16.633l-97.306-304.655a25.737,25.737,0,0,1,16.631-32.252l534.448-170.7a25.745,25.745,0,0,1,32.257,16.637" transform="translate(-2991.057 2047.415)" fill="#cde0fb"/>
      </g>
      <g id="g62" transform="translate(2077.984 786.793)">
        <path id="path64" d="M3331.126-1441.336l-142.442,45.493a11.531,11.531,0,0,1-14.449-7.456l-.441-1.369a11.536,11.536,0,0,1,7.452-14.456l142.442-45.5a11.542,11.542,0,0,1,14.463,7.459l.441,1.368a11.544,11.544,0,0,1-7.466,14.458" transform="translate(-3173.249 1465.163)" fill="#afcdfb"/>
      </g>
      <g id="g66" transform="translate(2265.693 726.841)">
        <path id="path68" d="M3617.775-1532.888l-142.439,45.495a11.542,11.542,0,0,1-14.464-7.457l-.433-1.37a11.538,11.538,0,0,1,7.448-14.456l142.439-45.495a11.542,11.542,0,0,1,14.463,7.459l.433,1.367a11.541,11.541,0,0,1-7.448,14.457" transform="translate(-3459.896 1556.715)" fill="#afcdfb"/>
      </g>
      <g id="g70" transform="translate(2225.771 632.28)">
        <path id="path72" d="M3420.653-1683.594a27.648,27.648,0,0,0-3.709-7.854c-2.215-2.959-4.6-4.028-7.184-3.2-2.644.844-3.986,3.089-4.055,6.731a26.872,26.872,0,0,0,1.495,8.626q4.236,13.294,11.018,11.126,3.924-1.252,3.973-6.816a27.341,27.341,0,0,0-1.537-8.611Zm6.547-2.062q2.492,7.79,1.37,13.632a11.806,11.806,0,0,1-8.554,9.652,11.819,11.819,0,0,1-12.568-2.911q-4.277-4.111-6.782-11.9t-1.4-13.565a11.848,11.848,0,0,1,8.6-9.668,11.847,11.847,0,0,1,12.61,2.894q4.236,4.078,6.727,11.863" transform="translate(-3398.932 1701.118)" fill="#afcdfb"/>
      </g>
      <g id="g74" transform="translate(2255.008 622.942)">
        <path id="path76" d="M3465.31-1697.854a27.544,27.544,0,0,0-3.729-7.853c-2.2-2.96-4.6-4.027-7.165-3.2-2.65.844-4.01,3.089-4.052,6.731a26.1,26.1,0,0,0,1.486,8.627q4.227,13.292,11.02,11.124c2.608-.834,3.939-3.105,3.968-6.815a27.289,27.289,0,0,0-1.529-8.612Zm6.533-2.061q2.5,7.79,1.36,13.632a11.776,11.776,0,0,1-8.539,9.651,11.809,11.809,0,0,1-12.562-2.911q-4.312-4.107-6.786-11.9-2.5-7.788-1.4-13.564a11.848,11.848,0,0,1,8.609-9.667,11.841,11.841,0,0,1,12.6,2.892q4.227,4.076,6.716,11.864" transform="translate(-3443.58 1715.377)" fill="#afcdfb"/>
      </g>
      <g id="g78" transform="translate(2299.331 608.786)">
        <path id="path80" d="M3532.994-1719.471a27.723,27.723,0,0,0-3.73-7.854q-3.3-4.438-7.175-3.2c-2.644.844-4,3.089-4.045,6.73a26.258,26.258,0,0,0,1.487,8.627q4.245,13.292,11.02,11.125,3.923-1.252,3.973-6.816A27.5,27.5,0,0,0,3532.994-1719.471Zm6.532-2.061q2.487,7.791,1.372,13.631a11.8,11.8,0,0,1-8.547,9.653,11.808,11.808,0,0,1-12.563-2.911q-4.288-4.108-6.789-11.9t-1.4-13.565a11.841,11.841,0,0,1,8.6-9.669,11.844,11.844,0,0,1,12.606,2.894q4.245,4.078,6.718,11.864" transform="translate(-3511.265 1736.994)" fill="#afcdfb"/>
      </g>
      <g id="g82" transform="translate(2328.593 599.44)">
        <path id="path84" d="M3577.67-1733.744a27.57,27.57,0,0,0-3.719-7.853q-3.321-4.44-7.178-3.2-3.972,1.268-4.052,6.731a27,27,0,0,0,1.476,8.627q4.254,13.292,11.042,11.125c2.6-.835,3.937-3.107,3.965-6.817a27.133,27.133,0,0,0-1.534-8.611Zm6.541-2.061q2.5,7.791,1.361,13.631a11.8,11.8,0,0,1-8.553,9.651,11.785,11.785,0,0,1-12.547-2.91q-4.32-4.107-6.787-11.9-2.5-7.789-1.4-13.565a11.848,11.848,0,0,1,8.6-9.669,11.833,11.833,0,0,1,12.605,2.9q4.233,4.075,6.729,11.863" transform="translate(-3555.95 1751.267)" fill="#afcdfb"/>
      </g>
      <g id="g86" transform="translate(2357.832 590.1)">
        <path id="path88" d="M3622.323-1748.006a27.416,27.416,0,0,0-3.722-7.853q-3.3-4.439-7.165-3.2-3.978,1.27-4.059,6.732a26.258,26.258,0,0,0,1.48,8.627q4.241,13.292,11.032,11.125,3.913-1.253,3.971-6.817a27.161,27.161,0,0,0-1.539-8.609Zm6.549-2.062q2.483,7.789,1.362,13.632a11.825,11.825,0,0,1-8.556,9.652,11.805,11.805,0,0,1-12.557-2.911q-4.307-4.11-6.784-11.9c-1.656-5.193-2.139-9.714-1.407-13.566a11.846,11.846,0,0,1,8.6-9.667,11.858,11.858,0,0,1,12.615,2.9c2.813,2.717,5.069,6.671,6.725,11.864" transform="translate(-3600.6 1765.529)" fill="#afcdfb"/>
      </g>
      <g id="g90" transform="translate(2387.069 580.764)">
        <path id="path92" d="M3666.979-1762.263a27.247,27.247,0,0,0-3.737-7.853q-3.293-4.441-7.164-3.205-3.982,1.27-4.049,6.733a26.688,26.688,0,0,0,1.483,8.624q4.249,13.295,11.02,11.126c2.61-.834,3.945-3.107,3.974-6.816A27.562,27.562,0,0,0,3666.979-1762.263Zm6.54-2.062q2.47,7.788,1.365,13.631a11.826,11.826,0,0,1-8.542,9.652,11.832,11.832,0,0,1-12.576-2.911q-4.294-4.109-6.793-11.9c-1.646-5.192-2.121-9.714-1.394-13.566a11.862,11.862,0,0,1,8.6-9.667,11.842,11.842,0,0,1,12.606,2.893q4.25,4.076,6.733,11.865" transform="translate(-3645.247 1779.787)" fill="#afcdfb"/>
      </g>
      <g id="g94" transform="translate(2431.399 566.606)">
        <path id="path96" d="M3734.669-1783.885a27.506,27.506,0,0,0-3.73-7.854c-2.19-2.96-4.591-4.026-7.174-3.2q-3.965,1.267-4.047,6.73a26.939,26.939,0,0,0,1.479,8.627q4.236,13.294,11.025,11.125c2.628-.834,3.942-3.107,3.972-6.816a27.439,27.439,0,0,0-1.525-8.61Zm6.54-2.062q2.492,7.789,1.359,13.632a11.8,11.8,0,0,1-8.548,9.651,11.786,11.786,0,0,1-12.551-2.909q-4.3-4.112-6.8-11.9t-1.39-13.564a11.836,11.836,0,0,1,8.594-9.667,11.852,11.852,0,0,1,12.611,2.894q4.236,4.076,6.721,11.863" transform="translate(-3712.943 1801.407)" fill="#afcdfb"/>
      </g>
      <g id="g98" transform="translate(2460.652 557.261)">
        <path id="path100" d="M3779.338-1798.154a27.369,27.369,0,0,0-3.729-7.854q-3.3-4.438-7.167-3.2c-2.644.845-4,3.09-4.05,6.732a26.615,26.615,0,0,0,1.482,8.627q4.241,13.291,11.019,11.124,3.92-1.252,3.973-6.816A27.054,27.054,0,0,0,3779.338-1798.154Zm6.541-2.062q2.476,7.789,1.36,13.632a11.8,11.8,0,0,1-8.543,9.652,11.813,11.813,0,0,1-12.562-2.911c-2.858-2.739-5.135-6.7-6.8-11.9s-2.109-9.713-1.391-13.564a11.849,11.849,0,0,1,8.6-9.667,11.848,11.848,0,0,1,12.608,2.894c2.827,2.717,5.058,6.671,6.724,11.864" transform="translate(-3757.615 1815.677)" fill="#afcdfb"/>
      </g>
      <g id="g102" transform="translate(2489.897 547.922)">
        <path id="path104" d="M3823.991-1812.416a27.644,27.644,0,0,0-3.726-7.853c-2.2-2.961-4.592-4.028-7.159-3.2-2.644.844-4,3.089-4.051,6.732a26.212,26.212,0,0,0,1.469,8.626q4.244,13.292,11.04,11.125,3.919-1.252,3.958-6.816A27.137,27.137,0,0,0,3823.991-1812.416Zm6.541-2.063q2.5,7.79,1.36,13.633a11.809,11.809,0,0,1-8.535,9.651,11.788,11.788,0,0,1-12.556-2.911q-4.313-4.108-6.8-11.9t-1.392-13.566a11.841,11.841,0,0,1,8.6-9.667,11.854,11.854,0,0,1,12.617,2.894q4.222,4.075,6.71,11.862" transform="translate(-3802.274 1829.939)" fill="#afcdfb"/>
      </g>
      <g id="g106" transform="translate(2519.135 538.581)">
        <path id="path108" d="M3868.642-1826.679a27.129,27.129,0,0,0-3.723-7.854q-3.285-4.439-7.163-3.2-3.989,1.269-4.051,6.732a26.7,26.7,0,0,0,1.47,8.626q4.247,13.293,11.042,11.125c2.612-.835,3.926-3.106,3.973-6.816A27.759,27.759,0,0,0,3868.642-1826.679Zm6.553-2.062q2.487,7.789,1.361,13.631a11.793,11.793,0,0,1-8.556,9.652,11.806,11.806,0,0,1-12.56-2.911c-2.862-2.739-5.115-6.7-6.789-11.9q-2.487-7.787-1.392-13.564a11.835,11.835,0,0,1,8.587-9.668,11.864,11.864,0,0,1,12.622,2.894c2.815,2.717,5.068,6.671,6.726,11.864" transform="translate(-3846.923 1844.203)" fill="#afcdfb"/>
      </g>
      <g id="g110" transform="translate(2001.698 548.929)">
        <path id="path112" d="M3211.148-1805.943l-139.387,44.521a11.551,11.551,0,0,1-14.468-7.457h0a11.547,11.547,0,0,1,7.466-14.457l139.387-44.522a11.527,11.527,0,0,1,14.454,7.458h0a11.529,11.529,0,0,1-7.453,14.457" transform="translate(-3056.755 1828.401)" fill="#afcdfb"/>
      </g>
      <g id="g114" transform="translate(2484.245 479.288)">
        <path id="path116" d="M3804.077-1925.088a17.644,17.644,0,0,0-7.059-9.345,1.884,1.884,0,0,0-2.725.721l-.444.874a1.86,1.86,0,0,0,.612,2.392,12.937,12.937,0,0,1,5.115,6.8,12.909,12.909,0,0,1-.23,8.5,1.881,1.881,0,0,0,.888,2.3l.857.458a1.9,1.9,0,0,0,2.649-.992,17.6,17.6,0,0,0,.337-11.706" transform="translate(-3793.643 1934.748)" fill="#afcdfb"/>
      </g>
      <g id="g118" transform="translate(2488.719 470.792)">
        <path id="path120" d="M3815.464-1932.452a27.02,27.02,0,0,0-11.914-15.012,1.864,1.864,0,0,0-2.613.782l-.261.495a1.88,1.88,0,0,0,.738,2.466,22.693,22.693,0,0,1,9.931,12.583,22.717,22.717,0,0,1-.8,16.017,1.881,1.881,0,0,0,.83,2.432l.492.258a1.863,1.863,0,0,0,2.583-.881,26.99,26.99,0,0,0,1.015-19.141" transform="translate(-3800.475 1947.723)" fill="#afcdfb"/>
      </g>
      <g id="g122" transform="translate(2492.715 463.362)">
        <path id="path124" d="M3825.479-1938.891a35.313,35.313,0,0,0-16.089-19.93,1.894,1.894,0,0,0-2.622.791h0a1.9,1.9,0,0,0,.756,2.47,31.556,31.556,0,0,1,14.376,17.811,31.6,31.6,0,0,1-1.388,22.849,1.873,1.873,0,0,0,.818,2.443h0a1.887,1.887,0,0,0,2.591-.867,35.423,35.423,0,0,0,1.558-25.567" transform="translate(-3806.577 1959.068)" fill="#afcdfb"/>
      </g>
      <g id="g126" transform="translate(2496.333 455.33)">
        <path id="path128" d="M3835.954-1945.864a44.3,44.3,0,0,0-20.608-25.23,1.882,1.882,0,0,0-2.6.794l-.434.856a1.855,1.855,0,0,0,.759,2.477,39.611,39.611,0,0,1,18.378,22.54,39.572,39.572,0,0,1-1.92,29.028,1.885,1.885,0,0,0,.821,2.456l.852.448a1.882,1.882,0,0,0,2.585-.865,44.279,44.279,0,0,0,2.168-32.5" transform="translate(-3812.103 1971.335)" fill="#afcdfb"/>
      </g>
      <g id="g130" transform="translate(1856.255 687.888)">
        <path id="path132" d="M3138.929-739.773H2834.652V-1616.2h304.277v876.426" transform="translate(-2834.652 1616.199)" fill="#ffa412"/>
      </g>
      <g id="g134" transform="translate(1052.398 687.89)">
        <path id="path136" d="M2410.953-739.772H1607.1V-1616.2h803.856v876.424" transform="translate(-1607.097 1616.196)" fill="#ffb93e"/>
      </g>
      <g id="g138" transform="translate(1052.398 1116.622)">
        <path id="path140" d="M1607.1-900.142v-61.345h803.856v61.345H1607.1" transform="translate(-1607.097 961.487)" fill="#ffa412"/>
      </g>
      <g id="g142" transform="translate(1856.255 1116.621)">
        <path id="path144" d="M2834.652-900.144v-61.345h304.277v61.345H2834.652" transform="translate(-2834.652 961.489)" fill="#fa9712"/>
      </g>
      <g id="g146" transform="translate(1602.886 609.67)">
        <path id="path148" d="M2451.489-1648.043s181.612-118.011,305.063-80.091l-25.474,23.786,11.482,39.971s-137.279-44.706-294.824,23.058l3.753-6.724" transform="translate(-2447.736 1735.644)" fill="#f99746"/>
      </g>
      <g id="g150" transform="translate(1093.635 261.261)">
        <path id="path152" d="M2172.913-1858.4s-32.047-3.879-79.8-10.441c-126.788-17.444-364.262-53.928-406.9-87.689-66.974-53.046,91.734-278.307,160.441-309.57,68.7-31.244,326.259,407.7,326.259,407.7" transform="translate(-1670.07 2267.693)" fill="#f99746"/>
      </g>
      <g id="g154" transform="translate(1591.757 141.534)">
        <path id="path156" d="M2937.918-2202.01c11.446,55.8-507.177,296.89-507.177,296.89s9.439-25.508,24.781-65.465l.052-.067c56.074-145.909,191.151-484.513,235.534-479.826a54.114,54.114,0,0,1,15.5,4.609c68.179,30,220.761,192.459,231.313,243.859" transform="translate(-2430.741 2450.526)" fill="#f99746"/>
      </g>
      <g id="g158" transform="translate(1616.588 141.541)">
        <path id="path160" d="M2715.325-2396.238c-31.672,55.014-243.353,419.9-246.665,425.588,56.076-145.912,191.154-484.513,235.53-479.818,0,0,8.792-.254,15.507,4.6,8.088,5.9,13.107,19.246-4.373,49.626" transform="translate(-2468.661 2450.516)" fill="#ed7d2b"/>
      </g>
      <g id="g162" transform="translate(1105.518 509.901)">
        <path id="path164" d="M2099.463-1737.8h-.084c-126.794-17.438-364.275-53.924-406.894-87.684-19.243-54.213,30.689-58.633,67.036-62.448,36.309-3.815,339.942,150.132,339.942,150.132" transform="translate(-1688.215 1888)" fill="#ed7d2b"/>
      </g>
      <g id="g166" transform="translate(1499.759 617.877)">
        <path id="path168" d="M2290.253-1653.17s29.071-66.139,86.286-69.8c59.77-3.833,93.705,69.8,93.705,69.8H2290.253" transform="translate(-2290.253 1723.112)" fill="#ed7d2b"/>
      </g>
      <g id="g170" transform="translate(1028.036 687.883)">
        <path id="path172" d="M2411.021-1495.663H1569.894v-120.544h841.127v120.544" transform="translate(-1569.894 1616.207)" fill="#ffc261"/>
      </g>
      <g id="g174" transform="translate(1869.154 687.884)">
        <path id="path176" d="M3171.388-1495.662H2854.35v-120.544h317.038v120.544" transform="translate(-2854.35 1616.205)" fill="#fa9712"/>
      </g>
      <g id="g178" transform="translate(1132.681 648.313)">
        <path id="path180" d="M2126.233-1647.155s-164.743-52.19-275.906-17.685c-128.145,39.769-120.546,197.877-120.546,197.877l30.134-12.389,40.688,19.085s6.858-167.422,111.333-190.858c90.327-20.274,214.3,3.969,214.3,3.969" transform="translate(-1729.695 1676.634)" fill="#f99746"/>
      </g>
      <g id="g182" transform="translate(1383.367 687.886)">
        <path id="path184" d="M2173.856-739.862h-61.343V-1616.2h61.343v876.341" transform="translate(-2112.514 1616.202)" fill="#ffa412"/>
      </g>
      <path id="path186" d="M1370.885-1855.764l-56.316,18.868L1260.2-1999.1l56.322-18.877,54.361,162.218" transform="translate(-434.966 2442.765)" fill="#ed7d2b"/>
      <path id="path188" d="M1236.147-1826.946l-148.78,49.873L1033-1939.291l148.784-49.864,54.366,162.209" transform="translate(-356.545 2432.815)" fill="#f99746"/>
      <path id="path190" d="M1077.418-1806.759l-3.806-11.359,148.784-49.864,3.805,11.359-148.783,49.864" transform="translate(-370.563 2390.992)" fill="#ffb93e"/>
      <path id="path192" d="M1304.622-1866.572l-3.805-11.359,56.321-18.877,3.8,11.359-56.314,18.877" transform="translate(-448.985 2400.941)" fill="#f69b34"/>
      <path id="path194" d="M1197.2-1992.806s38.675-35.99,73.107-38.775l-4.924,6.374,5.713,6.426s-38.463,2.637-74.4,27.5l.5-1.528" transform="translate(-413.045 2447.459)" fill="#ffb93e"/>
      <path id="path196" d="M1130.92-1999.106s-6.17,1.275-15.419,3.021c-24.548,4.636-70.767,12.617-80.751,9.011-15.687-5.667-.285-57.207,10.491-67.248s85.678,55.216,85.678,55.216" transform="translate(-354.841 2455.671)" fill="#ffb93e"/>
      <path id="path198" d="M1260.807-2112.589c5.581,9.622-75.453,86.413-75.453,86.413s.165-5.309.527-13.656l0-.018c1.327-30.48,5.323-101.527,13.828-103.413a10.385,10.385,0,0,1,3.155-.114c14.479,1.327,52.8,21.924,57.94,30.786" transform="translate(-409.132 2486.068)" fill="#ffb93e"/>
      <path id="path200" d="M1205.416-2133.984c-2.449,12.145-18.991,92.813-19.252,94.071,1.327-30.481,5.323-101.527,13.828-103.413a5.52,5.52,0,0,1,3.155-.114c1.863.594,3.621,2.75,2.269,9.456" transform="translate(-409.411 2486.132)" fill="#f69b34"/>
      <path id="path202" d="M1117.725-1968.676l-.016.009c-24.548,4.636-70.767,12.617-80.751,9.011-6.925-8.845,2.044-12.757,8.534-15.716s72.233,6.7,72.233,6.7" transform="translate(-357.049 2428.252)" fill="#f69b34"/>
      <path id="path204" d="M1159.433-1965.568s1.278-14.04,11.641-18.266c10.823-4.418,21.674,7.1,21.674,7.1l-33.315,11.167" transform="translate(-400.185 2431.327)" fill="#f69b34"/>
      <path id="path206" d="M1189.268-1968.073l-155.681,52.187-7.478-22.317,155.681-52.178,7.477,22.308" transform="translate(-354.168 2433.239)" fill="#ffa15a"/>
      <path id="path208" d="M1330.006-1998.1l-58.681,19.663-7.477-22.308,58.676-19.663,7.483,22.308" transform="translate(-436.224 2443.602)" fill="#f78639"/>
      <path id="path210" d="M1132.467-1961.035s-33.729.568-52.165,13.848c-21.249,15.306-10.036,44.1-10.036,44.1l4.809-4.165,8.714,1.013s-9.115-31.415,8.767-42.233c15.462-9.36,39.91-12.564,39.91-12.564" transform="translate(-368.388 2423.109)" fill="#ffbe55"/>
      <path id="path212" d="M1192.732-1786.554l-11.353,3.807-54.837-163.615,11.353-3.807,54.837,163.615" transform="translate(-388.832 2419.359)" fill="#ffb93e"/>
      <g id="g214" transform="translate(1806.969 724.415)">
        <path id="path216" d="M2815.029-1503.968s-22.272,13.118-8.6,38.538c0,0-19.5-3.569-23.709-9.39a14.913,14.913,0,0,0,1.213,3.646s-17.927-4.062-23.792-11.541,22.9-97.084,69.491-73.878c0,0,42.613,7.9,25.923,55.21s-.918,51.482-.918,51.482-4.959,1-7.079.441c0,0-2.78-2-2.945-3.874,0,0-.094,2.85.483,3.916,0,0-17.455-2.9-24.263-11.572s-10.871-33.649-5.807-42.978" transform="translate(-2759.387 1560.42)" fill="#233862"/>
      </g>
      <g id="g218" transform="translate(1830.305 857.018)">
        <path id="path220" d="M2795.184-1357.925a.573.573,0,0,1-.079.03c-.135-.02-.1-.03.079-.03" transform="translate(-2795.023 1357.925)" fill="#ffb27d"/>
      </g>
      <g id="g222" transform="translate(1830.46 802.235)">
        <path id="path224" d="M2849.4-1402.38c.648,5.865,1.424,11.125,1.783,13.632.776,5.618-52.528,1.961-55.921,1.952,2.374-1.03,9.61-23.965,11.89-32.712,2.767-10.61,4.956-22.073,4.956-22.073l37.628,2.378,2.246.139a133.035,133.035,0,0,0-3.068,14.473c-.081.6-.174,1.218-.255,1.814-.683,4.992-.07,13.155.741,20.4" transform="translate(-2795.261 1441.582)" fill="#ffb27d"/>
      </g>
      <g id="g226" transform="translate(1837.08 729.147)">
        <path id="path228" d="M2810.4-1483.9s-6.1-19.349-4.863-34.187c.873-10.595,15.958-46.732,52.218-31.354a52.912,52.912,0,0,1,19.1,13.649c6.728,7.692,15.38,22.75-6.492,51.979L2864-1473.662l-53.6-10.235" transform="translate(-2805.369 1553.193)" fill="#233862"/>
      </g>
      <g id="g230" transform="translate(1847.095 803.317)">
        <path id="path232" d="M2858.158-1401.808c-26.338-7.712-37.5-38.122-37.5-38.122,11.122.326,25.644,8.055,37.01,15.911-.081.6-.173,1.219-.242,1.814-.694,4.993-.081,13.155.728,20.4" transform="translate(-2820.663 1439.93)" fill="#ed975d"/>
      </g>
      <g id="g234" transform="translate(1845.802 743.763)">
        <path id="path236" d="M2859.331-1443.88s-47.569-11.755-39.78-41.263,6.872-50.9,37.568-44.639,33.6,19.067,33.4,29.548-18.614,58.652-31.191,56.354" transform="translate(-2818.689 1530.874)" fill="#ffb27d"/>
      </g>
      <g id="g238" transform="translate(1834.153 739.786)">
        <path id="path240" d="M2872.756-1526.9s-22.135,31.174-43.382,31.024-28.473-7.767-28.473-7.767,18.475-8.085,27.234-28.412c0,0,39.2-13.906,44.622,5.156" transform="translate(-2800.9 1536.948)" fill="#233862"/>
      </g>
      <g id="g242" transform="translate(1902.039 748.117)">
        <path id="path244" d="M2904.567-1520.54s7.629,10.29,8.008,18.426-2.661,23.882,1.987,24.549c0,0,15.992-20.936,8.54-37.148-7.9-17.193-18.535-5.827-18.535-5.827" transform="translate(-2904.567 1524.224)" fill="#233862"/>
      </g>
      <g id="g246" transform="translate(1856.505 742.9)">
        <path id="path248" d="M2882.061-1521.645s-18.834,33.8-47.027,38.755c0,0,31.009-15.619,39.479-38.977s7.548.222,7.548.222" transform="translate(-2835.033 1532.192)" fill="#233862"/>
      </g>
      <g id="g250" transform="translate(1879.034 811.795)">
        <path id="path252" d="M2869.437-1426.943s.594,4.492,3.457,5.553,10.476,2.987,11.244,2.511a38.406,38.406,0,0,0,3.62-3.98s-11.978-4.6-18.322-4.084" transform="translate(-2869.437 1426.983)" fill="#fff"/>
      </g>
      <g id="g254" transform="translate(1772.92 1113.932)">
        <path id="path256" d="M2795.753-816.329q-.918,3.8-1.814,7.5c-3.581,14.9-6.921,28.716-9.012,40.286-2.738,15.044-3.385,26.237.208,30.944,14.765,19.366,0,173.062,0,173.062l-16.822,17.314s-29.219-151.74-37.156-175.516c-3.6-10.809-8.85-56.971-13.483-104.1-.242-2.358-.462-4.715-.7-7.072-.786-8.242-1.571-16.45-2.311-24.466-4.159-44.59-7.267-82.772-7.267-82.772s30.986-21.793,59.154-24.221c16.6-1.449,32.211,3.833,39.906,24.221,11.23,29.66-.15,80.878-10.7,124.822" transform="translate(-2707.393 965.596)" fill="#ffb27d"/>
      </g>
      <g id="g258" transform="translate(1793.904 1113.932)">
        <path id="path260" d="M2806.813-816.329c-23.037-16.634-55.445-46.232-67.195-94.752-2.253-24.125,16.764-47.052,37.988-54.291,16.6-1.449,32.211,3.833,39.906,24.221,11.23,29.66-.15,80.878-10.7,124.822" transform="translate(-2739.437 965.596)" fill="#ed975d"/>
      </g>
      <g id="g262" transform="translate(1936.461 970.126)">
        <path id="path264" d="M2965.943-1185.2l113.19,29.242v13.209s-112.647-1.318-119.909-13.865,6.719-28.586,6.719-28.586" transform="translate(-2957.133 1185.199)" fill="#ffb27d"/>
      </g>
      <g id="g266" transform="translate(1824.756 1086.811)">
        <path id="path268" d="M3020.241-688.049l-5.291,21.836s-153.108-79.078-172.909-94.271c-7.969-6.1-18.476-39.238-28.212-76.722-14.51-55.88-27.278-121.407-27.278-121.407s21.456-82.554,78.916-32.027c34.387,30.236,29.046,88.492,25.282,133.807-2.5,30.4-4.319,54.981,7.084,61.354,22.239,12.407,87.5,69.588,108.163,108.931l14.245-1.5" transform="translate(-2786.55 1007.012)" fill="#ffb27d"/>
      </g>
      <g id="g270" transform="translate(1714.762 858.764)">
        <path id="path272" d="M2702.532-1175.216c-39.992-10.172-83.952-72.207-83.952-72.207l11.263-9.771c11.656,13.743,60.134,37.414,60.134,37.414-.259-12.573.067-24.046.854-34.488,5.384-70.968,32.136-94.608,39.441-99.8a17.588,17.588,0,0,1,1.854-1.193s.023.516.068,1.493c.1,2.107.292,6.356.495,12.187,1.484,43.436,3.26,174.876-30.157,166.363" transform="translate(-2618.581 1355.259)" fill="#ffb27d"/>
      </g>
      <g id="g274" transform="translate(1762.891 853.071)">
        <path id="path276" d="M2759.573-1263.381c-2.08,50.624-9.646,100.758-31.691,97.527-27.026-3.937-34.063-29.153-35.491-47.9a107.891,107.891,0,0,1,.393-20.834s13.3-.061,15.447-2.043c10.219-9.43,7.184-101.946,12.243-111.551s37.852-15.772,37.852-15.772,3.305,50.533,1.248,100.571" transform="translate(-2692.077 1363.952)" fill="#fff"/>
      </g>
      <g id="g278" transform="translate(1763.206 918.892)">
        <path id="path280" d="M2759.733-1228.687c-2.077,50.624-9.646,100.759-31.689,97.528-27.018-3.937-34.058-29.154-35.485-47.9,6.637-.333,18.3-1.956,22.953-9.029,6.636-10.137,27.366-75.351,27.366-75.351s8.153,14.643,16.855,34.75" transform="translate(-2692.559 1263.437)" fill="#dfebfd"/>
      </g>
      <g id="g282" transform="translate(1785.617 835.218)">
        <path id="path284" d="M2941.983-1256.307c7.318,10.4,3.289,30.568-12.073,46.8-9.536,10.085-22.447,16.048-43.477,12.948-9.166-1.353-34.779-15.813-37.465-33.431-.481-3.2-.751-5.065-.751-5.065s-11.655,11.674-12.086,13.875c-.209.994-1.207,9.813-1.367,11.019-.185,1.458.863,6.809.863,6.809s-55.7,24.361-101.737-3.378c0,0-13.133-112.5-3.7-131.223,4.681-9.3,30.96-27.409,40.113-35.41,2.058-1.8,4.139-7.226,3.573-10.72-.456-2.953,2.932-7.929,5.778-7.023,5.507,1.763,21.079,9.468,32.044,6.528,5.458-1.45,12.369-7.759,17.654-6.315,6.48,1.765-.357,17.328,3.3,17.53,5.063.249,32.34,5.705,34.619,10.1.8,1.533,8.636,22.293,18.467,49.761v.07c18.443,51.523,45.5,41.858,56.24,57.12" transform="translate(-2726.781 1391.215)" fill="#fff"/>
      </g>
      <g id="g286" transform="translate(1858.789 948.985)">
        <path id="path288" d="M2886.78-1175.088s-1.357-42.914-4.832-42.39-53.491,48.677-41.6,67.938,46.436-25.547,46.436-25.547" transform="translate(-2838.522 1217.483)" fill="#dfebfd"/>
      </g>
      <g id="g290" transform="translate(1768.719 1015.34)">
        <path id="path292" d="M2877.518-964.152s-19.285,5.954-47.689,9.883c-35.17,4.863-84.338,6.619-128.244-9.883,0,0-3.616-65.345,6.779-99.4,10.406-34.07,15.276-50.37,15.276-50.37s41.686,10.452,84.016,2.349a137.079,137.079,0,0,0,17.758-4.584s26.112,55.435,33.284,79.192c7.2,23.767,18.82,72.81,18.82,72.81" transform="translate(-2700.977 1116.154)" fill="#2b478b"/>
      </g>
      <g id="g294" transform="translate(1864.686 1015.34)">
        <path id="path296" d="M2928.1-964.152s-19.286,5.954-47.689,9.883c-52.093-29.537-26.7-153.826-26.7-153.826q2.327-1.872,4.523-3.475a137.036,137.036,0,0,0,17.758-4.584s26.112,55.435,33.284,79.192c7.2,23.767,18.82,72.81,18.82,72.81" transform="translate(-2847.526 1116.154)" fill="#233862"/>
      </g>
      <g id="g298" transform="translate(1789.101 1003.981)">
        <path id="path300" d="M2778.65-1107.6c-30.889,0-43.619-10.626-44.56-11.35L2732.1-1133.5c.3.228,41.724,25.1,105.85,1.275l-1.36,11.019c-24.658,9.158-41.9,13.6-57.941,13.6" transform="translate(-2732.102 1133.5)" fill="#b64c41"/>
      </g>
      <g id="g302" transform="translate(2058.462 987.272)">
        <path id="path304" d="M3143.438-1146.921s20.76-10.234,29.03-11.22c8.244-1,22.119-1.328,22.119,0s-14.858,10.547-18.818,11.22-11.571,6.277-9.254,6.941,14.534-2.148,14.689,0-7.429,3.466-8.736,5.116c-1.333,1.65-5.953,3.633-13.382,2.638s-15.647-1.485-15.647-1.485v-13.21" transform="translate(-3143.438 1159.016)" fill="#ffb27d"/>
      </g>
      <g id="g306" transform="translate(1693.709 925.691)">
        <path id="path308" d="M2618.74-1221.954l-11.3,9.849s-20.047-14.651-21.011-20.658v-.6c0-6.243,12.729-19.208,23.3-19.689a5.7,5.7,0,0,1,2.881.716c5.634,3.527,6.3,18.2,6.248,25.784-.021,2.777-.117,4.6-.117,4.6" transform="translate(-2586.43 1253.055)" fill="#ffb27d"/>
      </g>
      <g id="g310" transform="translate(1852.034 1236.99)">
        <path id="path312" d="M3034.618-608.893l-5.291,21.836s-153.108-79.078-172.91-94.271c-7.969-6.1-18.476-39.238-28.212-76.722,13.07,2.681,41.282,4.113,76.92-19.627-2.5,30.4-4.319,54.981,7.084,61.354,22.239,12.408,87.5,69.588,108.163,108.931l14.245-1.5" transform="translate(-2828.205 777.677)" fill="#2b478b"/>
      </g>
      <g id="g314" transform="translate(2044.211 1384.185)">
        <path id="path316" d="M3166.181-522.833s-.039-.008-.143-.035c-.673-.174-3.833-1.213-5.917-6.216-1.373-3.3-1.787-6.008-3.043-9.273l-5.179-8.924c-5.4-7.115-7.3-5.448-7.3-5.448s-1.412,1.808-3.5,4.2c-3.444,3.947-8.741,9.448-12.483,10.862a10.982,10.982,0,0,0-5.361,4.182,10.3,10.3,0,0,0-1.579,3.676s11.1,1.929,10.139,7.4c-1.891,10.591-1.45,12.511-1.256,12.861l.065.07s18.931,9.91,24.992,11.857c10.773,3.448,16.406,10.774,19.889,14.118a6.255,6.255,0,0,0,5.309,1.676c2.836-.453,6.526-1.362,7.329-3.108l-21.961-37.9" transform="translate(-3121.676 552.898)" fill="#233862"/>
      </g>
      <g id="g318" transform="translate(1783.192 1252.688)">
        <path id="path320" d="M2790.543-664.463c14.763,19.366,0,173.062,0,173.062l-16.823,17.314S2744.5-625.827,2736.571-649.6c-3.6-10.81-8.846-56.972-13.493-104.1,14.008,6.252,48.192,19.864,76.276,18.012-3.582,14.9-6.924,28.717-9.018,40.286-2.735,15.044-3.387,26.237.206,30.943" transform="translate(-2723.078 753.705)" fill="#233862"/>
      </g>
      <g id="g322" transform="translate(1797.165 1509.28)">
        <path id="path324" d="M2814.808-331.142l-9.075,4.916c-3.3,1.162-6.015,1.5-9.351,2.777-5.072,1.938-8.638,5.762-8.811,6.443-2.553,10.408-6.188,9.745-6.188,9.745l-36.438.34c-1.725-.856,1.2-8.216,2.588-9.587,3.451-3.4,13.756-1.685,17.518-12.354,2.128-6,12.572-24.64,12.572-24.64l.08-.062c.356-.183,2.289-.576,12.825,1.616,5.44,1.126,7.684-9.919,7.684-9.919a10.241,10.241,0,0,1,3.623,1.7,10.79,10.79,0,0,1,4.026,5.466c1.311,3.78,6.66,9.228,10.5,12.79,2.324,2.158,4.106,3.624,4.106,3.624s1.611,1.947-5.659,7.142" transform="translate(-2744.416 361.867)" fill="#233862"/>
      </g>
      <g id="g326" transform="translate(1346.514 1119.712)">
        <path id="path328" d="M2210.975-511.058h-154.74V-956.769h154.74v445.711" transform="translate(-2056.235 956.769)" fill="#4a75cb"/>
      </g>
      <path id="path330" d="M1840.757-511.059H1431.943V-956.771h408.814v445.712" transform="translate(-494.244 2076.482)" fill="#739af0"/>
      <path id="path332" d="M1431.943-592.615v-31.2h408.814v31.2H1431.943" transform="translate(-494.244 1961.559)" fill="#afcdfb"/>
      <g id="g334" transform="translate(1346.514 1337.748)">
        <path id="path336" d="M2056.235-592.613v-31.2h154.74v31.2h-154.74" transform="translate(-2056.235 623.81)" fill="#88b3ff"/>
      </g>
      <g id="g338" transform="translate(1233.406 1072.683)">
        <path id="path340" d="M1886.026-988.417s125.327-56.884,212.688-35.266l-17.446,11.674,8.79,20.6s-97.19-25.337-206.547,6.348l2.515-3.361" transform="translate(-1883.511 1028.586)" fill="#4a75cb"/>
      </g>
      <path id="path342" d="M1719.781-1080.3s-16.293-1.973-40.583-5.308c-64.48-8.871-185.259-27.425-206.93-44.6-34.069-26.971,46.651-141.533,81.585-157.433,34.942-15.882,165.928,207.341,165.928,207.341" transform="translate(-505.327 2190.961)" fill="#72a9f7"/>
      <g id="g344" transform="translate(1212.054 841.63)">
        <path id="path346" d="M2108.835-1255.039c5.822,28.376-257.931,150.989-257.931,150.989s4.8-12.974,12.6-33.292l.018-.035c28.52-74.207,97.213-246.407,119.785-244.021a27.394,27.394,0,0,1,7.886,2.344c34.677,15.256,112.279,97.874,117.639,124.016" transform="translate(-1850.904 1381.423)" fill="#72a9f7"/>
      </g>
      <path id="path348" d="M1995.624-1353.814c-16.109,27.975-123.757,213.54-125.442,216.439,28.516-74.207,97.214-246.4,119.784-244.021a14.352,14.352,0,0,1,7.884,2.34c4.112,3,6.671,9.788-2.227,25.242" transform="translate(-645.504 2223.052)" fill="#4a75cb"/>
      <path id="path350" d="M1682.424-1018.955h-.044c-64.48-8.871-185.259-27.425-206.93-44.6-9.8-27.565,15.6-29.817,34.087-31.755,18.467-1.938,172.887,76.355,172.887,76.355" transform="translate(-508.509 2124.311)" fill="#4a75cb"/>
      <path id="path352" d="M1779.449-975.921s14.782-33.633,43.883-35.5c30.393-1.938,47.655,35.5,47.655,35.5h-91.538" transform="translate(-614.187 2095.37)" fill="#4a75cb"/>
      <path id="path354" d="M1840.784-895.469H1413.023v-61.3h427.761v61.3" transform="translate(-487.713 2076.482)" fill="#88b3ff"/>
      <g id="g356" transform="translate(1353.072 1119.709)">
        <path id="path358" d="M2227.482-895.471H2066.251v-61.3h161.231v61.3" transform="translate(-2066.251 956.773)" fill="#3969b7"/>
      </g>
      <path id="path360" d="M1695.955-972.524s-83.785-26.534-140.32-8.993c-65.161,20.23-61.3,100.636-61.3,100.636l15.323-6.3,20.693,9.7s3.492-85.138,56.622-97.065c45.935-10.3,108.983,2.017,108.983,2.017" transform="translate(-515.763 2087.093)" fill="#4a75cb"/>
      <path id="path362" d="M1720.166-507.217h-31.2V-956.771h31.2v449.554" transform="translate(-582.958 2076.482)" fill="#afcdfb"/>
      <path id="path364" d="M672.608-1270.873s115.231,84.448,143.418,82.414,128.008-63.633,128.008-63.633l-21.117-25.1s-90.4,33.493-106.958,24.255-81.207-87.618-108.334-83.436-53.929,35.143-35.017,65.5" transform="translate(-229.963 2207.56)" fill="#233862"/>
      <path id="path366" d="M540.017-304.181H505.57c-4.337-2.357-8.2-7.745-9.421-15.777-1.683-11.106-14.12-17.148-16.812-26.229s11.1-21.846,11.1-21.846l2.306-2.977,2.4-3.082L518-368.714s.567,5.448.91,12.39a158.361,158.361,0,0,1,.1,15.856c-.673,12.1,3.383,25.137,14.139,27.495,7.951,1.737,7.6,6.452,6.867,8.792" transform="translate(-165.326 1875.367)" fill="#233862"/>
      <path id="path368" d="M834.6-288.564H755.821c-3.788-4.619-2.392-21.68-1.82-27.25.119-1.126.2-1.781.2-1.781s26.9-21.514,30.6-5.038c.112.515.249,1.022.4,1.519,4.655,15.411,25.535,22.413,37.592,24.369,7.839,1.266,10.737,5.344,11.808,8.181" transform="translate(-259.996 1859.749)" fill="#233862"/>
      <path id="path370" d="M794.385-942.53S790.3-891.565,785.5-830.307c-6.526,83.217-14.372,185.434-15.149,204.8-1.341,33.624-6.727,87.408-6.727,87.408s-12.769,12.774-38.325,7.4c0,0-22.774-76.783-29.278-158.027-.1-1.327-.2-2.672-.3-4.008-6.051-82.7-15.461-256.847-15.461-256.847l114.129,7.055" transform="translate(-234.795 2074.001)" fill="#f99746"/>
      <path id="path372" d="M794.386-942.53S790.3-891.565,785.5-830.307L696.021-688.73c-.1-1.327-.2-2.672-.3-4.008-6.051-82.7-15.461-256.847-15.461-256.847l114.129,7.055" transform="translate(-234.795 2074.001)" fill="#ed7d2b"/>
      <path id="path374" d="M712.294-947.109S638.671-762.54,590.26-675.8s-63.538,110.939-63.538,110.939-27.736-11.1-30.256-18.659c0,0,18.512-167.448,50.932-208.266,18.319-23.068,39.837-92.28,40.846-116.492s6.556-72.1,6.556-72.1l117.5,33.275" transform="translate(-171.358 2084.632)" fill="#f99746"/>
      <path id="path376" d="M709.867-1367.648c-27.476,12.451-79.831-5.92-79.831-5.92s23.953-22.937,17.621-63.869l24.231,15.14,16.459,10.277a181.259,181.259,0,0,1,.663,19.829c-.037,3.335-.135,7.064-.332,11.15a68.732,68.732,0,0,1,21.19,13.394" transform="translate(-217.461 2242.386)" fill="#ffb27d"/>
      <path id="path378" d="M698.842-1404.045a181.259,181.259,0,0,1,.663,19.829c-16.966-.856-39.061-25.443-39.061-25.443a53.266,53.266,0,0,1,21.939-4.662l16.459,10.277" transform="translate(-227.956 2234.412)" fill="#ed975d"/>
      <path id="path380" d="M698.971-1441.376s-46.235,13.525-54.215-15.393-19.32-46.66,9.863-56.517,37.988-.41,43,8.6,13.174,59.049,1.352,63.31" transform="translate(-219.432 2270.013)" fill="#ffb27d"/>
      <path id="path382" d="M772.908-1102.157c1.441,13.324,2.113,21.627,1.792,21.959a4.657,4.657,0,0,1-2.866,1.51c-10.739,1.144-41.3,10.862-68.1,11.342-22.573.55-43.117-3.676-65.472-10.635-2.964-.926-9.869-3.606-10.1-6.767-.323-3.458-.581-8.5-.913-14.843-1.135-22.073-3.053-60.036-10.847-103.168-1.431-8.033-2.632-16.031-3.615-23.924-7.318-58.84-1.882-112.022,19.458-132.383,1.838-1.677,14.857,2.855,26.828,7.064a47.054,47.054,0,0,0,31.2.017l10.919,7.535c13.366,9.709,28.351,23.286,36.842,45.629,7.235,19.008,14.345,53.994,20.332,90.412,2.711,16.519,5.306,33.179,7.361,49.035l.069.576c.332,1.554.54,3.283.729,4.855q.572,4.23,1.105,8.312c2.226,16.939,4.027,32.052,5.269,43.473" transform="translate(-210.447 2215.459)" fill="#2b478b"/>
      <path id="path384" d="M640.125-1471.7s4.744-1.388,3.159-7.963-2.625-15.3,2.993-14.319,6.41,5.274,8.333,2.471.676-13.49,16.719-16.17,23.277,2.13,30.381-2.069,6.133-15.6,6.133-15.6-1.645,4.313-4.713,5.99c0,0,10.454-18.632-5.452-28.621s-29.755-.533-38.081.987c-18.343,3.353-30.145,5.893-34.717,18.763s1.98,46.284,15.246,56.535" transform="translate(-215.18 2282.104)" fill="#2b478b"/>
      <path id="path386" d="M791.225-1038.308c-2.267.41-41.7,7.491-68.5-10.163-27.6-18.178-59.935-125.965-59.935-125.965s61.993,68.942,63.2,71.657c1.008,2.3,45.712,16.5,59.974,21,2.226,16.939,4.027,32.052,5.269,43.473" transform="translate(-228.765 2151.611)" fill="#233862"/>
      <path id="path388" d="M1192.286-1188.156,885.62-1183.79l-4.364-306.667,306.664-4.366,4.366,306.667" transform="translate(-304.171 2262.194)" fill="#ed7d2b"/>
      <path id="path390" d="M1092.346-1186.738l-306.663,4.366-4.363-306.658,306.662-4.366,4.364,306.658" transform="translate(-269.677 2261.701)" fill="#f99746"/>
      <path id="path394" d="M996.772-1021.73c-10.352-.2-23.63-4.645-27.887-6.767a48.361,48.361,0,0,1-10.86-7.046l1.092-6.81,1.31-8.146s.8-.122,2.129-.262,3.183-.279,5.292-.323a6.879,6.879,0,0,0,6.225-1.484c2.811-2.515,8-4.217,11.923-3.274s12.355.061,12.622,1.432c.662,3.318-11.627,2.715-13.064,4.793a2.466,2.466,0,0,0,.126,3.388c.018.009.031.026.049.035,7.195,7.256,31.957,9.892,30.967,15.655-.374,2.148-15.543,8.888-19.924,8.81" transform="translate(-330.668 2110.768)" fill="#ffb27d"/>
      <path id="path396" d="M633.947-1259.7s56.718,131.117,82.066,143.611,141.01,2.785,141.01,2.785l.764-22.378s-99.618-19.733-109.23-36.069S722.8-1288.4,697.275-1298.5s-64.3,3.047-63.328,38.8" transform="translate(-218.804 2195.57)" fill="#2b478b"/>
      <g id="g398" transform="translate(2266.123 1097.966)">
        <path id="path400" d="M3615.484-801.064c-1.265.768-2.545,1.51-3.825,2.219-.457.244-.884.489-1.326.715-1.006.533-2.011,1.048-3.017,1.554a101.92,101.92,0,0,1-134.09-42.31,101.908,101.908,0,0,1,29.652-131.842,101.35,101.35,0,0,1,10.392-6.575c1.311-.716,2.621-1.4,3.947-2.06,1.3-.637,2.575-1.249,3.886-1.825a100.429,100.429,0,0,1,12.129-4.5,100.671,100.671,0,0,1,18.452-3.72,102.276,102.276,0,0,1,55.632,9.848,101.452,101.452,0,0,1,44.372,42.3,101.9,101.9,0,0,1-36.2,136.2" transform="translate(-3460.553 989.977)" fill="#ffb93e"/>
      </g>
      <g id="g402" transform="translate(2275.751 1108.08)">
        <path id="path404" d="M3568.05-969a87.414,87.414,0,0,0-42.066,10.861,86.775,86.775,0,0,0-41.719,52.186,86.783,86.783,0,0,0,7.409,66.4,87.38,87.38,0,0,0,76.526,45.167,87.416,87.416,0,0,0,42.066-10.861,86.773,86.773,0,0,0,41.718-52.188,86.79,86.79,0,0,0-7.409-66.4A87.379,87.379,0,0,0,3568.05-969Zm.151,180.161a92.879,92.879,0,0,1-81.365-48.04,92.172,92.172,0,0,1-7.878-70.609,92.173,92.173,0,0,1,44.349-55.5,92.929,92.929,0,0,1,44.743-11.551,92.946,92.946,0,0,1,81.38,48.031,92.238,92.238,0,0,1,7.863,70.609,92.184,92.184,0,0,1-44.349,55.5,93.014,93.014,0,0,1-44.743,11.552" transform="translate(-3475.256 974.532)" fill="#ffa412"/>
      </g>
      <g id="g406" transform="translate(2302.368 1132.572)">
        <path id="path408" d="M3582.151-937.131l20.465,41.482,45.785,6.653-33.132,32.288,7.827,45.595-40.945-21.531-40.959,21.531,7.828-45.595L3515.9-888.995l45.77-6.653,20.479-41.482" transform="translate(-3515.902 937.131)" fill="#ffa412"/>
      </g>
      <g id="g410" transform="translate(2394.675 932.304)">
        <path id="path412" d="M3744.3-1136.332c-.71.428-1.437.846-2.162,1.248-.247.139-.495.27-.741.4-.572.306-1.128.595-1.714.873a57.494,57.494,0,0,1-75.664-23.871,57.517,57.517,0,0,1,16.726-74.416,56.47,56.47,0,0,1,5.869-3.7c.741-.411,1.483-.8,2.224-1.171.726-.357,1.452-.706,2.193-1.03a56.57,56.57,0,0,1,6.857-2.541,56.9,56.9,0,0,1,10.41-2.1,57.638,57.638,0,0,1,31.384,5.554,57.23,57.23,0,0,1,25.051,23.879,57.5,57.5,0,0,1-20.434,76.871" transform="translate(-3656.862 1242.957)" fill="#ffb93e"/>
      </g>
      <g id="g414" transform="translate(2400.092 938.016)">
        <path id="path416" d="M3717.495-1231.109a49.338,49.338,0,0,0-23.729,6.13,48.993,48.993,0,0,0-23.544,29.459,48.939,48.939,0,0,0,4.183,37.473,49.338,49.338,0,0,0,43.2,25.487,49.339,49.339,0,0,0,23.729-6.13,48.947,48.947,0,0,0,23.545-29.45,48.935,48.935,0,0,0-4.183-37.475A49.33,49.33,0,0,0,3717.495-1231.109Zm.107,101.676a52.428,52.428,0,0,1-45.936-27.111,52.051,52.051,0,0,1-4.444-39.849,52.01,52.01,0,0,1,25.037-31.319,52.379,52.379,0,0,1,25.236-6.522,52.445,52.445,0,0,1,45.936,27.109,51.981,51.981,0,0,1,4.445,39.849,52.031,52.031,0,0,1-25.021,31.328,52.533,52.533,0,0,1-25.251,6.514" transform="translate(-3665.134 1234.234)" fill="#ffa412"/>
      </g>
      <g id="g418" transform="translate(2415.113 951.835)">
        <path id="path420" d="M3725.467-1213.13l11.563,23.417,25.831,3.755-18.7,18.222,4.415,25.732-23.112-12.155L3702.37-1142l4.4-25.732-18.7-18.222,25.846-3.755,11.548-23.417" transform="translate(-3688.072 1213.13)" fill="#ffa412"/>
      </g>
      <g id="g422" transform="translate(1414.036 218.609)">
        <path id="path424" d="M2241.108-2257.638c-.422.516-.844,1.022-1.294,1.528-.159.168-.3.337-.45.5-.356.385-.7.75-1.06,1.116a46.061,46.061,0,0,1-63.533,2.138,46.078,46.078,0,0,1-7.2-60.673,45.736,45.736,0,0,1,3.45-4.369c.45-.507.9-.994,1.369-1.472.45-.469.91-.919,1.378-1.369a47.168,47.168,0,0,1,4.5-3.741,45.3,45.3,0,0,1,7.3-4.36,46.2,46.2,0,0,1,25.2-4.172,45.9,45.9,0,0,1,25.288,11.364,46.058,46.058,0,0,1,5.044,63.514" transform="translate(-2159.348 2332.826)" fill="#cde0fb"/>
      </g>
      <g id="g426" transform="translate(1418.534 223.074)">
        <path id="path428" d="M2208.242-2323.5c-.785,0-1.561.028-2.337.065a39.245,39.245,0,0,0-27.194,13.153,39.176,39.176,0,0,0-9.928,28.531,39.18,39.18,0,0,0,13.144,27.194,39.176,39.176,0,0,0,28.531,9.928,39.158,39.158,0,0,0,27.194-13.144,39.223,39.223,0,0,0,9.938-28.531,39.21,39.21,0,0,0-13.153-27.194A39.149,39.149,0,0,0,2208.242-2323.5Zm-.112,81.451a41.654,41.654,0,0,1-27.867-10.638,41.644,41.644,0,0,1-13.976-28.923,41.675,41.675,0,0,1,10.554-30.335,41.691,41.691,0,0,1,28.923-13.985,41.68,41.68,0,0,1,30.344,10.563,41.7,41.7,0,0,1,13.975,28.923,41.681,41.681,0,0,1-10.563,30.335,41.668,41.668,0,0,1-28.914,13.985c-.832.047-1.664.075-2.477.075" transform="translate(-2166.216 2326.008)" fill="#afcdfb"/>
      </g>
      <g id="g430" transform="translate(1429.215 235.899)">
        <path id="path432" d="M2203.532-2306.423l14.964,14.6,20.524-4.049-9.266,18.754,10.2,18.263-20.7-3.021-14.223,15.335-3.521-20.608-18.986-8.784,18.523-9.729,2.483-20.765" transform="translate(-2182.526 2306.423)" fill="#afcdfb"/>
      </g>
      <path id="path434" d="M2001.522-394.839c-.751.925-1.528,1.834-2.323,2.724-.271.306-.542.6-.812.9q-.93,1.008-1.886,1.991a82.287,82.287,0,0,1-113.48,3.807,82.286,82.286,0,0,1-12.853-108.372,82.33,82.33,0,0,1,6.147-7.806c.8-.891,1.624-1.772,2.453-2.628.8-.829,1.633-1.65,2.462-2.436a82.512,82.512,0,0,1,8.032-6.688,81.145,81.145,0,0,1,13.053-7.788,82.55,82.55,0,0,1,45.009-7.448,81.814,81.814,0,0,1,45.167,20.291,82.283,82.283,0,0,1,9.028,113.454" transform="translate(-640.427 1928.882)" fill="#cde0fb"/>
      <path id="path436" d="M1942.815-512.515c-1.379,0-2.759.044-4.156.122a69.985,69.985,0,0,0-48.572,23.487,70.034,70.034,0,0,0-17.751,50.955,70.092,70.092,0,0,0,23.487,48.581,70.09,70.09,0,0,0,50.956,17.742,70.039,70.039,0,0,0,48.58-23.487A70,70,0,0,0,2013.1-446.07a70.047,70.047,0,0,0-23.478-48.581,69.994,69.994,0,0,0-46.808-17.864Zm-.192,145.48a74.409,74.409,0,0,1-49.768-19,74.471,74.471,0,0,1-24.98-51.663,74.454,74.454,0,0,1,18.868-54.186,74.462,74.462,0,0,1,51.663-24.971,74.407,74.407,0,0,1,54.186,18.868,74.435,74.435,0,0,1,24.98,51.654,74.525,74.525,0,0,1-18.868,54.195,74.5,74.5,0,0,1-51.663,24.971c-1.476.087-2.951.131-4.418.131" transform="translate(-644.664 1924.687)" fill="#afcdfb"/>
      <path id="path438" d="M1934.416-481.985l26.735,26.089,36.654-7.238-16.554,33.493,18.213,32.62-36.968-5.387-25.4,27.4-6.3-36.828-33.912-15.69,33.083-17.366,4.444-37.09" transform="translate(-654.722 1912.607)" fill="#afcdfb"/>
      <g id="g440" transform="translate(124.875 1564.227)">
        <path id="path442" d="M2596.336-271.568H193.423a2.739,2.739,0,0,1-2.728-2.732v-.926a2.739,2.739,0,0,1,2.728-2.732H2596.336a2.741,2.741,0,0,1,2.735,2.732v.926a2.741,2.741,0,0,1-2.735,2.732" transform="translate(-190.694 277.959)" fill="#2e3552"/>
      </g>
      <g id="g444" transform="translate(1568.325 999.806)">
        <path id="path446" d="M2445.542-1136.138s-11.392,7.771-24.065,6.5c-9.406-.952-18.662-9.657-19.02-10.233l-7.5,13.027s17.143,10.4,31.842,7.553c4.489-.873,11.789-5.344,15.1-8.7a12.763,12.763,0,0,0,3.645-8.146" transform="translate(-2394.959 1139.876)" fill="#6bb7bf"/>
      </g>
      <g id="g448" transform="translate(1602.5 968.599)">
        <path id="path450" d="M2463.25-1179.733l18.836-7.8s-2.582,39.143-34.939,51.1c0,0,20.443-26.8,16.1-43.307" transform="translate(-2447.147 1187.531)" fill="#86d1cd"/>
      </g>
      <g id="g452" transform="translate(1747.314 1444.322)">
        <path id="path454" d="M2671.717-461.064s8.222,9.316,16.314,9.132c0,0,1.074,10.189-1.855,12.9,0,0-13.841-2.532-17.182-7.588,0,0-2.788-12.153,2.723-14.441" transform="translate(-2668.29 461.064)" fill="#f99746"/>
      </g>
      <g id="g456" transform="translate(1605.08 1274.175)">
        <path id="path458" d="M2467.719-678.824s-7.452-9.037-7.343-19.846c.09-8.033,6.736-16.537,7.193-16.887l-11.591-5.335s-7.482,15.3-3.94,27.5c1.084,3.737,5.422,9.569,8.517,12.1a10.826,10.826,0,0,0,7.163,2.462" transform="translate(-2451.087 720.891)" fill="#cde0fb"/>
      </g>
      <g id="g460" transform="translate(1606.785 1303.607)">
        <path id="path462" d="M2491.56-665.652l8.04,15.323s-33.3.82-45.91-25.618c0,0,24.243,15.227,37.87,10.294" transform="translate(-2453.69 675.946)" fill="#cde0fb"/>
      </g>
      <path id="path438-2" data-name="path438" d="M1922.568-481.985l18.295,17.852,25.082-4.953-11.328,22.919,12.463,22.321-25.3-3.686-17.38,18.749-4.308-25.2-23.206-10.737,22.638-11.884,3.041-25.38" transform="translate(-1269.531 1360.614)" fill="#ed7d2b"/>
    </g>
  </g>
</svg>
