<?xml version="1.0" encoding="UTF-8" standalone="no"?>
<svg
   xmlns:dc="http://purl.org/dc/elements/1.1/"
   xmlns:cc="http://creativecommons.org/ns#"
   xmlns:rdf="http://www.w3.org/1999/02/22-rdf-syntax-ns#"
   xmlns:svg="http://www.w3.org/2000/svg"
   xmlns="http://www.w3.org/2000/svg"
   xmlns:sodipodi="http://sodipodi.sourceforge.net/DTD/sodipodi-0.dtd"
   xmlns:inkscape="http://www.inkscape.org/namespaces/inkscape"
   version="1.1"
   id="svg2"
   xml:space="preserve"
   width="640.98669"
   height="593.79999"
   viewBox="0 0 640.98669 593.79999"
   sodipodi:docname="3487339.eps"><metadata
     id="metadata8"><rdf:RDF><cc:Work
         rdf:about=""><dc:format>image/svg+xml</dc:format><dc:type
           rdf:resource="http://purl.org/dc/dcmitype/StillImage" /></cc:Work></rdf:RDF></metadata><defs
     id="defs6" /><sodipodi:namedview
     pagecolor="#ffffff"
     bordercolor="#666666"
     borderopacity="1"
     objecttolerance="10"
     gridtolerance="10"
     guidetolerance="10"
     inkscape:pageopacity="0"
     inkscape:pageshadow="2"
     inkscape:window-width="640"
     inkscape:window-height="480"
     id="namedview4" /><g
     id="g10"
     inkscape:groupmode="layer"
     inkscape:label="ink_ext_XXXXXX"
     transform="matrix(1.3333333,0,0,-1.3333333,0,593.8)"><g
       id="g12"
       transform="scale(0.1)"><path
         d="m 4103.35,2394.96 c 938.69,-547.88 938.69,-1436.171 -0.01,-1984.05 -938.7,-547.879 -2460.63,-547.89 -3399.32,-0.012 -938.696,547.883 -938.692,1436.172 0.007,1984.052 938.703,547.88 2460.633,547.89 3399.323,0.01"
         style="fill:#ededeb;fill-opacity:1;fill-rule:nonzero;stroke:none"
         id="path14" /><path
         d="m 1780.37,1577.07 c -374.38,-216.15 -374.38,-566.6 0.01,-782.75 374.38,-216.16 981.37,-216.16 1355.75,0 374.39,216.14 374.38,566.59 0,782.75 -374.38,216.14 -981.38,216.14 -1355.76,0"
         style="fill:#dadbd8;fill-opacity:1;fill-rule:nonzero;stroke:none"
         id="path16" /><path
         d="m 3817.97,1337.04 c -192.3,-111.02 -192.3,-291.03 0,-402.048 192.3,-111.031 504.07,-111.031 696.38,0 192.29,111.018 192.29,291.018 0,402.048 -192.31,111.02 -504.09,111.02 -696.38,0"
         style="fill:#dadbd8;fill-opacity:1;fill-rule:nonzero;stroke:none"
         id="path18" /><path
         d="m 289.629,1294.85 c -175.43,-101.29 -175.43,-265.5 0,-366.78 175.43,-101.281 459.851,-101.281 635.277,0 175.434,101.28 175.434,265.49 0,366.78 -175.426,101.28 -459.851,101.28 -635.277,0"
         style="fill:#dadbd8;fill-opacity:1;fill-rule:nonzero;stroke:none"
         id="path20" /><path
         d="m 4073.33,3869.73 -63.33,36.56 c 0.31,2.47 0.53,5.02 0.53,7.77 v 18.35 c 0,32.64 -22.92,72.35 -51.19,88.67 -11.45,6.61 -21.99,8.3 -30.51,5.89 -4.63,46.4 -36.85,98.89 -75.97,121.48 -42.29,24.42 -76.59,4.62 -76.59,-44.23 v -27.44 c 0,-12.65 2.34,-26.01 6.48,-39.29 l -52.59,30.37 c -15.69,9.05 -28.4,1.71 -28.4,-16.4 0,-18.1 12.71,-40.13 28.4,-49.18 l 343.17,-198.13 c 15.68,-9.05 28.4,-1.71 28.4,16.4 0,18.1 -12.72,40.13 -28.4,49.18"
         style="fill:#e7e8e5;fill-opacity:1;fill-rule:nonzero;stroke:none"
         id="path22" /><path
         d="m 4142.87,4329.43 34.94,-13.44 v 76.96 c 0,61 48.66,75.63 101.49,45.13 52.83,-30.51 95.66,-104.69 95.66,-165.69 v -11.18 c 11.99,4.78 27.47,2.93 44.4,-6.84 38.01,-21.95 68.83,-75.33 68.83,-119.23 v -5.08 l 48.71,-28.13 c 25.03,-14.45 45.34,-49.61 45.34,-78.51 0,-28.91 -20.31,-40.63 -45.34,-26.17 l -394.03,227.49 c -25.03,14.45 -45.33,49.61 -45.33,78.51 0,28.91 20.3,40.63 45.33,26.18"
         style="fill:#e7e8e5;fill-opacity:1;fill-rule:nonzero;stroke:none"
         id="path24" /><path
         d="m 835.336,3869.73 63.328,36.56 c -0.312,2.47 -0.535,5.02 -0.535,7.77 v 18.35 c 0,32.64 22.922,72.35 51.199,88.67 11.449,6.61 21.981,8.3 30.512,5.89 4.629,46.4 36.84,98.89 75.96,121.48 42.3,24.42 76.59,4.62 76.59,-44.23 v -27.44 c 0,-12.65 -2.34,-26.01 -6.49,-39.29 l 52.61,30.37 c 15.68,9.05 28.39,1.71 28.39,-16.4 0,-18.1 -12.71,-40.13 -28.39,-49.18 L 835.336,3804.15 c -15.684,-9.05 -28.398,-1.71 -28.398,16.4 0,18.1 12.714,40.13 28.398,49.18"
         style="fill:#e7e8e5;fill-opacity:1;fill-rule:nonzero;stroke:none"
         id="path26" /><path
         d="m 765.785,4329.43 -34.93,-13.44 v 76.96 c 0,61 -48.656,75.63 -101.488,45.13 -52.832,-30.51 -95.664,-104.69 -95.664,-165.69 v -11.18 c -11.988,4.78 -27.469,2.93 -44.394,-6.84 -38.02,-21.95 -68.84,-75.33 -68.84,-119.23 v -5.08 l -48.707,-28.13 c -25.039,-14.45 -45.332,-49.61 -45.332,-78.51 0,-28.91 20.293,-40.63 45.332,-26.17 l 394.023,227.49 c 25.039,14.45 45.34,49.61 45.34,78.51 0,28.91 -20.301,40.63 -45.34,26.18"
         style="fill:#e7e8e5;fill-opacity:1;fill-rule:nonzero;stroke:none"
         id="path28" /><path
         d="m 4483.16,1261.04 -30.01,37.03 c 0,0 -46.06,126.67 -29.31,270.96 19.33,166.57 96.01,226.67 149.75,208.37 39.84,-13.56 52.07,-59.3 -12.54,-154.8 -38.13,-56.35 -88.46,-215.39 -77.89,-361.56"
         style="fill:#26b6a6;fill-opacity:1;fill-rule:nonzero;stroke:none"
         id="path30" /><path
         d="m 4483.16,1261.04 -30.01,37.03 c 0,0 -32.94,90.59 -32.98,205.83 0,21.02 1.08,42.87 3.67,65.13 17.12,147.52 79.23,211.53 130.54,211.53 6.63,0 13.07,-1.07 19.21,-3.16 19.88,-6.76 32.89,-21.54 32.9,-46.52 0.01,-25.08 -13.07,-60.44 -45.44,-108.28 -34.63,-51.18 -79.32,-187.06 -79.31,-321.07 0,-13.54 0.45,-27.07 1.42,-40.49"
         style="fill:#19b19d;fill-opacity:1;fill-rule:nonzero;stroke:none"
         id="path32" /><path
         d="m 4465.44,1364.6 0.49,0.07 c 1.9,0.38 3.14,2.24 2.75,4.15 -29.72,146.24 19.39,311.63 81.93,380.98 1.29,1.45 1.19,3.68 -0.27,4.98 -1.44,1.29 -3.67,1.19 -4.97,-0.26 -63.68,-70.62 -113.76,-238.71 -83.59,-387.1 0.35,-1.75 1.94,-2.93 3.66,-2.82"
         style="fill:#ffffff;fill-opacity:1;fill-rule:nonzero;stroke:none"
         id="path34" /><path
         d="m 4473.55,1245.99 c 3.75,-3.77 7.46,-10.09 12.12,-12.65 3.68,-2 8.29,3.99 11.74,-2 1.89,-3.28 2.28,-7.68 5.41,-9.8 3.15,-2.13 7.62,-0.73 10.35,1.9 2.75,2.63 4.31,6.22 6.35,9.43 8.39,13.17 24.44,19.28 39.82,21.98 15.38,2.69 36.15,4.89 50.87,10.1 14.71,5.21 27.89,17.93 28.93,33.51 0.78,11.68 -6.11,19.46 -11.98,31.39 -6.81,13.82 0.94,26.08 11.1,34.95 10.9,9.51 30.46,15.98 43.08,23.07 12.62,7.08 32.68,21.69 35.41,35.9 6.68,34.96 -30.26,36.83 -31.39,61.57 -0.74,16.46 11.58,30.53 15.18,46.61 3.38,15.16 4.36,32.54 -6.94,43.19 -11.29,10.66 -31.11,9.21 -46.04,4.94 -19.09,-5.47 -35.46,-16.75 -50.38,-28.73 -17.55,-14.07 -29.27,-23.72 -50.53,-15.11 -29.8,12.07 -58.9,-11.83 -57.52,-54.16 0.54,-16.58 6.33,-33.34 -1.92,-47.73 -7.42,-12.96 -28.98,-12.79 -39.99,-22.88 -15.53,-14.22 -21.06,-35.77 -19.51,-56.78 2.63,-35.95 20.22,-82.99 45.84,-108.7"
         style="fill:#26b6a6;fill-opacity:1;fill-rule:nonzero;stroke:none"
         id="path36" /><path
         d="m 4489.44,1223.92 -0.04,-0.01 c -2.02,-0.19 -3.8,1.28 -4,3.29 -12.22,124.49 90.82,276.36 170.06,330.42 1.64,1.15 3.94,0.72 5.09,-0.95 1.14,-1.67 0.71,-3.96 -0.96,-5.09 -77.74,-53.05 -178.85,-201.84 -166.9,-323.66 0.19,-2 -1.25,-3.78 -3.25,-4"
         style="fill:#fafaf9;fill-opacity:1;fill-rule:nonzero;stroke:none"
         id="path38" /><path
         d="m 4535.6,1405.21 c -1.29,-0.12 -2.61,0.46 -3.36,1.63 -1.08,1.67 -0.6,3.88 1.06,4.95 45.16,29.11 97.25,39.42 132.72,26.33 1.85,-0.69 2.81,-2.76 2.13,-4.61 -0.71,-1.86 -2.75,-2.81 -4.61,-2.13 -33.42,12.37 -83.01,2.32 -126.35,-25.61 l -1.59,-0.56"
         style="fill:#fafaf9;fill-opacity:1;fill-rule:nonzero;stroke:none"
         id="path40" /><path
         d="m 353.414,1221.66 23.371,41.54 c 0,0 24.145,132.6 -16.594,272.03 -47.027,160.96 -132.711,207.33 -182.613,180.27 -36.996,-20.06 -41.379,-67.2 38.36,-150.5 47.042,-49.15 123.371,-197.48 137.476,-343.34"
         style="fill:#26b6a6;fill-opacity:1;fill-rule:nonzero;stroke:none"
         id="path42" /><path
         d="m 353.414,1221.66 c -14.105,145.86 -90.434,294.19 -137.476,343.34 -45.864,47.91 -63.899,83.87 -63.903,109.58 -0.004,18.99 9.828,32.4 25.543,40.92 8.766,4.76 18.625,7.24 29.195,7.24 49.606,0 114.653,-54.82 153.418,-187.51 18.657,-63.86 23.707,-126.29 23.7,-175.2 -0.012,-57.88 -7.106,-96.83 -7.106,-96.83 l -23.371,-41.54"
         style="fill:#19b19d;fill-opacity:1;fill-rule:nonzero;stroke:none"
         id="path44" /><path
         d="m 353.5,1326.72 -0.492,-0.02 c -1.942,0.06 -3.473,1.69 -3.406,3.63 4.746,149.16 -71.434,303.95 -144.727,361.83 -1.531,1.2 -1.789,3.42 -0.582,4.94 1.211,1.52 3.422,1.79 4.949,0.59 74.637,-58.94 152.219,-216.23 147.399,-367.58 -0.055,-1.78 -1.422,-3.21 -3.141,-3.39"
         style="fill:#ffffff;fill-opacity:1;fill-rule:nonzero;stroke:none"
         id="path46" /><path
         d="m 344.359,1189.98 c -2.586,-7.01 -6.062,-6.14 -13.046,-4.01 -5.2,1.59 -10.043,4.21 -15.235,5.77 -10.215,3.08 -20.617,5.54 -31.133,7.36 -19.082,3.32 -38.465,1.79 -57.422,5.07 -15.382,2.67 -30.5,13 -34.148,28.18 -2.734,11.39 2.754,20.21 6.543,32.96 4.391,14.76 -5.305,25.55 -16.813,32.59 -12.347,7.54 -32.714,10.64 -46.343,15.5 -13.633,4.87 -35.864,15.9 -40.93,29.45 -12.4609,33.34 23.641,41.38 20.594,65.97 -2.02,16.35 -16.5393,28.16 -22.7776,43.4 -5.8789,14.38 -9.7695,31.34 -0.4218,43.74 9.3514,12.4 29.1324,14.31 44.5664,12.6 19.742,-2.18 37.766,-10.56 54.492,-19.86 19.653,-10.93 32.832,-18.47 52.344,-6.41 27.359,16.9 60.043,-1.78 65.793,-43.74 2.25,-16.43 -0.641,-33.93 9.91,-46.73 9.492,-11.53 30.715,-7.74 43.262,-15.83 17.707,-11.42 26.761,-31.73 28.769,-52.7 3.438,-35.9 -6,-85.21 -26.937,-114.86 -3.067,-4.34 -5.656,-11.2 -9.828,-14.5 -3.282,-2.6 -8.84,2.53 -11.239,-3.95"
         style="fill:#26b6a6;fill-opacity:1;fill-rule:nonzero;stroke:none"
         id="path48" /><path
         d="m 353.457,1184 h 0.051 c 2.015,0.15 3.539,1.9 3.39,3.92 -8.867,124.77 -135.929,257.18 -223.125,297.18 -1.808,0.86 -4.007,0.04 -4.859,-1.8 -0.848,-1.84 -0.031,-4.02 1.805,-4.86 85.547,-39.24 210.199,-168.94 218.871,-291.04 0.148,-2 1.867,-3.52 3.867,-3.4"
         style="fill:#fafaf9;fill-opacity:1;fill-rule:nonzero;stroke:none"
         id="path50" /><path
         d="m 277.523,1354.98 c 1.297,0.09 2.497,0.88 3.04,2.16 0.781,1.82 -0.063,3.92 -1.879,4.71 -49.403,21.11 -102.493,22.53 -135.25,3.67 -1.719,-1 -2.309,-3.2 -1.329,-4.9 1.004,-1.72 3.18,-2.31 4.899,-1.33 30.871,17.8 81.449,16.22 128.855,-4.03 l 1.664,-0.28"
         style="fill:#fafaf9;fill-opacity:1;fill-rule:nonzero;stroke:none"
         id="path52" /><path
         d="m 2802.15,1200.98 c -48.31,89.79 -19.88,191.46 21.55,262.66 44,75.59 -12.27,125.12 -69.14,68.17 -56.87,-56.94 -54.74,-202.46 12.09,-316.1 l 35.5,-14.73"
         style="fill:#273e47;fill-opacity:1;fill-rule:nonzero;stroke:none"
         id="path54" /><path
         d="m 2783.68,1527.87 c -17.23,-22.12 -45.7,-77.01 -45.72,-155.26 0,-40.39 7.61,-86.96 28.3,-138.32 0.51,-1.28 1.97,-1.9 3.25,-1.38 1.28,0.51 1.9,1.97 1.38,3.25 -20.45,50.78 -27.93,96.69 -27.93,136.45 -0.02,76.98 28.15,131.03 44.67,152.18 0.85,1.09 0.65,2.66 -0.44,3.51 -1.09,0.85 -2.66,0.66 -3.51,-0.43"
         style="fill:#fafaf9;fill-opacity:1;fill-rule:nonzero;stroke:none"
         id="path56" /><path
         d="m 2777.58,1230.97 c -14.16,55.72 25.02,148.07 84.63,186.81 53.63,34.86 85.18,32.41 100.78,12.92 14.58,-18.21 -8.71,-48.93 -49.97,-73.9 -41.26,-24.98 -108.44,-80.06 -110.77,-143.23 l -24.67,17.4"
         style="fill:#33535f;fill-opacity:1;fill-rule:nonzero;stroke:none"
         id="path58" /><path
         d="m 2928.05,1421.3 c -29.4,-7.72 -62.08,-31.96 -89.14,-65.29 -27.03,-33.34 -48.38,-75.83 -54.48,-120.29 -0.19,-1.37 0.77,-2.63 2.14,-2.82 1.36,-0.18 2.62,0.77 2.81,2.14 5.93,43.32 26.87,85.09 53.41,117.82 26.52,32.74 58.71,56.36 86.53,63.61 1.33,0.35 2.13,1.71 1.78,3.05 -0.35,1.34 -1.72,2.13 -3.05,1.78"
         style="fill:#fafaf9;fill-opacity:1;fill-rule:nonzero;stroke:none"
         id="path60" /><path
         d="m 2108.77,1198.39 c 48.31,89.79 19.89,191.46 -21.55,262.67 -43.99,75.58 12.28,125.11 69.15,68.16 56.86,-56.94 54.73,-202.46 -12.1,-316.09 l -35.5,-14.74"
         style="fill:#273e47;fill-opacity:1;fill-rule:nonzero;stroke:none"
         id="path62" /><path
         d="m 2123.29,1522.2 c 16.53,-21.15 44.7,-75.2 44.68,-152.18 -0.01,-39.76 -7.49,-85.66 -27.94,-136.45 -0.52,-1.28 0.1,-2.74 1.38,-3.25 1.29,-0.52 2.74,0.1 3.26,1.38 20.68,51.36 28.3,97.93 28.29,138.32 -0.02,78.25 -28.49,133.15 -45.73,155.26 -0.84,1.09 -2.41,1.28 -3.5,0.43 -1.09,-0.85 -1.29,-2.42 -0.44,-3.51"
         style="fill:#fafaf9;fill-opacity:1;fill-rule:nonzero;stroke:none"
         id="path64" /><path
         d="m 2133.34,1228.38 c 14.16,55.72 -25.02,148.08 -84.62,186.82 -53.63,34.85 -85.19,32.4 -100.79,12.92 -14.58,-18.22 8.71,-48.94 49.98,-73.91 41.26,-24.98 108.43,-80.05 110.77,-143.22 l 24.66,17.39"
         style="fill:#33535f;fill-opacity:1;fill-rule:nonzero;stroke:none"
         id="path66" /><path
         d="m 1981.61,1413.88 c 27.82,-7.24 60,-30.87 86.52,-63.61 26.54,-32.72 47.48,-74.5 53.42,-117.82 0.19,-1.36 1.45,-2.32 2.81,-2.13 1.37,0.18 2.33,1.44 2.14,2.81 -6.11,44.46 -27.46,86.95 -54.49,120.29 -27.05,33.33 -59.74,57.57 -89.13,65.3 -1.34,0.35 -2.7,-0.45 -3.05,-1.79 -0.35,-1.33 0.45,-2.7 1.78,-3.05"
         style="fill:#fafaf9;fill-opacity:1;fill-rule:nonzero;stroke:none"
         id="path68" /><path
         d="m 2783.67,1122.66 c 3.56,5.16 6.7,10.4 9.5,15.69 0.77,1.44 1.46,2.88 2.16,4.33 2.23,4.57 4.17,9.17 5.83,13.8 0.53,1.44 1.1,2.88 1.57,4.33 1.85,5.8 3.38,11.63 4.37,17.49 l 0.08,0.36 c 0.97,5.95 1.4,11.93 1.48,17.91 0.02,1.76 -0.12,3.53 -0.18,5.3 -0.13,4.16 -0.45,8.32 -1.03,12.48 -0.3,2.13 -0.64,4.27 -1.05,6.41 -0.77,3.98 -1.8,7.95 -2.97,11.91 -0.6,1.97 -1.08,3.96 -1.77,5.92 -1.95,5.59 -4.25,11.14 -7.02,16.63 -0.88,1.73 -2,3.42 -2.96,5.15 -2.18,3.92 -4.47,7.82 -7.08,11.67 -1.54,2.31 -3.26,4.57 -4.96,6.84 -1.26,1.69 -2.33,3.42 -3.68,5.09 -1.9,2.13 -3.9,4.51 -5.93,6.87 -1.07,1.22 -2.16,2.42 -3.27,3.62 -75.49,86.83 -186.53,141.46 -310.68,141.46 -124.3,0 -235.46,-54.75 -310.96,-141.77 -0.91,-0.97 -1.79,-1.96 -2.67,-2.94 -2.16,-2.49 -4.24,-5 -6.23,-7.24 -1.43,-1.78 -2.58,-3.6 -3.92,-5.39 -1.56,-2.1 -3.15,-4.21 -4.59,-6.34 -2.81,-4.15 -5.31,-8.34 -7.62,-12.57 -0.79,-1.44 -1.74,-2.86 -2.47,-4.3 -2.83,-5.6 -5.18,-11.26 -7.17,-16.95 -0.61,-1.75 -1.03,-3.51 -1.56,-5.27 -1.27,-4.2 -2.35,-8.43 -3.16,-12.67 -0.38,-1.94 -0.69,-3.89 -0.96,-5.84 -0.62,-4.42 -0.98,-8.84 -1.1,-13.27 -0.04,-1.54 -0.17,-3.06 -0.15,-4.59 0.12,-12.12 2.14,-24.22 6,-36.16 0.4,-1.27 0.9,-2.52 1.35,-3.78 1.74,-4.87 3.78,-9.69 6.13,-14.49 0.62,-1.26 1.21,-2.51 1.88,-3.76 2.94,-5.58 6.23,-11.09 10.02,-16.53 l 0.44,-0.69 c 4.21,-6 8.96,-11.89 14.21,-17.68 l 1.06,-1.1 c 4.69,-5.09 9.83,-10.07 15.33,-14.96 1.25,-1.13 2.56,-2.23 3.86,-3.34 5.04,-4.3 10.4,-8.51 16.08,-12.62 1.39,-1.02 2.71,-2.04 4.13,-3.03 7.18,-5.01 14.67,-9.91 22.81,-14.6 137.53,-79.501 361,-79.501 498.53,0 8.07,4.64 15.51,9.5 22.64,14.47 1.61,1.12 3.1,2.28 4.67,3.42 5.45,3.96 10.6,8.01 15.47,12.14 1.45,1.24 2.9,2.48 4.31,3.73 5.27,4.7 10.18,9.48 14.7,14.36 l 1.61,1.67 c 5.16,5.69 9.82,11.49 13.98,17.39 l 0.94,1.44"
         style="fill:#26b6a6;fill-opacity:1;fill-rule:nonzero;stroke:none"
         id="path70" /><path
         d="m 2524.85,1037.66 c -4.86,0 -9.71,0.06 -14.56,0.18 30.94,12.12 31.36,46.41 9.25,138.89 -16.45,68.83 -49.77,138.12 -63.46,138.12 -13.68,0 -47,-69.29 -63.45,-138.12 -15.93,-66.66 -20.16,-103.09 -9.69,-122.77 -25.09,5.88 -48.71,13.2 -70.16,21.69 24.94,16.1 32.42,57.45 42.97,89.91 31.85,98.01 61.51,153.28 46.49,157.05 -2.09,0.52 -4.57,0.81 -7.42,0.81 -19.16,0 -55.03,-13.16 -101.58,-57.49 -36.96,-35.2 -75.79,-82.63 -82.26,-122.81 -13.47,15.79 -23.24,32.77 -29.63,50.2 17.69,19.33 42.57,51.89 71.97,79.34 54.55,50.92 94.71,69.55 116.75,77.54 2.7,-1.99 5.65,-3.91 8.83,-5.75 21.31,-12.3 49.25,-18.46 77.19,-18.46 0,0 0,0 -0.01,0 v 0 0 h 0.01 v 0 0 0 0 c 27.94,0 55.88,6.16 77.19,18.46 3.18,1.84 6.12,3.76 8.83,5.75 22.04,-7.99 62.19,-26.62 116.74,-77.54 42.13,-39.33 74.97,-89.14 90.7,-95.51 0.69,-0.28 1.37,-0.42 2.04,-0.42 14.56,0 23.34,64.37 -2.04,97.28 -26.55,34.41 -74.36,75.13 -128.63,91.39 -15.76,4.72 -31.66,6.51 -45.96,6.51 -4.9,0 -9.62,-0.21 -14.07,-0.58 2.91,5.77 4.36,11.73 4.36,17.69 v 0 0 c -7.52,12.5 -14.21,24.84 -20.18,37.3 87.69,-19.25 164.79,-66.41 221.69,-131.86 1.11,-1.2 2.2,-2.4 3.27,-3.62 2.03,-2.36 4.03,-4.74 5.93,-6.87 1.35,-1.67 2.42,-3.4 3.68,-5.09 1.7,-2.27 3.42,-4.53 4.96,-6.84 2.61,-3.85 4.9,-7.75 7.08,-11.67 0.96,-1.73 2.08,-3.42 2.96,-5.15 2.77,-5.49 5.07,-11.04 7.02,-16.63 0.69,-1.96 1.17,-3.95 1.77,-5.92 1.17,-3.96 2.2,-7.93 2.97,-11.91 0.41,-2.14 0.75,-4.28 1.05,-6.41 0.58,-4.16 0.9,-8.32 1.03,-12.48 0.05,-1.66 0.18,-3.31 0.18,-4.97 0,-0.11 0,-0.22 0,-0.33 -0.08,-5.98 -0.51,-11.96 -1.48,-17.91 l -0.08,-0.36 c -0.99,-5.86 -2.52,-11.69 -4.37,-17.49 -0.47,-1.45 -1.04,-2.89 -1.57,-4.33 -1.66,-4.63 -3.6,-9.23 -5.83,-13.8 -0.7,-1.45 -1.39,-2.89 -2.16,-4.33 -2.8,-5.29 -5.94,-10.53 -9.5,-15.69 l -0.94,-1.44 c -4.16,-5.9 -8.82,-11.7 -13.98,-17.39 v 0 c -66.18,-46.95 -155.58,-66.17 -243.9,-66.17 m -7.5,285.76 c -2.85,0 -5.33,-0.29 -7.42,-0.81 -15.01,-3.77 14.64,-59.04 46.5,-157.05 13.38,-41.21 21.84,-96.75 67.35,-96.75 11.62,-0.01 25.65,3.62 42.8,12.02 77.67,38.06 12.53,127.79 -47.65,185.1 -46.55,44.33 -82.42,57.49 -101.58,57.49 m -310.53,-269.38 c -8.14,4.69 -15.63,9.59 -22.81,14.6 7.18,-5.01 14.68,-9.91 22.81,-14.6 m -62.21,48.55 -1.06,1.1 c -5.25,5.79 -10,11.68 -14.21,17.68 4.22,-6 8.96,-11.89 14.21,-17.67 l 1.06,-1.11 m -35.09,58.03 c -3.83,11.85 -5.85,23.85 -6,35.87 0.15,-12.02 2.17,-24.02 6,-35.87 m -6.01,36.44 v 0 c 0,1.44 0.12,2.87 0.16,4.31 0.12,4.43 0.48,8.85 1.1,13.27 0.27,1.95 0.58,3.9 0.96,5.84 0.81,4.24 1.89,8.47 3.16,12.67 0.53,1.76 0.95,3.52 1.56,5.27 1.99,5.69 4.34,11.35 7.17,16.95 0.73,1.44 1.68,2.86 2.47,4.3 0.07,0.13 0.14,0.26 0.22,0.4 -0.08,-0.14 -0.15,-0.27 -0.22,-0.4 -0.79,-1.44 -1.74,-2.86 -2.47,-4.3 -2.83,-5.6 -5.18,-11.26 -7.17,-16.95 -0.61,-1.75 -1.03,-3.51 -1.56,-5.27 -1.27,-4.21 -2.35,-8.43 -3.16,-12.67 -0.37,-1.94 -0.69,-3.89 -0.96,-5.84 -0.62,-4.42 -0.98,-8.84 -1.1,-13.27 -0.04,-1.44 -0.16,-2.87 -0.16,-4.31 m 75.93,96.49 c 8.99,28.17 25.84,53.89 48.98,73.81 -30.05,-19.99 -57.37,-43.77 -81.19,-70.79 56.73,64.36 133.13,110.71 219.88,129.76 -5.97,-12.47 -12.66,-24.81 -20.19,-37.31 v 0 0 c 0,-5.96 1.46,-11.92 4.37,-17.69 -4.46,0.37 -9.17,0.58 -14.07,0.58 -14.31,0 -30.21,-1.79 -45.97,-6.51 -44.23,-13.26 -84.18,-42.76 -111.81,-71.85 m -33.91,1.07 c 0.02,0.03 0.04,0.05 0.07,0.08 -0.03,-0.03 -0.05,-0.05 -0.07,-0.08 m 0.88,1.01 c 0.02,0.03 0.05,0.06 0.07,0.09 -0.02,-0.03 -0.04,-0.06 -0.07,-0.09 m 0.46,0.53 c 0.03,0.03 0.07,0.08 0.1,0.11 -0.03,-0.04 -0.07,-0.08 -0.1,-0.11"
         style="fill:#14b099;fill-opacity:1;fill-rule:nonzero;stroke:none"
         id="path72" /><path
         d="m 2623.78,1068.81 c -45.51,0 -53.97,55.54 -67.35,96.75 -31.86,98.01 -61.51,153.28 -46.5,157.05 2.09,0.52 4.57,0.81 7.42,0.81 19.16,0 55.03,-13.16 101.58,-57.49 60.18,-57.31 125.32,-147.04 47.65,-185.1 -17.15,-8.4 -31.18,-12.03 -42.8,-12.02"
         style="fill:#1db3a0;fill-opacity:1;fill-rule:nonzero;stroke:none"
         id="path74" /><path
         d="m 2751.59,1176.73 c -0.67,0 -1.35,0.14 -2.04,0.42 -15.73,6.37 -48.57,56.18 -90.7,95.51 -54.55,50.92 -94.7,69.55 -116.74,77.54 8.73,6.43 14.99,13.62 18.78,21.13 4.45,0.37 9.17,0.58 14.07,0.58 14.3,0 30.2,-1.79 45.96,-6.51 54.27,-16.26 102.08,-56.98 128.63,-91.39 25.38,-32.91 16.6,-97.28 2.04,-97.28"
         style="fill:#1db3a0;fill-opacity:1;fill-rule:nonzero;stroke:none"
         id="path76" /><path
         d="m 2510.29,1037.84 c -44.06,1.04 -87.51,6.77 -127.35,16.12 -10.47,19.68 -6.24,56.11 9.69,122.77 16.45,68.83 49.77,138.12 63.45,138.12 13.69,0 47.01,-69.29 63.46,-138.12 22.11,-92.48 21.69,-126.77 -9.25,-138.89"
         style="fill:#1db3a0;fill-opacity:1;fill-rule:nonzero;stroke:none"
         id="path78" /><path
         d="m 2312.78,1075.65 c -20.07,7.95 -38.23,16.92 -53.83,26.7 -19.43,12.18 -35.33,25.96 -47.97,40.77 6.47,40.18 45.3,87.61 82.26,122.81 46.55,44.33 82.42,57.49 101.58,57.49 2.85,0 5.33,-0.29 7.42,-0.81 15.02,-3.77 -14.64,-59.04 -46.49,-157.05 -10.55,-32.46 -18.03,-73.81 -42.97,-89.91"
         style="fill:#1db3a0;fill-opacity:1;fill-rule:nonzero;stroke:none"
         id="path80" /><path
         d="m 2181.35,1193.32 c -12.21,33.31 -12.09,68.33 -1.91,100.23 27.63,29.09 67.58,58.59 111.81,71.85 15.76,4.72 31.66,6.51 45.97,6.51 4.9,0 9.61,-0.21 14.07,-0.58 3.79,-7.51 10.05,-14.7 18.78,-21.13 -22.04,-7.99 -62.2,-26.62 -116.75,-77.54 -29.4,-27.45 -54.28,-60.01 -71.97,-79.34"
         style="fill:#1db3a0;fill-opacity:1;fill-rule:nonzero;stroke:none"
         id="path82" /><path
         d="m 2456.08,1734.78 c -9.78,0 -19.57,-2.16 -27.03,-6.47 -6.69,-3.86 -10.21,-8.8 -10.92,-13.84 h -0.17 c -6.85,-161.48 -19.4,-239.66 -71.04,-325.45 0,-16.13 10.66,-32.26 31.98,-44.57 21.32,-12.31 49.25,-18.46 77.19,-18.46 h -0.01 c 27.94,0 55.88,6.15 77.2,18.46 21.32,12.31 31.97,28.44 31.97,44.57 -51.63,85.79 -64.19,163.97 -71.04,325.45 h -0.17 c -0.71,5.04 -4.23,9.98 -10.91,13.84 -7.48,4.31 -17.25,6.47 -27.05,6.47"
         style="fill:#26b6a6;fill-opacity:1;fill-rule:nonzero;stroke:none"
         id="path84" /><path
         d="m 2456.09,1325.99 h -0.01 c 0.01,0 0.01,0 0.01,0 v 0 m 0,0 c -27.94,0 -55.88,6.16 -77.19,18.46 -3.18,1.84 -6.13,3.76 -8.83,5.75 -8.73,6.43 -14.99,13.62 -18.78,21.13 -2.91,5.77 -4.37,11.73 -4.37,17.69 46.34,76.99 61.21,147.85 68.72,278.27 0.04,0.01 0.05,0.01 0.09,0.01 -2.09,-39.94 -4.76,-78.9 -8.51,-116.03 32.4,0.62 64.8,2.57 97.16,5.79 -3.6,36.88 -6.16,75.49 -8.18,115.02 l 0.06,0.01 c 7.44,-133.5 22.1,-205.15 68.99,-283.07 0,-5.96 -1.45,-11.92 -4.36,-17.69 -3.79,-7.51 -10.05,-14.7 -18.78,-21.13 -2.71,-1.99 -5.65,-3.91 -8.83,-5.75 -21.31,-12.3 -49.25,-18.46 -77.19,-18.46"
         style="fill:#06ab91;fill-opacity:1;fill-rule:nonzero;stroke:none"
         id="path86" /><path
         d="m 2407.22,1551.27 c 3.75,37.13 6.42,76.09 8.51,116.03 26.83,0.7 53.67,2.29 80.47,4.78 2.02,-39.53 4.58,-78.14 8.18,-115.02 -32.36,-3.22 -64.76,-5.17 -97.16,-5.79"
         style="fill:#08907c;fill-opacity:1;fill-rule:nonzero;stroke:none"
         id="path88" /><path
         d="m 2136.22,1283.97 c 1.99,2.25 4.07,4.75 6.23,7.24 -2.16,-2.49 -4.24,-5 -6.23,-7.24 m 8.9,10.18 c 0.14,0.16 0.27,0.32 0.41,0.47 -0.13,-0.15 -0.27,-0.31 -0.41,-0.47 m 0.48,0.55 c 0.27,0.31 0.54,0.62 0.81,0.93 -0.27,-0.31 -0.54,-0.62 -0.81,-0.93 m 0.88,1.02 c 0.13,0.14 0.26,0.29 0.39,0.44 -0.13,-0.15 -0.26,-0.3 -0.39,-0.44 m 0.49,0.55 c 0.09,0.1 0.18,0.2 0.26,0.3 -0.08,-0.1 -0.17,-0.2 -0.26,-0.3"
         style="fill:#1f3239;fill-opacity:1;fill-rule:nonzero;stroke:none"
         id="path90" /><path
         d="m 2120.72,1260.82 v 0 c 2.14,3.84 4.44,7.65 6.99,11.42 1.44,2.13 3.02,4.24 4.59,6.34 -1.56,-2.1 -3.15,-4.21 -4.59,-6.34 -2.55,-3.77 -4.85,-7.58 -6.99,-11.42"
         style="fill:#29444e;fill-opacity:1;fill-rule:nonzero;stroke:none"
         id="path92" /><path
         d="m 2456.08,994.41 c -90.25,0 -180.5,19.88 -249.26,59.63 v 0 c -8.13,4.69 -15.63,9.59 -22.81,14.6 v 0 c -1.42,0.99 -2.74,2.01 -4.13,3.03 -5.68,4.11 -11.04,8.32 -16.08,12.62 -1.3,1.11 -2.61,2.21 -3.86,3.34 -5.5,4.89 -10.64,9.87 -15.33,14.96 v 0 l -1.06,1.11 c -5.25,5.78 -9.99,11.67 -14.21,17.67 v 0 l -0.44,0.69 c -3.79,5.44 -7.08,10.95 -10.02,16.53 -0.67,1.25 -1.26,2.5 -1.88,3.76 -2.35,4.8 -4.39,9.62 -6.13,14.49 -0.45,1.26 -0.95,2.51 -1.35,3.78 v 0 c -3.83,11.85 -5.85,23.85 -6,35.87 0,0.1 0,0.19 0,0.29 0,0.09 -0.01,0.19 -0.01,0.28 0,1.44 0.12,2.87 0.16,4.31 0.12,4.43 0.48,8.85 1.1,13.27 0.27,1.95 0.59,3.9 0.96,5.84 0.81,4.24 1.89,8.46 3.16,12.67 0.53,1.76 0.95,3.52 1.56,5.27 1.99,5.69 4.34,11.35 7.17,16.95 0.73,1.44 1.68,2.86 2.47,4.3 0.07,0.13 0.14,0.26 0.22,0.4 2.25,4.09 4.68,8.15 7.4,12.17 1.44,2.13 3.03,4.24 4.59,6.34 v 0 c 1.34,1.79 2.49,3.61 3.92,5.39 v 0 c 1.99,2.24 4.07,4.75 6.23,7.24 v 0 c 0.88,0.98 1.76,1.97 2.67,2.94 v 0 c 0.14,0.16 0.28,0.32 0.41,0.47 0.02,0.03 0.04,0.05 0.07,0.08 0.27,0.31 0.54,0.62 0.81,0.93 0.03,0.03 0.05,0.06 0.07,0.09 0.13,0.14 0.26,0.29 0.39,0.44 0.03,0.03 0.07,0.07 0.1,0.11 0.09,0.1 0.18,0.2 0.26,0.3 23.82,27.02 51.14,50.8 81.19,70.79 -23.14,-19.92 -39.99,-45.64 -48.98,-73.81 -6.27,-6.6 -11.9,-13.18 -16.81,-19.54 -25.38,-32.91 -16.61,-97.28 -2.04,-97.28 0.67,0 1.35,0.14 2.04,0.42 4.75,1.92 11.06,7.81 18.72,16.17 6.39,-17.43 16.16,-34.41 29.63,-50.2 -4.06,-25.23 4.65,-47.61 34.62,-62.29 17.15,-8.4 31.18,-12.02 42.8,-12.02 9.66,0 17.66,2.5 24.38,6.84 21.45,-8.49 45.07,-15.81 70.16,-21.69 10.02,-18.86 33.53,-22.35 73.14,-22.35 23.6,0 41.49,1.24 54.21,6.23 4.85,-0.12 9.7,-0.18 14.56,-0.18 88.32,0 177.72,19.22 243.9,66.17 l -1.61,-1.67 c -4.52,-4.88 -9.43,-9.66 -14.7,-14.36 -1.41,-1.25 -2.86,-2.49 -4.31,-3.73 -4.87,-4.13 -10.02,-8.18 -15.47,-12.14 -1.57,-1.14 -3.06,-2.3 -4.67,-3.42 -7.13,-4.97 -14.57,-9.83 -22.64,-14.47 -68.76,-39.75 -159.01,-59.63 -249.27,-59.63"
         style="fill:#05a88f;fill-opacity:1;fill-rule:nonzero;stroke:none"
         id="path94" /><path
         d="m 2456.08,1031.61 c -39.61,0 -63.12,3.49 -73.14,22.35 39.84,-9.35 83.29,-15.08 127.35,-16.12 -12.72,-4.99 -30.61,-6.23 -54.21,-6.23"
         style="fill:#0fae96;fill-opacity:1;fill-rule:nonzero;stroke:none"
         id="path96" /><path
         d="m 2288.4,1068.81 c -11.62,0 -25.65,3.62 -42.8,12.02 -29.97,14.68 -38.68,37.06 -34.62,62.29 12.64,-14.81 28.54,-28.59 47.97,-40.77 15.6,-9.78 33.76,-18.75 53.83,-26.7 -6.72,-4.34 -14.72,-6.84 -24.38,-6.84"
         style="fill:#0fae96;fill-opacity:1;fill-rule:nonzero;stroke:none"
         id="path98" /><path
         d="m 2160.59,1176.73 c -14.57,0 -23.34,64.37 2.04,97.28 4.91,6.36 10.54,12.94 16.81,19.54 -10.18,-31.9 -10.3,-66.92 1.91,-100.23 -7.66,-8.36 -13.97,-14.25 -18.72,-16.17 -0.69,-0.28 -1.37,-0.42 -2.04,-0.42"
         style="fill:#0fae96;fill-opacity:1;fill-rule:nonzero;stroke:none"
         id="path100" /><path
         d="m 3245.35,2140.83 c -436.9,-436.89 -1145.24,-436.89 -1582.14,0 -436.89,436.9 -436.89,1145.24 0,1582.14 l -72.12,72.12 c -503.11,-503.11 -550.88,-1271.04 -47.77,-1774.15 503.11,-503.11 1270.51,-454.81 1773.61,48.3 l -71.58,71.59"
         style="fill:#273e47;fill-opacity:1;fill-rule:nonzero;stroke:none"
         id="path102" /><path
         d="m 1514.1,3711.81 73.02,-72.97 c 23.69,29 49.05,57.08 76.09,84.13 l -72.12,72.12 c -27.01,-27.01 -52.62,-54.82 -76.99,-83.28"
         style="fill:#17282f;fill-opacity:1;fill-rule:nonzero;stroke:none"
         id="path104" /><path
         d="m 3245.35,2140.83 c -26.85,-26.85 -54.73,-52.02 -83.5,-75.57 l 72.5,-72.43 c 28.21,24.2 55.79,49.62 82.58,76.41 l -71.58,71.59"
         style="fill:#17282f;fill-opacity:1;fill-rule:nonzero;stroke:none"
         id="path106" /><path
         d="m 1236.02,2822.16 c 32.31,-264.51 127.52,-571.59 383.84,-796.72 218.37,-191.8 552.42,-395.45 1066.65,-320.2 -397.4,-100.66 -823.6,-3.9 -1143.19,315.7 -488.13,488.12 -457.64,1225.5 4.1,1728.47 -18.96,-22.71 -369.66,-450.27 -311.4,-927.25"
         style="fill:#33535f;fill-opacity:1;fill-rule:nonzero;stroke:none"
         id="path108" /><path
         d="m 3356.85,1966.45 c 16.25,0 32.47,6.2 44.88,18.59 24.77,24.78 24.77,64.98 0,89.76 L 1596.52,3878.68 c -24.81,24.78 -64.95,24.78 -89.76,0 -24.78,-24.78 -24.78,-64.97 0,-89.76 l 1805.2,-1803.88 c 12.42,-12.39 28.64,-18.59 44.89,-18.59"
         style="fill:#273e47;fill-opacity:1;fill-rule:nonzero;stroke:none"
         id="path110" /><path
         d="M 1596.52,3878.68 3401.73,2074.8 c 18.1,-18.11 22.83,-44.42 14.46,-66.97 -6.28,-2 -12.74,-3.28 -19.28,-3.28 -16.26,0 -32.49,6.2 -44.89,18.59 l -1805.2,1803.88 c -18.11,18.11 -22.84,44.42 -14.47,66.96 21.9,6.99 46.78,2.08 64.17,-15.3"
         style="fill:#33535f;fill-opacity:1;fill-rule:nonzero;stroke:none"
         id="path112" /><path
         d="m 1417.32,2931.83 c 0,-572.64 464.37,-1036.75 1037.02,-1036.75 352.9,0 664.81,176.32 851.85,445.62 116.83,167.75 185.16,371.41 185.16,591.13 0,572.64 -464.38,1037.02 -1037.01,1037.02 -220,0 -424.2,-68.6 -591.94,-185.43 -269.03,-187.57 -445.08,-498.95 -445.08,-851.59"
         style="fill:#26b6a6;fill-opacity:1;fill-rule:nonzero;stroke:none"
         id="path114" /><path
         d="m 2454.34,1895.08 c -0.32,0 -0.65,0 -0.96,0 0.32,0 0.63,0 0.96,0 m 0.96,0 c 0.08,0 0.18,0 0.27,0 -0.08,0 -0.19,0 -0.27,0 m -2.2,0 c -0.21,0 -0.46,0 -0.67,0 0.24,0 0.44,0 0.67,0 m 3.14,0 c 0.13,0 0.24,0 0.36,0 -0.11,0 -0.25,0 -0.36,0 m -4.16,0 c -0.24,0 -0.4,0 -0.64,0 0.21,0 0.43,0 0.64,0 m 5.15,0 c 0.1,0 0.22,0 0.33,0 -0.11,0 -0.23,0 -0.33,0 m -6.09,0 c -0.25,0 -0.52,0.01 -0.77,0.01 0.24,0 0.53,-0.01 0.77,-0.01 m 7.09,0.01 c 0.09,0 0.21,0 0.3,0 -0.11,0 -0.19,0 -0.3,0 m -8.06,0 c -0.32,0 -0.63,0 -0.94,0 0.3,0 0.64,0 0.94,0 m 9.28,0 c 0.09,0 0.2,0 0.29,0 -0.1,0 -0.18,0 -0.29,0 m -10.47,0 c -0.25,0 -0.47,0 -0.71,0.01 0.24,-0.01 0.47,-0.01 0.71,-0.01 m 11.42,0.01 c 0.12,0 0.26,0 0.38,0 -0.13,0 -0.25,0 -0.38,0 m -12.44,0 c -0.21,0 -0.48,0 -0.68,0 0.21,0 0.46,0 0.68,0 m 13.4,0 c 0.12,0 0.28,0 0.4,0 -0.13,0 -0.27,0 -0.4,0 m -14.37,0 c -0.25,0.01 -0.49,0.01 -0.73,0.01 0.24,0 0.49,0 0.73,-0.01 m 15.3,0.01 c 0.16,0 0.28,0 0.44,0 -0.15,0 -0.28,0 -0.44,0 m -16.27,0 c -0.31,0 -0.64,0.01 -0.95,0.01 0.32,0 0.63,-0.01 0.95,-0.01 m 17.27,0.01 c 0.23,0 0.47,0 0.7,0 -0.22,0 -0.49,0 -0.7,0 m -18.39,0 c -0.28,0 -0.51,0.01 -0.79,0.01 0.26,0 0.53,-0.01 0.79,-0.01 m 19.64,0.01 c 0.16,0 0.35,0 0.51,0 -0.18,0 -0.34,0 -0.51,0 m -20.72,0 c -0.24,0 -0.44,0.01 -0.68,0.01 0.21,0 0.47,-0.01 0.68,-0.01 m 21.65,0.01 c 0.19,0 0.34,0 0.54,0 -0.2,0 -0.35,0 -0.54,0 m -22.62,0 c -0.25,0 -0.49,0.01 -0.73,0.01 0.23,0 0.49,-0.01 0.73,-0.01 m 23.53,0.01 c 0.17,0 0.4,0 0.57,0 -0.19,0 -0.38,0 -0.57,0 m -24.49,0 c -0.63,0.01 -1.32,0.02 -1.94,0.03 0.64,-0.01 1.29,-0.02 1.94,-0.03 m 25.38,0.01 c 0.74,0.01 1.46,0.02 2.2,0.03 -0.75,-0.01 -1.45,-0.02 -2.2,-0.03 m -27.52,0.02 c -0.28,0 -0.5,0.01 -0.78,0.01 0.25,0 0.52,-0.01 0.78,-0.01 m 29.84,0.01 c 0.25,0 0.48,0.01 0.72,0.01 -0.25,0 -0.46,-0.01 -0.72,-0.01 m -30.85,0 c -0.28,0.01 -0.51,0.01 -0.79,0.02 0.26,-0.01 0.53,-0.01 0.79,-0.02 m 31.74,0.01 c 0.24,0.01 0.48,0.01 0.73,0.01 -0.26,0 -0.48,0 -0.73,-0.01 m -32.71,0.01 c -0.67,0.01 -1.34,0.02 -2,0.03 0.67,-0.01 1.33,-0.02 2,-0.03 m 33.57,0.01 c 282.57,4.55 537.62,122.23 722.05,309.59 -84.61,-53.71 -243.51,-101.91 -423.87,-101.91 -10.16,0 -20.38,0.16 -30.67,0.47 15.22,2.45 30,8.37 42.83,17.4 31.31,21.91 73.03,76.96 117.48,102.05 44.44,25.09 99.62,22.38 106.17,66.54 6.6,44.29 53.05,122.29 87.58,123.72 34.62,1.27 110.76,18.74 122.64,56.55 11.83,37.67 3.86,74.25 69.7,90.14 65.97,15.84 60.58,-9.24 103.94,35.65 16.08,16.74 35.36,22.24 53.32,22.59 l 0.88,2.8 c 68.29,217.39 61.37,440.72 -6.37,641.32 -5.53,-1.94 -11.1,-3.17 -16.67,-3.17 -6.18,0 -12.37,1.52 -18.49,5.29 -17.82,10.88 -35.18,21.64 -50.01,32.6 -55.34,132.46 -153.3,269.46 -305.26,387.83 -170.08,132.49 -314.6,186.84 -426,186.84 -37.13,0 -70.57,-6.03 -100.08,-17.21 -1.7,0.08 -3.45,0.12 -5.25,0.12 -4.86,0 -10.05,-0.29 -15.6,-0.9 -17.27,-1.91 -39.47,-3.12 -63.38,-3.12 -56.96,0 -123.66,6.9 -156.77,27.81 71.86,45.14 150.93,75.94 235.25,88.7 -20.02,1.16 -40.13,1.93 -60.42,1.93 -0.25,0 -0.51,0 -0.76,0 0.26,0 0.5,0 0.76,0 572.63,0 1037.01,-464.38 1037.01,-1037.02 0,-219.72 -68.33,-423.38 -185.16,-591.13 -23.14,-33.31 -48.18,-65.19 -74.98,-95.51 -15.83,-17.9 -32.3,-35.28 -49.32,-52.04 -13.13,-12.95 -26.6,-25.52 -40.41,-37.75 -178.94,-158.48 -413.25,-256.05 -670.14,-260.18 m 584.95,330.73 c -7.89,0 -13.16,-6.53 -26.78,-14.83 -21.1,-12.87 -49.57,-25.87 -53.62,-46.54 -3.53,-17.98 -9.8,-38.8 3.09,-38.8 1.92,0 4.27,0.46 7.11,1.47 21.94,7.74 23.08,26.88 50.27,28.09 27.19,1.2 69.85,43.87 37.15,63.9 -7.75,4.74 -12.88,6.71 -17.22,6.71 m -620.55,-330.71 c -0.32,0.01 -0.63,0.01 -0.94,0.02 0.32,-0.01 0.62,-0.01 0.94,-0.02 m -1.08,0.02 c -0.32,0.01 -0.57,0.01 -0.88,0.02 0.3,-0.01 0.58,-0.01 0.88,-0.02 m -1,0.02 c -1.01,0.02 -2.02,0.04 -3.03,0.06 1.01,-0.02 2.02,-0.04 3.03,-0.06 m -3.06,0.07 c -0.32,0 -0.67,0.01 -0.99,0.02 0.35,-0.01 0.64,-0.02 0.99,-0.02 m -1.03,0.02 c -487.34,11.43 -891.63,359.01 -989.59,819.88 29.08,-136.74 85.16,-263.51 162.5,-374.55 182.65,-262.99 484.38,-437.3 827.09,-445.33 m 268.07,210.11 c -248.77,17.93 -523.84,132.96 -697.47,448.64 -7.05,12.82 -13.8,25.75 -20.24,38.72 20.07,15.09 34.76,14.04 62.13,21.09 42.39,11.1 36.07,37.52 88.51,80.13 52.44,42.61 82.14,90.62 46.05,131.21 -35.97,40.56 -66.99,50.3 -84.42,119.11 -17.43,68.81 -56.93,144.69 -100.92,197.42 -25.42,30.64 -70.99,43 -110.91,52.76 5.27,42.12 12.93,83.65 22.84,124.22 9.24,-20.83 24.47,-37.59 42.14,-50.36 6.71,-4.86 11.88,-7 15.72,-7 16.61,0 8.57,39.88 -5.11,71.97 -16.88,39.38 -8.51,66 37.64,119.81 46.12,53.67 96.6,28.15 158.55,69.84 18.08,12.23 30.05,16.93 38.85,16.93 21.34,0 24.16,-27.6 50.44,-42.79 10,-5.78 17.49,-8.29 23.67,-8.29 16.76,0 23.83,18.5 44.93,40.41 6.78,6.98 14.03,9.54 21.84,9.54 10.86,0 22.8,-4.96 36.05,-9.93 2,-0.75 4.03,-1.5 6.09,-2.23 10.36,-59.02 32.7,-121.79 68.04,-185.14 57.19,-102.52 134.95,-199.37 221.2,-283.98 -2.75,-1.59 -5.41,-3.21 -8,-4.86 -48.79,-31.03 -95.85,-33.22 -109.05,-121.8 -13.16,-88.45 -10.35,-118.59 12.14,-147.59 22.61,-29.05 85.15,-31.58 114.91,-53.22 29.82,-21.5 79.97,-71.35 58.73,-162.23 -21.24,-90.88 -14.62,-85.65 -47.59,-136.14 -33.01,-50.62 -48.86,-108.97 -50.01,-167.12 -1.29,-58.1 8.06,-129.34 40.81,-149.42 7.08,-4.32 14.63,-7.54 22.44,-9.7 m -1257.73,610.07 c -0.02,0.1 -0.04,0.21 -0.06,0.3 0.02,-0.1 0.04,-0.2 0.06,-0.3 m -22.55,206.19 c 0,0.04 0,0.06 0,0.09 0,-0.02 0,-0.06 0,-0.09 m 0,0.82 c 0,0.03 0,0.05 0,0.09 0,-0.03 0,-0.06 0,-0.09 m -0.02,1.68 c 0,0.04 0,0.11 0,0.14 0,-0.05 0,-0.08 0,-0.14 m 0,0.8 c 0,0.07 0,0.08 0,0.15 0,-0.05 0,-0.09 0,-0.15 m -0.01,0.88 v 0.06 c 0,-0.02 0,-0.05 0,-0.06 m 0,0.84 c 0,0.03 0,0.12 0,0.16 0,-0.05 0,-0.11 0,-0.16 m -0.01,0.78 c 0,0.07 0,0.14 0,0.21 0,-0.07 0,-0.15 0,-0.21 m 0,0.82 c 0,0.04 0,0.13 0,0.17 0,-0.06 0,-0.12 0,-0.17 m 0,0.93 c 0,0.03 0,0.11 0,0.15 0,-0.04 0,-0.11 0,-0.15 m 0,0.77 c 0,0.07 0,0.16 0,0.23 0,-0.08 0,-0.15 0,-0.23 m 0,0.78 c 0,0.07 0,0.17 0,0.24 0,-0.08 0,-0.16 0,-0.24 m 0,1.95 c 0,0.08 0,0.18 0,0.27 0,-0.11 0,-0.17 0,-0.27 m 0,0.96 c 0,0.11 0,0.21 0,0.32 0,-0.11 0,-0.22 0,-0.32 m 0,0.98 c 0,0.11 0,0.2 0,0.31 0,-0.11 0,-0.21 0,-0.31 m 0,1.08 c 0,0.04 0,0.14 0,0.18 0,-0.07 0,-0.11 0,-0.18 m 0.01,1.12 c 0,0.09 0,0.2 0,0.28 0,-0.07 0,-0.21 0,-0.28 m 0,0.95 c 0,0.1 0,0.26 0,0.37 0,-0.11 0,-0.27 0,-0.37 m 0.01,0.95 c 0,0.13 0,0.24 0,0.37 0,-0.1 0,-0.26 0,-0.37 m 0.01,1.04 c 0,0.09 0,0.19 0,0.28 0,-0.07 0,-0.21 0,-0.28 m 0.01,1.2 c 0,0.11 0,0.21 0,0.32 0,-0.11 0,-0.22 0,-0.32 m 0,0.95 c 0.01,0.13 0.01,0.25 0.01,0.38 0,-0.14 0,-0.24 -0.01,-0.38 m 0.01,0.94 c 0.01,0.13 0.01,0.28 0.01,0.41 0,-0.14 0,-0.27 -0.01,-0.41 m 0.01,0.97 c 0.01,0.13 0.01,0.26 0.01,0.39 0,-0.1 0,-0.28 -0.01,-0.39 m 0.02,1.01 c 0,0.21 0,0.42 0,0.64 0,-0.21 0,-0.43 0,-0.64 m 0.01,1.21 c 0,0.15 0.01,0.28 0.01,0.43 0,-0.14 -0.01,-0.29 -0.01,-0.43 m 0.02,0.93 c 0,0.15 0,0.31 0,0.46 0,-0.14 0,-0.32 0,-0.46 m 0.01,0.96 c 0,0.15 0,0.3 0.01,0.45 -0.01,-0.14 -0.01,-0.31 -0.01,-0.45 m 0.01,0.92 c 0.01,0.32 0.01,0.64 0.02,0.96 -0.01,-0.32 -0.01,-0.64 -0.02,-0.96 m 0.03,1.3 c 0,0.2 0,0.38 0.01,0.57 -0.01,-0.21 -0.01,-0.36 -0.01,-0.57 m 0.01,0.92 c 0.01,0.19 0.01,0.39 0.01,0.58 0,-0.21 0,-0.37 -0.01,-0.58 m 0.02,0.91 c 0,0.21 0.01,0.37 0.01,0.59 0,-0.18 -0.01,-0.42 -0.01,-0.59 m 0.02,0.88 c 0.01,0.73 0.03,1.45 0.04,2.18 -0.01,-0.73 -0.03,-1.45 -0.04,-2.18 m 0.05,2.31 c 0,0.24 0.01,0.45 0.01,0.69 0,-0.25 -0.01,-0.44 -0.01,-0.69 m 0.02,0.91 c 0,0.24 0.01,0.44 0.01,0.68 0,-0.21 -0.01,-0.47 -0.01,-0.68 m 0.02,0.85 c 0.02,1.07 0.05,2.12 0.08,3.19 -0.03,-1.08 -0.06,-2.12 -0.08,-3.19 m 0.08,3.24 c 0.01,0.25 0.01,0.54 0.02,0.8 -0.01,-0.28 -0.01,-0.52 -0.02,-0.8 m 0.02,0.84 c 2.7,97.19 18.78,191.05 46.45,279.78 -27.69,-88.76 -43.75,-182.57 -46.45,-279.78 m 46.47,279.84 c 0.07,0.22 0.13,0.43 0.2,0.65 -0.07,-0.22 -0.13,-0.43 -0.2,-0.65 m 0.27,0.88 c 0.06,0.17 0.12,0.37 0.18,0.55 -0.06,-0.19 -0.12,-0.36 -0.18,-0.55 m 0.31,0.97 c 0.04,0.14 0.08,0.26 0.12,0.39 -0.04,-0.12 -0.08,-0.26 -0.12,-0.39 m 0.39,1.25 c 0.01,0.02 0.03,0.09 0.04,0.11 -0.01,-0.04 -0.03,-0.08 -0.04,-0.11 m 0.29,0.92 c 0.01,0.04 0.02,0.06 0.03,0.1 -0.01,-0.03 -0.02,-0.07 -0.03,-0.1 m 774.26,426.4 c -7.84,0 -14.89,0.84 -20.75,2.38 -22.53,6.05 -42.63,58.44 -34.98,82.8 3.86,12.3 15.2,16.7 30.69,16.7 15.21,0 34.42,-4.23 54.53,-9.39 16.07,-4.07 31.99,-5.98 48.21,-5.99 24.82,0 50.35,4.5 78.21,12.64 6.02,1.76 10.41,2.56 13.41,2.56 3.12,0 4.75,-0.86 5.2,-2.4 -4.05,-5.97 -7.85,-12.15 -11.4,-18.54 -5.42,-5.97 -12.2,-12.65 -19.04,-19.29 -24.66,-24 -33.62,-13.87 -67.73,-37.23 -25.37,-17.37 -54.02,-24.24 -76.35,-24.24 m -207.83,207.79 c 36.33,16.22 73.77,30.42 112.17,42.45 -1.09,-0.34 -2.19,-0.69 -3.28,-1.04 -27.68,-8.77 -54.86,-18.67 -81.48,-29.65 -9.2,-3.79 -18.33,-7.71 -27.41,-11.76 m 409.49,89.6 c 0.04,0 0.1,0 0.14,0 -0.04,0 -0.1,0 -0.14,0 m 0.67,0.01 c 0.07,0 0.11,0 0.17,0.01 -0.03,-0.01 -0.13,-0.01 -0.17,-0.01 m 1.84,0.02 c 0.07,0 0.14,0 0.21,0 -0.07,0 -0.14,0 -0.21,0 m 0.65,0.01 c 0.12,0 0.22,0 0.34,0 -0.14,0 -0.2,0 -0.34,0 m 0.72,0 c 0.15,0 0.28,0.01 0.43,0.01 -0.14,0 -0.29,-0.01 -0.43,-0.01 m 0.96,0.01 c 0.16,0 0.3,0 0.46,0 -0.17,0 -0.28,0 -0.46,0 m 0.8,0.01 c 0.14,0 0.31,0 0.45,0 -0.14,0 -0.31,0 -0.45,0 m 0.75,0 c 0.16,0 0.34,0.01 0.5,0.01 -0.17,0 -0.33,-0.01 -0.5,-0.01 m 0.76,0.01 c 0.23,0 0.47,0 0.7,0 -0.21,0 -0.49,0 -0.7,0 m 1.01,0 c 0.15,0 0.31,0 0.46,0 -0.17,0 -0.29,0 -0.46,0 m 0.77,0 c 0.16,0 0.35,0.01 0.51,0.01 -0.17,0 -0.34,-0.01 -0.51,-0.01 m 0.74,0.01 c 0.26,0 0.48,0 0.74,0 -0.25,0 -0.49,0 -0.74,0 m 0.94,0 c 0.19,0 0.38,0 0.57,0 -0.18,0 -0.39,0 -0.57,0 m 0.83,0 c 0.18,0 0.34,0 0.52,0 -0.18,0 -0.34,0 -0.52,0"
         style="fill:#70cec3;fill-opacity:1;fill-rule:nonzero;stroke:none"
         id="path116" /><path
         d="m 2668.01,3799.52 c -44.34,16.86 -107.07,23.89 -76.2,-17.5 30.88,-41.39 56.11,-54.2 43.44,-86.79 -12.68,-32.58 -47.54,-58.19 -46.33,-85.39 1.2,-27.19 7.67,-60.91 27.52,-59.83 19.84,1.08 86.2,33.86 111.43,21.05 25.24,-12.8 112.72,-52.47 137.31,-28.51 24.6,23.97 36.93,16.68 71.24,40.52 34.29,23.84 50.46,67.52 24.53,78.1 -25.93,10.58 -33.85,0.88 -76.13,21.48 -42.29,20.6 -50.91,57.43 -96.36,66.84 -45.46,9.4 -87.9,37.64 -120.45,50.03"
         style="fill:#33535f;fill-opacity:1;fill-rule:nonzero;stroke:none"
         id="path118" /><path
         d="m 2383.79,3732.85 c -24.66,-24 -33.62,-13.87 -67.73,-37.23 -34.28,-23.46 -74.54,-27.78 -97.1,-21.86 -22.53,6.05 -42.63,58.44 -34.98,82.8 7.65,24.37 44.62,17.72 85.22,7.31 40.65,-10.29 80.36,-6.82 126.42,6.65 36.4,10.65 12.77,-13.82 -11.83,-37.67 m 115.87,120.68 c -60.62,-6.7 -181.88,-4.88 -225.17,28.18 -21.43,16.53 -46.38,37.67 -74.81,55.67 -239.64,-60.74 -453.59,-206.33 -597.44,-413.3 2.15,-29.93 7.77,-59.04 16.51,-84.76 20.2,-60.02 57.34,-81.48 101.87,-110.11 44.68,-28.66 18.61,-49.72 30.97,-87.68 12.48,-38 15.8,-58.64 36.86,-84.71 21.06,-26.07 -27.24,-40.15 -50.34,-67.12 -23.06,-26.84 -33.14,-43.12 -36.22,-115.29 -3.2,-72.12 40.81,-149.43 50.16,-181.62 9.34,-32.18 -34.44,-47.68 -46.77,-102.32 -12.34,-54.62 -69.44,-189.82 -50.87,-286.2 18.45,-96.33 51.64,-99.15 68.37,-45.9 16.73,53.25 19.56,108.82 64.99,135.64 45.43,26.83 102,-7.76 150.95,54.96 48.92,62.6 60.86,54.02 103.34,64.96 42.39,11.1 36.07,37.52 88.51,80.13 52.44,42.61 82.14,90.62 46.05,131.21 -35.97,40.56 -66.99,50.3 -84.42,119.11 -17.43,68.81 -56.93,144.69 -100.92,197.42 -43.81,52.82 -147.54,51.33 -178.91,75.81 -31.36,24.47 -26.77,100.99 -14.01,126.24 12.88,25.2 -10.94,42.48 -38.98,46.32 -28.01,3.97 -35.76,25.87 -29.12,62.83 6.78,36.92 76.97,58.75 121.43,44.79 44.33,-13.93 59.57,-43.15 45.86,-102.17 -13.76,-59.16 12.04,-101.35 47.8,-127.2 35.75,-25.87 27.45,25.45 10.61,64.97 -16.88,39.38 -8.51,66 37.64,119.81 46.12,53.67 96.6,28.15 158.55,69.84 61.85,41.85 52.15,-4.4 89.29,-25.86 37.14,-21.47 39.72,2.14 68.6,32.12 16.21,16.68 35.12,8.15 57.89,-0.39 17.92,-6.71 38.24,-13.43 61.5,-7.86 52.69,12.7 -14.84,92.42 6.49,129.6 21.46,37.14 59.98,20.06 61.8,87.79 1.69,67.77 32.86,57.99 57.25,73.73 24.35,15.6 5.3,48.06 -55.31,41.36"
         style="fill:#33535f;fill-opacity:1;fill-rule:nonzero;stroke:none"
         id="path120" /><path
         d="m 3443.39,2620.81 -0.88,-2.8 c -17.96,-0.35 -37.24,-5.85 -53.32,-22.59 -43.36,-44.89 -37.97,-19.81 -103.94,-35.65 -65.84,-15.89 -57.87,-52.47 -69.7,-90.14 -11.88,-37.81 -88.02,-55.28 -122.64,-56.55 -34.53,-1.43 -80.98,-79.43 -87.58,-123.72 -6.55,-44.16 -61.73,-41.45 -106.17,-66.54 -44.45,-25.09 -86.17,-80.14 -117.48,-102.05 -31.17,-21.95 -73.83,-25.51 -106.48,-5.59 -32.75,20.08 -42.1,91.32 -40.81,149.42 1.15,58.15 17,116.5 50.01,167.12 32.97,50.49 26.35,45.26 47.59,136.14 21.24,90.88 -28.91,140.73 -58.73,162.23 -29.76,21.64 -92.3,24.17 -114.91,53.22 -22.49,29 -25.3,59.14 -12.14,147.59 13.2,88.58 60.26,90.77 109.05,121.8 48.68,31.07 128.45,52.23 189.74,45.26 61.11,-7.06 93.22,-36.6 120.24,-67.02 27.01,-30.43 27.77,-74.55 50.84,-86.77 22.98,-12.05 48.69,-7.98 70.96,-22.29 22.27,-14.31 33.66,-32.51 58.73,-37.91 25.21,-5.43 20.93,27.5 23.57,43.79 2.62,16.29 -20.19,20.97 -48.32,32.45 -28.18,11.33 -32.11,22.08 -34.63,44.81 -2.65,22.77 -25.25,12.75 -35.76,25.85 -10.5,13.11 -21.68,-22.44 -28.2,-35.31 -6.53,-12.86 -7.5,14.79 -7.5,14.79 0,0 -18.88,-13.52 -20.59,-3.18 -1.63,10.16 17.95,25.95 24.64,47.25 6.65,21.17 -25.16,28.38 -37.4,51.83 -12.14,23.27 -37.39,36.02 -66.1,37.73 -28.72,1.71 -31.03,9.75 -51.27,-8.17 -20.3,-18.05 -81.55,-10.95 -97.87,-1 -16.33,9.96 10.28,40.65 37.86,66.07 27.49,25.58 54.33,2.53 86.31,26.57 31.97,24.03 7.44,39.05 -8.3,51.31 -15.63,12.22 -14.42,31.44 20.23,64.43 34.79,32.95 54.96,11.99 57.61,-10.78 2.65,-22.77 21.23,-40.9 45.06,-50.73 23.64,-9.91 24.81,9.17 38.11,44.05 13.43,34.84 36.7,46.98 73.45,47.57 36.8,0.73 97.87,0.99 125.66,11.71 27.71,10.9 58.36,-15.84 69.09,-43.64 10.89,-27.7 49.44,-52.1 90.44,-77.12 11.64,-7.17 23.49,-6.21 35.16,-2.12 67.74,-200.6 74.66,-423.93 6.37,-641.32"
         style="fill:#33535f;fill-opacity:1;fill-rule:nonzero;stroke:none"
         id="path122" /><path
         d="m 3073.51,2219.24 c -21.83,13.35 -22.89,4.75 -44,-8.12 -21.1,-12.87 -49.57,-25.87 -53.62,-46.54 -4.05,-20.66 -11.73,-45.07 10.2,-37.33 21.94,7.74 23.08,26.88 50.27,28.09 27.19,1.2 69.85,43.87 37.15,63.9"
         style="fill:#33535f;fill-opacity:1;fill-rule:nonzero;stroke:none"
         id="path124" /><path
         d="m 3150.95,2883.38 c -1.57,0 -3.29,0.19 -5.18,0.59 -25.07,5.4 -36.46,23.6 -58.73,37.91 -22.27,14.31 -47.98,10.24 -70.96,22.29 -23.07,12.22 -23.83,56.34 -50.84,86.77 -27.02,30.42 -59.13,59.96 -120.24,67.02 -7.93,0.9 -16.16,1.33 -24.6,1.33 -53.34,0 -114.76,-17.23 -157.14,-41.73 -86.25,84.61 -164.01,181.46 -221.2,283.98 -35.34,63.35 -57.68,126.12 -68.04,185.14 11.59,-4.12 24.15,-7.7 37.81,-7.7 5.67,0 11.54,0.62 17.6,2.07 52.69,12.7 -14.84,92.42 6.49,129.6 21.46,37.14 59.98,20.06 61.8,87.79 1.69,67.77 32.86,57.99 57.25,73.73 21.29,13.64 9.4,40.17 -34.46,42.14 29.51,11.18 62.95,17.21 100.08,17.21 111.4,0 255.92,-54.35 426,-186.84 151.96,-118.37 249.92,-255.37 305.26,-387.83 -19.28,14.26 -34.28,28.86 -40.43,44.52 -9.05,23.44 -32.26,46.14 -55.93,46.14 -4.4,0 -8.81,-0.79 -13.16,-2.5 -27.79,-10.72 -88.86,-10.98 -125.66,-11.71 -36.75,-0.59 -60.02,-12.73 -73.45,-47.57 -10.93,-28.66 -13.66,-46.66 -27.42,-46.66 -2.98,0 -6.48,0.85 -10.69,2.61 -23.83,9.83 -42.41,27.96 -45.06,50.73 -1.66,14.28 -10.22,27.86 -24.95,27.86 -8.76,0 -19.69,-4.8 -32.66,-17.08 -34.65,-32.99 -35.86,-52.21 -20.23,-64.43 15.74,-12.26 40.27,-27.28 8.3,-51.31 -31.98,-24.04 -58.82,-0.99 -86.31,-26.57 -27.58,-25.42 -54.19,-56.11 -37.86,-66.07 9.01,-5.49 31.73,-10.12 53.69,-10.12 17.79,0 35.09,3.04 44.18,11.12 10.16,8.99 15.8,11.44 22.52,11.44 6.68,0 14.44,-2.42 28.75,-3.27 28.71,-1.71 53.96,-14.46 66.1,-37.73 12.24,-23.45 44.05,-30.66 37.4,-51.83 -6.69,-21.3 -26.27,-37.09 -24.64,-47.25 0.47,-2.86 2.26,-3.9 4.6,-3.9 6.11,0 15.99,7.08 15.99,7.08 0,0 0.64,-18.2 4.37,-18.2 0.86,0 1.9,0.98 3.13,3.41 5.54,10.92 14.42,38.17 23.4,38.17 1.61,0 3.21,-0.87 4.8,-2.86 10.51,-13.1 33.11,-3.08 35.76,-25.85 2.52,-22.73 6.45,-33.48 34.63,-44.81 28.13,-11.48 50.94,-16.16 48.32,-32.45 -2.44,-15.07 1.04,-44.38 -18.39,-44.38 m -438.31,690.65 c 5.92,0 11.12,-0.88 15.23,-2.97 19.58,-9.93 76.65,-36.04 112.73,-36.05 10.41,0 19.07,2.18 24.58,7.54 24.6,23.97 36.93,16.68 71.24,40.52 34.29,23.84 50.46,67.52 24.53,78.1 -25.93,10.58 -33.85,0.88 -76.13,21.48 -42.29,20.6 -50.91,57.43 -96.36,66.84 -45.46,9.4 -87.9,37.64 -120.45,50.03 -20.11,7.64 -44.01,13.27 -61.24,13.27 -20.75,0 -31.83,-8.16 -14.96,-30.77 30.88,-41.39 56.11,-54.2 43.44,-86.79 -12.68,-32.58 -47.54,-58.19 -46.33,-85.39 1.18,-26.76 7.47,-59.86 26.59,-59.86 0.31,0 0.61,0.01 0.93,0.03 16.61,0.9 65.81,24.02 96.2,24.02 m -309.81,178.11 c 3.55,6.39 7.35,12.57 11.4,18.54 1,-3.46 -3.91,-10.31 -11.4,-18.54"
         style="fill:#7bd2c6;fill-opacity:1;fill-rule:nonzero;stroke:none"
         id="path126" /><path
         d="m 2840.6,3535.01 c -36.08,0.01 -93.15,26.12 -112.73,36.05 -4.11,2.09 -9.31,2.97 -15.23,2.97 -30.39,0 -79.59,-23.12 -96.2,-24.02 -0.32,-0.02 -0.62,-0.03 -0.93,-0.03 -19.12,0 -25.41,33.1 -26.59,59.86 -1.21,27.2 33.65,52.81 46.33,85.39 12.67,32.59 -12.56,45.4 -43.44,86.79 -16.87,22.61 -5.79,30.77 14.96,30.77 17.23,0 41.13,-5.63 61.24,-13.27 32.55,-12.39 74.99,-40.63 120.45,-50.03 45.45,-9.41 54.07,-46.24 96.36,-66.84 42.28,-20.6 50.2,-10.9 76.13,-21.48 25.93,-10.58 9.76,-54.26 -24.53,-78.1 -34.31,-23.84 -46.64,-16.55 -71.24,-40.52 -5.51,-5.36 -14.17,-7.54 -24.58,-7.54"
         style="fill:#46646e;fill-opacity:1;fill-rule:nonzero;stroke:none"
         id="path128" /><path
         d="m 2411.83,3518.98 c -13.66,0 -26.22,3.58 -37.81,7.7 -15.22,86.73 -4.58,165.3 28.81,225.46 7.49,8.23 12.4,15.08 11.4,18.54 25.65,37.71 61.41,66.64 106.28,83.63 43.86,-1.97 55.75,-28.5 34.46,-42.14 -24.39,-15.74 -55.56,-5.96 -57.25,-73.73 -1.82,-67.73 -40.34,-50.65 -61.8,-87.79 -21.33,-37.18 46.2,-116.9 -6.49,-129.6 -6.06,-1.45 -11.93,-2.07 -17.6,-2.07"
         style="fill:#46646e;fill-opacity:1;fill-rule:nonzero;stroke:none"
         id="path130" /><path
         d="m 3225.01,2746.25 c -144.25,0 -373.31,126.47 -561.75,311.31 42.38,24.5 103.8,41.73 157.14,41.73 8.44,0 16.67,-0.43 24.6,-1.33 61.11,-7.06 93.22,-36.6 120.24,-67.02 27.01,-30.43 27.77,-74.55 50.84,-86.77 22.98,-12.05 48.69,-7.98 70.96,-22.29 22.27,-14.31 33.66,-32.51 58.73,-37.91 1.89,-0.4 3.61,-0.59 5.18,-0.59 19.43,0 15.95,29.31 18.39,44.38 2.62,16.29 -20.19,20.97 -48.32,32.45 -28.18,11.33 -32.11,22.08 -34.63,44.81 -2.65,22.77 -25.25,12.75 -35.76,25.85 -1.59,1.99 -3.19,2.86 -4.8,2.86 -8.98,0 -17.86,-27.25 -23.4,-38.17 -1.23,-2.43 -2.27,-3.41 -3.13,-3.41 -3.73,0 -4.37,18.2 -4.37,18.2 0,0 -9.88,-7.08 -15.99,-7.08 -2.34,0 -4.13,1.04 -4.6,3.9 -1.63,10.16 17.95,25.95 24.64,47.25 6.65,21.17 -25.16,28.38 -37.4,51.83 -12.14,23.27 -37.39,36.02 -66.1,37.73 -14.31,0.85 -22.07,3.27 -28.75,3.27 -6.72,0 -12.36,-2.45 -22.52,-11.44 -9.09,-8.08 -26.39,-11.12 -44.18,-11.12 -21.96,0 -44.68,4.63 -53.69,10.12 -16.33,9.96 10.28,40.65 37.86,66.07 27.49,25.58 54.33,2.53 86.31,26.57 31.97,24.03 7.44,39.05 -8.3,51.31 -15.63,12.22 -14.42,31.44 20.23,64.43 12.97,12.28 23.9,17.08 32.66,17.08 14.73,0 23.29,-13.58 24.95,-27.86 2.65,-22.77 21.23,-40.9 45.06,-50.73 4.21,-1.76 7.71,-2.61 10.69,-2.61 13.76,0 16.49,18 27.42,46.66 13.43,34.84 36.7,46.98 73.45,47.57 36.8,0.73 97.87,0.99 125.66,11.71 4.35,1.71 8.76,2.5 13.16,2.5 23.67,0 46.88,-22.7 55.93,-46.14 6.15,-15.66 21.15,-30.26 40.43,-44.52 91.44,-218.89 66.5,-425.38 -23.56,-514.85 -24.61,-24.44 -60.15,-35.76 -103.28,-35.75"
         style="fill:#46646e;fill-opacity:1;fill-rule:nonzero;stroke:none"
         id="path132" /><path
         d="m 1439.98,2715.25 c -0.02,0.11 -0.04,0.2 -0.07,0.3 0.02,-0.1 0.05,-0.2 0.07,-0.3 m -0.13,0.6 c -14.1,66.5 -21.81,135.35 -22.49,205.89 0.67,-70.55 8.39,-139.38 22.49,-205.89 m -22.49,205.98 c 0,0.24 0,0.49 0,0.73 0,-0.21 0,-0.52 0,-0.73 m 0,0.82 c -0.01,0.53 -0.01,1.06 -0.02,1.59 0.01,-0.55 0.01,-1.04 0.02,-1.59 m -0.02,1.73 c 0,0.21 0,0.45 0,0.66 0,-0.21 0,-0.45 0,-0.66 m 0,0.81 c -0.01,0.24 -0.01,0.49 -0.01,0.73 0,-0.24 0,-0.48 0.01,-0.73 m -0.01,0.79 c 0,0.26 0,0.51 0,0.78 0,-0.28 0,-0.51 0,-0.78 m 0,0.94 c 0,0.2 -0.01,0.42 -0.01,0.62 0,-0.21 0.01,-0.41 0.01,-0.62 m -0.01,0.83 c 0,0.21 0,0.4 0,0.61 0,-0.21 0,-0.4 0,-0.61 m 0,0.78 c 0,0.25 0,0.5 0,0.76 0,-0.28 0,-0.49 0,-0.76 m 0,0.91 c 0,0.21 0,0.4 0,0.62 0,-0.21 0,-0.41 0,-0.62 m 0,0.85 c 0,0.17 0,0.38 0,0.55 0,-0.21 0,-0.34 0,-0.55 m 0,0.79 c 0,0.25 0,0.5 0,0.75 v 0 c 0,-0.24 0,-0.51 0,-0.75 m 0,0.75 c 0,0.32 0,0.64 0,0.96 0,-0.32 0,-0.64 0,-0.96 m 0,1.23 c 0,0.21 0,0.48 0,0.69 0,-0.24 0,-0.45 0,-0.69 m 0,1.01 c 0,0.24 0,0.41 0,0.66 0,-0.22 0,-0.45 0,-0.66 m 0,0.97 c 0,0.24 0,0.53 0,0.77 0,-0.26 0,-0.51 0,-0.77 m 0,0.95 c 0,0.31 0.01,0.63 0.01,0.94 0,-0.32 -0.01,-0.62 -0.01,-0.94 m 0.01,1.22 c 0,0.25 0,0.42 0,0.67 0,-0.24 0,-0.43 0,-0.67 m 0,1.04 c 0.01,0.21 0.01,0.37 0.01,0.58 0,-0.19 0,-0.39 -0.01,-0.58 m 0.01,0.95 c 0,0.25 0,0.43 0.01,0.67 -0.01,-0.24 -0.01,-0.43 -0.01,-0.67 m 0.01,0.95 c 0,0.31 0,0.6 0.01,0.92 -0.01,-0.3 -0.01,-0.62 -0.01,-0.92 m 0.01,1.24 c 0,0.21 0,0.42 0,0.63 0,-0.22 0,-0.42 0,-0.63 m 0.01,1.01 c 0,0.17 0,0.39 0,0.56 0,-0.19 0,-0.37 0,-0.56 m 0.01,0.97 c 0,0.21 0,0.35 0,0.56 0,-0.19 0,-0.36 0,-0.56 m 0.01,0.95 c 0,0.21 0,0.41 0.01,0.62 -0.01,-0.2 -0.01,-0.43 -0.01,-0.62 m 0.01,1.26 c 0.01,0.21 0.01,0.36 0.01,0.57 0,-0.2 0,-0.38 -0.01,-0.57 m 0.02,1 c 0,0.17 0,0.33 0.01,0.5 -0.01,-0.17 -0.01,-0.33 -0.01,-0.5 m 0.01,0.96 c 0,0.17 0.01,0.32 0.01,0.5 0,-0.15 -0.01,-0.35 -0.01,-0.5 m 0.02,0.95 c 0,0.17 0,0.3 0,0.47 0,-0.17 0,-0.3 0,-0.47 m 0.02,1.43 c 0,0.1 0,0.24 0.01,0.34 -0.01,-0.11 -0.01,-0.23 -0.01,-0.34 m 0.02,0.91 c 0,0.1 0,0.24 0,0.35 0,-0.11 0,-0.24 0,-0.35 m 0.01,0.93 c 0.01,0.11 0.01,0.22 0.01,0.33 0,-0.11 0,-0.22 -0.01,-0.33 m 0.02,0.92 c 0,0.1 0,0.18 0.01,0.29 -0.01,-0.09 -0.01,-0.21 -0.01,-0.29 m 0.05,2.47 c 0,0.03 0,0.1 0.01,0.13 -0.01,-0.04 -0.01,-0.09 -0.01,-0.13 m 0.02,0.82 c 0,0.07 0,0.15 0.01,0.22 -0.01,-0.06 -0.01,-0.16 -0.01,-0.22 m 0.02,0.9 c 0,0.07 0,0.1 0.01,0.17 -0.01,-0.05 -0.01,-0.13 -0.01,-0.17 m 0.09,3.36 v 0.05 c 0,-0.02 0,-0.03 0,-0.05 m 0.02,0.85 v 0.04 c 0,-0.03 0,-0.02 0,-0.04 m 46.45,279.82 0.02,0.06 c -0.01,-0.04 -0.01,-0.02 -0.02,-0.06 m 0.22,0.71 c 0.02,0.06 0.05,0.16 0.07,0.23 -0.02,-0.08 -0.04,-0.15 -0.07,-0.23 m 0.25,0.78 c 0.05,0.16 0.08,0.26 0.13,0.42 -0.04,-0.13 -0.09,-0.29 -0.13,-0.42 m 0.25,0.81 c 0.09,0.29 0.18,0.58 0.27,0.86 -0.09,-0.29 -0.18,-0.56 -0.27,-0.86 m 0.31,0.97 c 0.09,0.28 0.16,0.52 0.25,0.81 -0.08,-0.28 -0.17,-0.54 -0.25,-0.81 m 0.28,0.91 c 31.69,100.08 78.15,193.61 136.83,277.99 0,0 0,-0.02 0,-0.02 -58.68,-84.4 -105.14,-177.9 -136.83,-277.97 m 734.25,692.27 v 0 c 77.43,19.55 158.38,30.4 241.64,31.42 -83.27,-1.02 -164.17,-11.86 -241.64,-31.42 m 241.78,31.42 c 0.21,0.01 0.33,0.01 0.53,0.01 -0.17,0 -0.36,0 -0.53,-0.01 m 0.7,0.02 c 0.56,0 1.12,0.01 1.67,0.01 -0.54,0 -1.12,-0.01 -1.67,-0.01 m 1.88,0.01 c 0.14,0 0.3,0 0.44,0.01 -0.15,-0.01 -0.3,-0.01 -0.44,-0.01 m 0.78,0.01 c 0.1,0 0.28,0 0.38,0 -0.12,0 -0.26,0 -0.38,0 m 0.81,0.01 c 0.18,0 0.36,0 0.53,0 -0.17,0 -0.36,0 -0.53,0 m 0.99,0 c 0.11,0 0.23,0.01 0.34,0.01 -0.11,0 -0.23,-0.01 -0.34,-0.01 m 0.79,0.01 c 0.11,0 0.19,0 0.3,0 -0.11,0 -0.19,0 -0.3,0 m 0.8,0.01 c 0.11,0 0.16,0 0.26,0 -0.09,0 -0.16,0 -0.26,0 m 0.96,0 c 0.11,0 0.2,0 0.31,0 -0.11,0 -0.2,0 -0.31,0 m 0.77,0 c 0.07,0 0.24,0 0.31,0 -0.11,0 -0.2,0 -0.31,0 m 0.82,0.01 c 0.11,0 0.13,0 0.23,0 -0.08,0 -0.15,0 -0.23,0 m 0.97,0 c 0.07,0 0.13,0 0.2,0 -0.06,0 -0.13,0 -0.2,0 m 0.77,0 c 0.07,0 0.19,0 0.26,0 -0.08,0 -0.18,0 -0.26,0 m 0.78,0 c 0.1,0 0.15,0 0.25,0 -0.08,0 -0.17,0 -0.25,0"
         style="fill:#d2d4d1;fill-opacity:1;fill-rule:nonzero;stroke:none"
         id="path134" /><path
         d="m 2454.34,1895.08 v 0 0 c 0.32,0 0.63,0 0.96,0 -0.32,0 -0.65,0 -0.96,0 m -0.96,0 c -0.09,0 -0.19,0 -0.28,0 0.11,0 0.18,0 0.28,0 m 2.19,0 c 0.24,0 0.44,0 0.67,0 -0.22,0 -0.44,0 -0.67,0 m -3.14,0 c -0.11,0 -0.24,0 -0.35,0 0.11,0 0.24,0 0.35,0 m 4.17,0 c 0.22,0 0.41,0 0.63,0 -0.22,0 -0.42,0 -0.63,0 m -5.16,0 c -0.11,0 -0.2,0 -0.3,0 0.1,0 0.19,0 0.3,0 m 6.12,0 c 0.21,0 0.46,0.01 0.67,0.01 -0.23,0 -0.44,-0.01 -0.67,-0.01 m -7.19,0.01 c -0.08,0 -0.12,0 -0.2,0 0.07,0 0.13,0 0.2,0 m 8.16,0 c 0.3,0 0.62,0 0.92,0 -0.31,0 -0.6,0 -0.92,0 m -9.3,0 c -0.09,0 -0.17,0 -0.25,0 0.07,0 0.18,0 0.25,0 m 10.51,0 c 0.22,0 0.44,0.01 0.66,0.01 -0.23,0 -0.43,-0.01 -0.66,-0.01 m -11.47,0.01 c -0.11,0 -0.2,0 -0.31,0 0.1,0 0.21,0 0.31,0 m 12.51,0 c 0.2,0 0.39,0 0.58,0 -0.19,0 -0.38,0 -0.58,0 m -13.5,0 c -0.11,0 -0.18,0 -0.29,0 0.1,0 0.18,0 0.29,0 m 14.48,0 c 0.17,0.01 0.36,0.01 0.53,0.01 -0.17,0 -0.35,0 -0.53,-0.01 m -15.5,0.01 c -0.09,0 -0.15,0 -0.24,0 0.07,0 0.17,0 0.24,0 m 16.47,0 c 0.19,0 0.36,0.01 0.56,0.01 -0.18,0 -0.39,-0.01 -0.56,-0.01 m -17.66,0.01 c -0.04,0 -0.13,0 -0.17,0 0.07,0 0.1,0 0.17,0 m 18.92,0 c 0.19,0 0.36,0.01 0.55,0.01 -0.19,0 -0.36,-0.01 -0.55,-0.01 m -19.88,0.01 c -0.11,0 -0.18,0 -0.29,0 0.07,0 0.22,0 0.29,0 m 20.94,0 c 0.12,0 0.29,0.01 0.42,0.01 -0.14,0 -0.28,-0.01 -0.42,-0.01 m -21.91,0.01 c -0.11,0 -0.19,0 -0.29,0 0.1,0 0.18,0 0.29,0 m 22.87,0 c 0.13,0 0.24,0.01 0.37,0.01 -0.13,0 -0.25,-0.01 -0.37,-0.01 m -23.89,0.01 c -0.09,0 -0.15,0 -0.23,0 0.07,0 0.16,0 0.23,0 m 24.83,0 c 0.09,0.01 0.23,0.01 0.32,0.01 -0.11,0 -0.21,0 -0.32,-0.01 m -27,0.03 c -0.07,0 -0.14,0 -0.2,0 0.06,0 0.13,0 0.2,0 m 29.52,0.01 c 0.02,0 0.1,0 0.12,0 -0.04,0 -0.09,0 -0.12,0 m -30.5,0 c -0.09,0 -0.15,0 -0.23,0 0.07,0 0.16,0 0.23,0 m 31.34,0.01 c 0.05,0 0.12,0 0.17,0 -0.06,0 -0.11,0 -0.17,0 m -32.36,0.01 c -0.06,0 -0.12,0 -0.18,0 0.03,0 0.15,0 0.18,0 m 33.26,0 c 0.04,0 0.09,0.01 0.13,0.01 -0.05,-0.01 -0.08,-0.01 -0.13,-0.01 m -35.44,0.03 h -0.03 c 0.03,0 0,0 0.03,0 m -0.97,0.02 c -0.05,0 -0.1,0 -0.14,0 0.03,0 0.1,0 0.14,0 m -1.02,0.02 c -0.05,0 -0.08,0 -0.12,0 0.04,0 0.08,0 0.12,0 m -3.15,0.06 -0.03,0.01 0.03,-0.01 m -1.02,0.03 h -0.04 c 0.04,0 0.01,0 0.04,0"
         style="fill:#c3c5c2;fill-opacity:1;fill-rule:nonzero;stroke:none"
         id="path136" /><path
         d="m 2454.34,1895.08 v 0 c -0.33,0 -0.64,0 -0.96,0 -0.1,0 -0.17,0 -0.28,0 -0.23,0 -0.43,0 -0.67,0 -0.11,0 -0.24,0 -0.35,0 -0.21,0 -0.43,0 -0.64,0 -0.11,0 -0.2,0 -0.3,0 -0.24,0 -0.53,0.01 -0.77,0.01 -0.07,0 -0.13,0 -0.2,0 -0.3,0 -0.64,0 -0.94,0 -0.07,0 -0.18,0 -0.25,0 -0.24,0 -0.47,0 -0.71,0.01 -0.1,0 -0.21,0 -0.31,0 -0.22,0 -0.47,0 -0.68,0 -0.11,0 -0.19,0 -0.29,0 -0.24,0.01 -0.49,0.01 -0.73,0.01 -0.07,0 -0.17,0 -0.24,0 -0.32,0 -0.63,0.01 -0.95,0.01 -0.07,0 -0.1,0 -0.17,0 -0.26,0 -0.53,0.01 -0.79,0.01 -0.07,0 -0.22,0 -0.29,0 -0.21,0 -0.47,0.01 -0.68,0.01 -0.11,0 -0.19,0 -0.29,0 -0.24,0 -0.5,0.01 -0.73,0.01 -0.07,0 -0.16,0 -0.23,0 -0.65,0.01 -1.3,0.02 -1.94,0.03 -0.07,0 -0.14,0 -0.2,0 -0.26,0 -0.53,0.01 -0.78,0.01 -0.07,0 -0.16,0 -0.23,0 -0.26,0.01 -0.53,0.01 -0.79,0.02 -0.03,0 -0.15,0 -0.18,0 -0.67,0.01 -1.33,0.02 -2,0.03 -0.03,0 0,0 -0.03,0 -0.32,0.01 -0.62,0.01 -0.94,0.02 -0.04,0 -0.11,0 -0.14,0 -0.3,0.01 -0.58,0.01 -0.88,0.02 -0.04,0 -0.08,0 -0.12,0 -1.01,0.02 -2.02,0.04 -3.03,0.06 l -0.03,0.01 c -0.35,0 -0.64,0.01 -0.99,0.02 -0.03,0 0,0 -0.04,0 -342.71,8.03 -644.44,182.34 -827.09,445.33 -77.34,111.04 -133.42,237.81 -162.5,374.55 -0.02,0.1 -0.05,0.2 -0.07,0.3 -0.02,0.1 -0.04,0.2 -0.06,0.3 -14.1,66.51 -21.82,135.34 -22.49,205.89 0,0.03 0,0.07 0,0.09 0,0.21 0,0.52 0,0.73 0,0.03 0,0.06 0,0.09 -0.01,0.55 -0.01,1.04 -0.02,1.59 0,0.06 0,0.09 0,0.14 0,0.21 0,0.45 0,0.66 0,0.06 0,0.1 0,0.15 -0.01,0.25 -0.01,0.49 -0.01,0.73 0,0.01 0,0.04 0,0.06 0,0.27 0,0.5 0,0.78 0,0.05 0,0.11 0,0.16 0,0.21 -0.01,0.41 -0.01,0.62 0,0.06 0,0.14 0,0.21 0,0.21 0,0.4 0,0.61 0,0.05 0,0.11 0,0.17 0,0.27 0,0.48 0,0.76 0,0.04 0,0.11 0,0.15 0,0.21 0,0.41 0,0.62 0,0.08 0,0.15 0,0.23 0,0.21 0,0.34 0,0.55 0,0.08 0,0.16 0,0.24 0,0.24 0,0.51 0,0.75 v 0 c 0,0.32 0,0.64 0,0.96 0,0.1 0,0.16 0,0.27 0,0.24 0,0.45 0,0.69 0,0.1 0,0.21 0,0.32 0,0.21 0,0.44 0,0.66 0,0.1 0,0.2 0,0.31 0,0.26 0,0.51 0,0.77 0,0.07 0,0.11 0,0.18 0,0.32 0.01,0.62 0.01,0.94 0,0.07 0,0.21 0,0.28 0,0.24 0,0.43 0,0.67 0,0.1 0,0.26 0,0.37 0.01,0.19 0.01,0.39 0.01,0.58 0,0.11 0,0.27 0,0.37 0,0.24 0,0.43 0.01,0.67 0,0.07 0,0.21 0,0.28 0,0.3 0,0.62 0.01,0.92 0,0.1 0,0.21 0,0.32 0,0.21 0,0.41 0,0.63 0.01,0.14 0.01,0.24 0.01,0.38 0,0.19 0,0.37 0,0.56 0.01,0.14 0.01,0.27 0.01,0.41 0,0.2 0,0.37 0,0.56 0.01,0.11 0.01,0.29 0.01,0.39 0,0.19 0,0.42 0.01,0.62 0,0.21 0,0.43 0,0.64 0.01,0.19 0.01,0.37 0.01,0.57 0,0.14 0.01,0.29 0.01,0.43 0,0.17 0,0.33 0.01,0.5 0,0.14 0,0.32 0,0.46 0,0.15 0.01,0.35 0.01,0.5 0,0.14 0,0.31 0.01,0.45 0,0.17 0,0.3 0,0.47 0.01,0.32 0.01,0.64 0.02,0.96 0,0.11 0,0.23 0.01,0.34 0,0.21 0,0.36 0.01,0.57 0,0.11 0,0.24 0,0.35 0.01,0.21 0.01,0.37 0.01,0.58 0.01,0.11 0.01,0.22 0.01,0.33 0,0.17 0.01,0.41 0.01,0.59 0,0.08 0,0.2 0.01,0.29 0.01,0.73 0.03,1.45 0.04,2.18 0,0.04 0,0.09 0.01,0.13 0,0.25 0.01,0.44 0.01,0.69 0,0.06 0,0.16 0.01,0.22 0,0.21 0.01,0.47 0.01,0.68 0,0.04 0,0.12 0.01,0.17 0.02,1.07 0.05,2.11 0.08,3.19 0,0.02 0,0.03 0,0.05 0.01,0.28 0.01,0.52 0.02,0.8 0,0.02 0,0.01 0,0.04 2.7,97.21 18.76,191.02 46.45,279.78 0.01,0.04 0.01,0.02 0.02,0.06 0.07,0.22 0.13,0.43 0.2,0.65 0.03,0.08 0.05,0.15 0.07,0.23 0.06,0.19 0.12,0.36 0.18,0.55 0.04,0.13 0.09,0.29 0.13,0.42 0.04,0.13 0.08,0.27 0.12,0.39 0.09,0.3 0.18,0.57 0.27,0.86 0.01,0.03 0.03,0.07 0.04,0.11 0.08,0.27 0.17,0.53 0.25,0.81 0.01,0.03 0.02,0.07 0.03,0.1 31.69,100.07 78.15,193.57 136.83,277.97 2.21,-29.57 7.8,-58.31 16.44,-83.73 20.2,-60.02 57.34,-81.48 101.87,-110.11 44.68,-28.66 18.61,-49.72 30.97,-87.68 12.48,-38 15.8,-58.64 36.86,-84.71 21.06,-26.07 -27.24,-40.15 -50.34,-67.12 -23.06,-26.84 -33.14,-43.12 -36.22,-115.29 -3.2,-72.12 40.81,-149.43 50.16,-181.62 9.34,-32.18 -34.44,-47.68 -46.77,-102.32 -12.34,-54.62 -69.44,-189.82 -50.87,-286.2 10.76,-56.17 26.53,-80.55 41.13,-80.55 10.43,0 20.26,12.45 27.24,34.65 16.73,53.25 19.56,108.82 64.99,135.64 45.43,26.83 102,-7.76 150.95,54.96 17.41,22.28 30.13,35.54 41.21,43.87 6.44,-12.97 13.19,-25.9 20.24,-38.72 173.63,-315.68 448.7,-430.71 697.47,-448.64 8.23,-2.28 16.74,-3.39 25.28,-3.39 5.32,0 10.65,0.43 15.93,1.28 10.29,-0.31 20.51,-0.47 30.67,-0.47 180.36,0 339.26,48.2 423.87,101.91 -184.43,-187.36 -439.48,-305.04 -722.05,-309.59 -0.04,0 -0.09,-0.01 -0.13,-0.01 -0.25,0 -0.49,0 -0.73,-0.01 -0.05,0 -0.12,0 -0.17,0 -0.24,0 -0.47,-0.01 -0.72,-0.01 -0.02,0 -0.1,0 -0.12,0 -0.74,-0.01 -1.46,-0.02 -2.2,-0.03 -0.09,0 -0.23,0 -0.32,-0.01 -0.17,0 -0.4,0 -0.57,0 -0.13,0 -0.24,-0.01 -0.37,-0.01 -0.2,0 -0.35,0 -0.54,0 -0.13,0 -0.3,-0.01 -0.42,-0.01 -0.16,0 -0.35,0 -0.51,0 -0.19,0 -0.36,-0.01 -0.55,-0.01 -0.23,0 -0.47,0 -0.7,0 -0.2,0 -0.37,-0.01 -0.56,-0.01 -0.16,0 -0.28,0 -0.44,0 -0.17,0 -0.36,0 -0.53,-0.01 -0.12,0 -0.28,0 -0.4,0 -0.19,0 -0.38,0 -0.58,0 -0.12,0 -0.26,0 -0.38,0 -0.22,0 -0.44,-0.01 -0.66,-0.01 -0.09,0 -0.2,0 -0.29,0 -0.3,0 -0.62,0 -0.92,0 -0.09,0 -0.21,0 -0.3,0 -0.21,0 -0.46,-0.01 -0.67,-0.01 -0.11,0 -0.23,0 -0.33,0 -0.22,0 -0.41,0 -0.63,0 -0.12,0 -0.23,0 -0.36,0 -0.23,0 -0.43,0 -0.67,0 -0.09,0 -0.19,0 -0.27,0 -0.33,0 -0.64,0 -0.96,0 m -573.97,1299.48 c -28.89,7.07 -54.83,12.77 -68,23.05 -31.36,24.47 -26.77,100.99 -14.01,126.24 12.88,25.2 -10.94,42.48 -38.98,46.32 -28.01,3.97 -35.76,25.87 -29.12,62.83 5.37,29.26 50.56,49.04 91.21,49.04 10.65,0 20.99,-1.36 30.22,-4.25 44.33,-13.93 59.57,-43.15 45.86,-102.17 -6.96,-29.93 -3.79,-55.52 5.66,-76.84 -9.91,-40.57 -17.57,-82.1 -22.84,-124.22 m 399.14,683.66 c -1.77,1.12 -3.45,2.28 -5.02,3.49 -21.42,16.52 -46.35,37.65 -74.76,55.64 77.47,19.56 158.37,30.4 241.64,31.42 0.04,0 0.1,0 0.14,0 0.17,0.01 0.36,0.01 0.53,0.01 0.04,0 0.14,0 0.17,0.01 0.55,0 1.13,0.01 1.67,0.01 0.07,0 0.14,0 0.21,0 0.14,0 0.29,0 0.44,0.01 0.14,0 0.2,0 0.34,0 0.12,0 0.26,0 0.38,0 0.14,0 0.29,0.01 0.43,0.01 0.17,0 0.36,0 0.53,0 0.18,0 0.29,0 0.46,0 0.11,0 0.23,0.01 0.34,0.01 0.14,0 0.31,0 0.45,0 0.11,0 0.19,0 0.3,0 0.17,0 0.33,0.01 0.5,0.01 0.1,0 0.17,0 0.26,0 0.21,0 0.49,0 0.7,0 0.11,0 0.2,0 0.31,0 0.17,0 0.29,0 0.46,0 0.11,0 0.2,0 0.31,0 0.17,0 0.34,0.01 0.51,0.01 0.08,0 0.15,0 0.23,0 0.25,0 0.49,0 0.74,0 0.07,0 0.14,0 0.2,0 0.18,0 0.39,0 0.57,0 0.08,0 0.18,0 0.26,0 0.18,0 0.34,0 0.52,0 0.08,0 0.17,0 0.25,0 0.25,0 0.51,0 0.76,0 20.29,0 40.4,-0.77 60.42,-1.93 -84.32,-12.76 -163.39,-43.56 -235.25,-88.7 m -220.22,12.71 c 26.62,10.98 53.8,20.88 81.48,29.65 -27.59,-8.76 -54.77,-18.65 -81.48,-29.65"
         style="fill:#5cc7b3;fill-opacity:1;fill-rule:nonzero;stroke:none"
         id="path138" /><path
         d="m 1695.54,2323.72 c -14.6,0 -30.37,24.38 -41.13,80.55 -18.57,96.38 38.53,231.58 50.87,286.2 12.33,54.64 56.11,70.14 46.77,102.32 -9.35,32.19 -53.36,109.5 -50.16,181.62 3.08,72.17 13.16,88.45 36.22,115.29 23.1,26.97 71.4,41.05 50.34,67.12 -21.06,26.07 -24.38,46.71 -36.86,84.71 -12.36,37.96 13.71,59.02 -30.97,87.68 -44.53,28.63 -81.67,50.09 -101.87,110.11 -8.64,25.42 -14.23,54.16 -16.44,83.73 v 0 c 0,0 0,0.02 0,0.02 113.07,162.62 271.53,291.36 456.98,367.86 26.71,11 53.89,20.89 81.48,29.65 19.42,6.16 39.06,11.75 58.96,16.77 v 0 0 c 28.41,-17.99 53.34,-39.12 74.76,-55.64 1.57,-1.21 3.25,-2.37 5.02,-3.49 -182.15,-114.42 -318.04,-320.96 -376.3,-559.44 -9.45,21.32 -12.62,46.91 -5.66,76.84 13.71,59.02 -1.53,88.24 -45.86,102.17 -9.23,2.89 -19.57,4.25 -30.22,4.25 -40.65,0 -85.84,-19.78 -91.21,-49.04 -6.64,-36.96 1.11,-58.86 29.12,-62.83 28.04,-3.84 51.86,-21.12 38.98,-46.32 -12.76,-25.25 -17.35,-101.77 14.01,-126.24 13.17,-10.28 39.11,-15.98 68,-23.05 -24.6,-196.98 3.31,-407.62 99.56,-601.72 -11.08,-8.33 -23.8,-21.59 -41.21,-43.87 -48.95,-62.72 -105.52,-28.13 -150.95,-54.96 -45.43,-26.82 -48.26,-82.39 -64.99,-135.64 -6.98,-22.2 -16.81,-34.65 -27.24,-34.65"
         style="fill:#29444e;fill-opacity:1;fill-rule:nonzero;stroke:none"
         id="path140" /><path
         d="m 2722.92,2102.09 c -8.54,0 -17.05,1.11 -25.28,3.39 13.81,-1 27.58,-1.7 41.21,-2.11 -5.28,-0.85 -10.61,-1.28 -15.93,-1.28"
         style="fill:#29444e;fill-opacity:1;fill-rule:nonzero;stroke:none"
         id="path142" /><path
         d="m 4072.42,1159.21 c 1.71,3.05 2.91,6.6 3.93,11.13 2.86,12.91 -0.3,24.8 -5.32,36.78 -6.07,14.44 -9.62,26.51 -8.83,44.06 0.71,15.86 2.64,29.66 5.08,46.79 10.03,70.93 30.03,187.83 30.76,215.76 1.22,47.55 1.2,71.08 -7.65,108.45 0,0 33.1,108.05 47.04,169.69 22.27,98.38 37.35,174.5 29.45,259.96 -7.13,77.12 1.26,109.75 -43.72,161.43 -5.17,6.7 -8.45,10.75 -8.45,10.75 0,0 -156.16,-168.04 -165.02,-197.08 -5.41,-95.51 -8.88,-209.86 -11.82,-299.76 -2.45,-74.66 0.58,-84.82 9.21,-172.49 7.11,-72.25 14.43,-152.14 23.09,-237.04 2.74,-26.94 4.87,-59.13 -3.64,-85.24 -17.55,-53.81 -66.88,-85.73 -108.48,-120.01 -7.29,-6.01 -15.2,-13.23 -15.43,-22.68 -0.21,-8.12 5.71,-15.4 12.88,-19.23 8.76,-4.67 18.73,-5 28.29,-6.45 10.47,-1.59 20.66,-3.62 31.34,-2.59 17.73,1.71 37.4,2.71 53.78,10.48 14.65,6.97 25.47,23.82 36.89,35.34 11.05,11.12 19.76,22.91 33.04,31.22 10.42,6.52 27.07,9.16 33.58,20.73"
         style="fill:#f6879f;fill-opacity:1;fill-rule:nonzero;stroke:none"
         id="path144" /><path
         d="m 3839.22,1082.72 c -0.71,-6.89 -0.02,-15.91 3.39,-20.12 5.26,-6.49 24.46,-23.67 73.95,-21.67 47.59,1.92 75.42,24.74 85.21,37.51 9.78,12.76 18.67,25.27 28.34,35.59 8.49,9.08 23.31,14.91 32.66,17.89 9.37,2.98 12,6.37 11.11,19.94 -2.98,12.68 -234.66,-69.14 -234.66,-69.14"
         style="fill:#273e47;fill-opacity:1;fill-rule:nonzero;stroke:none"
         id="path146" /><path
         d="m 4062.1,1247.56 c -0.05,-2.71 0.05,-5.51 0.27,-8.42 0,0 0.73,-19.3 -11.9,-23.79 -14.97,-5.32 -13.97,5.66 -25.27,14.64 -24.64,19.56 -54.69,17.94 -61.86,1.32 -9.5,-22.03 -43.13,-62.91 -55.2,-74.15 -12.07,-11.24 -19.34,-17.26 -31.29,-25.74 -11.96,-8.48 -40.99,-23.85 -38.15,-42.64 2.85,-18.79 20.5,-29.03 44.41,-33.02 23.91,-3.99 63.42,-1.11 93.62,18.54 21.97,14.3 41.1,42 49.3,50.07 14.93,14.69 38.87,17.78 46.53,25.25 6.38,9.73 8.36,25.54 5.27,42.72 -3.01,16.75 -7.39,31.74 -7.96,40.12 -0.56,8.37 -1.79,14.47 -7.77,15.1"
         style="fill:#33535f;fill-opacity:1;fill-rule:nonzero;stroke:none"
         id="path148" /><path
         d="m 3913.67,1132.81 c -11.87,3.72 -22.62,3.86 -32.02,2.12 -2.68,0.25 -6.85,-2.23 -8.59,-3.47 -11.97,-8.48 -38.38,-23.33 -35.53,-42.12 2.84,-18.79 19.9,-30.19 43.81,-34.17 21.98,-3.67 60.56,-3.39 87.81,14.86 -2.22,26.51 -23.05,52.62 -55.48,62.78"
         style="fill:#ededeb;fill-opacity:1;fill-rule:nonzero;stroke:none"
         id="path150" /><path
         d="m 4519.24,1228.57 c -2.75,9.02 -9.27,17.11 -16.32,23.68 -7.85,7.31 -16.71,13.61 -23.73,21.78 -6.37,7.41 -9.91,18.15 -13.64,27.15 -2.41,5.81 -8.26,25.3 -15.81,51.25 -20.01,68.79 -51.9,183 -63.01,208.63 -18.92,43.65 -37.34,71.86 -61.22,91.59 0,0 -5.55,119.02 -7.75,182.18 -3.25,93.25 -14.1,193.9 -59.05,259.02 -43.99,63.73 -81.35,84.3 -143.92,112.21 -7.51,3.9 -12.19,6.19 -12.19,6.19 0,0 -20.91,-294.4 -8,-281.6 16.6,-76.03 38.65,-165.32 56.94,-243.49 16.5,-70.49 20.9,-83.46 69.77,-157.87 39.85,-60.68 87.31,-133.02 130.93,-206.37 18.95,-31.88 40.03,-74.74 44.35,-112.45 5.68,-49.29 -7.86,-104.03 -37.95,-143.8 -3.94,-5.21 -8.44,-10.83 -8.17,-17.36 0.4,-9.16 9.83,-15.05 18.51,-17.99 21.18,-7.14 44.88,-6.49 65.62,1.81 34.99,14 60.87,50.92 58.49,89.16 -1.34,21.5 1.44,43.57 12.22,62.58 6.12,10.77 14.65,21.05 15.26,33.42 0.17,3.54 -0.33,6.97 -1.33,10.28"
         style="fill:#f6879f;fill-opacity:1;fill-rule:nonzero;stroke:none"
         id="path152" /><path
         d="m 4350.86,1029.58 c 3.53,-10.06 9.72,-19.55 23.33,-22.03 13.6,-2.47 49.48,-8.081 87.01,18.85 37.53,26.93 42.47,49.2 44.12,69.41 1.65,20.21 -4.12,49.07 2.89,64.33 7.01,15.26 16.03,25.16 18.53,36.71 2.51,11.54 -2.85,27.62 -2.85,27.62 l -173.03,-194.89"
         style="fill:#273e47;fill-opacity:1;fill-rule:nonzero;stroke:none"
         id="path154" /><path
         d="m 4479.19,1274.03 c 0,0 3.98,-6.87 4.78,-8.92 1.38,-3.56 10.35,-20.29 -8.09,-36.31 -5.8,-5.04 -18.47,0.35 -29.12,1.15 -17.94,1.35 -40.25,-4.96 -52.37,-21.27 1.04,-34.14 1.9,-54.51 -7.61,-82.08 0,0 -13.86,-29.55 -23.07,-41.35 -9.21,-11.79 -25.5,-30.91 -17,-47.91 0,0 4.96,-10.63 21.25,-16.29 16.29,-5.67 51.7,-7.79 85.7,14.16 34,21.96 40.37,48.16 43.21,70.83 2.83,22.66 -2.13,46.8 6.36,63.41 8.51,16.62 19.98,22.57 23.04,45.42 0,0 2,13.82 -13.04,28.03 -18.39,17.36 -28.91,38 -34.04,31.13"
         style="fill:#33535f;fill-opacity:1;fill-rule:nonzero;stroke:none"
         id="path156" /><path
         d="m 4456.6,1085.58 c -21.06,16.89 -57.18,26.88 -88.86,5.46 l -0.02,-0.02 c -2.03,-1.77 -4.52,-4.66 -5.78,-6.28 -9.21,-11.8 -25.47,-29.95 -16.98,-46.94 0,0 3.73,-11.4 21.79,-17.34 16.38,-5.39 52.91,-7.2 86.91,14.75 8.28,5.35 14.89,10.95 20.25,16.69 l 0.72,0.78 0.54,0.63 c -0.03,0.23 -4.3,20.83 -18.57,32.27"
         style="fill:#ededeb;fill-opacity:1;fill-rule:nonzero;stroke:none"
         id="path158" /><path
         d="m 3947.3,2018.67 c -7.63,-116.39 -13.35,-266.17 -13.35,-266.17 0,0 26.71,-29.58 101.13,-35.31 74.4,-5.72 87.76,0 87.76,0 l 8.59,30.53 8.59,-37.2 c 0,0 32.46,-12.82 103.03,0 79.2,14.39 90.01,44.47 90.01,44.47 0,0 -1.52,116.46 -7.24,180.24 -5.72,63.78 -48.91,168.32 -48.91,168.32 l -329.61,-84.88"
         style="fill:#33535f;fill-opacity:1;fill-rule:nonzero;stroke:none"
         id="path160" /><path
         d="m 4131.43,1747.72 -25.44,105.89 c 0,0 -39.31,-1.07 -75.42,19.12 0,0 15.92,-31.87 65.86,-38.24 l 24.42,-86.77 1.99,-30.53 8.59,30.53"
         style="fill:#273e47;fill-opacity:1;fill-rule:nonzero;stroke:none"
         id="path162" /><path
         d="m 3762.41,2689.13 57.23,-156.58 c 0,0 157.46,-78.9 229.77,-106.95 -22.49,-15.39 -38.11,-36.97 -55.84,-79.47 l -13.73,-42.51 c 0,0 -141.24,79.84 -221.72,137.33 -36.62,26.15 -42.12,51.77 -48.33,79.38 -7.57,33.7 -11.23,53.33 -22.31,115.5 -2.77,15.54 -5.51,29.97 -8.19,43.22 -4.53,22.39 -11.57,44.17 -18.43,65.93 -7.33,23.2 -8.27,41.57 -6.54,65.78 1.12,15.75 5.35,32.16 14.66,45.51 9.31,13.35 28.88,24.53 44.44,29.34 11.88,3.67 21.37,-0.43 24.88,-6.84 2.59,-4.72 2.05,-10.45 1.64,-15.82 -1.69,-22.47 -5.49,-45.46 -0.13,-67.35 0.68,-2.78 1.66,-5.87 4.2,-7.18 4.81,-2.48 11.95,14.92 15.33,18.5 10.81,11.43 22.64,8.37 27.04,4.82 3.43,-2.75 -4.08,-10.71 -8.4,-27.96 -5.51,-22.03 -2.01,-39.93 -13.68,-61.55 -3.82,-7.07 -6.27,-18.08 -1.89,-33.1"
         style="fill:#f6879f;fill-opacity:1;fill-rule:nonzero;stroke:none"
         id="path164" /><path
         d="m 4044.52,2432.68 -119.84,48.66 c 0,0 -21.37,-0.28 -46.42,-42.72 -25.05,-42.43 -11.13,-84.18 -11.13,-84.18 l 104.47,-59.83 72.92,138.07"
         style="fill:#33535f;fill-opacity:1;fill-rule:nonzero;stroke:none"
         id="path166" /><path
         d="m 4255.21,2410.34 c 31.5,-5.59 46.4,-30.54 53.3,-61.79 3.42,-15.51 1.56,-34.04 -3.01,-66.9 -4.57,-32.87 -25.19,-176.84 -25.19,-176.84 l 37.46,-111.59 c -50.71,-55.16 -263.6,-99.54 -374.33,-18.67 0,0 9.21,279.47 17.5,335.18 11.23,75.46 39.22,114.41 73.15,122.03 3.51,0.79 18.94,1.6 29.19,0.8 l 123.38,-6.74 68.55,-15.48"
         style="fill:#26b6a6;fill-opacity:1;fill-rule:nonzero;stroke:none"
         id="path168" /><path
         d="m 4322.59,1955.71 18.76,165.65 c 0,0 -43.18,60.23 -88.33,122.29 -52.23,83.98 11.47,164.29 11.47,164.29 64.04,-11.15 61.92,-50.32 172.82,-232.11 23.44,-38.42 19.69,-39.8 7.78,-92.62 -7.6,-33.69 -13.78,-52.72 -31.65,-113.3 -4.47,-15.13 -8.46,-29.27 -11.98,-42.32 -5.95,-22.06 -9.4,-44.68 -12.96,-67.22 -3.81,-24.03 -11.19,-40.88 -23.55,-61.77 -8.04,-13.59 -19.16,-26.38 -33.46,-34.16 -14.28,-7.79 -36.79,-9.04 -52.85,-6.39 -12.27,2.02 -18.93,9.93 -19.21,17.23 -0.2,5.37 2.84,10.26 5.59,14.88 11.56,19.35 25.22,38.22 30.21,60.2 0.64,2.79 1.15,5.99 -0.54,8.31 -3.2,4.35 -17.36,-8.02 -21.97,-9.71 -14.79,-5.4 -24,2.63 -26.36,7.77 -1.84,3.99 8.44,7.75 20.01,21.26 14.77,17.24 19.65,34.82 39.74,48.95 6.58,4.63 13.69,13.37 16.48,28.77"
         style="fill:#f6879f;fill-opacity:1;fill-rule:nonzero;stroke:none"
         id="path170" /><path
         d="m 4255.21,2410.34 c 23.62,-3.23 37.3,-6.09 54.77,-22.36 17.47,-16.28 27.37,-32.8 39.66,-54.51 26.43,-46.74 44.84,-79.31 44.84,-79.31 0,0 -9.99,-53.56 -95.74,-77.91 0,0 -59.79,78.37 -66.3,91.12 -6.49,12.75 -36.26,95.69 22.77,142.97"
         style="fill:#33535f;fill-opacity:1;fill-rule:nonzero;stroke:none"
         id="path172" /><path
         d="m 4192.69,2464.16 c 27.54,41.79 69.24,43.38 105.76,108.5 39.31,70.12 -12.7,146.05 -30.74,158.94 0,0 -1.32,37.4 -53.06,68.24 -64.66,38.54 -196.8,29.81 -254.2,-62.13 l 232.24,-273.55"
         style="fill:#273e47;fill-opacity:1;fill-rule:nonzero;stroke:none"
         id="path174" /><path
         d="m 4263.58,2734.94 c 34.44,34.51 80.08,40.14 120.3,8.17 47.35,-37.65 40.6,-146.63 105.79,-165.01 26.19,-7.39 14.9,-34.72 -20.4,-42.95 -46.78,-10.92 -91.95,11.69 -116.77,67.93 -24.82,56.25 -28.35,119.93 -73.49,112.34 -30.49,-5.12 -15.43,19.52 -15.43,19.52"
         style="fill:#273e47;fill-opacity:1;fill-rule:nonzero;stroke:none"
         id="path176" /><path
         d="m 4208.49,2584.92 c 5.9,-4.41 7.28,-6.45 12.59,3.51 11.45,21.4 40.99,24.37 50.64,3.82 12.83,-27.33 -4.53,-52.98 -28.75,-62.74 -32.49,-13.09 -41.36,6.64 -41.36,6.64 l -15.32,-123.7 c 0,0 -28.15,-52.75 -89.93,-54.77 -61.78,-2.02 -53.89,47.29 -31.35,69.86 l 1.53,36.51 c 0,0 -22.29,0.5 -44.65,9.1 -18.85,7.26 -32.41,20.42 -42.13,51.23 -13.09,41.46 -10.91,85.11 10.06,165.21 24.31,92.78 140.65,83.66 196.3,40.12 55.67,-43.54 22.37,-144.79 22.37,-144.79"
         style="fill:#f6879f;fill-opacity:1;fill-rule:nonzero;stroke:none"
         id="path178" /><path
         d="m 4221.7,2640.84 7.93,85.13 -120.67,80.86 c -84.14,10.71 -161.03,-48.81 -171.73,-132.94 l -2.52,-19.75 74.54,-9.49 c 34.71,-4.42 67.33,17.48 76.39,51.28 l -4.92,-60.38 c 28.62,-3.65 55.26,15.18 61.37,43.37 l 2.1,9.67 c -1.51,-32.41 20.73,-60.76 51.92,-67.46 l -2.39,-31.9 c -1.08,-14.44 9.5,-27.13 23.91,-28.65 l 3.45,27.85 14.57,48.39 -13.95,4.02"
         style="fill:#273e47;fill-opacity:1;fill-rule:nonzero;stroke:none"
         id="path180" /><path
         d="m 4099.57,2604.45 c -0.74,-7.31 4.36,-13.8 11.39,-14.5 7.04,-0.7 13.35,4.65 14.09,11.96 0.75,7.31 -4.35,13.8 -11.38,14.51 -7.04,0.7 -13.35,-4.66 -14.1,-11.97"
         style="fill:#17282f;fill-opacity:1;fill-rule:nonzero;stroke:none"
         id="path182" /><path
         d="m 4120.1,2641.2 25.54,-17.72 c 4.78,7.37 2.94,17.31 -4.11,22.2 -7.05,4.89 -16.65,2.88 -21.43,-4.48"
         style="fill:#17282f;fill-opacity:1;fill-rule:nonzero;stroke:none"
         id="path184" /><path
         d="m 4105.82,2539.11 -49.85,-13.1 c 3.34,-14.25 17.2,-22.87 30.97,-19.26 13.77,3.62 22.23,18.1 18.88,32.36"
         style="fill:#c35363;fill-opacity:1;fill-rule:nonzero;stroke:none"
         id="path186" /><path
         d="m 4104.95,2523.57 c -3.12,1.96 -6.75,3.2 -10.7,3.31 -11.35,0.29 -20.75,-8.37 -21.69,-19.54 4.48,-1.55 9.43,-1.89 14.38,-0.59 8.62,2.26 15.14,8.78 18.01,16.82"
         style="fill:#f47089;fill-opacity:1;fill-rule:nonzero;stroke:none"
         id="path188" /><path
         d="m 3989.89,2656.06 30.36,7.69 c -1.82,8.53 -10.09,13.72 -18.48,11.6 -8.38,-2.13 -13.7,-10.76 -11.88,-19.29"
         style="fill:#17282f;fill-opacity:1;fill-rule:nonzero;stroke:none"
         id="path190" /><path
         d="m 3993.45,2616.47 c -0.74,-7.3 4.35,-13.8 11.38,-14.5 7.05,-0.7 13.35,4.66 14.1,11.97 0.75,7.31 -4.35,13.8 -11.38,14.5 -7.04,0.7 -13.35,-4.66 -14.1,-11.97"
         style="fill:#17282f;fill-opacity:1;fill-rule:nonzero;stroke:none"
         id="path192" /><path
         d="m 4062.79,2622.26 -10.68,-67.61 -34.26,15.74 z"
         style="fill:#f47089;fill-opacity:1;fill-rule:nonzero;stroke:none"
         id="path194" /><path
         d="m 4066.54,2464.05 c 0,0 61.29,0.04 90.61,14.91 13.41,6.79 26.03,16.71 30.03,24.18 0,0 -4.89,-16.88 -18.75,-30.23 -30.47,-29.34 -102.49,-23.28 -102.49,-23.28 l 0.6,14.42"
         style="fill:#f47089;fill-opacity:1;fill-rule:nonzero;stroke:none"
         id="path196" /><path
         d="m 3729.24,2894.55 c -11.03,23.04 -1.28,50.67 21.78,61.7 23.04,11.02 50.67,1.27 61.7,-21.77 11.02,-23.05 1.27,-50.68 -21.77,-61.7 -23.06,-11.03 -50.68,-1.29 -61.71,21.77 z m 122.59,58.64 c -22.78,47.6 -79.82,67.72 -127.42,44.95 -81.72,-39.09 -117.81,-162.27 -117.81,-162.27 0,0 118.56,-49.19 200.28,-10.09 47.59,22.77 67.72,79.81 44.95,127.41"
         style="fill:#26b6a6;fill-opacity:1;fill-rule:nonzero;stroke:none"
         id="path198" /><path
         d="m 460.895,1218.33 c 8.933,29.37 73.484,230.89 98.07,299.2 27.75,77.1 31.543,104.24 48.734,174.55 8.16,33.39 17.028,68.81 25.867,104.35 11.817,-54.81 29.356,-151.81 33.207,-173.27 -0.296,-3.23 -0.648,-7.25 -1.011,-11.91 -7.457,-33.08 -7.637,-56.54 -6.934,-100.8 0.449,-27.94 18.481,-145.14 28.625,-216.05 2.238,-15.71 4.731,-31.45 6.254,-47.25 1.531,-15.94 -4.707,-29.18 -10.91,-43.55 -5.149,-11.94 -8.422,-23.8 -5.684,-36.73 0.965,-4.55 2.129,-8.11 3.817,-11.17 6.39,-11.63 19.336,-15.32 29.687,-21.95 13.192,-8.45 24.485,-24.52 35.414,-35.76 11.317,-11.63 22.949,-23.49 37.543,-30.6 16.293,-7.94 35.953,-9.13 53.672,-11.02 10.66,-1.14 20.871,0.79 31.363,2.28 9.567,1.36 19.547,1.58 28.344,6.17 7.207,3.76 13.199,10.98 13.082,19.1 -0.14,9.45 -7.984,16.75 -15.215,22.83 -41.25,34.7 -101.441,78.17 -112.359,133.71 0,0 6.047,44.96 8.43,71.93 8.074,91.53 11.464,165.34 19.289,237.51 9.504,87.59 12.629,97.72 10.925,172.39 -0.582,25.33 -1.714,52.29 -3.316,80.01 -1.457,87.48 -7.09,172.27 -6.84,237.48 0,0 -121.027,-2.3 -216.929,-8.33 -103.352,-12.67 -138.633,-36.01 -135.582,-49.22 -9.321,-45.13 -13.379,-93.9 -15.477,-140.83 -2.828,-63.13 -13.563,-227.44 -13.563,-227.44 -30.753,-53.5 -40.765,-100.95 -44.57,-137.44 -2.898,-27.79 -14.07,-215.31 -16.492,-228.88 -2.336,-10.52 -11.281,-26.37 -17.063,-35.4 -5.199,-8.12 -9.503,-17.57 -9.91,-26.99 -0.152,-3.46 0.223,-6.91 1.27,-10.29 3.672,-11.83 14.496,-19.66 23.094,-28.57 15.187,-15.73 23.371,-36.4 27.433,-57.57 7.215,-37.62 41.473,-66.93 78.852,-71.78 22.152,-2.87 45.273,2.4 63.996,14.6 7.676,5 15.344,13.06 13.445,22.02 -1.351,6.4 -7.117,10.72 -12.242,14.79 -39.031,31.01 -69.813,78.41 -76.602,127.56 -1.296,9.4 -1.371,16.44 0.286,22.32"
         style="fill:#c35363;fill-opacity:1;fill-rule:nonzero;stroke:none"
         id="path200" /><path
         d="m 678.102,1151.76 c 0,0 -3.247,0.17 -2.832,-8.15 0.531,-10.62 3.734,-13.5 9.734,-17.87 6.93,-5.05 31.512,-15.05 46.914,-35.32 10.855,-14.28 15.535,-29.88 51.656,-48.89 36.125,-19.02 87.934,-11.41 105.996,-2.38 18.063,9.03 21.895,12.81 22.828,28.98 l -234.296,83.63"
         style="fill:#17282f;fill-opacity:1;fill-rule:nonzero;stroke:none"
         id="path202" /><path
         d="m 782.461,1240.46 c -4.559,-6.87 -28.961,-10.28 -39.527,-14.39 -10.571,-4.11 -9.227,-28.33 -9.227,-28.33 -9.629,0.14 -10.508,7.26 -13.769,19.59 -5.512,20.85 -21.008,20.81 -26.028,23.47 l -0.203,6.35 c 0,0 -5.293,1.57 -6.445,-8.42 -1.153,-9.99 -4.942,-27.54 -8.981,-39.54 -3.004,-8.92 -7.89,-41.51 -1,-51.35 0,0 10.594,-9.66 21.551,-16.09 15.637,-9.17 34.504,-24.55 43.316,-37.8 8.821,-13.25 35.891,-44.05 95.368,-44.64 59.48,-0.59 76.011,20.83 76.011,20.83 0,0 14.457,24.6 -10.105,42.74 -24.559,18.14 -34.992,26.01 -65.305,50.13 -49.883,39.7 -36.863,81.86 -55.656,77.45"
         style="fill:#33535f;fill-opacity:1;fill-rule:nonzero;stroke:none"
         id="path204" /><path
         d="m 775.844,1064 c 11.75,29.18 27.461,49.63 58.98,61.54 31.524,11.9 45.942,7.76 58.883,0 12.938,-7.77 35.758,-27.33 19.82,-55.4 0,0 -8.882,-22.89 -66.113,-24.19 -57.234,-1.29 -71.57,18.05 -71.57,18.05"
         style="fill:#fafaf9;fill-opacity:1;fill-rule:nonzero;stroke:none"
         id="path206" /><path
         d="m 332.969,1167.67 c -2.625,-9.94 -5.512,-18.01 3.726,-29.05 9.243,-11.04 21.153,-17.67 29.227,-26.39 8.074,-8.71 11.308,-27.89 16.367,-44.26 5.055,-16.37 19.465,-44.14 44.309,-57.79 24.84,-13.649 44.761,-20.02 73.441,-14.739 28.684,5.269 44.215,14.079 51.34,38.659 l -218.41,133.57"
         style="fill:#17282f;fill-opacity:1;fill-rule:nonzero;stroke:none"
         id="path208" /><path
         d="m 466.398,1222.04 c 4.481,11.9 -25.136,-6.13 -58.164,1.87 -5.925,1.44 -8.703,-1.24 -10.105,-7.31 -1.141,-4.96 -2.762,-12.62 -10.262,-10.05 -2.961,1.01 -5.051,3.75 -6.156,6.68 -1.106,2.92 -1.395,6.08 -1.867,9.18 -1.293,8.44 -3.414,21 -11.508,25.23 l 1.512,9.99 c 0,0 -7.68,7.04 -12.559,-17.06 -4.883,-24.11 -30.109,-40.34 -24.32,-72.9 0,0 8.969,-16.93 23.16,-28.37 14.187,-11.45 26.426,-26.19 31.766,-50.68 5.343,-24.48 28.183,-61.77 61.46,-71.44 33.278,-9.68 68.801,-7.23 104.063,19.11 0,0 17.355,23.95 -9.324,44.41 -26.676,20.46 -35.848,32.55 -51.809,52.16 -15.019,18.46 -30.375,61.96 -25.887,89.18"
         style="fill:#33535f;fill-opacity:1;fill-rule:nonzero;stroke:none"
         id="path210" /><path
         d="m 414.961,1039.43 c 15.191,23.22 34.16,49.64 70.473,57.56 36.316,7.92 51.089,-8.13 63.16,-18.43 12.07,-10.31 17.711,-27.54 4.824,-42.27 -12.891,-14.73 -38.473,-29.1 -75.336,-27.11 -41.328,2.23 -63.121,30.25 -63.121,30.25"
         style="fill:#fafaf9;fill-opacity:1;fill-rule:nonzero;stroke:none"
         id="path212" /><path
         d="m 453.93,2043.32 c 0,0 -8.016,-93.91 -10.926,-149.02 -2.91,-55.12 -19.594,-276.62 -19.594,-276.62 -20.465,-38.95 -35.82,-74.11 -41.539,-131.91 -7.172,-72.51 -9.547,-147.79 -11.226,-170.64 0,0 56.449,-37.27 116.191,-24.06 4.379,16.74 83.434,239.95 101.035,297.42 17.012,55.52 45.391,187.33 45.391,187.33 0,0 25.246,-124.16 21.383,-147.53 -15.567,-94.22 19.8,-252.8 26.859,-317.94 0,0 7.172,-18.65 53.976,-19.26 48.403,-0.64 57.426,15.89 57.426,15.89 0,0 29.571,313.36 33.305,372.4 3.734,59.05 -7.973,283.36 -15.262,360.4 l -357.019,3.54"
         style="fill:#33535f;fill-opacity:1;fill-rule:nonzero;stroke:none"
         id="path214" /><path
         d="m 633.262,1775.82 10.035,58.83 c 0,0 78.609,5.63 113.461,44.56 0,0 -11.969,-51.45 -94.352,-58.71 l -10.98,-56.8 2.816,-114.62 c -5.656,42.84 -13.379,80.19 -20.98,126.74"
         style="fill:#273e47;fill-opacity:1;fill-rule:nonzero;stroke:none"
         id="path216" /><path
         d="m 965.102,2731.36 -50.317,-158.93 c 0,0 -153.851,-85.71 -224.871,-116.9 23.145,-14.4 39.695,-35.27 59.266,-76.96 l 15.578,-41.86 c 0,0 137.605,85.95 215.496,146.9 35.436,27.73 39.826,53.56 44.806,81.42 6.09,33.99 8.89,53.76 17.24,116.37 2.09,15.64 4.19,30.17 6.29,43.53 3.54,22.57 9.62,44.64 15.53,66.67 6.31,23.5 6.44,41.9 3.66,66.01 -1.81,15.68 -6.76,31.89 -16.65,44.82 -9.88,12.93 -29.93,23.24 -45.67,27.37 -12.038,3.14 -21.335,-1.37 -24.562,-7.92 -2.378,-4.83 -1.589,-10.53 -0.953,-15.87 2.676,-22.38 7.473,-45.18 3.082,-67.29 -0.562,-2.81 -1.402,-5.93 -3.886,-7.36 -4.688,-2.68 -12.582,14.39 -16.118,17.81 -11.304,10.95 -22.988,7.37 -27.226,3.64 -3.305,-2.9 4.547,-10.52 9.613,-27.57 6.469,-21.76 3.766,-39.8 16.367,-60.89 4.121,-6.9 7.055,-17.79 3.325,-32.99"
         style="fill:#c35363;fill-opacity:1;fill-rule:nonzero;stroke:none"
         id="path218" /><path
         d="m 685.707,2458.79 126.383,57.89 c 0,0 21.359,0.65 48.238,-40.65 26.879,-41.3 14.805,-83.61 14.805,-83.61 l -95.754,-73.29 -93.672,139.66"
         style="fill:#33535f;fill-opacity:1;fill-rule:nonzero;stroke:none"
         id="path220" /><path
         d="m 466.539,2439.82 c -38.16,-7.8 -49.629,-26.13 -54.199,-60.41 -2.121,-15.89 -1.856,-64.14 8.719,-92.92 l 22.136,-138.21 -0.984,-178.41 c 81.988,-46.31 267.383,-63.9 379.953,16.6 0,0 -14.394,287.48 -22.207,343.79 -13.574,97.83 -53.766,132.62 -100.762,129.44 l -135.781,-9.09 c 0,0 -49.34,-1.07 -96.875,-10.79"
         style="fill:#26b6a6;fill-opacity:1;fill-rule:nonzero;stroke:none"
         id="path222" /><path
         d="m 784.797,2089.22 -168.067,87.05 c 0,0 -34.179,62.66 -73.136,142.86 -66.489,101.29 -100.75,107.1 -100.75,107.1 -76.731,-42.74 -46.188,-107.98 57.422,-306.32 20.164,-38.61 46.722,-48.23 100.742,-67.65 34.457,-12.39 52.64,-19.19 119.008,-39.94 15.972,-5 36.101,-10.68 49.785,-14.97 23.113,-7.23 38.699,-14.43 62.738,-21.36 24.785,-7.16 42.93,-13.29 68.652,-14.13 16.735,-0.55 34.508,2.12 49.61,10.47 15.097,8.35 29.039,27.77 35.816,43.64 5.176,12.13 1.895,22.58 -4.476,26.99 -4.696,3.25 -10.793,3.31 -16.496,3.48 -23.887,0.67 -48.551,-0.8 -71.051,7.25 -2.86,1.02 -6.004,2.39 -7.11,5.23 -2.082,5.32 17.051,10.94 21.192,14.12 13.242,10.15 11.316,22.96 8.062,27.99 -2.527,3.92 -11.746,-3.13 -30.41,-5.79 -23.844,-3.39 -42.332,2.26 -66.422,-7.67 -7.875,-3.25 -19.75,-4.63 -35.109,1.65"
         style="fill:#c35363;fill-opacity:1;fill-rule:nonzero;stroke:none"
         id="path224" /><path
         d="m 451.055,2435.55 c -66.813,-22.13 -63.141,-73.94 -58.532,-98.84 4.61,-24.88 10.641,-36.55 21.243,-60.78 24.519,-56.06 71.148,-144.44 71.148,-144.44 0,0 54.68,5.87 125.281,68.69 0,0 -81.836,161.07 -90.254,176.89 -7.125,13.39 -33.757,56.52 -68.886,58.48"
         style="fill:#33535f;fill-opacity:1;fill-rule:nonzero;stroke:none"
         id="path226" /><path
         d="m 784.77,2712.32 c 1.628,-57.3 -41.907,-105.03 -97.239,-106.6 -55.34,-1.57 -101.511,43.61 -103.14,100.91 -1.633,57.3 41.902,105.03 97.242,106.6 55.332,1.57 101.508,-43.6 103.137,-100.91"
         style="fill:#17282f;fill-opacity:1;fill-rule:nonzero;stroke:none"
         id="path228" /><path
         d="m 481.152,2626.49 c 0,0 19.621,-80.83 26.938,-94 7.324,-13.16 21.773,-16.55 21.773,-16.55 l -2.836,57.17 -45.875,53.38"
         style="fill:#17282f;fill-opacity:1;fill-rule:nonzero;stroke:none"
         id="path230" /><path
         d="m 499.566,2743.6 c 0,0 -18.734,2.67 -32.847,-12.6 -13.832,-14.98 -4.578,-60.36 14.433,-104.51 l 32.711,-2.82 -14.297,119.93"
         style="fill:#17282f;fill-opacity:1;fill-rule:nonzero;stroke:none"
         id="path232" /><path
         d="m 523.645,2623.92 c -6.434,-4.09 -16.118,8.2 -24.415,16.41 -8.304,8.2 -34.953,18.99 -47.296,-9.05 -12.579,-28.58 13.453,-65.12 34.355,-71.04 36.031,-10.19 40.738,12.87 40.738,12.87 l 6.391,-128.73 c 0,0 25.008,-56.55 88.57,-63.33 63.559,-6.78 61.434,46.27 39.91,71.26 l -1.074,36.17 c 0,0 23.035,-1.19 46.739,5.98 20,6.05 34.976,18.6 47.355,49.64 16.648,41.76 17.73,86.93 2.187,171.13 -18.003,97.53 -138.671,96.98 -199.382,56.31 -60.715,-40.67 -34.078,-147.62 -34.078,-147.62"
         style="fill:#c35363;fill-opacity:1;fill-rule:nonzero;stroke:none"
         id="path234" /><path
         d="m 543.34,2689.73 c -4.938,-28.36 -8.34,-76.28 -19.383,-76.81 -3.289,-0.16 -16.383,20.24 -24.727,27.41 -3.722,3.2 -3.992,10.41 -4.441,14.85 -1.668,16.5 -1.867,34.55 -1.062,51.06 0.882,18.15 -2.582,38.33 2.664,55.94 4.015,13.47 13.836,24.75 25.675,32.33 26.657,17.04 62.442,16.26 92.622,23.19 35.453,8.14 69.542,19.94 100.128,39.85 3.09,2.01 6.204,3.99 9.34,5.93 2.782,1.73 5.879,3.5 9.125,3.06 2.774,-0.37 5.137,-2.36 6.578,-4.75 1.446,-2.41 2.098,-5.19 2.594,-7.94 1.508,-8.43 1.711,-17.08 0.645,-25.56 -0.977,-7.76 -0.383,-14.95 -5.153,-21.75 7.211,4.8 14.422,9.6 21.637,14.4 1.484,0.99 3.145,2.02 4.91,1.78 3.043,-0.41 4.278,-4.11 4.629,-7.15 2.926,-25.41 -10.894,-50.79 -31.082,-66.48 -20.195,-15.69 -45.887,-22.8 -71.32,-25.4 -25.438,-2.61 -51.094,-1.06 -76.66,-1.31 -9.614,-0.09 -24.071,0.49 -32.34,-4.9 -9.278,-6.05 -12.586,-17.47 -14.379,-27.75"
         style="fill:#17282f;fill-opacity:1;fill-rule:nonzero;stroke:none"
         id="path236" /><path
         d="m 499.836,2736.38 -40.133,20.09 c 5.281,11.49 18.555,16.3 29.637,10.76 11.086,-5.56 15.781,-19.36 10.496,-30.85"
         style="fill:#17282f;fill-opacity:1;fill-rule:nonzero;stroke:none"
         id="path238" /><path
         d="m 660.824,2488.48 c 0,0 -63.195,4.7 -92.297,22.26 -13.308,8.03 -25.582,19.22 -29.132,27.23 0,0 3.761,-17.78 17.043,-32.61 29.183,-32.57 104.98,-36.81 104.98,-36.81 l -0.594,19.93"
         style="fill:#aa3b4b;fill-opacity:1;fill-rule:nonzero;stroke:none"
         id="path240" /><path
         d="m 634.203,2641.52 c 0.223,-7.6 -5.535,-13.9 -12.84,-14.09 -7.308,-0.19 -13.41,5.81 -13.629,13.41 -0.214,7.59 5.539,13.9 12.848,14.09 7.305,0.18 13.406,-5.82 13.621,-13.41"
         style="fill:#17282f;fill-opacity:1;fill-rule:nonzero;stroke:none"
         id="path242" /><path
         d="m 615.84,2680.97 -27.684,-16.33 c -4.375,7.97 -1.726,18.08 5.918,22.58 7.645,4.51 17.391,1.71 21.766,-6.25"
         style="fill:#17282f;fill-opacity:1;fill-rule:nonzero;stroke:none"
         id="path244" /><path
         d="m 628.73,2570.19 52.594,-18.05 c -4.726,-15.07 -20.332,-23.24 -34.859,-18.26 -14.527,4.99 -22.465,21.24 -17.735,36.31"
         style="fill:#aa3b4b;fill-opacity:1;fill-rule:nonzero;stroke:none"
         id="path246" /><path
         d="m 646.465,2533.88 v 0 c -0.055,0.02 -0.106,0.04 -0.16,0.06 0.054,-0.02 0.105,-0.04 0.16,-0.06 v 0 m -0.176,0.06 c -0.051,0.02 -0.101,0.04 -0.152,0.06 0.051,-0.02 0.101,-0.04 0.152,-0.06 m -0.172,0.06 c -0.051,0.02 -0.101,0.04 -0.148,0.06 0.047,-0.02 0.097,-0.04 0.148,-0.06 m -0.176,0.07 c -0.046,0.01 -0.093,0.03 -0.144,0.05 0.051,-0.02 0.098,-0.04 0.144,-0.05 m -0.168,0.06 c -0.046,0.02 -0.093,0.04 -0.14,0.05 0.047,-0.02 0.094,-0.03 0.14,-0.05 m -0.168,0.06 c -0.039,0.02 -0.082,0.03 -0.125,0.05 0.043,-0.02 0.086,-0.03 0.125,-0.05 m -0.164,0.07 c -0.043,0.01 -0.082,0.03 -0.125,0.04 0.043,-0.01 0.082,-0.03 0.125,-0.04 m -0.175,0.07 c -0.039,0.01 -0.078,0.03 -0.114,0.04 0.036,-0.01 0.075,-0.03 0.114,-0.04 m -0.18,0.07 c -0.023,0.01 -0.051,0.02 -0.074,0.03 0.023,-0.01 0.047,-0.02 0.074,-0.03 m -0.188,0.07 c -0.007,0.01 -0.019,0.01 -0.031,0.02 0.012,-0.01 0.024,-0.01 0.031,-0.02 m -0.195,0.09 v 0 0"
         style="fill:#f36678;fill-opacity:1;fill-rule:nonzero;stroke:none"
         id="path248" /><path
         d="m 655.102,2532.43 c -2.86,0 -5.766,0.47 -8.637,1.45 v 0 c -0.055,0.02 -0.106,0.04 -0.16,0.06 -0.004,0 -0.008,0 -0.016,0 -0.051,0.02 -0.101,0.04 -0.152,0.06 -0.004,0 -0.016,0 -0.02,0 -0.051,0.02 -0.101,0.04 -0.148,0.06 -0.008,0 -0.02,0 -0.028,0.01 -0.046,0.01 -0.093,0.03 -0.144,0.05 -0.008,0 -0.016,0.01 -0.024,0.01 -0.046,0.02 -0.093,0.03 -0.14,0.05 -0.008,0.01 -0.016,0.01 -0.028,0.01 -0.039,0.02 -0.082,0.03 -0.125,0.05 -0.011,0.01 -0.027,0.01 -0.039,0.02 -0.043,0.01 -0.082,0.03 -0.125,0.04 -0.015,0.01 -0.035,0.02 -0.05,0.03 -0.039,0.01 -0.078,0.03 -0.114,0.04 -0.023,0.01 -0.047,0.02 -0.066,0.03 -0.027,0.01 -0.051,0.02 -0.074,0.03 -0.035,0.01 -0.074,0.03 -0.114,0.04 -0.007,0.01 -0.019,0.01 -0.031,0.02 -0.054,0.02 -0.109,0.04 -0.164,0.07 v 0 c -7.183,3.03 -12.555,8.91 -15.293,15.93 3.485,2.62 7.695,4.32 12.383,4.46 0.215,0 0.426,0.01 0.637,0.01 11.687,0 21.308,-9.19 21.918,-20.87 -2.938,-1.08 -6.059,-1.66 -9.246,-1.66"
         style="fill:#ed5c70;fill-opacity:1;fill-rule:nonzero;stroke:none"
         id="path250" /><path
         d="m 746.48,2677.37 -26.207,19.02 c 5.024,7.49 14.961,9.31 22.192,4.05 7.238,-5.25 9.035,-15.58 4.015,-23.07"
         style="fill:#17282f;fill-opacity:1;fill-rule:nonzero;stroke:none"
         id="path252" /><path
         d="m 740.473,2650.69 c 0.215,-7.59 -5.535,-13.9 -12.844,-14.09 -7.305,-0.18 -13.41,5.82 -13.625,13.41 -0.215,7.59 5.539,13.9 12.844,14.09 7.308,0.19 13.41,-5.81 13.625,-13.41"
         style="fill:#17282f;fill-opacity:1;fill-rule:nonzero;stroke:none"
         id="path254" /><path
         d="m 670.043,2657.25 5.871,-70.54 36.527,13.62 z"
         style="fill:#aa3b4b;fill-opacity:1;fill-rule:nonzero;stroke:none"
         id="path256" /><path
         d="m 989.336,2936.96 c -11.195,-22.96 -38.891,-32.5 -61.859,-21.31 -22.965,11.2 -32.512,38.9 -21.309,61.86 11.195,22.97 38.891,32.51 61.859,21.31 22.965,-11.19 32.503,-38.89 21.309,-61.86 z m 5.598,103.56 c -47.43,23.13 -104.621,3.43 -127.743,-44.01 -23.125,-47.42 -3.421,-104.62 44.012,-127.74 81.426,-39.7 200.337,8.62 200.337,8.62 0,0 -35.18,123.44 -116.606,163.13"
         style="fill:#26b6a6;fill-opacity:1;fill-rule:nonzero;stroke:none"
         id="path258" /><path
         d="m 2174.16,4126.01 c -25.12,-4.7 -49.29,11.85 -53.99,36.96 -4.7,25.12 11.85,49.29 36.96,53.99 25.12,4.7 49.29,-11.85 53.99,-36.96 4.7,-25.12 -11.85,-49.29 -36.96,-53.99 z m -25,133.57 c -51.86,-9.71 -86.04,-59.62 -76.33,-111.49 16.66,-89.04 126.34,-155.71 126.34,-155.71 0,0 78.14,101.82 61.48,190.87 -9.71,51.86 -59.63,86.04 -111.49,76.33"
         style="fill:#26b6a6;fill-opacity:1;fill-rule:nonzero;stroke:none"
         id="path260" /><path
         d="m 3198.38,3906.77 c -20.99,14.57 -26.19,43.4 -11.63,64.39 14.57,20.99 43.4,26.2 64.39,11.63 20.99,-14.57 26.19,-43.4 11.62,-64.39 -14.56,-20.99 -43.38,-26.2 -64.38,-11.63 z m 77.48,111.64 c -43.35,30.09 -102.87,19.34 -132.96,-24.02 -51.65,-74.42 -22.03,-199.3 -22.03,-199.3 0,0 127.35,15.94 179,90.36 30.09,43.34 19.34,102.87 -24.01,132.96"
         style="fill:#33535f;fill-opacity:1;fill-rule:nonzero;stroke:none"
         id="path262" /></g></g></svg>
