<svg xmlns="http://www.w3.org/2000/svg" width="883.462" height="669.268" viewBox="0 0 883.462 669.268">
  <g id="g10" transform="translate(-306.267 1082.632)">
    <g id="g12">
      <path id="path16" d="M395.256-725.533l.387-.243-.419.221a40.327,40.327,0,0,0-5.512,3.451l5.544-3.405v-.024" fill="#82bfab"/>
      <path id="path18" d="M669.47-623.8a251.6,251.6,0,0,1-30.487-29.4L528.529-584.807l38.993,24.147,10.684-6.612A35.815,35.815,0,0,1,586-572.111L669.47-623.8" fill="#aad4c8"/>
      <path id="path20" d="M598.7-715.709a252.165,252.165,0,0,1-14.185-39.508L434.83-662.536l-4.52,2.772-1.259.8,1.34-.731a207.584,207.584,0,0,0,29.179,30.1l5.923-3.672L476.4-640l122.3-75.711" fill="#aad4c8"/>
      <path id="path22" d="M576.737-837.883,693-909.855l.048.1,50.08-30.975,1.863-1.169L748-945.06A16.36,16.36,0,0,1,744.258-958l.177-.753a17.175,17.175,0,0,1,2.049-5.419L748-965.775a16.486,16.486,0,0,1,21.175-3.917l.516.319,143.038,89.326L941.45-862.1a36.008,36.008,0,0,0,28.832,5.621,36.228,36.228,0,0,0,27.131-43.431,36,36,0,0,0-16.632-22.8l-1.017-.631-179.2-111.917-.1.1-.436-.295A252.084,252.084,0,0,0,748-1059.775a252.323,252.323,0,0,0-134.469-7.877,248.432,248.432,0,0,0-30.356,8.481,253.85,253.85,0,0,0-26.209,10.873,74.241,74.241,0,0,1-54.033-9.581l-39.96-24.753L306.267-829.5l36.305,22.461,22.585,13.98A74.289,74.289,0,0,1,387.9-754.2l.653,3.477c.992,5.319,2.357,10.548,3.784,15.776.872,3.159,1.889,6.275,2.889,9.388l.419-.221L576.737-837.883" fill="#aad4c8"/>
      <path id="path24" d="M1033.037-1082.632l-39.968,24.753a74.247,74.247,0,0,1-54.033,9.581,251.016,251.016,0,0,0-26.208-10.873,250.4,250.4,0,0,0-30.325-8.481,252.424,252.424,0,0,0-134.5,7.877,252.094,252.094,0,0,1,52.032,24.312l.436.295.1-.1,179.2,111.917,1.017.631a36,36,0,0,1,16.632,22.8,36.228,36.228,0,0,1-27.131,43.431A36.008,36.008,0,0,1,941.45-862.1l-28.719-17.943L769.693-969.374l-.516-.319A16.486,16.486,0,0,0,748-965.775l1.532,1.605A16.375,16.375,0,0,1,748-945.06l-3.011,3.159-1.863,1.169-50.08,30.975-.048-.1L576.737-837.883,395.643-725.776l-.387.267-5.544,3.405a37.313,37.313,0,0,0-14.9,29.76A37.475,37.475,0,0,0,412.3-654.853a37.323,37.323,0,0,0,16.752-4.108l1.259-.8,4.52-2.772,149.686-92.681A252.153,252.153,0,0,0,598.7-715.709L476.4-640l-10.911,6.739A37.29,37.29,0,0,0,452.614-605.2a37.5,37.5,0,0,0,37.516,37.491,37.19,37.19,0,0,0,25.507-10.164l.533.731,12.36-7.661L638.984-653.2a251.608,251.608,0,0,0,30.487,29.4L586-572.111a35.823,35.823,0,0,0-7.795,4.839,36.878,36.878,0,0,0-14.316,29.077,37.207,37.207,0,0,0,37.256,37.2,36.968,36.968,0,0,0,27.235-11.987l1.123,1.436,8.867-5.495L709.026-560.8l21.208-13.131V-592.8l-.179-3.579.179-3.571a37.334,37.334,0,0,1,37.151-33.725,37.309,37.309,0,0,1,37.249,36.933v.749l-.033,46.105-.016,65.669,41.041-25.407v-4.959l-.048-.368.048-.363v-39.705l.048-56.947v-29.319l.017-9.971-.113-1.775.113-1.8a36.865,36.865,0,0,1,10.216-23.853,37.141,37.141,0,0,1,26.887-11.548,37.123,37.123,0,0,1,26.879,11.548A37.041,37.041,0,0,1,919.976-653l-.072,1.8.169-.024v37.055l-.016,58.745,41.024-25.411v-42.525l.033-52.859v-.121l-.048-1.34.24-3.473v-4.571h.727a37.285,37.285,0,0,1,20.448-25.528,36.836,36.836,0,0,1,15.833-3.672,37.2,37.2,0,0,1,36.3,29.2h.711v5.788l.16,1.507.1.8-.1,1.7v47.169a210.468,210.468,0,0,0,61.28-84.954,213.355,213.355,0,0,0,10.724-37l.621-3.477a74.373,74.373,0,0,1,22.764-38.859l22.571-13.98,36.288-22.461-156.692-253.137" fill="#616e7d"/>
      <path id="path26" d="M920.074-651.23l-.169.024.072-1.8a37.041,37.041,0,0,0-10.3-25.677,37.123,37.123,0,0,0-26.879-11.548,37.141,37.141,0,0,0-26.887,11.548,36.865,36.865,0,0,0-10.216,23.853l-.113,1.8.113,1.775-.017,9.971v29.319l-.048,56.947v39.705l-.048.363.048.368v4.959l.452-.295a37.066,37.066,0,0,0,36.668,32.144,37.049,37.049,0,0,0,36.691-32.532h.315v-3.017l.169-1.627-.169-1.627v-38.688l.307-.165.016-58.745V-651.23" fill="#aad4c8"/>
      <path id="path28" d="M804.634-595.992v-.749a37.309,37.309,0,0,0-37.249-36.933,37.334,37.334,0,0,0-37.151,33.725l-.179,3.571.179,3.579v45.124L709.026-560.8,638.37-517.04l38.976,24.115,10.677-6.608.807-.488L730.2-525.647v43.664l-.016,43.744v.1l1.937-1.195a36.994,36.994,0,0,0,35.263,25.972,37.05,37.05,0,0,0,36.692-32.512h.315v-3.013l.169-1.631-.169-1.627v-31.927l.193-.144.016-65.669.033-46.105" fill="#aad4c8"/>
      <path id="path30" d="M1035.58-677.634l-.1-.8-.16-1.507v-5.788h-.711a37.2,37.2,0,0,0-36.3-29.2,36.836,36.836,0,0,0-15.833,3.672,37.285,37.285,0,0,0-20.448,25.528h-.727v4.571l-.24,3.473.048,1.34v.121l-.033,52.859v42.525l.225-.145v6l-.16,1.557.16,1.581v3.063h.325a37.034,37.034,0,0,0,36.683,32.532A37.028,37.028,0,0,0,1035-568.781h.324V-571.8l.16-1.625-.16-1.605V-628.64l.16-.121V-675.93l.1-1.7" fill="#aad4c8"/>
      <path id="path32" d="M730.2-499.437v-26.209L688.83-500.021l-.807.488a37.121,37.121,0,0,0-16.2,30.659,37.209,37.209,0,0,0,37.217,37.221,37.243,37.243,0,0,0,21.141-6.585l.016-43.744v-17.455" fill="#616e7d"/>
    </g>
  </g>
</svg>
