<svg id="g12" xmlns="http://www.w3.org/2000/svg" xmlns:xlink="http://www.w3.org/1999/xlink" width="1188.854" height="964.496" viewBox="0 0 1188.854 964.496">
  <defs>
    <clipPath id="clip-path">
      <path id="path28" d="M771.838-334.355c0,109.47-88.743,198.213-198.213,198.213S375.41-224.885,375.41-334.355s88.743-198.216,198.216-198.216S771.838-443.827,771.838-334.355Z" transform="translate(-375.41 532.571)"/>
    </clipPath>
  </defs>
  <path id="path14" d="M44.853-111.185c0-161,205.283-505.048,497.265-458.487,209.821,33.461,122.677,265.827,511.82,352.4,303.047,67.423,216.154,498.619-209.4,522.009-472.1,25.945-799.688-114.1-799.69-415.927" transform="translate(-44.853 573.964)" fill="#f3f5f4"/>
  <path id="path16" d="M1025.45-28.788C890.132,82.129,981.308,272.5,1034.622,254.907,1082.228,239.2,967.081-10.534,796.987,9.184,516.894,41.657,438,171.14,247.141,120.5,54.955,69.513,17.632-143.878,204.207-265.663,390.128-387.022,94.44-594.671,71.174-527.677,57.9-489.46,204.669-395.69,309.4-484.914s243.425-100.65,330.538,61.681,264.853,66.2,378.361,43.883S1316.29-267.175,1025.45-28.788Z" transform="translate(-16.517 601.327)" fill="none" stroke="#70927f" stroke-miterlimit="10" stroke-width="0.333"/>
  <path id="path18" d="M764.237-332.11c0,109.47-88.743,198.213-198.213,198.213S367.808-222.64,367.808-332.11s88.746-198.216,198.215-198.216S764.237-441.579,764.237-332.11" transform="translate(314.296 622.494)" fill="#fff"/>
  <path id="path20" d="M771.838-334.355c0,109.47-88.743,198.213-198.213,198.213S375.41-224.885,375.41-334.355s88.743-198.216,198.216-198.216,198.213,88.743,198.213,198.216" transform="translate(322.749 619.997)" fill="#f3f5f4"/>
  <path id="path22" d="M764.237-332.11c0,109.47-88.743,198.213-198.213,198.213S367.808-222.64,367.808-332.11s88.746-198.216,198.215-198.216S764.237-441.579,764.237-332.11Z" transform="translate(314.296 622.494)" fill="none" stroke="#70927f" stroke-miterlimit="10" stroke-width="0.333"/>
  <g id="g24" transform="translate(698.159 87.426)">
    <g id="g26" clip-path="url(#clip-path)">
      <path id="path32" d="M462.387-304.8H429.616l2.582-71.852H460.77l1.617,71.852" transform="translate(-315.128 705.967)" fill="#b14330"/>
      <path id="path34" d="M454.161-434.318,420-316.526l11.735,11.647L420-290.717l62.2,6.961L454.161-434.318" transform="translate(-325.818 641.835)" fill="#ffb84f"/>
      <path id="path36" d="M455.092-228.742h96.727l33.362-210.612-53.669-3.368-60.287,3.368-35.049,14.382,18.916,196.23" transform="translate(-307.833 632.489)" fill="#ffb84f"/>
      <path id="path38" d="M470.42-379.924l43.945-34.759L498.28-467.935l-46.685,6.119,18.826,81.892" transform="translate(-290.687 604.45)" fill="#b14330"/>
      <path id="path40" d="M461.2-423.258l21.5-26.823-31.107-14.956Z" transform="translate(-290.687 607.672)" fill="#5f281c"/>
      <path id="path42" d="M436.806-445.158c-2.166,24.491,5.9,54.511,30.388,56.674s54.122-26.967,56.288-51.458,11.208-65.206-22-68.144c-48.268-4.266-62.508,38.434-64.674,62.928" transform="translate(-307.508 559.469)" fill="#b14330"/>
      <path id="path44" d="M457.639-488.745s1.093,8.476,10.935,13.669" transform="translate(-283.965 581.307)" fill="none" stroke="#422e2d" stroke-miterlimit="10" stroke-width="1.333"/>
      <path id="path46" d="M440.094-487.256s6.336,2.089,11.72-1.49" transform="translate(-303.477 581.307)" fill="none" stroke="#422e2d" stroke-miterlimit="10" stroke-width="1.333"/>
      <path id="path48" d="M443.919-467.935a188.571,188.571,0,0,0,28.318,0s-8.606,10.569-21.36,9.5c-2.932-.245-6.958-9.5-6.958-9.5" transform="translate(-299.223 604.45)" fill="#fff"/>
      <path id="path50" d="M455.695-475.65c0,3.441,1.543,6.232,3.447,6.232s3.447-2.791,3.447-6.232-1.543-6.229-3.447-6.229-3.447,2.791-3.447,6.229" transform="translate(-286.127 588.943)" fill="#422e2d"/>
      <path id="path52" d="M441.1-477.471c0,3.441,1.543,6.229,3.447,6.229S448-474.03,448-477.471s-1.543-6.229-3.447-6.229-3.447,2.788-3.447,6.229" transform="translate(-302.355 586.918)" fill="#422e2d"/>
      <path id="path54" d="M455.75-478.929s-2.627,10.439-14.92,9.645c0,0,15.553,19.918,14.92-9.645" transform="translate(-302.657 592.223)" fill="#9a2532"/>
      <path id="path56" d="M527.39-421.8c30.425-36.392,42.008-44.246,0-73.384,0,0-4.1-27.677-40.236-18.766-55.7,13.734-45.466,18.766-47.271,49.121,0,0,30.025,3.85,54.269-10.315,0,0,.842,17.057,10.814,25.764l-1.729,18.248L527.39-421.8" transform="translate(-303.711 551.307)" fill="#422e2d"/>
      <path id="path58" d="M481.315-497.793s3.658-7.634,0-15.587" transform="translate(-257.636 553.912)" fill="none" stroke="#422e2d" stroke-miterlimit="10" stroke-width="1.333"/>
      <path id="path60" d="M480.151-497.7s13.23-5.891,14.331-11.985" transform="translate(-258.931 558.016)" fill="none" stroke="#422e2d" stroke-miterlimit="10" stroke-width="1.333"/>
      <path id="path62" d="M472.144-468.353c-3.585,9.479-.521,19.422,6.84,22.208s16.24-2.644,19.825-12.123.521-19.422-6.843-22.208-16.237,2.644-19.823,12.123" transform="translate(-269.502 589.693)" fill="#b14330"/>
      <path id="path64" d="M524.165-426.273l-11.177-28.211-62.365,14.52,17.606,53.122,55.936-39.431" transform="translate(-291.768 619.408)" fill="#ffb84f"/>
      <path id="path66" d="M451.595-443.693l34.928-1.867L454.079-436.2Z" transform="translate(-290.687 629.332)" fill="#ffd788"/>
      <path id="path68" d="M530.393-441.127l7.939,155.862-49.073,25.739-3.816-181.6h44.95" transform="translate(-253.046 634.262)" fill="#ffb84f"/>
      <path id="path70" d="M487.47-424.757l-16.342-5.094a3.68,3.68,0,0,1-2.416-4.607l13.03-41.8a3.677,3.677,0,0,1,4.6-2.416l16.345,5.094a3.677,3.677,0,0,1,2.416,4.607l-13.027,41.8a3.682,3.682,0,0,1-4.607,2.416" transform="translate(-271.837 592.322)" fill="#a5bbaa"/>
      <path id="path72" d="M490.012-423.968l-17.164-5.35a3.673,3.673,0,0,1-2.416-4.6l13.03-41.8a3.678,3.678,0,0,1,4.6-2.416l17.164,5.351a3.676,3.676,0,0,1,2.416,4.6l-13.03,41.8a3.673,3.673,0,0,1-4.6,2.416" transform="translate(-269.926 592.918)" fill="#e8dfcf"/>
      <path id="path74" d="M482.972-472.743a2.585,2.585,0,0,1-3.241,1.7,2.584,2.584,0,0,1-1.7-3.238,2.584,2.584,0,0,1,3.239-1.7,2.587,2.587,0,0,1,1.7,3.241" transform="translate(-261.419 595.367)" fill="#a5bbaa"/>
      <path id="path76" d="M534.752-277.91,487.562-453.727l-7.167,3.253s-6.691,135.856,23.92,187.7l30.436-15.139" transform="translate(-259.347 620.25)" fill="#b14330"/>
      <path id="path78" d="M489.289-437.531l14.019-30.76s-36.9,8.741-21.185,34.013l7.167-3.253" transform="translate(-261.073 604.054)" fill="#b14330"/>
      <path id="path80" d="M499.181-460.727l-16.435-14.365s-5.779,9.6,13.489,16.209l2.946-1.844" transform="translate(-256.947 596.491)" fill="#b14330"/>
      <path id="path82" d="M480.621-453.06l9.327-6.1-9.741-12.092s-3.455,6.26,5.424,12.613l-5.01,5.581" transform="translate(-259.604 600.758)" fill="#b14330"/>
      <path id="path84" d="M498.123-460.189,480.8-473.917s-5,8.741,14.644,14.807l2.675-1.079" transform="translate(-258.835 597.797)" fill="#b14330"/>
      <path id="path86" d="M455.092-238.087l-18.915-196.23,30.512,196.23Z" transform="translate(-307.833 641.835)" fill="#ffd788"/>
    </g>
  </g>
  <path id="path88" d="M360.5-164.242H202.837v-23.145H360.5v23.145" transform="translate(130.837 1003.864)" fill="#86593e"/>
  <path id="path90" d="M365.042,13H345.409L252.934-244.61h19.634L365.042,13" transform="translate(186.548 940.229)" fill="#b58e67"/>
  <path id="path92" d="M231.042,13h19.634L273.793-244.61H254.159L231.042,13" transform="translate(162.203 940.229)" fill="#b58e67"/>
  <path id="path94" d="M176.312,13h19.637L288.42-244.61H268.786L176.312,13" transform="translate(101.339 940.229)" fill="#b58e67"/>
  <path id="path96" d="M354.392-330.9h-163A6.293,6.293,0,0,0,185.1-324.6v168.25a10.007,10.007,0,0,0,10.008,10.006H369.656V-315.632A15.263,15.263,0,0,0,354.392-330.9" transform="translate(111.116 844.274)" fill="#ffb84f"/>
  <path id="path98" d="M377.852-218.938H223.137v-24.579H377.852a12.291,12.291,0,0,1,12.289,12.292h0a12.288,12.288,0,0,1-12.289,12.287" transform="translate(153.412 941.445)" fill="#ffb84f"/>
  <path id="path100" d="M202.341-172.747V-320.493a10.4,10.4,0,0,0-10.4-10.4h0a10.405,10.405,0,0,0-10.405,10.4V-170.8a49.036,49.036,0,0,0,49.036,49.036H266.6a12.289,12.289,0,0,0,12.289-12.287h0A12.291,12.291,0,0,0,266.6-146.346H228.745a26.4,26.4,0,0,1-26.4-26.4" transform="translate(107.145 844.274)" fill="#ffd788"/>
  <path id="path102" d="M344.222-174.989H261.314a57.269,57.269,0,0,1-54.55-74.705l13.692-42.827,121.6-14.694,2.171,132.226" transform="translate(132.134 870.608)" fill="#b7c9b9"/>
  <path id="path104" d="M295.608-382.854l34.956,124.51H295.608L258.847-320.6l36.761-62.255" transform="translate(193.124 786.492)" fill="#efebdf"/>
  <path id="path106" d="M309.6-326.608l89.636,17.336-2.43,7.471s-79.543,18.961-120.557-19.09l33.351-5.717" transform="translate(212.48 849.041)" fill="#5f281c"/>
  <path id="path108" d="M335.763-316.555l38.558-3.506-10.684,9.62a23.879,23.879,0,0,1-30.3,1.357h0l2.43-7.471" transform="translate(275.957 856.323)" fill="#5f281c"/>
  <path id="path110" d="M354.312-320.061l7,15.753s-10.169,2.306-9.989-13.064l2.985-2.689" transform="translate(295.965 856.323)" fill="#5f281c"/>
  <path id="path112" d="M349.445-319.09l6.35,16.629s-11.735,1.312-6.35-16.629" transform="translate(292.303 857.402)" fill="#5f281c"/>
  <path id="path114" d="M353.218-320.061l13.106,10.375s-8.84,4.666-14.016-8.324l.91-2.05" transform="translate(297.059 856.323)" fill="#5f281c"/>
  <path id="path116" d="M429.652-314.762H266.821v11.569H429.652v-11.569" transform="translate(201.991 862.215)" fill="#fff"/>
  <path id="path118" d="M351.385-374.639l-38.673-15.6H267.058l-58.366,17.35,26.24,110.9-23.94,59.853H324.041l-8.668-62.624.36-1.1a24.858,24.858,0,0,1,12.672-14.32c10.107-5.091,15.967-11.949,16.8-19.24a37.978,37.978,0,0,0-.659-10.909,107.758,107.758,0,0,1,3.23-53.269l3.613-11.033" transform="translate(137.347 778.278)" fill="#fff"/>
  <path id="path120" d="M313.163-326.884c6.319-3.182,11.9-10.076,13.661-18.324,0,0-13.858,12.453-61.929,7.975-55.451-5.168-20.862,35.815-40.664,85.015H306.76l-8.668-62.624.361-1.107c2.073-6.314,8.775-7.947,14.711-10.935" transform="translate(154.629 828.357)" fill="#efebdf"/>
  <path id="path122" d="M274.957-337.87l-38.631-30.554,20.467-41.433H291.5L274.957-337.87" transform="translate(168.079 756.462)" fill="#b14330"/>
  <path id="path124" d="M268.406-373.13l-18.9-23.579,27.344-13.148Z" transform="translate(182.734 756.462)" fill="#5f281c"/>
  <path id="path126" d="M245.1-446.195s9.068-7.468,20.408-7.468c9.9,0,35.345,10.453,44.8,34.348s13.03,44.1,3.588,71.185l-41.754-13.013L245.1-446.195" transform="translate(177.831 707.748)" fill="#422e2d"/>
  <path id="path128" d="M319.425-392.382c1.9,21.529-5.184,47.916-26.716,49.819s-53.661-23.706-55.564-45.235-3.768-57.321,25.426-59.9c42.43-3.751,54.95,33.784,56.854,55.316" transform="translate(167.948 714.09)" fill="#b14330"/>
  <path id="path130" d="M267.565-429.273s5.993-3.117,10.833,1.081" transform="translate(202.818 733.633)" fill="none" stroke="#422e2d" stroke-miterlimit="10" stroke-width="1.333"/>
  <path id="path132" d="M235.915-390.705s50.673-.577,61.85-44.8c0,0,7.71,1.323,18.336,13.255,0,0-5.091-26.136-47.322-26.136-43.069,0-32.864,57.682-32.864,57.682" transform="translate(166.448 713.615)" fill="#422e2d"/>
  <path id="path134" d="M288.344-443.859s8.344,34.438-45.719,45.919" transform="translate(175.083 718.651)" fill="none" stroke="#422e2d" stroke-miterlimit="10" stroke-width="1.333"/>
  <path id="path136" d="M278.855-394.694s-8.324,26.33,4.21,51.346c0,0-41.163,5.387-68.3-25.018-.667-27.437,13.041-54.06,30.273-71.768,14.418-14.813,55.373-19.645,65.761,8.654,0,0-28.24-.822-31.94,36.786" transform="translate(144.071 709.59)" fill="#422e2d"/>
  <path id="path138" d="M291.542-355.561S310.733-409.3,268.8-445.318" transform="translate(204.197 717.029)" fill="none" stroke="#422e2d" stroke-miterlimit="10" stroke-width="1.333"/>
  <path id="path140" d="M212.747-373.537s4.2-83.173,75.586-77.065" transform="translate(141.858 710.795)" fill="none" stroke="#422e2d" stroke-miterlimit="10" stroke-width="1.333"/>
  <path id="path142" d="M282.307-412.4a165.426,165.426,0,0,1-24.894,0s7.564,9.29,18.775,8.347c2.58-.217,6.119-8.347,6.119-8.347" transform="translate(191.529 753.63)" fill="#fff"/>
  <path id="path144" d="M262.038-419.184c0,3.024-1.357,5.477-3.03,5.477s-3.03-2.453-3.03-5.477,1.357-5.477,3.03-5.477,3.03,2.453,3.03,5.477" transform="translate(189.933 739.999)" fill="#422e2d"/>
  <path id="path146" d="M274.865-420.786c0,3.024-1.357,5.477-3.03,5.477s-3.03-2.453-3.03-5.477,1.357-5.477,3.03-5.477,3.03,2.45,3.03,5.477" transform="translate(204.197 738.219)" fill="#422e2d"/>
  <path id="path148" d="M265.713-422.068s2.309,9.178,13.115,8.476c0,0-13.672,17.51-13.115-8.476" transform="translate(200.741 742.883)" fill="#9a2532"/>
  <path id="path150" d="M258.2-412.772c3.151,8.333.459,17.074-6.015,19.521s-14.275-2.323-17.426-10.656-.459-17.074,6.015-19.521,14.275,2.323,17.426,10.656" transform="translate(164.867 740.658)" fill="#b14330"/>
  <path id="path152" d="M242.209-404.9H236.1v-32.7h6.108v32.7" transform="translate(167.828 725.612)" fill="#709480"/>
  <path id="path154" d="M240.282-404.9h-6.108v-32.7h6.108v32.7" transform="translate(165.686 725.612)" fill="#b4c6b6"/>
  <path id="path156" d="M247.721-413.053v-15.832a20.519,20.519,0,0,1,9.789-16.992c3.03-1.825,11.605-7.167,11.605-7.167s-14.883.014-21.5,2.551l-1.74.668a18.088,18.088,0,0,0-11.6,16.882v19.89h13.444" transform="translate(165.8 708.436)" fill="#709480"/>
  <path id="path158" d="M245.8-412.754v-15.832a18.084,18.084,0,0,1,9.789-16.069l15.672-8.091-4.8-.4a46.975,46.975,0,0,0-20.769,2.954l-1.74.667a18.088,18.088,0,0,0-11.6,16.883v19.89H245.8" transform="translate(163.657 708.137)" fill="#b4c6b6"/>
  <path id="path160" d="M263.3-409.444a17.293,17.293,0,0,1-17.291,17.294,17.293,17.293,0,0,1-17.291-17.294,17.291,17.291,0,0,1,17.291-17.291A17.291,17.291,0,0,1,263.3-409.444" transform="translate(159.623 737.694)" fill="#b4c6b6"/>
  <path id="path162" d="M261.694-409.444A17.3,17.3,0,0,1,244.4-392.151a17.293,17.293,0,0,1-17.291-17.294A17.291,17.291,0,0,1,244.4-426.735a17.293,17.293,0,0,1,17.294,17.291" transform="translate(157.83 737.694)" fill="#f1eadf"/>
  <path id="path164" d="M251.859-412.837a10.848,10.848,0,0,1-10.85,10.847,10.847,10.847,0,0,1-10.848-10.847,10.847,10.847,0,0,1,10.848-10.848,10.848,10.848,0,0,1,10.85,10.848" transform="translate(161.223 741.086)" fill="#b4c6b6"/>
  <path id="path166" d="M242.818-415.955a4.928,4.928,0,0,1-4.928,4.925,4.925,4.925,0,0,1-4.925-4.925,4.925,4.925,0,0,1,4.925-4.925,4.928,4.928,0,0,1,4.928,4.925" transform="translate(164.341 744.204)" fill="#f1eadf"/>
  <path id="path168" d="M297.391-383.493l-41.154-4.734-21.475-29.042,2.264-1.676,20.749,28.059,39.938,4.6-.321,2.8" transform="translate(166.338 746.357)" fill="#f1eadf"/>
  <path id="path170" d="M271.114-397.49h-10.1A1.812,1.812,0,0,1,259.2-399.3v-3.962a1.814,1.814,0,0,1,1.814-1.814h10.1a1.814,1.814,0,0,1,1.814,1.814v3.962a1.812,1.812,0,0,1-1.814,1.814" transform="translate(193.519 761.777)" fill="#b4c6b6"/>
  <path id="path172" d="M229.116-350.4l-7.879,23.221-4.675-16.055Z" transform="translate(146.1 822.581)" fill="#efebdf"/>
  <path id="path174" d="M234.915-382.026,185.11-257.769h41.143l37.84-57.465-29.177-66.792" transform="translate(111.123 787.413)" fill="#fff"/>
  <path id="path176" d="M331.359-299.888H295.671a17.845,17.845,0,0,1,17.845-17.846,17.844,17.844,0,0,1,17.843,17.846" transform="translate(234.075 858.91)" fill="#b7c9b9"/>
  <path id="path178" d="M232.136-327.422l173.209,19.054-2.433,7.471s-135.175,46.167-217.8-17.595l47.026-8.93" transform="translate(111.123 848.137)" fill="#b1432d"/>
  <path id="path180" d="M290.666-316.555l38.555-3.506-10.681,9.62a23.883,23.883,0,0,1-30.307,1.357h0l2.433-7.471" transform="translate(225.802 856.323)" fill="#b1432d"/>
  <path id="path182" d="M309.212-320.061l7.006,15.753s-10.172,2.306-9.991-13.064l2.985-2.689" transform="translate(245.811 856.323)" fill="#b1432d"/>
  <path id="path184" d="M304.346-319.09l6.35,16.629s-11.735,1.312-6.35-16.629" transform="translate(242.15 857.402)" fill="#b1432d"/>
  <path id="path186" d="M308.117-320.061l13.109,10.375s-8.84,4.666-14.016-8.324l.907-2.05" transform="translate(246.907 856.323)" fill="#b1432d"/>
  <path id="path188" d="M476.259-260.721H317.6a17.3,17.3,0,0,1-17.274-18.268l6.2-103.04A17.3,17.3,0,0,1,323.8-398.36H482.457a17.3,17.3,0,0,1,17.271,18.268l-6.2,103.04a17.3,17.3,0,0,1-17.271,16.331" transform="translate(239.222 769.248)" fill="#70927f"/>
  <path id="path190" d="M480.96-260.721H322.3a17.3,17.3,0,0,1-17.271-18.268l6.2-103.04A17.3,17.3,0,0,1,328.5-398.36H487.159a17.3,17.3,0,0,1,17.271,18.268l-6.2,103.04a17.3,17.3,0,0,1-17.271,16.331" transform="translate(244.453 769.248)" fill="#a5bbaa"/>
  <path id="path192" d="M400.985-289.3a11.2,11.2,0,0,1-11.2-11.194,11.194,11.194,0,0,1,11.2-11.2,11.194,11.194,0,0,1,11.2,11.2A11.2,11.2,0,0,1,400.985-289.3Zm3.8-62.331H355.275l20.788,75.995a3.923,3.923,0,0,1-3.782,4.956h-48.31V-262h88.777a12.57,12.57,0,0,0,12.129-15.874l-20.09-73.756" transform="translate(265.546 821.21)" fill="#70927f"/>
  <path id="path194" d="M379.386-365.748H351.037a12.243,12.243,0,0,0-12.244,12.242v17.567h52.838v-17.567a12.243,12.243,0,0,0-12.244-12.242" transform="translate(282.029 805.515)" fill="#70927f"/>
  <path id="path196" d="M383.24-365.748H354.89a12.243,12.243,0,0,0-12.244,12.242v17.567h52.838v-17.567a12.243,12.243,0,0,0-12.244-12.242" transform="translate(286.314 805.515)" fill="#e3e3e3"/>
  <path id="path198" d="M384.287-289.3a11.2,11.2,0,0,1-11.2-11.194,11.2,11.2,0,0,1,11.2-11.2,11.2,11.2,0,0,1,11.2,11.2A11.2,11.2,0,0,1,384.287-289.3Zm31.261,10.735-19.9-73.066h-53l2.979,10.943H345.6l18.69,68.619A8,8,0,0,1,357.143-262H402.89a13.118,13.118,0,0,0,12.658-16.564" transform="translate(286.314 821.21)" fill="#e3e3e3"/>
  <path id="path200" d="M383.24-365.748H354.89a12.243,12.243,0,0,0-12.244,12.242v17.567h52.838v-17.567a12.243,12.243,0,0,0-12.244-12.242" transform="translate(286.314 805.515)" fill="#a5bbaa"/>
  <path id="path202" d="M384.287-289.3a11.2,11.2,0,0,1-11.2-11.194,11.2,11.2,0,0,1,11.2-11.2,11.2,11.2,0,0,1,11.2,11.2A11.2,11.2,0,0,1,384.287-289.3Zm31.261,10.735-19.9-73.066h-53l2.979,10.943H345.6l18.69,68.619A8,8,0,0,1,357.143-262H402.89a13.118,13.118,0,0,0,12.658-16.564" transform="translate(286.314 821.21)" fill="#a5bbaa"/>
  <path id="path204" d="M409.1-262.874,389.2-335.94h-.161v-17.567a12.243,12.243,0,0,0-12.244-12.241H348.443" transform="translate(292.761 805.515)" fill="none" stroke="#f3f5f4" stroke-linecap="round" stroke-linejoin="round" stroke-miterlimit="10" stroke-width="1.333"/>
  <path id="path206" d="M367.739-351.635l19.9,73.066A13.118,13.118,0,0,1,374.985-262" transform="translate(314.219 821.21)" fill="none" stroke="#f3f5f4" stroke-linecap="round" stroke-linejoin="round" stroke-miterlimit="10" stroke-width="1.333"/>
  <path id="path208" d="M315.669-321.468l-.07,0a1.243,1.243,0,0,1-1.174-1.312l3.416-60.912a1.23,1.23,0,0,1,1.315-1.174,1.245,1.245,0,0,1,1.171,1.315l-3.416,60.909a1.245,1.245,0,0,1-1.242,1.177" transform="translate(254.927 784.247)" fill="#d1cec7"/>
  <path id="path210" d="M319.513-321.468c-.025,0-.048,0-.07,0a1.243,1.243,0,0,1-1.174-1.312l3.416-60.912A1.225,1.225,0,0,1,323-384.869a1.247,1.247,0,0,1,1.174,1.315l-3.416,60.909a1.246,1.246,0,0,1-1.242,1.177" transform="translate(259.202 784.247)" fill="#d1cec7"/>
  <path id="path212" d="M323.358-321.468l-.073,0a1.245,1.245,0,0,1-1.174-1.312l3.419-60.912a1.222,1.222,0,0,1,1.312-1.174,1.247,1.247,0,0,1,1.174,1.315L324.6-322.645a1.245,1.245,0,0,1-1.242,1.177" transform="translate(263.475 784.247)" fill="#d1cec7"/>
  <path id="path214" d="M327.2-321.468c-.023,0-.045,0-.07,0a1.245,1.245,0,0,1-1.174-1.312l3.419-60.912a1.237,1.237,0,0,1,1.312-1.174,1.247,1.247,0,0,1,1.174,1.315l-3.416,60.909a1.249,1.249,0,0,1-1.245,1.177" transform="translate(267.75 784.247)" fill="#d1cec7"/>
  <path id="path216" d="M331.045-321.468c-.025,0-.051,0-.07,0a1.239,1.239,0,0,1-1.174-1.312l3.416-60.912a1.233,1.233,0,0,1,1.31-1.174,1.247,1.247,0,0,1,1.174,1.315l-3.416,60.909a1.242,1.242,0,0,1-1.239,1.177" transform="translate(272.026 784.247)" fill="#d1cec7"/>
  <path id="path218" d="M375.639-321.468c-.023,0-.045,0-.071,0a1.245,1.245,0,0,1-1.174-1.312l3.419-60.912a1.234,1.234,0,0,1,1.312-1.174,1.247,1.247,0,0,1,1.174,1.315l-3.416,60.909a1.247,1.247,0,0,1-1.245,1.177" transform="translate(321.619 784.247)" fill="#d1cec7"/>
  <path id="path220" d="M379.483-321.468l-.07,0a1.245,1.245,0,0,1-1.174-1.312l3.419-60.912a1.228,1.228,0,0,1,1.309-1.174,1.243,1.243,0,0,1,1.174,1.315l-3.413,60.909a1.249,1.249,0,0,1-1.245,1.177" transform="translate(325.893 784.247)" fill="#d1cec7"/>
  <path id="path222" d="M383.326-321.468l-.07,0a1.239,1.239,0,0,1-1.171-1.312l3.413-60.912a1.229,1.229,0,0,1,1.312-1.174,1.247,1.247,0,0,1,1.174,1.315l-3.416,60.909a1.243,1.243,0,0,1-1.242,1.177" transform="translate(330.169 784.247)" fill="#d1cec7"/>
  <path id="path224" d="M387.172-321.468l-.07,0a1.243,1.243,0,0,1-1.174-1.312l3.416-60.912a1.225,1.225,0,0,1,1.315-1.174,1.249,1.249,0,0,1,1.174,1.315l-3.419,60.909a1.245,1.245,0,0,1-1.242,1.177" transform="translate(334.443 784.247)" fill="#d1cec7"/>
  <path id="path226" d="M391.015-321.468l-.07,0a1.243,1.243,0,0,1-1.174-1.312l3.416-60.912a1.24,1.24,0,0,1,1.312-1.174,1.247,1.247,0,0,1,1.174,1.315l-3.416,60.909a1.245,1.245,0,0,1-1.242,1.177" transform="translate(338.718 784.247)" fill="#d1cec7"/>
  <path id="path228" d="M351.158-286.438H295.723L268.365,9.724h8.564c64.331-172.088,82.8-249.513,88.1-279.657a14.072,14.072,0,0,0-13.872-16.505" transform="translate(203.708 893.713)" fill="#b7c9b9"/>
  <path id="path230" d="M268.859-1.555s61.413-158.278,45.6-265.238c-1.005-6.809-19.285-19.645-19.285-19.645L268.859-1.555" transform="translate(204.258 893.713)" fill="#a5bbaa"/>
  <path id="path232" d="M365.138-286.438H318.065L207.522-1.555l6.922,11.278c79.667-122.452,152.4-231.119,167.464-272.081a17.882,17.882,0,0,0-16.77-24.08" transform="translate(136.047 893.713)" fill="#b7c9b9"/>
  <path id="path234" d="M303.862-220.336c-26.91,6.592-55.246-2.76-60.779-19.625-6.277-19.132,9.724-29.8,9.724-29.8l-11.8-31.673-20.552,2.484-13.692,42.827a57.269,57.269,0,0,0,54.55,74.705H287.7L211.435,15.122c114.392-182.032,92.427-235.458,92.427-235.458" transform="translate(132.134 877.037)" fill="#a5bbaa"/>
  <path id="path236" d="M215.384-298.3H338.489l.541,25.063H207.375l8.009-25.063" transform="translate(135.884 880.517)" fill="#70927f"/>
  <path id="path238" d="M282.293-140.276v35.3l22.1,2.4H275.534l-1.805-21.589L263.541-137.53l11.233-14.024,7.519,11.278" transform="translate(198.343 1043.713)" fill="#b1432d"/>
  <path id="path240" d="M306.591-102.576l-3.444,12.095H280.339a7.111,7.111,0,0,1-7.111-7.111v-23.8L261.567-136.55l15.4-15,.76,48.978h28.862" transform="translate(196.149 1043.713)" fill="#e8dfcf"/>
  <path id="path242" d="M261.567-144.45v46.069l8.02-40.96Z" transform="translate(196.149 1051.613)" fill="#e8dfcf"/>
  <path id="path244" d="M220.959-140.276v35.3l22.1,2.4H214.2l-1.805-21.589L202.2-137.53l11.233-14.024,7.522,11.278" transform="translate(130.132 1043.713)" fill="#b1432d"/>
  <path id="path246" d="M245.254-102.576,241.81-90.482H219a7.111,7.111,0,0,1-7.111-7.111v-23.8L200.23-136.55l15.4-15,.76,48.978h28.862" transform="translate(127.938 1043.713)" fill="#e8dfcf"/>
  <path id="path248" d="M200.23-144.45v46.069l8.02-40.96Z" transform="translate(127.938 1051.613)" fill="#e8dfcf"/>
  <path id="path250" d="M246.533,72.715H174.447a20.673,20.673,0,0,1-20.67-20.671V-298.3H267.2V52.044a20.671,20.671,0,0,1-20.67,20.671" transform="translate(76.279 880.517)" fill="#e8dfcf"/>
  <path id="path252" d="M238.872,72.715H166.786a20.671,20.671,0,0,1-20.67-20.671V-298.3H259.539V52.044a20.671,20.671,0,0,1-20.667,20.671" transform="translate(67.759 880.517)" fill="#a5bbaa"/>
  <path id="path254" d="M454.565,72.715H382.478a20.671,20.671,0,0,1-20.67-20.671V-298.3H475.235V52.044a20.671,20.671,0,0,1-20.67,20.671" transform="translate(307.624 880.517)" fill="#e8dfcf"/>
  <path id="path256" d="M446.9,72.715H374.816a20.671,20.671,0,0,1-20.67-20.671V-298.3H467.572V52.044A20.671,20.671,0,0,1,446.9,72.715" transform="translate(299.102 880.517)" fill="#a5bbaa"/>
  <path id="path258" d="M137.021-273.562H712.4a13.1,13.1,0,0,0,13.1-13.106v-9.513a13.1,13.1,0,0,0-13.1-13.1H137.021a13.1,13.1,0,0,0-13.1,13.1v9.513a13.1,13.1,0,0,0,13.1,13.106" transform="translate(43.074 868.306)" fill="#a5bbaa"/>
  <path id="path260" d="M260.417-273.562H661.906a13.105,13.105,0,0,0,13.106-13.106v-9.513a13.1,13.1,0,0,0-13.106-13.1H260.417a13.1,13.1,0,0,0-13.106,13.1v9.513a13.105,13.105,0,0,0,13.106,13.106" transform="translate(180.295 868.306)" fill="#e8dfcf"/>
  <path id="path262" d="M259.539-271.484H146.116v-20.887H259.539v20.887" transform="translate(67.759 887.115)" fill="#70927f"/>
  <path id="path264" d="M467.572-271.484H354.146v-20.887H467.572v20.887" transform="translate(299.102 887.115)" fill="#70927f"/>
  <path id="path266" d="M549.158-420.565,520.2-443.753H336.871a22.109,22.109,0,0,1-22.109-22.109v-30.329A22.109,22.109,0,0,1,336.871-518.3H527.049a22.109,22.109,0,0,1,22.109,22.109v75.626" transform="translate(255.305 635.867)" fill="#fff"/>
  <path id="path268" d="M549.158-420.565,520.2-443.753H336.871a22.109,22.109,0,0,1-22.109-22.109v-30.329A22.109,22.109,0,0,1,336.871-518.3H527.049a22.109,22.109,0,0,1,22.109,22.109Z" transform="translate(255.305 635.867)" fill="none" stroke="#70927f" stroke-miterlimit="10" stroke-width="0.333"/>
  <path id="path270" d="M327.147-509.569H455.538" transform="translate(269.078 645.576)" fill="none" stroke="#70927f" stroke-miterlimit="10" stroke-width="0.333"/>
  <path id="path272" d="M327.147-501.495H455.538" transform="translate(269.078 654.556)" fill="none" stroke="#70927f" stroke-miterlimit="10" stroke-width="0.333"/>
  <path id="path274" d="M327.147-493.419H455.538" transform="translate(269.078 663.537)" fill="none" stroke="#70927f" stroke-miterlimit="10" stroke-width="0.333"/>
  <path id="path276" d="M290.967-371.472l28.958-23.188H503.252a22.11,22.11,0,0,0,22.109-22.112V-447.1a22.11,22.11,0,0,0-22.109-22.112H313.076A22.11,22.11,0,0,0,290.967-447.1v75.626" transform="translate(228.844 690.459)" fill="#fff"/>
  <path id="path278" d="M290.967-371.472l28.958-23.188H503.252a22.11,22.11,0,0,0,22.109-22.112V-447.1a22.11,22.11,0,0,0-22.109-22.112H313.076A22.11,22.11,0,0,0,290.967-447.1Z" transform="translate(228.844 690.459)" fill="none" stroke="#70927f" stroke-miterlimit="10" stroke-width="0.333"/>
  <path id="path280" d="M457.161-460.478H328.772" transform="translate(270.886 700.17)" fill="none" stroke="#70927f" stroke-miterlimit="10" stroke-width="0.333"/>
  <path id="path282" d="M457.161-452.4H328.772" transform="translate(270.886 709.149)" fill="none" stroke="#70927f" stroke-miterlimit="10" stroke-width="0.333"/>
  <path id="path284" d="M457.161-444.328H328.772" transform="translate(270.886 718.129)" fill="none" stroke="#70927f" stroke-miterlimit="10" stroke-width="0.333"/>
  <path id="path286" d="M504.164-449.49l12.146,7.8-8.034,12.509-12.146-7.8ZM519.3-471.264l.746-.163c11.743,7.032,19.389,6.694,23.23.71l.118-.18c3.258-5.077,1.63-11.115-4.894-15.305-5.711-3.669-12.053-4.159-19.375-2.332l-2.14-11.616c9.1-2.6,18.518-2.318,28.307,3.971,12.689,8.15,16.759,20.752,9.482,32.081l-.118.183c-7.333,11.419-18.9,11.287-30.067,6.547l-5.564,6.668-7.342-4.714,7.618-15.849" transform="translate(456.998 654.33)" fill="#a5bbaa"/>
  <path id="path288" d="M152.23-244.215h0a29.594,29.594,0,0,0-29.594,29.594V-23.5a7.738,7.738,0,0,0,7.736,7.736h43.716a7.738,7.738,0,0,0,7.736-7.736V-214.621a29.594,29.594,0,0,0-29.594-29.594" transform="translate(41.648 940.668)" fill="#e8dfcf"/>
  <path id="path290" d="M166.981-144.689H147.5a14.585,14.585,0,0,1-14.586-14.587A14.587,14.587,0,0,1,147.5-173.861h19.479a19.684,19.684,0,0,0,19.662-19.662v-20.408a14.586,14.586,0,0,1,14.585-14.585,14.586,14.586,0,0,1,14.585,14.585v20.408a48.888,48.888,0,0,1-48.831,48.834" transform="translate(53.08 958.127)" fill="#e8dfcf"/>
  <path id="path292" d="M170.87-126.984H150.459a48.887,48.887,0,0,1-48.831-48.831V-195.3a14.584,14.584,0,0,1,14.585-14.585A14.584,14.584,0,0,1,130.8-195.3v19.482a19.682,19.682,0,0,0,19.661,19.659H170.87a14.586,14.586,0,0,1,14.585,14.587,14.586,14.586,0,0,1-14.584,14.585" transform="translate(18.285 978.85)" fill="#e8dfcf"/>
  <path id="path294" d="M131.1-218.348h-2.431v-10.143H131.1v10.143" transform="translate(48.357 958.154)" fill="#f3f5f4"/>
  <path id="path296" d="M145.778-225.553h-2.43V-235.7h2.43v10.144" transform="translate(64.681 950.141)" fill="#f3f5f4"/>
  <path id="path298" d="M137.6-197.635h-2.43v-10.144h2.43v10.144" transform="translate(55.587 981.188)" fill="#f3f5f4"/>
  <path id="path300" d="M141.677-212.18h-2.43v-10.144h2.43v10.144" transform="translate(60.12 965.013)" fill="#f3f5f4"/>
  <path id="path302" d="M147.966-171.066h-2.43v-10.146h2.43v10.146" transform="translate(67.114 1010.731)" fill="#f3f5f4"/>
  <path id="path304" d="M163.661-213.864h-2.433v-10.149h2.433v10.149" transform="translate(84.564 963.134)" fill="#f3f5f4"/>
  <path id="path306" d="M131.1-182.389h-2.431v-10.146H131.1v10.146" transform="translate(48.357 998.139)" fill="#f3f5f4"/>
  <path id="path308" d="M132.3-161.871H129.87v-10.146H132.3v10.146" transform="translate(49.693 1020.957)" fill="#f3f5f4"/>
  <path id="path310" d="M143.111-183.488h-2.433v-10.146h2.433v10.146" transform="translate(61.712 996.917)" fill="#f3f5f4"/>
  <path id="path312" d="M108.1-182.512H105.67v-10.146H108.1v10.146" transform="translate(22.781 998.003)" fill="#f3f5f4"/>
  <path id="path314" d="M113.62-191.474h-2.431v-10.149h2.431v10.149" transform="translate(28.918 988.033)" fill="#f3f5f4"/>
  <path id="path316" d="M116.155-177.708h-2.431v-10.146h2.431v10.146" transform="translate(31.737 1003.345)" fill="#f3f5f4"/>
  <path id="path318" d="M148.981-201.8h-2.43v-10.146h2.43V-201.8" transform="translate(68.242 976.553)" fill="#f3f5f4"/>
  <path id="path320" d="M166.061-195.233h-2.43v-10.143h2.43v10.143" transform="translate(87.236 983.859)" fill="#f3f5f4"/>
  <path id="path322" d="M214.974-162.629H115.737a4.434,4.434,0,0,0-4.393,5.021l10.283,76.972A15.832,15.832,0,0,0,137.319-66.9H195.1a15.829,15.829,0,0,0,15.733-14.08l8.541-76.724a4.432,4.432,0,0,0-4.4-4.923" transform="translate(29.046 1031.397)" fill="#f3f5f4"/>
  <path id="path324" d="M212.929-132.452l1.738-15.6H112.953l2.084,15.6h97.892" transform="translate(30.88 1047.61)" fill="#70927f"/>
  <path id="path326" d="M151.43-337.441a24.613,24.613,0,0,1-24.614,24.613A24.612,24.612,0,0,1,102.2-337.441a24.613,24.613,0,0,1,24.613-24.615,24.614,24.614,0,0,1,24.614,24.615" transform="translate(18.924 809.62)" fill="#f3f5f4"/>
  <path id="path328" d="M151.43-337.441a24.613,24.613,0,0,1-24.614,24.613A24.612,24.612,0,0,1,102.2-337.441a24.613,24.613,0,0,1,24.613-24.615A24.614,24.614,0,0,1,151.43-337.441Z" transform="translate(18.924 809.62)" fill="none" stroke="#70927f" stroke-miterlimit="10" stroke-width="0.333"/>
  <path id="path330" d="M515.067-310.233a24.615,24.615,0,0,1-24.613,24.615,24.615,24.615,0,0,1-24.615-24.615,24.614,24.614,0,0,1,24.615-24.615,24.613,24.613,0,0,1,24.613,24.615" transform="translate(423.313 839.878)" fill="#f3f5f4"/>
  <path id="path332" d="M515.067-310.233a24.615,24.615,0,0,1-24.613,24.615,24.615,24.615,0,0,1-24.615-24.615,24.614,24.614,0,0,1,24.615-24.615A24.613,24.613,0,0,1,515.067-310.233Z" transform="translate(423.313 839.878)" fill="none" stroke="#70927f" stroke-miterlimit="10" stroke-width="0.333"/>
  <path id="path334" d="M482.955-242.758a12.3,12.3,0,0,1-12.306,12.306,12.3,12.3,0,0,1-12.306-12.306,12.306,12.306,0,0,1,12.306-12.306,12.306,12.306,0,0,1,12.306,12.306" transform="translate(414.977 928.603)" fill="#f3f5f4"/>
  <path id="path336" d="M482.955-242.758a12.3,12.3,0,0,1-12.306,12.306,12.3,12.3,0,0,1-12.306-12.306,12.306,12.306,0,0,1,12.306-12.306A12.306,12.306,0,0,1,482.955-242.758Z" transform="translate(414.977 928.603)" fill="none" stroke="#70927f" stroke-miterlimit="10" stroke-width="0.333"/>
  <path id="path338" d="M564.556-431.082l-9.476,38.958L525.6-421.608Z" transform="translate(489.77 732.86)" fill="#f3f5f4"/>
  <path id="path340" d="M564.556-431.082l-9.476,38.958L525.6-421.608Z" transform="translate(489.77 732.86)" fill="none" stroke="#70927f" stroke-miterlimit="10" stroke-width="0.333"/>
  <path id="path342" d="M250.934-472.127,216.687-451.28v-41.7Z" transform="translate(146.239 664.03)" fill="#f3f5f4"/>
  <path id="path344" d="M250.934-472.127,216.687-451.28v-41.7Z" transform="translate(146.239 664.03)" fill="none" stroke="#70927f" stroke-miterlimit="10" stroke-width="0.333"/>
  <path id="path346" d="M563.224-244.088,528.977-223.24v-41.695Z" transform="translate(493.527 917.626)" fill="#f3f5f4"/>
  <path id="path348" d="M563.224-244.088,528.977-223.24v-41.695Z" transform="translate(493.527 917.626)" fill="none" stroke="#70927f" stroke-miterlimit="10" stroke-width="0.333"/>
  <path id="path350" d="M658.083-255.182H495.5a18,18,0,0,1-18-18.006v-32.16a18,18,0,0,1,18-18.006H658.083a18.007,18.007,0,0,1,18,18.006v32.16a18.007,18.007,0,0,1-18,18.006" transform="translate(436.273 852.66)" fill="#fff"/>
  <path id="path352" d="M658.083-255.182H495.5a18,18,0,0,1-18-18.006v-32.16a18,18,0,0,1,18-18.006H658.083a18.007,18.007,0,0,1,18,18.006v32.16A18.007,18.007,0,0,1,658.083-255.182Z" transform="translate(436.273 852.66)" fill="none" stroke="#70927f" stroke-miterlimit="10" stroke-width="0.333"/>
  <path id="path354" d="M622.5-315.29H494.112" transform="translate(454.754 861.628)" fill="none" stroke="#70927f" stroke-miterlimit="10" stroke-width="0.333"/>
  <path id="path356" d="M622.5-307.215H494.112" transform="translate(454.754 870.608)" fill="none" stroke="#70927f" stroke-miterlimit="10" stroke-width="0.333"/>
  <path id="path358" d="M622.5-299.139H494.112" transform="translate(454.754 879.589)" fill="none" stroke="#70927f" stroke-miterlimit="10" stroke-width="0.333"/>
  <path id="path360" d="M278.07-358.651H115.487a18,18,0,0,1-18.005-18.006v-32.16a18.006,18.006,0,0,1,18.005-18.006H278.07a18.005,18.005,0,0,1,18.006,18.006v32.16a18,18,0,0,1-18.006,18.006" transform="translate(13.675 737.596)" fill="#fff"/>
  <path id="path362" d="M278.07-358.651H115.487a18,18,0,0,1-18.005-18.006v-32.16a18.006,18.006,0,0,1,18.005-18.006H278.07a18.005,18.005,0,0,1,18.006,18.006v32.16A18,18,0,0,1,278.07-358.651Z" transform="translate(13.675 737.596)" fill="none" stroke="#70927f" stroke-miterlimit="10" stroke-width="0.333"/>
  <path id="path364" d="M242.491-418.759H114.1" transform="translate(32.157 746.563)" fill="none" stroke="#70927f" stroke-miterlimit="10" stroke-width="0.333"/>
  <path id="path366" d="M242.491-410.684H114.1" transform="translate(32.157 755.543)" fill="none" stroke="#70927f" stroke-miterlimit="10" stroke-width="0.333"/>
  <path id="path368" d="M242.491-402.61H114.1" transform="translate(32.157 764.523)" fill="none" stroke="#70927f" stroke-miterlimit="10" stroke-width="0.333"/>
</svg>
