<svg xmlns="http://www.w3.org/2000/svg" width="48.463" height="48.463" viewBox="0 0 48.463 48.463">
  <g id="instagram" transform="translate(0 48.463) rotate(-90)">
    <g id="Group_1285" data-name="Group 1285">
      <g id="Group_1284" data-name="Group 1284">
        <path id="Path_1209" data-name="Path 1209" d="M34.386,0H14.078A14.094,14.094,0,0,0,0,14.078V34.386A14.094,14.094,0,0,0,14.078,48.463H34.386A14.094,14.094,0,0,0,48.463,34.386V14.078A14.094,14.094,0,0,0,34.386,0ZM44.677,34.386A10.3,10.3,0,0,1,34.386,44.677H14.078A10.3,10.3,0,0,1,3.786,34.386V14.078A10.3,10.3,0,0,1,14.078,3.786H34.386A10.3,10.3,0,0,1,44.677,14.078Z" fill="#4eb848"/>
      </g>
    </g>
    <g id="Group_1287" data-name="Group 1287" transform="translate(11.169 11.169)">
      <g id="Group_1286" data-name="Group 1286">
        <path id="Path_1210" data-name="Path 1210" d="M13.062,0A13.062,13.062,0,1,0,26.125,13.062,13.077,13.077,0,0,0,13.062,0Zm0,22.339a9.276,9.276,0,1,1,9.276-9.276A9.287,9.287,0,0,1,13.062,22.339Z" fill="#4eb848"/>
      </g>
    </g>
    <g id="Group_1289" data-name="Group 1289" transform="translate(35.59 9.087)">
      <g id="Group_1288" data-name="Group 1288">
        <ellipse id="Ellipse_91" data-name="Ellipse 91" cx="1.893" cy="1.893" rx="1.893" ry="1.893" fill="#4eb848"/>
      </g>
    </g>
  </g>
</svg>
