<svg xmlns="http://www.w3.org/2000/svg" width="471.707" height="397.686" viewBox="0 0 471.707 397.686">
  <g id="g10" transform="translate(0 528.772)">
    <g id="g12" transform="translate(0 -528.772)">
      <path id="path14" d="M496.125-283.061a10.358,10.358,0,0,1-2.189,2.608A13.693,13.693,0,0,1,485.39-277a13.865,13.865,0,0,1-6.355-1.218,14.085,14.085,0,0,1-5.714-4.744,13.237,13.237,0,0,1-1.82-3.625,13.274,13.274,0,0,1-.718-4.173,14.158,14.158,0,0,1,2.572-8.413,14.15,14.15,0,0,1,7.081-5.227,13.261,13.261,0,0,1,4.174-.712,13.231,13.231,0,0,1,4.026.511,14.072,14.072,0,0,1,6.375,3.811,13.861,13.861,0,0,1,3.262,5.588,13.687,13.687,0,0,1-.416,9.208,10.347,10.347,0,0,1-1.732,2.933c-.083-.051.685-1.018,1.446-3.043a13.721,13.721,0,0,0,.169-8.931,13.42,13.42,0,0,0-3.2-5.3,13.488,13.488,0,0,0-6.1-3.565,12.577,12.577,0,0,0-3.816-.459,12.619,12.619,0,0,0-3.947.692,13.45,13.45,0,0,0-6.68,4.95,13.441,13.441,0,0,0-2.444,7.944,12.564,12.564,0,0,0,.661,3.951,12.576,12.576,0,0,0,1.7,3.447,13.5,13.5,0,0,0,5.39,4.564,13.41,13.41,0,0,0,6.061,1.254,13.7,13.7,0,0,0,8.366-3.13c1.658-1.392,2.313-2.437,2.389-2.375" transform="translate(-116.709 473.326)" fill="#dadbd8"/>
      <path id="path16" d="M497.364-275.593a2.953,2.953,0,0,1,.457.157l1.366.533c1.248.5,3.046,1.222,5.38,2.157l-.151.044,7.341-10.5.015.25-5.2-5.737-.094-.1.049-.133a31.394,31.394,0,0,0,1.8-8.091l.013-.155.146-.061,7.15-2.982-.169.307c-.691-3.976-1.422-8.2-2.192-12.626l.29.258-7.736-.4-.2-.01-.082-.18a31.183,31.183,0,0,0-4.416-6.989l-.131-.157.078-.192c.917-2.218,1.926-4.665,2.955-7.156l.121.421-10.47-7.391.457-.026c-1.792,1.612-3.759,3.385-5.753,5.18l-.168.151-.214-.078a31.28,31.28,0,0,0-8.052-1.818l-.23-.02-.089-.215-2.965-7.156.422.233-12.632,2.168.325-.366c-.129,2.443-.269,5.08-.411,7.737l-.011.239-.218.1a31.058,31.058,0,0,0-6.975,4.391l0,0v0c-.064.009-.033,0,0,0l-.4.062-.007,0-.015-.006-.027-.011-.057-.024-.112-.046-.226-.094-.45-.187-.9-.373-1.794-.744-3.565-1.479.471-.136q-3.753,5.3-7.406,10.461l-.029-.486,5.175,5.761.157.174-.082.22a31.04,31.04,0,0,0-1.83,8.048l-.021.231-.214.088-7.16,2.956.227-.41q1.1,6.469,2.15,12.633l-.338-.3,7.736.421.214.012.088.195a31.107,31.107,0,0,0,4.391,7l.133.16-.079.19c-1.022,2.451-2.012,4.826-2.977,7.147l-.113-.393,10.445,7.427-.376.021,5.772-5.162.128-.115.159.06a31.3,31.3,0,0,0,8.074,1.853l.157.014.058.145,2.938,7.167-.255-.14,12.643-2.107-.147.165c.185-3.089.336-5.622.461-7.733l.005-.077.069-.031a32.558,32.558,0,0,0,5.451-3.116l1.253-.92a3.121,3.121,0,0,1,.418-.3,4.2,4.2,0,0,1-.377.352c-.263.222-.661.557-1.218.974a30.349,30.349,0,0,1-5.421,3.24l.073-.108c-.1,2.112-.218,4.648-.361,7.739l-.007.139-.14.025-12.624,2.218-.181.032-.073-.173c-.923-2.21-1.9-4.55-2.985-7.148l.217.159a31.673,31.673,0,0,1-8.225-1.839l.288-.054-5.747,5.19-.178.162-.2-.14-10.476-7.383-.214-.151.1-.243,2.953-7.158.053.35a31.72,31.72,0,0,1-4.51-7.144l.3.206-7.735-.4-.289-.015-.05-.287q-1.061-6.158-2.175-12.628l-.051-.3.278-.116,7.155-2.968-.234.319a31.8,31.8,0,0,1,1.865-8.25l.075.394q-2.565-2.849-5.18-5.756l-.209-.232.181-.255,7.4-10.465.182-.258.292.121,3.566,1.478,1.794.744.9.372.45.188.225.093.113.047.056.023.028.011.013.006.007,0-.4.061c.032-.005.064-.01,0,0v0l0,0a31.779,31.779,0,0,1,7.155-4.5l-.231.337c.143-2.655.284-5.293.414-7.737l.017-.313.308-.052,12.634-2.157.306-.052.117.286c1.02,2.471,2.031,4.918,2.957,7.16l-.318-.234a31.981,31.981,0,0,1,8.244,1.875l-.38.072,5.763-5.169.219-.2.24.169,10.452,7.416.231.163-.107.26c-1.038,2.488-2.055,4.932-2.977,7.147l-.053-.348a31.745,31.745,0,0,1,4.487,7.155l-.28-.191,7.735.427.249.014.041.244c.748,4.434,1.461,8.657,2.133,12.636l.038.223-.208.085-7.167,2.942.16-.217a31.668,31.668,0,0,1-1.888,8.207l-.045-.235,5.153,5.778.107.12-.092.129-7.464,10.419-.059.083-.092-.039c-2.29-.982-4.055-1.737-5.281-2.26l-1.36-.6a4.1,4.1,0,0,1-.465-.223" transform="translate(-108.611 481.701)" fill="#dadbd8"/>
      <path id="path18" d="M459.911-433.259a19.44,19.44,0,0,0-4.639-27.1,19.439,19.439,0,0,0-27.1,4.639,19.44,19.44,0,0,0,4.639,27.1A19.439,19.439,0,0,0,459.911-433.259Zm13.2,22.4a44.4,44.4,0,0,1-10,6.294l-.583,10.937-17.862,3.057-4.189-10.12a44.412,44.412,0,0,1-11.523-2.61l-8.143,7.319-14.791-10.469,4.193-10.113a44.284,44.284,0,0,1-6.294-10l-10.938-.583-3.057-17.859,10.121-4.19a44.406,44.406,0,0,1,2.612-11.522l-7.32-8.142,10.468-14.8,10.114,4.195a44.352,44.352,0,0,1,10-6.295l.583-10.938,17.862-3.058,4.188,10.123a44.529,44.529,0,0,1,11.522,2.609l8.143-7.317,14.793,10.467-4.195,10.113a44.305,44.305,0,0,1,6.295,10l10.938.584,3.057,17.86-10.121,4.189a44.4,44.4,0,0,1-2.611,11.522l7.319,8.142-10.468,14.792-10.115-4.192" transform="translate(-96.666 521.578)" fill="#dadbd8" fill-rule="evenodd"/>
      <path id="path20" d="M154.7-379.746a18.374,18.374,0,0,0-25.32,5.837,18.375,18.375,0,0,0,5.837,25.32,18.374,18.374,0,0,0,25.32-5.837A18.373,18.373,0,0,0,154.7-379.746Zm20.425-13.663a42.012,42.012,0,0,1,6.478,9.094l10.352-.039,3.847,16.689-9.324,4.5a42.005,42.005,0,0,1-1.843,11.014l7.346,7.289L182.9-330.343l-9.768-3.411a41.893,41.893,0,0,1-9.1,6.477l.039,10.353-16.687,3.848-4.5-9.325a41.959,41.959,0,0,1-11.014-1.844l-7.288,7.346-14.524-9.081,3.413-9.77A41.907,41.907,0,0,1,107-344.845l-10.354.039L92.8-361.5l9.326-4.5a42.081,42.081,0,0,1,1.843-11.014l-7.343-7.288,9.081-14.523,9.769,3.413a41.837,41.837,0,0,1,9.1-6.478l-.039-10.354,16.688-3.848,4.5,9.326a41.925,41.925,0,0,1,11.014,1.844l7.288-7.345,14.521,9.08-3.41,9.77" transform="translate(-23.005 500.836)" fill="#dadbd8" fill-rule="evenodd"/>
      <path id="path22" d="M189.341-475.844a10.173,10.173,0,0,0-14.019,3.231,10.174,10.174,0,0,0,3.232,14.019,10.172,10.172,0,0,0,14.018-3.232A10.173,10.173,0,0,0,189.341-475.844Zm11.307-7.565a23.3,23.3,0,0,1,3.587,5.036l5.731-.023,2.129,9.241-5.161,2.49a23.224,23.224,0,0,1-1.021,6.1l4.067,4.035-5.029,8.04-5.408-1.889a23.171,23.171,0,0,1-5.036,3.586l.022,5.732-9.239,2.13L182.8-444.1a23.193,23.193,0,0,1-6.1-1.022l-4.034,4.067-8.041-5.027,1.889-5.409a23.2,23.2,0,0,1-3.586-5.035l-5.733.021-2.13-9.24,5.163-2.491a23.308,23.308,0,0,1,1.021-6.1l-4.066-4.035,5.028-8.039,5.408,1.888a23.205,23.205,0,0,1,5.036-3.586l-.022-5.732,9.24-2.13,2.49,5.162a23.269,23.269,0,0,1,6.1,1.021l4.035-4.066,8.039,5.027-1.888,5.409" transform="translate(-38.442 520.638)" fill="#dadbd8" fill-rule="evenodd"/>
      <path id="path24" d="M104.54-457.021a2.009,2.009,0,0,1,.462.258,6.591,6.591,0,0,1,1.181.958,8.208,8.208,0,0,1,2.37,5,8.325,8.325,0,0,1-.51,3.854,8.458,8.458,0,0,1-2.649,3.593,7.98,7.98,0,0,1-2.113,1.217,7.981,7.981,0,0,1-2.479.574,8.5,8.5,0,0,1-5.138-1.255,8.5,8.5,0,0,1-3.38-4.07,7.96,7.96,0,0,1-.57-2.481,7.953,7.953,0,0,1,.17-2.433,8.465,8.465,0,0,1,2.07-3.956,8.319,8.319,0,0,1,3.242-2.145,8.2,8.2,0,0,1,5.534-.058,6.555,6.555,0,0,1,1.377.642,2,2,0,0,1,.434.3c-.029.054-.636-.369-1.874-.751a8.214,8.214,0,0,0-5.341.21,8.041,8.041,0,0,0-3.053,2.094,8.071,8.071,0,0,0-1.918,3.762,7.5,7.5,0,0,0-.143,2.293,7.514,7.514,0,0,0,.548,2.331,8.037,8.037,0,0,0,3.181,3.817,8.034,8.034,0,0,0,4.823,1.187,7.46,7.46,0,0,0,2.335-.527,7.525,7.525,0,0,0,2-1.132,8.072,8.072,0,0,0,2.543-3.372,8.026,8.026,0,0,0,.546-3.661,8.218,8.218,0,0,0-2.149-4.895c-.887-.946-1.533-1.306-1.5-1.356" transform="translate(-22.73 511.331)" fill="#dadbd8"/>
      <path id="path26" d="M108.689-468.133a1.691,1.691,0,0,1,.077-.279l.271-.836c.257-.768.626-1.869,1.1-3.3l.034.1-6.54-4.031.164-.019-3.254,3.309-.064.066-.09-.027a18.781,18.781,0,0,0-4.9-.8l-.1,0-.046-.094-2.03-4.177.209.1-7.481,1.745.159-.2c.009,1.438.018,3.021.028,4.645v.13l-.116.061a18.7,18.7,0,0,0-4.027,2.879l-.1.093-.129-.044-4.385-1.524.274-.1-4.065,6.52-.034-.3,3.3,3.267.107.105L77-460.7a18.725,18.725,0,0,0-.811,4.876l0,.153-.138.066-4.182,2.02.138-.287,1.729,7.486-.254-.2,4.644-.018.158,0,.073.14a18.606,18.606,0,0,0,2.863,4.02h0c.025.118-.055-.264.057.266l0,0,0,.009-.006.017-.012.035-.024.069-.048.137-.1.276-.192.551-.384,1.1-.764,2.185-.108-.307,6.514,4.075-.32.037,3.271-3.293.11-.11.148.045a18.589,18.589,0,0,0,4.873.82l.153.005.067.137,2.014,4.185-.28-.134,7.488-1.718-.186.235q-.006-2.363-.011-4.643v-.142l.125-.066a18.631,18.631,0,0,0,4.035-2.863l.1-.094.129.045,4.379,1.539-.256.089,4.089-6.5.029.248-3.286-3.279-.081-.08.034-.108a18.747,18.747,0,0,0,.834-4.891l0-.105.093-.044,4.19-2-.083.173-1.689-7.5.114.091-4.644-.015h-.051l-.023-.045a19.631,19.631,0,0,0-2.047-3.157l-.592-.721a1.773,1.773,0,0,1-.193-.241,2.031,2.031,0,0,1,.226.213c.142.149.356.375.626.694a18.229,18.229,0,0,1,2.129,3.134l-.074-.045,4.643-.051h.093l.022.092,1.762,7.479.028.119-.111.054-4.176,2.033.1-.148a19,19,0,0,1-.819,4.99l-.047-.189,3.3,3.261.113.112-.085.136-4.06,6.523-.091.146-.164-.056-4.385-1.522.228-.048a19.042,19.042,0,0,1-4.125,2.947l.125-.208q.012,2.28.024,4.644v.192l-.188.044L96.3-431.854l-.194.044-.087-.178L94-436.17l.219.143a19.151,19.151,0,0,1-5.008-.835l.257-.065-3.268,3.3-.146.146-.175-.109-6.517-4.072-.176-.11.069-.2.763-2.185.384-1.1.192-.552.1-.276.048-.138.024-.068.012-.035.006-.017,0-.008v-.005c.112.528.031.146.055.264h0l0,0a19.082,19.082,0,0,1-2.942-4.132l.231.138-4.644.017h-.208l-.047-.2-1.722-7.488-.046-.2.184-.088,4.185-2.015-.143.22a19.183,19.183,0,0,1,.842-5l.062.249L73.3-463.872l-.138-.137.1-.164,4.082-6.509.1-.157.175.061L82-469.241l-.228.048a19.072,19.072,0,0,1,4.133-2.933l-.115.191c0-1.622,0-3.206-.007-4.644v-.164l.16-.037,7.49-1.706.146-.034.064.134,2,4.189-.149-.1a18.993,18.993,0,0,1,4.98.852l-.154.038,3.284-3.28.076-.075.089.056,6.488,4.114.057.036-.023.062q-.763,2.1-1.175,3.236c-.132.352-.235.627-.313.834a2.1,2.1,0,0,1-.12.286" transform="translate(-17.716 516.315)" fill="#dadbd8"/>
      <path id="path28" d="M371.7-136.095l-133.233-.616a29.022,29.022,0,0,1-28.888-29.144l1.412-334.017a29.024,29.024,0,0,1,29.156-28.9l133.233.616a29.022,29.022,0,0,1,28.887,29.145l-1.411,334.019a29.022,29.022,0,0,1-29.156,28.9" transform="translate(-51.956 528.772)" fill="#33535f"/>
      <path id="path30" d="M376.1-512.828l-25.832-.119a6.417,6.417,0,0,0-6.3,6.528l-.021,4.686a6.416,6.416,0,0,1-6.3,6.528l-50.351-.233a6.423,6.423,0,0,1-6.244-6.586l.019-4.686a6.423,6.423,0,0,0-6.244-6.586l-9.085-.042-22.609-.1a20.326,20.326,0,0,0-20.42,20.239l-1.378,326.025a20.327,20.327,0,0,0,20.232,20.413l132.966.613a20.326,20.326,0,0,0,20.42-20.239l1.379-326.026a20.326,20.326,0,0,0-20.232-20.411" transform="translate(-54.872 524.972)" fill="#fafaf9"/>
      <path id="path32" d="M355-325.189H302.81a9.79,9.79,0,0,1-9.79-9.79v-52.187a9.79,9.79,0,0,1,9.79-9.79H355a9.79,9.79,0,0,1,9.791,9.79v52.187a9.79,9.79,0,0,1-9.791,9.79" transform="translate(-72.642 496.094)" fill="#4eb848"/>
      <path id="path34" d="M265.995-362.244l1.731,3.506,3.869.563-2.8,2.729.661,3.854-3.461-1.819-3.461,1.819.661-3.854-2.8-2.729,3.869-.562,1.731-3.506" transform="translate(-64.554 487.489)" fill="#4eb848"/>
      <path id="path36" d="M415.077-408.447l1.338,2.711,2.991.435-2.165,2.11.511,2.98-2.675-1.408-2.676,1.408.511-2.98-2.165-2.11,2.991-.435,1.339-2.711" transform="translate(-101.827 498.943)" fill="#f0e23d"/>
      <path id="path38" d="M412.215-321.977l1.16,1.573,1.953-.064-1.137,1.589.665,1.839-1.864-.591-1.543,1.2-.013-1.954-1.618-1.1,1.855-.617.543-1.878" transform="translate(-101.597 477.506)" fill="#f0e23d"/>
      <path id="path40" d="M265.471-397.052a.828.828,0,0,0-.827.827.828.828,0,0,0,.827.827.828.828,0,0,0,.827-.827A.828.828,0,0,0,265.471-397.052Zm0,2.657a1.831,1.831,0,0,1-1.83-1.83,1.832,1.832,0,0,1,1.83-1.83,1.833,1.833,0,0,1,1.83,1.83,1.832,1.832,0,0,1-1.83,1.83" transform="translate(-65.358 496.367)" fill="#f0e23d"/>
      <path id="path42" d="M403.042-363.415a.828.828,0,0,0-.827.827.828.828,0,0,0,.827.827.828.828,0,0,0,.828-.827A.828.828,0,0,0,403.042-363.415Zm0,2.657a1.832,1.832,0,0,1-1.83-1.83,1.833,1.833,0,0,1,1.83-1.83,1.833,1.833,0,0,1,1.831,1.83,1.832,1.832,0,0,1-1.831,1.83" transform="translate(-99.463 488.028)" fill="#4eb848"/>
      <path id="path44" d="M371.286-414.775a.829.829,0,0,0-.827.828.828.828,0,0,0,.827.827.828.828,0,0,0,.827-.827A.829.829,0,0,0,371.286-414.775Zm0,2.658a1.832,1.832,0,0,1-1.83-1.83,1.832,1.832,0,0,1,1.83-1.831,1.832,1.832,0,0,1,1.83,1.831,1.832,1.832,0,0,1-1.83,1.83" transform="translate(-91.591 500.76)" fill="#4eb848"/>
      <path id="path46" d="M253.726-316.96a1.329,1.329,0,0,1-1.329,1.329,1.329,1.329,0,0,1-1.33-1.329,1.329,1.329,0,0,1,1.33-1.329,1.329,1.329,0,0,1,1.329,1.329" transform="translate(-62.241 476.592)" fill="#f0e23d"/>
      <path id="path48" d="M335.211-291.741a1.328,1.328,0,0,1-1.329,1.329,1.328,1.328,0,0,1-1.329-1.329,1.328,1.328,0,0,1,1.329-1.329,1.328,1.328,0,0,1,1.329,1.329" transform="translate(-82.443 470.34)" fill="#4eb848"/>
      <path id="path50" d="M318.075-431.712a1.329,1.329,0,0,1-1.329,1.329,1.328,1.328,0,0,1-1.329-1.329,1.328,1.328,0,0,1,1.329-1.329,1.329,1.329,0,0,1,1.329,1.329" transform="translate(-78.194 505.04)" fill="#4eb848"/>
      <path id="path70" d="M379.706-217.787H306.425V-270.8h73.282v53.011" transform="translate(-75.965 464.819)" fill="#17282f"/>
      <path id="path72" d="M338.3-217.787H274.418V-270.8H338.3v53.011" transform="translate(-68.03 464.819)" fill="#33535f"/>
      <path id="path74" d="M270.68-274.536l-11.341-11.341h28.739l10.675,11.341H270.68" transform="translate(-64.292 468.557)" fill="#33535f"/>
      <path id="path76" d="M359.358-274.536,372.4-285.877h35.792l-15.366,11.341H359.358" transform="translate(-89.087 468.557)" fill="#33535f"/>
      <path id="path78" d="M338.3-270.884c0,.143-14.3.261-31.94.261s-31.943-.117-31.943-.261,14.3-.262,31.943-.262,31.94.117,31.94.262" transform="translate(-68.03 464.905)" fill="#17282f"/>
      <path id="path80" d="M378.594-114.879H260.628a5.092,5.092,0,0,1-5.092-5.092v-.247a5.091,5.091,0,0,1,5.092-5.091H378.594a5.091,5.091,0,0,1,5.092,5.091v.247a5.092,5.092,0,0,1-5.092,5.092" transform="translate(-63.349 428.751)" fill="#dadbd8"/>
      <path id="path82" d="M318.436-114.879H260.628a5.092,5.092,0,0,1-5.092-5.092v-.247a5.091,5.091,0,0,1,5.092-5.091h57.809a5.091,5.091,0,0,1,5.091,5.091v.247a5.091,5.091,0,0,1-5.091,5.092" transform="translate(-63.349 428.751)" fill="#4eb848"/>
      <path id="path84" d="M326.477-80.291c0,2.136-1.49,3.806-4.559,3.806a6.488,6.488,0,0,1-4.506-1.615l.629-1.023A5.441,5.441,0,0,0,321.9-77.67c2.136,0,3.267-1.041,3.267-2.566,0-1.615-1-2.621-4.2-2.621h-2.674l.646-6.3h6.875v1.149h-5.744l-.431,4h1.616c3.788,0,5.224,1.49,5.224,3.715" transform="translate(-78.689 419.789)" fill="#4eb848"/>
      <path id="path86" d="M339.863-80.291c0,2.136-1.49,3.806-4.559,3.806A6.488,6.488,0,0,1,330.8-78.1l.629-1.023a5.441,5.441,0,0,0,3.858,1.453c2.136,0,3.267-1.041,3.267-2.566,0-1.615-1-2.621-4.2-2.621h-2.674l.646-6.3H339.2v1.149h-5.744l-.431,4h1.615c3.788,0,5.224,1.49,5.224,3.715" transform="translate(-82.008 419.789)" fill="#4eb848"/>
      <path id="path88" d="M357.018-79.943c0-1.615-.754-2.6-1.939-2.6-1.166,0-1.937.969-1.937,2.6s.771,2.6,1.937,2.6C356.264-77.34,357.018-78.327,357.018-79.943Zm-4.774,0c0-2.045,1.166-3.409,2.835-3.409,1.688,0,2.836,1.364,2.836,3.409s-1.148,3.411-2.836,3.411C353.41-76.532,352.244-77.9,352.244-79.943Zm2.746-9.244h1.059l-8.58,12.565H346.41Zm-5.672,3.321c0-1.634-.771-2.6-1.938-2.6-1.184,0-1.938.987-1.938,2.6s.754,2.6,1.938,2.6c1.167,0,1.938-.97,1.938-2.6Zm-4.774,0c0-2.046,1.149-3.411,2.836-3.411,1.669,0,2.836,1.346,2.836,3.411s-1.167,3.409-2.836,3.409c-1.687,0-2.836-1.364-2.836-3.409" transform="translate(-85.415 419.818)" fill="#4eb848"/>
      <path id="path90" d="M471.707-7.135c0,.145-105.6.262-235.843.262C105.581-6.873,0-6.99,0-7.135s105.581-.26,235.865-.26c130.238,0,235.843.116,235.843.26" transform="translate(0 399.519)" fill="#17282f"/>
      <path id="path92" d="M244.747-22.268l2.88,11.031,32.281-.3s-4.414-3.335-20.635-3.093L257.7-22.268H244.747" transform="translate(-60.675 403.206)" fill="#f8a58d"/>
      <path id="path94" d="M165.462-189.719l-24.213,2.284-9.837,2.784a26.679,26.679,0,0,0-11.2,6.421l-31.7,30.425L82.727-195.07,66.89-193.692l2.643,60.838a18.121,18.121,0,0,0,17.261,12.612,18.708,18.708,0,0,0,12.751-5.249L122.116-146.7l-2.242,27.994-7.758,17.4,55.4,31.289s6.507-32.212,10-54.5c2.827-18.027,4.263-57.293,4.263-57.293l-16.32-7.91" transform="translate(-16.583 446.045)" fill="#62cb5c"/>
      <path id="path96" d="M216.46-178.177s12.251,4.541,15.213,14.134c2.627,8.509,11.392,56.356,11.392,56.356l8.7,50.64-18.208.692-20.966-86.3,3.874-35.517" transform="translate(-52.702 441.857)" fill="#62cb5c"/>
      <path id="path98" d="M136.721-109.448c-.143-.014.668-9.709,1.813-21.65s2.188-21.617,2.332-21.6-.669,9.706-1.813,21.652-2.189,21.615-2.332,21.6" transform="translate(-33.89 435.542)" fill="#17282f"/>
      <path id="path100" d="M178.2-126.838a1.805,1.805,0,0,1-.159.472l-.555,1.32A19.857,19.857,0,0,1,176.51-123c-.417.777-.849,1.689-1.458,2.622l-.918,1.486c-.323.515-.709,1.017-1.082,1.554-.73,1.089-1.636,2.157-2.563,3.3a53.715,53.715,0,0,1-6.882,6.649,53.773,53.773,0,0,1-8.036,5.2c-1.324.644-2.57,1.284-3.8,1.749-.609.242-1.184.5-1.759.7l-1.656.556c-1.046.382-2.033.6-2.885.827a19.855,19.855,0,0,1-2.211.486c-.563.1-1.028.176-1.41.24a1.749,1.749,0,0,1-.5.049,1.891,1.891,0,0,1,.477-.151l1.387-.337c.6-.13,1.34-.3,2.178-.57s1.812-.494,2.843-.895q.782-.281,1.632-.584c.566-.206,1.133-.476,1.732-.725,1.208-.476,2.436-1.126,3.74-1.775a56.3,56.3,0,0,0,7.935-5.182,56.339,56.339,0,0,0,6.843-6.553c.928-1.125,1.838-2.172,2.576-3.242.377-.526.769-1.018,1.1-1.522l.938-1.457c.625-.914,1.076-1.806,1.515-2.566s.784-1.434,1.049-1.993l.641-1.275a1.866,1.866,0,0,1,.257-.43" transform="translate(-35.044 429.13)" fill="#17282f"/>
      <path id="path102" d="M144.174-96.148a3.8,3.8,0,0,1-1.9-4.338,6.4,6.4,0,0,1,3.608-3.933,26.58,26.58,0,0,1,5.274-1.561,44.226,44.226,0,0,0,20.6-11.556,2.455,2.455,0,0,1,1.493-.854.875.875,0,0,1,.427.109.953.953,0,0,1,.422,1.108l-.1.15c-.329.5-.721,1-1.1,1.522-.465.675-1,1.341-1.563,2.022a66.6,66.6,0,0,1-26.072,17.036c-.388.116-.752.212-1.089.294" transform="translate(-35.241 427.036)" fill="#62cb5c"/>
      <path id="path104" d="M144.525-95.586l.348-.116c.07.027.142.051.216.071l-.564.045m.348-.116c-.037-.014-.074-.028-.111-.044.337-.082.7-.178,1.089-.294-.325.116-.652.229-.978.338m27.05-17.374c.564-.682,1.1-1.348,1.563-2.022.377-.526.769-1.018,1.1-1.522l.1-.15a3.369,3.369,0,0,1-.744,1.454q-.981,1.143-2.014,2.241" transform="translate(-35.829 426.634)" fill="#111d23"/>
      <path id="path106" d="M216.816-112.73a4.37,4.37,0,0,1-.37-1.03c-.206-.671-.482-1.648-.809-2.861-.654-2.423-1.5-5.786-2.336-9.523s-1.519-7.139-1.966-9.609c-.224-1.234-.391-2.236-.493-2.931a4.423,4.423,0,0,1-.106-1.089,4.47,4.47,0,0,1,.306,1.05q.271,1.194.656,2.9c.569,2.571,1.3,5.894,2.114,9.567.839,3.665,1.6,6.98,2.185,9.548q.381,1.7.648,2.9a4.5,4.5,0,0,1,.173,1.08" transform="translate(-52.239 432.336)" fill="#17282f"/>
      <path id="path108" d="M70.438-188.785a5.821,5.821,0,0,1-.464-2.388,5.81,5.81,0,0,1,.057-2.432,5.843,5.843,0,0,1,.463,2.388,5.822,5.822,0,0,1-.057,2.432" transform="translate(-17.33 445.682)" fill="#17282f"/>
      <path id="path110" d="M76.636-188.687a6.484,6.484,0,0,1-.391-2.542,6.483,6.483,0,0,1,.131-2.568,6.5,6.5,0,0,1,.39,2.542,6.49,6.49,0,0,1-.13,2.568" transform="translate(-18.894 445.73)" fill="#17282f"/>
      <path id="path112" d="M82.746-189.27a8.028,8.028,0,0,1-.419-2.832,8,8,0,0,1,.1-2.86,8.014,8.014,0,0,1,.42,2.831,8.012,8.012,0,0,1-.1,2.861" transform="translate(-20.398 446.018)" fill="#17282f"/>
      <path id="path114" d="M94.715-125.316a16.99,16.99,0,0,1,.17-4.187,16.975,16.975,0,0,1,.689-4.135,17,17,0,0,1-.17,4.189,16.993,16.993,0,0,1-.689,4.133" transform="translate(-23.463 430.816)" fill="#17282f"/>
      <path id="path116" d="M244.422-23.212a6.8,6.8,0,0,1,.7,2.539,6.794,6.794,0,0,1,.189,2.628,6.848,6.848,0,0,1-.7-2.54,6.788,6.788,0,0,1-.189-2.627" transform="translate(-60.577 403.44)" fill="#17282f"/>
      <path id="path118" d="M252.38-23.217a5.637,5.637,0,0,1,.648,2.3,5.623,5.623,0,0,1,.132,2.387,5.632,5.632,0,0,1-.648-2.3,5.626,5.626,0,0,1-.132-2.387" transform="translate(-62.548 403.442)" fill="#17282f"/>
      <path id="path120" d="M259.925-23.984a8.722,8.722,0,0,1,.6,2.6,8.757,8.757,0,0,1,.288,2.653,5.881,5.881,0,0,1-.8-2.565,5.919,5.919,0,0,1-.082-2.688" transform="translate(-64.411 403.632)" fill="#17282f"/>
      <path id="path122" d="M225.725-170.372c0,.1-1.272.02-3.245.432a15.559,15.559,0,0,0-6.947,3.43,15.549,15.549,0,0,0-4.337,6.42c-.677,1.9-.772,3.171-.867,3.157a2.579,2.579,0,0,1,.016-.892,12.6,12.6,0,0,1,.5-2.382,14.774,14.774,0,0,1,4.345-6.7,14.76,14.76,0,0,1,7.222-3.4,12.572,12.572,0,0,1,2.427-.174,2.639,2.639,0,0,1,.886.1" transform="translate(-52.135 439.95)" fill="#17282f"/>
      <path id="path124" d="M233.732-142.969a19.023,19.023,0,0,1-3.02,1.281c-1.894.717-4.536,1.643-7.486,2.565s-5.651,1.663-7.615,2.151a18.714,18.714,0,0,1-3.214.665,22.308,22.308,0,0,1,3.116-1.021l7.558-2.293,7.519-2.415a22.33,22.33,0,0,1,3.143-.933" transform="translate(-52.655 433.131)" fill="#fafaf9"/>
      <path id="path126" d="M243.884-96.561a19.994,19.994,0,0,1-3.141.852c-1.953.46-4.658,1.061-7.65,1.694s-5.711,1.174-7.683,1.543a20.115,20.115,0,0,1-3.217.489,20.111,20.111,0,0,1,3.136-.85c1.952-.46,4.66-1.061,7.656-1.694s5.714-1.176,7.686-1.544a20.2,20.2,0,0,1,3.213-.49" transform="translate(-55.083 421.628)" fill="#fafaf9"/>
      <path id="path128" d="M255.922-38.538a19.654,19.654,0,0,1-3.008.156c-1.856.047-4.417.126-7.243.288s-5.38.379-7.23.544a19.634,19.634,0,0,1-3.005.192,15.459,15.459,0,0,1,2.964-.559c1.843-.26,4.4-.534,7.241-.7s5.412-.183,7.273-.135a15.407,15.407,0,0,1,3.008.213" transform="translate(-58.366 407.298)" fill="#fafaf9"/>
      <path id="path130" d="M151.226-95.258a10.377,10.377,0,0,1-2.083-.888l-4.909-2.35-4.924-2.319a10.363,10.363,0,0,1-2-1.054,9.363,9.363,0,0,1,2.151.715c1.3.511,3.074,1.271,5,2.187s3.636,1.809,4.854,2.493a9.225,9.225,0,0,1,1.912,1.215" transform="translate(-34.039 422.942)" fill="#fafaf9"/>
      <path id="path132" d="M199.649-87.9a5.853,5.853,0,0,1-1.184-.448c-.842-.368-1.9-.827-3.155-1.375-2.661-1.164-6.349-2.746-10.461-4.391s-7.877-3.042-10.606-4.034l-3.233-1.18a5.983,5.983,0,0,1-1.166-.49,5.893,5.893,0,0,1,1.23.3c.783.223,1.907.572,3.289,1.025,2.766.9,6.555,2.249,10.68,3.9s7.795,3.289,10.421,4.541c1.313.626,2.369,1.148,3.089,1.526a5.887,5.887,0,0,1,1.1.633" transform="translate(-42.105 422.434)" fill="#fafaf9"/>
      <path id="path134" d="M195.526-124.529a2.283,2.283,0,0,1-.566-.048l-1.6-.239c-1.461-.238-3.453-.56-5.881-.953-4.963-.811-11.823-1.908-19.414-3.026s-14.479-2.041-19.466-2.694l-5.905-.782-1.6-.232a2.358,2.358,0,0,1-.556-.116,2.363,2.363,0,0,1,.568.011l1.614.136c1.4.127,3.427.336,5.926.616,5,.561,11.9,1.428,19.5,2.544s14.451,2.275,19.4,3.179c2.475.452,4.475.834,5.853,1.118l1.585.336a2.293,2.293,0,0,1,.547.151" transform="translate(-34.839 430.566)" fill="#fafaf9"/>
      <path id="path136" d="M194.684-164.26c-.021.143-10.872-1.36-24.233-3.356s-24.179-3.731-24.158-3.875,10.87,1.361,24.235,3.358,24.178,3.731,24.156,3.873" transform="translate(-36.267 440.202)" fill="#fafaf9"/>
      <path id="path138" d="M131.734-134.266a26.145,26.145,0,0,1-1.54-3.257l-3.525-7.936-3.6-7.9a26.362,26.362,0,0,1-1.416-3.313,3.475,3.475,0,0,1,.519.82c.3.545.724,1.341,1.23,2.332,1.011,1.984,2.35,4.751,3.745,7.85s2.577,5.936,3.39,8.008c.406,1.036.724,1.879.929,2.468a3.442,3.442,0,0,1,.271.931" transform="translate(-30.157 436.527)" fill="#fafaf9"/>
      <path id="path140" d="M104.467-107.722c-.141.03-1.523-6.026-3.087-13.524s-2.718-13.6-2.576-13.633,1.523,6.025,3.087,13.527,2.717,13.6,2.575,13.63" transform="translate(-24.491 431.123)" fill="#fafaf9"/>
      <path id="path142" d="M88.236-142.522a89.854,89.854,0,0,1-9.4,2.28,90.108,90.108,0,0,1-9.51,1.77,89.892,89.892,0,0,1,9.4-2.281,89.553,89.553,0,0,1,9.509-1.769" transform="translate(-17.187 433.022)" fill="#fafaf9"/>
      <path id="path144" d="M84.647-178.987a11.769,11.769,0,0,1-2.472.541c-1.538.263-3.673.571-6.039.84s-4.516.446-6.074.536a11.735,11.735,0,0,1-2.53.027,12.6,12.6,0,0,1,2.5-.4l6.048-.688,6.047-.686a12.607,12.607,0,0,1,2.523-.176" transform="translate(-16.742 442.065)" fill="#fafaf9"/>
      <path id="path146" d="M95.585-242.315c.286.568,7.816,39.275,7.816,39.275l-17.754.828L78.772-235.5l16.813-6.817" transform="translate(-19.528 457.758)" fill="#33535f"/>
      <path id="path148" d="M108.863-203.007l2.033-.859-7.683-38.156-2.41-.16,8.059,39.176" transform="translate(-24.99 457.725)" fill="#17282f"/>
      <path id="path150" d="M91.032-231.331a.919.919,0,0,1-.8,1.025.919.919,0,0,1-1.026-.8.921.921,0,0,1,.8-1.026.921.921,0,0,1,1.026.8" transform="translate(-22.113 455.235)" fill="#17282f"/>
      <path id="path152" d="M82.385-201.157l-.263-5.068,7.584-3.126-2.957-7.024a6.119,6.119,0,0,0-8.519-2.916c-1.014.55-2.079,1.128-3.043,1.653a8.7,8.7,0,0,0-4.317,5.612,111.628,111.628,0,0,0-1.762,12.379" transform="translate(-17.131 452.234)" fill="#f8a58d"/>
      <path id="path154" d="M48.684-23.353s-31.2,8.635-32.455,9.076c-1.88.662-1.564,7.549,1.361,7.441,1.384-.05,23.967.841,26.821.664S55.873-9.745,55.873-9.745L48.684-23.353" transform="translate(-3.731 403.475)" fill="#f0e23d"/>
      <path id="path156" d="M41.3-9.578a29.312,29.312,0,0,0-1.375-3.35A29.437,29.437,0,0,0,37.722-15.8a5.585,5.585,0,0,1,2.659,2.612A5.571,5.571,0,0,1,41.3-9.578" transform="translate(-9.35 401.606)" fill="#17282f"/>
      <path id="path158" d="M45.82-11.451c-.153.027-.469-1.448-1.3-3.077-.815-1.64-1.812-2.772-1.7-2.878a5.892,5.892,0,0,1,2.165,2.642,5.9,5.9,0,0,1,.834,3.313" transform="translate(-10.614 402.003)" fill="#17282f"/>
      <path id="path160" d="M50.066-12.624a21.18,21.18,0,0,0-.73-3.3,21.337,21.337,0,0,0-1.7-2.919,4.752,4.752,0,0,1,2.186,2.729,4.746,4.746,0,0,1,.243,3.487" transform="translate(-11.808 402.359)" fill="#17282f"/>
      <path id="path162" d="M50.022-18.32a5.539,5.539,0,0,1-.335-2.321A10.958,10.958,0,0,1,50-23.186a10.733,10.733,0,0,1,.464-1.449,1.742,1.742,0,0,1,.5-.764.832.832,0,0,1,1.072.052,1.375,1.375,0,0,1,.415.883,6.123,6.123,0,0,1,.041.825,6.9,6.9,0,0,1-.193,1.526,9.274,9.274,0,0,1-.96,2.386,6.263,6.263,0,0,1-1.4,1.878c-.071-.049.451-.776,1.074-2.049a10.258,10.258,0,0,0,.818-2.321,6.864,6.864,0,0,0,.15-1.425c-.014-.479-.008-1.08-.288-1.31a.3.3,0,0,0-.413-.034,1.3,1.3,0,0,0-.342.546,11.41,11.41,0,0,0-.473,1.377,12.463,12.463,0,0,0-.412,2.436c-.092,1.413.051,2.3-.034,2.308" transform="translate(-12.318 404.025)" fill="#17282f"/>
      <path id="path164" d="M50.184-16.459a4.352,4.352,0,0,1,2.013-.325,9.062,9.062,0,0,1,2.214.271,4.848,4.848,0,0,1,1.275.471,1.315,1.315,0,0,1,.705,1.426A1.558,1.558,0,0,1,55.267-13.5a2.845,2.845,0,0,1-1.4,0,5.364,5.364,0,0,1-2.027-1,5.481,5.481,0,0,1-1.451-1.429,13.719,13.719,0,0,1,1.662,1.125,5.509,5.509,0,0,0,1.914.828,2.454,2.454,0,0,0,1.158-.015,1.059,1.059,0,0,0,.76-.741.808.808,0,0,0-.464-.872,4.746,4.746,0,0,0-1.132-.44,10.469,10.469,0,0,0-2.1-.367c-1.221-.085-1.987.039-2-.044" transform="translate(-12.441 401.847)" fill="#17282f"/>
      <path id="path166" d="M35.4-8.816a16.742,16.742,0,0,0-.615-2.815,16.751,16.751,0,0,0-1.528-2.442,3.612,3.612,0,0,1,2.011,2.245A3.611,3.611,0,0,1,35.4-8.816" transform="translate(-8.244 401.178)" fill="#17282f"/>
      <path id="path168" d="M54.025-5.167a6.362,6.362,0,0,1-1.207.568,26.65,26.65,0,0,1-3.473,1.076A49.479,49.479,0,0,1,37.433-2.394c-4.676-.051-8.89-.264-11.945-.387l-3.616-.19a6.434,6.434,0,0,1-1.323-.143,6.611,6.611,0,0,1,1.33-.061l3.62.025c3.161.063,7.329.145,11.937.235a55.916,55.916,0,0,0,11.829-.966c2.983-.614,4.725-1.381,4.761-1.285" transform="translate(-5.094 398.969)" fill="#17282f"/>
      <path id="path170" d="M61.294-5.093c-.042.072-.9-.426-2.337-1.059a10.86,10.86,0,0,0-5.9-.982,9.357,9.357,0,0,0-5.1,3.036,18.518,18.518,0,0,1-1.8,1.837,9.669,9.669,0,0,1,1.527-2.088,12.4,12.4,0,0,1,2.069-1.934A7.4,7.4,0,0,1,52.97-7.649a10.321,10.321,0,0,1,6.142,1.162,8.291,8.291,0,0,1,2.182,1.394" transform="translate(-11.44 399.606)" fill="#17282f"/>
      <path id="path172" d="M100.187-34.809s29.527,19.333,30.587,20.133c1.589,1.2-.235,6.922-2.988,5.932-1.3-.468-26.08-7.361-28.745-8.4S89.2-24.025,89.2-24.025l10.983-10.784" transform="translate(-22.114 406.315)" fill="#f0e23d"/>
      <path id="path174" d="M115.461-16.081a5.566,5.566,0,0,1,1.975-3.16,5.573,5.573,0,0,1,3.326-1.681,29.513,29.513,0,0,0-2.974,2.066,29.325,29.325,0,0,0-2.327,2.775" transform="translate(-28.619 402.879)" fill="#17282f"/>
      <path id="path176" d="M111.935-19.235a5.9,5.9,0,0,1,1.8-2.9A5.9,5.9,0,0,1,116.6-24c.074.136-1.219.913-2.493,2.226s-2.036,2.61-2.174,2.538" transform="translate(-27.745 403.64)" fill="#17282f"/>
      <path id="path178" d="M108.392-21.643a4.744,4.744,0,0,1,1.291-3.247,4.741,4.741,0,0,1,2.911-1.935,21.229,21.229,0,0,0-2.505,2.263,21.334,21.334,0,0,0-1.7,2.919" transform="translate(-26.861 404.341)" fill="#17282f"/>
      <path id="path180" d="M110.39-27.244c-.078-.038.327-.836.668-2.21a12.521,12.521,0,0,0,.347-2.447,11.6,11.6,0,0,0-.033-1.455,1.321,1.321,0,0,0-.16-.624.3.3,0,0,0-.4-.092c-.337.134-.513.708-.671,1.161a6.831,6.831,0,0,0-.29,1.4,10.271,10.271,0,0,0,.075,2.459c.207,1.4.485,2.253.4,2.279a6.289,6.289,0,0,1-.765-2.215,9.306,9.306,0,0,1-.191-2.565,6.928,6.928,0,0,1,.281-1.514,6.026,6.026,0,0,1,.289-.772,1.377,1.377,0,0,1,.664-.715.833.833,0,0,1,1.037.275,1.747,1.747,0,0,1,.244.881,10.837,10.837,0,0,1,0,1.521,10.969,10.969,0,0,1-.472,2.521,5.53,5.53,0,0,1-1.024,2.11" transform="translate(-27.108 406.271)" fill="#17282f"/>
      <path id="path182" d="M108.678-25.673c-.038.075-.729-.276-1.919-.566a10.4,10.4,0,0,0-2.115-.289,4.732,4.732,0,0,0-1.212.076.807.807,0,0,0-.706.69,1.058,1.058,0,0,0,.5.937,2.461,2.461,0,0,0,1.1.367,5.533,5.533,0,0,0,2.075-.209,14.017,14.017,0,0,1,1.926-.568,5.462,5.462,0,0,1-1.816.92,5.378,5.378,0,0,1-2.234.334,2.856,2.856,0,0,1-1.335-.421,1.556,1.556,0,0,1-.732-1.4,1.316,1.316,0,0,1,1.1-1.145,4.913,4.913,0,0,1,1.358-.061,9.042,9.042,0,0,1,2.192.415,4.363,4.363,0,0,1,1.819.921" transform="translate(-25.336 404.386)" fill="#17282f"/>
      <path id="path184" d="M135.225-3.991c-.034.046-.5-.3-.723-1.145a4.361,4.361,0,0,1,.554-3.2,11.731,11.731,0,0,1,.989-1.475,5.455,5.455,0,0,1,1-1.075,1.734,1.734,0,0,1,.943-.394c.248-.011.373.049.37.08a2.786,2.786,0,0,0-1.074.6,6.655,6.655,0,0,0-.852,1.077c-.3.439-.632.918-.921,1.442a4.565,4.565,0,0,0-.649,2.879c.107.764.43,1.167.361,1.219" transform="translate(-33.316 400.483)" fill="#17282f"/>
      <path id="path186" d="M121.387-13.564a3.61,3.61,0,0,1,1.04-2.83,3.611,3.611,0,0,1,2.6-1.528,16.861,16.861,0,0,0-2.2,1.863,16.736,16.736,0,0,0-1.44,2.5" transform="translate(-30.079 402.136)" fill="#17282f"/>
      <path id="path188" d="M93.241-19.084a10.294,10.294,0,0,1,1.3.89,36.855,36.855,0,0,0,3.64,2.23,47.748,47.748,0,0,0,5.782,2.574c2.236.834,4.744,1.621,7.4,2.389,5.312,1.529,10.121,2.927,13.59,3.971l4.1,1.261a9.108,9.108,0,0,1,1.485.531A9.056,9.056,0,0,1,129-5.574c-1.069-.285-2.466-.655-4.149-1.1-3.5-.953-8.318-2.294-13.636-3.825-2.657-.77-5.176-1.575-7.42-2.44A43.684,43.684,0,0,1,98-15.64a29.133,29.133,0,0,1-3.583-2.391,8.171,8.171,0,0,1-1.177-1.053" transform="translate(-23.115 402.418)" fill="#17282f"/>
      <path id="path190" d="M91.786-18.831a8.3,8.3,0,0,1,2.5-.665,10.312,10.312,0,0,1,6.205.758,7.416,7.416,0,0,1,2.656,2.281,12.382,12.382,0,0,1,1.384,2.472,9.646,9.646,0,0,1,.821,2.452,18.37,18.37,0,0,1-1.155-2.3,9.355,9.355,0,0,0-3.941-4.444,10.853,10.853,0,0,0-5.923-.857c-1.566.164-2.531.38-2.549.3" transform="translate(-22.754 402.56)" fill="#17282f"/>
      <path id="path192" d="M184.6-244.458l1.927,39a11.615,11.615,0,0,1-11.6,12.19,11.622,11.622,0,0,1-11.6-11.061c-.141-2.935-.266-5.384-.3-5.685,0,0-9.974-.443-11.177-10.234-.581-4.73-.984-14.574-1.245-23.483a18.373,18.373,0,0,1,16.358-18.792l.946-.1c10.266-.529,16.451,7.894,16.7,18.172" transform="translate(-37.333 462.8)" fill="#f8a58d"/>
      <path id="path194" d="M167.077-194.512a22.936,22.936,0,0,0,12.381-5.043s-2.243,7.391-12.124,7.586l-.258-2.543" transform="translate(-41.42 447.157)" fill="#f68260"/>
      <path id="path196" d="M154.744-229.828a1.41,1.41,0,0,0,1.506,1.263,1.347,1.347,0,0,0,1.3-1.422,1.407,1.407,0,0,0-1.5-1.265,1.349,1.349,0,0,0-1.306,1.423" transform="translate(-38.361 455.015)" fill="#17282f"/>
      <path id="path198" d="M154.1-232c.193.162,1.167-.74,2.674-.9,1.5-.184,2.694.469,2.837.267.071-.09-.141-.4-.661-.7a3.863,3.863,0,0,0-2.3-.44,3.708,3.708,0,0,0-2.1.946c-.424.406-.545.754-.449.826" transform="translate(-38.195 455.646)" fill="#17282f"/>
      <path id="path200" d="M174.414-231.523a1.408,1.408,0,0,0,1.506,1.264,1.345,1.345,0,0,0,1.3-1.421,1.41,1.41,0,0,0-1.5-1.266,1.349,1.349,0,0,0-1.306,1.423" transform="translate(-43.238 455.435)" fill="#17282f"/>
      <path id="path202" d="M173.831-233.8c.194.163,1.169-.738,2.675-.9,1.5-.185,2.694.468,2.837.266.071-.089-.14-.4-.662-.7a3.85,3.85,0,0,0-2.3-.439,3.708,3.708,0,0,0-2.1.945c-.423.406-.545.754-.45.825" transform="translate(-43.087 456.091)" fill="#17282f"/>
      <path id="path204" d="M166.9-221.71a10.065,10.065,0,0,0-2.495-.171c-.39,0-.762-.033-.855-.289a1.961,1.961,0,0,1,.13-1.169q.388-1.455.814-3.055c1.12-4.346,1.885-7.9,1.71-7.944s-1.225,3.443-2.345,7.788c-.268,1.071-.522,2.091-.765,3.068a2.243,2.243,0,0,0-.033,1.532.972.972,0,0,0,.695.492,2.6,2.6,0,0,0,.663.019,9.84,9.84,0,0,0,2.481-.271" transform="translate(-40.392 455.78)" fill="#17282f"/>
      <path id="path206" d="M172.819-216.812c-.246.013-.068,1.649-1.341,2.963s-3.032,1.328-3.02,1.558c-.011.1.424.274,1.162.214a4.106,4.106,0,0,0,2.531-1.207,3.571,3.571,0,0,0,1.02-2.474c-.014-.691-.241-1.075-.352-1.054" transform="translate(-41.762 451.435)" fill="#17282f"/>
      <path id="path208" d="M172.453-241.49c.194.393,1.677.034,3.468.051,1.791-.017,3.274.343,3.468-.051.085-.187-.206-.545-.825-.878a5.77,5.77,0,0,0-2.642-.609,5.767,5.767,0,0,0-2.642.609c-.62.334-.912.692-.825.878" transform="translate(-42.749 457.922)" fill="#17282f"/>
      <path id="path210" d="M154.187-237.9c.3.313,1.3-.157,2.548-.311,1.24-.2,2.33-.024,2.534-.409.087-.186-.116-.51-.615-.782a3.534,3.534,0,0,0-2.135-.333,3.549,3.549,0,0,0-1.959.913c-.4.4-.508.768-.373.923" transform="translate(-38.21 457.128)" fill="#17282f"/>
      <path id="path212" d="M195.809-228.885c.159-.091,6.517-2.736,7.042,3.991s-6.336,5.866-6.363,5.675-.679-9.666-.679-9.666" transform="translate(-48.542 454.574)" fill="#f8a58d"/>
      <path id="path214" d="M199.178-221.23c.028-.024.123.073.329.148a1.174,1.174,0,0,0,.876-.05,2.906,2.906,0,0,0,1.139-2.707,3.894,3.894,0,0,0-.459-1.653,1.357,1.357,0,0,0-.952-.83.6.6,0,0,0-.667.375c-.075.2-.022.326-.056.341-.018.018-.153-.1-.121-.384a.754.754,0,0,1,.233-.441.887.887,0,0,1,.634-.223,1.652,1.652,0,0,1,1.306.949,3.975,3.975,0,0,1,.553,1.842,3.05,3.05,0,0,1-1.482,3.038,1.258,1.258,0,0,1-1.086-.094c-.221-.149-.269-.3-.246-.312" transform="translate(-49.376 453.875)" fill="#f68260"/>
      <path id="path216" d="M189.77-238.2a3.544,3.544,0,0,0-3.044,2.01c-.33,1.006-.306,2.1-.636,3.107s-1.215,1.979-2.265,1.85a2.07,2.07,0,0,1-1.565-1.376,5.7,5.7,0,0,1-.259-2.159c.05-3.174.366-6.351.143-9.516a16.2,16.2,0,0,0-2.983-8.9c-1.952-2.5-5.21-4.144-8.327-3.543-2.066.4-3.856,1.695-5.893,2.213a8.238,8.238,0,0,1-7.054-1.521c-.25-.2-1.373-.774-1.373-.774a3.881,3.881,0,0,1,.477-2.15c3.687-4.25,10.968-6.125,16.542-5.36a19.686,19.686,0,0,1,13.975,8.861c2.893,4.825,2.98,11.97,2.262,17.255" transform="translate(-38.8 463.254)" fill="#17282f"/>
      <path id="path218" d="M55.053-41.2s72.41-47.5,75.375-48.484,10.13-5.683,17.3-3.706,13.589,8.4,16.8,17.79,3.459,30.391,3.459,30.391-5.683,16.554-16.8,20.013a28.356,28.356,0,0,1-2.894.727c-13.573,2.693-27.374-3.548-34.971-15.112l-1.616-2.46s-47.368,17.4-48.109,17.155L55.053-41.2" transform="translate(-13.648 420.956)" fill="#17282f"/>
      <path id="path220" d="M19.288-98.062s-8.858,3.164-8.9,13.1c-.071,19.025,38.442,40,38.442,40l51.249-33.958v-3.567s-65.971-23.72-80.8-15.567" transform="translate(-2.577 422.419)" fill="#17282f"/>
      <path id="path222" d="M144.524-53.227s-.131.068-.4.175l-1.186.471-4.59,1.768-17.06,6.427c-7.247,2.7-15.928,5.918-25.667,9.462S75.089-27.5,63.562-23.594l-.209.07-.1-.2-5.657-10.8L54.71-40.031l-.111-.213.2-.127,55.235-35.063L126.625-85.9l4.507-2.811,1.176-.72c.267-.159.41-.23.41-.23s-.125.1-.383.274c-.277.182-.658.436-1.149.762-1.037.672-2.534,1.644-4.456,2.892l-16.5,10.6-55.143,35.2.089-.34,2.885,5.509,5.654,10.806-.311-.126c11.521-3.892,22.32-7.759,32.069-11.271,9.734-3.544,18.429-6.708,25.7-9.355l17.115-6.278,4.623-1.682,1.2-.426c.271-.093.414-.129.414-.129" transform="translate(-13.535 419.914)" fill="#33535f"/>
      <path id="path224" d="M84.89-58.046a9.5,9.5,0,0,1-1.335-.9c-.84-.61-2.038-1.512-3.505-2.648-2.934-2.268-6.926-5.483-11.221-9.168s-8.076-7.149-10.762-9.707c-1.344-1.279-2.418-2.328-3.147-3.066a9.431,9.431,0,0,1-1.1-1.182,9.487,9.487,0,0,1,1.237,1.036l3.257,2.94c2.748,2.487,6.563,5.9,10.851,9.583s8.238,6.935,11.111,9.276l3.4,2.776a9.525,9.525,0,0,1,1.21,1.065" transform="translate(-13.343 418.689)" fill="#33535f"/>
      <path id="path226" d="M41.458-88.086a10.116,10.116,0,0,1,4.939.449,10.147,10.147,0,0,1,4.391,2.3c-.085.135-1.954-1.054-4.539-1.8-2.577-.774-4.793-.79-4.791-.95" transform="translate(-10.278 419.555)" fill="#33535f"/>
      <path id="path228" d="M47.326-92.035a6.17,6.17,0,0,1,3.038,2.284A6.162,6.162,0,0,1,51.959-86.3c-.149.051-.709-1.544-2-3.124-1.271-1.594-2.714-2.478-2.632-2.613" transform="translate(-11.732 420.505)" fill="#33535f"/>
      <path id="path230" d="M18.473-11.951c-.027-.059.611-.183,1.321.4a4.788,4.788,0,0,1,1.481,2.974,5.846,5.846,0,0,1-.467,3.28c-.363.778-.762,1.144-.806,1.107-.07-.048.21-.48.463-1.244A6.654,6.654,0,0,0,20.758-8.5a5.141,5.141,0,0,0-1.212-2.775c-.543-.57-1.084-.591-1.073-.675" transform="translate(-4.579 400.662)" fill="#17282f"/>
      <path id="path232" d="M491.082-84.622v9.612h69.954v-9.612H491.082" transform="translate(-121.743 418.664)" fill="#17282f"/>
      <path id="path234" d="M491.161-75.171h69.715v-9.373H491.161Zm69.955.24H490.922v-9.852h70.194v9.852" transform="translate(-121.703 418.704)" fill="#17282f"/>
      <path id="path236" d="M499.7-76.1l10.07,49.676h37.258L556.766-72.9,499.7-76.1" transform="translate(-123.88 416.551)" fill="#17282f"/>
      <path id="path238" d="M499.7-16.295l5.371,7.385h45.286l6.4-7.385H499.7" transform="translate(-123.88 401.726)" fill="#33535f"/>
      <path id="path240" d="M533.952-108.053c-.137,0-.314-23.014-.393-51.4s-.033-51.4.1-51.4.315,23.008.4,51.4.032,51.4-.105,51.4" transform="translate(-132.263 449.957)" fill="#17282f"/>
      <path id="path242" d="M552.69-150.742a2.309,2.309,0,0,1-.186.534c-.165.391-.371.884-.625,1.489q-.209.493-.456,1.073c-.145.405-.3.842-.466,1.306s-.349.972-.539,1.5-.334,1.11-.518,1.709a69.5,69.5,0,0,0-1.955,8.565,103.965,103.965,0,0,0-1.084,10.71,144.449,144.449,0,0,0,.554,19.565c.225,2.5.451,4.517.618,5.911.071.653.13,1.184.176,1.606a2.418,2.418,0,0,1,.028.566,2.282,2.282,0,0,1-.127-.55c-.071-.42-.16-.948-.269-1.6-.227-1.387-.506-3.4-.777-5.9a128.735,128.735,0,0,1-.7-19.624,97.482,97.482,0,0,1,1.128-10.763,64.861,64.861,0,0,1,2.072-8.593c.2-.6.356-1.177.556-1.708l.578-1.494.507-1.3c.172-.392.349-.741.5-1.06.289-.593.525-1.074.711-1.455a2.47,2.47,0,0,1,.278-.491" transform="translate(-135.419 435.056)" fill="#17282f"/>
      <path id="path244" d="M549.442-175.492a4.61,4.61,0,0,1-.221.759q-.272.8-.729,2.14c-.161.468-.341.982-.534,1.541q-.262.862-.564,1.859c-.408,1.332-.884,2.844-1.3,4.548q-.336,1.273-.7,2.66-.316,1.4-.655,2.909c-.489,2-.841,4.18-1.293,6.453-.771,4.571-1.45,9.624-1.918,14.953-.442,5.334-.635,10.431-.7,15.068-.014,4.637.045,8.816.235,12.319.062,1.754.174,3.336.265,4.726s.169,2.59.257,3.567q.108,1.415.171,2.254a4.736,4.736,0,0,1,.027.79,4.715,4.715,0,0,1-.126-.779q-.1-.84-.265-2.247c-.118-.976-.234-2.171-.341-3.563s-.255-2.975-.339-4.73c-.236-3.507-.331-7.692-.342-12.339.043-4.648.222-9.759.665-15.108.468-5.345,1.164-10.412,1.962-14.992.465-2.278.833-4.457,1.342-6.463q.355-1.507.685-2.912.384-1.387.736-2.66c.443-1.7.944-3.212,1.379-4.539.215-.662.417-1.279.6-1.85q.314-.835.578-1.532.513-1.322.817-2.11a4.8,4.8,0,0,1,.316-.723" transform="translate(-133.959 441.192)" fill="#17282f"/>
      <path id="path246" d="M523.817-102.955a1.2,1.2,0,0,1-.039-.27c-.017-.206-.039-.466-.065-.791-.05-.733-.118-1.753-.206-3.048-.168-2.684-.408-6.505-.7-11.21-.608-9.463-1.486-22.538-3.079-36.915-.813-7.189-1.757-14.015-2.738-20.205-.521-3.09-.995-6.03-1.531-8.765-.492-2.743-1.023-5.284-1.511-7.6-.459-2.325-.972-4.406-1.384-6.244s-.8-3.411-1.124-4.7c-.309-1.26-.553-2.252-.727-2.965-.072-.318-.131-.573-.177-.775a1.137,1.137,0,0,1-.044-.269,1.069,1.069,0,0,1,.094.256c.058.2.132.449.225.762.2.708.469,1.693.817,2.943.357,1.278.776,2.846,1.207,4.68s.977,3.913,1.458,6.235c.51,2.317,1.062,4.857,1.572,7.6.555,2.736,1.044,5.677,1.578,8.768,1.007,6.193,1.965,13.028,2.78,20.223,1.594,14.393,2.417,27.479,2.935,36.95.257,4.736.436,8.571.542,11.221.048,1.3.085,2.317.112,3.053.007.326.013.586.017.8a1.049,1.049,0,0,1-.012.271" transform="translate(-126.554 448.932)" fill="#17282f"/>
      <path id="path248" d="M526.083-198.037c-.3-3.26-3.6-5.72-6.872-5.753s-6.327,1.93-8.329,4.521a26.056,26.056,0,0,0-4.011,8.9c-2.2,7.681-3.41,15.751-2.467,23.687s4.162,15.749,9.856,21.354c.926.913,2.125,1.824,3.4,1.552a4.1,4.1,0,0,0,1.791-1.106,53.006,53.006,0,0,0,17.2-40.308c-.088-3.018-.484-6.159-2.156-8.673s-5.566-5.184-8.411-4.175" transform="translate(-124.965 448.207)" fill="#f0e23d"/>
      <path id="path250" d="M494.949-234.8l-4.611,8.351c-.108.195-.25.413-.472.432-.242.019-.423-.21-.557-.413l-12.192-18.712,2.81-1.591L494.949-234.8" transform="translate(-118.281 458.852)" fill="#f03d5f"/>
      <path id="path252" d="M489.837-226.011c-.228,0-.4-.219-.527-.414l-12.192-18.712,2.81-1.591L494.949-234.8l-4.611,8.351c-.108.195-.25.413-.472.432h-.029" transform="translate(-118.281 458.852)" fill="#f0e23d"/>
      <path id="path254" d="M519.655-222.727l-41.59-24.542a1.943,1.943,0,0,1-1.013-1.021c-.167-.617.3-1.209.74-1.667a28.661,28.661,0,0,1,22.226-8.732,25.39,25.39,0,0,1,20.094,12.5c4.014,7.172,4.146,16.657-.457,23.465" transform="translate(-118.256 461.833)" fill="#f0e23d"/>
      <path id="path256" d="M486.38-253.949a2.278,2.278,0,0,1,.545-.068c.359-.018.888-.083,1.572-.075a31.289,31.289,0,0,1,5.77.458,33.868,33.868,0,0,1,8.219,2.5,34.063,34.063,0,0,1,8.823,5.724,34.032,34.032,0,0,1,6.575,8.21,33.786,33.786,0,0,1,3.3,7.929,31.251,31.251,0,0,1,1.032,5.7c.075.68.063,1.213.081,1.571a2.346,2.346,0,0,1-.013.549c-.044,0-.1-.751-.262-2.1a35.333,35.333,0,0,0-1.177-5.62,34.815,34.815,0,0,0-9.874-15.865,34.829,34.829,0,0,0-16.768-8.243,35.469,35.469,0,0,0-5.71-.612c-1.359-.03-2.114-.006-2.116-.05" transform="translate(-120.577 460.679)" fill="#17282f"/>
      <path id="path258" d="M521.29-233.378a10.029,10.029,0,0,1-2.1.955c-1.325.523-3.177,1.19-5.248,1.849s-3.97,1.181-5.354,1.519a10.023,10.023,0,0,1-2.268.432,11.327,11.327,0,0,1,2.174-.772c1.533-.479,3.321-1.037,5.3-1.656l5.28-1.7a11.274,11.274,0,0,1,2.221-.624" transform="translate(-125.52 455.544)" fill="#17282f"/>
      <path id="path260" d="M517.491-256.766a17.631,17.631,0,0,1,.492,4.64,17.631,17.631,0,0,1-.258,4.659,29.124,29.124,0,0,1-.241-4.647,29.055,29.055,0,0,1,.006-4.652" transform="translate(-128.27 461.34)" fill="#17282f"/>
      <path id="path262" d="M477.927-245.791a18.813,18.813,0,0,1,3.021-1.063c1.89-.583,4.522-1.321,7.455-2.028s5.614-1.248,7.561-1.59a18.621,18.621,0,0,1,3.174-.428,22.671,22.671,0,0,1-3.1.774c-1.926.43-4.586,1.025-7.513,1.73s-5.565,1.386-7.476,1.881a22.313,22.313,0,0,1-3.118.724" transform="translate(-118.481 459.89)" fill="#17282f"/>
      <path id="path264" d="M492.784-207.423c-3.577-2.713-7.36-3.247-11.845-3.07a36.209,36.209,0,0,0-12.964,3.345c-7.013,3.073-13.6,7.6-17.8,14.007s-5.649,14.89-2.512,21.875a3.126,3.126,0,0,0,1.421,1.724,3.392,3.392,0,0,0,2.348-.18c7.976-2.6,16.009-5.229,23.343-9.3s14.01-9.739,17.946-17.15a14.747,14.747,0,0,0,1.888-5.69,7.073,7.073,0,0,0-1.829-5.558" transform="translate(-110.561 449.876)" fill="#f0e23d"/>
      <path id="path266" d="M493.763-207.521a2.98,2.98,0,0,1-.575.233c-.431.149-.986.339-1.672.575-.369.124-.772.258-1.21.4s-.906.354-1.414.551c-1.009.408-2.181.816-3.414,1.415l-1.955.89c-.679.314-1.356.7-2.074,1.064-1.445.71-2.908,1.617-4.465,2.537a77.184,77.184,0,0,0-9.444,7,77.2,77.2,0,0,0-8.153,8.477c-1.11,1.429-2.2,2.764-3.086,4.106-.453.666-.922,1.289-1.319,1.921s-.771,1.243-1.132,1.826c-.751,1.147-1.306,2.257-1.838,3.206-.26.479-.514.918-.727,1.333l-.555,1.149-.783,1.584a2.84,2.84,0,0,1-.3.54,2.96,2.96,0,0,1,.213-.581c.181-.419.413-.959.7-1.627q.236-.535.516-1.171c.2-.423.444-.869.692-1.357.512-.965,1.048-2.093,1.783-3.257q.533-.889,1.111-1.854c.391-.642.853-1.274,1.3-1.947.879-1.362,1.959-2.716,3.069-4.161a74.464,74.464,0,0,1,8.18-8.562,74.4,74.4,0,0,1,9.533-7.021c1.574-.916,3.055-1.815,4.518-2.514.724-.36,1.41-.739,2.1-1.044l1.98-.866c1.249-.582,2.436-.968,3.458-1.354.515-.185.99-.368,1.434-.513l1.228-.364,1.7-.485a2.739,2.739,0,0,1,.6-.137" transform="translate(-111.469 449.133)" fill="#17282f"/>
      <path id="path268" d="M465.366-187.4a84.038,84.038,0,0,1-8.7,2.8,83.8,83.8,0,0,1-8.842,2.325,83.683,83.683,0,0,1,8.7-2.8,84,84,0,0,1,8.84-2.325" transform="translate(-111.019 444.148)" fill="#17282f"/>
      <path id="path270" d="M470.6-167.968a13.838,13.838,0,0,1-.191-2.712c-.046-1.676-.054-3.992.017-6.55s.209-4.872.348-6.543a13.8,13.8,0,0,1,.343-2.7,15.536,15.536,0,0,1,.009,2.716c-.056,1.837-.126,4.069-.2,6.536s-.118,4.7-.164,6.537a15.551,15.551,0,0,1-.16,2.712" transform="translate(-116.609 443.913)" fill="#17282f"/>
      <path id="path272" d="M492.049-179.955c-.136.009-.575-4.7-.976-10.515s-.619-10.54-.48-10.549.574,4.7.977,10.515.617,10.539.479,10.549" transform="translate(-121.611 447.52)" fill="#17282f"/>
      <path id="path274" d="M465.32-201.656a15.42,15.42,0,0,1,2.79-.084c1.719.012,4.093.062,6.714.148s4.993.195,6.71.3a15.514,15.514,0,0,1,2.778.268,15.444,15.444,0,0,1-2.785.084c-1.72-.012-4.1-.062-6.72-.149s-5-.193-6.713-.295a15.419,15.419,0,0,1-2.774-.268" transform="translate(-115.356 447.699)" fill="#17282f"/>
      <path id="path276" d="M519.925-141.152a2.5,2.5,0,0,1-.059-.57c-.02-.427-.044-.967-.074-1.632-.062-1.42-.077-3.477-.023-6.016s.214-5.563.514-8.911c.324-3.345.792-7.012,1.464-10.833.689-3.819,1.515-7.423,2.367-10.674.874-3.245,1.761-6.141,2.6-8.541s1.55-4.327,2.1-5.637l.633-1.508a2.46,2.46,0,0,1,.252-.513,2.509,2.509,0,0,1-.16.551c-.141.4-.323.913-.544,1.54-.492,1.329-1.164,3.269-1.945,5.679s-1.639,5.3-2.486,8.546c-.824,3.246-1.634,6.84-2.32,10.645-.669,3.808-1.15,7.459-1.5,10.79-.323,3.333-.528,6.345-.619,8.877s-.138,4.585-.134,6c-.008.665-.015,1.206-.021,1.635a2.462,2.462,0,0,1-.04.571" transform="translate(-128.846 446.272)" fill="#17282f"/>
      <path id="path278" d="M518.75-160.81a11.435,11.435,0,0,1-1.66,1.821c-1.076,1.073-2.6,2.513-4.346,4.042s-3.373,2.854-4.578,3.781a11.379,11.379,0,0,1-2.023,1.407,12.89,12.89,0,0,1,1.8-1.679l4.471-3.883c1.664-1.472,3.168-2.8,4.434-3.925a12.8,12.8,0,0,1,1.9-1.564" transform="translate(-125.476 437.553)" fill="#17282f"/>
      <path id="path280" d="M536.534-152.277a19.643,19.643,0,0,1-1.768-2.447l-4.109-6c-1.594-2.256-3.035-4.3-4.2-5.94a19.546,19.546,0,0,1-1.681-2.507,16.753,16.753,0,0,1,1.963,2.3c1.153,1.464,2.7,3.529,4.324,5.864s3.022,4.5,4,6.091a16.92,16.92,0,0,1,1.471,2.639" transform="translate(-130.096 439.625)" fill="#17282f"/>
      <path id="path282" d="M524.712-191.054c.074.116-4.3,3.061-9.767,6.575s-9.962,6.272-10.036,6.156,4.3-3.06,9.767-6.575,9.962-6.271,10.036-6.156" transform="translate(-125.17 445.05)" fill="#17282f"/>
      <path id="path284" d="M543.388-177.5a81.4,81.4,0,0,1-6.614-6.112,80.991,80.991,0,0,1-6.266-6.469,81.678,81.678,0,0,1,6.615,6.113,81.846,81.846,0,0,1,6.265,6.468" transform="translate(-131.516 444.81)" fill="#17282f"/>
      <path id="path286" d="M551.757-182.768l3.754-.311a18.563,18.563,0,0,0,7.58-2.32,30.461,30.461,0,0,1,3.534-1.775c4.642-1.863,9.82-1.53,14.814-1.781a61.369,61.369,0,0,0,23.568-6.025,2.293,2.293,0,0,0,1.027-.933c.771-1.4-.661-2.656-1.893-3.415-6.325-3.9-12.762-7.845-19.934-9.778s-15.315-1.608-21.434,2.6c-7.184,4.944-9.8,15.1-11.016,23.734" transform="translate(-136.785 449.807)" fill="#f0e23d"/>
      <path id="path288" d="M606.145-195.2a3.735,3.735,0,0,1-.636-.3l-1.78-.932c-1.543-.811-3.764-2.01-6.572-3.355a61.3,61.3,0,0,0-10.172-3.921,33.59,33.59,0,0,0-13.185-1.068,22.533,22.533,0,0,0-12.02,5.161,26.735,26.735,0,0,0-6.258,8.79c-1.319,2.815-2.132,5.207-2.724,6.845-.277.785-.5,1.414-.668,1.894a3.507,3.507,0,0,1-.264.65,3.893,3.893,0,0,1,.167-.681c.148-.487.339-1.126.581-1.924a62.13,62.13,0,0,1,2.587-6.931,26.619,26.619,0,0,1,6.273-8.987,22.8,22.8,0,0,1,12.26-5.312,33.567,33.567,0,0,1,13.372,1.12,59.074,59.074,0,0,1,10.205,4.046c2.8,1.392,4.995,2.638,6.511,3.5l1.734,1.015a3.562,3.562,0,0,1,.588.384" transform="translate(-136.811 448.634)" fill="#17282f"/>
      <path id="path290" d="M604.913-190.176c-.077.113-4.987-3.063-10.964-7.093s-10.765-7.393-10.689-7.508,4.987,3.062,10.966,7.095,10.764,7.392,10.687,7.506" transform="translate(-144.594 448.452)" fill="#17282f"/>
      <path id="path292" d="M603.228-205.414a11.649,11.649,0,0,1-3.832.768,11.674,11.674,0,0,1-3.909-.056,22.828,22.828,0,0,1,3.863-.44,22.815,22.815,0,0,1,3.878-.272" transform="translate(-147.626 448.621)" fill="#17282f"/>
      <path id="path294" d="M575.3-210.646a13.181,13.181,0,0,1-1.612,3.221,13.177,13.177,0,0,1-2.04,2.968,13.152,13.152,0,0,1,1.612-3.221,13.2,13.2,0,0,1,2.04-2.968" transform="translate(-141.713 449.907)" fill="#17282f"/>
      <path id="path296" d="M577.436-185a13.025,13.025,0,0,1-2.363-1.282c-1.418-.86-3.335-2.122-5.383-3.608s-3.855-2.894-5.151-3.923a14.684,14.684,0,0,1-2.039-1.748,14.107,14.107,0,0,1,2.25,1.465l5.233,3.8c2.041,1.482,3.916,2.783,5.282,3.717A16.041,16.041,0,0,1,577.436-185" transform="translate(-139.447 446.167)" fill="#17282f"/>
      <path id="path298" d="M556.208-153.064c-3.581-.947-7.849,2.537-8.587,6.166s.624,7.34,2.217,10.683a54.518,54.518,0,0,0,14.806,19.375c6.413,5.108,14.443,8.375,22.641,8.334-1.513-7.031.4-14.377-.443-21.519a28.237,28.237,0,0,0-8.1-16.607,28.235,28.235,0,0,0-16.687-7.938c-2.285-.248-4.931-.606-5.842,1.505" transform="translate(-135.708 436.052)" fill="#f0e23d"/>
      <path id="path300" d="M590.183-107.946a2.363,2.363,0,0,1-.509-.237,9.209,9.209,0,0,1-1.339-.9,13.965,13.965,0,0,1-3.537-4.728c-.571-1.108-1.208-2.311-1.832-3.644-.6-1.337-1.249-2.762-1.926-4.258a40.926,40.926,0,0,0-2.367-4.552,35.67,35.67,0,0,0-3.258-4.43c-2.452-2.88-5.082-5.371-7.362-7.751a50.558,50.558,0,0,1-5.613-6.735,24.7,24.7,0,0,1-2.743-5.238c-.231-.662-.4-1.177-.479-1.537a2.454,2.454,0,0,1-.112-.549c.046-.013.25.731.772,2.015a27.168,27.168,0,0,0,2.852,5.11,53.553,53.553,0,0,0,5.653,6.614c2.289,2.354,4.936,4.838,7.413,7.748a35.426,35.426,0,0,1,3.294,4.5,40.5,40.5,0,0,1,2.369,4.616c.662,1.5,1.292,2.933,1.883,4.275s1.222,2.542,1.771,3.656a14.475,14.475,0,0,0,3.347,4.742c1.046.9,1.754,1.235,1.724,1.284" transform="translate(-138.605 435.493)" fill="#17282f"/>
      <path id="path302" d="M575.8-106.275a10.666,10.666,0,0,1,.329-2.409c.28-1.475.739-3.5,1.36-5.7s1.287-4.172,1.817-5.576a10.689,10.689,0,0,1,.978-2.227,13.085,13.085,0,0,1-.644,2.341c-.444,1.429-1.052,3.4-1.671,5.6s-1.129,4.2-1.5,5.646a13.05,13.05,0,0,1-.672,2.333" transform="translate(-142.741 427.979)" fill="#17282f"/>
      <path id="path304" d="M593.859-125.26a14.724,14.724,0,0,1-2.523-.58c-1.543-.4-3.673-.953-6.043-1.488s-4.534-.95-6.1-1.246a14.9,14.9,0,0,1-2.527-.556,12.061,12.061,0,0,1,2.582.21c1.586.208,3.77.57,6.153,1.106s4.511,1.146,6.033,1.638a12.274,12.274,0,0,1,2.425.917" transform="translate(-142.96 429.704)" fill="#17282f"/>
      <path id="path306" d="M558.137-123.421a14.488,14.488,0,0,1,.386-2.789c.316-1.709.817-4.06,1.486-6.627s1.383-4.862,1.943-6.508a14.58,14.58,0,0,1,1.026-2.622,17.092,17.092,0,0,1-.689,2.728c-.474,1.669-1.129,3.971-1.8,6.528s-1.221,4.888-1.624,6.575a17.1,17.1,0,0,1-.731,2.716" transform="translate(-138.362 432.881)" fill="#17282f"/>
      <path id="path308" d="M582.039-144.678c-.014.137-4.483-.225-9.983-.808s-9.946-1.166-9.931-1.3,4.484.225,9.984.807,9.945,1.166,9.93,1.3" transform="translate(-139.355 434.083)" fill="#17282f"/>
      <path id="path310" d="M561.114-71.978c0,.136-15.713.249-35.093.249s-35.095-.112-35.095-.249,15.71-.25,35.095-.25,35.093.111,35.093.25" transform="translate(-121.704 415.592)" fill="#33535f"/>
      <path id="path312" d="M554.126-45.092c0,.137-10.586.249-23.644.249s-23.646-.112-23.646-.249,10.584-.249,23.646-.249,23.644.111,23.644.249" transform="translate(-125.648 408.926)" fill="#33535f"/>
      <path id="path314" d="M554.675-41.25c0,.139-10.587.25-23.645.25s-23.646-.111-23.646-.25S517.97-41.5,531.03-41.5s23.645.112,23.645.248" transform="translate(-125.784 407.974)" fill="#33535f"/>
      <path id="path316" d="M554.139-48.261c0,.136-10.951.249-24.456.249s-24.459-.112-24.459-.249,10.948-.249,24.459-.249,24.456.111,24.456.249" transform="translate(-125.249 409.712)" fill="#33535f"/>
      <path id="Path_4174" data-name="Path 4174" d="M.825-7.7H1.848V0H.825ZM6.138-5.643a2.045,2.045,0,0,1,1.551.61,2.3,2.3,0,0,1,.583,1.656V0H7.315V-3.322a1.418,1.418,0,0,0-.363-1.039,1.341,1.341,0,0,0-1-.369A1.551,1.551,0,0,0,4.8-4.285a1.88,1.88,0,0,0-.44,1.37V0H3.4V-5.5h.957v.792A1.955,1.955,0,0,1,6.138-5.643Zm4.29,1.628a.579.579,0,0,0,.319.512,2.859,2.859,0,0,0,.77.308q.451.115.9.264a1.748,1.748,0,0,1,.77.506,1.328,1.328,0,0,1,.319.919,1.445,1.445,0,0,1-.577,1.2,2.333,2.333,0,0,1-1.479.451,2.573,2.573,0,0,1-1.375-.352,1.968,1.968,0,0,1-.814-.935l.825-.473a1.161,1.161,0,0,0,.495.627,1.585,1.585,0,0,0,.869.231,1.52,1.52,0,0,0,.781-.182.611.611,0,0,0,.308-.566.579.579,0,0,0-.319-.512,2.859,2.859,0,0,0-.77-.308q-.451-.115-.9-.27a1.814,1.814,0,0,1-.77-.506A1.292,1.292,0,0,1,9.46-4a1.464,1.464,0,0,1,.556-1.177,2.1,2.1,0,0,1,1.391-.462,2.338,2.338,0,0,1,1.194.3,1.937,1.937,0,0,1,.786.841l-.8.451a1.152,1.152,0,0,0-1.177-.7,1.212,1.212,0,0,0-.693.193A.619.619,0,0,0,10.428-4.015Zm6.985-.561H15.95v2.981a.837.837,0,0,0,.159.577.656.656,0,0,0,.49.176q.33.006.814-.017V0a2.83,2.83,0,0,1-1.837-.2,1.519,1.519,0,0,1-.583-1.391V-4.576H13.9V-5.5h1.089V-6.754l.957-.286V-5.5h1.463ZM22.825-5.5h.957V0h-.957V-.946A2.334,2.334,0,0,1,20.746.143,2.639,2.639,0,0,1,18.777-.7a2.84,2.84,0,0,1-.814-2.051A2.84,2.84,0,0,1,18.777-4.8a2.639,2.639,0,0,1,1.969-.841,2.334,2.334,0,0,1,2.079,1.089ZM20.867-.781a1.887,1.887,0,0,0,1.4-.567,1.915,1.915,0,0,0,.561-1.4,1.915,1.915,0,0,0-.561-1.4,1.887,1.887,0,0,0-1.4-.566,1.873,1.873,0,0,0-1.386.566,1.915,1.915,0,0,0-.561,1.4,1.915,1.915,0,0,0,.561,1.4A1.873,1.873,0,0,0,20.867-.781ZM25.234,0V-8.03h.957V0Zm2.42,0V-8.03h.957V0Zm2.9-6.5a.628.628,0,0,1-.462-.187.615.615,0,0,1-.187-.451A.633.633,0,0,1,30.1-7.6a.619.619,0,0,1,.462-.193.606.606,0,0,1,.451.193.633.633,0,0,1,.187.457.615.615,0,0,1-.187.451A.615.615,0,0,1,30.558-6.5ZM30.074,0V-5.5h.957V0Zm5.159-5.643a2.045,2.045,0,0,1,1.551.61,2.3,2.3,0,0,1,.583,1.656V0H36.41V-3.322a1.418,1.418,0,0,0-.363-1.039,1.341,1.341,0,0,0-1-.369,1.551,1.551,0,0,0-1.155.445,1.88,1.88,0,0,0-.44,1.37V0h-.957V-5.5h.957v.792A1.955,1.955,0,0,1,35.233-5.643Zm8.03.143h.946V-.231a2.317,2.317,0,0,1-.825,1.9,3.023,3.023,0,0,1-1.98.676A3.435,3.435,0,0,1,39.809,2,2.309,2.309,0,0,1,38.8,1l.836-.473a1.8,1.8,0,0,0,1.793.924A1.913,1.913,0,0,0,42.773,1a1.593,1.593,0,0,0,.49-1.232v-.781a2.334,2.334,0,0,1-2.068,1.1A2.672,2.672,0,0,1,39.2-.748a2.808,2.808,0,0,1-.814-2.035,2.79,2.79,0,0,1,.814-2.03,2.681,2.681,0,0,1,1.991-.831,2.324,2.324,0,0,1,2.068,1.089ZM39.908-1.386a1.9,1.9,0,0,0,1.4.561,1.9,1.9,0,0,0,1.4-.561,1.9,1.9,0,0,0,.561-1.4A1.883,1.883,0,0,0,42.7-4.169a1.9,1.9,0,0,0-1.4-.561,1.9,1.9,0,0,0-1.4.561,1.883,1.883,0,0,0-.561,1.386A1.9,1.9,0,0,0,39.908-1.386ZM51.3-7.7a2.41,2.41,0,0,1,1.777.709,2.4,2.4,0,0,1,.709,1.766,2.4,2.4,0,0,1-.709,1.76A2.4,2.4,0,0,1,51.3-2.75H49.533V0H48.51V-7.7Zm0,3.993a1.4,1.4,0,0,0,1.056-.434,1.5,1.5,0,0,0,.418-1.083,1.5,1.5,0,0,0-.418-1.089A1.412,1.412,0,0,0,51.3-6.743H49.533v3.036Zm3.85,1.4a1.813,1.813,0,0,0,.677,1.144,2.1,2.1,0,0,0,1.314.407,1.721,1.721,0,0,0,1.584-.8l.814.462A2.687,2.687,0,0,1,57.123.143a2.88,2.88,0,0,1-2.129-.82,2.81,2.81,0,0,1-.819-2.073,2.846,2.846,0,0,1,.8-2.068,2.773,2.773,0,0,1,2.079-.825,2.53,2.53,0,0,1,1.975.852A2.966,2.966,0,0,1,59.8-2.739a2.891,2.891,0,0,1-.033.429Zm1.9-2.431a1.889,1.889,0,0,0-1.276.435,1.881,1.881,0,0,0-.627,1.16h3.674a1.833,1.833,0,0,0-.616-1.188A1.764,1.764,0,0,0,57.057-4.741Zm4.8.165A1.725,1.725,0,0,1,63.569-5.6v1a1.734,1.734,0,0,0-1.21.374,1.582,1.582,0,0,0-.506,1.309V0H60.9V-5.5h.957ZM66.792.143a2.8,2.8,0,0,1-2.068-.831A2.81,2.81,0,0,1,63.9-2.75a2.81,2.81,0,0,1,.825-2.062,2.8,2.8,0,0,1,2.068-.831,2.782,2.782,0,0,1,1.463.391,2.452,2.452,0,0,1,.968,1.05l-.8.462a1.63,1.63,0,0,0-.644-.7,1.858,1.858,0,0,0-.984-.264,1.865,1.865,0,0,0-1.381.561,1.906,1.906,0,0,0-.555,1.4,1.893,1.893,0,0,0,.555,1.386A1.865,1.865,0,0,0,66.792-.8a1.918,1.918,0,0,0,.99-.259,1.731,1.731,0,0,0,.671-.7l.814.473A2.674,2.674,0,0,1,68.255-.248,2.819,2.819,0,0,1,66.792.143Zm6.16-5.786a2.045,2.045,0,0,1,1.551.61,2.3,2.3,0,0,1,.583,1.656V0h-.957V-3.322a1.418,1.418,0,0,0-.363-1.039,1.341,1.341,0,0,0-1-.369,1.551,1.551,0,0,0-1.155.445,1.88,1.88,0,0,0-.44,1.37V0h-.957V-7.7h.957v2.992A1.955,1.955,0,0,1,72.952-5.643Z" transform="translate(212.288 277.471)"/>
      <g id="Group_2" data-name="Group 2" transform="translate(242.601 113.352)">
        <path id="Path_7" data-name="Path 7" d="M501.429,84.611a5.627,5.627,0,0,0-1.991-2.041,5.343,5.343,0,0,0-6.43.624,7.232,7.232,0,0,0-1.793,3.022,16.314,16.314,0,0,0-.872,4.34c-.109,1.793-.188,3.6-.168,5.4.02,2.17.139,4.349.218,6.519a13.252,13.252,0,0,1-3.309,9.065,16.93,16.93,0,0,1-3.656,3.329,2.921,2.921,0,0,1-.347.208.7.7,0,0,1-1.07-.6c-.01-.188-.01-.377-.01-.565q0-14.059.01-28.118a13.633,13.633,0,0,1,11.929-13.4,13.633,13.633,0,0,1,12.82,21.42,13.4,13.4,0,0,1-9,5.588,17.675,17.675,0,0,1-2.051.139.681.681,0,0,1-.753-.535.708.708,0,0,1,.436-.822c.5-.3,1.011-.565,1.486-.882a8.061,8.061,0,0,0,3.042-3.319,7.21,7.21,0,0,0,.268-5.3,14.785,14.785,0,0,1-.505-2.437c-.139-1.139.347-1.605,1.5-1.615C501.231,84.631,501.29,84.621,501.429,84.611Z" transform="translate(-482 -72.285)" fill="#fff"/>
        <path id="Path_8" data-name="Path 8" d="M496.569,125.963c.178-.119.287-.188.386-.268a15.483,15.483,0,0,0,3.884-4.845,11.256,11.256,0,0,0,1.238-5.528c-.05-1.565-.168-3.141-.208-4.706-.04-1.437-.05-2.873-.01-4.31.04-1.357.1-2.715.258-4.062A15.233,15.233,0,0,1,503.623,97a6.774,6.774,0,0,1,9.174-2.972,8.291,8.291,0,0,1,3.834,4.557.72.72,0,0,1-.951.921c-.386-.168-.763-.347-1.149-.5-.268-.109-.436-.03-.367.287.119.525.218,1.06.377,1.575a9.825,9.825,0,0,1,.5,4.042,8.419,8.419,0,0,1-2.665,5.251,5.418,5.418,0,0,0-.416.416,1.645,1.645,0,0,0,.267-.03c.238-.069.5-.139.733-.228a12.091,12.091,0,0,0,6.965-6.618,11.74,11.74,0,0,0,.951-5.9,12.208,12.208,0,0,0-21.707-6.549,11.124,11.124,0,0,0-2.625,6.975c-.05,9.075-.02,18.151-.02,27.226C496.52,125.6,496.549,125.735,496.569,125.963Z" transform="translate(-495.073 -85.232)" fill="#fff"/>
        <path id="Path_9" data-name="Path 9" d="M624.013,183.1a.689.689,0,0,1,.694.694.723.723,0,0,1-.7.723.765.765,0,0,1-.7-.753A.7.7,0,0,1,624.013,183.1Z" transform="translate(-609.301 -172.119)" fill="#fff"/>
      </g>
    </g>
  </g>
</svg>
