<svg xmlns="http://www.w3.org/2000/svg" width="181.441" height="285.225" viewBox="0 0 181.441 285.225">
  <g id="Group_2" data-name="Group 2" transform="translate(-3028 -1103.285)">
    <path id="Path_7" data-name="Path 7" d="M611.208,154.26a37.421,37.421,0,0,0-13.244-13.573,35.535,35.535,0,0,0-42.762,4.151c-5.93,5.469-9.29,12.651-11.926,20.1a108.489,108.489,0,0,0-5.8,28.859c-.725,11.926-1.252,23.918-1.12,35.909.132,14.43.922,28.925,1.45,43.355.922,23.127-7.775,42.7-22.007,60.288a112.608,112.608,0,0,1-24.313,22.139,19.4,19.4,0,0,1-2.306,1.384c-3.492,1.713-6.787-.132-7.116-4.019-.066-1.252-.066-2.5-.066-3.756q0-93.5.066-186.992c.066-23.193,8.17-43.355,23.852-60.42,14.957-16.34,33.471-26.092,55.478-28.662,27.739-3.294,52.184,4.48,72.873,23.456,17.658,16.209,27.278,36.5,28.925,60.354a87.447,87.447,0,0,1-16.538,58.641c-14.825,20.689-34.855,32.944-59.827,37.161-4.48.791-9.092.659-13.639.922A4.529,4.529,0,0,1,568.183,250c-.659-2.57.791-4.283,2.9-5.469,3.294-1.977,6.721-3.756,9.883-5.864,8.631-5.6,15.747-12.585,20.228-22.073,5.469-11.465,5.271-23.259,1.779-35.25a98.36,98.36,0,0,1-3.36-16.209c-.922-7.577,2.306-10.674,9.949-10.74C609.89,154.392,610.286,154.326,611.208,154.26Z" transform="translate(2546 1031)" fill="#1970a7"/>
    <path id="Path_8" data-name="Path 8" d="M496.9,348.065c1.186-.791,1.911-1.252,2.57-1.779a102.96,102.96,0,0,0,25.828-32.22,74.855,74.855,0,0,0,8.236-36.766c-.329-10.41-1.12-20.887-1.384-31.3-.263-9.554-.329-19.108-.066-28.662.264-9.027.659-18.053,1.713-27.014a101.317,101.317,0,0,1,10.015-34.855c13.178-25.828,42.037-29.518,61.013-19.767,12.651,6.523,20.294,17.395,25.5,30.309A4.786,4.786,0,0,1,624,172.143c-2.57-1.12-5.073-2.306-7.643-3.294-1.779-.725-2.9-.2-2.438,1.911.791,3.492,1.45,7.05,2.5,10.476,2.635,8.763,4.414,17.658,3.295,26.883a55.985,55.985,0,0,1-17.724,34.921,36.059,36.059,0,0,0-2.767,2.767,10.93,10.93,0,0,0,1.779-.2c1.581-.461,3.294-.922,4.876-1.515q32.219-12.354,46.32-44.014a78.081,78.081,0,0,0,6.325-39.27c-1.845-20.294-10.147-37.688-24.972-51.723-17.592-16.6-38.677-24.049-62.528-22.139-23.127,1.845-42.235,12.189-56.862,30.309-10.872,13.507-17.329,29.057-17.46,46.386-.329,60.354-.132,120.708-.132,181.062,0,.922.2,1.845.33,3.36Z" transform="translate(2541.051 1026.098)" fill="#1970a7"/>
    <path id="Path_9" data-name="Path 9" d="M628.044,183.1a4.584,4.584,0,0,1,4.612,4.612,4.812,4.812,0,0,1-4.678,4.81,5.087,5.087,0,0,1-4.678-5.008A4.621,4.621,0,0,1,628.044,183.1Z" transform="translate(2497.801 993.2)" fill="#1970a7"/>
  </g>
</svg>
