<svg xmlns="http://www.w3.org/2000/svg" width="832.06" height="620.066" viewBox="0 0 832.06 620.066">
  <g id="g10" transform="translate(0 496.811)">
    <g id="g12" transform="translate(0 -496.811)">
      <path id="path14" d="M0-59.8H832.06v-.416H0Z" transform="translate(0 605.127)" fill="#e7e8e5"/>
      <path id="path16" d="M478.666-47.1H629.936v-.416H478.666Z" transform="translate(118.754 608.277)" fill="#e7e8e5"/>
      <path id="path18" d="M408.443-50.721h41.414v-.416H408.443Z" transform="translate(101.332 607.379)" fill="#e7e8e5"/>
      <path id="path20" d="M466.031-34.722h64.214v-.416H466.031Z" transform="translate(115.619 611.349)" fill="#e7e8e5"/>
      <path id="path22" d="M69.945-36.963h37.672v-.416H69.945v.416" transform="translate(17.353 610.793)" fill="#e7e8e5"/>
      <path id="path24" d="M112-36.963h44.747v-.416H112Z" transform="translate(27.786 610.793)" fill="#e7e8e5"/>
      <path id="path26" d="M237.745-42.592h77.944v-.416H237.745Z" transform="translate(58.983 609.396)" fill="#e7e8e5"/>
      <path id="path28" d="M60.442-496.395a9.092,9.092,0,0,0-9.083,9.081v451.7a9.092,9.092,0,0,0,9.083,9.082h321.34a9.092,9.092,0,0,0,9.081-9.082v-451.7a9.091,9.091,0,0,0-9.081-9.081H60.442M381.781-26.12H60.442a9.509,9.509,0,0,1-9.5-9.5v-451.7a9.51,9.51,0,0,1,9.5-9.5h321.34a9.51,9.51,0,0,1,9.5,9.5v451.7a9.509,9.509,0,0,1-9.5,9.5" transform="translate(12.638 496.811)" fill="#e7e8e5"/>
      <path id="path30" d="M348.836-496.395a9.091,9.091,0,0,0-9.081,9.081v451.7a9.092,9.092,0,0,0,9.081,9.082H670.175a9.094,9.094,0,0,0,9.084-9.082v-451.7a9.093,9.093,0,0,0-9.084-9.081H348.836M670.175-26.12H348.836a9.508,9.508,0,0,1-9.5-9.5v-451.7a9.509,9.509,0,0,1,9.5-9.5H670.175a9.51,9.51,0,0,1,9.5,9.5v451.7a9.509,9.509,0,0,1-9.5,9.5" transform="translate(84.188 496.811)" fill="#e7e8e5"/>
      <path id="path32" d="M69.945,27.248H268.9V-412.767H69.945Z" transform="translate(17.353 517.661)" fill="#ededeb"/>
      <path id="path34" d="M69.945,27.248H259.47V-412.767H69.945Z" transform="translate(17.353 517.661)" fill="#f3f2f1"/>
      <path id="path36" d="M77.945,15.279H247.5V-404.767H77.945Z" transform="translate(19.338 519.646)" fill="#ededeb"/>
      <path id="path38" d="M129.6-244.281H95.022a4.451,4.451,0,0,1-4.437-4.438,4.45,4.45,0,0,1,4.437-4.437H129.6a4.45,4.45,0,0,1,4.437,4.437,4.451,4.451,0,0,1-4.437,4.438" transform="translate(22.474 557.26)" fill="#fff"/>
      <path id="path40" d="M80.534,15.278V-404.766H77.945V15.278h2.589" transform="translate(19.338 519.647)" fill="#ededeb"/>
      <path id="path42" d="M304.03-41.367h29.621V-169.831H304.03Z" transform="translate(75.428 577.932)" fill="#ededeb"/>
      <path id="path44" d="M206.163-58.762h146.08V-66.9H206.163Z" transform="translate(51.148 603.468)" fill="#ededeb"/>
      <path id="path46" d="M201.608-41.367H329.441V-169.831H201.608Z" transform="translate(50.017 577.932)" fill="#f3f2f1"/>
      <path id="path48" d="M210.938-115.03H315.48v-42.132H210.938Z" transform="translate(52.332 581.075)" fill="#ededeb"/>
      <path id="path50" d="M210.938-71.2H315.48v-42.132H210.938Z" transform="translate(52.332 591.95)" fill="#ededeb"/>
      <path id="path52" d="M243.99-153.168h23.472a2.9,2.9,0,0,0,2.889-2.889,2.9,2.9,0,0,0-2.889-2.889H243.99a2.9,2.9,0,0,0-2.889,2.889,2.9,2.9,0,0,0,2.889,2.889" transform="translate(59.815 580.633)" fill="#f3f2f1"/>
      <path id="path54" d="M243.99-109.335h23.472a2.9,2.9,0,0,0,2.889-2.889,2.9,2.9,0,0,0-2.889-2.888H243.99a2.9,2.9,0,0,0-2.889,2.888,2.9,2.9,0,0,0,2.889,2.889" transform="translate(59.815 591.508)" fill="#f3f2f1"/>
      <path id="path56" d="M261.059-157.718a2.2,2.2,0,0,1-2.192-2.192v-66.755a2.2,2.2,0,0,1,2.192-2.192,2.2,2.2,0,0,1,2.193,2.192v66.755a2.2,2.2,0,0,1-2.193,2.192" transform="translate(64.223 563.289)" fill="#f3f2f1"/>
      <path id="path58" d="M244.157-168.755h41.1v-5.177h-41.1Z" transform="translate(60.574 576.915)" fill="#ededeb"/>
      <path id="path60" d="M269.965-196.779a1.1,1.1,0,0,1-1.1-1.1v-33.377a1.1,1.1,0,0,1,1.1-1.1,1.1,1.1,0,0,1,1.1,1.1v33.377a1.1,1.1,0,0,1-1.1,1.1" transform="translate(66.705 562.422)" fill="#ededeb"/>
      <path id="path62" d="M235.018-215.975s.812-31.415,31.959-31.415,31.958,31.415,31.958,31.415H235.018" transform="translate(58.306 558.69)" fill="#ededeb"/>
      <path id="path64" d="M477.029-186.608v.012c.889,0,1.779.018,2.681.08a38.316,38.316,0,0,1,35.421,35.594,38.278,38.278,0,0,1-1.228,12.428c-4.357,16.184-5.986,32.979-5.986,49.737V-39.92a6.412,6.412,0,0,1-6.412,6.412H346.489v-153.1h130.54" transform="translate(85.961 573.77)" fill="#ededeb"/>
      <path id="path66" d="M315.9-148.428a38.185,38.185,0,0,1,40.861-38.088,38.316,38.316,0,0,1,35.421,35.594,38.28,38.28,0,0,1-1.228,12.428c-4.357,16.184-5.986,32.979-5.986,49.737V-39.92a6.412,6.412,0,0,1-6.412,6.412H329.6a6.412,6.412,0,0,1-6.412-6.412v-51.7a174.31,174.31,0,0,0-5.913-46.6,38.153,38.153,0,0,1-1.381-10.2" transform="translate(78.372 573.77)" fill="#f3f2f1"/>
      <path id="path68" d="M388.642-45.463H527.782V-138.42H388.642Z" transform="translate(96.419 585.725)" fill="#ededeb"/>
      <path id="path70" d="M471.947-258.97H600.389a28.9,28.9,0,0,1,28.9,28.9V-87.5H443.05V-230.074a28.9,28.9,0,0,1,28.9-28.9" transform="translate(109.918 555.817)" fill="#dadbd8"/>
      <path id="path72" d="M441.4-258.97H572.629a27.5,27.5,0,0,1,27.5,27.5V-87.5H413.9v-143.97a27.5,27.5,0,0,1,27.5-27.5" transform="translate(102.685 555.817)" fill="#f3f2f1"/>
      <path id="path74" d="M391.74-145.22H519.988a2.5,2.5,0,0,1,2.5,2.5v32.847a2.5,2.5,0,0,1-2.5,2.5H391.74a8.387,8.387,0,0,1-8.387-8.385v-21.083a8.387,8.387,0,0,1,8.387-8.387" transform="translate(95.107 584.038)" fill="#dadbd8"/>
      <path id="path76" d="M629.209-186.608v.012c.887,0,1.777.018,2.679.08a38.316,38.316,0,0,1,35.421,35.594,38.28,38.28,0,0,1-1.228,12.428c-4.357,16.184-5.986,32.979-5.986,49.737V-39.92a6.412,6.412,0,0,1-6.412,6.412H498.667v-153.1H629.209" transform="translate(123.716 573.77)" fill="#ededeb"/>
      <path id="path78" d="M468.075-148.428a38.185,38.185,0,0,1,40.861-38.088,38.316,38.316,0,0,1,35.421,35.594,38.276,38.276,0,0,1-1.228,12.428c-4.357,16.184-5.986,32.979-5.986,49.737V-39.92a6.412,6.412,0,0,1-6.412,6.412h-48.95a6.412,6.412,0,0,1-6.412-6.412v-51.7a174.307,174.307,0,0,0-5.913-46.6,38.154,38.154,0,0,1-1.381-10.2" transform="translate(116.126 573.77)" fill="#f3f2f1"/>
      <path id="path80" d="M349.6-59.293H664.62a4.648,4.648,0,0,0,4.648-4.648H344.947a4.648,4.648,0,0,0,4.648,4.648" transform="translate(85.579 604.203)" fill="#dadbd8"/>
      <path id="path82" d="M498.167-324.283H599.495V-434.8H498.167Z" transform="translate(123.592 512.194)" fill="#dadbd8"/>
      <path id="path84" d="M493.309-324.283H597.273V-434.8H493.309Z" transform="translate(122.387 512.194)" fill="#f3f2f1"/>
      <path id="path86" d="M586.832-334.725v-93.1H500.288v93.1h86.544" transform="translate(124.118 513.926)" fill="#fff"/>
      <path id="path88" d="M539.663-409.384l23.669,40.994H515.995Z" transform="translate(128.015 518.501)" fill="#f3f2f1"/>
      <path id="path90" d="M384.275-272.594H485.6v-110.52H384.275Z" transform="translate(95.336 525.018)" fill="#dadbd8"/>
      <path id="path92" d="M379.418-272.594H483.382v-110.52H379.418Z" transform="translate(94.131 525.018)" fill="#f3f2f1"/>
      <path id="path94" d="M386.4-283.036H472.94v-93.1H386.4Z" transform="translate(95.862 526.749)" fill="#fff"/>
      <path id="path96" d="M414.952-318.355l-10.266-17.781a12.23,12.23,0,0,1,10.59-18.345H435.81a12.23,12.23,0,0,1,10.59,18.345l-10.266,17.781a12.23,12.23,0,0,1-21.183,0" transform="translate(99.989 532.122)" fill="#f3f2f1"/>
      <path id="path98" d="M720.124-11.353c0,10.407-144.457,18.844-322.655,18.844S74.814-.946,74.814-11.353,219.272-30.2,397.469-30.2s322.655,8.437,322.655,18.843" transform="translate(18.561 612.575)" fill="#f3f2f1"/>
      <path id="path100" d="M498.248-437.686H114.639L139.891,84.75H523.5L498.248-437.686" transform="translate(28.441 511.479)" fill="#406fbf"/>
      <path id="path102" d="M143.443,84.75h-3.551L126.161-199.3l-.363-7.509-11.16-230.88h3.55L143.443,84.75" transform="translate(28.441 511.479)" fill="#31969b"/>
      <path id="path104" d="M501.092-437.686H117.483L142.737,84.75H526.345L501.092-437.686" transform="translate(29.147 511.479)" fill="#31969b"/>
      <path id="path106" d="M155.7,57.645l-14.42-287.214q10.8,143.643,32.241,287.191l-17.821.023m286.538-.38Q474.178,35.107,506.37,12.94h0L456.4,57.245l-14.163.02m50.479-249.683q-2.586-30.508-4.694-61.027l.661.35,4.034,60.677M484.9-310l-.383-.2q-.661-12.161-1.246-24.313L484.9-310M131.537-423.606h0c0,.007,0,0,0,.012" transform="translate(32.633 514.972)" fill="#31969b"/>
      <path id="path108" d="M480-423.608A3919.232,3919.232,0,0,0,514.776,7.156q-41.1,28.274-81.792,56.532H174.431a3925.483,3925.483,0,0,1-42.895-487.3H480" transform="translate(32.633 514.972)" fill="#fff"/>
      <path id="path110" d="M454.855-74.82q-41.1,28.274-81.792,56.532,8.9-37.433,18.528-74.9Q423.2-84,454.855-74.82" transform="translate(92.554 596.947)" fill="#e7e8e5"/>
      <path id="path112" d="M223.729-392.8h-64.05q1.123,32.006,2.776,64.034h64.052q-1.652-32.023-2.777-64.034Zm-5.385,5.577q.966,26.435,2.293,52.881H167.756q-1.328-26.447-2.293-52.881h52.881" transform="translate(39.615 522.615)" fill="#31969b"/>
      <path id="path114" d="M415.852-370.053h-181.1q-.252-5.976-.481-11.948,90.551,0,181.1,0,.23,5.973.479,11.948" transform="translate(58.121 525.294)" fill="#dadbd8"/>
      <path id="path116" d="M377.383-349.921H235.673q-.29-5.976-.557-11.952h141.71q.27,5.973.557,11.952" transform="translate(58.331 530.288)" fill="#dadbd8"/>
      <path id="path118" d="M227.752-309.815H163.7q1.979,32.031,4.49,64.075h64.052Q229.733-277.781,227.752-309.815Zm-5.237,5.58q1.672,26.455,3.708,52.914H173.342q-2.034-26.459-3.708-52.914,26.44,0,52.881,0" transform="translate(40.613 543.203)" fill="#31969b"/>
      <path id="path120" d="M305.913-287.052h-66.53q-.409-5.978-.8-11.958h66.53q.389,5.981.8,11.958" transform="translate(59.191 545.884)" fill="#dadbd8"/>
      <path id="path122" d="M352.907-287.052H303.97q-.409-5.978-.8-11.958h48.937q.389,5.981.8,11.958" transform="translate(75.215 545.884)" fill="#dadbd8"/>
      <path id="path124" d="M399.314-266.908H240.84q-.447-5.978-.875-11.958H398.439q.427,5.978.875,11.958" transform="translate(59.534 550.881)" fill="#dadbd8"/>
      <path id="path126" d="M233.991-226.787h-64.05q2.836,32.041,6.2,64.08h64.052q-3.367-32.038-6.2-64.08Zm-5.086,5.581q2.379,26.459,5.12,52.919H181.145q-2.741-26.459-5.122-52.919h52.882" transform="translate(42.161 563.802)" fill="#31969b"/>
      <path id="path128" d="M428.131-195.833h-181.1q.589,5.978,1.195,11.958h181.1q-.607-5.981-1.2-11.958" transform="translate(61.287 571.481)" fill="#dadbd8"/>
      <path id="path130" d="M386.824-215.978q-70.854,0-141.71,0,.549,5.978,1.118,11.958h141.71q-.569-5.978-1.118-11.958" transform="translate(60.811 566.483)" fill="#dadbd8"/>
      <path id="path132" d="M242.45-143.76H178.4q3.689,32.033,7.911,64.054h64.052Q246.142-111.724,242.45-143.76Zm-4.937,5.58q3.088,26.452,6.533,52.9H191.165q-3.447-26.445-6.533-52.9,26.442,0,52.881,0" transform="translate(44.26 584.4)" fill="#31969b"/>
      <path id="path134" d="M436.4-121H255.3q-.729-5.975-1.438-11.953h181.1q.711,5.976,1.439,11.953" transform="translate(62.981 587.081)" fill="#dadbd8"/>
      <path id="path136" d="M340.272-100.865H257.833q-.769-5.976-1.516-11.954h82.441q.746,5.976,1.514,11.954" transform="translate(63.59 592.077)" fill="#dadbd8"/>
      <path id="path138" d="M370.408-100.865h-35.6q-.766-5.976-1.514-11.954h35.6q.749,5.976,1.514,11.954" transform="translate(82.688 592.077)" fill="#dadbd8"/>
      <path id="path140" d="M192.235-343.173q-1.173-1.867-2.345-3.734c-5.116-8.149-15.579-15.43-19.179-17.55l2.681-4.774c4.258,2.51,12.92,8.715,18.753,16.09,8.054-10.977,19.954-22.3,36.265-34.492q1.725,2.254,3.451,4.506c-17.413,13.025-29.6,24.965-37.28,36.444q-1.173,1.755-2.346,3.51" transform="translate(42.352 523.897)" fill="#31969b"/>
      <path id="path142" d="M197.462-260.156q-1.226-1.867-2.445-3.738c-5.33-8.154-15.991-15.441-19.648-17.56q1.276-2.389,2.553-4.778c4.332,2.515,13.155,8.723,19.184,16.1,7.758-10.985,19.359-22.306,35.341-34.517l3.573,4.511c-17.061,13.05-28.934,24.975-36.3,36.466q-1.128,1.757-2.253,3.513" transform="translate(43.508 544.486)" fill="#31969b"/>
      <path id="path144" d="M204.926-176.923q-1.271-1.867-2.544-3.736c-5.547-8.153-16.4-15.438-20.118-17.561q1.211-2.389,2.426-4.779c4.4,2.518,13.385,8.725,19.613,16.1,7.469-10.983,18.761-22.307,34.417-34.52q1.845,2.257,3.693,4.513c-16.713,13.045-28.265,24.982-35.328,36.469q-1.081,1.755-2.16,3.511" transform="translate(45.218 565.134)" fill="#31969b"/>
      <path id="path146" d="M371.327-52.647c-9.818-.005-15.478-3.63-20.465-6.826-4.773-3.064-9.276-5.945-17.57-5.948S321.3-62.532,317.4-59.473c-4.08,3.2-8.707,6.831-18.52,6.826s-15.481-3.63-20.464-6.826c-4.774-3.064-9.269-5.945-17.566-5.948s-11.987,2.889-15.887,5.948c-4.08,3.2-8.7,6.831-18.517,6.826s-15.475-3.63-20.464-6.826c-4.774-3.064-9.276-5.945-17.566-5.948q-.337-2.4-.669-4.791c9.813.005,15.461,3.623,20.445,6.826,4.766,3.054,9.274,5.952,17.568,5.947s11.977-2.893,15.886-5.947c4.084-3.2,8.717-6.825,18.535-6.826s15.455,3.623,20.445,6.826c4.764,3.054,9.277,5.952,17.57,5.947s11.977-2.893,15.889-5.947c4.08-3.2,8.722-6.825,18.537-6.826s15.461,3.623,20.449,6.826c4.764,3.054,9.274,5.952,17.571,5.947q.339,2.4.684,4.791" transform="translate(46.579 602.647)" fill="#e7e8e5"/>
      <path id="path148" d="M383.389-417.851c-5.615-14.914-18.612-24.8-32.6-24.8h-28.48a10.839,10.839,0,0,1-9.908-6.582,26.577,26.577,0,0,0-24.24-16.287,23.576,23.576,0,0,0-22.665,16.287,9.618,9.618,0,0,1-9.271,6.582h-28.48c-13.99,0-26.032,9.888-30.2,24.8l-1.667,5.958H385.631l-2.242-5.958" transform="translate(48.595 504.573)" fill="#17282f"/>
      <path id="path150" d="M385.28-415.544H198.521a6.221,6.221,0,0,1-6.131-5.848,5.534,5.534,0,0,1,5.565-5.848H384.716a6.223,6.223,0,0,1,6.131,5.848,5.537,5.537,0,0,1-5.566,5.848" transform="translate(47.729 514.071)" fill="#406fbf"/>
      <path id="path152" d="M385.28-415.544H198.521a6.221,6.221,0,0,1-6.131-5.848c-.005-.095-.007-.188-.007-.281a5.53,5.53,0,0,1,5.571-5.566H384.716a6.223,6.223,0,0,1,6.131,5.848c0,.093.007.186.007.281a5.532,5.532,0,0,1-5.573,5.566" transform="translate(47.729 514.071)" fill="#31969b"/>
      <path id="path154" d="M483.885-17.493H471.694l-1.215-28.235h12.193l1.213,28.235" transform="translate(116.723 608.721)" fill="#f9a8b3"/>
      <path id="path156" d="M543.516-17.493H531.323L525.2-45.728h12.191l6.129,28.235" transform="translate(130.298 608.721)" fill="#f9a8b3"/>
      <path id="path158" d="M533.19-24.237h13.7a1.065,1.065,0,0,1,1.038.834l2.408,10.837a1.792,1.792,0,0,1-1.786,2.168c-4.781-.081-7.1-.363-13.128-.363-3.706,0-11.341.386-16.46.386-5,0-5.786-5.061-3.691-5.519,9.4-2.056,12.933-4.89,15.941-7.592a2.962,2.962,0,0,1,1.98-.751" transform="translate(127.565 614.053)" fill="#17282f"/>
      <path id="path160" d="M477.37-24.237h13.315a1.063,1.063,0,0,1,1.038.834l2.408,10.837a1.772,1.772,0,0,1-1.754,2.168c-4.8-.081-11.744-.363-17.779-.363-7.059,0-13.157.386-21.434.386-5.006,0-6.4-5.061-4.3-5.519,9.539-2.085,17.327-2.31,25.569-7.392a5.642,5.642,0,0,1,2.937-.95" transform="translate(111.126 614.053)" fill="#17282f"/>
      <path id="path162" d="M495.776-379.518c-1.749,8.92-2.618,19.974,3.623,25.927,0,0-3.584,9.048-20.159,9.048-15.145,0-7.562-9.048-7.562-9.048,9.946-2.375,9.427-14.676,7.695-21.605l16.4-4.322" transform="translate(116.549 525.91)" fill="#f9a8b3"/>
      <path id="path164" d="M467.54-356.228c.346-2.218,4.229-4.784,8.667-5.755s21.426-3.12,26.626-.97-.9,8.512-.9,8.512l-34.391-1.787" transform="translate(115.994 529.791)" fill="#406fbf"/>
      <path id="path166" d="M467.726-356.954c.957-2.027,4.476-4.162,8.435-5.029a113.382,113.382,0,0,1,19.054-1.894,22.4,22.4,0,0,1,7.572.924,2.9,2.9,0,0,1,2.1,2.772,6.382,6.382,0,0,1-.955,2.977c-1.335-.112-2.683-.2-4.022-.268-4.659-.225-10.487-.408-16-.408-4.345,0-8.494.113-11.722.408-1.513.138-3.01.316-4.462.518" transform="translate(116.039 529.791)" fill="#67bfc4"/>
      <path id="path168" d="M480.779-33.5h-.005l-.04-.928h.005l.04.928m-.057-1.344h-.007l-.063-1.474h.007l.063,1.474" transform="translate(119.246 611.055)" fill="#c3c5c2"/>
      <path id="path170" d="M480.726-34.722h-.005l-.018-.416h.007l.017.416" transform="translate(119.259 611.349)" fill="#b1b3b1"/>
      <path id="path172" d="M483.2-33.5H471l-.12-2.819h12.191l.063,1.474.018.416.04.928" transform="translate(116.823 611.055)" fill="#d8898c"/>
      <path id="path174" d="M537.627-33.5h-.008l-.612-2.819h.008l.612,2.819" transform="translate(133.228 611.055)" fill="#c3c5c2"/>
      <path id="path176" d="M540.042-33.5h-12.19l-.612-2.819h12.19l.612,2.819" transform="translate(130.805 611.055)" fill="#d8898c"/>
      <path id="path178" d="M516.72-349.946l-14.691,9.85s21.1,37.519,19.33,43.532c-2.411,8.182-5.776,26.085-10.349,35.166.6,1.957,3.639,6.433,5.337,7.211,11.619-8.861,23.424-36.639,22.98-44.382-1.01-17.658-22.607-51.376-22.607-51.376" transform="translate(124.55 533.247)" fill="#f9a8b3"/>
      <path id="path180" d="M511.531-278.821l-11.6-.9,6.1,12.834s10.165.449,11.864-7.321l-6.369-4.615" transform="translate(124.03 550.67)" fill="#cd4b4f"/>
      <path id="path182" d="M603.367-204.278l-.985,1.841-6.6,12.468-233.93-123.7,7.558-14.3,233.954,123.7" transform="translate(89.774 538.698)" fill="#31969b"/>
      <path id="path184" d="M615.492-227.171l-4.829,9.128-2.732,5.154-233.954-123.7,7.557-14.3L615.492-227.171" transform="translate(92.781 533.013)" fill="#31969b"/>
      <path id="path186" d="M609.436-215.734l-7.57,14.3L367.908-325.128l7.572-14.295L609.435-215.734" transform="translate(91.276 535.858)" fill="#406fbf"/>
      <path id="path188" d="M530.574-256.632h0l-22.244-11.76v0l22.246,11.764" transform="translate(126.113 553.479)" fill="#c3c5c2"/>
      <path id="path190" d="M570.177-235.694,526.151-258.97h0l44.024,23.276" transform="translate(130.534 555.817)" fill="#babcba"/>
      <path id="path192" d="M453.345-297.461l-7.716-4.08h.01l7.707,4.075v.005" transform="translate(110.557 545.256)" fill="#babcba"/>
      <path id="path194" d="M446.844-300.9h-.01l-6.067-3.207,0,0,6.074,3.21" transform="translate(109.351 544.618)" fill="#c3c5c2"/>
      <path id="path196" d="M426.916-311.433l-11.246-5.946v-.007l11.253,5.951-.007,0" transform="translate(103.125 541.325)" fill="#3563b7"/>
      <path id="path198" d="M415.783-317.319l-.571-.3v-.007l.571.3v.007" transform="translate(103.011 541.265)" fill="#2555ad"/>
      <path id="path200" d="M426.211-312.212l-51.468-27.21-3.864,7.3,1.3-2.468,2.561-4.834,51.466,27.21v.007" transform="translate(92.013 535.856)" fill="#c3c5c2"/>
      <path id="path202" d="M601.865-201.438h0L545.5-231.24c-1.033-8.627-1.854-15.491-2.335-19.53l22.244,11.76,44.026,23.276-7.57,14.3M475.032-268.5l-38.157-20.174c9.893-1.534,18.813-4.232,21.877-6.61l.09-.07,6.067,3.207,7.717,4.08c.547,6.146,1.333,12.674,2.406,19.567m-57.181-30.232-49.94-26.406,3.7-6.993,3.864-7.3,51.468,27.21.571.3,11.246,5.946c-6.458,2.461-14.295,5.487-20.913,7.237" transform="translate(91.276 535.858)" fill="#2d7276"/>
      <path id="path204" d="M355.128-349l-6.806,12.872,16.887,28.145L387.9-350.885,355.128-349" transform="translate(86.416 533.014)" fill="#406fbf"/>
      <path id="path206" d="M361.855-313.672h0l7.56-14.295-.005,0-7.553,14.3" transform="translate(89.774 538.699)" fill="#cfe0f5"/>
      <path id="path208" d="M367.908-327.969h0l.008,0,0,0,0,.01" transform="translate(91.276 538.698)" fill="#cfe0f5"/>
      <path id="path210" d="M367.911-326.585h0l3.7-6.993-3.7,7" transform="translate(91.276 537.308)" fill="#ccdcf3"/>
      <path id="path212" d="M365.209-307.978l-16.887-28.145L355.128-349l32.77-1.889-3.065,5.8-8.357,15.8-3.7,7,0,.007-7.558,14.295-.005.008" transform="translate(86.416 533.014)" fill="#cfe0f5"/>
      <path id="path214" d="M342.523-348.562,349.76-336.5l6.806-12.872Z" transform="translate(84.978 533.39)" fill="#2d7276"/>
      <path id="path216" d="M492.38-273.875l6.1,11.353,9.434-4.363-6.1-12.834-9.427,5.844" transform="translate(122.156 550.67)" fill="#cd4b4f"/>
      <path id="path218" d="M514.406-356.492c11.534,1.677,24.745,41.651,24.745,41.651l-24.228,13.684s-10.67-19.011-15.932-33.129c-5.513-14.792,3.042-24,15.415-22.206" transform="translate(123.373 531.567)" fill="#17282f"/>
      <path id="path220" d="M509.3-316.038c-.726-1.37-1.543-2.929-2.41-4.626,0,0,0-.015,0-.02.869,1.694,1.686,3.258,2.415,4.635a.04.04,0,0,1-.007.012" transform="translate(125.757 540.506)" fill="#c3c5c2"/>
      <path id="path222" d="M509.311-310.886c-.729-1.376-1.546-2.94-2.415-4.635.328-8.344.967-17.092,2.07-25.977,4.26,8.5,5.044,22.294.344,30.611" transform="translate(125.757 535.343)" fill="#111d23"/>
      <path id="path224" d="M457.589-355.279s-14.391,36.817-.722,105.384H522.08c.449-10.01-5.841-58.843,3.816-106.013a170.052,170.052,0,0,0-21.832-2.756c-8.332-.4-20.4-.667-27.721,0a122.4,122.4,0,0,0-18.755,3.385" transform="translate(111.883 530.983)" fill="#17282f"/>
      <path id="path226" d="M480.049-341.026,463.6-347.539s-18.931,38.661-24.889,40.611c-8.106,2.656-24.76,10.038-34.832,11.422-1.275,1.6-3.237,6.647-2.914,8.485,13.89,4.541,43.462-1.489,49.589-6.247,13.967-10.847,29.49-47.759,29.49-47.759" transform="translate(99.469 533.844)" fill="#f9a8b3"/>
      <path id="path228" d="M454.916-300.409l-3.877-1.862q-.062-2.753-.063-5.37c9.216-14.488,16.659-32.189,16.659-32.189l-13.223-5.237c.594-2.894,1.182-5.269,1.686-7.112a12.808,12.808,0,0,1,2.107-.176c4.671,0,8.911,2.684,11.273,8.133,4.643,10.7-14.561,43.815-14.561,43.815" transform="translate(111.884 532.649)" fill="#111d23"/>
      <path id="path230" d="M450.975-309.09a186.7,186.7,0,0,1,3.436-37.426l13.223,5.237s-7.444,17.7-16.66,32.189" transform="translate(111.884 534.098)" fill="#d8898c"/>
      <path id="path232" d="M476.042-347.618c4.109,10.908-16.708,43.033-16.708,43.033l-24.386-13.243s5.686-16.024,14.092-28.545c8.63-12.855,22.492-13.218,27-1.245" transform="translate(107.908 531.667)" fill="#17282f"/>
      <path id="path234" d="M406.611-305.877l-14.524,3.142,7.36,13.429s4.473-1.827,10.9-7.949l-3.731-8.622" transform="translate(97.274 544.18)" fill="#f9a8b3"/>
      <path id="path236" d="M386.6-300.38l5.793,8.018,8.412,2.433-7.36-13.429L386.6-300.38" transform="translate(95.914 544.805)" fill="#f9a8b3"/>
      <path id="path238" d="M468.973-389.431c-.057.982-.624,1.747-1.265,1.711s-1.117-.862-1.06-1.846.622-1.747,1.265-1.711,1.117.864,1.06,1.846" transform="translate(115.771 522.993)" fill="#17282f"/>
      <path id="path240" d="M470.231-389.735s-2.559,5.535-5.174,8.126c1.642,1.722,4.638,1.152,4.638,1.152l.536-9.277" transform="translate(115.378 523.376)" fill="#f46878"/>
      <path id="path242" d="M467.6-391.807l-.245-.088a.577.577,0,0,1-.171-.8,5.733,5.733,0,0,1,4.511-2.727.574.574,0,0,1,.579.576.579.579,0,0,1-.571.581,4.566,4.566,0,0,0-3.55,2.2.579.579,0,0,1-.554.26" transform="translate(115.883 521.965)" fill="#17282f"/>
      <path id="path244" d="M502-386.774c-1.436,12.015-1.666,19.121-8.113,24.958-9.7,8.782-24.263,2.4-26.445-9.8-1.965-10.983.712-28.786,12.792-32.9A16.5,16.5,0,0,1,502-386.774" transform="translate(115.824 519.476)" fill="#f9a8b3"/>
      <path id="path246" d="M479.879-382.718c-4.209.832-10.93-8.515-5.45-16.456-2.777-1.388-11.839,4.067-15.258-1.017s6.056-7.813,4.252-12.113c6.427,1.318-4.16,9.334,1.942,8.55s13.15-12.072,20.039-7.44c12.065,8.113,28.5-5.408,21.79,11.511,8.229-1.664,13.849,8.066,6.014,14.792-15.618,13.406-6.014,15.162-15.9,15.854-5.032.354-16.556-5.591-17.428-13.681" transform="translate(113.731 517.776)" fill="#17282f"/>
      <path id="path248" d="M482.7-384.762a10.167,10.167,0,0,1-5.811,5.144c-3.377,1.137-5.249-1.839-4.467-5.122.706-2.956,3.312-7.109,6.776-6.823,3.411.283,4.917,3.826,3.5,6.8" transform="translate(117.16 522.919)" fill="#f9a8b3"/>
      <path id="path250" d="M474.231-271.6s13.836,93.179,21.432,128.086c8.319,38.228,39.658,165.562,39.658,165.562h22.333S536.988-102.2,532.24-140.045C527.088-181.123,516.31-271.6,516.31-271.6H474.231" transform="translate(117.653 552.685)" fill="#406fbf"/>
      <path id="path252" d="M557.653,22.051H535.321s-31.339-127.334-39.658-165.562c-.819-3.759-1.709-8.2-2.648-13.123q.257,1.35.511,2.651.265-.9.509-1.905a87.652,87.652,0,0,0,1.669-9.4c2.852-22.108,1.824-58.189-3.615-71.055,1.048-20.407,1.874-35.253,1.874-35.253H516.31s10.778,90.473,15.931,131.552c4.748,37.847,25.413,162.1,25.413,162.1" transform="translate(117.653 552.685)" fill="#13676b"/>
      <path id="path254" d="M488.783-182.019c-.812-4.418-1.647-9.118-2.495-13.99v-.012c.849,4.878,1.684,9.577,2.5,14h0" transform="translate(120.645 571.435)" fill="#babcba"/>
      <path id="path256" d="M489.528-178.167c-.406-2.125-.82-4.342-1.241-6.635h0c.421,2.292.835,4.51,1.24,6.635" transform="translate(121.141 574.218)" fill="#babcba"/>
      <path id="path258" d="M490.535-160.991q-.252-1.3-.511-2.651c-1.187-6.229-2.448-13.233-3.736-20.637.845-19.861,1.91-41.525,2.811-59.073,5.438,12.865,6.467,48.947,3.615,71.055a87.65,87.65,0,0,1-1.669,9.4q-.245,1-.509,1.905" transform="translate(120.645 559.692)" fill="#0f5357"/>
      <path id="path260" d="M455.866-271.6s-1.679,91.162-.353,128.344c1.38,38.674,14.887,165.3,14.887,165.3h20.655s.757-124.372,1.677-162.354c1-41.407,6-131.294,6-131.294H455.866" transform="translate(112.883 552.685)" fill="#406fbf"/>
      <path id="path262" d="M491.056,22.051H470.4s-13.508-126.63-14.887-165.3c-.376-10.531-.511-25.389-.511-41.282,0-40.223.864-87.062.864-87.062h42.868s-.825,14.846-1.874,35.253c-.9,17.548-1.965,39.212-2.811,59.073h0v.012c-.225,5.255-.431,10.377-.617,15.272-.3,8.021-.547,15.411-.7,21.685-.609,25.147-1.146,88.162-1.441,127.879h0q-.017,2.383-.033,4.648c0,.138,0,.278,0,.416-.043,5.849-.078,11.073-.108,15.432,0,.143,0,.276,0,.416-.057,8.455-.088,13.563-.088,13.563" transform="translate(112.883 552.685)" fill="#13676b"/>
      <path id="path264" d="M489.913-41.224v6.748H466.1l-1-7.58,24.809.832" transform="translate(115.389 609.632)" fill="#17282f"/>
      <path id="path266" d="M546.161-40.8l1.112,6.24H522.726l-2.172-7.164,25.606.924" transform="translate(129.146 609.715)" fill="#17282f"/>
      <path id="path268" d="M524.955-24.44a.819.819,0,0,0-.374.072.352.352,0,0,0-.181.339,1.175,1.175,0,0,0,.391,1.049c.666.563,2.258.636,4.328.218a11.679,11.679,0,0,0-4.164-1.678Zm1.812,2.521a3.7,3.7,0,0,1-2.348-.619,1.734,1.734,0,0,1-.6-1.528.915.915,0,0,1,.493-.817c1.335-.69,5.28,1.724,5.726,2l.132.293-.216.231a14.234,14.234,0,0,1-3.19.438" transform="translate(129.956 613.862)" fill="#406fbf"/>
      <path id="path270" d="M526.938-26.72l-.131.008c-.376.045-.408.22-.423.291-.153.8,1.4,2.823,2.656,3.774-.142-1.028-.531-3.08-1.439-3.822A1.026,1.026,0,0,0,526.938-26.72Zm2.46,4.943-.138-.034c-1.262-.687-3.7-3.358-3.441-4.717a.935.935,0,0,1,.919-.755,1.569,1.569,0,0,1,1.23.369c1.416,1.157,1.707,4.676,1.719,4.826l-.131.263-.156.049" transform="translate(130.447 613.294)" fill="#406fbf"/>
      <path id="path272" d="M465.944-24.439a1.118,1.118,0,0,0-.539.107.342.342,0,0,0-.181.308,1.06,1.06,0,0,0,.348.93c.751.666,2.757.777,5.448.331a15.913,15.913,0,0,0-5.076-1.676Zm2.207,2.525a4.624,4.624,0,0,1-2.962-.749,1.621,1.621,0,0,1-.541-1.407.917.917,0,0,1,.476-.767c1.479-.832,6.382,1.659,6.936,1.946l.153.3-.23.243a20.672,20.672,0,0,1-3.832.436" transform="translate(115.274 613.862)" fill="#406fbf"/>
      <path id="path274" d="M468.359-26.72l-.175.008c-.519.055-.552.258-.564.324-.133.829,1.849,2.9,3.35,3.8-.156-.96-.591-2.924-1.609-3.759a1.528,1.528,0,0,0-1-.376Zm2.974,4.943-.118-.025c-1.471-.66-4.387-3.3-4.164-4.676.052-.323.281-.727,1.075-.805a2.069,2.069,0,0,1,1.6.494c1.551,1.275,1.879,4.556,1.892,4.7l-.12.261-.168.055" transform="translate(115.869 613.293)" fill="#406fbf"/>
    </g>
  </g>
</svg>
