<svg xmlns="http://www.w3.org/2000/svg" width="962.49" height="554.006" viewBox="0 0 962.49 554.006">
  <g id="Group_36" data-name="Group 36" transform="translate(-813.551 -2775)">
    <g id="City_driver-pana" data-name="City driver-pana" transform="translate(813.551 2775)">
      <g id="Group_38" data-name="Group 38">
        <g id="freepik--background-complete--inject-2" transform="translate(39.413 13.562)">
          <path id="Path_3777" data-name="Path 3777" d="M693.536,178.912a19.106,19.106,0,0,1,4.885,14.109,33.508,33.508,0,0,1-4.549,14.516c-4.773,8.676-13.7,15.724-22.266,20.708-4.914-9.827-1.881-22.224,0-28.4,3.047-9.827,14.5-25.593,21.873-20.932" transform="translate(184.712 -15.104)" fill="#ebebeb"/>
          <path id="Path_3778" data-name="Path 3778" d="M672.79,230.949a16.257,16.257,0,0,1,10.74-12.3,21.592,21.592,0,0,1,16.622,1.4c2.359,1.179,4.689,2.976,5.265,5.616a7.02,7.02,0,0,1-2.583,6.556,14.039,14.039,0,0,1-6.767,2.808c-8.424,1.4-16.693,1.292-23.277-4.043" transform="translate(186.266 0.864)" fill="#ebebeb"/>
          <path id="Path_3779" data-name="Path 3779" d="M657.63,252.229a11.917,11.917,0,0,1,1.039-1.755l3-4.661c2.583-3.875,6.149-9.476,11.849-14.039a34.789,34.789,0,0,1,16.636-7.553,23.321,23.321,0,0,1,5.615-.14,12.754,12.754,0,0,1,1.5.211c.351,0,.52.1.52.126a37.328,37.328,0,0,0-7.525.309,36.066,36.066,0,0,0-16.313,7.707c-5.616,4.422-9.182,9.912-11.863,13.716-1.334,1.923-2.415,3.482-3.2,4.535A10.1,10.1,0,0,1,657.63,252.229Z" transform="translate(180.143 3.436)" fill="#e0e0e0"/>
          <path id="Path_3780" data-name="Path 3780" d="M690.625,187.8a5.489,5.489,0,0,1-.253.856l-.814,2.4c-.73,2.092-1.825,5.082-3.2,8.774-2.808,7.385-6.725,17.535-11.344,28.64s-9.027,21.059-12.326,28.247c-1.642,3.58-3,6.458-3.959,8.423-.463.927-.842,1.685-1.123,2.274a4.729,4.729,0,0,1-.435.772,3.907,3.907,0,0,1,.295-.828c.267-.6.59-1.4,1.011-2.345l3.748-8.536c3.173-7.216,7.511-17.2,12.13-28.3S683,206.963,685.88,199.621l3.412-8.69c.393-.955.7-1.741.955-2.345A3.916,3.916,0,0,1,690.625,187.8Z" transform="translate(179.957 -11.175)" fill="#e0e0e0"/>
          <path id="Path_3781" data-name="Path 3781" d="M667.615,237.932a38.032,38.032,0,0,0-8.62-33.694c-2.05-2.288-5.068-4.45-7.96-3.412s-3.819,4.647-3.875,7.722a32.514,32.514,0,0,0,19.963,30.03" transform="translate(175.914 -6.021)" fill="#ebebeb"/>
          <path id="Path_3782" data-name="Path 3782" d="M654,209.71a8.548,8.548,0,0,1,1.334,1.4,15.816,15.816,0,0,1,1.4,1.727c.52.716,1.165,1.474,1.741,2.429a34.6,34.6,0,0,1,1.839,3.117,35.95,35.95,0,0,1,1.783,3.748,41.906,41.906,0,0,1,2.555,9.182,41.351,41.351,0,0,1,.253,9.518,34.672,34.672,0,0,1-.632,4.113,29.58,29.58,0,0,1-.913,3.51,27.746,27.746,0,0,1-1,2.808,16.3,16.3,0,0,1-.927,2.05,9.632,9.632,0,0,1-.913,1.685c-.154,0,1.151-2.485,2.359-6.7a32.614,32.614,0,0,0,.8-3.468,37.733,37.733,0,0,0,.562-4.057,42.581,42.581,0,0,0-.295-9.364,44.545,44.545,0,0,0-2.457-9.027c-.562-1.334-1.081-2.6-1.7-3.734a34.8,34.8,0,0,0-1.755-3.117C655.689,211.8,653.808,209.808,654,209.71Z" transform="translate(178.673 -2.325)" fill="#e0e0e0"/>
          <path id="Path_3783" data-name="Path 3783" d="M66.746,116.54s-12.916,4.212-.393,31.869,21.466,41.528,21.466,41.528,2.148,6.388-3.187,7.118-16.847-1.671-19.542,4.689c-2.808,6.584,1.825,13.141,11.442,19.163s30.212,19.964,32.065,21.227,3.566,4.212,0,5.335-29.861,2.583-28.4,15.022,31.026,24.849,34.2,26.253,3.917,2.808,3.566,4.6-9.238,1.4-16.707,2.19-15.991,2.892-14.545,10,18.56,22.7,61.6,28.963l20.132,1.6,11.765-16.524c23.052-36.881,22.21-60.017,17.731-65.717s-11.652-.59-17.029,4.633-10.894,12.214-12.467,11.33-2.2-2.345-1.221-5.7,10.684-33.89,2.134-43.044-26.674,9.94-29.819,11.961-4.282-1.264-4.057-3.468,2.892-26.955,4.521-38.186-.407-18.953-7.216-21.059c-6.57-2.078-12.214,8.283-16.215,11.877s-7.483-2.176-7.483-2.176-4.787-15.752-17.816-43.212-24.807-20.062-24.807-20.062" transform="translate(-60.887 -40.238)" fill="#ebebeb"/>
          <path id="Path_3784" data-name="Path 3784" d="M164.395,333.524c-9.49-20.216-25.748-56.409-39.871-87.407S97.6,187.068,88.2,166.823L77.071,142.845l-3.018-6.514-.772-1.713A5.617,5.617,0,0,1,73,134s.112.183.309.562l.828,1.685c.716,1.5,1.769,3.678,3.131,6.472,2.71,5.616,6.57,13.772,11.316,23.866,9.49,20.2,22.364,48.224,36.5,79.223s30.324,67.275,39.717,87.548" transform="translate(-55.994 -32.905)" fill="#e0e0e0"/>
          <path id="Path_3785" data-name="Path 3785" d="M75.3,179.88a7.752,7.752,0,0,1,1.4.463c.87.323,2.134.842,3.678,1.488,3.089,1.306,7.314,3.215,11.947,5.405l11.821,5.616,3.594,1.685a7.551,7.551,0,0,1,1.292.674,5.884,5.884,0,0,1-1.4-.449c-.884-.323-2.134-.842-3.678-1.5-3.089-1.4-7.286-3.3-11.905-5.489l-11.863-5.616-3.594-1.671a6.334,6.334,0,0,1-1.292-.6Z" transform="translate(-55.065 -14.374)" fill="#e0e0e0"/>
          <path id="Path_3786" data-name="Path 3786" d="M100.341,201.362c-.154,0,3.4-8.957,7.932-19.837s8.423-19.655,8.508-19.655-3.383,8.957-7.932,19.851S100.51,201.362,100.341,201.362Z" transform="translate(-44.953 -21.648)" fill="#e0e0e0"/>
          <path id="Path_3787" data-name="Path 3787" d="M114.26,233.291a7.022,7.022,0,0,1,.884-1.193c.674-.856,1.53-1.909,2.541-3.159,2.134-2.667,5.082-6.374,8.185-10.571s5.784-8.072,7.707-10.908l2.274-3.355a8.082,8.082,0,0,1,.884-1.193,5.532,5.532,0,0,1-.688,1.32c-.477.842-1.193,2.022-2.106,3.468-1.825,2.906-4.45,6.851-7.581,11.049s-6.107,7.876-8.339,10.473c-1.123,1.292-2.036,2.33-2.7,3.032a6.105,6.105,0,0,1-1.067,1.039Z" transform="translate(-39.329 -5.072)" fill="#e0e0e0"/>
          <path id="Path_3788" data-name="Path 3788" d="M89.6,220.443a5.614,5.614,0,0,1,1.4.084l3.72.463c3.131.435,7.455,1.067,12.228,1.8s9.083,1.4,12.2,1.965l3.692.674a5.614,5.614,0,0,1,1.334.323,5.614,5.614,0,0,1-1.4-.084l-3.706-.463c-3.145-.435-7.469-1.067-12.242-1.8s-9.083-1.4-12.2-1.965l-3.678-.674a6.232,6.232,0,0,1-1.348-.323Z" transform="translate(-49.289 2.006)" fill="#e0e0e0"/>
          <path id="Path_3789" data-name="Path 3789" d="M98,252.551a9.085,9.085,0,0,1,1.755.126l4.773.59c4.015.519,9.561,1.278,15.682,2.162s11.666,1.713,15.668,2.359l4.745.772a11.031,11.031,0,0,1,1.727.379,9.205,9.205,0,0,1-1.769-.126l-4.759-.59c-4.015-.519-9.575-1.292-15.7-2.176s-11.666-1.713-15.668-2.345l-4.731-.786A9.454,9.454,0,0,1,98,252.551Z" transform="translate(-45.897 14.978)" fill="#e0e0e0"/>
          <path id="Path_3790" data-name="Path 3790" d="M128.87,268.085a10.712,10.712,0,0,1,1.081-1.558c.786-1.067,1.825-2.443,3.075-4.113,2.6-3.482,6.163-8.3,9.954-13.73s7.1-10.431,9.462-14.039l2.808-4.31a11.633,11.633,0,0,1,1.081-1.544,10.8,10.8,0,0,1-.884,1.671c-.6,1.053-1.5,2.569-2.639,4.408-2.274,3.706-5.531,8.76-9.336,14.193s-7.413,10.234-10.108,13.646c-1.4,1.7-2.457,3.075-3.243,4A9.615,9.615,0,0,1,128.87,268.085Z" transform="translate(-33.428 5.382)" fill="#e0e0e0"/>
          <path id="Path_3791" data-name="Path 3791" d="M378.288,304.389c-35.968-18.1-49.5-59.4-53.714-97.67-.7-6.388-2.373-12.986-.154-18.995s8.718-10.852,14.8-8.985c5.04,1.53,7.89,6.725,11.231,10.88a37.5,37.5,0,0,0,16.973,12.088c4.352,1.516,9.547,2.078,13.225-.7,5.04-3.819,4.591-11.484,3.636-17.8q-2.667-17.675-5.335-35.322c-.955-6.318-1.9-12.762-.8-19.051s4.633-12.481,10.4-15.036,13.716-.168,15.878,5.84c.9,2.5.758,5.251,1.32,7.848s2.19,5.321,4.787,5.7,4.914-1.783,6.528-3.917c5.616-7.314,8.845-16.187,11.807-24.962s5.756-17.731,10.67-25.551,12.312-14.516,21.283-16.342,19.444,2.373,23.01,10.936-.309,18.377-4.928,26.408a142.216,142.216,0,0,1-25.27,32.29c-1.8,1.7-3.734,3.538-4.212,5.995-.758,4.408,3.833,8.016,8.2,8.8,4.942.884,9.982-.337,14.994-.477s10.67,1.278,13.211,5.616c3.524,6.093-.9,13.646-5.616,18.854a121.987,121.987,0,0,1-32.781,25.818c-4.408,2.373-9.083,4.577-12.368,8.423s-4.717,9.827-1.811,13.941,8.929,4.717,13.674,3.1,8.718-4.886,13.112-7.3c8.213-4.535,19.514-5.616,26.169,1.137,4.366,4.408,5.686,11.231,4.689,17.394s-4.015,11.751-7.328,17C472,268.7,456.078,284.439,436.929,294.337S399.388,308.825,378.3,304.4" transform="translate(45.108 -61.99)" fill="#f5f5f5"/>
          <path id="Path_3792" data-name="Path 3792" d="M367,277.939A574.819,574.819,0,0,1,380.674,213.7l4.464-16.664c1.474-5.461,2.934-10.88,4.689-16.089a284.993,284.993,0,0,1,11.807-29.37c4.212-9.153,8.522-17.689,12.635-25.649s8.115-15.289,12.017-21.817a226.933,226.933,0,0,1,20.736-29.4c2.71-3.271,4.9-5.742,6.4-7.385l1.713-1.867a4.866,4.866,0,0,1,.618-.618,3.873,3.873,0,0,1-.519.688l-1.643,1.951c-1.4,1.7-3.566,4.212-6.219,7.525a240.062,240.062,0,0,0-20.385,29.482c-3.861,6.542-7.792,13.885-11.863,21.845s-8.353,16.51-12.523,25.649a288.228,288.228,0,0,0-11.737,29.342c-1.741,5.194-3.187,10.557-4.661,16.033s-2.934,11.035-4.436,16.65a585.442,585.442,0,0,0-13.744,64.1" transform="translate(62.755 -60.839)" fill="#e0e0e0"/>
          <path id="Path_3793" data-name="Path 3793" d="M389.04,167.106a12.793,12.793,0,0,1-1.011-2.611c-.576-1.7-1.4-4.212-2.246-7.258-1.8-6.177-4-14.769-6.388-24.26s-4.717-18.04-6.6-24.161c-.941-3.061-1.727-5.531-2.288-7.23a13.27,13.27,0,0,1-.758-2.7,12.124,12.124,0,0,1,1.179,2.527c.7,1.657,1.6,4.1,2.653,7.146,2.092,6.065,4.549,14.615,6.949,24.119l6.051,24.33q1.109,4.38,1.9,7.356A12.244,12.244,0,0,1,389.04,167.106Z" transform="translate(63.866 -47.086)" fill="#e0e0e0"/>
          <path id="Path_3794" data-name="Path 3794" d="M462.572,128.29a17.557,17.557,0,0,1-3.187.856c-2.05.491-5.04,1.179-8.69,2.148-7.328,1.881-17.366,4.829-28.289,8.564s-20.666,7.6-27.629,10.557c-3.5,1.4-6.29,2.724-8.227,3.58a17.226,17.226,0,0,1-3.06,1.235,17.436,17.436,0,0,1,2.808-1.657c1.881-.983,4.633-2.359,8.087-3.931,6.907-3.173,16.636-7.132,27.587-10.908a287.131,287.131,0,0,1,28.471-8.255c3.692-.87,6.711-1.4,8.8-1.783a17.31,17.31,0,0,1,3.327-.407Z" transform="translate(69.415 -35.211)" fill="#e0e0e0"/>
          <path id="Path_3795" data-name="Path 3795" d="M383.662,243.588a4.21,4.21,0,0,1-.7-.9c-.491-.744-1.081-1.657-1.811-2.808-1.572-2.387-3.748-5.9-6.374-10.263-5.265-8.746-12.158-21.059-19.585-34.747s-14.208-25.986-19.29-34.761l-6.037-10.445-1.629-2.808a4.464,4.464,0,0,1-.505-1.039,4.057,4.057,0,0,1,.7.913l1.811,2.808c1.572,2.387,3.748,5.9,6.374,10.277,5.265,8.746,12.172,21.059,19.655,34.747s14.193,26.028,19.276,34.873l6.037,10.459c.66,1.137,1.193,2.092,1.629,2.808a4.319,4.319,0,0,1,.449.884Z" transform="translate(46.894 -28.131)" fill="#e0e0e0"/>
          <path id="Path_3796" data-name="Path 3796" d="M470.559,179.55a4.647,4.647,0,0,1-1.011.59l-2.976,1.446L455.551,187c-9.308,4.591-22.1,11.063-36.207,18.251s-26.983,13.534-36.389,17.928c-4.7,2.19-8.522,3.931-11.231,5.082l-3.075,1.292a3.792,3.792,0,0,1-1.109.379,5.183,5.183,0,0,1,1.011-.59l2.976-1.5,11.035-5.419c9.308-4.577,22.083-11.049,36.207-18.251s26.969-13.534,36.375-17.928c4.7-2.19,8.522-3.931,11.231-5.082l3.075-1.292a3.791,3.791,0,0,1,1.109-.323Z" transform="translate(62.973 -14.507)" fill="#e0e0e0"/>
          <path id="Path_3797" data-name="Path 3797" d="M586.93,120.269c0-22.912-24.063-37.414-48.6-25.944a27.952,27.952,0,0,0-12.916,12.382c-6.163,11.961-3.44,25.607,2.162,36.951l19.093,48.393a8.227,8.227,0,0,0,15.331,0l18.728-48.66C587.2,128.524,586.93,120.269,586.93,120.269ZM563.878,140.2c-16.5,9.589-33.216-8.143-24.175-25.635a13.73,13.73,0,0,1,5.251-5.616c16.5-9.589,33.2,8.143,24.161,25.635A13.7,13.7,0,0,1,563.878,140.2Z" transform="translate(125.319 -50.551)" fill="#f5f5f5"/>
        </g>
        <g id="freepik--Floor--inject-2" transform="translate(10.174 549.617)">
          <path id="Path_3798" data-name="Path 3798" d="M980.595,444.185c0,.211-210.586.365-470.225.365s-470.31-.154-470.31-.365,210.5-.365,470.31-.365S980.595,443.988,980.595,444.185Z" transform="translate(-40.06 -443.82)" fill="#263238"/>
        </g>
        <g id="freepik--Device--inject-2" transform="translate(181.875)">
          <path id="Path_3799" data-name="Path 3799" d="M389.488,602.311l-186.608-.856a40.713,40.713,0,0,1-40.461-40.826L164.4,92.8a40.713,40.713,0,0,1,40.84-40.475l186.608.856a40.713,40.713,0,0,1,40.461,40.8l-1.98,467.825a40.713,40.713,0,0,1-40.84,40.5Z" transform="translate(-162.42 -52.33)" fill="#455a64"/>
          <path id="Path_3800" data-name="Path 3800" d="M388.014,64.686l-36.179-.168A9,9,0,0,0,343,73.657v6.57a8.971,8.971,0,0,1-8.845,9.111l-70.532-.323a9.013,9.013,0,0,1-8.746-9.224v-6.57a9,9,0,0,0-8.718-9.153H233.443l-31.658-.239a28.471,28.471,0,0,0-28.612,28.317L171.25,548.782a28.471,28.471,0,0,0,28.331,28.6l186.243.856a28.471,28.471,0,0,0,28.6-28.345L416.345,93.27A28.457,28.457,0,0,0,388.014,64.686Z" transform="translate(-158.772 -47.685)" fill="#fafafa"/>
          <path id="Path_3801" data-name="Path 3801" d="M172.46,123.05h30.521l27.236,27.25L201.9,178.617l-29.117-29.131Z" transform="translate(-158.283 -23.765)" fill="#ebebeb"/>
          <path id="Path_3802" data-name="Path 3802" d="M222.433,138.339l-15.3-15.289h34.424Z" transform="translate(-144.28 -23.765)" fill="#ebebeb"/>
          <path id="Path_3803" data-name="Path 3803" d="M227.56,150.551l26.8-26.8H348s14.334,64.018-42.117,105.125Z" transform="translate(-136.028 -23.483)" fill="#ebebeb"/>
          <path id="Path_3804" data-name="Path 3804" d="M227.638,148.92,198.97,177.6,278.3,256.937,306.973,227.3Z" transform="translate(-147.576 -13.316)" fill="#ebebeb"/>
          <path id="Path_3805" data-name="Path 3805" d="M172.21,191.363l17.97-18.644L172.561,155.1Z" transform="translate(-158.384 -10.82)" fill="#ebebeb"/>
          <path id="Path_3806" data-name="Path 3806" d="M200.611,175.48l-27.6,27.6v38.355l56.985,58.3,48.28-44.925Z" transform="translate(-158.061 -2.588)" fill="#ebebeb"/>
          <path id="Path_3807" data-name="Path 3807" d="M291,236.919s59.133-43.353,40.011-113.169H367.78L367.331,320.8Z" transform="translate(-110.404 -23.483)" fill="#ebebeb"/>
          <path id="Path_3808" data-name="Path 3808" d="M291.3,212.46,262.72,242.307l87.66,87.674,26.815-28.415Z" transform="translate(-121.826 12.348)" fill="#ebebeb"/>
          <path id="Path_3809" data-name="Path 3809" d="M267.139,239.54,222.2,284.156,312.078,373.4l44.855-43.367Z" transform="translate(-138.193 23.286)" fill="#ebebeb"/>
          <path id="Path_3810" data-name="Path 3810" d="M237.43,419.256l68.707-71.206,65.352,66.616Z" transform="translate(-132.041 67.114)" fill="#ebebeb"/>
          <path id="Path_3811" data-name="Path 3811" d="M294,361.9,365.6,291c0,3.145-.618,147-.618,147Z" transform="translate(-109.192 44.071)" fill="#ebebeb"/>
          <path id="Path_3812" data-name="Path 3812" d="M272.4,313.14l40.587,40.587-80.135,82.69L195.83,392.012Z" transform="translate(-148.844 53.014)" fill="#ebebeb"/>
          <path id="Path_3813" data-name="Path 3813" d="M172.26,430.375c3.833-.379,101.98-92.293,101.98-92.293L172.26,232.41Z" transform="translate(-158.364 20.406)" fill="#ebebeb"/>
          <path id="Path_3814" data-name="Path 3814" d="M171.25,394.366l23.628-20.946L227.6,412.07H171.25V397.286" transform="translate(-158.772 77.361)" fill="#ebebeb"/>
          <path id="Path_3815" data-name="Path 3815" d="M195.02,106.889A58.754,58.754,0,0,1,188,100.8h0v-.533h0l.1-.084.168-.154.351-.323.674-.632,1.278-1.179,2.2-1.965a10.754,10.754,0,0,1,2.246-1.755,9.826,9.826,0,0,1-1.8,2.05L191.117,98.3,189.867,99.5l-.674.646-.337.323-.182.154-.084.084h0v-.533h0a59.61,59.61,0,0,1,6.43,6.711Z" transform="translate(-152.007 -35.43)" fill="#263238"/>
          <path id="Path_3816" data-name="Path 3816" d="M332.13,96.036a1.53,1.53,0,1,1-1.516-1.516,1.53,1.53,0,0,1,1.516,1.516Z" transform="translate(-95.027 -35.289)" fill="#263238"/>
          <path id="Path_3817" data-name="Path 3817" d="M331.691,98.7a1.53,1.53,0,1,1-2.162,0A1.53,1.53,0,0,1,331.691,98.7Z" transform="translate(-95.023 -33.78)" fill="#263238"/>
          <path id="Path_3818" data-name="Path 3818" d="M332.129,103.552a1.53,1.53,0,1,1-.716-1.446,1.53,1.53,0,0,1,.716,1.446Z" transform="translate(-95.025 -32.318)" fill="#263238"/>
          <rect id="Rectangle_2" data-name="Rectangle 2" width="65.675" height="5.475" transform="translate(105.641 66.967)" fill="#263238"/>
        </g>
        <g id="freepik--Car--inject-2" transform="translate(76.751 207.114)">
          <rect id="Rectangle_3" data-name="Rectangle 3" width="778.917" height="114.292" transform="translate(48.81 153.396)" fill="#4eb848"/>
          <g id="Group_25" data-name="Group 25" transform="translate(48.81 153.396)" opacity="0.5">
            <rect id="Rectangle_4" data-name="Rectangle 4" width="778.917" height="114.292"/>
          </g>
          <circle id="Ellipse_1" data-name="Ellipse 1" cx="75.109" cy="75.109" r="75.109" transform="translate(73.501 197.013) rotate(-3.85)" fill="#263238"/>
          <path id="Path_3820" data-name="Path 3820" d="M143.322,389.07v.2a75.117,75.117,0,0,0,150.218,2.176v-.2Z" transform="translate(-64.932 -123.432)" fill="#263238"/>
          <path id="Path_3821" data-name="Path 3821" d="M159.252,404.386a52.731,52.731,0,1,0,53.475-51.945A52.731,52.731,0,0,0,159.252,404.386Z" transform="translate(-58.497 -138.228)" fill="#fafafa"/>
          <path id="Path_3822" data-name="Path 3822" d="M212.725,352.432a52.717,52.717,0,0,0-53.475,51.945l105.448,1.53a52.731,52.731,0,0,0-51.973-53.475Z" transform="translate(-58.495 -138.232)" fill="#e0e0e0"/>
          <path id="Path_3823" data-name="Path 3823" d="M173.931,398.755A32.121,32.121,0,1,0,206.5,367.111a32.121,32.121,0,0,0-32.571,31.644Z" transform="translate(-52.567 -132.303)" fill="#263238"/>
          <circle id="Ellipse_2" data-name="Ellipse 2" cx="75.109" cy="75.109" r="75.109" transform="matrix(0.998, -0.058, 0.058, 0.998, 648.514, 196.208)" fill="#263238"/>
          <path id="Path_3824" data-name="Path 3824" d="M552.422,389.07v.2a75.117,75.117,0,0,0,150.218,2.176v-.2Z" transform="translate(100.307 -123.432)" fill="#263238"/>
          <path id="Path_3825" data-name="Path 3825" d="M568.352,404.386a52.731,52.731,0,1,0,53.475-51.945,52.731,52.731,0,0,0-53.475,51.945Z" transform="translate(106.742 -138.228)" fill="#fafafa"/>
          <path id="Path_3826" data-name="Path 3826" d="M621.825,352.432a52.717,52.717,0,0,0-53.475,51.945l105.447,1.53a52.731,52.731,0,0,0-51.973-53.475Z" transform="translate(106.744 -138.232)" fill="#e0e0e0"/>
          <path id="Path_3827" data-name="Path 3827" d="M583,398.755a32.121,32.121,0,1,0,32.571-31.644A32.121,32.121,0,0,0,583,398.755Z" transform="translate(112.66 -132.303)" fill="#263238"/>
          <path id="Path_3828" data-name="Path 3828" d="M339.41,288.953s-110.6,8.157-151.622,17.352c-28.892,6.472-84.6,17.661-83.926,52.7l4.422,25.13s-20.651,9.434-20.651,33.525-5.04,61.435,43.2,62.937c7.946.239,23.038,0,23.038,0s-9.252-102.738,85.119-105.742c96.013-3.061,89.64,104.8,89.64,104.8H729.346s-16.454-105.083,86.9-105.293S903.88,480.348,903.88,480.348s38.018,3.285,55.707-28.668,13.1-54.752,13.1-54.752l-.59-20.2a13.085,13.085,0,0,0-12.635-12.635h0s6.907-50.85-3.692-59.652-68.679-61.912-68.679-61.912L889.9,240.8a6.514,6.514,0,0,0-1.4-11.68c-22.056-7.581-65.661-22.589-75.909-26.169a18.448,18.448,0,0,0-4.759-1.011c-6.121-.463-23.445-1.558-55.244-1.9-38.734-.421-192.518,0-192.518,0s-52.927,4.352-82.409,17.324C446.739,231.014,339.41,288.953,339.41,288.953Z" transform="translate(-87.483 -199.857)" fill="#fcd347"/>
          <g id="Group_26" data-name="Group 26" transform="translate(11.339 214.504)" opacity="0.4">
            <path id="Path_3829" data-name="Path 3829" d="M112.421,353.142c-4.015-.814-10.164-.884-13.225,1.825-2.274,2.022-2.878,5.293-3.215,8.311a35.322,35.322,0,0,0,.281,12.453,15.19,15.19,0,0,0,7.02,9.926c3.678,1.994,8.7,1.671,11.554-1.4,2.611-2.808,2.906-7.02,2.808-10.768-.1-5.419.337-10.01-.66-15.331a7.385,7.385,0,0,0-1.4-3.1,4.212,4.212,0,0,0-3.2-1.923" transform="translate(-95.56 -352.647)"/>
          </g>
          <path id="Path_3830" data-name="Path 3830" d="M103.592,339.257c11.737,0,23.122-.646,34.845-1.4A5.616,5.616,0,0,0,142,336.772a5.7,5.7,0,0,0,1.221-4.212c0-6.29-.253-13.449-5.026-17.549-2.92-2.5-6.921-3.285-10.754-3.636a69.255,69.255,0,0,0-28.275,2.808Z" transform="translate(-82.762 -154.975)" fill="#fafafa"/>
          <path id="Path_3831" data-name="Path 3831" d="M340.713,434.073a9.177,9.177,0,0,0-.084-1.011c-.084-.674-.112-1.671-.2-2.948-.14-2.611-.351-6.416-.618-11.33s-.6-10.936-1.306-17.9a141.514,141.514,0,0,0-4.142-23.347,106.342,106.342,0,0,0-11.3-26.323,82.83,82.83,0,0,0-21.859-24.372c-18.939-13.478-44.532-21.059-71.3-21.424s-52.38,8.1-70.855,22.294a103.887,103.887,0,0,0-22.982,23.459,110.431,110.431,0,0,0-13.449,25.27,102.33,102.33,0,0,0-5.686,22.982,96.352,96.352,0,0,0-.688,17.872,89.424,89.424,0,0,0,1.4,11.231c.225,1.249.407,2.218.519,2.892s.154,1,.154,1-.084-.323-.225-.969l-.6-2.808a81.917,81.917,0,0,1-1.516-11.231,94.638,94.638,0,0,1,.562-17.942,102.345,102.345,0,0,1,5.616-23.108A110.91,110.91,0,0,1,135.6,350.877a103.888,103.888,0,0,1,23.08-23.642c18.56-14.264,44.223-22.814,71.206-22.463s52.618,8,71.712,21.606a83.393,83.393,0,0,1,21.971,24.6A106.024,106.024,0,0,1,334.8,377.5a139.06,139.06,0,0,1,4.057,23.445c.66,7.02.955,13,1.179,17.914s.379,8.732.491,11.344c0,1.278.084,2.26.112,2.948A8.3,8.3,0,0,0,340.713,434.073Z" transform="translate(-76.052 -157.484)" fill="#fff"/>
          <path id="Path_3832" data-name="Path 3832" d="M280.007,474.273v-.842l-.084-2.485c-.07-2.218-.168-5.461-.309-9.7-.239-8.522-.59-20.974-1.039-36.825s-.969-35.1-1.572-57.139c-.154-5.517-.295-11.231-.463-17.057a57.9,57.9,0,0,1,.393-8.915l.632-4.521.927-4.535a91.815,91.815,0,0,1,6.247-17.984,90.58,90.58,0,0,1,10.248-17.043h0l69.4-43.718,18.742-11.793a147.235,147.235,0,0,1,19.837-11.077,203.854,203.854,0,0,1,21.648-8.718c3.678-1.292,7.455-2.344,11.231-3.468s7.623-2.05,11.526-2.808a262.893,262.893,0,0,1,44.714-5.616,423.769,423.769,0,0,1,43.311.14h.407l-.1.407-18.644,83.406h0a92.09,92.09,0,0,0-8.423,17.928,48.94,48.94,0,0,0-2.808,18.532c.477,6.163.646,12.2.8,18.054s.225,11.526.337,17.043c.323,22.041.407,41.261.463,57.1s0,28.289,0,36.8v0c0-8.508-.126-20.96-.225-36.782s-.239-35.1-.618-57.111q-.168-8.255-.365-17.029c-.168-5.854-.337-11.863-.828-18.026a49.446,49.446,0,0,1,2.808-18.77,91.368,91.368,0,0,1,8.423-18.068v.1c5.714-25.677,11.961-53.7,18.574-83.42l.323.421a421.951,421.951,0,0,0-43.212-.112,260,260,0,0,0-44.6,5.616c-3.889.772-7.679,1.853-11.484,2.808s-7.525,2.176-11.231,3.454a203.557,203.557,0,0,0-21.648,8.732A146.377,146.377,0,0,0,383.6,242.249l-18.756,11.793-69.4,43.619v-.07a89.331,89.331,0,0,0-10.221,16.945A90.345,90.345,0,0,0,279,332.394c-3.159,12.032-1.572,23.866-1.544,34.887l1.4,57.139c.379,15.836.674,28.3.87,36.81.1,4.212.154,7.5.211,9.715v2.485A7.648,7.648,0,0,1,280.007,474.273Z" transform="translate(-11.134 -195.944)" fill="#263238"/>
          <path id="Path_3833" data-name="Path 3833" d="M460.55,212.327h.66l1.923-.07,7.455-.183,27.643-.533,93.191-1.6h.182l.112.14,13.056,15.991C618,242.314,630.605,257.757,642.061,271.8l4.212,5.195a30.789,30.789,0,0,1,3.5,5.616,29.187,29.187,0,0,1,.52,23.7l-4.212,9.827-12.888,29.819-3.538,8.086-.941,2.106c-.211.463-.337.7-.337.7s.084-.253.267-.73.505-1.221.871-2.134c.8-1.881,1.937-4.633,3.411-8.143l12.635-29.9c2.415-6.346,6.669-13.028,6.374-21.171a28.669,28.669,0,0,0-2.808-11.947,29.837,29.837,0,0,0-3.426-5.461l-4.212-5.194-37.33-45.683-13.042-15.991.281.14-93.206,1.4-27.643.323h-9.364Z" transform="translate(63.203 -195.784)" fill="#263238"/>
          <path id="Path_3834" data-name="Path 3834" d="M438.254,304.674a5.415,5.415,0,0,0,1.109-.169,7.8,7.8,0,0,0,2.948-1.179,7.454,7.454,0,0,0,3-3.9,8.423,8.423,0,0,0,.393-3.089,7.694,7.694,0,0,0-.87-3.341,7.455,7.455,0,0,0-6.472-3.945H407.214a7.4,7.4,0,0,0-7.3,6.528,8.425,8.425,0,0,0,.9,4.956,7.469,7.469,0,0,0,3.594,3.187,11.416,11.416,0,0,0,4.675.576h12.846l11.947.112,3.243.07a6.024,6.024,0,0,1,1.137.084,10.366,10.366,0,0,1-1.137.07h-3.243l-11.947.112H406.652a7.792,7.792,0,0,1-2.5-.576,8.073,8.073,0,0,1-3.945-3.468,8.858,8.858,0,0,1-1-5.377,8.073,8.073,0,0,1,8-7.174h31.167a7.96,7.96,0,0,1,6.907,4.31,8.157,8.157,0,0,1,.884,3.566,8.916,8.916,0,0,1-.463,3.229,7.792,7.792,0,0,1-3.243,4.015,7.2,7.2,0,0,1-3.075,1.081,4.981,4.981,0,0,1-1.137.323Z" transform="translate(38.397 -164.194)" fill="#263238"/>
          <path id="Path_3835" data-name="Path 3835" d="M586.254,304.674a5.415,5.415,0,0,0,1.109-.169,7.8,7.8,0,0,0,2.948-1.179,7.455,7.455,0,0,0,3-3.9,8.423,8.423,0,0,0,.393-3.089,7.694,7.694,0,0,0-.87-3.341,7.455,7.455,0,0,0-6.472-3.945H555.214a7.4,7.4,0,0,0-7.3,6.528,8.426,8.426,0,0,0,.9,4.956,7.469,7.469,0,0,0,3.594,3.187,11.415,11.415,0,0,0,4.675.576h12.846l11.947.112,3.243.07a6.026,6.026,0,0,1,1.137.084,10.37,10.37,0,0,1-1.137.07h-3.243l-11.947.112H554.652a7.794,7.794,0,0,1-2.5-.576,8.072,8.072,0,0,1-3.945-3.468,8.859,8.859,0,0,1-1-5.377,8.072,8.072,0,0,1,8-7.174h31.167a7.96,7.96,0,0,1,6.907,4.31,8.156,8.156,0,0,1,.884,3.566,8.915,8.915,0,0,1-.463,3.229,7.792,7.792,0,0,1-3.243,4.015,7.2,7.2,0,0,1-3.074,1.081,4.98,4.98,0,0,1-1.137.323Z" transform="translate(98.176 -164.194)" fill="#263238"/>
          <path id="Path_3836" data-name="Path 3836" d="M721.056,275.78H679.5a15.345,15.345,0,0,0-13.576,8.185h0a15.359,15.359,0,0,0-.449,13.323l16.285,37.021,41.612-.407S732.231,286.969,721.056,275.78Z" transform="translate(145.447 -169.191)" fill="#fafafa"/>
          <path id="Path_3837" data-name="Path 3837" d="M293.6,297.636l214.419-3.959,139.549-2.555,46.02-26.576a7.146,7.146,0,0,0,2.092-10.5l-28.654-37.639a15.92,15.92,0,0,0-12.551-6.29l-156.087-1.263s-58.768-3.426-105.083,22.463C344.6,258.65,293.6,297.636,293.6,297.636Z" transform="translate(-4.23 -196.283)" fill="#263238"/>
          <path id="Path_3838" data-name="Path 3838" d="M402.959,211.58s10.754,4.9,3.762,9.434-115.626,73-115.626,73l-24.976-11.3C310.357,258.106,355.03,234.169,402.959,211.58Z" transform="translate(-15.33 -195.121)" fill="#455a64"/>
          <path id="Path_3839" data-name="Path 3839" d="M361.448,271.54l-.674.168-1.98.435-7.623,1.572c-6.626,1.32-16.229,3.173-28.078,5.223-23.866,4.1-56.886,8.873-93.627,12.046-9.2.8-18.251,1.4-26.843,2.022s-17.043,1.109-24.99,1.825c-15.906,1.4-30.142,3.706-41.71,7.146A117.465,117.465,0,0,0,109.573,312.9c-2.99,1.572-5.124,3.117-6.626,4.043l-1.713,1.081-.6.351a6.813,6.813,0,0,1,.562-.407l1.671-1.151c1.488-.969,3.594-2.555,6.57-4.212a114.545,114.545,0,0,1,26.281-11.231c11.6-3.524,25.874-5.9,41.794-7.314,7.96-.758,16.327-1.292,25-1.867s17.647-1.25,26.829-2.05c36.726-3.173,69.788-7.862,93.613-11.835,11.919-1.98,21.522-3.749,28.162-4.984l7.651-1.4,1.994-.365Z" transform="translate(-82.172 -170.903)" fill="#263238"/>
          <path id="Path_3840" data-name="Path 3840" d="M734.886,340.035c0,.211-14.292.365-31.911.365s-31.925-.154-31.925-.365,14.292-.365,31.925-.365S734.886,339.838,734.886,340.035Z" transform="translate(148.225 -143.385)" fill="#263238"/>
          <path id="Path_3841" data-name="Path 3841" d="M633.961,366.015c0,.211-80.669.365-180.164.365s-180.178-.154-180.178-.365,80.655-.365,180.178-.365S633.961,365.818,633.961,366.015Z" transform="translate(-12.3 -132.891)" fill="#263238"/>
          <path id="Path_3842" data-name="Path 3842" d="M142.662,340.9c0,.211-11.414.365-25.481.365S91.7,341.106,91.7,340.9s11.414-.365,25.481-.365S142.662,340.7,142.662,340.9Z" transform="translate(-85.779 -143.037)" fill="#263238"/>
          <path id="Path_3843" data-name="Path 3843" d="M658.194,229.21s-9.575,10.712-5.812,18.574,42.665,35.407,42.665,35.407l28.233,5.293Z" transform="translate(140.331 -188.001)" fill="#455a64"/>
          <path id="Path_3844" data-name="Path 3844" d="M466.9,215.54l-6.346,68.567,113.6-3.243,45.781-26.618L590.3,215.54Z" transform="translate(63.203 -193.522)" fill="#455a64"/>
          <path id="Path_3845" data-name="Path 3845" d="M312.76,287.675s68.539-49.5,95.578-59.343c26.1-9.49,39.7-11.877,64.215-12.635,23.431-.674,37.709,0,37.709,0l-18.11,69.7Z" transform="translate(3.509 -193.58)" fill="#455a64"/>
          <path id="Path_3846" data-name="Path 3846" d="M305.62,273.665h0a12.032,12.032,0,0,1,6.121-10.473l15.752-8.845a29.918,29.918,0,0,1,14.7-3.847h0a30.281,30.281,0,0,1,9.336,1.488,17.071,17.071,0,0,1,11.484,15.682h0a17.338,17.338,0,0,1-17.338,18H317.6a12,12,0,0,1-11.975-12Z" transform="translate(0.625 -179.401)" fill="#4eb848"/>
          <path id="Path_3847" data-name="Path 3847" d="M305.63,273.774a9.284,9.284,0,0,0,.183,1.516,11.92,11.92,0,0,0,1.4,4.113,12.354,12.354,0,0,0,4.829,4.759,11.878,11.878,0,0,0,4.043,1.264,45.273,45.273,0,0,0,4.843.1l24.021-.084a18.011,18.011,0,0,0,6.683-1.1,17.071,17.071,0,0,0,9.94-9.827,17.478,17.478,0,0,0,1.053-7.427,17,17,0,0,0-7.09-12.565,18.081,18.081,0,0,0-6.5-2.808,29.8,29.8,0,0,0-19.121,1.839c-1.811.814-3.468,1.839-5.11,2.724l-4.689,2.611-8.073,4.464a12.089,12.089,0,0,0-4.829,4.759,12.311,12.311,0,0,0-1.4,4.113c-.14.983-.126,1.516-.168,1.516a7.566,7.566,0,0,1,0-1.544,11.61,11.61,0,0,1,1.292-4.212,12.13,12.13,0,0,1,4.872-4.97l8.016-4.563,4.661-2.653c1.629-.9,3.285-1.937,5.138-2.808a30.184,30.184,0,0,1,19.528-1.965,18.6,18.6,0,0,1,6.753,2.808,17.689,17.689,0,0,1,7.413,13.1,18.068,18.068,0,0,1-1.1,7.75,17.745,17.745,0,0,1-10.389,10.249,18.871,18.871,0,0,1-6.921,1.109l-24.021-.07a46.3,46.3,0,0,1-4.9-.154,12.143,12.143,0,0,1-4.212-1.4,12.438,12.438,0,0,1-4.886-4.97,11.806,11.806,0,0,1-1.278-4.212A9.175,9.175,0,0,1,305.63,273.774Z" transform="translate(0.614 -179.51)" fill="#263238"/>
          <path id="Path_3848" data-name="Path 3848" d="M744.374,433.068V432.1c0-.646.112-1.615.2-2.808s.225-2.808.309-4.633.14-3.959.211-6.332,0-5.04,0-7.932a82.06,82.06,0,0,0-.6-9.42,121.549,121.549,0,0,0-4.057-22.575,101.966,101.966,0,0,0-4.478-12.635,82.242,82.242,0,0,0-6.767-12.747,86.754,86.754,0,0,0-21.957-22.884,103.89,103.89,0,0,0-31.476-15.527c-11.709-3.58-24.456-4.886-37.428-4.984a123.3,123.3,0,0,0-37.344,5.433,105.118,105.118,0,0,0-16.622,6.865,95.348,95.348,0,0,0-14.432,9.434,119.7,119.7,0,0,0-22.238,22.8,87.766,87.766,0,0,0-7.385,12.411,120.592,120.592,0,0,0-5.11,12.34,147.289,147.289,0,0,0-8.115,39.31c-.225,4.759-.2,8.423-.07,10.979.07,1.235.126,2.176.154,2.808a8.5,8.5,0,0,1,0,.969,6.377,6.377,0,0,0-.112-.969c-.112-.646-.14-1.614-.239-2.808a108.45,108.45,0,0,1,0-10.993,144.749,144.749,0,0,1,7.9-39.548,127.251,127.251,0,0,1,5.082-12.411,91.476,91.476,0,0,1,7.413-12.523,120.847,120.847,0,0,1,22.308-22.968,96.612,96.612,0,0,1,14.516-9.518,105.794,105.794,0,0,1,16.734-6.921,123.178,123.178,0,0,1,37.569-5.489c13.028.1,25.832,1.4,37.639,5.026a104.393,104.393,0,0,1,31.672,15.668,96.242,96.242,0,0,1,12.41,10.894,75.882,75.882,0,0,1,9.645,12.228,82.829,82.829,0,0,1,6.781,12.86,99.882,99.882,0,0,1,4.45,12.635,120.037,120.037,0,0,1,3.973,22.687c.379,3.369.379,6.528.533,9.434s0,5.616,0,7.946-.211,4.507-.295,6.346-.267,3.369-.379,4.633-.2,2.176-.253,2.808S744.374,433.068,744.374,433.068Z" transform="translate(89.909 -155.847)" fill="#fff"/>
          <path id="Path_3849" data-name="Path 3849" d="M474.558,272.05H473.28l-3.664.084-13.464.239c-11.372.211-27.067.632-44.42,1.109s-33.062.8-44.434.884H349.217a.9.9,0,0,1-.337,0,1.053,1.053,0,0,1,.337,0h.941l3.664-.084,13.464-.239c11.372-.211,27.081-.632,44.434-1.1s33.062-.814,44.434-.9h18.405Z" transform="translate(18.098 -170.697)" fill="#fff"/>
          <path id="Path_3850" data-name="Path 3850" d="M432.216,287.2a101.612,101.612,0,0,1-12.3.365,101.615,101.615,0,0,1-12.3-.365,105.181,105.181,0,0,1,12.3-.365A105.18,105.18,0,0,1,432.216,287.2Z" transform="translate(41.824 -164.744)" fill="#fff"/>
          <path id="Path_3851" data-name="Path 3851" d="M448.063,233.571c.07.182-15.19,6.542-34.1,14.193s-34.3,13.716-34.382,13.52,15.19-6.542,34.1-14.194S447.978,233.389,448.063,233.571Z" transform="translate(30.498 -186.241)" fill="#fff"/>
          <path id="Path_3852" data-name="Path 3852" d="M425.086,237c.084.2-14.46,6.6-32.472,14.306s-32.669,13.814-32.753,13.632,14.46-6.584,32.472-14.306S425,236.791,425.086,237Z" transform="translate(22.533 -184.856)" fill="#fff"/>
          <path id="Path_3853" data-name="Path 3853" d="M565.783,231.681c.084.182-15.19,6.542-34.1,14.193s-34.3,13.7-34.382,13.52,15.19-6.542,34.115-14.194S565.671,231.485,565.783,231.681Z" transform="translate(78.046 -187.004)" fill="#fff"/>
          <path id="Path_3854" data-name="Path 3854" d="M542.766,235.091c.084.2-14.46,6.6-32.458,14.306s-32.683,13.814-32.767,13.632,14.46-6.584,32.472-14.306S542.766,234.964,542.766,235.091Z" transform="translate(70.065 -185.626)" fill="#fff"/>
          <path id="Path_3855" data-name="Path 3855" d="M587.236,272.037c0,.2-30.367.548-67.823.772s-67.823.239-67.823,0,30.352-.548,67.823-.758S587.236,271.883,587.236,272.037Z" transform="translate(59.583 -170.755)" fill="#fff"/>
          <path id="Path_3856" data-name="Path 3856" d="M583.106,286.318c0,.2-8.508.435-19.023.534s-19.023,0-19.023-.183,8.508-.449,19.023-.548S583.106,286.108,583.106,286.318Z" transform="translate(97.337 -165.03)" fill="#fff"/>
          <path id="Path_3857" data-name="Path 3857" d="M179.759,278.85a3.385,3.385,0,0,1-.828.168l-2.373.309c-1.039.112-2.3.267-3.762.519s-3.131.435-4.956.8c-3.664.646-8,1.6-12.747,2.808a158.071,158.071,0,0,0-15.176,5.026c-5.279,2.092-10.178,4.38-14.559,6.641a118.909,118.909,0,0,0-11.231,6.57c-1.586.969-2.962,1.951-4.212,2.808s-2.274,1.558-3.117,2.176l-1.951,1.4a4.351,4.351,0,0,1-.716.449,4.052,4.052,0,0,1,.618-.562l1.881-1.5c.814-.646,1.825-1.4,3.046-2.288a43.766,43.766,0,0,1,4.212-2.808c3.089-2.092,6.907-4.38,11.231-6.725a137.444,137.444,0,0,1,29.875-11.723c4.773-1.235,9.139-2.148,12.832-2.724,1.839-.337,3.51-.505,4.984-.7s2.808-.323,3.777-.393l2.4-.182a5.483,5.483,0,0,1,.772-.07Z" transform="translate(-80.759 -167.951)" fill="#fff"/>
          <path id="Path_3858" data-name="Path 3858" d="M348.649,256.356a7.59,7.59,0,0,0-1.4-1.306,9.35,9.35,0,0,0-4.633-1.867,20,20,0,0,0-7.5.8,57.559,57.559,0,0,0-23.207,11.947c-3.341,2.808-5.11,4.872-5.208,4.773a9.027,9.027,0,0,1,1.179-1.488,49.512,49.512,0,0,1,3.678-3.678,53.841,53.841,0,0,1,14.432-9.21,52.085,52.085,0,0,1,8.971-2.99,19.894,19.894,0,0,1,7.721-.674,9.014,9.014,0,0,1,4.745,2.176,6.08,6.08,0,0,1,.941,1.067C348.593,256.188,348.677,256.342,348.649,256.356Z" transform="translate(1.061 -178.575)" fill="#fff"/>
          <path id="Path_3859" data-name="Path 3859" d="M701.37,236.637a22.463,22.463,0,0,1-5.981.618,37.9,37.9,0,0,1-7.019-.87,64.051,64.051,0,0,1-8.943-2.808c-3.243-1.221-6.7-2.808-10.431-4.366l-5.826-2.345c-2.008-.8-4.128-1.488-6.262-2.274A244.67,244.67,0,0,0,628.3,216.8a329.219,329.219,0,0,0-53.461-6.626c-3.454-.183-6.57-.183-9.322-.253h-7.02l-4.436.1H552.5a1.054,1.054,0,0,1,.393,0l1.151-.084,4.45-.239,7.02-.126c2.808,0,5.868,0,9.322.168a309.7,309.7,0,0,1,53.6,6.458A234.524,234.524,0,0,1,657.091,224c2.134.786,4.212,1.488,6.275,2.3l5.826,2.4c3.734,1.614,7.174,3.187,10.389,4.436a61.538,61.538,0,0,0,8.831,2.808,37.155,37.155,0,0,0,6.935.983,31.972,31.972,0,0,0,4.422-.154l1.137-.14Z" transform="translate(100.342 -195.933)" fill="#263238"/>
        </g>
        <g id="freepik--Character--inject-2" transform="translate(43.522 120.001)">
          <path id="Path_3860" data-name="Path 3860" d="M206.77,251.263c-5.616-30.718-9.392-35.435-12.565-46.006s-8.213-17.437-14.488-19.865c-4.212-1.629-25.369-9.252-32.725-6.725a92.307,92.307,0,0,0-20.4,10.249,27.319,27.319,0,0,0-10.642,13.618L104.72,234.219l19.767,19.655,9.912-21.059,10.754,25.27-1.586,25.481,61.674,16.594C210.8,291.176,209.957,268.685,206.77,251.263Z" transform="translate(-47.291 -121.508)" fill="#f99746"/>
          <g id="Group_27" data-name="Group 27" transform="translate(101.87 96.243)" opacity="0.2">
            <path id="Path_3861" data-name="Path 3861" d="M177.966,206.36c-2.724,15.991-3.159,18.251-5.882,34.185-.941,5.489-3.678,14.039-7.581,18.026-2.892,2.934-5.728,5.756-9.757,6.711-3.734.884-9.42.983-12.93-.562s-6.514-8.423-5.068-11.947c5.237,1.123,6.851,2.808,11.358,0,3.931-2.5,9.518-8.03,11.652-12.172,9-17.408,11.484-18.026,18.251-34.241" transform="translate(-136.375 -206.36)"/>
          </g>
          <path id="Path_3862" data-name="Path 3862" d="M139.409,236.839a38.907,38.907,0,0,1-2.724-4.212L130.339,222.2l-6.514-10.263a37.611,37.611,0,0,1-2.625-4.324,5.364,5.364,0,0,1,.884,1.039c.533.688,1.278,1.713,2.162,2.99,1.8,2.555,4.212,6.135,6.711,10.164s4.675,7.764,6.177,10.5c.758,1.4,1.4,2.471,1.741,3.257A4.451,4.451,0,0,1,139.409,236.839Z" transform="translate(-40.635 -109.612)" fill="#263238"/>
          <path id="Path_3863" data-name="Path 3863" d="M175.5,250.813a7.02,7.02,0,0,1-1.4.548,15.911,15.911,0,0,1-1.755.477,20.3,20.3,0,0,1-2.359.491,37.3,37.3,0,0,1-6.233.576,43.811,43.811,0,0,1-7.651-.66,43.055,43.055,0,0,1-7.4-2.092,39.434,39.434,0,0,1-5.616-2.724c-.786-.435-1.4-.913-2.022-1.292a16.292,16.292,0,0,1-1.474-1.081,6.489,6.489,0,0,1-1.165-1.025c.084-.112,1.825,1.249,4.914,2.948a44.4,44.4,0,0,0,5.616,2.541,43.03,43.03,0,0,0,14.811,2.71,46.064,46.064,0,0,0,6.163-.407C173.349,251.332,175.455,250.672,175.5,250.813Z" transform="translate(-33.679 -94.903)" fill="#263238"/>
          <path id="Path_3864" data-name="Path 3864" d="M165.072,221.287c-.112.548-6.739,13.744-6.739,13.744l-31.279-16.482-3.187-13.478a8.423,8.423,0,0,0-10.136-6.205l-9.224,3.777a2.471,2.471,0,0,0-1.516,1.783c-.126.674,0,1.4,1.221,1.249,2.288-.182,7.02-.688,7.02-.688l-2.176,7.679a8.157,8.157,0,0,0,.618,6.023l1.4,2.653,3.047,4.928h-.07s30.409,31.237,47.48,33.273C171.8,260.765,183.421,232,183.421,232Z" transform="translate(-48.005 -113.237)" fill="#ffb27e"/>
          <path id="Path_3865" data-name="Path 3865" d="M108.69,203.934a3.292,3.292,0,0,1,.758-.674,4.071,4.071,0,0,1,2.373-.73,2.471,2.471,0,0,1,2.092,1.4c.295.632.1,1.053,0,1.025s0-.393-.337-.87a2.429,2.429,0,0,0-1.839-1.053,4.76,4.76,0,0,0-2.176.562C109.125,203.808,108.732,203.99,108.69,203.934Z" transform="translate(-45.688 -111.664)" fill="#aa6550"/>
          <path id="Path_3866" data-name="Path 3866" d="M112.809,207.619s-.211-.253-.505-.632a3.426,3.426,0,0,0-3.243-1.278c-.477,0-.772.168-.8.112s.225-.267.73-.435a3.145,3.145,0,0,1,3.58,1.4C112.823,207.268,112.851,207.6,112.809,207.619Z" transform="translate(-45.862 -110.561)" fill="#aa6550"/>
          <path id="Path_3867" data-name="Path 3867" d="M154.243,185.107l-8.423,40.138,22.463,13.492,8.62-24.667S173.28,184.11,154.243,185.107Z" transform="translate(-30.69 -118.711)" fill="#ed7d2b"/>
          <path id="Path_3868" data-name="Path 3868" d="M178.648,185.6a3.611,3.611,0,0,1-.576.365c-.393.211-.955.519-1.7.9-1.488.758-3.678,1.825-6.416,3.046a94.608,94.608,0,0,1-22.308,7.02,55.861,55.861,0,0,1-23.333-.786,39.647,39.647,0,0,1-6.655-2.4,13.527,13.527,0,0,1-1.727-.87,3.985,3.985,0,0,1-.576-.351,23.526,23.526,0,0,1,2.415.969,48.842,48.842,0,0,0,6.711,2.162,57.9,57.9,0,0,0,23.08.562,102.258,102.258,0,0,0,22.238-6.781c2.808-1.151,4.956-2.148,6.486-2.808a19.385,19.385,0,0,1,2.359-1.025Z" transform="translate(-42.994 -118.502)" fill="#ebebeb"/>
          <path id="Path_3869" data-name="Path 3869" d="M185.613,188.76a3.327,3.327,0,0,1-.632.449l-1.853,1.193a33.922,33.922,0,0,1-3.032,1.769c-1.207.632-2.555,1.4-4.141,2.106l-2.443,1.123c-.856.393-1.783.716-2.724,1.1-1.867.772-3.945,1.4-6.107,2.106a84.641,84.641,0,0,1-29.271,3.468c-2.274-.183-4.436-.309-6.43-.632-1.011-.154-1.98-.253-2.906-.421l-2.653-.534c-1.685-.295-3.187-.744-4.507-1.081a33.825,33.825,0,0,1-3.355-1l-2.092-.73a2.975,2.975,0,0,1-.716-.295,2.654,2.654,0,0,1,.758.154l2.134.59c.913.281,2.036.6,3.369.884s2.808.716,4.521.969l2.639.477c.913.168,1.881.253,2.808.379,1.994.295,4.212.407,6.388.562a87.2,87.2,0,0,0,29.061-3.44c2.148-.674,4.212-1.278,6.079-2.036.927-.365,1.853-.674,2.71-1.039l2.457-1.081c1.586-.646,2.934-1.4,4.212-1.994a33.654,33.654,0,0,0,3.075-1.643L184.9,189.1a2.961,2.961,0,0,1,.716-.337Z" transform="translate(-44.048 -117.226)" fill="#ebebeb"/>
          <path id="Path_3870" data-name="Path 3870" d="M168.634,238.965a14.624,14.624,0,0,1-1.825-.927l-4.942-2.808L145.021,225.5l-.211-.126v-.239c.6-2.99,1.249-6.219,1.923-9.533,1.011-5,1.994-9.743,2.808-14.039.463-2.162.842-4.212,1.263-6.163a22.253,22.253,0,0,1,1.8-5.209,10.543,10.543,0,0,1,5.812-5.321,6.443,6.443,0,0,1,2.148-.351,2.078,2.078,0,0,1,.744.084,9.308,9.308,0,0,0-2.808.534,10.473,10.473,0,0,0-5.447,5.279,22.634,22.634,0,0,0-1.671,5.124c-.379,1.923-.772,3.987-1.193,6.135-.87,4.352-1.825,9.1-2.808,14.039-.674,3.327-1.334,6.542-1.937,9.533l-.168-.365,16.749,9.954,4.843,2.948A12.718,12.718,0,0,1,168.634,238.965Z" transform="translate(-31.098 -118.94)" fill="#263238"/>
          <path id="Path_3871" data-name="Path 3871" d="M168.524,204.88a14.614,14.614,0,0,1-.112,3.748,56.151,56.151,0,0,1-1.6,8.887,58.558,58.558,0,0,1-2.976,8.536,14.517,14.517,0,0,1-1.755,3.313,26.755,26.755,0,0,1,1.278-3.51,83.5,83.5,0,0,0,4.549-17.3A29.383,29.383,0,0,1,168.524,204.88Z" transform="translate(-24.123 -110.715)" fill="#263238"/>
          <path id="Path_3872" data-name="Path 3872" d="M86.407,363.91l-.253,21.424s-21.873,6.949-22.294,10.908l41.528,1.965,1.769-33.371Z" transform="translate(-63.795 -46.481)" fill="#455a64"/>
          <path id="Path_3873" data-name="Path 3873" d="M89.6,378.334a1.7,1.7,0,0,1,1.081,1.993,1.629,1.629,0,0,1-1.965,1.1,1.811,1.811,0,0,1-1.137-2.12,1.7,1.7,0,0,1,2.176-.9" transform="translate(-54.237 -40.674)" fill="#e0e0e0"/>
          <path id="Path_3874" data-name="Path 3874" d="M105.406,389.491v-3.369l-39.843-.632s-1.9.716-1.741,2.036Z" transform="translate(-63.814 -37.765)" fill="#e0e0e0"/>
          <path id="Path_3875" data-name="Path 3875" d="M79.27,379.046c0,.2,1.011.337,1.965,1.039s1.4,1.572,1.657,1.5,0-1.25-1.249-2.078S79.228,378.85,79.27,379.046Z" transform="translate(-57.571 -40.432)" fill="#263238"/>
          <path id="Path_3876" data-name="Path 3876" d="M76.1,380.149c0,.2.814.59,1.4,1.474s.8,1.811,1.011,1.811.379-1.137-.449-2.232S76.114,379.967,76.1,380.149Z" transform="translate(-58.851 -39.949)" fill="#263238"/>
          <path id="Path_3877" data-name="Path 3877" d="M74.591,384.776c.183,0,.519-.941,0-2.078s-1.4-1.615-1.488-1.4.463.786.828,1.727S74.366,384.748,74.591,384.776Z" transform="translate(-60.065 -39.479)" fill="#263238"/>
          <path id="Path_3878" data-name="Path 3878" d="M79.691,375.7c.084.2,1.025,0,2.176.084s2.008.548,2.12.379-.7-.941-2.05-1.081S79.607,375.549,79.691,375.7Z" transform="translate(-57.402 -41.975)" fill="#263238"/>
          <g id="Group_28" data-name="Group 28" transform="translate(22.514 321.669)" opacity="0.3">
            <path id="Path_3879" data-name="Path 3879" d="M79.906,366.93l-.056,3.819,20.427.786.183-3.44Z" transform="translate(-79.85 -366.93)"/>
          </g>
          <path id="Path_3880" data-name="Path 3880" d="M79.79,373.33a3.847,3.847,0,0,0,2.078.1,9.014,9.014,0,0,0,2.2-.576,7.992,7.992,0,0,0,1.221-.576,2.5,2.5,0,0,0,.66-.449.884.884,0,0,0,.14-1.081,1.137,1.137,0,0,0-.87-.505,2.81,2.81,0,0,0-.786.07,7.432,7.432,0,0,0-1.306.379,7.678,7.678,0,0,0-1.98,1.165c-1.011.856-1.4,1.6-1.306,1.643s.59-.548,1.6-1.235a8.633,8.633,0,0,1,1.909-.955A7.975,7.975,0,0,1,84.563,371c.449-.1.828-.084.927.112s0,.112,0,.239a2.5,2.5,0,0,1-.477.337c-.379.211-.758.407-1.123.576a11.946,11.946,0,0,1-2.05.674A16.108,16.108,0,0,0,79.79,373.33Z" transform="translate(-57.361 -43.925)" fill="#263238"/>
          <path id="Path_3881" data-name="Path 3881" d="M80.714,374.579a3.313,3.313,0,0,0,.632-1.98,6.6,6.6,0,0,0-.168-2.288,6.53,6.53,0,0,0-.477-1.292,1.713,1.713,0,0,0-1.278-1.109.941.941,0,0,0-.884.534,2.528,2.528,0,0,0-.253.758,4.7,4.7,0,0,0,0,1.4,4.76,4.76,0,0,0,.786,2.19c.758,1.123,1.6,1.4,1.615,1.334a8.358,8.358,0,0,1-1.193-1.586,4.759,4.759,0,0,1-.562-1.98,4.436,4.436,0,0,1,.1-1.207c.084-.435.267-.786.435-.73a1.473,1.473,0,0,1,.688.716,6.584,6.584,0,0,1,.463,1.151,7.469,7.469,0,0,1,.309,2.092C80.812,373.793,80.559,374.537,80.714,374.579Z" transform="translate(-57.99 -44.866)" fill="#263238"/>
          <path id="Path_3882" data-name="Path 3882" d="M170.6,261.576S105.706,234.34,85.63,233.2C73,232.473,63.5,240.56,65.218,253.588,66.074,260.116,84,336.419,84,336.419l27.32-12.467L98.181,271.179,151.53,297.1Z" transform="translate(-63.327 -99.293)" fill="#263238"/>
          <path id="Path_3883" data-name="Path 3883" d="M82.834,250.732c-.211.183,1.937,2.948,4.212,6.612s3.791,6.823,4.043,6.725-.913-3.482-3.229-7.216S83.073,250.564,82.834,250.732Z" transform="translate(-56.137 -92.198)" fill="#455a64"/>
          <path id="Path_3884" data-name="Path 3884" d="M79.051,252.9c-.14.239,3.131,2.316,7.02,5.152s6.809,5.321,7.02,5.124-2.6-3.1-6.5-5.91S79.164,252.671,79.051,252.9Z" transform="translate(-57.661 -91.328)" fill="#455a64"/>
          <path id="Path_3885" data-name="Path 3885" d="M216.645,269.77s-8.157,10.515-15.934,13.393c-9.827,3.608-82.073,37.709-82.073,37.709s-13.113,97.417-12.074,93.346l-30.254-.73L79.6,323.764c.393-11.484,9.6-24.681,19.5-30.549L166.034,253.4Z" transform="translate(-58.766 -91.117)" fill="#263238"/>
          <path id="Path_3886" data-name="Path 3886" d="M78.255,338.829a4.746,4.746,0,0,0,.126-1.235c0-.9.112-2.064.183-3.524a121.093,121.093,0,0,1,1.207-12.9,44.293,44.293,0,0,1,6.57-17.745,33.9,33.9,0,0,1,7.778-8.03,93.423,93.423,0,0,1,10.263-6.5c14.559-8.339,27.124-16.847,36.417-22.673,4.633-2.948,8.423-5.293,11.007-6.893l3-1.853a6.461,6.461,0,0,0,1.025-.7,6.121,6.121,0,0,0-1.109.533c-.716.379-1.769.941-3.1,1.7-2.681,1.5-6.5,3.777-11.231,6.641-9.392,5.7-22.027,14.109-36.5,22.463a93.043,93.043,0,0,0-10.361,6.584,34.339,34.339,0,0,0-7.946,8.283,44.433,44.433,0,0,0-6.472,18.181,101.084,101.084,0,0,0-.9,12.986c0,1.4,0,2.625,0,3.538A6.445,6.445,0,0,0,78.255,338.829Z" transform="translate(-58.001 -89.756)" fill="#455a64"/>
          <path id="Path_3887" data-name="Path 3887" d="M158.966,277.992a22.827,22.827,0,0,0-1.853-2.485,18.166,18.166,0,0,1-2.808-14.039,22.718,22.718,0,0,0,.73-3.018,6.766,6.766,0,0,0-1.4,2.808,16.1,16.1,0,0,0-.309,7.665,15.893,15.893,0,0,0,3.257,6.935C157.857,277.473,158.91,278.077,158.966,277.992Z" transform="translate(-27.79 -89.077)" fill="#455a64"/>
          <path id="Path_3888" data-name="Path 3888" d="M84.238,412.482a1.9,1.9,0,0,0,.084-.491c0-.393.112-.87.183-1.474.154-1.4.351-3.257.6-5.616.491-5,1.193-12.116,2.064-20.876.407-4.408.87-9.238,1.4-14.418s1.025-10.726,1.4-16.566a178.1,178.1,0,0,1,2.064-18.251,74.688,74.688,0,0,1,5.616-18.742,63.177,63.177,0,0,1,10.979-16.1,99.821,99.821,0,0,1,13.7-12.074,277.158,277.158,0,0,1,26.267-16.384c7.679-4.408,13.8-8.171,17.858-11.007,2.05-1.4,3.594-2.541,4.633-3.341l1.165-.913q.393-.309.379-.337a1.781,1.781,0,0,0-.435.253l-1.221.842c-1.067.744-2.653,1.839-4.717,3.2-4.128,2.724-10.277,6.388-18,10.726a263.783,263.783,0,0,0-26.45,16.257,98.667,98.667,0,0,0-13.871,12.144,63.6,63.6,0,0,0-11.161,16.342,75.375,75.375,0,0,0-5.616,18.967c-1.053,6.318-1.586,12.453-2.022,18.251s-.87,11.386-1.4,16.566-.87,10.01-1.249,14.432c-.744,8.774-1.4,15.892-1.755,20.9q-.281,3.622-.421,5.616c0,.6-.07,1.1-.1,1.474A1.57,1.57,0,0,0,84.238,412.482Z" transform="translate(-55.576 -90.111)" fill="#455a64"/>
          <path id="Path_3889" data-name="Path 3889" d="M146.411,145.575a11.835,11.835,0,0,0-13.52-7.286,14.039,14.039,0,0,1-3.762.814,26.859,26.859,0,0,1-4.577-1.207,6.879,6.879,0,0,0-7.75,5.026,9.336,9.336,0,0,0-7.707,1.53,6.051,6.051,0,0,0-1.811,7.272c.548,1.025,1.4,1.839,1.951,2.892.828,1.727.449,3.8,1.025,5.616a7.581,7.581,0,0,0,6.542,4.689,22.28,22.28,0,0,0,8.423-1.193" transform="translate(-46.472 -137.806)" fill="#263238"/>
          <path id="Path_3890" data-name="Path 3890" d="M130.586,198.226c-.351-2.724-.576-4.633-.576-4.633s-9.055,0-12.635-11.231c-1.811-5.616-3.018-14.994-3.748-22.743a12.284,12.284,0,0,1,11.582-13.449l24.035-1.249.519,3.72,6.332,46.217a12.832,12.832,0,0,1-11.049,14.46h0a12.86,12.86,0,0,1-14.46-11.091Z" transform="translate(-43.717 -134.933)" fill="#ffb27e"/>
          <path id="Path_3896" data-name="Path 3896" d="M125.28,181.476a29.609,29.609,0,0,0,14.741-6.556s-2.5,8.536-14.165,9.252Z" transform="translate(-38.987 -122.816)" fill="#aa6550"/>
          <path id="Path_3900" data-name="Path 3900" d="M113.025,155.734s6.36,2.148,13.66-2.738c4.787-3.2,10.6-5.209,12.046-4.338s2.387,6.093,7.651,7.02c0,0,.927,10.108,4.9,9.238,2.808-.618,1.179-11.765,0-18.124a5.616,5.616,0,0,0-5.251-4.507l-7.4-.295-9.238,2.583-9.912,2.7-7.553,3.159Z" transform="translate(-44.379 -136.117)" fill="#263238"/>
          <path id="Path_3901" data-name="Path 3901" d="M139.33,155.638c.14-.1,6.275-3.327,7.413,3.369s-5.812,6.444-5.868,6.261S139.33,155.638,139.33,155.638Z" transform="translate(-33.312 -130.953)" fill="#ffb27e"/>
          <path id="Path_3902" data-name="Path 3902" d="M141.669,161.773a2.033,2.033,0,0,0,.351.126,1.193,1.193,0,0,0,.87-.126,2.962,2.962,0,0,0,.9-2.808,3.987,3.987,0,0,0-.6-1.614,1.4,1.4,0,0,0-1.039-.744.6.6,0,0,0-.632.435v.351c0,.028-.154-.1-.154-.379a.772.772,0,0,1,.2-.463.913.913,0,0,1,.618-.281,1.657,1.657,0,0,1,1.4.828,3.945,3.945,0,0,1,.716,1.8,3.046,3.046,0,0,1-1.207,3.187,1.278,1.278,0,0,1-1.1,0C141.711,161.942,141.655,161.8,141.669,161.773Z" transform="translate(-32.492 -130.349)" fill="#aa6550"/>
          <path id="Path_3903" data-name="Path 3903" d="M115,139.695a7.093,7.093,0,0,0,.7.9,5.77,5.77,0,0,0,2.527,1.629,8.424,8.424,0,0,0,4.464.2,41.458,41.458,0,0,0,5.405-1.713,14.783,14.783,0,0,1,5.728-1.025,6.346,6.346,0,0,1,4.366,1.965,4.633,4.633,0,0,1,1.334,2.92,1.923,1.923,0,0,1-.2,1.165,8.69,8.69,0,0,1-.084-1.137,4.675,4.675,0,0,0-1.4-2.6,5.911,5.911,0,0,0-4.015-1.643,14.938,14.938,0,0,0-5.461,1.039,35.1,35.1,0,0,1-5.517,1.685,8.62,8.62,0,0,1-4.759-.365,5.616,5.616,0,0,1-2.583-1.937A1.944,1.944,0,0,1,115,139.695Z" transform="translate(-43.139 -137.05)" fill="#455a64"/>
          <path id="Path_3904" data-name="Path 3904" d="M140.133,144.942a7.622,7.622,0,0,0-1.039-.842,6.3,6.3,0,0,0-3.327-.927,10.908,10.908,0,0,0-5.11,1.249,52.954,52.954,0,0,1-6.093,2.808,15.148,15.148,0,0,1-11.989-1.306,13.168,13.168,0,0,1-2.962-2.274,3.945,3.945,0,0,1-.842-1.067,23.628,23.628,0,0,0,4.043,2.878,15.232,15.232,0,0,0,11.526,1.081,65.345,65.345,0,0,0,6.037-2.808,10.81,10.81,0,0,1,5.419-1.151,6.107,6.107,0,0,1,3.51,1.278,2.569,2.569,0,0,1,.828,1.081Z" transform="translate(-45.655 -135.882)" fill="#455a64"/>
          <path id="Path_3905" data-name="Path 3905" d="M128.773,233.513l-32.6-27.783L85.42,208.159s11.33,23.558,19.528,32.192c0,0,8.1,10.838,21.466,6.149S128.773,233.513,128.773,233.513Z" transform="translate(-55.087 -110.371)" fill="#ffb27e"/>
          <path id="Path_3906" data-name="Path 3906" d="M96.265,183.93H82.409a3.524,3.524,0,0,0-3.215,4.422L93.135,215.49a3.145,3.145,0,0,0,2.808,1.713h16.847a2.415,2.415,0,0,0,1.839-3.58l-13.435-26.576A5.616,5.616,0,0,0,96.265,183.93Z" transform="translate(-57.649 -119.177)" fill="#455a64"/>
          <path id="Path_3907" data-name="Path 3907" d="M95.317,185.1H81.461a2.316,2.316,0,0,0-2.078,3.369l13.6,26.548a3.173,3.173,0,0,0,2.808,1.713H112.5a1.4,1.4,0,0,0,1.221-1.98l-13.449-26.562A5.517,5.517,0,0,0,95.317,185.1Z" transform="translate(-57.627 -118.704)" fill="#263238"/>
          <path id="Path_3908" data-name="Path 3908" d="M92.76,193l-8.423,3.369-1.8,6.795L86.6,213.272l14.839,2.19-4.352-4.45.548-3.889s4.212-1.306,4.212-1.937-.519-2.808-1.151-2.878a31.993,31.993,0,0,0-4.872,1.53s5.152-4.085,5.012-4.745-.7-2.33-1.727-2.527-9.364,3.748-9.364,3.748l-1.4,3.075-1.179-4.928S94.586,196.383,92.76,193Z" transform="translate(-56.25 -115.513)" fill="#b78876"/>
          <path id="Path_3909" data-name="Path 3909" d="M90.675,205.857a1.985,1.985,0,0,1-.295-.842,4.591,4.591,0,0,1,1.4-3.9c.421-.365.744-.491.772-.449A9.168,9.168,0,0,0,91,203.049a9.308,9.308,0,0,0-.323,2.808Z" transform="translate(-53.097 -112.421)" fill="#aa6550"/>
          <path id="Path_3910" data-name="Path 3910" d="M87.72,205.952a15.7,15.7,0,0,0,.337-2.2,9.589,9.589,0,0,1,.421-2.443,3.341,3.341,0,0,1,2.162-2.176c2.008-.73,3.833-1.32,5.152-1.755a12.465,12.465,0,0,1,2.176-.6,10.443,10.443,0,0,1-2.064.9c-1.306.505-3.131,1.151-5.11,1.867a3.341,3.341,0,0,0-1.235.758,3.257,3.257,0,0,0-.7,1.151,10.01,10.01,0,0,0-.491,2.345,4.478,4.478,0,0,1-.646,2.162Z" transform="translate(-54.158 -113.99)" fill="#aa6550"/>
          <path id="Path_3911" data-name="Path 3911" d="M86.369,203.167a3.552,3.552,0,0,1,0-1.671c.154-.9.365-1.6.491-1.586a3.579,3.579,0,0,1,0,1.671C86.706,202.479,86.5,203.181,86.369,203.167Z" transform="translate(-54.744 -112.722)" fill="#aa6550"/>
          <path id="Path_3912" data-name="Path 3912" d="M86.18,189.259A1.755,1.755,0,1,0,86.694,188,1.769,1.769,0,0,0,86.18,189.259Z" transform="translate(-54.78 -117.739)" fill="#fafafa"/>
          <path id="Path_3950" data-name="Path 3950" d="M2.966,1.232c1.756,0,3.833-.168,3.833,1.2S4.722,5.306,2.966,5.306s-3.7-.637-3.7-2S1.21,1.232,2.966,1.232Z" transform="translate(78.968 45.692)" fill="#fff"/>
        </g>
      </g>
      <g id="freepik--Plant--inject-2" transform="translate(0 459.104)">
        <path id="Path_3913" data-name="Path 3913" d="M53.955,379.365a17.1,17.1,0,0,1,10.22,8.662,30.156,30.156,0,0,1,3.131,13.295c.281,8.873-3.4,18.419-7.736,26.183-8.3-5.335-11.61-16.356-12.958-21.971-2.106-8.957-.491-26.422,7.342-26.183" transform="translate(-27.58 -379.348)" fill="#4eb848"/>
        <path id="Path_3914" data-name="Path 3914" d="M63.434,429.072A14.615,14.615,0,0,1,66.1,414.654a19.346,19.346,0,0,1,13.52-6.472c2.359-.169,5,.14,6.612,1.881a6.247,6.247,0,0,1,1.011,6.247,12.635,12.635,0,0,1-3.973,5.237c-5.8,4.942-12.312,8.648-19.837,7.525" transform="translate(-20.788 -367.719)" fill="#4eb848"/>
        <path id="Path_3915" data-name="Path 3915" d="M59.264,454.578a8.734,8.734,0,0,1,0-1.825c0-1.306.112-2.976.183-4.984a51.341,51.341,0,0,1,2.808-16.243,31.391,31.391,0,0,1,9.406-13.449,21.659,21.659,0,0,1,4.212-2.667c.533-.267.983-.393,1.264-.519s.449-.154.463-.126A29.187,29.187,0,0,0,62.83,431.75,55.273,55.273,0,0,0,59.924,447.8c-.14,2.092-.267,3.791-.379,4.97a11.1,11.1,0,0,1-.281,1.811Z" transform="translate(-22.149 -365.048)" fill="#263238"/>
        <path id="Path_3916" data-name="Path 3916" d="M51.568,388.91a5.516,5.516,0,0,1,.2.772q.183.87.463,2.232c.393,1.937.927,4.759,1.544,8.241,1.249,7.02,2.808,16.636,4.338,27.334s2.667,20.413,3.4,27.46c.365,3.524.632,6.374.8,8.353q.1,1.4.168,2.274a2.569,2.569,0,0,1,0,.786,4.491,4.491,0,0,1-.14-.786c-.07-.576-.168-1.32-.295-2.26-.253-2.036-.59-4.858-1.011-8.311-.842-7.02-2.064-16.735-3.566-27.432s-3.018-20.286-4.142-27.306c-.562-3.44-1.011-6.247-1.4-8.283-.14-.927-.253-1.671-.351-2.246a3.131,3.131,0,0,1,0-.828Z" transform="translate(-25.249 -375.486)" fill="#263238"/>
        <path id="Path_3917" data-name="Path 3917" d="M63.5,434.689a34.129,34.129,0,0,0-22-22.069c-2.639-.828-5.953-1.123-7.721,1s-.814,5.349.548,7.75A29.145,29.145,0,0,0,63.484,435.4" transform="translate(-32.813 -366.161)" fill="#4eb848"/>
        <path id="Path_3918" data-name="Path 3918" d="M40.67,418.22a9.434,9.434,0,0,1,1.657.449,16.222,16.222,0,0,1,1.9.688c.73.323,1.586.6,2.457,1.081A31.073,31.073,0,0,1,49.487,422a36.51,36.51,0,0,1,3.1,2.092,35.28,35.28,0,0,1,10.726,13.169,33.459,33.459,0,0,1,1.4,3.468,25.9,25.9,0,0,1,.913,3.117,23.782,23.782,0,0,1,.505,2.639,15.92,15.92,0,0,1,.239,2.008A10.052,10.052,0,0,1,66.4,450.2c-.154,0-.253-2.457-1.249-6.261a30.967,30.967,0,0,0-.955-3.047,32.165,32.165,0,0,0-1.4-3.4,38.723,38.723,0,0,0-4.507-7.02,40.014,40.014,0,0,0-6.037-5.868,35.67,35.67,0,0,0-3.018-2.092,29.791,29.791,0,0,0-2.808-1.615C42.987,419.034,40.614,418.346,40.67,418.22Z" transform="translate(-29.64 -363.648)" fill="#263238"/>
      </g>
    </g>
    <g id="money" transform="translate(1063.47 2899.747)">
      <path id="Path_3919" data-name="Path 3919" d="M127.262,102.054H6.06A6.078,6.078,0,0,1,0,95.994V29.332a6.078,6.078,0,0,1,6.06-6.06h121.2a6.078,6.078,0,0,1,6.06,6.06V95.994A6.078,6.078,0,0,1,127.262,102.054Z" transform="translate(0 -23.272)" fill="#0e9347"/>
      <path id="Path_3920" data-name="Path 3920" d="M293.7,232.727a20.28,20.28,0,0,0-16.968,8.787,22.6,22.6,0,0,0-10.3-2.727,21.2,21.2,0,0,0-20.907,18.18h63.328a6.163,6.163,0,0,0,6.06-5.151A21.584,21.584,0,0,0,293.7,232.727Z" transform="translate(-181.593 -178.186)" fill="#0d8944"/>
      <path id="Path_3921" data-name="Path 3921" d="M132.355,113.207H35.393a12.156,12.156,0,0,0-12.12-12.12V58.666a12.156,12.156,0,0,0,12.12-12.12h96.962a12.156,12.156,0,0,0,12.12,12.12v42.421A12.156,12.156,0,0,0,132.355,113.207Z" transform="translate(-17.213 -40.486)" fill="#3bb54a"/>
      <g id="Group_31" data-name="Group 31" transform="translate(24.241 12.12)">
        <path id="Path_3922" data-name="Path 3922" d="M298.869,232.727a20.28,20.28,0,0,0-16.968,8.787,22.6,22.6,0,0,0-10.3-2.727,20.815,20.815,0,0,0-19.089,12.12H301.9a12.093,12.093,0,0,1,11.817-12.12A21.9,21.9,0,0,0,298.869,232.727Z" transform="translate(-210.997 -190.306)" fill="#0e9347"/>
        <ellipse id="Ellipse_3" data-name="Ellipse 3" cx="24.241" cy="27.27" rx="24.241" ry="27.27" transform="translate(18.18 0)" fill="#0e9347"/>
        <circle id="Ellipse_4" data-name="Ellipse 4" cx="6.06" cy="6.06" r="6.06" transform="translate(0 21.21)" fill="#0e9347"/>
        <circle id="Ellipse_5" data-name="Ellipse 5" cx="6.06" cy="6.06" r="6.06" transform="translate(72.721 21.21)" fill="#0e9347"/>
      </g>
      <path id="Path_3923" data-name="Path 3923" d="M224.605,119.879h-6.06a3.03,3.03,0,1,1,0-6.06h9.09a3.03,3.03,0,0,0,0-6.06h-3.03a3.03,3.03,0,1,0-6.06,0,9.09,9.09,0,0,0,0,18.18h6.06a3.03,3.03,0,0,1,0,6.06h-9.09a3.03,3.03,0,1,0,0,6.06h3.03a3.03,3.03,0,1,0,6.06,0,9.09,9.09,0,0,0,0-18.18Z" transform="translate(-154.914 -83.518)" fill="#89c763"/>
      <circle id="Ellipse_6" data-name="Ellipse 6" cx="21.211" cy="21.211" r="21.211" transform="translate(57.571 60.601)" fill="#ffca5d"/>
      <circle id="Ellipse_7" data-name="Ellipse 7" cx="21.211" cy="21.211" r="21.211" transform="translate(84.842 54.541)" fill="#f6b545"/>
      <path id="Path_3924" data-name="Path 3924" d="M347.029,232.727a21.211,21.211,0,1,0,21.211,21.211A21.08,21.08,0,0,0,347.029,232.727Zm0,36.361a15.15,15.15,0,1,1,15.15-15.15A15,15,0,0,1,347.029,269.088Z" transform="translate(-240.976 -178.186)" fill="#ffcb5b"/>
      <path id="Path_3925" data-name="Path 3925" d="M407.273,335.089h0a20.826,20.826,0,0,0,21.211-20.907h-.3a3.222,3.222,0,0,0-3.03,2.727,18.319,18.319,0,0,1-5.757,10.908A17.167,17.167,0,0,1,410,332.362,2.716,2.716,0,0,0,407.273,335.089Z" transform="translate(-301.221 -238.43)" fill="#f6b545"/>
      <path id="Path_3926" data-name="Path 3926" d="M347.029,233.871h0a20.826,20.826,0,0,0-21.211,20.907h.3a3.222,3.222,0,0,0,3.03-2.727,18.32,18.32,0,0,1,5.757-10.908A17.17,17.17,0,0,1,344.3,236.6,2.716,2.716,0,0,0,347.029,233.871Z" transform="translate(-240.976 -179.027)" fill="#ffe27a"/>
      <path id="Path_3927" data-name="Path 3927" d="M351.212,273.271a15,15,0,0,1,15.15-15.15,14.292,14.292,0,0,1,9.7,3.636,15.1,15.1,0,0,0-26.967,9.393,14.527,14.527,0,0,0,5.454,11.514A14.211,14.211,0,0,1,351.212,273.271Z" transform="translate(-258.189 -195.399)" fill="#f19920"/>
      <path id="Path_3928" data-name="Path 3928" d="M438.309,319.272a1.113,1.113,0,0,1-.909-.3,1.465,1.465,0,0,1,0-2.121,10.113,10.113,0,0,0,2.727-6.969,1.515,1.515,0,1,1,3.03,0,13.992,13.992,0,0,1-3.333,9.09A3.294,3.294,0,0,1,438.309,319.272Z" transform="translate(-323.167 -234.127)" fill="#ffcb5b"/>
      <g id="Group_32" data-name="Group 32" transform="translate(85.144 60.601)">
        <path id="Path_3929" data-name="Path 3929" d="M398.667,297.454a2.863,2.863,0,0,1-3.03-3.03V282.3a3.03,3.03,0,0,1,6.06,0v12.12A2.863,2.863,0,0,1,398.667,297.454Z" transform="translate(-377.759 -273.214)" fill="#f19920"/>
        <path id="Path_3930" data-name="Path 3930" d="M359.1,289.028a24.619,24.619,0,0,0-14.544-16.362A25.332,25.332,0,0,0,333.041,256a21.9,21.9,0,0,0-6.06,14.847,21.08,21.08,0,0,0,21.211,21.211A17.572,17.572,0,0,0,359.1,289.028Z" transform="translate(-326.981 -256)" fill="#f19920"/>
      </g>
      <g id="Group_33" data-name="Group 33" transform="translate(90.902 64.541)">
        <path id="Path_3931" data-name="Path 3931" d="M354.544,293.853a15.939,15.939,0,0,1-3.636-9.7,14.669,14.669,0,0,1,4.848-10.908,13.174,13.174,0,0,0-1.818-2.121,14.845,14.845,0,0,0-4.848,11.211A14.528,14.528,0,0,0,354.544,293.853Z" transform="translate(-349.09 -271.128)" fill="#e78825"/>
        <path id="Path_3932" data-name="Path 3932" d="M395.636,321.164v4.242a3.03,3.03,0,0,0,6.06,0V324.8A24.757,24.757,0,0,0,395.636,321.164Z" transform="translate(-383.516 -308.135)" fill="#e78825"/>
      </g>
      <path id="Path_3933" data-name="Path 3933" d="M358.24,289.887a19.369,19.369,0,0,0-2.424-5.757,14.662,14.662,0,0,1-8.787,3.03,15,15,0,0,1-15.15-15.15,14.845,14.845,0,0,1,4.848-11.211,18.485,18.485,0,0,0-4.848-3.636,21.9,21.9,0,0,0-6.06,14.847,21.08,21.08,0,0,0,21.211,21.211A20.314,20.314,0,0,0,358.24,289.887Z" transform="translate(-240.976 -196.258)" fill="#f6b545"/>
      <path id="Path_3934" data-name="Path 3934" d="M417.574,372.364a20.944,20.944,0,0,1-7.575,3.03,3.222,3.222,0,0,0-2.727,3.03h0a20.319,20.319,0,0,0,11.211-3.333Z" transform="translate(-301.22 -281.462)" fill="#f19920"/>
      <path id="Path_3935" data-name="Path 3935" d="M331.878,257.164a21.9,21.9,0,0,0-6.06,14.847h.3a3.222,3.222,0,0,0,3.03-2.727,18.854,18.854,0,0,1,5.454-10.605A12.291,12.291,0,0,1,331.878,257.164Z" transform="translate(-240.976 -196.259)" fill="#ffcb5b"/>
      <circle id="Ellipse_8" data-name="Ellipse 8" cx="21.211" cy="21.211" r="21.211" transform="translate(57.571 60.601)" fill="#f6b545"/>
      <path id="Path_3936" data-name="Path 3936" d="M290.909,335.391a21,21,0,0,0,.909,6.06h2.121a21.138,21.138,0,0,0,20.3-27.271H312.12A21.08,21.08,0,0,0,290.909,335.391Z" transform="translate(-215.158 -238.429)" fill="#f19920"/>
      <path id="Path_3937" data-name="Path 3937" d="M242.3,256a21.211,21.211,0,1,0,21.21,21.211A21.08,21.08,0,0,0,242.3,256Zm0,36.361a15.15,15.15,0,1,1,15.15-15.15A15,15,0,0,1,242.3,292.361Z" transform="translate(-163.519 -195.399)" fill="#ffcb5b"/>
      <path id="Path_3938" data-name="Path 3938" d="M302.545,358.362h0a20.825,20.825,0,0,0,21.211-20.907h-.3a3.222,3.222,0,0,0-3.03,2.727,18.319,18.319,0,0,1-5.757,10.908,17.169,17.169,0,0,1-9.393,4.545A2.715,2.715,0,0,0,302.545,358.362Z" transform="translate(-223.764 -255.643)" fill="#f6b545"/>
      <path id="Path_3939" data-name="Path 3939" d="M242.3,257.144h0a20.826,20.826,0,0,0-21.211,20.907h.3a3.222,3.222,0,0,0,3.03-2.727,18.32,18.32,0,0,1,5.757-10.908,17.169,17.169,0,0,1,9.393-4.545A2.716,2.716,0,0,0,242.3,257.144Z" transform="translate(-163.519 -196.24)" fill="#ffe27a"/>
      <path id="Path_3940" data-name="Path 3940" d="M246.484,296.544a15,15,0,0,1,15.15-15.15,14.292,14.292,0,0,1,9.7,3.636,15.1,15.1,0,0,0-26.968,9.393,14.527,14.527,0,0,0,5.454,11.514A14.212,14.212,0,0,1,246.484,296.544Z" transform="translate(-180.732 -212.611)" fill="#f19920"/>
      <path id="Path_3941" data-name="Path 3941" d="M333.582,342.544a1.113,1.113,0,0,1-.909-.3,1.465,1.465,0,0,1,0-2.121,10.113,10.113,0,0,0,2.727-6.969,1.515,1.515,0,0,1,3.03,0,13.991,13.991,0,0,1-3.333,9.09A3.294,3.294,0,0,1,333.582,342.544Z" transform="translate(-245.71 -251.339)" fill="#ffcb5b"/>
      <path id="Path_3942" data-name="Path 3942" d="M293.939,320.727a2.863,2.863,0,0,1-3.03-3.03v-12.12a3.03,3.03,0,1,1,6.06,0V317.7A2.862,2.862,0,0,1,293.939,320.727Z" transform="translate(-215.158 -229.825)" fill="#f19920"/>
      <g id="Group_34" data-name="Group 34" transform="translate(72.721 75.751)">
        <path id="Path_3943" data-name="Path 3943" d="M307.878,314.484a17.721,17.721,0,0,1,1.212,5.757,15,15,0,0,1-15.15,15.15,10.305,10.305,0,0,1-3.03-.3v.3a21,21,0,0,0,.909,6.06h2.121a21.138,21.138,0,0,0,20.3-27.271h-2.121A20.034,20.034,0,0,0,307.878,314.484Z" transform="translate(-287.88 -314.181)" fill="#f6b545"/>
        <circle id="Ellipse_9" data-name="Ellipse 9" cx="21.211" cy="21.211" r="21.211" transform="translate(0 3.03)" fill="#f6b545"/>
      </g>
      <path id="Path_3944" data-name="Path 3944" d="M300.482,325.818a21.211,21.211,0,1,0,21.211,21.211A21.08,21.08,0,0,0,300.482,325.818Zm0,36.361a15.15,15.15,0,1,1,15.15-15.15A15,15,0,0,1,300.482,362.179Z" transform="translate(-206.551 -247.036)" fill="#ffcb5b"/>
      <path id="Path_3945" data-name="Path 3945" d="M360.727,428.18h0a20.826,20.826,0,0,0,21.211-20.907h-.3A3.222,3.222,0,0,0,378.6,410a18.32,18.32,0,0,1-5.757,10.908,17.169,17.169,0,0,1-9.393,4.545A2.715,2.715,0,0,0,360.727,428.18Z" transform="translate(-266.795 -307.281)" fill="#f6b545"/>
      <path id="Path_3946" data-name="Path 3946" d="M300.482,326.962h0a20.826,20.826,0,0,0-21.211,20.907h.3a3.222,3.222,0,0,0,3.03-2.727,18.32,18.32,0,0,1,5.757-10.908,17.169,17.169,0,0,1,9.393-4.545A2.715,2.715,0,0,0,300.482,326.962Z" transform="translate(-206.551 -247.878)" fill="#ffe27a"/>
      <path id="Path_3947" data-name="Path 3947" d="M304.666,366.362a15,15,0,0,1,15.15-15.15,14.292,14.292,0,0,1,9.7,3.636,15.1,15.1,0,0,0-26.968,9.393A14.527,14.527,0,0,0,308,375.755,14.211,14.211,0,0,1,304.666,366.362Z" transform="translate(-223.764 -264.249)" fill="#f19920"/>
      <path id="Path_3948" data-name="Path 3948" d="M391.763,412.362a1.113,1.113,0,0,1-.909-.3,1.465,1.465,0,0,1,0-2.121,10.113,10.113,0,0,0,2.727-6.969,1.515,1.515,0,1,1,3.03,0,13.991,13.991,0,0,1-3.333,9.09A3.293,3.293,0,0,1,391.763,412.362Z" transform="translate(-288.741 -302.977)" fill="#ffcb5b"/>
      <path id="Path_3949" data-name="Path 3949" d="M352.121,390.544a2.863,2.863,0,0,1-3.03-3.03v-12.12a3.03,3.03,0,0,1,6.06,0v12.12A2.863,2.863,0,0,1,352.121,390.544Z" transform="translate(-258.189 -281.462)" fill="#f19920"/>
    </g>
  </g>
</svg>
