<svg xmlns="http://www.w3.org/2000/svg" width="1040.552" height="775.438" viewBox="0 0 1040.552 775.438">
  <g id="g10" transform="translate(0 496.811)">
    <g id="g12" transform="translate(0 -496.811)">
      <path id="path14" d="M0-59.7H1040.552v-.52H0Z" transform="translate(0 741.666)" fill="#e7e8e5"/>
      <path id="path16" d="M555.7-38.756h68.93v.52H555.7v-.52" transform="translate(311.656 753.702)" fill="#e7e8e5"/>
      <path id="path18" d="M430.035-35.138h18.091v.52H430.035v-.52" transform="translate(241.177 755.731)" fill="#e7e8e5"/>
      <path id="path20" d="M528.78-51.137h39.94v.52H528.78v-.52" transform="translate(296.556 746.759)" fill="#e7e8e5"/>
      <path id="path22" d="M69.945-48.9h89.89v.52H69.945v-.52" transform="translate(39.227 748.015)" fill="#e7e8e5"/>
      <path id="path24" d="M139.408-48.9h13.18v.52h-13.18v-.52" transform="translate(78.184 748.015)" fill="#e7e8e5"/>
      <path id="path26" d="M175.294-42.748H370.243v-.52H175.294Z" transform="translate(98.311 751.172)" fill="#e7e8e5"/>
      <path id="path28" d="M62.822-496.291a11.37,11.37,0,0,0-11.359,11.357V79.944A11.371,11.371,0,0,0,62.822,91.3H464.681a11.37,11.37,0,0,0,11.357-11.358V-484.934a11.369,11.369,0,0,0-11.357-11.357H62.822M464.681,91.823H62.822A11.891,11.891,0,0,1,50.943,79.944V-484.934a11.893,11.893,0,0,1,11.879-11.877H464.681a11.893,11.893,0,0,1,11.877,11.877V79.944a11.891,11.891,0,0,1-11.877,11.878" transform="translate(28.57 496.811)" fill="#e7e8e5"/>
      <path id="path30" d="M351.216-496.291a11.369,11.369,0,0,0-11.356,11.357V79.944A11.37,11.37,0,0,0,351.216,91.3H753.073a11.372,11.372,0,0,0,11.361-11.358V-484.934a11.372,11.372,0,0,0-11.361-11.357H351.216M753.073,91.823H351.216a11.89,11.89,0,0,1-11.877-11.878V-484.934a11.891,11.891,0,0,1,11.877-11.877H753.073a11.893,11.893,0,0,1,11.881,11.877V79.944a11.892,11.892,0,0,1-11.881,11.878" transform="translate(190.312 496.811)" fill="#e7e8e5"/>
      <path id="path32" d="M283.582-228.922a91.711,91.711,0,0,0,91.712,91.712,91.713,91.713,0,0,0,91.714-91.712,91.713,91.713,0,0,0-91.714-91.712,91.711,91.711,0,0,0-91.712,91.712" transform="translate(159.042 595.617)" fill="#ededeb"/>
      <path id="path34" d="M388.683-223.833c17.342-13.875,68.676-14.568,92.955,6.243s57.578,54.8,69.371,58.964,51.1-11.1,82.78-14.568,44.167,29.135,55.959,47.172,24.28,18.73,29.83,42.315,15.954,40.929,31.91,60.352,62.433,45.71,67.288,60.489H306.825l-5.548-200.617c13.873-13.875,70.062-46.477,87.406-60.352" transform="translate(168.966 644.314)" fill="#e7e8e5"/>
      <path id="path36" d="M131.879-75.016c10.755-10.861,45.527-18.035,65.449-61.045s85.367-132.5,110.249-144.895,52.592-66.685,62.568-74.314,22.813,13.18,26.353,25.666c9,31.766,51.955,122.092,77.625,139.434s27.385,54.8,34.521,76.308,50.912,33.991,60.86,61.738,120.652,158.3,120.652,158.3H29.333C62.259,82.263,90.444-33.161,131.879-75.016" transform="translate(16.451 575.272)" fill="#f3f2f1"/>
      <path id="path38" d="M290.575-333.674c0,10.678-3.238,60.121-14.337,72.146s-1.324-14.8-20.087,0-27.086,45.322-58.533,55.959-28.673-16.187-13.411-31.447,33.354-42.084,47.661-49.947,58.706-79.544,58.706-46.71" transform="translate(97.116 583.504)" fill="#ededeb"/>
      <path id="path40" d="M258.966-190.628c8.793-12.162-10.786-8.915-32.559-5.669-15.286,2.279-31.656,4.558-40.049,1.507-20.347-7.4-4.624-17.575-34.222,8.324S71.205-135.6,98.953-126.809s132.266-25.435,160.013-63.819" transform="translate(51.029 661.519)" fill="#ededeb"/>
      <path id="path42" d="M468.316-171.249c-11.5-13.723-24.626-39.541-41.622-44.051s-28.442-7.284-24.973,3.122,84.489,62.292,66.6,40.929" transform="translate(224.949 652.43)" fill="#ededeb"/>
      <path id="path44" d="M597-117.106c-2.945-9.629-12.023-9.365-20-24.626s-19.77-41.277-39.193-42.317-50.294,6.591-24.28,26.014S607.293-83.461,597-117.106" transform="translate(282.406 672.165)" fill="#ededeb"/>
      <path id="path46" d="M685.183-408.482H289.773c-49.946,0,90.181-10.406,167.182-27.747s83.244-22.892,108.91-4.162,101.974-22.892,138.741,2.081,46.477,29.828-19.423,29.828" transform="translate(156.619 521.898)" fill="#fafaf9"/>
      <path id="path48" d="M252.721-370.549c49.326,0,143.453-4.027,105.7-20.636s-65.686,16.609-82.17,2.516-43.162-16.108-65.307-2.516-15.573-7.557-42.282,0c-37.383,10.578-157.394,20.636-55.3,20.636H252.721" transform="translate(41.018 550.893)" fill="#fafaf9"/>
      <path id="path50" d="M504.243-258.417c37.662,0,109.528-3.074,80.705-15.758s-50.153,12.684-62.739,1.923-32.954-12.3-49.863-1.923-11.891-5.769-32.282,0c-28.544,8.077-120.175,15.758-42.226,15.758h106.4" transform="translate(205.897 617.736)" fill="#fafaf9"/>
      <path id="path52" d="M881.821-6.631c0,13.015-180.654,23.566-403.5,23.566S74.814,6.384,74.814-6.631,255.469-30.2,478.318-30.2s403.5,10.551,403.5,23.565" transform="translate(41.958 758.503)" fill="#f3f2f1"/>
      <path id="path54" d="M336.514,49.26c26.074,0,47.212-41.872,47.212-93.525s-21.138-93.525-47.212-93.525H275.939V49.26h60.575" transform="translate(154.755 698.162)" fill="#17282f"/>
      <path id="path56" d="M245.547-44.264c0-51.653,21.138-93.525,47.212-93.525s47.212,41.872,47.212,93.525S318.833,49.26,292.759,49.26,245.547,7.389,245.547-44.264" transform="translate(137.711 698.162)" fill="#17282f"/>
      <path id="path58" d="M558.335,49.26c26.076,0,47.214-41.872,47.214-93.525s-21.138-93.525-47.214-93.525H497.76V49.26h60.575" transform="translate(279.159 698.162)" fill="#17282f"/>
      <path id="path60" d="M467.368-44.264c0-51.653,21.138-93.525,47.212-93.525s47.214,41.872,47.214,93.525S540.656,49.26,514.58,49.26,467.368,7.389,467.368-44.264" transform="translate(262.115 698.162)" fill="#17282f"/>
      <path id="path62" d="M147.958,13.584,115.62,5.628A38.676,38.676,0,0,1,90.188-14.792l-.022-.046A38.693,38.693,0,0,0,81.2-26.6l-7.945-7.065A38.673,38.673,0,0,1,60.458-66.249l4.378-45.736a38.674,38.674,0,0,1,27.52-33.4l23.111-6.838,83.409-5.935L147.958,13.584" transform="translate(33.808 686.739)" fill="#406fbf"/>
      <path id="path64" d="M183.408,49.26c26.074,0,47.212-41.872,47.212-93.525s-21.138-93.525-47.212-93.525H122.833V49.26h60.575" transform="translate(68.889 698.162)" fill="#17282f"/>
      <path id="path66" d="M92.44-44.264c0-51.653,21.138-93.525,47.213-93.525s47.212,41.872,47.212,93.525S165.728,49.26,139.653,49.26,92.44,7.389,92.44-44.264" transform="translate(51.844 698.162)" fill="#17282f"/>
      <path id="path68" d="M101.467-51.305c0-40.831,14.83-73.93,33.124-73.93s33.123,33.1,33.123,73.93-14.83,73.929-33.123,73.929-33.124-33.1-33.124-73.929" transform="translate(56.906 705.202)" fill="#406fbf"/>
      <path id="path70" d="M617,49.985l81.536-182.217s-122-90.83-276.681-90.83c-250.873,0-242.261,33.822-326.217,107.241l36.646,25.856c65.2,0,70.635,103.356,81.057,132.424a11.333,11.333,0,0,0,10.663,7.525H617" transform="translate(53.637 650.338)" fill="#406fbf"/>
      <path id="path72" d="M405.229,49.26c26.076,0,47.214-41.872,47.214-93.525s-21.138-93.525-47.214-93.525H344.654V49.26h60.575" transform="translate(193.293 698.162)" fill="#17282f"/>
      <path id="path74" d="M314.262-44.264c0-51.653,21.138-93.525,47.212-93.525s47.214,41.872,47.214,93.525S387.55,49.26,361.474,49.26,314.262,7.389,314.262-44.264" transform="translate(176.248 698.162)" fill="#17282f"/>
      <path id="path76" d="M323.288-51.305c0-40.831,14.83-73.93,33.123-73.93s33.125,33.1,33.125,73.93-14.83,73.929-33.125,73.929-33.123-33.1-33.123-73.929" transform="translate(181.31 705.202)" fill="#406fbf"/>
      <path id="path78" d="M446.341,2.306c-7.515-34.137-43.435-124.8-86.505-124.8l-46.65-42.375H576.529c18.241,0,99.2,11.188,145.084,42.267,37.069,25.109,41.574,63.2,46.962,118.871,1.1,11.367-8.847,21.135-21.406,21.14-105.522.047-233.225.41-279.713.551-10.26.031-19.1-6.516-21.115-15.654" transform="translate(175.644 682.974)" fill="#406fbf"/>
      <path id="path80" d="M566.56-135.707H394.884a24.282,24.282,0,0,1-20.164-10.584c-19.109-28.307-52.927-56.989-77.7-70.574,173.562,0,269.542,81.159,269.542,81.159" transform="translate(166.577 653.813)" fill="#cfe0f5"/>
      <path id="path82" d="M531.4-164.869h0" transform="translate(201.742 682.974)" fill="#cfe0f5"/>
      <path id="path84" d="M387.8-135.977H300.885c8.938-20.081,15.868-38.511,16.618-51.511h0c-9.434-.7-16.766-1.249-22.459-1.671h0c10,.743,18.5,1.371,22.463,1.661.485-4.065.335-14.622.866-28.85a44.765,44.765,0,0,1,17.97,7.742c20.83,15.063,44.5,38.421,57.782,61.63a7.328,7.328,0,0,1-6.329,11m-143.095,0H219.325l18.162-79.7c1.65-.075,3.328-.144,5.011-.2,2.256-.2,4.974-.36,8.027-.5.2,7.5.653,15.5,1.417,24.012,6.441.483,14.632,1.093,23.086,1.723l-23.086-1.717s-3.694,25.993-7.24,56.39" transform="translate(123.004 654.083)" fill="#cfe0f5"/>
      <path id="path86" d="M335.156-164.869h0" transform="translate(175.644 682.974)" fill="#cfe0f5"/>
      <path id="path88" d="M254.683-136.439H151.87c-28.831,0-20.543-69.461,120.843-79.124l-18.031,79.124" transform="translate(77.667 654.544)" fill="#cfe0f5"/>
      <path id="path90" d="M419.723-74.115l90.162,6.8a5.591,5.591,0,0,1,5.169,5.573v6.16a5.588,5.588,0,0,1-5.59,5.587H419.3a5.588,5.588,0,0,1-5.59-5.587V-68.542a5.588,5.588,0,0,1,6.01-5.573" transform="translate(232.023 733.863)" fill="#17282f"/>
      <path id="path92" d="M611.737-73.24,586.9-68.258a5.589,5.589,0,0,0-4.489,5.479v6.764a5.59,5.59,0,0,0,5.59,5.59h26.234a5.59,5.59,0,0,0,5.55-6.254l-1.4-11.743a5.59,5.59,0,0,0-6.649-4.818" transform="translate(326.635 734.301)" fill="#17282f"/>
      <path id="path94" d="M441.434-117.517a113.194,113.194,0,0,1-11.633-.6c-46.644-4.807-45.362-27.11-45.362-27.11l125.9,6.116s-28.363,21.591-68.905,21.591" transform="translate(215.603 693.991)" fill="#cfe0f5"/>
      <path id="path96" d="M63.848-130.553a38.656,38.656,0,0,1,1.589-4.892h0a38.538,38.538,0,0,0-1.594,4.892" transform="translate(35.808 699.476)" fill="#a7a9a8"/>
      <path id="path98" d="M64.13-104.835a6.642,6.642,0,0,1-1.091-.091,7.127,7.127,0,0,1-1.025-.244l1.862-19.479a38.27,38.27,0,0,1,1-5.817,38.525,38.525,0,0,1,1.594-4.892l8.519-.241s.38,30.765-10.861,30.765" transform="translate(34.779 699.389)" fill="#2d5bb2"/>
      <path id="path100" d="M583.381-131.857q-2.71-2.132-5.688-4.15-3.793-2.569-7.889-4.959c2.726,1.586,5.361,3.234,7.881,4.949q2.988,2.026,5.7,4.16" transform="translate(319.564 696.38)" fill="#fff"/>
      <path id="path102" d="M592.4-119c-24.3,0-41.3-21.587-41.3-21.587l24.686-2q2.288,1.236,4.5,2.524,4.09,2.388,7.889,4.959,2.982,2.017,5.688,4.15a85.69,85.69,0,0,1,10.842,10.139,45.85,45.85,0,0,1-5.342,1.214,41.006,41.006,0,0,1-6.967.6" transform="translate(309.076 695.473)" fill="#cfe0f5"/>
      <path id="path104" d="M496.511-118.777h89.1a15.25,15.25,0,0,1,8.718,2.8L609.9-105.058a15.643,15.643,0,0,1,6.549,10.631l3.969,29.493a13.272,13.272,0,0,1-13.29,15.319H511.844a15.638,15.638,0,0,1-13.723-8.537l-17.806-34.7a14.084,14.084,0,0,1,1.128-15.131l4.45-5.715a13.346,13.346,0,0,1,10.618-5.083" transform="translate(268.436 708.824)" fill="#17282f"/>
      <path id="path106" d="M364.339-54.247H299.215c-.664-5.9-1.321-12.119-1.931-18.437H365.24a4.146,4.146,0,0,1,4.129,4.513l-.9,10.144a4.145,4.145,0,0,1-4.129,3.779m-92.384,0H253.4c2.164-5.944,4.424-12.16,6.7-18.437h7.251c.805,3.383,1.625,6.734,2.447,10.019a.01.01,0,0,0,0-.007q1.077,4.3,2.152,8.425m-47.241,0H190.107a4.147,4.147,0,0,1-4.129-4.514l.9-10.143a4.148,4.148,0,0,1,4.131-3.779h37.816c-1.467,6.478-2.851,12.7-4.112,18.437" transform="translate(104.293 734.675)" fill="#3b69bb"/>
      <path id="path108" d="M232.285-216.138l10.441-2.027L221.38-124.5H211.4l20.884-91.635" transform="translate(118.56 653.084)" fill="#406fbf"/>
      <path id="path110" d="M262.391-151.43h-35.67l-.924,3.746c-.959,3.892,1.419,7.045,5.309,7.045h21.583a9.587,9.587,0,0,0,8.78-7.045l.922-3.746" transform="translate(126.515 690.511)" fill="#17282f"/>
      <path id="path112" d="M183.746-151.43H148.074l-.922,3.746c-.959,3.892,1.417,7.045,5.309,7.045h21.581a9.583,9.583,0,0,0,8.78-7.045l.924-3.746" transform="translate(82.408 690.511)" fill="#17282f"/>
      <path id="path114" d="M216.506-36.864a1.189,1.189,0,0,1-1.059-1.159l-2.568-120.133h2.383L217.74-42.166q-.621,2.659-1.234,5.3" transform="translate(119.389 686.739)" fill="#3b69bb"/>
      <path id="path116" d="M215.28-156.826H212.9l-.052-2.489a1.191,1.191,0,0,1,1.163-1.215h.027a1.19,1.19,0,0,1,1.19,1.165l.054,2.539" transform="translate(119.37 685.407)" fill="#3b69bb"/>
      <path id="path118" d="M266.227-12.857l-12.3-.194-3.544-28.513,12.293.193,3.546,28.514" transform="translate(140.425 752.128)" fill="#f46b74"/>
      <path id="path120" d="M216.607-11.6l-11.234-6.268,8.4-26.461L225-38.059l-8.4,26.462" transform="translate(115.18 750.578)" fill="#f46b74"/>
      <path id="path122" d="M213.731-27.091,226.765-19.7a1.078,1.078,0,0,1,.5,1.249l-3.28,10.7a1.806,1.806,0,0,1-2.643,1.011c-4.152-2.449-7.074-4.43-12.355-7.428-3.251-1.844-13.242-7.063-17.729-9.611-4.389-2.489-2.558-7.315-.493-6.674,9.261,2.87,16.878,3.906,20.861,3.03a2.984,2.984,0,0,1,2.108.328" transform="translate(105.752 758.328)" fill="#17282f"/>
      <path id="path124" d="M263.219-24.207,276.642-24a1.073,1.073,0,0,1,1.032.855L279.93-12.18a1.789,1.789,0,0,1-1.8,2.161c-4.841-.159-11.831-.552-17.916-.648-7.115-.112-13.267.18-21.612.048-5.045-.079-6.364-5.2-4.245-5.629C244-18.2,251.856-18.3,260.243-23.3a5.7,5.7,0,0,1,2.976-.911" transform="translate(130.888 761.862)" fill="#17282f"/>
      <path id="path126" d="M275.566-247.149A260.918,260.918,0,0,1,253.608-231c-3.846,2.474-7.729,4.932-11.879,7.169a78.751,78.751,0,0,1-13.575,6.1,36.545,36.545,0,0,1-4.3,1.086c-.791.148-1.706.246-2.574.333a19.936,19.936,0,0,1-2.984-.033,16.745,16.745,0,0,1-6.241-1.825,16.676,16.676,0,0,1-4.866-3.9,23.337,23.337,0,0,1-4.533-8.635,42.708,42.708,0,0,1-1.442-7.84c-.791-10.025.5-19,2.678-28.139l9.142,1.263c.139,8.36.631,17.186,2.377,24.649a27.375,27.375,0,0,0,1.654,5.013,7.4,7.4,0,0,0,1.892,2.832c.237.173.352.152.364.083l.112-.133a19.6,19.6,0,0,0,3.078-.976,73.72,73.72,0,0,0,10.208-5.436c3.494-2.177,7.024-4.518,10.5-6.97,6.945-4.87,13.954-10.114,20.636-15.275l11.712,14.489" transform="translate(112.716 625.871)" fill="#f46b74"/>
      <path id="path128" d="M270.422-251.417c-5.608,12.622-27.185,25.7-39.15,31.171-3.534,1.617-3.093,6.364-5.184,4.3,0,0-9.219-16.915-9.219-20.38s3.047-1.392,5.559-3.707c8.986-8.276,27.8-26.617,39.5-28.642,15.383-2.658,13.727,5.469,8.491,17.254" transform="translate(121.627 624.476)" fill="#406fbf"/>
      <path id="path130" d="M220.571-249.392c-1.188-1.754-6.106,2.837-7.669,4.732s2.733,8.87,4.033,12.53-1.253,7.471,2.7,8.039c2.1.3,8.012-.468,9.159-1.994,2.68-3.563-5.384-19.117-8.227-23.308" transform="translate(119.213 635.351)" fill="#17282f"/>
      <path id="path132" d="M237.147-242.619c1.865-1.228,3.721-2.52,5.525-3.86l0,.006c-1.8,1.338-3.661,2.628-5.523,3.854" transform="translate(133 637.205)" fill="#babcba"/>
      <path id="path134" d="M235.785-236.627a37.512,37.512,0,0,1,9.683-18.1c-.718,3.8-1.415,8.091-2.031,12.87-1.8,1.34-3.661,2.632-5.525,3.86q-1.061.7-2.127,1.367" transform="translate(132.235 632.58)" fill="#3563b7"/>
      <path id="path136" d="M210.782-257.366l7.939-11.756-12.957-5.28s-7.326,8.287-2.144,15.585l7.161,1.45" transform="translate(113.157 621.545)" fill="#f46b74"/>
      <path id="path138" d="M220.614-278.991l-11.91-.4-4.377,7.783,12.957,5.28,3.33-12.666" transform="translate(114.593 618.748)" fill="#f46b74"/>
      <path id="path140" d="M259.569-30.993h-.006l-.354-2.853h.006l.354,2.853" transform="translate(145.372 756.456)" fill="#111d23"/>
      <path id="path142" d="M263.98-30.926l-12.3-.193-.354-2.847,12.3.187.354,2.853" transform="translate(140.955 756.388)" fill="#ea5b5b"/>
      <path id="path144" d="M215.182-30.173l-.006-.007,1.226-3.865.006,0-1.226,3.866" transform="translate(120.677 756.345)" fill="#c3c5c2"/>
      <path id="path146" d="M219.211-27.9,207.979-34.16l1.253-3.954,11.2,6.353L219.211-27.9" transform="translate(116.641 754.062)" fill="#ea5b5b"/>
      <path id="path148" d="M318.11-263.635c-13.242,46.69-10.57,96.249-11.767,106.278-9.615-.7-45.826-3.4-65.565-4.874-6.287-70.243,8.612-105.905,8.612-105.905s4.216-.818,9.95-1.407c1.8-.183,3.738-.346,5.756-.452,1.115-.067,2.248-.1,3.4-.125,7.419-.123,19.531,1.055,27.876,2.077,1.746.216,3.527.479,5.247.759,1.6.273,3.163.562,4.639.857,6.691,1.334,11.856,2.791,11.856,2.791" transform="translate(134.168 623.941)" fill="#406fbf"/>
      <path id="path150" d="M259.534-270.123c-5.534,2.953-7.126,13.771,3.55,14.189s21.277-7.086,24.318-12.116l-27.868-2.073" transform="translate(143.128 623.944)" fill="#17282f"/>
      <path id="path152" d="M283.934-233.512h0c.025-.248.05-.5.075-.745-.025.25-.05.5-.075.745" transform="translate(159.239 644.059)" fill="#babcba"/>
      <path id="path154" d="M285.834-222.923c-4.716-5.086-6.062-25.7-4.884-30.214l7.519,9.679c-1.09,6.778-1.925,13.417-2.56,19.789-.025.248-.05.5-.075.745" transform="translate(157.34 633.471)" fill="#3563b7"/>
      <path id="path156" d="M286.259-289.034c-2.425,8.839-5.4,25.138.427,31.589-5.236,4.483-11.253,7.634-21.929,7.215s-9.042-5.632-5.942-9.288c10.177-1.644,10.47-9.084,9.248-16.181l18.2-13.336" transform="translate(143.847 613.339)" fill="#f46b74"/>
      <path id="path158" d="M264.4-274.927c0-.125,0-.25,0-.377q.006.19.006.375l0,0m-.491-5.011h0l2.11-1.546-2.11,1.546" transform="translate(148.009 617.572)" fill="#babcba"/>
      <path id="path160" d="M264.4-272.651q0-.184-.006-.375a29.626,29.626,0,0,0-.487-4.635l2.11-1.546,8.657-6.341a13.488,13.488,0,0,1-.152,4.857c-.7,3.969-6.262,7.771-10.122,8.039" transform="translate(148.009 615.294)" fill="#ea5b5b"/>
      <path id="path162" d="M259.836-283.034s-7.527-10.591-5.334-18.88c2.834-10.614,19.906,2.4,5.334,18.88" transform="translate(142.508 603.959)" fill="#17282f"/>
      <path id="path164" d="M289.668-290.764c-1.648,12.087-2,19.246-8.6,25.021-9.923,8.689-24.5,2.012-26.49-10.322-1.8-11.1,1.2-29.007,13.448-32.954a16.638,16.638,0,0,1,21.639,18.256" transform="translate(142.508 601.654)" fill="#f46b74"/>
      <path id="path166" d="M260.943-289.091c0,1.854-1.692,2.287-3.065,3.122a8.349,8.349,0,0,0-2.368,2.524s-1.756-.587-1.038-3.723,6.472-3.654,6.472-1.923" transform="translate(142.618 612.757)" fill="#17282f"/>
      <path id="path168" d="M259.106-288.993c0,3.176,3.517,2.73,6.2,3.617a11.24,11.24,0,0,1,5.575,3.854,4.532,4.532,0,0,0-.762-4.855c-3.375-4.483-11.013-4.349-11.013-2.616" transform="translate(145.315 612.734)" fill="#17282f"/>
      <path id="path170" d="M280.415-299.1c-7.577,2.241-28.828,4.593-26.234-6.275,3.621-15.186,13.2-7.263,14.674-5.111,6.1-4.41,33.019-.552,27.652,8.158,5.827.9,9.234,7.263,5.02,10.4s-9.292,15.972-12.1,15.6a37.894,37.894,0,0,1-9.862-2.78l5.679-7.652s-7.019-6.693-4.826-12.341" transform="translate(142.43 599.069)" fill="#17282f"/>
      <path id="path172" d="M279.4-304.8c4.069-1.009,8.048-1.478,11.429,1.642-.25-5.246-7.432-5.975-11.429-1.642" transform="translate(156.697 602.912)" fill="#17282f"/>
      <path id="path174" d="M284.129-285.73a11.6,11.6,0,0,1-7.586,4.568c-4.025.577-5.513-3.151-3.952-6.674,1.4-3.17,5.188-7.29,9.017-6.25,3.771,1.024,4.726,5.311,2.52,8.356" transform="translate(152.537 610.414)" fill="#f46b74"/>
      <path id="path176" d="M258.256,59.645l20.811.316s-12.023-82.21-10.15-120.467c.572-11.638-1.292-27.914,1.781-45.36,3.883-21.981,5.75-30.748,10.772-58.529,3.582-19.808,6.764-33.4,6.764-33.4l-43.1-3.2S231.056-101.916,231.475-64.4c.431,39,26.782,124.048,26.782,124.048" transform="translate(129.813 662.713)" fill="#406fbf"/>
      <path id="path178" d="M278.06,59.961l-4.3-.065-12.3-.187-4.216-.064s-7.09-22.882-13.975-50.355C249.153-12.468,255.187-35.1,259-50.028c2.175-8.528,5.3-18.112,8.88-28.232.042,4.326.15,8.4.15,12.125,0,1.977-.031,3.856-.119,5.63-.135,2.765-.2,5.758-.2,8.936,0,40.773,10.347,111.531,10.347,111.531M267.867-80.089c-.021-3.6.021-7.357.223-11.235a.15.15,0,0,1,.008-.02c-.179,3.428-.235,6.764-.235,9.976q0,.642,0,1.279m-34.6-30.673c4-41.924,10.863-90.235,10.863-90.235l23.254,1.729c-.042.108-20.178,50.985-34.118,88.505m53.965-87.028-18.014-1.342,18.014,1.34v0h0" transform="translate(130.821 662.713)" fill="#213664"/>
      <path id="path180" d="M239.118-68.273h0c-.966-4.061-1.908-8.167-2.807-12.27l0,0c.9,4.1,1.842,8.214,2.807,12.274" transform="translate(132.529 730.264)" fill="#3563b7"/>
      <path id="path182" d="M240.555-62.665c-.822-3.284-1.642-6.635-2.447-10.019h0c.805,3.382,1.625,6.732,2.447,10.012a.01.01,0,0,1,0,.007" transform="translate(133.538 734.675)" fill="#2e5db3"/>
      <path id="path184" d="M255.445-121.7q-.009-.908-.013-1.829c0,.612.008,1.219.015,1.823,0,0,0,0,0,.007" transform="translate(143.255 706.157)" fill="#3563b7"/>
      <path id="path186" d="M241.565-30.117c-1.811-7.22-3.607-14.764-5.255-22.286,6.023-16.674,11.787-32.772,15.773-44.228,3.546-10.2,8.626-21.847,14.3-34.1-.2,3.878-.244,7.639-.223,11.235q0,.921.013,1.829c-3.582,10.12-6.705,19.7-8.88,28.232-3.813,14.93-9.846,37.56-15.725,59.318" transform="translate(132.53 702.12)" fill="#1b294a"/>
      <path id="path188" d="M282.542-199.889S251.575-121.646,239.836-87.6C226.981-50.312,206.226,50.35,206.226,50.35l19.581,11.106s30.513-82.982,43.148-119.3c14.393-41.371,54.04-106.746,55.894-138.9l-42.307-3.149" transform="translate(115.658 663.334)" fill="#406fbf"/>
      <path id="path190" d="M225.807,61.456l-4.387-2.489-11.2-6.353-3.989-2.264S226.981-50.312,239.836-87.6c11.74-34.046,42.706-112.29,42.706-112.29l42.307,3.149c-.749,13-7.679,31.431-16.618,51.511-7.721,17.342-16.944,35.918-24.979,53.283-5.671,12.253-10.751,23.9-14.3,34.1-3.985,11.456-9.75,27.554-15.773,44.228h0l0,0c-1.473,4.077-2.961,8.183-4.443,12.27-2.277,6.277-4.537,12.492-6.7,18.436-2.608,7.157-5.074,13.912-7.261,19.895-.984,2.693-1.917,5.236-2.774,7.581-.064.177-.127.348-.191.52-3.657,9.989-6,16.366-6,16.366" transform="translate(115.658 663.334)" fill="#213664"/>
      <path id="path192" d="M204.57-36.954l23.059,13.078,3.908-6.889L206.015-45.835l-1.444,8.88" transform="translate(114.729 749.732)" fill="#406fbf"/>
      <path id="path194" d="M247.954-30.677l24.8.389.127-8.012-27.716-.856,2.791,8.479" transform="translate(137.495 753.478)" fill="#406fbf"/>
      <path id="path196" d="M267.363-295.658c-.073.991-.658,1.752-1.3,1.7s-1.111-.889-1.038-1.877.658-1.75,1.3-1.7,1.109.887,1.036,1.875" transform="translate(148.628 608.571)" fill="#17282f"/>
      <path id="path198" d="M258.939-296.189c-.073.989-.658,1.75-1.3,1.7s-1.111-.889-1.039-1.877.658-1.75,1.3-1.7,1.109.889,1.036,1.877" transform="translate(143.904 608.272)" fill="#17282f"/>
      <path id="path200" d="M261.944-296.381s-2.674,5.538-5.353,8.106c1.627,1.761,4.657,1.238,4.657,1.238l.7-9.344" transform="translate(143.905 609.218)" fill="#f14358"/>
      <path id="path202" d="M259.869-285.15a8.162,8.162,0,0,0,5.825-2.824l-.054-.408-.408.054a7.872,7.872,0,0,1-6.614,2.587l-.312.268.268.312a9.682,9.682,0,0,0,1.294.01" transform="translate(144.866 613.704)" fill="#17282f"/>
      <path id="path204" d="M269.531-297.169l.279-.094a.584.584,0,0,0,.175-.805,5.776,5.776,0,0,0-4.549-2.747.581.581,0,0,0-.585.579.581.581,0,0,0,.576.585,4.624,4.624,0,0,1,3.579,2.216.583.583,0,0,0,.524.266" transform="translate(148.536 606.731)" fill="#17282f"/>
      <path id="path206" d="M255.158-298.585l.514-.2a4.6,4.6,0,0,1,3.852-1.694.584.584,0,0,0,.651-.5.58.58,0,0,0-.5-.654,5.782,5.782,0,0,0-4.889,2.085.585.585,0,0,0,.058.822l.308.137" transform="translate(142.816 606.262)" fill="#17282f"/>
      <path id="path208" d="M204.894-26.605c-2.023-.667-3.382-1.524-3.688-2.346a1.182,1.182,0,0,1,.177-1.113c.125-.192.241-.211.329-.207C202.505-30.239,203.951-28.21,204.894-26.605Zm-2.485-.429a14.457,14.457,0,0,0,3.018,1.2l.306-.1.029-.32c-.252-.464-2.5-4.539-4.025-4.6a.927.927,0,0,0-.841.47,1.753,1.753,0,0,0-.235,1.636,3.727,3.727,0,0,0,1.748,1.713" transform="translate(112.476 758.134)" fill="#406fbf"/>
      <path id="path210" d="M204.356-30.961a1.033,1.033,0,0,1,.456.551c.429,1.1-.25,3.095-.637,4.066-.626-1.458-.984-4-.452-4.63.048-.056.162-.191.514-.046Zm-.3,5.559.16.037.248-.167c.062-.137,1.557-3.367.891-5.088a1.6,1.6,0,0,0-.893-.937h0a.95.95,0,0,0-1.182.206c-.9,1.066-.092,4.62.672,5.848l.1.1" transform="translate(113.783 757.678)" fill="#406fbf"/>
      <path id="path212" d="M247.838-24.276c.932-.306,3.6.758,5.53,1.717-2.72.408-4.741.26-5.488-.423a1.058,1.058,0,0,1-.335-.942l.187-.306Zm6.533,2.137.2-.234-.15-.3c-.554-.3-5.457-2.878-6.961-2.07a.927.927,0,0,0-.493.768h0a1.633,1.633,0,0,0,.524,1.425c1.328,1.214,4.859.785,6.845.42l.038-.008" transform="translate(138.5 761.473)" fill="#406fbf"/>
      <path id="path214" d="M250.054-26.418l-.006,0Zm-.275.345.3-.056h0a1.546,1.546,0,0,1,1.18.389c1.013.859,1.421,2.847,1.563,3.814-1.5-.932-3.465-3.053-3.317-3.885C249.515-25.862,249.538-25.993,249.78-26.072Zm3.49,4.953.075-.037.125-.263c-.01-.142-.289-3.456-1.833-4.763a2.129,2.129,0,0,0-1.607-.527c-.8.068-1.039.472-1.1.8-.248,1.386,2.651,4.09,4.123,4.778l.214.015" transform="translate(139.601 760.454)" fill="#406fbf"/>
      <path id="path216" d="M297.654-261.213c2.714,5.034,5.051,10,7.454,15.065,2.325,5.074,4.516,10.218,6.639,15.417s4.048,10.522,5.808,15.977l1.272,4.127,1.13,4.239c.374,1.415.668,2.916,1,4.366l.241,1.12.241,1.49c.175,1.032.179,1.829.264,2.756a57.534,57.534,0,0,1-.4,9.423c-.329,2.947-.76,5.8-1.251,8.62-1.03,5.613-2.262,11.084-3.654,16.491a331.949,331.949,0,0,1-9.906,31.81l-8.9-2.452c1.867-10.67,3.65-21.452,5.234-32.086.766-5.326,1.467-10.632,1.946-15.862.252-2.608.435-5.19.52-7.7a50.4,50.4,0,0,0-.175-6.98c-.085-.431-.114-1.009-.219-1.319l-.119-.531-.256-.872c-.366-1.195-.668-2.368-1.078-3.575l-1.232-3.623-1.344-3.652c-1.858-4.878-3.942-9.752-6.043-14.645-2.142-4.882-4.423-9.731-6.732-14.574-2.243-4.847-4.685-9.729-6.974-14.43l16.53-8.6" transform="translate(157.663 628.942)" fill="#f46b74"/>
      <path id="path218" d="M296.408-265.582c8.807,2.759,20.492,39.335,25.1,54.91,2.947,2.641,1.465,7.471,1.465,7.471l-17.97,7.929c-4.223-2-6.726-6.437-5.172-8.576-9.4-17.758-16.8-31.017-20.353-41.616-5.257-15.685,3.34-24.372,16.926-20.118" transform="translate(155.866 625.887)" fill="#406fbf"/>
      <path id="path220" d="M292.6-221.021c-1.823,1.08,3.738,6.774,5.536,8.447s7.742-2.7,11.475-3.769,7.382,1.7,8.189-2.212c.429-2.081.019-8.027-1.436-9.263-3.392-2.891-19.408,4.214-23.764,6.8" transform="translate(163.898 647.289)" fill="#17282f"/>
      <path id="path222" d="M296.585-182.281l-9.6,7.983,11.939,8.624s7.858-8.308,4.331-13.28l-6.674-3.328" transform="translate(160.952 673.209)" fill="#f46b74"/>
      <path id="path224" d="M283.478-165.995l11.814,5.758,5.6-8.306-11.939-8.624-5.48,11.171" transform="translate(158.983 676.078)" fill="#f46b74"/>
    </g>
  </g>
</svg>
