<svg xmlns="http://www.w3.org/2000/svg" width="765.477" height="720" viewBox="0 0 765.477 720">
  <g id="g10" transform="translate(79.384 715.355)">
    <g id="g12" transform="translate(-79.384 -715.356)">
      <path id="path14" d="M0-42.714H623.951V-666.665H0Z" transform="translate(83.391 720.896)" fill="#fafaf9"/>
      <path id="path16" d="M230.934-707.808l-7.439-.844-10.952,96.5,7.439.843,10.952-96.5" transform="translate(60.68 714.926)" fill="#e5dbc2"/>
      <path id="path18" d="M242.475-604.716l-7.449-.758-7.117,69.867-91.18-4.086-.333,7.48,98.246,4.4,7.833-76.906" transform="translate(65.559 708.316)" fill="#e5dbc2"/>
      <path id="path20" d="M177.139-244.75a29.918,29.918,0,0,1-29.885-29.884,29.918,29.918,0,0,1,29.885-29.884,29.918,29.918,0,0,1,29.883,29.884,29.918,29.918,0,0,1-29.883,29.884m135.5-278.074L278.2-416.4l-25.989-7.472,32.933-106.577,27.494,7.625M285.4-414.33l34.46-106.49,21.559,5.98L308.887-407.577,285.4-414.33m30.681,8.821,32.555-107.328,30.319,8.411L449.8-485.857,419.476-375.782,316.083-405.508m274.364,145.4,53.6-174.841,42.615,11.17,1.9-7.244-105.48-27.646,16.981-70.473,41.1-150.492.493-1.807-7.223-1.97L592.81-531l-16.97,70.438-33.008-8.652,67.455-237.971-7.2-2.042-67.5,238.115-76.55-20.064,20.437-74.172-7.219-1.989-20.462,74.261-70.885-18.577L350.811-520l53.725-177.125L397.37-699.3l-53.777,177.3-21.425-5.944,55.795-172.43-7.122-2.3L314.946-529.953l-34.805-9.655L244.647-424.746,114.663-408.614l.921,7.431L242.224-416.9l-19.15,61.971,7.154,2.21,19.775-64,56.712,16.306L288.1-339.042l7.165,2.174,18.645-61.473,110.771,31.848,32.366-117.465,116.86,30.629L523.125-279.973l-27.42,92.265L213.121-264.563a37.152,37.152,0,0,0,1.389-10.071,37.52,37.52,0,0,0-23.039-34.512l3.588-14.071,237.584,69.262,2.094-7.189L196.91-330.478l8.261-32.4-7.257-1.851L184.3-311.31a37.3,37.3,0,0,0-7.157-.694,37.33,37.33,0,0,0-34.889,24L-14.737-323.981l-26.137,84.016,7.149,2.224,24.076-77.392L140.28-280.775a37.27,37.27,0,0,0-.513,6.142,37.23,37.23,0,0,0,21.816,33.97L92.662-16.878l7.156,2.2,68.852-223.565a37.206,37.206,0,0,0,8.468.978,37.535,37.535,0,0,0,33.225-20.29l283.208,77.023L469.316-98.914l7.177,2.135L500.8-178.563l72.763,19.79L534.951-25.261l-.519,1.8,7.194,2.079,39.163-135.425,96.685,26.295,1.964-7.224L582.868-164l27.423-94.829-7.194-2.08-27.456,94.944-72.709-19.774,27.374-92.111,50.843-173.58,55.65,14.586L583.286-262.3l7.161,2.193" transform="translate(76.917 714.963)" fill="#e5dbc2"/>
      <path id="path22" d="M117.055-341.88,12.815-363.622l22.133-77.99-7.2-2.045L3.417-357.933l112.11,23.383,1.528-7.33" transform="translate(74.079 697.948)" fill="#e5dbc2"/>
      <path id="path24" d="M53.481-562.417l-7.122-2.31L9.882-452.263,17-449.952,53.481-562.417" transform="translate(73.665 705.705)" fill="#e5dbc2"/>
      <path id="path26" d="M288.428-73.071l-1.974,7.223L399.228-35.041,547.184,30.772l1.71.762,3.044-6.841L402.023-41.991l-113.6-31.079" transform="translate(55.945 674.204)" fill="#e5dbc2"/>
      <path id="path28" d="M387.053-127.167q-55.877-15.473-105.09-29.091L327.427-327.03l109.754,28.775c-18.55,63.324-36.176,123.476-50.128,171.087M89.123-209.558l27.2-167.194.029-.175.11-1.643,203.708,49.7-45.42,170.612q-109.784-30.377-185.626-51.3M395.662-582.74,322.2-336.077,116.968-386.153,132.591-619.3l263.07,36.559m115.287,32.514c-21.106,72.159-47.1,160.92-71.662,244.784L329.463-334.236l73.47-246.69,108.016,30.7M682.385-233.967l1.9-7.243L446.535-303.542c24.615-84.034,50.554-172.619,71.617-244.636l160,45.475,2.047-7.2L520.253-555.366c24.359-83.292,41.7-142.735,41.961-144.043l-7.319-1.575c-.6,2.411-17.808,61.392-41.844,143.571L405.071-588.1l37.262-125.115-7.175-2.138L397.823-590l-264.73-36.789,4.9-73.106-7.47-.5L121.154-560.6,6.738-582.222l-67.592-44.465-4.116,6.254,68.845,45.29L120.65-553.08l-7.56,112.814L-49.527-480.819l-1.812,7.265,163.92,40.878-3.679,54.9L81.863-211.561C-24.016-240.771-77.78-255.475-78.718-255.475v4.28l-.666,3.145c3.076.651,69.186,18.836,160.025,43.916L24.986,2.7l7.23,1.944L87.858-202.141C143.645-186.735,208.129-168.9,272.818-151L236.546-14.761l7.235,1.926,36.252-136.173c35.474,9.816,70.911,19.625,104.911,29.039-16.364,55.835-27.186,92.752-27.641,94.3l7.185,2.106c3.976-13.565,14.055-47.944,27.672-94.411,131.176,36.32,239.172,66.255,241.92,67.016l2-7.214q-133.225-36.93-241.811-67c14.115-48.165,31.71-108.211,50.158-171.185l237.955,62.386" transform="translate(79.384 715.356)" fill="#fccc5b"/>
      <path id="path30" d="M320.713-507.69l-6.121-1.7a5.394,5.394,0,0,0-6.6,3.605l-26.462,85.632a5.393,5.393,0,0,0,3.663,6.776l4.96,1.426a5.394,5.394,0,0,0,6.623-3.523L324.4-500.833a5.394,5.394,0,0,0-3.69-6.857" transform="translate(56.275 702.172)" fill="#e5dbc2"/>
      <path id="path32" d="M360.179-521.587a5.393,5.393,0,0,0,6.6-3.631L380.974-572l-9.943-1.382-14.542,44.94a5.394,5.394,0,0,0,3.69,6.858" transform="translate(51.474 706.26)" fill="#e5dbc2"/>
      <path id="path34" d="M351.453-499.139a5.394,5.394,0,0,0-6.574,3.536l-27.707,85.624a5.394,5.394,0,0,0,3.641,6.845l2.12.61a5.4,5.4,0,0,0,6.653-3.619L355.7-492.231a5.4,5.4,0,0,0-3.72-6.764l-.525-.145" transform="translate(53.993 701.515)" fill="#e5dbc2"/>
      <path id="path36" d="M501.353-484.669a2.442,2.442,0,0,0,1.735,3.01l17.288,4.531a2.447,2.447,0,0,0,2.964-1.682q3.456-11.8,6.807-23.261l-22.325-6.077-6.469,23.479" transform="translate(42.182 702.08)" fill="#e5dbc2"/>
      <path id="path38" d="M538.677-531.481A2.434,2.434,0,0,0,537-534.506l-17.992-5.113a2.441,2.441,0,0,0-3.021,1.7l-6.651,24.14,22.381,6.093q3.551-12.133,6.962-23.8" transform="translate(41.665 704.102)" fill="#e5dbc2"/>
      <path id="path40" d="M415.76-567.155,401.6-569.123,385.151-514.9l13.9,3.856,16.709-56.109" transform="translate(49.621 705.986)" fill="#e5dbc2"/>
      <path id="path42" d="M423.18-502.627l52.071,13.647a2.44,2.44,0,0,0,2.973-1.713l6.533-23.709-53.715-14.622-7.862,26.4" transform="translate(47.185 703.417)" fill="#e5dbc2"/>
      <path id="path44" d="M493.08-544.456a2.441,2.441,0,0,0-1.686-3l-48.266-13.719a2.441,2.441,0,0,0-3.006,1.652l-7.4,24.842,53.64,14.6,6.717-24.379" transform="translate(46.573 705.483)" fill="#e5dbc2"/>
      <path id="path46" d="M271.383-384.162l-12.546,40.607,46.75,11.406L317.3-370.767a5.394,5.394,0,0,0-3.671-6.75l-35.6-10.237a5.394,5.394,0,0,0-6.644,3.591" transform="translate(57.714 694.379)" fill="#e5dbc2"/>
      <path id="path48" d="M545.676-241.85l-60.428-15.843a1.026,1.026,0,0,0-1.245.705l-21.531,73.5a1.025,1.025,0,0,0,.715,1.278L523.165-165.9a1.025,1.025,0,0,0,1.253-.7L546.4-240.565a1.026,1.026,0,0,0-.724-1.285" transform="translate(44.67 686.035)" fill="#dbfac8"/>
      <path id="path50" d="M454.659-266.024l-94.064-24.662-5.311,19.946,92.858,27.071a1.027,1.027,0,0,0,1.273-.7l5.97-20.378a1.026,1.026,0,0,0-.725-1.28" transform="translate(51.535 688.147)" fill="#e5dbc2"/>
      <path id="path52" d="M328.266-124.708q37.75,10.446,79.223,21.932l18.574-63.389-92.528-25.164-13.779,51.756a12.17,12.17,0,0,0,8.511,14.865" transform="translate(53.838 681.781)" fill="#e5dbc2"/>
      <path id="path54" d="M548.691-159l59.843,16.274a1.025,1.025,0,0,0,1.254-.705l21.641-74.837a1.025,1.025,0,0,0-.725-1.278l-59.448-15.586a1.027,1.027,0,0,0-1.244.7l-22.036,74.148a1.027,1.027,0,0,0,.714,1.283" transform="translate(39.191 684.59)" fill="#e5dbc2"/>
      <path id="path56" d="M243.343-381.749a5.393,5.393,0,0,0-5.818-6.946l-93.9,11.653a5.4,5.4,0,0,0-4.718,4.993l-.069,1.042L232.93-348.05l10.412-33.7" transform="translate(65.402 694.429)" fill="#e5dbc2"/>
      <path id="path58" d="M164.5-208.616a42.787,42.787,0,0,1-20.7-36.752q0-.885.037-1.777l-23.208-5.317-10.922,67.131q20.715,5.719,43.887,12.118l10.9-35.4" transform="translate(67.269 685.698)" fill="#e5dbc2"/>
      <path id="path60" d="M288.976-147.607l13.692-51.43-75.753-20.6a43.17,43.17,0,0,1-35.888,19.361,42.6,42.6,0,0,1-4.549-.243l-10.593,34.4q44.814,12.382,98.069,27.116a12.186,12.186,0,0,0,15.022-8.6" transform="translate(63.029 683.595)" fill="#e5dbc2"/>
      <path id="path62" d="M37.979-426.671,20.989-366.8l39.418,8.222L69.928-418.7l-31.948-7.968" transform="translate(72.953 696.859)" fill="#e5dbc2"/>
      <path id="path64" d="M109.032-348.444l1.8-11.085,2.934-43.791a5.392,5.392,0,0,0-4.077-5.594l-33.17-8.272-9.5,59.982,42.007,8.762" transform="translate(70.004 696.252)" fill="#e5dbc2"/>
      <path id="path66" d="M102.242-325.322,8-344.981v43.07l87.185,19.978,7.058-43.39" transform="translate(73.785 691.625)" fill="#e5dbc2"/>
      <path id="path68" d="M8-434.436v41.414L18.976-431.7Z" transform="translate(73.785 697.357)" fill="#e5dbc2"/>
      <path id="path70" d="M602.717-430.248a2.44,2.44,0,0,0-1.725-3.047l-57.759-15.14a2.426,2.426,0,0,0-2.95,1.664l-10.994,37.554,62.671,15.691,10.757-36.722" transform="translate(40.386 698.259)" fill="#e5dbc2"/>
      <path id="path72" d="M589.578-386.995l-62.671-15.691c-6.051,20.669-12.2,41.67-18.358,62.7l62.061,17.749,18.968-64.754" transform="translate(41.715 695.323)" fill="#e5dbc2"/>
      <path id="path74" d="M492.843-285.271a1.024,1.024,0,0,0,.725,1.279l60.476,15.856a1.029,1.029,0,0,0,1.245-.705l13.26-45.269-62.062-17.749c-4.56,15.573-9.121,31.145-13.645,46.588" transform="translate(42.724 690.785)" fill="#e5dbc2"/>
      <path id="path76" d="M149.628-271.21a42.927,42.927,0,0,1,38.112-23.115q1.473,0,2.945.1l9.127-35.8L135.77-345.652l-11.178,68.706,25.036,5.737" transform="translate(66.315 691.669)" fill="#e5dbc2"/>
      <path id="path78" d="M655.91-417.023a2.442,2.442,0,0,0-1.823-2.362l-24.724-6.479a2.44,2.44,0,0,0-2.961,1.675l-10.738,36.658,40.246,10.077v-39.568" transform="translate(34.852 696.813)" fill="#e5dbc2"/>
      <path id="path80" d="M654.528-360.47v-10.25l-41.3-10.339-19.142,65.35L637.142-303.4l17.279-56.359a2.447,2.447,0,0,0,.107-.715" transform="translate(36.234 693.937)" fill="#e5dbc2"/>
      <path id="path82" d="M578.933-262.582a1.028,1.028,0,0,0,.725,1.282L620.4-250.618a1.025,1.025,0,0,0,1.242-.691L635.07-295.1l-43.009-12.3-13.128,44.815" transform="translate(37.208 689.217)" fill="#e5dbc2"/>
      <path id="path84" d="M455-157.159l-18.027,61.52a1.027,1.027,0,0,0,.71,1.278l59.582,16.5a1.025,1.025,0,0,0,1.258-.7l18.346-61.732a1.026,1.026,0,0,0-.714-1.283l-59.9-16.291a1.027,1.027,0,0,0-1.254.7" transform="translate(46.304 679.639)" fill="#e5dbc2"/>
      <path id="path86" d="M306.883-88.3a12.176,12.176,0,0,0,8.557,14.878l78.13,21.344,6.774-23.11L321.9-96.9a12.176,12.176,0,0,0-15.014,8.6" transform="translate(54.662 675.759)" fill="#e5dbc2"/>
      <path id="path88" d="M470.753-464.9a2.442,2.442,0,0,0-1.735-3.01l-52.386-13.731L404.411-440.6l55.8,13.969L470.753-464.9" transform="translate(48.387 700.381)" fill="#e5dbc2"/>
      <path id="path90" d="M386.523-381.335l54.058,15.541a2.44,2.44,0,0,0,3.027-1.7l14.459-52.477L402.2-433.955l-15.672,52.62" transform="translate(49.533 697.326)" fill="#e5dbc2"/>
      <path id="path92" d="M432.912-188.857l9.66-32.968a1.027,1.027,0,0,0-.7-1.274l-92.41-26.941-9.813,36.862,92.008,25.023a1.026,1.026,0,0,0,1.254-.7" transform="translate(52.536 685.542)" fill="#e5dbc2"/>
      <path id="path94" d="M384.313-490.033a7.276,7.276,0,0,0-8.909,4.9L350.365-402.58a7.493,7.493,0,0,0,5.1,9.377h0a7.492,7.492,0,0,0,9.252-5.063l24.624-82.679a7.276,7.276,0,0,0-5.028-9.088" transform="translate(51.871 700.936)" fill="#e5dbc2"/>
      <path id="path96" d="M343.173-322.889l12.685-42.592-14.529-4.178-13.082,43.128,14.926,3.643" transform="translate(53.267 693.207)" fill="#e5dbc2"/>
      <path id="path98" d="M220.434-309.681l104.639,30.5,5.1-19.167L224.14-324.217l-3.706,14.536" transform="translate(60.175 690.295)" fill="#e5dbc2"/>
      <path id="path100" d="M190.4-222.275a24.3,24.3,0,0,0,24.268-24.268A24.3,24.3,0,0,0,190.4-270.811a24.3,24.3,0,0,0-24.269,24.268A24.3,24.3,0,0,0,190.4-222.275" transform="translate(63.654 686.873)" fill="#dbfac8"/>
      <path id="path102" d="M515.567-453.116a2.42,2.42,0,0,0-1.72-3.031l-16.934-4.438a2.443,2.443,0,0,0-2.972,1.713L483.435-420.74l21.107,5.284q5.582-19.063,11.025-37.659" transform="translate(43.324 699.037)" fill="#e5dbc2"/>
      <path id="path104" d="M455.406-343a2.441,2.441,0,0,1-3.029,1.7l-72.418-20.822-12.482,41.908,94.334,24.733a1.025,1.025,0,0,0,1.245-.7c10.944-37.365,22.128-75.551,33-112.694l-21.05-5.27L455.406-343" transform="translate(50.753 696.057)" fill="#e5dbc2"/>
      <path id="path106" d="M309.951-221.59l9.918-37.254L215.42-289.294l-1.023,4.013a43.165,43.165,0,0,1,22.084,37.553,42.641,42.641,0,0,1-.428,6.041l73.9,20.1" transform="translate(60.561 688.058)" fill="#e5dbc2"/>
      <path id="path108" d="M570.447-28.2C531.163-39.082,482.32-52.611,429.409-67.264l-7.21,24.6,69.182,30.774a1.016,1.016,0,0,0,.417.089H566a1.025,1.025,0,0,0,.986-.741l4.162-14.389a1.021,1.021,0,0,0-.705-1.272" transform="translate(47.247 673.832)" fill="#e5dbc2"/>
      <path id="path110" d="M601.639-118.314l-59.991-16.315a1.028,1.028,0,0,0-1.254.7L522.021-72.105a1.025,1.025,0,0,0,.709,1.281L583.1-54.1a1.026,1.026,0,0,0,1.26-.7l18-62.236a1.026,1.026,0,0,0-.716-1.276" transform="translate(40.854 678.15)" fill="#e5dbc2"/>
      <path id="path112" d="M654.653-103.9l-27.466-7.47a1.028,1.028,0,0,0-1.255.706L607.908-48.334a1.026,1.026,0,0,0,.711,1.274L654.11-34.451a1.026,1.026,0,0,0,1.3-.99v-67.47a1.028,1.028,0,0,0-.757-.991" transform="translate(35.351 676.66)" fill="#e5dbc2"/>
      <path id="path114" d="M47.371-269.424,8-278.446v65.224q15.2,4.178,33.319,9.167l6.052-65.369" transform="translate(73.785 687.363)" fill="#e5dbc2"/>
      <path id="path116" d="M83.943-192.329,94.7-258.482,53.585-267.9,47.518-202.37q16.981,4.678,36.425,10.041" transform="translate(71.254 686.687)" fill="#e5dbc2"/>
      <path id="path118" d="M102.367-157.152,64.806-17.556H104.66L144.1-145.622l-41.733-11.529" transform="translate(70.146 679.591)" fill="#e5dbc2"/>
      <path id="path120" d="M294.721-43.826l-4.7,17.643a12.175,12.175,0,0,0,11.765,15.308h79.458l5.976-20.385L309.7-52.439a12.176,12.176,0,0,0-14.975,8.613" transform="translate(55.743 672.91)" fill="#e5dbc2"/>
      <path id="path122" d="M166.221-139.5l-37.9,123.078h65.45C200.73-55.214,209.28-102.9,213.46-126.442L166.221-139.5" transform="translate(66.077 678.46)" fill="#e5dbc2"/>
      <path id="path124" d="M270.1-111.123c-16.2-4.482-32.336-8.946-48.275-13.354-.478,2.693-1.007,5.668-1.584,8.9-2.554,14.335-5.974,33.444-9.4,52.554-3.042,16.972-6.086,33.935-8.532,47.559h45.444a12.177,12.177,0,0,0,11.766-9.043l19.1-71.749a12.177,12.177,0,0,0-8.521-14.869" transform="translate(61.336 677.498)" fill="#e5dbc2"/>
      <path id="path126" d="M440.492-10.837,416.266-21.612l-3.734,12.74h27.541a1.027,1.027,0,0,0,.418-1.964" transform="translate(47.867 670.907)" fill="#e5dbc2"/>
      <path id="path128" d="M656.273-212.85a1.026,1.026,0,0,0-1.247.708l-21.695,75.02a1.026,1.026,0,0,0,.717,1.275l21.695,5.9a1.027,1.027,0,0,0,1.3-.991v-80.92a1.025,1.025,0,0,0-.766-.992" transform="translate(33.723 683.162)" fill="#e5dbc2"/>
      <path id="path130" d="M633.627-10.761l-31.913-8.844a1.027,1.027,0,0,0-1.26.7L597.9-10.058a1.026,1.026,0,0,0,.986,1.312h34.47a1.026,1.026,0,0,0,.275-2.015" transform="translate(35.993 670.781)" fill="#e5dbc2"/>
      <path id="path132" d="M63.207-576.6v-82.067H8v68.26l7.2,4.736L63.207-576.6" transform="translate(73.785 711.723)" fill="#e5dbc2"/>
      <path id="path134" d="M117.906-567.025a5.394,5.394,0,0,0,6.383-4.939l5.425-80.945a5.4,5.4,0,0,0-5.382-5.755H70.986v82.775l46.919,8.865" transform="translate(69.75 711.723)" fill="#e5dbc2"/>
      <path id="path136" d="M8-183.9V-19.27H37.9L77.076-164.845C51.687-171.853,28.37-178.285,8-183.9" transform="translate(73.785 681.304)" fill="#e5dbc2"/>
      <path id="path138" d="M613.883-544.354a2.442,2.442,0,0,0,1.681,3.015l14.414,4.1a2.441,2.441,0,0,0,3.023-1.7l15.164-55.532-18.3-6.268-15.984,56.393" transform="translate(34.972 708.012)" fill="#e5dbc2"/>
      <path id="path140" d="M656.874-625.792a2.435,2.435,0,0,0,.086-.643v-29.789a2.442,2.442,0,0,0-2.442-2.442h-6.269a2.443,2.443,0,0,0-2.35,1.776L632.06-608.064l18.264,6.256,6.55-23.984" transform="translate(33.801 711.723)" fill="#e5dbc2"/>
      <path id="path142" d="M655.712-283.485l-11.75,38.332a1.027,1.027,0,0,0,.72,1.294l11.751,3.081a1.027,1.027,0,0,0,1.287-.993v-41.413a1.026,1.026,0,0,0-2.008-.3" transform="translate(33.042 687.732)" fill="#e5dbc2"/>
      <path id="path144" d="M201.762-623.6a5.393,5.393,0,0,0,6.1-4.733l2.762-24.328a5.394,5.394,0,0,0-5.36-6h-10.7c-.419,9.383-.816,21.072-1.179,33.9l8.373,1.163" transform="translate(61.907 711.724)" fill="#e5dbc2"/>
      <path id="path146" d="M163.133-658.665a5.4,5.4,0,0,0-5.382,5.034l-1.273,19.007a5.394,5.394,0,0,0,4.638,5.7l26.16,3.635c.357-12.284.762-23.858,1.222-33.38H163.133" transform="translate(64.273 711.723)" fill="#e5dbc2"/>
      <path id="path148" d="M36.458-552.324,8-557.7v92.216l.272.067,28.187-86.908" transform="translate(73.785 705.255)" fill="#e5dbc2"/>
      <path id="path150" d="M450.632-586.693l88.833,25.247a2.449,2.449,0,0,0,3.014-1.671c4.425-15.133,8.592-29.384,12.44-42.556l-95.8-18.177-10.159,34.11a2.443,2.443,0,0,0,1.672,3.046" transform="translate(45.539 709.493)" fill="#e5dbc2"/>
      <path id="path152" d="M569.6-655.542a2.441,2.441,0,0,0-2.345-3.124H471.421a2.443,2.443,0,0,0-2.34,1.745l-8.111,27.234,95.78,18.173c4.869-16.667,9.2-31.513,12.853-44.028" transform="translate(44.763 711.723)" fill="#e5dbc2"/>
      <path id="path154" d="M584.743-518.393a2.444,2.444,0,0,0-1.682-3.015l-16.743-4.758a2.432,2.432,0,0,0-3.008,1.654q-3.377,11.544-6.9,23.589l21.706,5.909,6.628-23.378" transform="translate(38.648 703.24)" fill="#e5dbc2"/>
      <path id="path156" d="M548.112-472.424a2.446,2.446,0,0,0,1.722,3.054l17.266,4.525a2.442,2.442,0,0,0,2.968-1.7l6.489-22.892-21.736-5.916q-3.305,11.293-6.708,22.925" transform="translate(39.186 701.26)" fill="#e5dbc2"/>
      <path id="path158" d="M655.221-526.329a2.441,2.441,0,0,0,3.11-2.347,2.442,2.442,0,0,0-4.8-.644h0a2.442,2.442,0,0,0,1.687,2.991h0" transform="translate(32.431 703.551)" fill="#e5dbc2"/>
      <path id="path160" d="M590.951-461.146a2.441,2.441,0,0,0,1.73,3.027l17.107,4.484a2.441,2.441,0,0,0,2.993-1.79l5.461-22.666-20.877-5.683-6.413,22.627" transform="translate(36.441 700.518)" fill="#e5dbc2"/>
      <path id="path162" d="M625.248-506.989a2.441,2.441,0,0,0-1.706-2.92l-15.057-4.279a2.442,2.442,0,0,0-3.016,1.682L598.9-489.331l20.733,5.644,5.614-23.3" transform="translate(35.926 702.473)" fill="#e5dbc2"/>
      <path id="path164" d="M441.948-655.527a2.441,2.441,0,0,0-2.34-3.138H428.593l-18.818,62.044,14.049,1.953,18.125-60.859" transform="translate(48.043 711.723)" fill="#e5dbc2"/>
      <path id="path166" d="M582.589-591.747l20.936,5.971,12.433-43.861-20.429-6.424c-3.792,13-8.145,27.9-12.94,44.314" transform="translate(36.971 710.275)" fill="#e5dbc2"/>
      <path id="path168" d="M623.853-655.558a2.441,2.441,0,0,0-2.348-3.107h-17.02a2.432,2.432,0,0,0-2.341,1.75c-1.413,4.852-2.956,10.148-4.608,15.811l20.4,6.414,5.915-20.867" transform="translate(36.013 711.723)" fill="#e5dbc2"/>
      <path id="path170" d="M571.977-554.514a2.45,2.45,0,0,0,1.673,3.042l16.525,4.7a2.441,2.441,0,0,0,3.016-1.682l8.627-30.436-20.966-5.98q-4.23,14.475-8.875,30.36" transform="translate(37.657 706.996)" fill="#e5dbc2"/>
      <path id="path172" d="M147.109-409.148l101.441-12.59a5.4,5.4,0,0,0,4.49-3.761l33.455-108.268a5.393,5.393,0,0,1,6.6-3.605l24.846,6.891a5.4,5.4,0,0,0,6.574-3.537l11.929-36.866a5.4,5.4,0,0,0-4.39-7l-79.51-11.05a5.394,5.394,0,0,0-6.108,4.8L240.5-525.978a5.392,5.392,0,0,1-5.607,4.842l-81.184-3.636a5.4,5.4,0,0,0-5.624,5.028l-7.027,104.882a5.394,5.394,0,0,0,6.046,5.714" transform="translate(65.261 707.259)" fill="#dbfac8"/>
      <path id="path174" d="M407.1-658.665h-8.743l-18.8,58.114,9.52,1.323L407.1-658.665" transform="translate(49.98 711.723)" fill="#e5dbc2"/>
      <path id="path176" d="M155.82-544.329l29.439,1.319c.217-14.386.569-35.114,1.058-56.1L160-602.769a5.393,5.393,0,0,0-6.123,4.983l-3.2,47.707a5.393,5.393,0,0,0,5.14,5.749" transform="translate(64.645 708.145)" fill="#e5dbc2"/>
      <path id="path178" d="M221.308-541.223a5.393,5.393,0,0,0,5.608-4.842l4.242-41.643a5.394,5.394,0,0,0-4.623-5.89L192.7-598.3c-.437,18.684-.8,38.245-1.068,55.748l29.68,1.329" transform="translate(62.02 707.856)" fill="#e5dbc2"/>
      <path id="path180" d="M106.826-437.156a5.4,5.4,0,0,0,6.687-4.873l2.289-34.16-75.6-19.1L27.742-456.878l79.084,19.722" transform="translate(72.521 701.256)" fill="#e5dbc2"/>
      <path id="path182" d="M120.211-531.419a5.394,5.394,0,0,0-4.38-5.661l-53.967-10.2a5.4,5.4,0,0,0-6.132,3.638L42.288-502.19l74.7,18.868,3.223-48.1" transform="translate(71.589 704.593)" fill="#e5dbc2"/>
      <path id="path184" d="M233.253-619.538l113.316,15.747a5.393,5.393,0,0,0,5.874-3.682l16.566-51.191H237.216a5.394,5.394,0,0,0-5.358,4.786l-3.222,28.39a5.4,5.4,0,0,0,4.617,5.951" transform="translate(59.651 711.723)" fill="#e5dbc2"/>
      <path id="path186" d="M635.355-446.925l18.639,4.884a2.441,2.441,0,0,0,3.061-2.361v-23.142l-18.011-4.9L633.6-449.859a2.441,2.441,0,0,0,1.755,2.934" transform="translate(33.707 699.792)" fill="#e5dbc2"/>
      <path id="path188" d="M657.492-498.436a2.441,2.441,0,0,0-1.775-2.347l-6.8-1.933a2.44,2.44,0,0,0-3.04,1.776l-5.519,22.907,17.134,4.665v-25.067" transform="translate(33.27 701.738)" fill="#e5dbc2"/>
      <path id="path192" d="M344.263-533.033l.14-.431a.541.541,0,0,1,0,.064.59.59,0,0,1-.144.367" transform="translate(52.241 703.702)" fill="#c9c2ac"/>
      <path id="path202" d="M99.611-137.823c-.794-.314-1.241-.67-1.241-1.047,0-.467.684-.9,1.863-1.265l-.622,2.312" transform="translate(67.995 678.501)" fill="#dbdcd9"/>
      <path id="path212" d="M416.847-108.244l.789-2.689c1.117.358,1.762.781,1.762,1.234,0,.55-.955,1.057-2.551,1.455" transform="translate(47.59 676.63)" fill="#dbdcd9"/>
      <path id="path226" d="M409.738-113.985h-.018l11.848-20.522a15.425,15.425,0,0,0,2.106-7.737,15.417,15.417,0,0,1-2.106,7.767l-11.83,20.492" transform="translate(48.047 678.636)" fill="#c9c2ac"/>
      <path id="path228" d="M407.99-109.217v-.03l1.62-2.8h.017l-1.637,2.834" transform="translate(48.158 676.701)" fill="#b1ab9a"/>
      <path id="path250" d="M106.639-445.2h-.017l11.848-20.522a15.417,15.417,0,0,0,2.107-7.737,15.424,15.424,0,0,1-2.107,7.767L106.639-445.2" transform="translate(67.467 699.857)" fill="#c9c2ac"/>
      <path id="path252" d="M104.892-440.434v-.03l1.619-2.8h.017l-1.637,2.834" transform="translate(67.578 697.923)" fill="#b1ab9a"/>
      <path id="path276" d="M600.088-579.684h0a14.92,14.92,0,0,0,.106-1.776,14.966,14.966,0,0,1-.1,1.777" transform="translate(35.85 706.777)" fill="#dbdcd9"/>
      <path id="path278" d="M585.3-553.081h-.016L597.136-573.6a15.558,15.558,0,0,0,2-5.961h0a15.537,15.537,0,0,1-2,5.99L585.3-553.081" transform="translate(36.798 706.655)" fill="#c9c2ac"/>
      <path id="path280" d="M583.557-548.434v-.03l1.62-2.8h.016l-1.636,2.834" transform="translate(36.909 704.842)" fill="#b1ab9a"/>
      <path id="path304" d="M634.5-220.158l-.015,0,3.881-6.722.015,0-3.881,6.722m7.189-13.6-.008,0a15.172,15.172,0,0,0,.488-3.792,15.19,15.19,0,0,1-.48,3.795" transform="translate(33.646 684.742)" fill="#dbdcd9"/>
      <path id="path306" d="M638.651-226.621l-.015,0,1.7-2.939a15.738,15.738,0,0,0,1.619-3.933l.008,0a15.763,15.763,0,0,1-1.626,3.961l-1.682,2.913" transform="translate(33.38 684.483)" fill="#e7b952"/>
      <path id="path308" d="M627.807-208.111h-.016l6.269-10.859.015,0-6.268,10.857" transform="translate(34.075 683.552)" fill="#c9c2ac"/>
      <path id="path310" d="M626.06-204.534v-.03l1.62-2.805h.016l-1.636,2.834" transform="translate(34.186 682.809)" fill="#b1ab9a"/>
      <path id="path348" d="M584.976-64.309h0l5.4-9.348-5.4,9.348m14.237-28.747a15.69,15.69,0,0,0-9.52-14.388,15.69,15.69,0,0,1,9.52,14.388" transform="translate(36.818 676.406)" fill="#c9c2ac"/>
      <path id="path350" d="M583.548-59.041h0l1.336-2.315h0l-1.336,2.315" transform="translate(36.91 673.453)" fill="#b1ab9a"/>
      <path id="path402" d="M478.43-318.5h0l1.374-2.38q.324-.563.6-1.133-.273.571-.6,1.133l-1.374,2.38" transform="translate(43.645 690.154)" fill="#dbdcd9"/>
      <path id="path404" d="M466.936-299.624h0l10.757-18.631h0l-10.757,18.631" transform="translate(44.381 689.913)" fill="#c9c2ac"/>
      <path id="path406" d="M482.143-329.168q0-.762-.074-1.515h0q.073.752.074,1.515" transform="translate(43.411 690.709)" fill="#dbdcd9"/>
      <path id="path408" d="M481.008-331.647a15.557,15.557,0,0,0-15.5-14.074h0a15.557,15.557,0,0,1,15.5,14.074h0" transform="translate(44.472 691.673)" fill="#c9c2ac"/>
      <path id="path410" d="M465.508-296.034h0l1.337-2.315h0l-1.337,2.315" transform="translate(44.472 688.638)" fill="#b1ab9a"/>
      <path id="path438" d="M237.937-573.569a15.733,15.733,0,0,0-4.339-10.8h0a15.731,15.731,0,0,1,4.339,10.8" transform="translate(59.331 706.963)" fill="#dbdcd9"/>
      <path id="path440" d="M232.829-584.7a15.339,15.339,0,0,0-11.235-4.787h0a15.339,15.339,0,0,1,11.235,4.787h0" transform="translate(60.1 707.291)" fill="#c9c2ac"/>
      <path id="path458" d="M541.195-399.654h0l1.947-3.372h0l-1.947,3.372" transform="translate(39.623 695.344)" fill="#dbdcd9"/>
      <path id="path460" d="M543.275-404.044h0l4.1-7.1a15.407,15.407,0,0,0,2.106-7.767,15.408,15.408,0,0,1-2.106,7.767l-4.1,7.1" transform="translate(39.49 696.362)" fill="#c9c2ac"/>
      <path id="path462" d="M534.695-388.886h0l6.083-10.537h0l-6.083,10.537" transform="translate(40.04 695.114)" fill="#c9c2ac"/>
      <path id="path464" d="M533.268-385.85h0l1.335-2.315h0l-1.335,2.315" transform="translate(40.131 694.392)" fill="#b1ab9a"/>
      <path id="path504" d="M207.16-46.113a15.526,15.526,0,0,0-1.063-5.64h0a15.526,15.526,0,0,1,1.063,5.64" transform="translate(61.093 672.838)" fill="#dbdcd9"/>
      <path id="path506" d="M205.1-52.434a15.469,15.469,0,0,0-14.511-9.949h0A15.469,15.469,0,0,1,205.1-52.434h0" transform="translate(62.087 673.519)" fill="#c9c2ac"/>
      <path id="path556" d="M324.971-25.112v0" transform="translate(53.477 671.132)" fill="#47494c"/>
      <path id="path558" d="M325.074-24.457h0c-.037-.185-.067-.367-.091-.548.024.182.054.366.09.548" transform="translate(53.476 671.124)" fill="#47494c"/>
      <path id="path560" d="M325.8-22.416l-.014-.026.014.026" transform="translate(53.425 670.96)" fill="#47494c"/>
      <path id="path562" d="M325.724-22.555l-.05-.1.05.1" transform="translate(53.432 670.974)" fill="#47494c"/>
      <path id="path564" d="M325.282-23.648a6.844,6.844,0,0,0,.357.9,6.826,6.826,0,0,1-.354-.9h0" transform="translate(53.457 671.037)" fill="#47494c"/>
      <g id="Group_4320" data-name="Group 4320" transform="translate(543.073 190.886)">
        <path id="path476" d="M405.492-421.918c-2.444,0-10.23-.572-10.716-2.158s7.959-2.11,9.478-2.144l1.238,2.144,1.238-2.144c5.369.124,9.54,1.037,9.54,2.144,0,1.193-4.825,2.158-10.778,2.158" transform="translate(-391.067 467.288)" fill="#c9c2ac"/>
        <path id="path478" d="M404.926-430.38l-12.473-21.606a14.4,14.4,0,0,1,12.473-21.606A14.4,14.4,0,0,1,417.4-451.986L404.926-430.38" transform="translate(-390.501 473.592)" fill="#45a138"/>
        <path id="path480" d="M407.14-430.38v-43.212a14.4,14.4,0,0,1,12.474,21.606L407.14-430.38" transform="translate(-392.715 473.592)" fill="#3e8e36"/>
        <path id="path482" d="M412.526-447.987H399.8v-2.068a6.362,6.362,0,0,1,6.362-6.361,6.361,6.361,0,0,1,6.361,6.361v2.068" transform="translate(-391.739 471.306)" fill="#fff"/>
        <path id="path484" d="M410.237-462.482a3.658,3.658,0,0,1-3.657,3.658,3.658,3.658,0,0,1-3.658-3.658,3.658,3.658,0,0,1,3.658-3.657,3.658,3.658,0,0,1,3.657,3.657" transform="translate(-392.154 472.6)" fill="#fff"/>
      </g>
      <line id="Line_144" data-name="Line 144" x2="90.93" y2="24.681" transform="translate(457.032 205.992)" fill="none" stroke="#707070" stroke-width="7" stroke-dasharray="15 11"/>
    </g>
    <g id="Group_4319" data-name="Group 4319" transform="translate(526.16 -142.826)">
      <path id="path204" d="M108.341-136.8c-4.361,0-10.792-1.122-11.112-2.236s6.435-2.144,9.829-2.222l1.283,2.222,1.283-2.222c5.563.127,9.884,1.073,9.884,2.222,0,1.235-5,2.236-11.167,2.236" transform="translate(-93.394 183.81)" fill="#c9c2ac"/>
      <path id="path206" d="M109.109-143.853,96.183-166.241a14.925,14.925,0,0,1,12.926-22.388h0a14.925,14.925,0,0,1,12.926,22.388l-12.926,22.388" transform="translate(-94.161 188.629)" fill="#f14f34"/>
      <path id="path208" d="M110.8-143.853v-44.776a14.938,14.938,0,0,1,14.208,19.536,15.279,15.279,0,0,1-1.282,2.852l-1.721,2.981-11.2,19.407" transform="translate(-95.855 188.629)" fill="#d7492f"/>
      <path id="path210" d="M108.3-166.231l-5.128-5.129,1.807-1.806,3.32,3.32,8.294-8.294,1.807,1.807-10.1,10.1" transform="translate(-95.078 187.563)" fill="#fff"/>
    </g>
    <g id="Group_4321" data-name="Group 4321" transform="translate(381.782 -645.526)">
      <circle id="Ellipse_210" data-name="Ellipse 210" cx="26.586" cy="26.586" r="26.586" transform="translate(0 0)" fill="#4eb848"/>
      <g id="Group_4311" data-name="Group 4311" transform="translate(10.091 14.337)">
        <path id="Path_2405" data-name="Path 2405" d="M56.311,43.734l-.155-.9h2.1a.885.885,0,0,0,.862-1.087l-.835-3.535a.884.884,0,0,0-.862-.68h-2.2l-.009-.053A4.376,4.376,0,0,0,51.07,34H35.093A4.616,4.616,0,0,0,30.8,37.451l-.018.084H28.6a.884.884,0,0,0-.862.68l-.835,3.535a.885.885,0,0,0,.862,1.087h1.851l-.194.888A3.546,3.546,0,0,0,26,47.255v6.186a3.545,3.545,0,0,0,3.535,3.535v.632a2.5,2.5,0,0,0,2.532,2.461h2.006A2.5,2.5,0,0,0,36.6,57.608v-.632H48.976v.632a2.5,2.5,0,0,0,2.532,2.461h2.006a2.5,2.5,0,0,0,2.532-2.461v-.632a3.545,3.545,0,0,0,3.535-3.535V47.255A3.544,3.544,0,0,0,56.311,43.734Zm.411-4.432.415,1.767H55.842L55.533,39.3Zm-24.2-1.471a2.869,2.869,0,0,1,2.567-2.063H51.07a2.606,2.606,0,0,1,2.4,2.019l1.043,5.934H31.236ZM28.885,41.07,29.3,39.3h1.1l-.389,1.767Zm5.952,16.538a.735.735,0,0,1-.764.694H32.067a.735.735,0,0,1-.764-.694v-.632h3.535Zm19.441,0a.735.735,0,0,1-.764.694H51.508a.735.735,0,0,1-.764-.694v-.632h3.535Zm3.535-4.167a1.767,1.767,0,0,1-1.767,1.767H29.535a1.767,1.767,0,0,1-1.767-1.767V47.255a1.767,1.767,0,0,1,1.767-1.767H56.046a1.767,1.767,0,0,1,1.767,1.767Z" transform="translate(-26 -34)" fill="#fff"/>
        <path id="Path_2406" data-name="Path 2406" d="M41.953,68.535h10.6a.884.884,0,0,0,0-1.767h-10.6a.884.884,0,0,0,0,1.767ZM36.651,65A2.651,2.651,0,1,0,39.3,67.651,2.651,2.651,0,0,0,36.651,65Zm0,3.535a.884.884,0,1,1,.884-.884A.884.884,0,0,1,36.651,68.535Z" transform="translate(-30.465 -51.303)" fill="#fff"/>
        <path id="Path_2407" data-name="Path 2407" d="M84.651,65A2.651,2.651,0,1,0,87.3,67.651,2.651,2.651,0,0,0,84.651,65Zm0,3.535a.884.884,0,1,1,.884-.884A.884.884,0,0,1,84.651,68.535Z" transform="translate(-57.256 -51.303)" fill="#fff"/>
      </g>
    </g>
    <path id="Path_4142" data-name="Path 4142" d="M-117.427,0s-76.137,249.992-75.82,251.941S-274.809,558.2-274.809,558.2" transform="translate(518.023 -583.711)" fill="none" stroke="#8efa88" stroke-width="10"/>
    <g id="Group_4327" data-name="Group 4327" transform="translate(89.742 -492.552)">
      <circle id="Ellipse_210-2" data-name="Ellipse 210" cx="26.586" cy="26.586" r="26.586" transform="translate(0 0)" fill="#1970a7"/>
      <g id="Group_4311-2" data-name="Group 4311" transform="translate(10.091 14.337)">
        <path id="Path_2405-2" data-name="Path 2405" d="M56.311,43.734l-.155-.9h2.1a.885.885,0,0,0,.862-1.087l-.835-3.535a.884.884,0,0,0-.862-.68h-2.2l-.009-.053A4.376,4.376,0,0,0,51.07,34H35.093A4.616,4.616,0,0,0,30.8,37.451l-.018.084H28.6a.884.884,0,0,0-.862.68l-.835,3.535a.885.885,0,0,0,.862,1.087h1.851l-.194.888A3.546,3.546,0,0,0,26,47.255v6.186a3.545,3.545,0,0,0,3.535,3.535v.632a2.5,2.5,0,0,0,2.532,2.461h2.006A2.5,2.5,0,0,0,36.6,57.608v-.632H48.976v.632a2.5,2.5,0,0,0,2.532,2.461h2.006a2.5,2.5,0,0,0,2.532-2.461v-.632a3.545,3.545,0,0,0,3.535-3.535V47.255A3.544,3.544,0,0,0,56.311,43.734Zm.411-4.432.415,1.767H55.842L55.533,39.3Zm-24.2-1.471a2.869,2.869,0,0,1,2.567-2.063H51.07a2.606,2.606,0,0,1,2.4,2.019l1.043,5.934H31.236ZM28.885,41.07,29.3,39.3h1.1l-.389,1.767Zm5.952,16.538a.735.735,0,0,1-.764.694H32.067a.735.735,0,0,1-.764-.694v-.632h3.535Zm19.441,0a.735.735,0,0,1-.764.694H51.508a.735.735,0,0,1-.764-.694v-.632h3.535Zm3.535-4.167a1.767,1.767,0,0,1-1.767,1.767H29.535a1.767,1.767,0,0,1-1.767-1.767V47.255a1.767,1.767,0,0,1,1.767-1.767H56.046a1.767,1.767,0,0,1,1.767,1.767Z" transform="translate(-26 -34)" fill="#fff"/>
        <path id="Path_2406-2" data-name="Path 2406" d="M41.953,68.535h10.6a.884.884,0,0,0,0-1.767h-10.6a.884.884,0,0,0,0,1.767ZM36.651,65A2.651,2.651,0,1,0,39.3,67.651,2.651,2.651,0,0,0,36.651,65Zm0,3.535a.884.884,0,1,1,.884-.884A.884.884,0,0,1,36.651,68.535Z" transform="translate(-30.465 -51.303)" fill="#fff"/>
        <path id="Path_2407-2" data-name="Path 2407" d="M84.651,65A2.651,2.651,0,1,0,87.3,67.651,2.651,2.651,0,0,0,84.651,65Zm0,3.535a.884.884,0,1,1,.884-.884A.884.884,0,0,1,84.651,68.535Z" transform="translate(-57.256 -51.303)" fill="#fff"/>
      </g>
    </g>
    <path id="Path_4143" data-name="Path 4143" d="M-87.383,7.367l-2.905,45.483,328.859,82.492S158.6,405.691,158.7,406.31" transform="translate(203.86 -436.168)" fill="none" stroke="#acdfff" stroke-width="8"/>
    <path id="Path_4144" data-name="Path 4144" d="M163.294,127.716l121.181,29.952L232.425,337.8" transform="translate(157.719 -458.067)" fill="none" stroke="#1970a7" stroke-width="10"/>
    <path id="Path_4145" data-name="Path 4145" d="M-120.335,83l-57.017,191.176" transform="translate(500.29 -598.814)" fill="none" stroke="#4eb848" stroke-width="10"/>
    <g id="Group_4328" data-name="Group 4328" transform="translate(27.571 -242.232)">
      <circle id="Ellipse_210-3" data-name="Ellipse 210" cx="26.586" cy="26.586" r="26.586" transform="translate(0 0)" fill="#a031af"/>
      <g id="Group_4311-3" data-name="Group 4311" transform="translate(10.091 14.337)">
        <path id="Path_2405-3" data-name="Path 2405" d="M56.311,43.734l-.155-.9h2.1a.885.885,0,0,0,.862-1.087l-.835-3.535a.884.884,0,0,0-.862-.68h-2.2l-.009-.053A4.376,4.376,0,0,0,51.07,34H35.093A4.616,4.616,0,0,0,30.8,37.451l-.018.084H28.6a.884.884,0,0,0-.862.68l-.835,3.535a.885.885,0,0,0,.862,1.087h1.851l-.194.888A3.546,3.546,0,0,0,26,47.255v6.186a3.545,3.545,0,0,0,3.535,3.535v.632a2.5,2.5,0,0,0,2.532,2.461h2.006A2.5,2.5,0,0,0,36.6,57.608v-.632H48.976v.632a2.5,2.5,0,0,0,2.532,2.461h2.006a2.5,2.5,0,0,0,2.532-2.461v-.632a3.545,3.545,0,0,0,3.535-3.535V47.255A3.544,3.544,0,0,0,56.311,43.734Zm.411-4.432.415,1.767H55.842L55.533,39.3Zm-24.2-1.471a2.869,2.869,0,0,1,2.567-2.063H51.07a2.606,2.606,0,0,1,2.4,2.019l1.043,5.934H31.236ZM28.885,41.07,29.3,39.3h1.1l-.389,1.767Zm5.952,16.538a.735.735,0,0,1-.764.694H32.067a.735.735,0,0,1-.764-.694v-.632h3.535Zm19.441,0a.735.735,0,0,1-.764.694H51.508a.735.735,0,0,1-.764-.694v-.632h3.535Zm3.535-4.167a1.767,1.767,0,0,1-1.767,1.767H29.535a1.767,1.767,0,0,1-1.767-1.767V47.255a1.767,1.767,0,0,1,1.767-1.767H56.046a1.767,1.767,0,0,1,1.767,1.767Z" transform="translate(-26 -34)" fill="#fff"/>
        <path id="Path_2406-3" data-name="Path 2406" d="M41.953,68.535h10.6a.884.884,0,0,0,0-1.767h-10.6a.884.884,0,0,0,0,1.767ZM36.651,65A2.651,2.651,0,1,0,39.3,67.651,2.651,2.651,0,0,0,36.651,65Zm0,3.535a.884.884,0,1,1,.884-.884A.884.884,0,0,1,36.651,68.535Z" transform="translate(-30.465 -51.303)" fill="#fff"/>
        <path id="Path_2407-3" data-name="Path 2407" d="M84.651,65A2.651,2.651,0,1,0,87.3,67.651,2.651,2.651,0,0,0,84.651,65Zm0,3.535a.884.884,0,1,1,.884-.884A.884.884,0,0,1,84.651,68.535Z" transform="translate(-57.256 -51.303)" fill="#fff"/>
      </g>
    </g>
    <path id="Path_4146" data-name="Path 4146" d="M-93.132,60.954l544,149.809" transform="translate(180.655 -266.768)" fill="none" stroke="#dd81ea" stroke-width="8"/>
    <path id="Path_4147" data-name="Path 4147" d="M272.476,161.8,431.37,205.614" transform="translate(114.129 -285.119)" fill="none" stroke="#a031af" stroke-width="8"/>
  </g>
</svg>
