<svg xmlns="http://www.w3.org/2000/svg" width="802.062" height="590.747" viewBox="0 0 802.062 590.747">
  <g id="g10" transform="translate(0 590.747)">
    <g id="g12">
      <path id="path14" d="M325.4-207.423,175.8-107.357,28.454-327.647,178.061-427.712,325.4-207.423" fill="#f3f2f1"/>
      <path id="path16" d="M248.114-217.869l-1.7,10.508-74.372-10.715,1.7-10.507,74.37,10.713" fill="#dadbd8"/>
      <path id="path18" d="M210.659-255.353l10.672,1.539L209.5-180.592l-10.672-1.537,11.832-73.224" fill="#dadbd8"/>
      <path id="path20" d="M142.157-348.42c.107.16-14.886,10.375-33.482,22.813S74.909-303.21,74.8-303.37s14.883-10.372,33.485-22.815,33.763-22.395,33.868-22.236" fill="#dadbd8"/>
      <path id="path22" d="M197.176-362.231c.107.16-24.825,17.023-55.679,37.659s-55.964,37.245-56.071,37.085,24.82-17.019,55.684-37.661,55.959-37.243,56.065-37.083" fill="#dadbd8"/>
      <path id="path24" d="M208.2-345.743c.108.16-24.824,17.023-55.679,37.659S96.561-270.839,96.455-271s24.82-17.019,55.685-37.663S208.1-345.9,208.2-345.743" fill="#dadbd8"/>
      <path id="path26" d="M219.233-329.255c.107.16-24.825,17.023-55.679,37.66s-55.964,37.244-56.071,37.085,24.819-17.019,55.685-37.663,55.959-37.241,56.065-37.083" fill="#dadbd8"/>
      <path id="path28" d="M230.261-312.766c.107.16-24.825,17.023-55.679,37.659s-55.964,37.245-56.071,37.085,24.82-17.017,55.684-37.661,55.959-37.241,56.065-37.083" fill="#dadbd8"/>
      <path id="path30" d="M802.062-95.069,676.417-11.032,552.676-196.037,678.32-280.075,802.062-95.069" fill="#f3f2f1"/>
      <path id="path32" d="M737.151-103.842l-1.425,8.825-62.459-9,1.427-8.824,62.457,9" fill="#dadbd8"/>
      <path id="path34" d="M705.7-135.321l8.961,1.289-9.937,61.5-8.963-1.291,9.939-61.495" fill="#dadbd8"/>
      <path id="path36" d="M648.166-213.482c.107.159-12.469,8.757-28.088,19.2s-28.372,18.789-28.479,18.629,12.469-8.757,28.093-19.207,28.367-18.788,28.473-18.627" fill="#dadbd8"/>
      <path id="path38" d="M694.372-225.082c.107.159-20.817,14.341-46.729,31.673s-47.013,31.26-47.12,31.1,20.813-14.337,46.733-31.675,47.009-31.257,47.116-31.1" fill="#dadbd8"/>
      <path id="path40" d="M703.636-211.234c.107.159-20.82,14.341-46.731,31.673s-47.015,31.257-47.121,31.1S630.6-162.8,656.52-180.138s47.009-31.256,47.116-31.1" fill="#dadbd8"/>
      <path id="path42" d="M712.9-197.386c.107.159-20.817,14.341-46.731,31.673s-47.013,31.257-47.12,31.1,20.813-14.339,46.734-31.676,47.009-31.256,47.116-31.1" fill="#dadbd8"/>
      <path id="path44" d="M722.158-183.54c.107.16-20.817,14.341-46.729,31.673s-47.013,31.259-47.12,31.1,20.812-14.339,46.733-31.677,47.009-31.256,47.116-31.1" fill="#dadbd8"/>
      <path id="path46" d="M371.586-217.777,234.5-291.1,342.454-492.957l137.092,73.318L371.586-217.777" fill="#f3f2f1"/>
      <path id="path48" d="M348.118-280.923l-8.7,2.979-22.076-61.032,8.7-2.979,22.077,61.032" fill="#dadbd8"/>
      <path id="path50" d="M361.452-324.707l3.168,8.757-60.612,20.759-3.168-8.759,60.612-20.757" fill="#dadbd8"/>
      <path id="path52" d="M404.52-414.756c-.107.2-14.012-7.027-31.053-16.14s-30.773-16.667-30.667-16.868,14.009,7.025,31.056,16.141,30.772,16.667,30.664,16.867" fill="#dadbd8"/>
      <path id="path54" d="M437.418-378.446c-.108.2-23.12-11.9-51.392-27.017S334.91-433.01,335.016-433.21s23.115,11.895,51.4,27.02,51.111,27.544,51,27.744" fill="#dadbd8"/>
      <path id="path56" d="M429.336-363.336c-.107.2-23.119-11.9-51.392-27.017S326.829-417.9,326.937-418.1s23.115,11.895,51.4,27.021,51.111,27.544,51,27.744" fill="#dadbd8"/>
      <path id="path58" d="M421.255-348.227c-.107.2-23.117-11.9-51.391-27.017s-51.116-27.547-51.009-27.748,23.115,11.895,51.4,27.021,51.112,27.544,51,27.744" fill="#dadbd8"/>
      <path id="path60" d="M413.175-333.118c-.107.2-23.119-11.9-51.392-27.017s-51.116-27.547-51.008-27.748,23.115,11.895,51.4,27.02,51.111,27.545,51,27.745" fill="#dadbd8"/>
      <path id="path62" d="M410.45-532.1h3.444v-58.644H410.45Z" fill="#c3c5c2"/>
      <path id="path64" d="M331.865-461.162H492.479S477.65-532.14,410.955-532.14c-59.322,0-79.09,70.978-79.09,70.978" fill="#13930b"/>
      <path id="path66" d="M413.894-590.747H410.45V-532.1h3.444v-58.644" fill="#13930b"/>
      <path id="path68" d="M769.775-4.31c0,.192-172.334.348-384.87.348C172.3-3.962,0-4.119,0-4.31s172.3-.347,384.906-.347c212.535,0,384.87.156,384.87.347" fill="#17282f"/>
      <path id="path70" d="M42.6-87.812a16.8,16.8,0,0,1,11.714,6A29.66,29.66,0,0,1,60.279-69.8c2.256,8.432.87,18.381-1.535,26.771-9.128-3.261-14.757-13-17.3-18.113C37.419-69.23,35.06-86.292,42.6-87.812" fill="#f0e23d"/>
      <path id="path72" d="M71.877-32.81a14.334,14.334,0,0,1-.671-14.38,19.04,19.04,0,0,1,11.467-9.217c2.227-.683,4.812-.971,6.749.322a6.134,6.134,0,0,1,2.36,5.751,12.429,12.429,0,0,1-2.625,5.9C84.72-38.426,79.322-33.425,71.877-32.81" fill="#f0e23d"/>
      <path id="path74" d="M72.882-4.636a10.184,10.184,0,0,1-.408-1.751c-.244-1.251-.56-2.867-.939-4.807-.72-4.04-1.864-9.785-1-16.137a30.813,30.813,0,0,1,5.987-14.957,20.937,20.937,0,0,1,3.463-3.5,12.811,12.811,0,0,1,1.086-.78c.255-.168.4-.246.408-.229a32.564,32.564,0,0,0-4.6,4.781,31.8,31.8,0,0,0-5.715,14.769c-.851,6.223.2,11.916.812,15.979.327,2.039.59,3.692.742,4.842a9.453,9.453,0,0,1,.165,1.791" fill="#17282f"/>
      <path id="path76" d="M45.547-74.978a3.558,3.558,0,0,1,.368.691c.243.525.555,1.2.94,2.031.807,1.771,1.941,4.345,3.315,7.539,2.75,6.385,6.426,15.26,10.263,25.15s7.105,18.93,9.379,25.5c1.138,3.285,2.036,5.951,2.633,7.8.277.876.5,1.583.675,2.135a3.59,3.59,0,0,1,.195.759A3.79,3.79,0,0,1,73-4.091c-.2-.543-.464-1.237-.787-2.1-.693-1.9-1.651-4.521-2.822-7.731-2.381-6.529-5.715-15.532-9.547-25.42S52.4-58.119,49.758-64.545c-1.3-3.16-2.36-5.743-3.129-7.613-.341-.853-.617-1.543-.832-2.079a3.753,3.753,0,0,1-.25-.741" fill="#17282f"/>
      <path id="path78" d="M62.047-23.276A33.539,33.539,0,0,0,36.018-39.448c-2.7-.2-5.944.257-7.147,2.681s.406,5.3,2.245,7.29a28.654,28.654,0,0,0,31.031,6.928" fill="#f0e23d"/>
      <path id="path80" d="M40.127-32.225a8.718,8.718,0,0,1,1.69.063,16.06,16.06,0,0,1,1.971.229c.759.14,1.644.224,2.585.485a29.66,29.66,0,0,1,3.076.855,33.173,33.173,0,0,1,3.428,1.3A37.274,37.274,0,0,1,60.1-25.008a36.536,36.536,0,0,1,5.97,5.908,31.544,31.544,0,0,1,2.1,3.007,27.011,27.011,0,0,1,1.565,2.784,24.8,24.8,0,0,1,1.074,2.4,15.127,15.127,0,0,1,.671,1.868,8.609,8.609,0,0,1,.44,1.632c-.135.047-.783-2.284-2.582-5.7a29.336,29.336,0,0,0-1.609-2.708,33.719,33.719,0,0,0-2.116-2.924,37.926,37.926,0,0,0-5.9-5.771,38.774,38.774,0,0,0-7.077-4.252A34.482,34.482,0,0,0,49.282-30.1a31.411,31.411,0,0,0-3.014-.918c-3.742-.946-6.155-1.074-6.141-1.212" fill="#17282f"/>
      <path id="path82" d="M645.368-450.114c-3.92.9-5.829,5.413-6.2,9.419s.14,8.237-1.543,11.892c-1.895,4.113-6.417,7.145-6.568,11.671-.091,2.76,1.547,5.355,1.469,8.113-.129,4.533-4.752,7.957-4.995,12.485-.173,3.26,2,6.388,1.476,9.611-.408,2.509-2.36,4.485-3.185,6.888-1.645,4.791,1.645,10.064,5.932,12.761a19.732,19.732,0,0,0,16.271,2.063,19.731,19.731,0,0,0,12.06-11.115c2.372-5.759,1.853-12.243,1.337-18.449q-2.41-29.01-3.58-58.107" fill="#17282f"/>
      <path id="path84" d="M633.986-381.862a4.7,4.7,0,0,0,1.791-2.131,7.543,7.543,0,0,0,.457-3.255,17.972,17.972,0,0,0-.973-4.317,12.3,12.3,0,0,1-.695-5.468c.336-2.076,1.821-3.78,3.177-5.456a12.217,12.217,0,0,0,1.8-2.736,4.432,4.432,0,0,0,.209-3.2c-.689-2.179-2.824-3.78-3.8-6.3a6.794,6.794,0,0,1-.213-3.891,15.744,15.744,0,0,1,1.287-3.489,29.862,29.862,0,0,0,2.649-6.273c.935-4.229.5-8.267,1.136-11.583a12.861,12.861,0,0,1,3.371-7.105,7.537,7.537,0,0,1,1.761-1.255,3.151,3.151,0,0,1,.705-.265,10.844,10.844,0,0,0-2.276,1.711,12.992,12.992,0,0,0-3.079,7,44.182,44.182,0,0,0-.371,5.388,32.837,32.837,0,0,1-.625,6.259,29.926,29.926,0,0,1-2.657,6.42c-1,2.095-1.924,4.551-1.037,6.847.847,2.269,2.995,3.881,3.8,6.333a5.083,5.083,0,0,1-.249,3.665,12.694,12.694,0,0,1-1.911,2.875c-1.395,1.685-2.789,3.289-3.108,5.155a11.974,11.974,0,0,0,.6,5.231,17.876,17.876,0,0,1,.888,4.436,7.646,7.646,0,0,1-.6,3.38,4.053,4.053,0,0,1-1.367,1.683,2.2,2.2,0,0,1-.673.34" fill="#33535f"/>
      <path id="path86" d="M623.488-350.259l-12.035,34.7-50.192,2.691-8.369,18.624,52.4,5.3a19.8,19.8,0,0,0,26.2-11.619L645.477-339.6l-21.989-10.66" fill="#c0776a"/>
      <path id="path88" d="M727.306-23.15s-36.783-116.825-37.563-120.617c-.707-3.428,13.348-87.5,15.119-109.256l-49.7,1.853s0,.132,0,.361l-21.125,1.172L652.954-10.712h22.871L673.557-89.98c14.1,37.861,34.312,76.445,34.312,76.445l19.437-9.616" fill="#c0776a"/>
      <path id="path90" d="M674.49-61.571c.02-.725-.277-26.558-.277-26.558-.285,1.545-8.768-22.431-8.563-23.888.105-.755,8.84,50.446,8.84,50.446" fill="#ac584f"/>
      <path id="path92" d="M664.684-123.369a5.326,5.326,0,0,0-.148,1.448,38.2,38.2,0,0,0,.031,3.961c.032.839.12,1.752.228,2.732.125.978.259,2.025.485,3.112a53.447,53.447,0,0,0,1.869,6.961c1.66,4.832,3.493,9.06,4.795,12.126q.924,2.1,1.591,3.612a5.416,5.416,0,0,0,.679,1.287,5.343,5.343,0,0,0-.4-1.4c-.305-.881-.773-2.147-1.368-3.7-1.175-3.119-2.927-7.379-4.572-12.168a60.406,60.406,0,0,1-1.9-6.857c-.243-1.065-.4-2.095-.547-3.056s-.252-1.861-.317-2.688c-.157-1.649-.229-2.994-.271-3.925a5.423,5.423,0,0,0-.148-1.446" fill="#ac584f"/>
      <path id="path94" d="M652.525-9.535l-.009-2.148,23.425-1.02.065,8.86-1.445.1c-6.431.378-32.723,1.461-37.027.172-4.8-1.44,14.991-5.96,14.991-5.96" fill="#33535f"/>
      <path id="path96" d="M676.333-4.379a2.268,2.268,0,0,1-.4.044c-.345.021-.724.047-1.151.075l-4.235.2c-3.577.14-8.523.27-13.985.3s-10.412-.064-13.989-.173L638.334-4.1l-1.151-.064a2.514,2.514,0,0,1-.4-.04,1.919,1.919,0,0,1,.4-.016l1.152.011,4.239.069c3.577.06,8.521.115,13.984.092s10.4-.122,13.98-.213l4.237-.108,1.152-.021a2,2,0,0,1,.4.014" fill="#17282f"/>
      <path id="path98" d="M644.936-3.626a9.584,9.584,0,0,0-.8-2.018,9.516,9.516,0,0,0-1.449-1.616,3.137,3.137,0,0,1,1.689,1.468,3.141,3.141,0,0,1,.559,2.167" fill="#17282f"/>
      <path id="path100" d="M651.8-7.139c-.065.043-.4-.357-.737-.892s-.567-1-.5-1.044.4.358.737.892.565,1,.5,1.044" fill="#17282f"/>
      <path id="path102" d="M653.684-8.144c-.052.058-.421-.185-.823-.546s-.688-.7-.636-.755.42.185.823.544.688.7.636.756" fill="#17282f"/>
      <path id="path104" d="M654.868-10.348a2.734,2.734,0,0,1-1.215.16,2.739,2.739,0,0,1-1.22-.124,2.773,2.773,0,0,1,1.216-.159,2.762,2.762,0,0,1,1.219.123" fill="#17282f"/>
      <path id="path106" d="M655.272-11.9a2.367,2.367,0,0,1-1.355.4,2.355,2.355,0,0,1-1.4-.183,7.66,7.66,0,0,1,1.379-.1,7.42,7.42,0,0,1,1.377-.117" fill="#17282f"/>
      <path id="path108" d="M651-9.168a4.365,4.365,0,0,1-1.5-.005,8.613,8.613,0,0,1-1.595-.345,4.37,4.37,0,0,1-.915-.372.813.813,0,0,1-.372-.466.588.588,0,0,1,.224-.6,2.747,2.747,0,0,1,3.4.791,2.682,2.682,0,0,1,.492,1,.807.807,0,0,1,.04.4,4.176,4.176,0,0,0-.687-1.274,2.7,2.7,0,0,0-1.283-.828,2.326,2.326,0,0,0-1.784.128c-.237.177-.144.457.121.613a4.5,4.5,0,0,0,.843.358,10.639,10.639,0,0,0,1.544.4c.9.155,1.469.155,1.469.2" fill="#17282f"/>
      <path id="path110" d="M650.614-9.093a1.48,1.48,0,0,1-.177-1.04,2.452,2.452,0,0,1,.405-1.095A1.5,1.5,0,0,1,652.086-12a.6.6,0,0,1,.464.689,1.607,1.607,0,0,1-.251.669,4.48,4.48,0,0,1-.705.909,2.15,2.15,0,0,1-.855.609c-.027-.036.3-.269.709-.745a5.32,5.32,0,0,0,.624-.9c.2-.319.343-.886-.035-.953-.373-.036-.755.34-.983.639a2.453,2.453,0,0,0-.42.976,5.471,5.471,0,0,0-.021,1.009" fill="#17282f"/>
      <path id="path112" d="M675.833-10.756c0,.054-.667-.06-1.72.068a7.524,7.524,0,0,0-3.751,1.561A7.51,7.51,0,0,0,668.026-5.8c-.352,1-.384,1.672-.437,1.665a1.372,1.372,0,0,1,0-.469,6.3,6.3,0,0,1,.249-1.258,7.211,7.211,0,0,1,2.349-3.484,7.21,7.21,0,0,1,3.908-1.54,6.183,6.183,0,0,1,1.281.028,1.426,1.426,0,0,1,.459.1" fill="#17282f"/>
      <path id="path114" d="M664.614-6.236a13.165,13.165,0,0,1-3.4.322A13.167,13.167,0,0,1,657.8-6.2c.007-.081,1.529.017,3.405.005s3.4-.122,3.405-.041" fill="#17282f"/>
      <path id="path116" d="M669.181-6.285c.057.056-.124.323-.277.672s-.239.66-.317.655-.123-.367.059-.769.487-.615.536-.557" fill="#17282f"/>
      <path id="path118" d="M670.9-8.435c.055.056-.095.3-.335.543s-.48.4-.536.347.093-.3.335-.544.48-.4.536-.345" fill="#17282f"/>
      <path id="path120" d="M673.354-9.423c-.016.08-.325.078-.667.2s-.589.3-.651.252.133-.374.559-.519.783-.005.759.067" fill="#17282f"/>
      <path id="path122" d="M675.106-9.891c.029.073-.105.192-.3.268s-.373.079-.4.007.105-.193.3-.268.373-.079.4-.007" fill="#17282f"/>
      <path id="path124" d="M707.412-11.6l-.889-1.956,20.953-10.528,3.687,8.056-1.279.681C724.173-12.369,700.632-.611,696.177-.026,691.209.628,707.412-11.6,707.412-11.6" fill="#33535f"/>
      <path id="path126" d="M731.241-16.65a2.186,2.186,0,0,1-.347.205c-.305.161-.64.339-1.02.537q-1.54.782-3.783,1.916c-3.205,1.595-7.664,3.739-12.636,6s-9.525,4.206-12.835,5.571l-3.929,1.59-1.077.413a2.079,2.079,0,0,1-.383.127,2.257,2.257,0,0,1,.361-.18c.317-.137.663-.29,1.055-.461,1.059-.455,2.361-1.012,3.9-1.672,3.289-1.412,7.823-3.387,12.795-5.645s9.439-4.373,12.667-5.92c1.505-.724,2.783-1.336,3.82-1.834l1.043-.491a2.329,2.329,0,0,1,.373-.155" fill="#17282f"/>
      <path id="path128" d="M702.909-3.1a9.66,9.66,0,0,0-1.556-1.515,9.518,9.518,0,0,0-1.987-.881,3.134,3.134,0,0,1,2.145.647,3.147,3.147,0,0,1,1.4,1.749" fill="#17282f"/>
      <path id="path130" d="M707.73-9.119c-.041.066-.508-.164-1.037-.51s-.928-.683-.884-.747.507.162,1.039.509.925.683.883.748" fill="#17282f"/>
      <path id="path132" d="M709.037-10.807c-.023.075-.459,0-.973-.16s-.915-.355-.889-.429.46,0,.973.16.913.355.889.429" fill="#17282f"/>
      <path id="path134" d="M709.216-13.3c.033.072-.435.36-1.043.645a2.777,2.777,0,0,1-1.164.387c-.032-.071.435-.359,1.044-.644a2.767,2.767,0,0,1,1.163-.388" fill="#17282f"/>
      <path id="path136" d="M708.948-14.884c.053.052-.376.54-1.073.919a2.369,2.369,0,0,1-1.352.409,7.317,7.317,0,0,1,1.217-.656,7.32,7.32,0,0,1,1.208-.672" fill="#17282f"/>
      <path id="path138" d="M706.172-10.644a4.3,4.3,0,0,1-1.368.609,8.756,8.756,0,0,1-1.6.339,4.3,4.3,0,0,1-.985.034.807.807,0,0,1-.529-.27.587.587,0,0,1-.041-.64,2.747,2.747,0,0,1,3.425-.671,2.686,2.686,0,0,1,.857.709c.16.209.216.343.2.352a4.241,4.241,0,0,0-1.149-.881,2.7,2.7,0,0,0-1.508-.23,2.325,2.325,0,0,0-1.576.848c-.144.259.056.475.361.509a4.5,4.5,0,0,0,.916-.02,10.136,10.136,0,0,0,1.571-.272c.883-.226,1.4-.46,1.423-.417" fill="#17282f"/>
      <path id="path140" d="M705.849-10.416a1.475,1.475,0,0,1-.588-.876,2.458,2.458,0,0,1-.079-1.165,1.5,1.5,0,0,1,.82-1.209c.335-.1,1.116.569,1.171.821.083.251-.4.121-.419.332a4.594,4.594,0,0,1-.272,1.118,2.16,2.16,0,0,1-.529.906c-.039-.024.161-.369.341-.972a5.313,5.313,0,0,0,.2-1.076c.056-.374-.051-.949-.42-.856-.357.121-.551.619-.637.985a2.492,2.492,0,0,0,.017,1.063,5.347,5.347,0,0,0,.395.929" fill="#17282f"/>
      <path id="path142" d="M728.174-22.261c.017.049-.635.218-1.541.766a7.522,7.522,0,0,0-2.783,2.96,7.508,7.508,0,0,0-.768,3.992c.088,1.057.335,1.682.284,1.7a1.3,1.3,0,0,1-.2-.428,6.292,6.292,0,0,1-.288-1.251,7.207,7.207,0,0,1,.716-4.139,7.21,7.21,0,0,1,2.935-3.007,6.1,6.1,0,0,1,1.18-.5,1.291,1.291,0,0,1,.461-.092" fill="#17282f"/>
      <path id="path144" d="M719.79-13.544a13.3,13.3,0,0,1-2.972,1.689,13.239,13.239,0,0,1-3.227,1.135c-.025-.079,1.4-.611,3.109-1.392s3.049-1.5,3.089-1.432" fill="#17282f"/>
      <path id="path146" d="M723.936-15.46c.076.028.02.345.024.727s.052.7-.024.728-.26-.285-.26-.728.191-.757.26-.727" fill="#17282f"/>
      <path id="path148" d="M724.62-18.123c.073.028.036.309-.083.633s-.275.561-.347.533-.037-.309.081-.632.275-.561.348-.535" fill="#17282f"/>
      <path id="path150" d="M726.46-20.032c.017.08-.265.205-.528.456s-.411.52-.489.5-.032-.4.3-.7.712-.326.721-.251" fill="#17282f"/>
      <path id="path152" d="M727.866-21.176c.056.055-.017.219-.164.367s-.307.224-.363.169.017-.219.161-.367.309-.224.365-.169" fill="#17282f"/>
      <path id="path154" d="M701.64-292.566l-3.9-47.6,20.037.357s.928-7.017-2.024-22.412c-1.811-9.439-8.1-15.229-15.148-18.669v-.125l-.611-.16a57.292,57.292,0,0,0-18.353-4.789l-24.6.284s-18.789-2.344-29.189,11.051c-4.007,5.159-16.4,40.473-16.4,40.473l29.521,14.219-2.809-19.583s.559,14.2,2.371,18.7c1.009,2.507,3.933,10.288,3.933,10.288l-.383,23.487,57.553-5.519" fill="#f0c73d"/>
      <path id="path156" d="M688.069-347.073l-3.649,15.555h34.441L716.594-357.6l-28.525,10.523" fill="#f0c73d"/>
      <path id="path158" d="M718.861-331.518a25.685,25.685,0,0,0-4.559-.452c-2.824-.165-6.729-.305-11.047-.285s-8.223.208-11.044.432a24.547,24.547,0,0,0-4.547.561,30.734,30.734,0,0,0,4.576-.025c2.821-.085,6.715-.188,11.019-.209s8.2.036,11.023.064a29.269,29.269,0,0,0,4.579-.085" fill="#17282f"/>
      <path id="path160" d="M686.585-357.723a20.377,20.377,0,0,0-.115,3.957c.025,2.44.115,5.809.259,9.529s.317,7.087.48,9.523a20.267,20.267,0,0,0,.423,3.935,20.638,20.638,0,0,0,.115-3.956c-.027-2.44-.113-5.811-.259-9.531s-.317-7.087-.481-9.521a20.4,20.4,0,0,0-.421-3.936" fill="#17282f"/>
      <path id="path162" d="M683.584-288.967a12.016,12.016,0,0,1-5.477-1.343l15.827-1.517c-4.041,2.765-9.513,2.831-9.513,2.831q-.422.03-.836.029" fill="#a7a9a8"/>
      <path id="path164" d="M678.106-290.31c-16.727-8.451-22.861-53.941-22.861-53.941l41.977,46.165v2.535a9.559,9.559,0,0,1-3.289,3.724l-15.827,1.517" fill="#bf991a"/>
      <path id="path166" d="M685.133-321.671l-2.668-4.883,4.007-27.061c.028,2.427.116,5.735.257,9.379.032.835.067,1.651.1,2.443l-2.411,10.276h3.057c.057.479.111.739.153.739h0c.033,0,.06-.16.08-.457a4.671,4.671,0,0,0,.8.037c.275,0,.613-.005,1.011-.013l-4.387,9.541" fill="#bf991a"/>
      <path id="path168" d="M687.477-331.518H684.42l2.411-10.276c.12,2.741.253,5.191.379,7.08.1,1.42.187,2.524.268,3.2" fill="#bf991a"/>
      <path id="path170" d="M688.509-331.2a4.667,4.667,0,0,1-.8-.037.177.177,0,0,1,0-.025l1.809.044,0,.005c-.4.008-.736.013-1.011.013" fill="#0f191d"/>
      <path id="path172" d="M687.63-330.779c-.043,0-.1-.26-.153-.739-.081-.672-.172-1.776-.268-3.2-.125-1.889-.259-4.339-.379-7.08-.035-.792-.069-1.608-.1-2.443-.141-3.644-.229-6.952-.257-9.379l.113-.763,1.08,23.116h.048a.169.169,0,0,0,0,.025c-.02.3-.047.456-.08.457h0" fill="#0f191d"/>
      <path id="path174" d="M644.469-310.534a5.716,5.716,0,0,1-.583-1.328c-.333-.869-.779-2.143-1.293-3.727a113.158,113.158,0,0,1-3.293-12.593,90.662,90.662,0,0,1-1.632-12.921c-.081-1.665-.105-3.013-.081-3.945a5.777,5.777,0,0,1,.1-1.448c.109,0,.184,2.055.469,5.36a120.515,120.515,0,0,0,1.823,12.82c.991,4.961,2.177,9.392,3.084,12.587l1.079,3.783a5.876,5.876,0,0,1,.327,1.413" fill="#17282f"/>
      <path id="path176" d="M653.169-294.223c-.184.055-.716-1.169-1.189-2.735s-.709-2.881-.525-2.937.716,1.169,1.189,2.736.709,2.88.525,2.936" fill="#17282f"/>
      <path id="path178" d="M656.144-294.441c-.176.045-.757-1.792-.785-4.149s.485-4.211.664-4.169c.2.036-.011,1.885.029,4.16s.289,4.117.092,4.159" fill="#17282f"/>
      <path id="path180" d="M641.574-319.286c-.085.172-6.956-3.088-15.344-7.279s-15.121-7.731-15.035-7.9,6.955,3.087,15.345,7.28,15.119,7.729,15.033,7.9" fill="#17282f"/>
      <path id="path182" d="M653.681-381.076c.153-6.745.191-13.848.191-13.848s-8.651-1.668-10.159-13.052c-1.437-10.856,2.584-36.329,2.584-36.329,12.637-4.777,25.771-.447,34.429,9.793l-2.149,54.765c-.249,6.357-5.915,11.207-12.72,10.888-6.875-.323-12.323-5.789-12.176-12.217" fill="#c0776a"/>
      <path id="path184" d="M645.641-423.947a1.452,1.452,0,0,0,1.363,1.5,1.39,1.39,0,0,0,1.532-1.272,1.454,1.454,0,0,0-1.361-1.5,1.391,1.391,0,0,0-1.533,1.273" fill="#17282f"/>
      <path id="path186" d="M645.1-425.858c.176.195,1.3-.593,2.863-.548,1.564.023,2.691.857,2.865.669.087-.083-.088-.429-.579-.807a3.994,3.994,0,0,0-2.288-.769,3.826,3.826,0,0,0-2.285.672c-.489.356-.661.695-.576.783" fill="#17282f"/>
      <path id="path188" d="M661.514-422.959a1.457,1.457,0,0,0,1.364,1.5,1.393,1.393,0,0,0,1.533-1.273,1.456,1.456,0,0,0-1.364-1.5,1.392,1.392,0,0,0-1.533,1.273" fill="#17282f"/>
      <path id="path190" d="M661.409-424.868c.176.195,1.3-.592,2.863-.548,1.563.023,2.691.857,2.867.671.084-.084-.089-.429-.581-.807a3.983,3.983,0,0,0-2.288-.771,3.827,3.827,0,0,0-2.284.673c-.489.356-.663.695-.576.781" fill="#17282f"/>
      <path id="path192" d="M655.432-413.412a10.409,10.409,0,0,0-2.529-.523c-.4-.052-.775-.141-.835-.416a2.018,2.018,0,0,1,.3-1.177l1.26-3.011c1.752-4.289,3.032-7.82,2.857-7.889s-1.733,3.351-3.487,7.64q-.632,1.588-1.209,3.031a2.311,2.311,0,0,0-.249,1.563,1.008,1.008,0,0,0,.643.6,2.7,2.7,0,0,0,.676.112,10.1,10.1,0,0,0,2.576.069" fill="#17282f"/>
      <path id="path194" d="M653.872-394.924a28.851,28.851,0,0,0,15.288-3.66s-3.884,7.693-15.2,6.34l-.085-2.68" fill="#ac584f"/>
      <path id="path196" d="M666.417-429.382c-.321.489-1.511.272-2.844.032-1.328-.268-2.515-.5-2.633-1.077-.132-.549,1.245-1.309,3.024-.969s2.779,1.552,2.453,2.015" fill="#17282f"/>
      <path id="path198" d="M650.861-431.678c-.121.569-1.4.777-2.865.853-1.471.06-2.757-.031-2.931-.588-.176-.539,1.067-1.415,2.835-1.493s3.085.675,2.961,1.228" fill="#17282f"/>
      <path id="path200" d="M655.457-409.667a.793.793,0,0,0-.867.4.916.916,0,0,0,.205,1.109.917.917,0,0,0,1.127.016.917.917,0,0,0,.236-1.1.917.917,0,0,0-1.036-.445" fill="#ac584f"/>
      <path id="path202" d="M655.822-409.512c.071-.063-.249-.447-.933-.3a1.192,1.192,0,0,0-.856.839,1.344,1.344,0,0,0,.472,1.417,1.317,1.317,0,0,0,1.5.009,1.125,1.125,0,0,0,.48-1.112c-.137-.7-.657-.815-.672-.716-.059.088.181.331.136.747a.594.594,0,0,1-.317.489.676.676,0,0,1-.676-.029.7.7,0,0,1-.24-.645.674.674,0,0,1,.359-.493c.371-.209.7-.111.748-.207" fill="#17282f"/>
      <path id="path204" d="M675.486-421.136c-1.348,3.125-4.64,5.533-4.183,8.907.293,2.179,1.691,4.209,1.419,6.389-.341,2.74-3.187,4.639-3.588,7.368-.495,3.349,2.763,5.952,4.064,9.077,1.895,4.552-.529,9.669-.587,14.6a15.655,15.655,0,0,0,13.86,15.224c3.044.251,6.472-.668,8.051-3.283,1.3-2.159,1.041-4.9,1.823-7.295,1.163-3.569,4.564-6.18,5.281-9.864,1.307-6.716-6.811-12.273-6.276-19.095.228-2.913,2.027-5.456,2.793-8.277a12.132,12.132,0,0,0-2.383-10.789c-2-2.383-4.908-3.949-6.615-6.552-1.935-2.952-2-6.695-2.731-10.148a26.054,26.054,0,0,0-16.165-18.7,26.055,26.055,0,0,0-24.439,3.725s-1.939,8.788,7.083,10.257,13.2-.227,14.217,3.389a9.564,9.564,0,0,0,2.7,8.257c3.731,4.035,7.235,3.191,5.673,6.809" fill="#17282f"/>
      <path id="path206" d="M689.881-360.187a3.656,3.656,0,0,1-.823-.087,12.138,12.138,0,0,1-2.295-.619,16.179,16.179,0,0,1-6.98-5.167,18.247,18.247,0,0,1-2.967-5.281,21.176,21.176,0,0,1-1.213-6.845,27.877,27.877,0,0,1,.963-7.613,32.881,32.881,0,0,1,1.276-3.857,38.4,38.4,0,0,0,1.464-3.831,7.214,7.214,0,0,0-.013-3.911,21.172,21.172,0,0,0-1.517-3.651,24.482,24.482,0,0,1-1.553-3.613,7.823,7.823,0,0,1-.28-3.832c.532-2.512,2.057-4.371,2.957-6.277a11.926,11.926,0,0,0,1.207-5.68,13.423,13.423,0,0,0-2.972-7.865,23.471,23.471,0,0,0-2.267-2.205,9.215,9.215,0,0,1,2.471,2.029,13.355,13.355,0,0,1,3.259,8.02,12.335,12.335,0,0,1-1.179,5.952c-.92,1.977-2.392,3.849-2.847,6.148-.469,2.316.627,4.7,1.815,7.023a21.627,21.627,0,0,1,1.573,3.771,7.892,7.892,0,0,1,.016,4.272,38,38,0,0,1-1.492,3.907,32.818,32.818,0,0,0-1.26,3.776,27.535,27.535,0,0,0-.979,7.429,19.238,19.238,0,0,0,3.924,11.832,16.438,16.438,0,0,0,6.695,5.219c1.887.764,3.035.879,3.017.957" fill="#33535f"/>
      <path id="path208" d="M688.553-427.468a9.426,9.426,0,0,1-1.987.3,20.7,20.7,0,0,1-5.491-.144,10.443,10.443,0,0,1-6.931-4.205A22.565,22.565,0,0,1,672.326-436a7.385,7.385,0,0,0-3.037-3.748c-2.917-1.848-6.349-2.076-9.352-2.441-3.017-.34-5.851-.98-7.771-2.421a7.7,7.7,0,0,1-3.183-4.452,4.872,4.872,0,0,1-.1-1.5,1.473,1.473,0,0,1,.109-.515,9.816,9.816,0,0,0,.257,1.952,7.676,7.676,0,0,0,3.2,4.116c1.849,1.309,4.56,1.883,7.565,2.187,2.975.336,6.528.521,9.653,2.495a8.037,8.037,0,0,1,3.295,4.085,22.894,22.894,0,0,0,1.723,4.375,10.076,10.076,0,0,0,6.485,4.069,23.389,23.389,0,0,0,5.381.357,13.756,13.756,0,0,1,2-.027" fill="#33535f"/>
      <path id="path210" d="M685.245-438.327a4.062,4.062,0,0,1-1.563.231,9.342,9.342,0,0,1-4.209-.948A9.378,9.378,0,0,1,677-440.767a12.68,12.68,0,0,1-2.069-2.76c-1.2-2.028-2.359-4.529-4.852-5.564-2.443-1.047-5.133-.813-7.471-.656a22.884,22.884,0,0,1-6.376-.053,7.925,7.925,0,0,1-3.933-1.764,4.5,4.5,0,0,1-.785-.88c-.149-.225-.217-.347-.2-.361.056-.043.375.429,1.156,1.032a8.2,8.2,0,0,0,3.843,1.489,24.093,24.093,0,0,0,6.24-.1c2.349-.185,5.12-.48,7.807.659a7.718,7.718,0,0,1,3.183,2.644,35.285,35.285,0,0,1,1.94,3.232,12.554,12.554,0,0,0,1.923,2.673,9.228,9.228,0,0,0,2.292,1.693,9.912,9.912,0,0,0,4,1.116c.992.057,1.548-.02,1.556.04" fill="#33535f"/>
      <path id="path212" d="M693.861-363.064c-.068-.031.356-.888.848-2.529a22.872,22.872,0,0,0,.888-7.147,21.971,21.971,0,0,0-2.841-10.181c-.976-1.747-2.457-3.3-3.665-5.22a9.434,9.434,0,0,1-1.343-3.219,7.276,7.276,0,0,1,.295-3.6c.748-2.3,2.088-4.241,2.376-6.357.356-2.123-.716-4.059-1.731-5.78a26.618,26.618,0,0,1-1.428-2.651,9.531,9.531,0,0,1-.753-2.784,24.689,24.689,0,0,1,.151-5.084,13.475,13.475,0,0,0-.632-7.085,6.449,6.449,0,0,0-1.573-2.087l.161.076a2.761,2.761,0,0,1,.424.3,4.931,4.931,0,0,1,1.231,1.588,13.187,13.187,0,0,1,.877,7.245,25.13,25.13,0,0,0-.068,4.972,12.645,12.645,0,0,0,2.161,5.179,17.666,17.666,0,0,1,1.452,2.833,6.729,6.729,0,0,1,.4,3.367c-.324,2.332-1.7,4.305-2.387,6.473a6.616,6.616,0,0,0-.277,3.264,8.836,8.836,0,0,0,1.243,2.985c1.143,1.843,2.633,3.429,3.64,5.259a22.017,22.017,0,0,1,2.78,10.489,21.633,21.633,0,0,1-1.121,7.24,15.746,15.746,0,0,1-.768,1.841,2.588,2.588,0,0,1-.339.607" fill="#33535f"/>
      <path id="path214" d="M639.548-114.63s-8.979-85.124-9.495-116.576S644.2-293.7,644.2-293.7l57.444-2.429s11.353,31.915,11.557,45.319c.395,26.052-6.923,51.779-6.079,72.444l1.92,63.732" fill="#17282f"/>
      <path id="path216" d="M710.961-219.277a7.856,7.856,0,0,1-.937.709c-.16.113-.335.237-.524.369-.18.153-.355.344-.556.537a8.564,8.564,0,0,0-1.28,1.433c-1.855,2.272-3.208,6.329-4.493,11.393a38.343,38.343,0,0,1-2.909,8.1,14.408,14.408,0,0,1-1.275,2.017c-.249.319-.476.663-.749.969l-.885.884a14.314,14.314,0,0,1-4.32,2.772c-3.216,1.409-6.845,2.077-10.163,3.741a16.057,16.057,0,0,0-7.372,8.4c-1.617,3.613-2.6,7.407-3.948,10.948-1.325,3.513-3.129,6.933-6,9.093-2.844,2.239-6.357,2.751-9.4,2.947-3.092.18-5.956.092-8.525.48a13.461,13.461,0,0,0-6.429,2.427,8.948,8.948,0,0,0-2.989,4.207,6.342,6.342,0,0,0-.223,3.269c.149.749.36,1.107.313,1.127a3.386,3.386,0,0,1-.448-1.093,6.193,6.193,0,0,1,.1-3.381,9.126,9.126,0,0,1,3-4.432,13.748,13.748,0,0,1,6.6-2.608c2.616-.427,5.512-.365,8.56-.569,3.015-.219,6.377-.747,9.051-2.881,2.708-2.059,4.448-5.348,5.751-8.827,1.325-3.5,2.3-7.3,3.951-10.991a16.7,16.7,0,0,1,7.7-8.725c3.448-1.712,7.08-2.359,10.215-3.723a13.732,13.732,0,0,0,4.159-2.631l.849-.835c.264-.292.483-.621.725-.927a14.072,14.072,0,0,0,1.245-1.936,38.637,38.637,0,0,0,2.941-7.956c1.343-5.036,2.791-9.16,4.755-11.429a8.38,8.38,0,0,1,1.353-1.417c.212-.188.4-.376.587-.521l.551-.348a7.285,7.285,0,0,1,1.019-.595" fill="#fafaf9"/>
      <path id="path218" d="M711.314-258.669a6.715,6.715,0,0,1,.075,1.14,14,14,0,0,1-.4,3.257,21.057,21.057,0,0,1-6.489,10.033,38.495,38.495,0,0,1-6.727,4.915c-2.575,1.527-5.413,2.98-8.323,4.624a43.516,43.516,0,0,0-8.515,5.988,32.9,32.9,0,0,0-6.449,9.063A83.67,83.67,0,0,1,668.9-209.8a23.589,23.589,0,0,1-3.645,4.032,22.973,22.973,0,0,1-4.336,2.888,53.676,53.676,0,0,1-8.927,3.421c-2.849.881-5.509,1.661-7.833,2.636a30.6,30.6,0,0,0-5.975,3.2,18.577,18.577,0,0,0-3.751,3.459,17.831,17.831,0,0,0-2.249,3.739,6.952,6.952,0,0,1,.369-1.08,13.224,13.224,0,0,1,1.668-2.825,18.229,18.229,0,0,1,3.736-3.607,30.26,30.26,0,0,1,6.012-3.337c2.344-1.016,5.015-1.829,7.849-2.733a54.131,54.131,0,0,0,8.8-3.439,22.5,22.5,0,0,0,4.2-2.824,22.974,22.974,0,0,0,3.527-3.927,84.574,84.574,0,0,0,5.531-9.781,33.317,33.317,0,0,1,6.6-9.231,43.654,43.654,0,0,1,8.668-6.051c2.935-1.637,5.779-3.069,8.344-4.564a38.729,38.729,0,0,0,6.688-4.779,21.273,21.273,0,0,0,6.56-9.741,20.629,20.629,0,0,0,.584-4.328" fill="#fafaf9"/>
      <path id="path220" d="M630.344-226.7c-.012,0-.051-.081-.117-.257a6.143,6.143,0,0,1-.257-.795,6.335,6.335,0,0,1,.133-3.2c.741-2.715,3.691-6.092,8.443-7.785,2.365-.812,5.048-1.3,7.843-2.033,2.763-.745,5.773-1.788,8.023-4.1a16.941,16.941,0,0,0,2.844-3.989,40.808,40.808,0,0,0,1.993-4.789c1.195-3.325,2.2-6.94,4.227-10.224a16.319,16.319,0,0,1,8.7-6.763,79.64,79.64,0,0,1,9.98-2.529,33.062,33.062,0,0,0,8.679-2.955A18.177,18.177,0,0,0,696.7-281.4a19.832,19.832,0,0,0,3.732-10.8,30.409,30.409,0,0,0-.284-4.261,14.021,14.021,0,0,1,.553,4.267,19.679,19.679,0,0,1-3.6,11.08,18.537,18.537,0,0,1-5.992,5.508,33.225,33.225,0,0,1-8.816,3.076,80.905,80.905,0,0,0-9.885,2.543,15.682,15.682,0,0,0-8.347,6.493c-1.959,3.164-2.965,6.737-4.175,10.084a40.925,40.925,0,0,1-2.044,4.868,17.531,17.531,0,0,1-2.983,4.137c-2.388,2.423-5.533,3.472-8.328,4.2-2.835.716-5.5,1.175-7.833,1.944-4.623,1.577-7.557,4.815-8.339,7.4a6.522,6.522,0,0,0-.256,3.089c.149.7.269,1.069.239,1.079" fill="#fafaf9"/>
      <path id="path222" d="M706.374-154.722a3.812,3.812,0,0,1,.093.836,8.893,8.893,0,0,1-.247,2.407,13.675,13.675,0,0,1-5.039,7.2,22.43,22.43,0,0,1-5.288,3.139,69.311,69.311,0,0,1-6.639,2.3,54.989,54.989,0,0,0-7.211,2.633,20.863,20.863,0,0,0-6.563,4.787c-1.945,2.037-3.623,4.264-5.485,6.228a25.17,25.17,0,0,1-6.144,4.809,26.983,26.983,0,0,1-12.681,3.3,25.076,25.076,0,0,1-8.727-1.449,16.035,16.035,0,0,1-2.215-.949,3.813,3.813,0,0,1-.735-.407,3.9,3.9,0,0,1,.793.28,21,21,0,0,0,2.243.82,26.328,26.328,0,0,0,8.632,1.215,26.944,26.944,0,0,0,12.376-3.364,24.747,24.747,0,0,0,5.963-4.717c1.823-1.935,3.495-4.16,5.477-6.242a21.4,21.4,0,0,1,6.773-4.921,54.063,54.063,0,0,1,7.316-2.629c2.356-.716,4.6-1.383,6.6-2.215a22.385,22.385,0,0,0,5.205-2.995,13.754,13.754,0,0,0,5.084-6.887,15.782,15.782,0,0,0,.413-3.175" fill="#fafaf9"/>
      <path id="path224" d="M699.826-331.462l-11.107.263a18.14,18.14,0,0,1-2.512,6.3c-9.288-16.123-16.489-37.723-18.277-46.4.261-.868.569-1.827.955-2.9.444-1.237.063-3.58-.147-4.881-.312-1.932-.852-4.533-1.015-5.737-.495-3.668-1.085-4.244-2.365-3.829-1.74.564.713,10.3-.713,10.513-.767.113-1.7-3.223-1.975-5.96s-1.511-11.157-2.416-11.719c-1.325-.823-2.481.479-2.147,3.2.339,2.76.767,10.987-.68,11.1-1.425.109-2.621-13.851-2.621-13.851s.225-3.037-1.449-2.965c-3.021.132-.66,14.849-.4,16.243.181.971-1.388,1.148-1.527.1-.141-1.084-.871-13.961-3.947-13.857-2.361.08,1.828,12.128.5,14.921s-2.245-9.485-4.5-9.316c-.839.063-1.459.227.083,7.175a156.692,156.692,0,0,0,5.391,16.285c3.572,19.268,19.248,80.9,43.827,69.62,13.752-6.313,19.333-34.293,19.333-34.293l-12.291-.007" transform="translate(1)" fill="#c0776a"/>
      <path id="path226" d="M652.429-381.142a.735.735,0,0,0,.321-.044.713.713,0,0,0,.5-.769c-.032-.828-.163-2.033-.353-3.592a51.181,51.181,0,0,1-.613-5.681c-.019-1.116.011-2.316.075-3.588a12.505,12.505,0,0,1,.193-1.92c.105-.6.509-1.295.976-1.212l.052.009h.021c.475-.021.845.348,1,.912a5.226,5.226,0,0,1,.175,1.785v.025l0,.017a107.6,107.6,0,0,0,1.424,11.133c.109.5.22,1,.375,1.5a6.928,6.928,0,0,0,.277.764,2.291,2.291,0,0,0,.227.4.723.723,0,0,0,.557.349,1,1,0,0,0,.839-.7,4.234,4.234,0,0,0,.249-.82,12.319,12.319,0,0,0,.213-1.628,48.4,48.4,0,0,0-.088-6.668,15.429,15.429,0,0,1-.14-3.34,1.858,1.858,0,0,1,.656-1.244.724.724,0,0,1,.575-.073l.316.137a.445.445,0,0,1,.148.2,16.656,16.656,0,0,1,.924,3.352c.237,1.179.441,2.381.631,3.6s.359,2.447.5,3.687a25.743,25.743,0,0,0,.615,3.792,12.918,12.918,0,0,0,.6,1.884,3.4,3.4,0,0,0,.549.943.793.793,0,0,0,.8.291.851.851,0,0,0,.544-.6,6.593,6.593,0,0,0,.141-2.075c-.028-.661-.083-1.316-.139-1.969-.1-1.123-.2-2.233-.241-3.329a11.205,11.205,0,0,1,.04-1.6,2.61,2.61,0,0,1,.161-.695l.129-.2.052-.033.172-.049c.885-.365,1.179.865,1.415,1.857.2,1.033.335,2.1.543,3.155.352,2.1.8,4.187,1.033,6.192a7.146,7.146,0,0,1-.117,2.871q-.472,1.446-.936,2.86l-.027.085.019.089a154.216,154.216,0,0,0,5.967,19.279c2.111,5.689,4.221,10.607,6.084,14.628s3.524,7.125,4.675,9.24q.876,1.5,1.387,2.384a5.593,5.593,0,0,0,.516.8,5.552,5.552,0,0,0-.411-.861l-1.284-2.435c-1.084-2.148-2.685-5.272-4.481-9.313s-3.856-8.963-5.917-14.652a158.363,158.363,0,0,1-5.833-19.215l-.008.175c.307-.929.62-1.871.933-2.821a7.7,7.7,0,0,0,.164-3.191c-.239-2.085-.675-4.111-1.021-6.221-.207-1.043-.332-2.113-.548-3.207a6.237,6.237,0,0,0-.544-1.651,1.6,1.6,0,0,0-.736-.741,1.634,1.634,0,0,0-1.052-.043l-.224.064-.3.171a1.34,1.34,0,0,0-.337.475,3.27,3.27,0,0,0-.221.911,11.825,11.825,0,0,0-.045,1.72c.039,1.131.147,2.249.241,3.368.055.652.109,1.3.137,1.939a6.228,6.228,0,0,1-.1,1.792c-.033.14-.1.113-.023.181l0,.005.008.051,0-.015,0-.045.02-.063-.081-.073a2.857,2.857,0,0,1-.407-.723,12.414,12.414,0,0,1-.567-1.771,25.286,25.286,0,0,1-.6-3.7c-.148-1.253-.324-2.491-.515-3.715s-.4-2.433-.644-3.629a16.556,16.556,0,0,0-1.015-3.561,1.189,1.189,0,0,0-.417-.468,2.042,2.042,0,0,0-.5-.209,1.45,1.45,0,0,0-1.128.157,2.5,2.5,0,0,0-.985,1.735,6.414,6.414,0,0,0-.023,1.827c.067.569.123,1.128.167,1.691a48.167,48.167,0,0,1,.12,6.567,11.659,11.659,0,0,1-.192,1.54,3.525,3.525,0,0,1-.2.691l-.145.249c-.049.112-.091-.025-.088.155.068-.137,0-.06-.049-.175l-.159-.277a6.585,6.585,0,0,1-.251-.684c-.149-.473-.263-.963-.371-1.448a111.128,111.128,0,0,1-1.505-11.047v.043a5.717,5.717,0,0,0-.219-1.983,2.016,2.016,0,0,0-.52-.888,1.381,1.381,0,0,0-.988-.36l.072.008a1.152,1.152,0,0,0-1.149.551,2.884,2.884,0,0,0-.409,1.035,12.569,12.569,0,0,0-.177,2c-.049,1.283-.059,2.489-.021,3.617a47.586,47.586,0,0,0,.736,5.708c.232,1.549.4,2.752.48,3.563a.631.631,0,0,1-.389.7c-.187.081-.3.093-.295.109" fill="#ac584f"/>
      <path id="path228" d="M565.6-313.1a28.644,28.644,0,0,0-7.724.885c-6.885,1.812-18.772,9.016-19.264,17.915h8.633s-4.835,10.292-3.415,9.339c3.687-2.473,11.025-9.929,11.025-9.929L565.6-313.1" fill="#c0776a"/>
      <path id="path230" d="M683.365-468.022c-.192.016-.976-7.123-1.751-15.943s-1.249-15.987-1.059-16,.975,7.12,1.751,15.944,1.249,15.985,1.059,16" fill="#17282f"/>
      <path id="path232" d="M721.241-499.532c.156.112-5.677,8.577-13.028,18.907s-13.437,18.617-13.593,18.508,5.676-8.576,13.028-18.909,13.437-18.617,13.593-18.505" fill="#17282f"/>
      <path id="path234" d="M736.977-461.163c.04.188-6.768,1.747-15.2,3.48s-15.305,2.987-15.345,2.8,6.769-1.745,15.205-3.479,15.3-2.987,15.341-2.8" fill="#17282f"/>
      <path id="path236" d="M283.5-278.022l-47.148,242.4L230.179-3.892l314.75-1.552c14.125-.07,26.644-12.612,31.188-31.246l55.812-228.849c3.451-14.145-4.12-28.859-14.841-28.848l-318.565.335c-7.033.008-13.184,6.571-15.024,16.031" fill="#f03d5f"/>
      <path id="path238" d="M548.952-5.8a46.92,46.92,0,0,0,5.836-1.781A25.3,25.3,0,0,1,548.952-5.8" fill="#7e1c2c"/>
      <path id="path240" d="M552.172-12.944c-34.14,0-37.432-39.074-37.435-39.1l-30.057-242.2,132.408-.139h.012c8.936,0,15.68,10.231,15.673,21.828a29.754,29.754,0,0,1-.844,7.02L607.9-167.022l-9.571,39.246L576.117-36.691c-2.343,9.608-6.805,17.6-12.516,23.091a3.677,3.677,0,0,0,.376-.727,54.693,54.693,0,0,1-11.805,1.382" fill="#197413"/>
      <path id="path242" d="M514.737-52.047,481.412-320.59c-1.365-11-10.131-19.211-20.48-19.177l-73.074.239a19.915,19.915,0,0,0-14.436,6.4l-34.7,36.885-203.236,1.061c-12.419.064-21.96,11.816-20.314,25.02l30.941,248.2c1.369,10.988,10.119,19.185,20.453,19.166l354.194-.7c39.449.817,43.216-10.833,43.216-10.833-45.211,10.019-49.236-37.69-49.24-37.72" fill="#7ad874"/>
      <path id="path244" d="M350.064-92.962l-39.4-35.444,11.945-12.83,39.4,35.445-11.947,12.83m-52.6-47.321-39.4-35.444,11.945-12.831,39.4,35.444-11.945,12.831" fill="#a9e8a5"/>
      <path id="path246" d="M275.014-90.117l-13.2-11.878,35.649-38.289,11.945-12.831L345.058-191.4l13.2,11.877L322.61-141.237l-11.945,12.83-35.651,38.29" fill="#a9e8a5"/>
      <path id="path248" d="M565.313-452.368a2.491,2.491,0,0,1-1.507-2.181l-.532-12.377a2.481,2.481,0,0,1,.9-2.024,2.483,2.483,0,0,1,2.157-.5,7.726,7.726,0,0,0,6.02-1.189,6.96,6.96,0,0,0,3.113-4.559,7.131,7.131,0,0,0-1.5-5.355,7.943,7.943,0,0,0-5.255-3.163c-4.015-.463-8.349,2.613-9.465,6.716a2.487,2.487,0,0,1-3.052,1.749,2.477,2.477,0,0,1-1.749-3.053c1.752-6.451,8.408-11.1,14.837-10.356a12.838,12.838,0,0,1,8.652,5.107,12.108,12.108,0,0,1,2.439,9.156,11.942,11.942,0,0,1-5.261,7.9,13.026,13.026,0,0,1-6.748,2.2l.413,9.541a2.486,2.486,0,0,1-2.379,2.591,2.466,2.466,0,0,1-1.087-.2" fill="#197413"/>
      <path id="path250" d="M568.961-447.311a2.037,2.037,0,0,1-1.891,2.171,2.035,2.035,0,0,1-2.171-1.892,2.035,2.035,0,0,1,1.891-2.169,2.035,2.035,0,0,1,2.171,1.891" fill="#197413"/>
      <path id="path252" d="M522.469-469.822a5.26,5.26,0,0,0,.12-.812c.063-.58.151-1.369.261-2.384a28.052,28.052,0,0,1,.645-3.832c.175-.747.267-1.577.54-2.417l.828-2.692a45.8,45.8,0,0,1,6.629-12.7,44.538,44.538,0,0,1,14-12.2,44.839,44.839,0,0,1,9.879-4.075,44.737,44.737,0,0,1,11.4-1.489,44.55,44.55,0,0,1,6.049.357c1.024.1,2.031.372,3.057.551a20.882,20.882,0,0,1,3.068.74,42.373,42.373,0,0,1,11.925,5.4A44.613,44.613,0,0,1,608.5-483.237a43.509,43.509,0,0,1,2.613,15.211,42.732,42.732,0,0,1-2.789,15.656l-.6,1.523-.08.2.083.188c3.344,7.7,6.624,15.257,9.8,22.576l.559-.636c-6.885-2.647-13.561-5.211-19.967-7.672l-.248-.095-.193.188a44.642,44.642,0,0,1-18.856,10.885,44.084,44.084,0,0,1-19.644.9,43.946,43.946,0,0,1-16.356-6.487,45.709,45.709,0,0,1-11.243-10.468,49.142,49.142,0,0,1-6.147-11.145,49.6,49.6,0,0,1-2.384-9.3q-.236-1.952-.419-3.468-.04-1.5-.067-2.548c-.023-.655-.039-1.172-.052-1.561a2.97,2.97,0,0,0-.043-.531,2.964,2.964,0,0,0-.032.529c-.005.391-.013.907-.02,1.565q0,1.058-.005,2.561.154,1.528.352,3.5a48.694,48.694,0,0,0,2.279,9.416,49.192,49.192,0,0,0,6.113,11.333,46.033,46.033,0,0,0,11.324,10.692,44.443,44.443,0,0,0,16.572,6.673,44.7,44.7,0,0,0,19.975-.839,45.372,45.372,0,0,0,19.235-11.041l-.441.093,19.957,7.7,1.007.388-.445-1.025c-3.173-7.323-6.449-14.877-9.789-22.583l0,.388.615-1.555a43.666,43.666,0,0,0,2.848-16.005,44.438,44.438,0,0,0-2.687-15.544,45.391,45.391,0,0,0-18.013-22.544,43.078,43.078,0,0,0-12.156-5.467,21.579,21.579,0,0,0-3.123-.741c-1.047-.179-2.071-.452-3.111-.547a45.136,45.136,0,0,0-6.149-.339,45.106,45.106,0,0,0-11.573,1.567,45.284,45.284,0,0,0-10.005,4.192,44.848,44.848,0,0,0-14.1,12.465,45.658,45.658,0,0,0-6.564,12.908q-.42,1.442-.795,2.728c-.261.849-.341,1.689-.5,2.444a26.582,26.582,0,0,0-.563,3.868c-.073,1.02-.131,1.816-.172,2.4a5.455,5.455,0,0,0-.028.817" fill="#17282f"/>
    </g>
  </g>
</svg>
