<svg xmlns="http://www.w3.org/2000/svg" xmlns:xlink="http://www.w3.org/1999/xlink" width="516.974" height="462.887" viewBox="0 0 516.974 462.887">
  <defs>
    <clipPath id="clip-path">
      <path id="path1540" d="M349.054-338.71c-.423-.611-.87-1.222-1.317-1.785,5.076,5.709,8.484,12.807,10.53,21.007.517,2.046.988,4.114,1.435,6.182a43.721,43.721,0,0,0-2.565-4.465v-.024c-2.208-8.741-4.956-16.45-8.082-20.916m15.51,46.65.024-.4a46.178,46.178,0,0,0-2.232-14.266,173.471,173.471,0,0,0-4.09-17.037c-3.126-10.621-9.26-18.894-18.213-24.159a17.919,17.919,0,0,0-1.787-1.128l-.4-.236-.423-.212c-11.374-6.274-24.181-3.338-34.028,1.106a31.742,31.742,0,0,0-12.292,9.823,49.353,49.353,0,0,0-8.857,15.7,46.592,46.592,0,0,0-11.234,30.411,46.587,46.587,0,0,0,4.441,19.9,67.466,67.466,0,0,0,.587,7.238c.024.307.471.259.471-.046-.024-1.693-.024-3.385,0-5.054.611,1.106,1.246,2.186,1.926,3.244q.036,1.234.07,2.467c.048,1.154,1.717,2.421,4.631,3.667a45.962,45.962,0,0,0,9.234,7.827,46.361,46.361,0,0,0,25.4,7.519,46.856,46.856,0,0,0,19.225-4.112,47.109,47.109,0,0,0,16.38-12.316,45.9,45.9,0,0,0,8.2-4.865c1.246-.938,1.645-5.968,1.292-13.041A40.315,40.315,0,0,0,364-285.082c.563,5.242,1.01,10.506,1.433,15.792.022.377.587.331.587-.046a220.343,220.343,0,0,0-1.457-22.724" transform="translate(-271.033 353.101)"/>
    </clipPath>
    <clipPath id="clip-path-2">
      <path id="path1614" d="M377.922-395.766a46.693,46.693,0,0,1-23.642,40.634A46.505,46.505,0,0,1,331.13-349a46.528,46.528,0,0,1-25.167-7.354,46.727,46.727,0,0,1-21.6-39.412,46.748,46.748,0,0,1,22.96-40.256c2.162-6.981,7.8-13.63,20.351-16.778,24.581-6.134,30.034,11.584,30.553,13.512l.022.07v.024l.024.07a67.561,67.561,0,0,1,2.186,6.933,46.612,46.612,0,0,1,17.46,36.426" transform="translate(-284.366 454.085)"/>
    </clipPath>
  </defs>
  <g id="g10" transform="translate(-252.529 559.791)">
    <g id="g12" transform="translate(252.529 -559.791)">
      <path id="path48" d="M228.573-436.816c-1.557-.976-2.908-2.4-4.992-2.2-.8.08-.623-.583-.629-1.016q-.018-11.755-.016-23.5c0-.569.036-1.038.657-1.349,5.98-3.018,8.575-8.953,12.24-14.025a23.422,23.422,0,0,0,4.34-17.77c-.252-1.763.571-2.553,2.16-2.914,1.912-.437,3.815.094,4.469,1.405a31.581,31.581,0,0,1,3.415,10.266c.345,2.97-.719,5.863-1.09,8.8-.273,2.15-.775,4.276-1.182,6.454.523.381,1.134.184,1.7.192q9.926.015,19.852.008c2.787,0,4.152.8,4.539,2.651a5.3,5.3,0,0,1-2.88,5.735c-.5.25-1.389.024-1.449.8s.86.707,1.317,1.026c2.4,1.643,1.952,5.03-.82,6.991-.667.469-1.96.252-1.992,1.23-.016.78,1.2.77,1.743,1.319,1.932,1.91.972,5.479-1.916,6.919a8.763,8.763,0,0,0-1.162.449c-.329.222-.651.467-.016.92,2.866,2.046,2.8,4.9-.08,6.975-.283.2-.573.413-.862.619a5.59,5.59,0,0,1-3.483.763q-15.564.03-31.128.006a3.688,3.688,0,0,1-2.731-.759" transform="translate(-169.902 589.645)" fill="#d4d6d3" fill-rule="evenodd"/>
      <path id="path50" d="M207-461.481c0-4.974.024-9.955-.018-14.927-.006-1.014.1-1.511,1.337-1.5q9.108.111,18.2.006c1.192-.012,1.375.4,1.369,1.455q-.051,15.022.006,30.042c.008,1.274-.339,1.635-1.619,1.613-5.887-.066-11.773-.08-17.658.012-1.465.024-1.667-.489-1.651-1.773.074-4.976.028-9.951.028-14.931" transform="translate(-177.836 600.497)" fill="#d4d6d3" fill-rule="evenodd"/>
      <path id="path52" d="M528.228-316.113c1.555.976,2.908,2.4,4.992,2.2.8-.08.623.583.629,1.016q.015,11.755.016,23.495c0,.571-.036,1.04-.657,1.353-5.981,3.016-8.575,8.951-12.24,14.021a23.42,23.42,0,0,0-4.34,17.772c.249,1.763-.571,2.553-2.16,2.912-1.912.437-3.815-.092-4.469-1.405a31.556,31.556,0,0,1-3.417-10.264c-.343-2.97.721-5.863,1.092-8.8.271-2.15.773-4.276,1.18-6.454-.523-.381-1.134-.184-1.7-.192q-9.926-.018-19.85-.008c-2.789,0-4.154-.8-4.541-2.651a5.306,5.306,0,0,1,2.883-5.737c.493-.25,1.389-.022,1.449-.8s-.862-.709-1.317-1.026c-2.4-1.645-1.952-5.032.82-6.991.667-.469,1.958-.252,1.99-1.23.016-.78-1.194-.771-1.741-1.321-1.934-1.908-.972-5.477,1.916-6.917a8.867,8.867,0,0,0,1.162-.449c.329-.222.651-.467.014-.92-2.866-2.048-2.8-4.9.082-6.975.281-.2.571-.413.86-.621a5.612,5.612,0,0,1,3.487-.761q15.561-.033,31.124-.006a3.69,3.69,0,0,1,2.733.759" transform="translate(-40.787 680.545)" fill="#d4d6d3" fill-rule="evenodd"/>
      <path id="path54" d="M539.746-301.594c0,4.974-.024,9.955.018,14.927.006,1.014-.1,1.509-1.337,1.5q-9.108-.111-18.2,0c-1.192.012-1.377-.4-1.369-1.455q.051-15.022-.008-30.042c-.006-1.274.341-1.635,1.621-1.613,5.887.066,11.773.08,17.656-.012,1.467-.024,1.669.489,1.653,1.773-.076,4.976-.028,9.951-.028,14.931" transform="translate(-22.801 679.84)" fill="#d4d6d3" fill-rule="evenodd"/>
      <path id="path330" d="M238.485-255.293h.8v-.778h-.8Z" transform="translate(-162.172 710.774)" fill="#fcd15a"/>
      <path id="path372" d="M238.485-250.094h.8v-1.537h-.8Z" transform="translate(-162.172 712.981)" fill="#fcd15a"/>
      <path id="path418" d="M238.485-259.5h.8v-1.535h-.8Z" transform="translate(-162.172 708.309)" fill="#fcd15a"/>
      <path id="path1508" d="M195.057-369.572l2.332,4.725,5.214.759-3.773,3.677.89,5.194-4.663-2.453-4.665,2.453.892-5.194-3.773-3.677,5.214-.759,2.332-4.725" transform="translate(-187.512 654.351)" fill="#fabb1e"/>
      <path id="path1510" d="M214.181-388.142l1.771,3.587,3.958.577-2.864,2.793.677,3.942-3.541-1.862-3.541,1.862.677-3.942-2.866-2.793,3.96-.577,1.771-3.587" transform="translate(-177.103 645.12)" fill="#fabb1e"/>
      <path id="path1512" d="M564.307-234.576H263.769V-354.732H564.307v120.156" transform="translate(-149.603 661.728)" fill="#e7e8e5"/>
      <path id="path1514" d="M263.81-274.474V-250.6l21.636-23.876Z" transform="translate(-149.582 701.626)" fill="#e7e8e5"/>
      <path id="path1516" d="M364.578-297.07a46.77,46.77,0,0,1-46.772,46.77,46.77,46.77,0,0,1-46.77-46.77,46.77,46.77,0,0,1,46.77-46.772,46.771,46.771,0,0,1,46.772,46.772" transform="translate(-145.99 667.142)" fill="#fff"/>
      <path id="path1518" d="M359.643-339.7l3.413,6.915,7.631,1.11-5.523,5.384,1.305,7.6-6.827-3.589-6.825,3.589,1.3-7.6-5.521-5.384,7.631-1.11,3.413-6.915" transform="translate(-107.433 669.203)" fill="#fabb1e"/>
      <path id="path1520" d="M379.72-339.7l3.411,6.915,7.633,1.11-5.523,5.384,1.3,7.6-6.825-3.589-6.827,3.589,1.305-7.6-5.523-5.384,7.631-1.11,3.413-6.915" transform="translate(-97.452 669.203)" fill="#bebfbd"/>
      <path id="path1522" d="M399.8-339.7l3.414,6.915,7.631,1.11-5.521,5.384,1.3,7.6-6.827-3.589-6.827,3.589,1.3-7.6-5.521-5.384,7.631-1.11L399.8-339.7" transform="translate(-87.472 669.203)" fill="#bebfbd"/>
      <path id="path1524" d="M419.875-339.7l3.413,6.915,7.631,1.11-5.523,5.384,1.3,7.6-6.825-3.589-6.825,3.589,1.3-7.6-5.523-5.384,7.633-1.11,3.413-6.915" transform="translate(-77.491 669.203)" fill="#bebfbd"/>
      <path id="path1526" d="M439.952-339.7l3.411,6.915,7.631,1.11-5.521,5.384,1.3,7.6-6.825-3.589-6.827,3.589,1.306-7.6-5.523-5.384,7.631-1.11,3.413-6.915" transform="translate(-67.51 669.203)" fill="#bebfbd"/>
      <path id="path1528" d="M491.193-311.605H348.6v-3H491.193v3" transform="translate(-107.433 681.677)" fill="#17282f"/>
      <path id="path1530" d="M475.619-305.512H348.6v-3H475.619v3" transform="translate(-107.433 684.707)" fill="#fff"/>
      <path id="path1532" d="M453.6-299.417h-105v-3h105v3" transform="translate(-107.433 687.736)" fill="#fff"/>
      <path id="path1534" d="M463.372-293.321H348.6v-3H463.372v3" transform="translate(-107.433 690.766)" fill="#fff"/>
      <g id="g1536" transform="translate(125.041 309.439)">
        <g id="g1538" clip-path="url(#clip-path)">
          <path id="path1544" d="M301.014-348.4c-21.648,9.739-26.333,40.264-24.9,83.7.218,6.6,56.074,18.071,83.088-2.292,4.364-3.292-1.824-56.417-12.548-71.722-13.306-18.989-32.234-15.714-45.64-9.683" transform="translate(-268.624 353.102)" fill="#17282f"/>
          <path id="path1546" d="M301.383-349.652c-11.332,5.763-18.61,17.215-21.88,29.246-2.383,8.767-3.471,18.157-4.487,27.168-.976,8.653-1.6,17.568-.415,26.223a.24.24,0,0,0,.479-.038,225.406,225.406,0,0,1,5.1-48.942c2.819-13.488,9.747-25.549,21.638-32.821.451-.275.05-1.08-.433-.836" transform="translate(-269.58 354.792)" fill="#17282f"/>
          <path id="path1548" d="M338.349-324.16c-4.092-13.847-13.312-23.732-27.188-28.164l-.05.152c15.005,5.667,23.439,17.107,27.237,32.288,4.132,16.516,5.795,33.288,7.162,50.207a.3.3,0,0,0,.587-.048c-.21-17.987-2.641-37.152-7.749-54.435" transform="translate(-251.109 353.487)" fill="#17282f"/>
          <path id="path1550" d="M281.935-278.908l.19.138c9.8,6.669,29.158,18.416,39.5,14.688,7.965-2.87,12.624-11.063,13.163-13.668-4.18-3.737-10.132-7.13-12.785-8.9-15.279-10.146-29.046-4.058-40.069,7.741" transform="translate(-265.613 383.58)" fill="#999b9b"/>
          <path id="path1552" d="M291.945-273.88c.691,2.264,12.652,16.442,23.12,15.249,3.409-.4,2.086-19.1,2.086-19.1l.218-1.4,3.034-19.638-23.7-13.067-3.413-1.711s-.475,5.427-1,12.192c-.028.313-.052.629-.076.964-.04.381-.082.743-.1,1.1-.092,1.008-.182,2.04-.248,3.068-.054.782-.112,1.545-.138,2.369-.05.826-.078,1.629-.128,2.455-.3,8.154.072,16.556.351,17.516" transform="translate(-260.867 372.764)" fill="#f68c95"/>
          <path id="path1554" d="M292.018-301.353A39.859,39.859,0,0,0,317.1-279.13l3.034-19.638-23.7-13.067-3.413-1.711s-.475,5.427-1,12.192" transform="translate(-260.601 372.764)" fill="#17282f"/>
          <path id="path1556" d="M347.754-312.818c5.473,34.444-14.538,41.612-21.968,42.783-6.743,1.064-28.521,2.709-37.524-30.986s3.962-46.005,19.257-49.255,34.763,3.014,40.234,37.458" transform="translate(-263.941 354.128)" fill="#f68c95"/>
          <path id="path1558" d="M324.831-325.984a22.68,22.68,0,0,1-2.3.713,3.871,3.871,0,0,1-2.485.279,1.239,1.239,0,0,1-.737-1.323,3.076,3.076,0,0,1,2.3-2.1,4.522,4.522,0,0,1,3.256.014,1.324,1.324,0,0,1-.034,2.421" transform="translate(-247.043 365.223)" fill="#17282f"/>
          <path id="path1560" d="M306.449-325.16a22.91,22.91,0,0,0,2.4.25,3.9,3.9,0,0,0,2.491-.212,1.24,1.24,0,0,0,.461-1.443,3.076,3.076,0,0,0-2.665-1.615,4.522,4.522,0,0,0-3.19.653,1.324,1.324,0,0,0,.507,2.367" transform="translate(-253.957 365.462)" fill="#17282f"/>
          <path id="path1562" d="M310.428-320.846l-.158.228c.337,2.353.329,5.1-1.721,6.124l.036.13c2.563-.657,2.539-4.31,1.842-6.481" transform="translate(-252.382 369.135)" fill="#17282f"/>
          <path id="path1564" d="M309.089-322.335c-3.829.134-3.276,7.781.271,7.655,3.489-.124,2.938-7.769-.271-7.655" transform="translate(-253.426 368.394)" fill="#17282f"/>
          <path id="path1566" d="M308.728-321.975c-.637.479-1.236,1.29-2.034,1.427-.926.16-1.687-.589-2.352-1.315l-.126.1c.084,1.467.757,2.928,2.344,3.034,1.447.1,2.383-1.276,2.641-2.775.05-.279-.218-.663-.473-.469" transform="translate(-254.536 368.547)" fill="#17282f"/>
          <path id="path1568" d="M319.687-322.282l.2.2c.076,2.373.565,5.078,2.759,5.729l-.01.134c-2.641-.2-3.254-3.8-2.946-6.062" transform="translate(-246.882 368.421)" fill="#17282f"/>
          <path id="path1570" d="M321.636-324.017c3.793-.533,4.583,7.092,1.07,7.587-3.457.487-4.25-7.138-1.07-7.587" transform="translate(-246.872 367.545)" fill="#17282f"/>
          <path id="path1572" d="M322.186-323.542c.645.341,1.317,1.014,2.042.986.838-.032,1.371-.92,1.822-1.765l.126.07c.192,1.453-.132,3.02-1.505,3.445-1.25.389-2.318-.765-2.815-2.18-.094-.264.07-.695.329-.557" transform="translate(-245.781 367.408)" fill="#17282f"/>
          <path id="path1574" d="M311.532-308.765c.585.541,1.172,1.289,2.036,1.339a6.27,6.27,0,0,0,2.535-.665l.106.12a3.205,3.205,0,0,1-2.978,1.369,2.526,2.526,0,0,1-1.922-2.052l.224-.112" transform="translate(-251.011 375.141)" fill="#17282f"/>
          <path id="path1576" d="M320.817-307.407s.784,3.493.926,5.162c.01.156-5.729-.631-10.332,1.453-.184.082-.559-.228-.108-.543,3.481-2.439,7.394-2.116,9.065-2.11.08-.471-1.489-5.485-1.226-5.527a14.476,14.476,0,0,1,3.857.539c-1.421-7.324-4.008-14.36-5.32-21.674a.228.228,0,0,1,.427-.144c3.232,7.182,5.056,15.574,6.721,23.1.218.938-3.32-.026-4.01-.255" transform="translate(-251.12 364.397)" fill="#17282f"/>
          <path id="path1578" d="M290.691-300.315c3.725-.527,12.638-11.618,11.468-29.723,0,0-.074,16.331-1.1,18.808s4.978-6.24,4.24-20.854c0,0,8.548,5.172,15.59,6.543s11.25.964,11.7.425-9.941-2.906-12.937-5.843c0,0,19.009,7.028,27.5,6.986.984-.006-.2-18.161-13.941-25.625s-32.958,1.4-38.08,7.216c0,0-6.456,1.461-12.765,11.691s4.31,30.94,8.322,30.373" transform="translate(-266.37 353.422)" fill="#17282f"/>
          <path id="path1580" d="M297.6-313.094s-8.364-10.318-13.1-7.26,2.1,18.393,8.032,20.135a5.9,5.9,0,0,0,7.657-3.725l-2.591-9.15" transform="translate(-265.126 369.098)" fill="#f68c95"/>
          <path id="path1582" d="M285.358-317.638l-.02.156c4.174,1.355,6.575,4.964,8.35,8.757-1.314-1.415-3.014-2.12-4.923-.543l.124.21a3.626,3.626,0,0,1,4.074.98,17.514,17.514,0,0,1,2.136,3.086c.216.349.856.108.689-.3l-.04-.09c-.266-5.18-4.8-12.129-10.39-12.254" transform="translate(-263.921 370.73)" fill="#17282f"/>
        </g>
      </g>
      <path id="path1584" d="M577.64-337.105H277.1V-457.262H577.64v120.156" transform="translate(-142.975 610.759)" fill="#e7e8e5"/>
      <path id="path1586" d="M277.143-377v23.876L298.78-377Z" transform="translate(-142.954 650.657)" fill="#e7e8e5"/>
      <path id="path1588" d="M377.912-399.6a46.77,46.77,0,0,1-46.772,46.77,46.77,46.77,0,0,1-46.77-46.77,46.77,46.77,0,0,1,46.77-46.772A46.771,46.771,0,0,1,377.912-399.6" transform="translate(-139.362 616.173)" fill="#fff"/>
      <path id="path1590" d="M306.667-405.013v0" transform="translate(-128.277 636.726)" fill="#f68b94"/>
      <path id="path1592" d="M373-441.311l3.419,6.929,7.647,1.112-5.533,5.392,1.307,7.617-6.841-3.6-6.837,3.6,1.306-7.617-5.533-5.392,7.647-1.112L373-441.311" transform="translate(-100.805 618.689)" fill="#fabb1e"/>
      <path id="path1594" d="M393.112-441.311l3.419,6.929,7.647,1.112-5.531,5.392,1.305,7.617-6.841-3.6-6.837,3.6,1.306-7.617-5.533-5.392,7.645-1.112,3.419-6.929" transform="translate(-90.805 618.689)" fill="#fabb1e"/>
      <path id="path1596" d="M413.228-441.311l3.421,6.929,7.645,1.112-5.531,5.392,1.305,7.617-6.841-3.6-6.837,3.6,1.305-7.617-5.533-5.392,7.645-1.112,3.419-6.929" transform="translate(-80.805 618.689)" fill="#fabb1e"/>
      <path id="path1598" d="M433.344-441.311l3.421,6.929,7.645,1.112-5.531,5.392,1.306,7.617-6.841-3.6-6.839,3.6,1.307-7.617-5.533-5.392,7.645-1.112,3.419-6.929" transform="translate(-70.805 618.689)" fill="#bebfbd"/>
      <path id="path1600" d="M453.46-441.311l3.421,6.929,7.645,1.112-5.531,5.392,1.306,7.617-6.841-3.6-6.839,3.6,1.308-7.617-5.533-5.392,7.645-1.112,3.419-6.929" transform="translate(-60.805 618.689)" fill="#bebfbd"/>
      <path id="path1602" d="M504.526-414.134H361.931v-3H504.526v3" transform="translate(-100.805 630.708)" fill="#17282f"/>
      <path id="path1604" d="M445.314-408.041H361.931v-3h83.383v3" transform="translate(-100.805 633.738)" fill="#fff"/>
      <path id="path1606" d="M485.04-401.945H361.931v-3H485.04v3" transform="translate(-100.805 636.768)" fill="#fff"/>
      <path id="path1608" d="M474.41-395.85H361.931v-3H474.41v3" transform="translate(-100.805 639.797)" fill="#fff"/>
      <g id="g1610" transform="translate(145.002 158.253)">
        <g id="g1612" clip-path="url(#clip-path-2)">
          <path id="path1618" d="M337.65-394.2,333.5-375.455l-28.279-19.42-7.02,10.364s18.5,25.042,38.208,25.042c10.35,0,12.372-23.734,12.372-23.734L337.65-394.2" transform="translate(-277.487 483.519)" fill="#fabb1e"/>
          <path id="path1620" d="M330.6-363.435c-7.6,2.363-21.692-8.531-27.6-17.744-.4-.633.128-7.621.365-16.143.124-5.174.142-10.935-.224-16.195-.08-1.078,3.735.649,3.735.649l6.919,1.174,22.886,3.906s-2.477,11.248-1.787,20.413a11.74,11.74,0,0,0,.375,2.144l.072.353c.954,4.054,2.6,19.153-4.745,21.443" transform="translate(-275.176 474.077)" fill="#f57a76"/>
          <path id="path1622" d="M334.559-385.871l.072.353a20.669,20.669,0,0,1-3.377.415c-22.243,1.044-26.974-27-26.974-27l8.8-.226,22.886,3.9s-2.477,11.25-1.786,20.415a11.705,11.705,0,0,0,.375,2.142" transform="translate(-274.467 474.841)" fill="#17282f"/>
          <path id="path1624" d="M301.635-435.691c-4.072,11.562.675,45.66,8.683,53.559,11.614,11.45,31.342,13.336,41.25-.786,9.606-13.69,2.633-58.018-6.382-65.27-13.276-10.679-37.54-4.579-43.552,12.5" transform="translate(-276.521 454.38)" fill="#f57a76"/>
          <path id="path1626" d="M306.667-405.013v0" transform="translate(-273.28 478.473)" fill="#f68b94"/>
          <path id="path1628" d="M323.62-425.822l-.15.228c.381,2.288.433,4.974-1.543,6.014l.036.128c2.489-.7,2.383-4.264,1.657-6.37" transform="translate(-265.694 468.135)" fill="#17282f"/>
          <path id="path1630" d="M322.3-427.239c-3.733.216-3.028,7.667.433,7.468,3.4-.2,2.7-7.647-.433-7.468" transform="translate(-266.75 467.429)" fill="#17282f"/>
          <path id="path1632" d="M332.022-426.415l.2.188c.144,2.316.7,4.942,2.861,5.511l-.006.13c-2.583-.116-3.286-3.611-3.052-5.829" transform="translate(-260.696 467.84)" fill="#17282f"/>
          <path id="path1634" d="M333.85-428.142c3.687-.635,4.683,6.785,1.268,7.372-3.362.579-4.358-6.843-1.268-7.372" transform="translate(-260.691 466.963)" fill="#17282f"/>
          <path id="path1636" d="M320.047-427.474a28.948,28.948,0,0,0,2.791-1.29,4.965,4.965,0,0,0,2.6-1.858,1.584,1.584,0,0,0-.435-1.884c-1.212-.884-2.669-.587-3.976-.03a5.776,5.776,0,0,0-3.074,2.8,1.69,1.69,0,0,0,2.1,2.266" transform="translate(-267.76 464.534)" fill="#17282f"/>
          <path id="path1638" d="M337.049-429.29a29.407,29.407,0,0,1-3.036-.489,4.984,4.984,0,0,1-3-1.086,1.586,1.586,0,0,1-.09-1.932c.926-1.178,2.411-1.287,3.821-1.1a5.76,5.76,0,0,1,3.715,1.86,1.69,1.69,0,0,1-1.409,2.749" transform="translate(-261.363 464.084)" fill="#17282f"/>
          <path id="path1640" d="M323.057-411.374c.6.487,1.228,1.18,2.072,1.172a6.1,6.1,0,0,0,2.423-.818l.114.11a3.127,3.127,0,0,1-2.813,1.531,2.468,2.468,0,0,1-2.008-1.87l.212-.124" transform="translate(-265.237 475.318)" fill="#17282f"/>
          <path id="path1642" d="M324.049-406.509c2.359,1.9,10.226,1.9,10.246,1.639l-.639-5.515c.681.264,4.132,1.439,3.992.515-1.188-7.643-2.507-16.145-5.3-23.5a.214.214,0,0,0-.415.1c.85,7.392,2.994,14.584,3.966,22a13.791,13.791,0,0,0-3.817-.774c-.246.1.92,5.178.91,5.982a23.957,23.957,0,0,1-8.464-1.138c-.91-.289-1.1.194-.479.7" transform="translate(-264.819 464.311)" fill="#17282f"/>
          <path id="path1644" d="M306.377-407.859c2.932-.734,5.661-10.284,5.765-19.544.066-5.962,2.441-13.482,9.082-15.728,4.421-1.5,12.115,2.148,16.51,1.074s5.21-3.583,7.815-3.517c2.441.062,5.485,6.456,5.485,6.456s-4.629-20.175-30.591-13.684c-27.351,6.837-21.846,30.256-19.219,37.769,2.028,5.8,5.152,7.174,5.152,7.174" transform="translate(-277.123 454.083)" fill="#17282f"/>
          <path id="path1646" d="M309.979-420.021s-7.41-11.121-12.44-8.5.373,18.618,6.156,20.922a5.936,5.936,0,0,0,8.02-3.012l-1.737-9.408" transform="translate(-278.807 466.594)" fill="#f57a76"/>
          <path id="path1648" d="M298-425.535l-.032.156c4.052,1.749,6.12,5.589,7.539,9.556-1.184-1.541-2.821-2.407-4.879-1.006l.106.222a3.652,3.652,0,0,1,3.988,1.363,17.68,17.68,0,0,1,1.848,3.292c.184.369.848.188.719-.236l-.032-.1c.222-5.212-3.671-12.6-9.258-13.25" transform="translate(-277.605 468.278)" fill="#17282f"/>
        </g>
      </g>
      <path id="path1650" d="M590.974-439.634H290.435V-559.791H590.974v120.156" transform="translate(-136.347 559.791)" fill="#e7e8e5"/>
      <path id="path1652" d="M290.477-479.532v23.876l21.636-23.876Z" transform="translate(-136.326 599.688)" fill="#e7e8e5"/>
      <path id="path1654" d="M391.245-502.129a46.772,46.772,0,0,1-46.772,46.772,46.772,46.772,0,0,1-46.77-46.772,46.77,46.77,0,0,1,46.77-46.77,46.77,46.77,0,0,1,46.772,46.77" transform="translate(-132.734 565.205)" fill="#fff"/>
      <path id="path1656" d="M386.329-542.775l3.419,6.929,7.647,1.112-5.533,5.394,1.307,7.615-6.841-3.595-6.837,3.595,1.306-7.615-5.533-5.394,7.647-1.112,3.417-6.929" transform="translate(-94.177 568.25)" fill="#fabb1e"/>
      <path id="path1658" d="M406.445-542.775l3.419,6.929,7.647,1.112-5.531,5.394,1.305,7.615-6.841-3.595-6.837,3.595,1.305-7.615-5.533-5.394,7.645-1.112,3.419-6.929" transform="translate(-84.177 568.25)" fill="#fabb1e"/>
      <path id="path1660" d="M426.561-542.775l3.421,6.929,7.645,1.112-5.531,5.394,1.305,7.615-6.841-3.595-6.837,3.595,1.306-7.615-5.533-5.394,7.645-1.112,3.419-6.929" transform="translate(-74.177 568.25)" fill="#fabb1e"/>
      <path id="path1662" d="M446.677-542.775l3.421,6.929,7.645,1.112-5.531,5.394,1.306,7.615-6.841-3.595-6.839,3.595,1.308-7.615-5.533-5.394,7.645-1.112,3.419-6.929" transform="translate(-64.177 568.25)" fill="#fabb1e"/>
      <path id="path1664" d="M466.793-542.775l3.421,6.929,7.645,1.112-5.531,5.394,1.305,7.615-6.841-3.595-6.839,3.595,1.307-7.615-5.533-5.394,7.645-1.112,3.419-6.929" transform="translate(-54.177 568.25)" fill="#fabb1e"/>
      <path id="path1666" d="M517.859-516.663H375.264v-3H517.859v3" transform="translate(-94.177 579.739)" fill="#17282f"/>
      <path id="path1668" d="M481.356-510.569H375.264v-3H481.356v3" transform="translate(-94.177 582.769)" fill="#fff"/>
      <path id="path1670" d="M502.285-504.474H375.264v-3H502.285v3" transform="translate(-94.177 585.799)" fill="#fff"/>
      <path id="path1672" d="M429.769-498.379h-54.5v-3h54.5v3" transform="translate(-94.177 588.829)" fill="#fff"/>
      <path id="path1674" d="M392.569-462.985h-3.982c-.413-5.1-3.641-12.889-2.815-8.957a39.028,39.028,0,0,1,.509,8.957H318.757c-.778-7.669,2.641-20.267,2.641-20.267-3.908,6.334-5.414,15.317-5.97,20.267h-6.38c-.657-4.587.966-12.4.966-12.4-1.749,3.082-2.791,8.859-3.278,12.4H299.48c-.267-7.669,2.329-17.744,8.446-26.87,4.9-7.33-1.166-11.6-1.044-25.876.122-18.982,13.159-26.263,15.318-28.254,29.467-27.309,56.218-1.968,59.08,16.069,2.769,17.646-2.306,19.975,5.9,36,6.19,12.039,5.39,28.932,5.39,28.932" transform="translate(-131.859 561.678)" fill="#17282f"/>
      <path id="path1676" d="M308.6-482.973l.19.138c9.8,6.671,29.158,18.416,39.5,14.688,7.965-2.868,12.624-11.063,13.163-13.668-4.18-3.737-10.132-7.128-12.785-8.9-15.279-10.144-29.046-4.058-40.069,7.741" transform="translate(-127.316 591.575)" fill="#33535f"/>
      <path id="path1678" d="M318.612-477.945c.691,2.264,12.652,16.442,23.119,15.248,3.409-.4,2.086-19.1,2.086-19.1l.218-1.4,3.034-19.638-23.7-13.067-3.413-1.711s-.475,5.43-1,12.193c-.028.313-.052.629-.076.964-.04.381-.082.741-.1,1.1-.092,1.01-.182,2.042-.247,3.07-.054.782-.112,1.545-.138,2.37-.05.826-.078,1.629-.128,2.455-.3,8.156.072,16.554.351,17.516" transform="translate(-122.57 580.759)" fill="#f25553"/>
      <path id="path1680" d="M318.685-505.418A39.853,39.853,0,0,0,343.768-483.2l3.034-19.638L323.1-515.9l-3.413-1.711s-.475,5.43-1,12.193" transform="translate(-122.303 580.759)" fill="#17282f"/>
      <path id="path1682" d="M374.8-516.883c5.473,34.444-14.538,41.61-21.968,42.784-6.743,1.064-29.84,3.829-38.843-29.864s5.282-47.127,20.576-50.377,34.763,3.012,40.234,37.458" transform="translate(-126.027 562.123)" fill="#f25553"/>
      <path id="path1684" d="M318.639-500.925c8.631-1.022,8.937-27.832,8.939-31.124.108,2.072.713,13.051,1.585,13.418a8.381,8.381,0,0,0,2.675-.741l.02,0a26.465,26.465,0,0,1-.012-3.942c.02-.613.339,1.3.868,3.637.477-.176,1-.383,1.559-.577a31.741,31.741,0,0,1,.136-8.4c.168-1.052.83,3.579,2.158,7.561,5.839-2.106,14.284-4.936,22.325-5.873,2.15-.261,4.016-.387,5.671-.445-.257-3.236-.914-6.649-.615-5.927a31.253,31.253,0,0,1,1.846,5.895c.9-.022,1.731-.03,2.479-.018-.16-4.587-2.934-11.693-2.11-10.637a32.305,32.305,0,0,1,5.342,10.877c3.168.345,4.078.884,4.094.068.03-1.471-2.815-14.1-13.542-22.644-11.663-9.286-33.453-10.059-44.314,6.643,0,0-9.474,7.368-10.178,18.035-.709,10.643,6.088,24.778,11.075,24.193" transform="translate(-127.857 561.503)" fill="#17282f"/>
      <path id="path1686" d="M321.876-517.157s-8.366-10.32-13.1-7.262,2.094,18.392,8.03,20.135a5.9,5.9,0,0,0,7.657-3.723l-2.589-9.15" transform="translate(-128.016 577.093)" fill="#f25553"/>
      <path id="path1688" d="M309.638-521.7l-.02.158c4.174,1.355,6.575,4.963,8.35,8.757-1.313-1.415-3.016-2.12-4.924-.543l.126.21a3.627,3.627,0,0,1,4.072.98,17.43,17.43,0,0,1,2.138,3.086c.214.347.856.108.689-.3l-.04-.092c-.268-5.18-4.8-12.131-10.39-12.256" transform="translate(-126.811 578.724)" fill="#17282f"/>
      <path id="path1690" d="M346.777-515.7a9.749,9.749,0,0,1-3.224,3.729,4.4,4.4,0,0,1-2.575.685c-1.986-.116-2.381-1.838-2.331-3.387a10.363,10.363,0,0,1,.389-2.437,12.591,12.591,0,0,0,7.741,1.411" transform="translate(-112.382 581.006)" fill="#fff"/>
      <path id="path1692" d="M350.575-531.214a22.757,22.757,0,0,1-2.391-.289,3.881,3.881,0,0,1-2.381-.76,1.238,1.238,0,0,1-.132-1.509,3.075,3.075,0,0,1,2.958-.98,4.516,4.516,0,0,1,2.966,1.343,1.324,1.324,0,0,1-1.02,2.2" transform="translate(-108.985 572.223)" fill="#17282f"/>
      <path id="path1694" d="M333.4-529.158a22.679,22.679,0,0,0,2.3-.7,3.9,3.9,0,0,0,2.214-1.164,1.241,1.241,0,0,0-.136-1.509,3.075,3.075,0,0,0-3.082-.451,4.513,4.513,0,0,0-2.687,1.842,1.322,1.322,0,0,0,1.387,1.982" transform="translate(-115.788 573.017)" fill="#17282f"/>
      <path id="path1696" d="M337.095-524.911l-.158.227c.337,2.354.329,5.1-1.721,6.124l.036.13c2.563-.657,2.539-4.308,1.842-6.482" transform="translate(-114.085 577.13)" fill="#17282f"/>
      <path id="path1698" d="M335.755-526.4c-3.829.136-3.276,7.783.271,7.657,3.489-.122,2.938-7.767-.271-7.657" transform="translate(-115.129 576.388)" fill="#17282f"/>
      <path id="path1700" d="M335.395-526.042c-.637.481-1.236,1.292-2.034,1.429-.926.16-1.687-.589-2.351-1.315l-.126.1c.084,1.467.757,2.928,2.343,3.034,1.447.1,2.383-1.276,2.641-2.775.05-.277-.218-.663-.473-.471" transform="translate(-116.239 576.542)" fill="#17282f"/>
      <path id="path1702" d="M346.354-526.347l.2.2c.076,2.375.565,5.082,2.759,5.731l-.01.134c-2.641-.2-3.254-3.8-2.946-6.062" transform="translate(-108.585 576.416)" fill="#17282f"/>
      <path id="path1704" d="M348.3-528.08c3.793-.537,4.583,7.09,1.07,7.585-3.457.487-4.25-7.138-1.07-7.585" transform="translate(-108.575 575.541)" fill="#17282f"/>
      <path id="path1706" d="M348.852-527.607c.645.341,1.318,1.014,2.042.988.838-.032,1.371-.92,1.822-1.767l.126.07c.192,1.453-.132,3.022-1.505,3.445-1.25.387-2.318-.766-2.815-2.18-.094-.264.07-.695.329-.557" transform="translate(-107.484 575.403)" fill="#17282f"/>
      <path id="path1708" d="M338.2-512.829c.585.539,1.172,1.29,2.036,1.339a6.3,6.3,0,0,0,2.535-.665l.106.118a3.2,3.2,0,0,1-2.978,1.369,2.521,2.521,0,0,1-1.922-2.05l.224-.112" transform="translate(-112.714 583.136)" fill="#17282f"/>
      <path id="path1710" d="M346.921-511.47s.784,3.493.926,5.16c.01.156-.385.263-.948.343l-.066.008a7.948,7.948,0,0,1-7.945-2.314l.23-.251a11.977,11.977,0,0,0,7.408,1.467c.08-.473-1.543-5.939-1.28-5.98a14.557,14.557,0,0,1,3.857.539c-1.421-7.324-4.008-14.36-5.32-21.674a.228.228,0,0,1,.427-.144c3.232,7.182,5.056,15.576,6.721,23.1.218.936-3.32-.028-4.01-.255" transform="translate(-112.26 572.393)" fill="#17282f"/>
    </g>
  </g>
</svg>
