<?xml version="1.0" standalone="no"?>
<!DOCTYPE svg PUBLIC "-//W3C//DTD SVG 20010904//EN"
 "http://www.w3.org/TR/2001/REC-SVG-20010904/DTD/svg10.dtd">
<svg version="1.0" xmlns="http://www.w3.org/2000/svg"
 width="339.000000pt" height="339.000000pt" viewBox="0 0 339.000000 339.000000"
 preserveAspectRatio="xMidYMid meet">
<metadata>
Created by potrace 1.11, written by Peter Selinger 2001-2013
</metadata>
<g transform="translate(0.000000,339.000000) scale(0.100000,-0.100000)"
fill="#000000" stroke="none">
<path d="M1505 3374 c-373 -64 -707 -352 -829 -714 -55 -166 -54 -146 -55
-1432 -1 -1168 -1 -1188 18 -1207 29 -29 65 -15 164 62 157 123 294 289 380
462 28 57 57 128 62 155 1 3 7 32 15 65 23 105 25 175 14 455 -15 400 -5 743
27 900 13 64 55 204 72 240 25 54 79 132 114 167 21 20 71 52 112 72 68 32 83
35 165 36 53 0 110 -6 136 -14 57 -19 140 -70 181 -113 38 -40 72 -88 65 -89
-3 -1 -10 -3 -16 -4 -5 -1 -22 -3 -36 -4 -14 0 -38 -14 -53 -29 -22 -22 -28
-36 -26 -67 3 -64 15 -126 39 -215 34 -119 38 -227 14 -321 -39 -157 -138
-278 -316 -389 -56 -34 -104 -71 -107 -80 -3 -10 0 -30 7 -45 12 -26 13 -27
97 -24 149 5 286 40 436 114 295 144 524 457 574 785 12 75 15 252 6 303 -3
15 -10 54 -15 87 -69 387 -392 724 -798 831 -98 26 -330 33 -447 13z"/>
<path d="M1737 2499 c-8 -11 -12 -29 -10 -40 6 -21 40 -49 60 -49 19 0 50 38
48 59 -3 50 -70 70 -98 30z"/>
</g>
</svg>
