<svg xmlns="http://www.w3.org/2000/svg" width="547.055" height="469.109" viewBox="0 0 547.055 469.109">
  <g id="g10" transform="translate(-84 580.765)">
    <g id="g12" transform="translate(86.666 -580.765)">
      <path id="path22" d="M303.64-138.44H156.3a16.959,16.959,0,0,1-16.911-16.911V-357.993A16.96,16.96,0,0,1,156.3-374.9H303.64a16.961,16.961,0,0,1,16.911,16.911v202.643A16.96,16.96,0,0,1,303.64-138.44Z" transform="translate(-83.664 592.489)" fill="none" stroke="#f9a851" stroke-miterlimit="10" stroke-width="5.333"/>
      <path id="path24" d="M489.542-287.87H103.578a16.96,16.96,0,0,1-16.911-16.911V-477.01a16.961,16.961,0,0,1,16.911-16.911H489.542a16.961,16.961,0,0,1,16.911,16.911v172.229A16.96,16.96,0,0,1,489.542-287.87Z" transform="translate(-86.666 585.711)" fill="none" stroke="#f9a851" stroke-miterlimit="10" stroke-width="5.333"/>
      <path id="path26" d="M508.176-198.425h-144.1a16.961,16.961,0,0,1-16.911-16.911V-532.421a16.961,16.961,0,0,1,16.911-16.911h144.1a16.961,16.961,0,0,1,16.911,16.911v317.085A16.961,16.961,0,0,1,508.176-198.425Z" transform="translate(-71.831 582.555)" fill="none" stroke="#f9a851" stroke-miterlimit="10" stroke-width="5.333"/>
      <path id="path28" d="M440.359-120.789H238.515V-420.4H440.359v299.61" transform="translate(-78.018 589.898)" fill="#45444d"/>
      <path id="path30" d="M451.406-350.886H227.333v-57.78H451.406v57.78" transform="translate(-78.655 590.567)" fill="#7b8286"/>
      <path id="path32" d="M349.21-366.382H244.265v-28.371H349.21v28.371" transform="translate(-77.691 591.359)" fill="#a9a6c4"/>
      <path id="path34" d="M368.493-393.086a3.36,3.36,0,0,1-3.358,3.36,3.36,3.36,0,0,1-3.36-3.36,3.359,3.359,0,0,1,3.36-3.358,3.358,3.358,0,0,1,3.358,3.358" transform="translate(-70.999 591.263)" fill="#31baad"/>
      <path id="path36" d="M368.493-381.151a3.358,3.358,0,0,1-3.358,3.358,3.359,3.359,0,0,1-3.36-3.358,3.359,3.359,0,0,1,3.36-3.358,3.358,3.358,0,0,1,3.358,3.358" transform="translate(-70.999 591.942)" fill="#e6ed32"/>
      <path id="path38" d="M368.493-369.217a3.358,3.358,0,0,1-3.358,3.358,3.359,3.359,0,0,1-3.36-3.358,3.36,3.36,0,0,1,3.36-3.36,3.36,3.36,0,0,1,3.358,3.36" transform="translate(-70.999 592.622)" fill="#f24e70"/>
      <path id="path40" d="M383.484-366.382h-2.819v-28.371h2.819v28.371" transform="translate(-69.923 591.359)" fill="#45444d"/>
      <path id="path42" d="M391.484-366.382h-2.818v-28.371h2.818v28.371" transform="translate(-69.467 591.359)" fill="#45444d"/>
      <path id="path44" d="M399.484-366.382h-2.819v-28.371h2.819v28.371" transform="translate(-69.011 591.359)" fill="#45444d"/>
      <path id="path46" d="M407.484-366.382h-2.819v-28.371h2.819v28.371" transform="translate(-68.556 591.359)" fill="#45444d"/>
      <path id="path48" d="M415.484-366.382h-2.819v-28.371h2.819v28.371" transform="translate(-68.1 591.359)" fill="#45444d"/>
      <path id="path50" d="M423.484-366.382h-2.819v-28.371h2.819v28.371" transform="translate(-67.645 591.359)" fill="#45444d"/>
      <path id="path52" d="M431.484-366.382h-2.819v-28.371h2.819v28.371" transform="translate(-67.189 591.359)" fill="#45444d"/>
      <path id="path54" d="M251.159-390.9a2.144,2.144,0,0,1-2.145,2.145,2.144,2.144,0,0,1-2.145-2.145,2.144,2.144,0,0,1,2.145-2.145,2.144,2.144,0,0,1,2.145,2.145" transform="translate(-77.543 591.456)" fill="#7b8286"/>
      <path id="path56" d="M258.683-390.9a2.145,2.145,0,0,1-2.145,2.145,2.145,2.145,0,0,1-2.146-2.145,2.145,2.145,0,0,1,2.146-2.145,2.145,2.145,0,0,1,2.145,2.145" transform="translate(-77.114 591.456)" fill="#7b8286"/>
      <path id="path58" d="M266.207-390.9a2.145,2.145,0,0,1-2.146,2.145,2.145,2.145,0,0,1-2.145-2.145,2.145,2.145,0,0,1,2.145-2.145,2.145,2.145,0,0,1,2.146,2.145" transform="translate(-76.686 591.456)" fill="#7b8286"/>
      <path id="path60" d="M273.731-390.9a2.145,2.145,0,0,1-2.146,2.145,2.145,2.145,0,0,1-2.145-2.145,2.145,2.145,0,0,1,2.145-2.145,2.145,2.145,0,0,1,2.146,2.145" transform="translate(-76.257 591.456)" fill="#7b8286"/>
      <path id="path62" d="M281.253-390.9a2.144,2.144,0,0,1-2.145,2.145,2.144,2.144,0,0,1-2.145-2.145,2.144,2.144,0,0,1,2.145-2.145,2.144,2.144,0,0,1,2.145,2.145" transform="translate(-75.829 591.456)" fill="#7b8286"/>
      <path id="path64" d="M288.777-390.9a2.144,2.144,0,0,1-2.145,2.145,2.144,2.144,0,0,1-2.145-2.145,2.144,2.144,0,0,1,2.145-2.145,2.144,2.144,0,0,1,2.145,2.145" transform="translate(-75.4 591.456)" fill="#7b8286"/>
      <path id="path66" d="M296.3-390.9a2.145,2.145,0,0,1-2.145,2.145,2.145,2.145,0,0,1-2.146-2.145,2.145,2.145,0,0,1,2.146-2.145A2.145,2.145,0,0,1,296.3-390.9" transform="translate(-74.972 591.456)" fill="#7b8286"/>
      <path id="path68" d="M303.824-390.9a2.144,2.144,0,0,1-2.145,2.145,2.145,2.145,0,0,1-2.145-2.145,2.145,2.145,0,0,1,2.145-2.145,2.144,2.144,0,0,1,2.145,2.145" transform="translate(-74.543 591.456)" fill="#7b8286"/>
      <path id="path70" d="M311.348-390.9a2.144,2.144,0,0,1-2.145,2.145,2.145,2.145,0,0,1-2.145-2.145,2.145,2.145,0,0,1,2.145-2.145,2.144,2.144,0,0,1,2.145,2.145" transform="translate(-74.115 591.456)" fill="#7b8286"/>
      <path id="path72" d="M318.872-390.9a2.145,2.145,0,0,1-2.145,2.145,2.144,2.144,0,0,1-2.145-2.145,2.144,2.144,0,0,1,2.145-2.145,2.145,2.145,0,0,1,2.145,2.145" transform="translate(-73.686 591.456)" fill="#7b8286"/>
      <path id="path74" d="M326.4-390.9a2.145,2.145,0,0,1-2.145,2.145,2.144,2.144,0,0,1-2.145-2.145,2.144,2.144,0,0,1,2.145-2.145A2.145,2.145,0,0,1,326.4-390.9" transform="translate(-73.258 591.456)" fill="#7b8286"/>
      <path id="path76" d="M333.92-390.9a2.145,2.145,0,0,1-2.146,2.145,2.145,2.145,0,0,1-2.145-2.145,2.145,2.145,0,0,1,2.145-2.145,2.145,2.145,0,0,1,2.146,2.145" transform="translate(-72.829 591.456)" fill="#7b8286"/>
      <path id="path78" d="M341.442-390.9a2.144,2.144,0,0,1-2.145,2.145,2.145,2.145,0,0,1-2.145-2.145,2.145,2.145,0,0,1,2.145-2.145,2.144,2.144,0,0,1,2.145,2.145" transform="translate(-72.401 591.456)" fill="#7b8286"/>
      <path id="path80" d="M251.159-384.527a2.145,2.145,0,0,1-2.145,2.145,2.145,2.145,0,0,1-2.145-2.145,2.144,2.144,0,0,1,2.145-2.145,2.144,2.144,0,0,1,2.145,2.145" transform="translate(-77.543 591.819)" fill="#7b8286"/>
      <path id="path82" d="M258.683-384.527a2.146,2.146,0,0,1-2.145,2.145,2.146,2.146,0,0,1-2.146-2.145,2.145,2.145,0,0,1,2.146-2.145,2.145,2.145,0,0,1,2.145,2.145" transform="translate(-77.114 591.819)" fill="#7b8286"/>
      <path id="path84" d="M266.207-384.527a2.146,2.146,0,0,1-2.146,2.145,2.146,2.146,0,0,1-2.145-2.145,2.145,2.145,0,0,1,2.145-2.145,2.145,2.145,0,0,1,2.146,2.145" transform="translate(-76.686 591.819)" fill="#7b8286"/>
      <path id="path86" d="M273.731-384.527a2.146,2.146,0,0,1-2.146,2.145,2.146,2.146,0,0,1-2.145-2.145,2.145,2.145,0,0,1,2.145-2.145,2.145,2.145,0,0,1,2.146,2.145" transform="translate(-76.257 591.819)" fill="#7b8286"/>
      <path id="path88" d="M281.253-384.527a2.145,2.145,0,0,1-2.145,2.145,2.145,2.145,0,0,1-2.145-2.145,2.144,2.144,0,0,1,2.145-2.145,2.144,2.144,0,0,1,2.145,2.145" transform="translate(-75.829 591.819)" fill="#7b8286"/>
      <path id="path90" d="M288.777-384.527a2.145,2.145,0,0,1-2.145,2.145,2.145,2.145,0,0,1-2.145-2.145,2.144,2.144,0,0,1,2.145-2.145,2.144,2.144,0,0,1,2.145,2.145" transform="translate(-75.4 591.819)" fill="#7b8286"/>
      <path id="path92" d="M296.3-384.527a2.146,2.146,0,0,1-2.145,2.145,2.146,2.146,0,0,1-2.146-2.145,2.145,2.145,0,0,1,2.146-2.145,2.145,2.145,0,0,1,2.145,2.145" transform="translate(-74.972 591.819)" fill="#7b8286"/>
      <path id="path94" d="M303.824-384.527a2.145,2.145,0,0,1-2.145,2.145,2.146,2.146,0,0,1-2.145-2.145,2.145,2.145,0,0,1,2.145-2.145,2.144,2.144,0,0,1,2.145,2.145" transform="translate(-74.543 591.819)" fill="#7b8286"/>
      <path id="path96" d="M311.348-384.527a2.145,2.145,0,0,1-2.145,2.145,2.146,2.146,0,0,1-2.145-2.145,2.145,2.145,0,0,1,2.145-2.145,2.144,2.144,0,0,1,2.145,2.145" transform="translate(-74.115 591.819)" fill="#7b8286"/>
      <path id="path98" d="M318.872-384.527a2.146,2.146,0,0,1-2.145,2.145,2.145,2.145,0,0,1-2.145-2.145,2.144,2.144,0,0,1,2.145-2.145,2.145,2.145,0,0,1,2.145,2.145" transform="translate(-73.686 591.819)" fill="#7b8286"/>
      <path id="path100" d="M326.4-384.527a2.146,2.146,0,0,1-2.145,2.145,2.145,2.145,0,0,1-2.145-2.145,2.144,2.144,0,0,1,2.145-2.145,2.145,2.145,0,0,1,2.145,2.145" transform="translate(-73.258 591.819)" fill="#7b8286"/>
      <path id="path102" d="M333.92-384.527a2.146,2.146,0,0,1-2.146,2.145,2.146,2.146,0,0,1-2.145-2.145,2.145,2.145,0,0,1,2.145-2.145,2.145,2.145,0,0,1,2.146,2.145" transform="translate(-72.829 591.819)" fill="#7b8286"/>
      <path id="path104" d="M341.442-384.527a2.145,2.145,0,0,1-2.145,2.145,2.146,2.146,0,0,1-2.145-2.145,2.145,2.145,0,0,1,2.145-2.145,2.144,2.144,0,0,1,2.145,2.145" transform="translate(-72.401 591.819)" fill="#7b8286"/>
      <path id="path106" d="M251.159-378.16a2.145,2.145,0,0,1-2.145,2.146,2.145,2.145,0,0,1-2.145-2.146,2.145,2.145,0,0,1,2.145-2.145,2.145,2.145,0,0,1,2.145,2.145" transform="translate(-77.543 592.182)" fill="#7b8286"/>
      <path id="path108" d="M258.683-378.16a2.146,2.146,0,0,1-2.145,2.146,2.147,2.147,0,0,1-2.146-2.146,2.146,2.146,0,0,1,2.146-2.145,2.146,2.146,0,0,1,2.145,2.145" transform="translate(-77.114 592.182)" fill="#7b8286"/>
      <path id="path110" d="M266.207-378.16a2.147,2.147,0,0,1-2.146,2.146,2.146,2.146,0,0,1-2.145-2.146,2.146,2.146,0,0,1,2.145-2.145,2.146,2.146,0,0,1,2.146,2.145" transform="translate(-76.686 592.182)" fill="#7b8286"/>
      <path id="path112" d="M273.731-378.16a2.147,2.147,0,0,1-2.146,2.146,2.146,2.146,0,0,1-2.145-2.146,2.146,2.146,0,0,1,2.145-2.145,2.146,2.146,0,0,1,2.146,2.145" transform="translate(-76.257 592.182)" fill="#7b8286"/>
      <path id="path114" d="M281.253-378.16a2.145,2.145,0,0,1-2.145,2.146,2.145,2.145,0,0,1-2.145-2.146,2.145,2.145,0,0,1,2.145-2.145,2.145,2.145,0,0,1,2.145,2.145" transform="translate(-75.829 592.182)" fill="#7b8286"/>
      <path id="path116" d="M288.777-378.16a2.145,2.145,0,0,1-2.145,2.146,2.145,2.145,0,0,1-2.145-2.146,2.145,2.145,0,0,1,2.145-2.145,2.145,2.145,0,0,1,2.145,2.145" transform="translate(-75.4 592.182)" fill="#7b8286"/>
      <path id="path118" d="M296.3-378.16a2.146,2.146,0,0,1-2.145,2.146,2.147,2.147,0,0,1-2.146-2.146,2.146,2.146,0,0,1,2.146-2.145,2.146,2.146,0,0,1,2.145,2.145" transform="translate(-74.972 592.182)" fill="#7b8286"/>
      <path id="path120" d="M303.824-378.16a2.145,2.145,0,0,1-2.145,2.146,2.146,2.146,0,0,1-2.145-2.146,2.146,2.146,0,0,1,2.145-2.145,2.145,2.145,0,0,1,2.145,2.145" transform="translate(-74.543 592.182)" fill="#7b8286"/>
      <path id="path122" d="M311.348-378.16a2.145,2.145,0,0,1-2.145,2.146,2.146,2.146,0,0,1-2.145-2.146A2.146,2.146,0,0,1,309.2-380.3a2.145,2.145,0,0,1,2.145,2.145" transform="translate(-74.115 592.182)" fill="#7b8286"/>
      <path id="path124" d="M318.872-378.16a2.146,2.146,0,0,1-2.145,2.146,2.145,2.145,0,0,1-2.145-2.146,2.145,2.145,0,0,1,2.145-2.145,2.146,2.146,0,0,1,2.145,2.145" transform="translate(-73.686 592.182)" fill="#7b8286"/>
      <path id="path126" d="M326.4-378.16a2.146,2.146,0,0,1-2.145,2.146,2.145,2.145,0,0,1-2.145-2.146,2.145,2.145,0,0,1,2.145-2.145,2.146,2.146,0,0,1,2.145,2.145" transform="translate(-73.258 592.182)" fill="#7b8286"/>
      <path id="path128" d="M333.92-378.16a2.147,2.147,0,0,1-2.146,2.146,2.146,2.146,0,0,1-2.145-2.146,2.146,2.146,0,0,1,2.145-2.145,2.146,2.146,0,0,1,2.146,2.145" transform="translate(-72.829 592.182)" fill="#7b8286"/>
      <path id="path130" d="M341.442-378.16a2.145,2.145,0,0,1-2.145,2.146,2.146,2.146,0,0,1-2.145-2.146A2.146,2.146,0,0,1,339.3-380.3a2.145,2.145,0,0,1,2.145,2.145" transform="translate(-72.401 592.182)" fill="#7b8286"/>
      <path id="path132" d="M251.159-371.789a2.145,2.145,0,0,1-2.145,2.145,2.145,2.145,0,0,1-2.145-2.145,2.145,2.145,0,0,1,2.145-2.146,2.145,2.145,0,0,1,2.145,2.146" transform="translate(-77.543 592.545)" fill="#7b8286"/>
      <path id="path134" d="M258.683-371.789a2.146,2.146,0,0,1-2.145,2.145,2.146,2.146,0,0,1-2.146-2.145,2.146,2.146,0,0,1,2.146-2.146,2.146,2.146,0,0,1,2.145,2.146" transform="translate(-77.114 592.545)" fill="#7b8286"/>
      <path id="path136" d="M266.207-371.789a2.146,2.146,0,0,1-2.146,2.145,2.146,2.146,0,0,1-2.145-2.145,2.146,2.146,0,0,1,2.145-2.146,2.147,2.147,0,0,1,2.146,2.146" transform="translate(-76.686 592.545)" fill="#7b8286"/>
      <path id="path138" d="M273.731-371.789a2.146,2.146,0,0,1-2.146,2.145,2.146,2.146,0,0,1-2.145-2.145,2.146,2.146,0,0,1,2.145-2.146,2.147,2.147,0,0,1,2.146,2.146" transform="translate(-76.257 592.545)" fill="#7b8286"/>
      <path id="path140" d="M281.253-371.789a2.145,2.145,0,0,1-2.145,2.145,2.145,2.145,0,0,1-2.145-2.145,2.145,2.145,0,0,1,2.145-2.146,2.145,2.145,0,0,1,2.145,2.146" transform="translate(-75.829 592.545)" fill="#7b8286"/>
      <path id="path142" d="M288.777-371.789a2.145,2.145,0,0,1-2.145,2.145,2.145,2.145,0,0,1-2.145-2.145,2.145,2.145,0,0,1,2.145-2.146,2.145,2.145,0,0,1,2.145,2.146" transform="translate(-75.4 592.545)" fill="#7b8286"/>
      <path id="path144" d="M296.3-371.789a2.146,2.146,0,0,1-2.145,2.145,2.146,2.146,0,0,1-2.146-2.145,2.147,2.147,0,0,1,2.146-2.146,2.146,2.146,0,0,1,2.145,2.146" transform="translate(-74.972 592.545)" fill="#7b8286"/>
      <path id="path146" d="M303.824-371.789a2.145,2.145,0,0,1-2.145,2.145,2.146,2.146,0,0,1-2.145-2.145,2.146,2.146,0,0,1,2.145-2.146,2.145,2.145,0,0,1,2.145,2.146" transform="translate(-74.543 592.545)" fill="#7b8286"/>
      <path id="path148" d="M311.348-371.789a2.145,2.145,0,0,1-2.145,2.145,2.146,2.146,0,0,1-2.145-2.145,2.146,2.146,0,0,1,2.145-2.146,2.145,2.145,0,0,1,2.145,2.146" transform="translate(-74.115 592.545)" fill="#7b8286"/>
      <path id="path150" d="M318.872-371.789a2.146,2.146,0,0,1-2.145,2.145,2.145,2.145,0,0,1-2.145-2.145,2.145,2.145,0,0,1,2.145-2.146,2.146,2.146,0,0,1,2.145,2.146" transform="translate(-73.686 592.545)" fill="#7b8286"/>
      <path id="path152" d="M326.4-371.789a2.146,2.146,0,0,1-2.145,2.145,2.145,2.145,0,0,1-2.145-2.145,2.145,2.145,0,0,1,2.145-2.146,2.146,2.146,0,0,1,2.145,2.146" transform="translate(-73.258 592.545)" fill="#7b8286"/>
      <path id="path154" d="M333.92-371.789a2.146,2.146,0,0,1-2.146,2.145,2.146,2.146,0,0,1-2.145-2.145,2.146,2.146,0,0,1,2.145-2.146,2.146,2.146,0,0,1,2.146,2.146" transform="translate(-72.829 592.545)" fill="#7b8286"/>
      <path id="path156" d="M341.442-371.789a2.145,2.145,0,0,1-2.145,2.145,2.146,2.146,0,0,1-2.145-2.145,2.146,2.146,0,0,1,2.145-2.146,2.145,2.145,0,0,1,2.145,2.146" transform="translate(-72.401 592.545)" fill="#7b8286"/>
      <path id="path158" d="M451.406-289.553H227.333v-57.78H451.406v57.78" transform="translate(-78.655 594.06)" fill="#7b8286"/>
      <path id="path160" d="M349.21-305.049H244.265v-28.371H349.21v28.371" transform="translate(-77.691 594.852)" fill="#a9a6c4"/>
      <path id="path162" d="M368.493-331.753a3.36,3.36,0,0,1-3.358,3.36,3.36,3.36,0,0,1-3.36-3.36,3.359,3.359,0,0,1,3.36-3.358,3.358,3.358,0,0,1,3.358,3.358" transform="translate(-70.999 594.756)" fill="#31baad"/>
      <path id="path164" d="M368.493-319.818a3.358,3.358,0,0,1-3.358,3.358,3.359,3.359,0,0,1-3.36-3.358,3.359,3.359,0,0,1,3.36-3.358,3.358,3.358,0,0,1,3.358,3.358" transform="translate(-70.999 595.435)" fill="#e6ed32"/>
      <path id="path166" d="M368.493-307.884a3.358,3.358,0,0,1-3.358,3.358,3.358,3.358,0,0,1-3.36-3.358,3.36,3.36,0,0,1,3.36-3.36,3.36,3.36,0,0,1,3.358,3.36" transform="translate(-70.999 596.115)" fill="#45444d"/>
      <path id="path168" d="M383.484-305.049h-2.819v-28.371h2.819v28.371" transform="translate(-69.923 594.852)" fill="#45444d"/>
      <path id="path170" d="M391.484-305.049h-2.818v-28.371h2.818v28.371" transform="translate(-69.467 594.852)" fill="#a9a6c4"/>
      <path id="path172" d="M399.484-305.049h-2.819v-28.371h2.819v28.371" transform="translate(-69.011 594.852)" fill="#45444d"/>
      <path id="path174" d="M407.484-305.049h-2.819v-28.371h2.819v28.371" transform="translate(-68.556 594.852)" fill="#a9a6c4"/>
      <path id="path176" d="M415.484-305.049h-2.819v-28.371h2.819v28.371" transform="translate(-68.1 594.852)" fill="#45444d"/>
      <path id="path178" d="M423.484-305.049h-2.819v-28.371h2.819v28.371" transform="translate(-67.645 594.852)" fill="#a9a6c4"/>
      <path id="path180" d="M431.484-305.049h-2.819v-28.371h2.819v28.371" transform="translate(-67.189 594.852)" fill="#a9a6c4"/>
      <path id="path182" d="M251.159-329.564a2.145,2.145,0,0,1-2.145,2.145,2.145,2.145,0,0,1-2.145-2.145,2.144,2.144,0,0,1,2.145-2.145,2.144,2.144,0,0,1,2.145,2.145" transform="translate(-77.543 594.949)" fill="#7b8286"/>
      <path id="path184" d="M258.683-329.564a2.146,2.146,0,0,1-2.145,2.145,2.146,2.146,0,0,1-2.146-2.145,2.145,2.145,0,0,1,2.146-2.145,2.145,2.145,0,0,1,2.145,2.145" transform="translate(-77.114 594.949)" fill="#7b8286"/>
      <path id="path186" d="M266.207-329.564a2.146,2.146,0,0,1-2.146,2.145,2.146,2.146,0,0,1-2.145-2.145,2.145,2.145,0,0,1,2.145-2.145,2.145,2.145,0,0,1,2.146,2.145" transform="translate(-76.686 594.949)" fill="#7b8286"/>
      <path id="path188" d="M273.731-329.564a2.146,2.146,0,0,1-2.146,2.145,2.146,2.146,0,0,1-2.145-2.145,2.145,2.145,0,0,1,2.145-2.145,2.145,2.145,0,0,1,2.146,2.145" transform="translate(-76.257 594.949)" fill="#7b8286"/>
      <path id="path190" d="M281.253-329.564a2.145,2.145,0,0,1-2.145,2.145,2.145,2.145,0,0,1-2.145-2.145,2.144,2.144,0,0,1,2.145-2.145,2.144,2.144,0,0,1,2.145,2.145" transform="translate(-75.829 594.949)" fill="#7b8286"/>
      <path id="path192" d="M288.777-329.564a2.145,2.145,0,0,1-2.145,2.145,2.145,2.145,0,0,1-2.145-2.145,2.144,2.144,0,0,1,2.145-2.145,2.144,2.144,0,0,1,2.145,2.145" transform="translate(-75.4 594.949)" fill="#7b8286"/>
      <path id="path194" d="M296.3-329.564a2.146,2.146,0,0,1-2.145,2.145,2.146,2.146,0,0,1-2.146-2.145,2.145,2.145,0,0,1,2.146-2.145,2.145,2.145,0,0,1,2.145,2.145" transform="translate(-74.972 594.949)" fill="#7b8286"/>
      <path id="path196" d="M303.824-329.564a2.145,2.145,0,0,1-2.145,2.145,2.146,2.146,0,0,1-2.145-2.145,2.145,2.145,0,0,1,2.145-2.145,2.144,2.144,0,0,1,2.145,2.145" transform="translate(-74.543 594.949)" fill="#7b8286"/>
      <path id="path198" d="M311.348-329.564a2.145,2.145,0,0,1-2.145,2.145,2.146,2.146,0,0,1-2.145-2.145,2.145,2.145,0,0,1,2.145-2.145,2.144,2.144,0,0,1,2.145,2.145" transform="translate(-74.115 594.949)" fill="#7b8286"/>
      <path id="path200" d="M318.872-329.564a2.146,2.146,0,0,1-2.145,2.145,2.145,2.145,0,0,1-2.145-2.145,2.144,2.144,0,0,1,2.145-2.145,2.145,2.145,0,0,1,2.145,2.145" transform="translate(-73.686 594.949)" fill="#7b8286"/>
      <path id="path202" d="M326.4-329.564a2.146,2.146,0,0,1-2.145,2.145,2.145,2.145,0,0,1-2.145-2.145,2.144,2.144,0,0,1,2.145-2.145,2.145,2.145,0,0,1,2.145,2.145" transform="translate(-73.258 594.949)" fill="#7b8286"/>
      <path id="path204" d="M333.92-329.564a2.146,2.146,0,0,1-2.146,2.145,2.146,2.146,0,0,1-2.145-2.145,2.145,2.145,0,0,1,2.145-2.145,2.145,2.145,0,0,1,2.146,2.145" transform="translate(-72.829 594.949)" fill="#7b8286"/>
      <path id="path206" d="M341.442-329.564a2.145,2.145,0,0,1-2.145,2.145,2.146,2.146,0,0,1-2.145-2.145,2.145,2.145,0,0,1,2.145-2.145,2.144,2.144,0,0,1,2.145,2.145" transform="translate(-72.401 594.949)" fill="#7b8286"/>
      <path id="path208" d="M251.159-323.194a2.145,2.145,0,0,1-2.145,2.145,2.145,2.145,0,0,1-2.145-2.145,2.145,2.145,0,0,1,2.145-2.146,2.145,2.145,0,0,1,2.145,2.146" transform="translate(-77.543 595.312)" fill="#7b8286"/>
      <path id="path210" d="M258.683-323.194a2.146,2.146,0,0,1-2.145,2.145,2.146,2.146,0,0,1-2.146-2.145,2.147,2.147,0,0,1,2.146-2.146,2.146,2.146,0,0,1,2.145,2.146" transform="translate(-77.114 595.312)" fill="#7b8286"/>
      <path id="path212" d="M266.207-323.194a2.146,2.146,0,0,1-2.146,2.145,2.146,2.146,0,0,1-2.145-2.145,2.146,2.146,0,0,1,2.145-2.146,2.147,2.147,0,0,1,2.146,2.146" transform="translate(-76.686 595.312)" fill="#7b8286"/>
      <path id="path214" d="M273.731-323.194a2.146,2.146,0,0,1-2.146,2.145,2.146,2.146,0,0,1-2.145-2.145,2.146,2.146,0,0,1,2.145-2.146,2.147,2.147,0,0,1,2.146,2.146" transform="translate(-76.257 595.312)" fill="#7b8286"/>
      <path id="path216" d="M281.253-323.194a2.145,2.145,0,0,1-2.145,2.145,2.145,2.145,0,0,1-2.145-2.145,2.145,2.145,0,0,1,2.145-2.146,2.145,2.145,0,0,1,2.145,2.146" transform="translate(-75.829 595.312)" fill="#7b8286"/>
      <path id="path218" d="M288.777-323.194a2.145,2.145,0,0,1-2.145,2.145,2.145,2.145,0,0,1-2.145-2.145,2.145,2.145,0,0,1,2.145-2.146,2.145,2.145,0,0,1,2.145,2.146" transform="translate(-75.4 595.312)" fill="#7b8286"/>
      <path id="path220" d="M296.3-323.194a2.146,2.146,0,0,1-2.145,2.145,2.146,2.146,0,0,1-2.146-2.145,2.147,2.147,0,0,1,2.146-2.146,2.146,2.146,0,0,1,2.145,2.146" transform="translate(-74.972 595.312)" fill="#7b8286"/>
      <path id="path222" d="M303.824-323.194a2.145,2.145,0,0,1-2.145,2.145,2.146,2.146,0,0,1-2.145-2.145,2.146,2.146,0,0,1,2.145-2.146,2.145,2.145,0,0,1,2.145,2.146" transform="translate(-74.543 595.312)" fill="#7b8286"/>
      <path id="path224" d="M311.348-323.194a2.145,2.145,0,0,1-2.145,2.145,2.146,2.146,0,0,1-2.145-2.145,2.146,2.146,0,0,1,2.145-2.146,2.145,2.145,0,0,1,2.145,2.146" transform="translate(-74.115 595.312)" fill="#7b8286"/>
      <path id="path226" d="M318.872-323.194a2.146,2.146,0,0,1-2.145,2.145,2.145,2.145,0,0,1-2.145-2.145,2.145,2.145,0,0,1,2.145-2.146,2.146,2.146,0,0,1,2.145,2.146" transform="translate(-73.686 595.312)" fill="#7b8286"/>
      <path id="path228" d="M326.4-323.194a2.146,2.146,0,0,1-2.145,2.145,2.145,2.145,0,0,1-2.145-2.145,2.145,2.145,0,0,1,2.145-2.146,2.146,2.146,0,0,1,2.145,2.146" transform="translate(-73.258 595.312)" fill="#7b8286"/>
      <path id="path230" d="M333.92-323.194a2.146,2.146,0,0,1-2.146,2.145,2.146,2.146,0,0,1-2.145-2.145,2.146,2.146,0,0,1,2.145-2.146,2.147,2.147,0,0,1,2.146,2.146" transform="translate(-72.829 595.312)" fill="#7b8286"/>
      <path id="path232" d="M341.442-323.194a2.145,2.145,0,0,1-2.145,2.145,2.146,2.146,0,0,1-2.145-2.145,2.146,2.146,0,0,1,2.145-2.146,2.145,2.145,0,0,1,2.145,2.146" transform="translate(-72.401 595.312)" fill="#7b8286"/>
      <path id="path234" d="M251.159-316.825a2.143,2.143,0,0,1-2.145,2.143,2.143,2.143,0,0,1-2.145-2.143,2.145,2.145,0,0,1,2.145-2.146,2.145,2.145,0,0,1,2.145,2.146" transform="translate(-77.543 595.675)" fill="#7b8286"/>
      <path id="path236" d="M258.683-316.825a2.144,2.144,0,0,1-2.145,2.143,2.144,2.144,0,0,1-2.146-2.143,2.147,2.147,0,0,1,2.146-2.146,2.146,2.146,0,0,1,2.145,2.146" transform="translate(-77.114 595.675)" fill="#7b8286"/>
      <path id="path238" d="M266.207-316.825a2.144,2.144,0,0,1-2.146,2.143,2.144,2.144,0,0,1-2.145-2.143,2.146,2.146,0,0,1,2.145-2.146,2.147,2.147,0,0,1,2.146,2.146" transform="translate(-76.686 595.675)" fill="#7b8286"/>
      <path id="path240" d="M273.731-316.825a2.144,2.144,0,0,1-2.146,2.143,2.144,2.144,0,0,1-2.145-2.143,2.146,2.146,0,0,1,2.145-2.146,2.147,2.147,0,0,1,2.146,2.146" transform="translate(-76.257 595.675)" fill="#7b8286"/>
      <path id="path242" d="M281.253-316.825a2.143,2.143,0,0,1-2.145,2.143,2.143,2.143,0,0,1-2.145-2.143,2.145,2.145,0,0,1,2.145-2.146,2.145,2.145,0,0,1,2.145,2.146" transform="translate(-75.829 595.675)" fill="#7b8286"/>
      <path id="path244" d="M288.777-316.825a2.143,2.143,0,0,1-2.145,2.143,2.143,2.143,0,0,1-2.145-2.143,2.145,2.145,0,0,1,2.145-2.146,2.145,2.145,0,0,1,2.145,2.146" transform="translate(-75.4 595.675)" fill="#7b8286"/>
      <path id="path246" d="M296.3-316.825a2.144,2.144,0,0,1-2.145,2.143,2.144,2.144,0,0,1-2.146-2.143,2.147,2.147,0,0,1,2.146-2.146,2.146,2.146,0,0,1,2.145,2.146" transform="translate(-74.972 595.675)" fill="#7b8286"/>
      <path id="path248" d="M303.824-316.825a2.143,2.143,0,0,1-2.145,2.143,2.144,2.144,0,0,1-2.145-2.143,2.146,2.146,0,0,1,2.145-2.146,2.145,2.145,0,0,1,2.145,2.146" transform="translate(-74.543 595.675)" fill="#7b8286"/>
      <path id="path250" d="M311.348-316.825a2.143,2.143,0,0,1-2.145,2.143,2.144,2.144,0,0,1-2.145-2.143,2.146,2.146,0,0,1,2.145-2.146,2.145,2.145,0,0,1,2.145,2.146" transform="translate(-74.115 595.675)" fill="#7b8286"/>
      <path id="path252" d="M318.872-316.825a2.144,2.144,0,0,1-2.145,2.143,2.143,2.143,0,0,1-2.145-2.143,2.145,2.145,0,0,1,2.145-2.146,2.146,2.146,0,0,1,2.145,2.146" transform="translate(-73.686 595.675)" fill="#7b8286"/>
      <path id="path254" d="M326.4-316.825a2.144,2.144,0,0,1-2.145,2.143,2.143,2.143,0,0,1-2.145-2.143,2.145,2.145,0,0,1,2.145-2.146,2.146,2.146,0,0,1,2.145,2.146" transform="translate(-73.258 595.675)" fill="#7b8286"/>
      <path id="path256" d="M333.92-316.825a2.144,2.144,0,0,1-2.146,2.143,2.144,2.144,0,0,1-2.145-2.143,2.146,2.146,0,0,1,2.145-2.146,2.147,2.147,0,0,1,2.146,2.146" transform="translate(-72.829 595.675)" fill="#7b8286"/>
      <path id="path258" d="M341.442-316.825a2.143,2.143,0,0,1-2.145,2.143,2.144,2.144,0,0,1-2.145-2.143,2.146,2.146,0,0,1,2.145-2.146,2.145,2.145,0,0,1,2.145,2.146" transform="translate(-72.401 595.675)" fill="#7b8286"/>
      <path id="path260" d="M251.159-310.457a2.145,2.145,0,0,1-2.145,2.146,2.145,2.145,0,0,1-2.145-2.146,2.143,2.143,0,0,1,2.145-2.143,2.143,2.143,0,0,1,2.145,2.143" transform="translate(-77.543 596.038)" fill="#7b8286"/>
      <path id="path262" d="M258.683-310.457a2.146,2.146,0,0,1-2.145,2.146,2.147,2.147,0,0,1-2.146-2.146,2.144,2.144,0,0,1,2.146-2.143,2.144,2.144,0,0,1,2.145,2.143" transform="translate(-77.114 596.038)" fill="#7b8286"/>
      <path id="path264" d="M266.207-310.457a2.147,2.147,0,0,1-2.146,2.146,2.146,2.146,0,0,1-2.145-2.146,2.144,2.144,0,0,1,2.145-2.143,2.144,2.144,0,0,1,2.146,2.143" transform="translate(-76.686 596.038)" fill="#7b8286"/>
      <path id="path266" d="M273.731-310.457a2.147,2.147,0,0,1-2.146,2.146,2.146,2.146,0,0,1-2.145-2.146,2.144,2.144,0,0,1,2.145-2.143,2.144,2.144,0,0,1,2.146,2.143" transform="translate(-76.257 596.038)" fill="#7b8286"/>
      <path id="path268" d="M281.253-310.457a2.145,2.145,0,0,1-2.145,2.146,2.145,2.145,0,0,1-2.145-2.146,2.143,2.143,0,0,1,2.145-2.143,2.143,2.143,0,0,1,2.145,2.143" transform="translate(-75.829 596.038)" fill="#7b8286"/>
      <path id="path270" d="M288.777-310.457a2.145,2.145,0,0,1-2.145,2.146,2.145,2.145,0,0,1-2.145-2.146,2.143,2.143,0,0,1,2.145-2.143,2.143,2.143,0,0,1,2.145,2.143" transform="translate(-75.4 596.038)" fill="#7b8286"/>
      <path id="path272" d="M296.3-310.457a2.146,2.146,0,0,1-2.145,2.146,2.147,2.147,0,0,1-2.146-2.146,2.144,2.144,0,0,1,2.146-2.143,2.144,2.144,0,0,1,2.145,2.143" transform="translate(-74.972 596.038)" fill="#7b8286"/>
      <path id="path274" d="M303.824-310.457a2.145,2.145,0,0,1-2.145,2.146,2.146,2.146,0,0,1-2.145-2.146,2.144,2.144,0,0,1,2.145-2.143,2.143,2.143,0,0,1,2.145,2.143" transform="translate(-74.543 596.038)" fill="#7b8286"/>
      <path id="path276" d="M311.348-310.457a2.145,2.145,0,0,1-2.145,2.146,2.146,2.146,0,0,1-2.145-2.146A2.144,2.144,0,0,1,309.2-312.6a2.143,2.143,0,0,1,2.145,2.143" transform="translate(-74.115 596.038)" fill="#7b8286"/>
      <path id="path278" d="M318.872-310.457a2.146,2.146,0,0,1-2.145,2.146,2.145,2.145,0,0,1-2.145-2.146,2.143,2.143,0,0,1,2.145-2.143,2.144,2.144,0,0,1,2.145,2.143" transform="translate(-73.686 596.038)" fill="#7b8286"/>
      <path id="path280" d="M326.4-310.457a2.146,2.146,0,0,1-2.145,2.146,2.145,2.145,0,0,1-2.145-2.146,2.143,2.143,0,0,1,2.145-2.143,2.144,2.144,0,0,1,2.145,2.143" transform="translate(-73.258 596.038)" fill="#7b8286"/>
      <path id="path282" d="M333.92-310.457a2.147,2.147,0,0,1-2.146,2.146,2.146,2.146,0,0,1-2.145-2.146,2.144,2.144,0,0,1,2.145-2.143,2.144,2.144,0,0,1,2.146,2.143" transform="translate(-72.829 596.038)" fill="#7b8286"/>
      <path id="path284" d="M341.442-310.457a2.145,2.145,0,0,1-2.145,2.146,2.146,2.146,0,0,1-2.145-2.146A2.144,2.144,0,0,1,339.3-312.6a2.143,2.143,0,0,1,2.145,2.143" transform="translate(-72.401 596.038)" fill="#7b8286"/>
      <path id="path286" d="M451.406-228.219H227.333V-286H451.406v57.78" transform="translate(-78.655 597.553)" fill="#7b8286"/>
      <path id="path288" d="M349.21-243.716H244.265v-28.371H349.21v28.371" transform="translate(-77.691 598.345)" fill="#a9a6c4"/>
      <path id="path290" d="M368.493-270.42a3.36,3.36,0,0,1-3.358,3.36,3.36,3.36,0,0,1-3.36-3.36,3.358,3.358,0,0,1,3.36-3.358,3.358,3.358,0,0,1,3.358,3.358" transform="translate(-70.999 598.249)" fill="#31baad"/>
      <path id="path292" d="M368.493-258.485a3.358,3.358,0,0,1-3.358,3.358,3.359,3.359,0,0,1-3.36-3.358,3.359,3.359,0,0,1,3.36-3.358,3.358,3.358,0,0,1,3.358,3.358" transform="translate(-70.999 598.928)" fill="#f24e70"/>
      <path id="path294" d="M368.493-246.55a3.358,3.358,0,0,1-3.358,3.358,3.358,3.358,0,0,1-3.36-3.358,3.36,3.36,0,0,1,3.36-3.36,3.36,3.36,0,0,1,3.358,3.36" transform="translate(-70.999 599.608)" fill="#f24e70"/>
      <path id="path296" d="M383.484-243.716h-2.819v-28.371h2.819v28.371" transform="translate(-69.923 598.345)" fill="#a9a6c4"/>
      <path id="path298" d="M391.484-243.716h-2.818v-28.371h2.818v28.371" transform="translate(-69.467 598.345)" fill="#a9a6c4"/>
      <path id="path300" d="M399.484-243.716h-2.819v-28.371h2.819v28.371" transform="translate(-69.011 598.345)" fill="#a9a6c4"/>
      <path id="path302" d="M407.484-243.716h-2.819v-28.371h2.819v28.371" transform="translate(-68.556 598.345)" fill="#a9a6c4"/>
      <path id="path304" d="M415.484-243.716h-2.819v-28.371h2.819v28.371" transform="translate(-68.1 598.345)" fill="#a9a6c4"/>
      <path id="path306" d="M423.484-243.716h-2.819v-28.371h2.819v28.371" transform="translate(-67.645 598.345)" fill="#a9a6c4"/>
      <path id="path308" d="M431.484-243.716h-2.819v-28.371h2.819v28.371" transform="translate(-67.189 598.345)" fill="#a9a6c4"/>
      <path id="path310" d="M251.159-268.23a2.145,2.145,0,0,1-2.145,2.145,2.145,2.145,0,0,1-2.145-2.145,2.144,2.144,0,0,1,2.145-2.145,2.144,2.144,0,0,1,2.145,2.145" transform="translate(-77.543 598.442)" fill="#7b8286"/>
      <path id="path312" d="M258.683-268.23a2.146,2.146,0,0,1-2.145,2.145,2.146,2.146,0,0,1-2.146-2.145,2.145,2.145,0,0,1,2.146-2.145,2.145,2.145,0,0,1,2.145,2.145" transform="translate(-77.114 598.442)" fill="#7b8286"/>
      <path id="path314" d="M266.207-268.23a2.146,2.146,0,0,1-2.146,2.145,2.146,2.146,0,0,1-2.145-2.145,2.145,2.145,0,0,1,2.145-2.145,2.145,2.145,0,0,1,2.146,2.145" transform="translate(-76.686 598.442)" fill="#7b8286"/>
      <path id="path316" d="M273.731-268.23a2.146,2.146,0,0,1-2.146,2.145,2.146,2.146,0,0,1-2.145-2.145,2.145,2.145,0,0,1,2.145-2.145,2.145,2.145,0,0,1,2.146,2.145" transform="translate(-76.257 598.442)" fill="#7b8286"/>
      <path id="path318" d="M281.253-268.23a2.145,2.145,0,0,1-2.145,2.145,2.145,2.145,0,0,1-2.145-2.145,2.144,2.144,0,0,1,2.145-2.145,2.144,2.144,0,0,1,2.145,2.145" transform="translate(-75.829 598.442)" fill="#7b8286"/>
      <path id="path320" d="M288.777-268.23a2.145,2.145,0,0,1-2.145,2.145,2.145,2.145,0,0,1-2.145-2.145,2.144,2.144,0,0,1,2.145-2.145,2.144,2.144,0,0,1,2.145,2.145" transform="translate(-75.4 598.442)" fill="#7b8286"/>
      <path id="path322" d="M296.3-268.23a2.146,2.146,0,0,1-2.145,2.145,2.146,2.146,0,0,1-2.146-2.145,2.145,2.145,0,0,1,2.146-2.145,2.145,2.145,0,0,1,2.145,2.145" transform="translate(-74.972 598.442)" fill="#7b8286"/>
      <path id="path324" d="M303.824-268.23a2.145,2.145,0,0,1-2.145,2.145,2.146,2.146,0,0,1-2.145-2.145,2.145,2.145,0,0,1,2.145-2.145,2.144,2.144,0,0,1,2.145,2.145" transform="translate(-74.543 598.442)" fill="#7b8286"/>
      <path id="path326" d="M311.348-268.23a2.145,2.145,0,0,1-2.145,2.145,2.146,2.146,0,0,1-2.145-2.145,2.145,2.145,0,0,1,2.145-2.145,2.144,2.144,0,0,1,2.145,2.145" transform="translate(-74.115 598.442)" fill="#7b8286"/>
      <path id="path328" d="M318.872-268.23a2.146,2.146,0,0,1-2.145,2.145,2.145,2.145,0,0,1-2.145-2.145,2.144,2.144,0,0,1,2.145-2.145,2.145,2.145,0,0,1,2.145,2.145" transform="translate(-73.686 598.442)" fill="#7b8286"/>
      <path id="path330" d="M326.4-268.23a2.146,2.146,0,0,1-2.145,2.145,2.145,2.145,0,0,1-2.145-2.145,2.144,2.144,0,0,1,2.145-2.145,2.145,2.145,0,0,1,2.145,2.145" transform="translate(-73.258 598.442)" fill="#7b8286"/>
      <path id="path332" d="M333.92-268.23a2.146,2.146,0,0,1-2.146,2.145,2.146,2.146,0,0,1-2.145-2.145,2.145,2.145,0,0,1,2.145-2.145,2.145,2.145,0,0,1,2.146,2.145" transform="translate(-72.829 598.442)" fill="#7b8286"/>
      <path id="path334" d="M341.442-268.23a2.145,2.145,0,0,1-2.145,2.145,2.146,2.146,0,0,1-2.145-2.145,2.145,2.145,0,0,1,2.145-2.145,2.144,2.144,0,0,1,2.145,2.145" transform="translate(-72.401 598.442)" fill="#7b8286"/>
      <path id="path336" d="M251.159-261.861a2.145,2.145,0,0,1-2.145,2.145,2.145,2.145,0,0,1-2.145-2.145,2.145,2.145,0,0,1,2.145-2.146,2.145,2.145,0,0,1,2.145,2.146" transform="translate(-77.543 598.805)" fill="#7b8286"/>
      <path id="path338" d="M258.683-261.861a2.146,2.146,0,0,1-2.145,2.145,2.146,2.146,0,0,1-2.146-2.145,2.147,2.147,0,0,1,2.146-2.146,2.146,2.146,0,0,1,2.145,2.146" transform="translate(-77.114 598.805)" fill="#7b8286"/>
      <path id="path340" d="M266.207-261.861a2.146,2.146,0,0,1-2.146,2.145,2.146,2.146,0,0,1-2.145-2.145,2.146,2.146,0,0,1,2.145-2.146,2.147,2.147,0,0,1,2.146,2.146" transform="translate(-76.686 598.805)" fill="#7b8286"/>
      <path id="path342" d="M273.731-261.861a2.146,2.146,0,0,1-2.146,2.145,2.146,2.146,0,0,1-2.145-2.145,2.146,2.146,0,0,1,2.145-2.146,2.147,2.147,0,0,1,2.146,2.146" transform="translate(-76.257 598.805)" fill="#7b8286"/>
      <path id="path344" d="M281.253-261.861a2.145,2.145,0,0,1-2.145,2.145,2.145,2.145,0,0,1-2.145-2.145,2.145,2.145,0,0,1,2.145-2.146,2.145,2.145,0,0,1,2.145,2.146" transform="translate(-75.829 598.805)" fill="#7b8286"/>
      <path id="path346" d="M288.777-261.861a2.145,2.145,0,0,1-2.145,2.145,2.145,2.145,0,0,1-2.145-2.145,2.145,2.145,0,0,1,2.145-2.146,2.145,2.145,0,0,1,2.145,2.146" transform="translate(-75.4 598.805)" fill="#7b8286"/>
      <path id="path348" d="M296.3-261.861a2.146,2.146,0,0,1-2.145,2.145,2.146,2.146,0,0,1-2.146-2.145,2.147,2.147,0,0,1,2.146-2.146,2.146,2.146,0,0,1,2.145,2.146" transform="translate(-74.972 598.805)" fill="#7b8286"/>
      <path id="path350" d="M303.824-261.861a2.145,2.145,0,0,1-2.145,2.145,2.146,2.146,0,0,1-2.145-2.145,2.146,2.146,0,0,1,2.145-2.146,2.145,2.145,0,0,1,2.145,2.146" transform="translate(-74.543 598.805)" fill="#7b8286"/>
      <path id="path352" d="M311.348-261.861a2.145,2.145,0,0,1-2.145,2.145,2.146,2.146,0,0,1-2.145-2.145,2.146,2.146,0,0,1,2.145-2.146,2.145,2.145,0,0,1,2.145,2.146" transform="translate(-74.115 598.805)" fill="#7b8286"/>
      <path id="path354" d="M318.872-261.861a2.146,2.146,0,0,1-2.145,2.145,2.145,2.145,0,0,1-2.145-2.145,2.145,2.145,0,0,1,2.145-2.146,2.146,2.146,0,0,1,2.145,2.146" transform="translate(-73.686 598.805)" fill="#7b8286"/>
      <path id="path356" d="M326.4-261.861a2.146,2.146,0,0,1-2.145,2.145,2.145,2.145,0,0,1-2.145-2.145,2.145,2.145,0,0,1,2.145-2.146,2.146,2.146,0,0,1,2.145,2.146" transform="translate(-73.258 598.805)" fill="#7b8286"/>
      <path id="path358" d="M333.92-261.861a2.146,2.146,0,0,1-2.146,2.145,2.146,2.146,0,0,1-2.145-2.145,2.146,2.146,0,0,1,2.145-2.146,2.147,2.147,0,0,1,2.146,2.146" transform="translate(-72.829 598.805)" fill="#7b8286"/>
      <path id="path360" d="M341.442-261.861a2.145,2.145,0,0,1-2.145,2.145,2.146,2.146,0,0,1-2.145-2.145,2.146,2.146,0,0,1,2.145-2.146,2.145,2.145,0,0,1,2.145,2.146" transform="translate(-72.401 598.805)" fill="#7b8286"/>
      <path id="path362" d="M251.159-255.492a2.143,2.143,0,0,1-2.145,2.143,2.143,2.143,0,0,1-2.145-2.143,2.145,2.145,0,0,1,2.145-2.146,2.145,2.145,0,0,1,2.145,2.146" transform="translate(-77.543 599.168)" fill="#7b8286"/>
      <path id="path364" d="M258.683-255.492a2.144,2.144,0,0,1-2.145,2.143,2.144,2.144,0,0,1-2.146-2.143,2.146,2.146,0,0,1,2.146-2.146,2.146,2.146,0,0,1,2.145,2.146" transform="translate(-77.114 599.168)" fill="#7b8286"/>
      <path id="path366" d="M266.207-255.492a2.144,2.144,0,0,1-2.146,2.143,2.144,2.144,0,0,1-2.145-2.143,2.146,2.146,0,0,1,2.145-2.146,2.147,2.147,0,0,1,2.146,2.146" transform="translate(-76.686 599.168)" fill="#7b8286"/>
      <path id="path368" d="M273.731-255.492a2.144,2.144,0,0,1-2.146,2.143,2.144,2.144,0,0,1-2.145-2.143,2.146,2.146,0,0,1,2.145-2.146,2.147,2.147,0,0,1,2.146,2.146" transform="translate(-76.257 599.168)" fill="#7b8286"/>
      <path id="path370" d="M281.253-255.492a2.143,2.143,0,0,1-2.145,2.143,2.143,2.143,0,0,1-2.145-2.143,2.145,2.145,0,0,1,2.145-2.146,2.145,2.145,0,0,1,2.145,2.146" transform="translate(-75.829 599.168)" fill="#7b8286"/>
      <path id="path372" d="M288.777-255.492a2.143,2.143,0,0,1-2.145,2.143,2.143,2.143,0,0,1-2.145-2.143,2.145,2.145,0,0,1,2.145-2.146,2.145,2.145,0,0,1,2.145,2.146" transform="translate(-75.4 599.168)" fill="#7b8286"/>
      <path id="path374" d="M296.3-255.492a2.144,2.144,0,0,1-2.145,2.143,2.144,2.144,0,0,1-2.146-2.143,2.147,2.147,0,0,1,2.146-2.146,2.146,2.146,0,0,1,2.145,2.146" transform="translate(-74.972 599.168)" fill="#7b8286"/>
      <path id="path376" d="M303.824-255.492a2.143,2.143,0,0,1-2.145,2.143,2.144,2.144,0,0,1-2.145-2.143,2.146,2.146,0,0,1,2.145-2.146,2.145,2.145,0,0,1,2.145,2.146" transform="translate(-74.543 599.168)" fill="#7b8286"/>
      <path id="path378" d="M311.348-255.492a2.143,2.143,0,0,1-2.145,2.143,2.144,2.144,0,0,1-2.145-2.143,2.146,2.146,0,0,1,2.145-2.146,2.145,2.145,0,0,1,2.145,2.146" transform="translate(-74.115 599.168)" fill="#7b8286"/>
      <path id="path380" d="M318.872-255.492a2.144,2.144,0,0,1-2.145,2.143,2.143,2.143,0,0,1-2.145-2.143,2.145,2.145,0,0,1,2.145-2.146,2.146,2.146,0,0,1,2.145,2.146" transform="translate(-73.686 599.168)" fill="#7b8286"/>
      <path id="path382" d="M326.4-255.492a2.144,2.144,0,0,1-2.145,2.143,2.143,2.143,0,0,1-2.145-2.143,2.145,2.145,0,0,1,2.145-2.146,2.146,2.146,0,0,1,2.145,2.146" transform="translate(-73.258 599.168)" fill="#7b8286"/>
      <path id="path384" d="M333.92-255.492a2.144,2.144,0,0,1-2.146,2.143,2.144,2.144,0,0,1-2.145-2.143,2.146,2.146,0,0,1,2.145-2.146,2.147,2.147,0,0,1,2.146,2.146" transform="translate(-72.829 599.168)" fill="#7b8286"/>
      <path id="path386" d="M341.442-255.492a2.143,2.143,0,0,1-2.145,2.143,2.144,2.144,0,0,1-2.145-2.143,2.146,2.146,0,0,1,2.145-2.146,2.145,2.145,0,0,1,2.145,2.146" transform="translate(-72.401 599.168)" fill="#7b8286"/>
      <path id="path388" d="M251.159-249.124a2.145,2.145,0,0,1-2.145,2.146,2.145,2.145,0,0,1-2.145-2.146,2.143,2.143,0,0,1,2.145-2.143,2.143,2.143,0,0,1,2.145,2.143" transform="translate(-77.543 599.531)" fill="#7b8286"/>
      <path id="path390" d="M258.683-249.124a2.146,2.146,0,0,1-2.145,2.146,2.147,2.147,0,0,1-2.146-2.146,2.144,2.144,0,0,1,2.146-2.143,2.144,2.144,0,0,1,2.145,2.143" transform="translate(-77.114 599.531)" fill="#7b8286"/>
      <path id="path392" d="M266.207-249.124a2.147,2.147,0,0,1-2.146,2.146,2.146,2.146,0,0,1-2.145-2.146,2.144,2.144,0,0,1,2.145-2.143,2.144,2.144,0,0,1,2.146,2.143" transform="translate(-76.686 599.531)" fill="#7b8286"/>
      <path id="path394" d="M273.731-249.124a2.147,2.147,0,0,1-2.146,2.146,2.146,2.146,0,0,1-2.145-2.146,2.144,2.144,0,0,1,2.145-2.143,2.144,2.144,0,0,1,2.146,2.143" transform="translate(-76.257 599.531)" fill="#7b8286"/>
      <path id="path396" d="M281.253-249.124a2.145,2.145,0,0,1-2.145,2.146,2.145,2.145,0,0,1-2.145-2.146,2.143,2.143,0,0,1,2.145-2.143,2.143,2.143,0,0,1,2.145,2.143" transform="translate(-75.829 599.531)" fill="#7b8286"/>
      <path id="path398" d="M288.777-249.124a2.145,2.145,0,0,1-2.145,2.146,2.145,2.145,0,0,1-2.145-2.146,2.143,2.143,0,0,1,2.145-2.143,2.143,2.143,0,0,1,2.145,2.143" transform="translate(-75.4 599.531)" fill="#7b8286"/>
      <path id="path400" d="M296.3-249.124a2.146,2.146,0,0,1-2.145,2.146,2.147,2.147,0,0,1-2.146-2.146,2.144,2.144,0,0,1,2.146-2.143,2.144,2.144,0,0,1,2.145,2.143" transform="translate(-74.972 599.531)" fill="#7b8286"/>
      <path id="path402" d="M303.824-249.124a2.145,2.145,0,0,1-2.145,2.146,2.146,2.146,0,0,1-2.145-2.146,2.144,2.144,0,0,1,2.145-2.143,2.143,2.143,0,0,1,2.145,2.143" transform="translate(-74.543 599.531)" fill="#7b8286"/>
      <path id="path404" d="M311.348-249.124a2.145,2.145,0,0,1-2.145,2.146,2.146,2.146,0,0,1-2.145-2.146,2.144,2.144,0,0,1,2.145-2.143,2.143,2.143,0,0,1,2.145,2.143" transform="translate(-74.115 599.531)" fill="#7b8286"/>
      <path id="path406" d="M318.872-249.124a2.146,2.146,0,0,1-2.145,2.146,2.145,2.145,0,0,1-2.145-2.146,2.143,2.143,0,0,1,2.145-2.143,2.144,2.144,0,0,1,2.145,2.143" transform="translate(-73.686 599.531)" fill="#7b8286"/>
      <path id="path408" d="M326.4-249.124a2.146,2.146,0,0,1-2.145,2.146,2.145,2.145,0,0,1-2.145-2.146,2.143,2.143,0,0,1,2.145-2.143,2.144,2.144,0,0,1,2.145,2.143" transform="translate(-73.258 599.531)" fill="#7b8286"/>
      <path id="path410" d="M333.92-249.124a2.147,2.147,0,0,1-2.146,2.146,2.146,2.146,0,0,1-2.145-2.146,2.144,2.144,0,0,1,2.145-2.143,2.144,2.144,0,0,1,2.146,2.143" transform="translate(-72.829 599.531)" fill="#7b8286"/>
      <path id="path412" d="M341.442-249.124a2.145,2.145,0,0,1-2.145,2.146,2.146,2.146,0,0,1-2.145-2.146,2.144,2.144,0,0,1,2.145-2.143,2.143,2.143,0,0,1,2.145,2.143" transform="translate(-72.401 599.531)" fill="#7b8286"/>
      <path id="path414" d="M451.406-166.886H227.333v-57.78H451.406v57.78" transform="translate(-78.655 601.046)" fill="#7b8286"/>
      <path id="path416" d="M349.21-182.383H244.265v-28.371H349.21v28.371" transform="translate(-77.691 601.838)" fill="#a9a6c4"/>
      <path id="path418" d="M368.493-209.087a3.36,3.36,0,0,1-3.358,3.36,3.36,3.36,0,0,1-3.36-3.36,3.358,3.358,0,0,1,3.36-3.358,3.358,3.358,0,0,1,3.358,3.358" transform="translate(-70.999 601.742)" fill="#45444d"/>
      <path id="path420" d="M368.493-197.152a3.358,3.358,0,0,1-3.358,3.358,3.359,3.359,0,0,1-3.36-3.358,3.359,3.359,0,0,1,3.36-3.358,3.358,3.358,0,0,1,3.358,3.358" transform="translate(-70.999 602.421)" fill="#45444d"/>
      <path id="path422" d="M368.493-185.217a3.358,3.358,0,0,1-3.358,3.358,3.358,3.358,0,0,1-3.36-3.358,3.36,3.36,0,0,1,3.36-3.36,3.36,3.36,0,0,1,3.358,3.36" transform="translate(-70.999 603.101)" fill="#f24e70"/>
      <path id="path424" d="M383.484-182.383h-2.819v-28.371h2.819v28.371" transform="translate(-69.923 601.838)" fill="#a9a6c4"/>
      <path id="path426" d="M391.484-182.383h-2.818v-28.371h2.818v28.371" transform="translate(-69.467 601.838)" fill="#a9a6c4"/>
      <path id="path428" d="M399.484-182.383h-2.819v-28.371h2.819v28.371" transform="translate(-69.011 601.838)" fill="#a9a6c4"/>
      <path id="path430" d="M407.484-182.383h-2.819v-28.371h2.819v28.371" transform="translate(-68.556 601.838)" fill="#a9a6c4"/>
      <path id="path432" d="M415.484-182.383h-2.819v-28.371h2.819v28.371" transform="translate(-68.1 601.838)" fill="#a9a6c4"/>
      <path id="path434" d="M423.484-182.383h-2.819v-28.371h2.819v28.371" transform="translate(-67.645 601.838)" fill="#a9a6c4"/>
      <path id="path436" d="M431.484-182.383h-2.819v-28.371h2.819v28.371" transform="translate(-67.189 601.838)" fill="#a9a6c4"/>
      <path id="path438" d="M251.159-206.9a2.145,2.145,0,0,1-2.145,2.145,2.145,2.145,0,0,1-2.145-2.145,2.144,2.144,0,0,1,2.145-2.145,2.144,2.144,0,0,1,2.145,2.145" transform="translate(-77.543 601.935)" fill="#7b8286"/>
      <path id="path440" d="M258.683-206.9a2.146,2.146,0,0,1-2.145,2.145,2.146,2.146,0,0,1-2.146-2.145,2.145,2.145,0,0,1,2.146-2.145,2.145,2.145,0,0,1,2.145,2.145" transform="translate(-77.114 601.935)" fill="#7b8286"/>
      <path id="path442" d="M266.207-206.9a2.146,2.146,0,0,1-2.146,2.145,2.146,2.146,0,0,1-2.145-2.145,2.145,2.145,0,0,1,2.145-2.145,2.145,2.145,0,0,1,2.146,2.145" transform="translate(-76.686 601.935)" fill="#7b8286"/>
      <path id="path444" d="M273.731-206.9a2.146,2.146,0,0,1-2.146,2.145,2.146,2.146,0,0,1-2.145-2.145,2.145,2.145,0,0,1,2.145-2.145,2.145,2.145,0,0,1,2.146,2.145" transform="translate(-76.257 601.935)" fill="#7b8286"/>
      <path id="path446" d="M281.253-206.9a2.145,2.145,0,0,1-2.145,2.145,2.145,2.145,0,0,1-2.145-2.145,2.144,2.144,0,0,1,2.145-2.145,2.144,2.144,0,0,1,2.145,2.145" transform="translate(-75.829 601.935)" fill="#7b8286"/>
      <path id="path448" d="M288.777-206.9a2.145,2.145,0,0,1-2.145,2.145,2.145,2.145,0,0,1-2.145-2.145,2.144,2.144,0,0,1,2.145-2.145,2.144,2.144,0,0,1,2.145,2.145" transform="translate(-75.4 601.935)" fill="#7b8286"/>
      <path id="path450" d="M296.3-206.9a2.146,2.146,0,0,1-2.145,2.145,2.146,2.146,0,0,1-2.146-2.145,2.145,2.145,0,0,1,2.146-2.145A2.145,2.145,0,0,1,296.3-206.9" transform="translate(-74.972 601.935)" fill="#7b8286"/>
      <path id="path452" d="M303.824-206.9a2.145,2.145,0,0,1-2.145,2.145,2.146,2.146,0,0,1-2.145-2.145,2.145,2.145,0,0,1,2.145-2.145,2.144,2.144,0,0,1,2.145,2.145" transform="translate(-74.543 601.935)" fill="#7b8286"/>
      <path id="path454" d="M311.348-206.9a2.145,2.145,0,0,1-2.145,2.145,2.146,2.146,0,0,1-2.145-2.145,2.145,2.145,0,0,1,2.145-2.145,2.144,2.144,0,0,1,2.145,2.145" transform="translate(-74.115 601.935)" fill="#7b8286"/>
      <path id="path456" d="M318.872-206.9a2.146,2.146,0,0,1-2.145,2.145,2.145,2.145,0,0,1-2.145-2.145,2.144,2.144,0,0,1,2.145-2.145,2.145,2.145,0,0,1,2.145,2.145" transform="translate(-73.686 601.935)" fill="#7b8286"/>
      <path id="path458" d="M326.4-206.9a2.146,2.146,0,0,1-2.145,2.145,2.145,2.145,0,0,1-2.145-2.145,2.144,2.144,0,0,1,2.145-2.145A2.145,2.145,0,0,1,326.4-206.9" transform="translate(-73.258 601.935)" fill="#7b8286"/>
      <path id="path460" d="M333.92-206.9a2.146,2.146,0,0,1-2.146,2.145,2.146,2.146,0,0,1-2.145-2.145,2.145,2.145,0,0,1,2.145-2.145,2.145,2.145,0,0,1,2.146,2.145" transform="translate(-72.829 601.935)" fill="#7b8286"/>
      <path id="path462" d="M341.442-206.9a2.145,2.145,0,0,1-2.145,2.145,2.146,2.146,0,0,1-2.145-2.145,2.145,2.145,0,0,1,2.145-2.145,2.144,2.144,0,0,1,2.145,2.145" transform="translate(-72.401 601.935)" fill="#7b8286"/>
      <path id="path464" d="M251.159-200.528a2.145,2.145,0,0,1-2.145,2.145,2.145,2.145,0,0,1-2.145-2.145,2.145,2.145,0,0,1,2.145-2.146,2.145,2.145,0,0,1,2.145,2.146" transform="translate(-77.543 602.298)" fill="#7b8286"/>
      <path id="path466" d="M258.683-200.528a2.146,2.146,0,0,1-2.145,2.145,2.146,2.146,0,0,1-2.146-2.145,2.146,2.146,0,0,1,2.146-2.146,2.146,2.146,0,0,1,2.145,2.146" transform="translate(-77.114 602.298)" fill="#7b8286"/>
      <path id="path468" d="M266.207-200.528a2.146,2.146,0,0,1-2.146,2.145,2.146,2.146,0,0,1-2.145-2.145,2.146,2.146,0,0,1,2.145-2.146,2.147,2.147,0,0,1,2.146,2.146" transform="translate(-76.686 602.298)" fill="#7b8286"/>
      <path id="path470" d="M273.731-200.528a2.146,2.146,0,0,1-2.146,2.145,2.146,2.146,0,0,1-2.145-2.145,2.146,2.146,0,0,1,2.145-2.146,2.147,2.147,0,0,1,2.146,2.146" transform="translate(-76.257 602.298)" fill="#7b8286"/>
      <path id="path472" d="M281.253-200.528a2.145,2.145,0,0,1-2.145,2.145,2.145,2.145,0,0,1-2.145-2.145,2.145,2.145,0,0,1,2.145-2.146,2.145,2.145,0,0,1,2.145,2.146" transform="translate(-75.829 602.298)" fill="#7b8286"/>
      <path id="path474" d="M288.777-200.528a2.145,2.145,0,0,1-2.145,2.145,2.145,2.145,0,0,1-2.145-2.145,2.145,2.145,0,0,1,2.145-2.146,2.145,2.145,0,0,1,2.145,2.146" transform="translate(-75.4 602.298)" fill="#7b8286"/>
      <path id="path476" d="M296.3-200.528a2.146,2.146,0,0,1-2.145,2.145,2.146,2.146,0,0,1-2.146-2.145,2.147,2.147,0,0,1,2.146-2.146,2.146,2.146,0,0,1,2.145,2.146" transform="translate(-74.972 602.298)" fill="#7b8286"/>
      <path id="path478" d="M303.824-200.528a2.145,2.145,0,0,1-2.145,2.145,2.146,2.146,0,0,1-2.145-2.145,2.146,2.146,0,0,1,2.145-2.146,2.145,2.145,0,0,1,2.145,2.146" transform="translate(-74.543 602.298)" fill="#7b8286"/>
      <path id="path480" d="M311.348-200.528a2.145,2.145,0,0,1-2.145,2.145,2.146,2.146,0,0,1-2.145-2.145,2.146,2.146,0,0,1,2.145-2.146,2.145,2.145,0,0,1,2.145,2.146" transform="translate(-74.115 602.298)" fill="#7b8286"/>
      <path id="path482" d="M318.872-200.528a2.146,2.146,0,0,1-2.145,2.145,2.145,2.145,0,0,1-2.145-2.145,2.145,2.145,0,0,1,2.145-2.146,2.146,2.146,0,0,1,2.145,2.146" transform="translate(-73.686 602.298)" fill="#7b8286"/>
      <path id="path484" d="M326.4-200.528a2.146,2.146,0,0,1-2.145,2.145,2.145,2.145,0,0,1-2.145-2.145,2.145,2.145,0,0,1,2.145-2.146,2.146,2.146,0,0,1,2.145,2.146" transform="translate(-73.258 602.298)" fill="#7b8286"/>
      <path id="path486" d="M333.92-200.528a2.146,2.146,0,0,1-2.146,2.145,2.146,2.146,0,0,1-2.145-2.145,2.146,2.146,0,0,1,2.145-2.146,2.147,2.147,0,0,1,2.146,2.146" transform="translate(-72.829 602.298)" fill="#7b8286"/>
      <path id="path488" d="M341.442-200.528a2.145,2.145,0,0,1-2.145,2.145,2.146,2.146,0,0,1-2.145-2.145,2.146,2.146,0,0,1,2.145-2.146,2.145,2.145,0,0,1,2.145,2.146" transform="translate(-72.401 602.298)" fill="#7b8286"/>
      <path id="path490" d="M251.159-194.159a2.143,2.143,0,0,1-2.145,2.143,2.143,2.143,0,0,1-2.145-2.143,2.145,2.145,0,0,1,2.145-2.146,2.145,2.145,0,0,1,2.145,2.146" transform="translate(-77.543 602.661)" fill="#7b8286"/>
      <path id="path492" d="M258.683-194.159a2.144,2.144,0,0,1-2.145,2.143,2.144,2.144,0,0,1-2.146-2.143,2.147,2.147,0,0,1,2.146-2.146,2.146,2.146,0,0,1,2.145,2.146" transform="translate(-77.114 602.661)" fill="#7b8286"/>
      <path id="path494" d="M266.207-194.159a2.144,2.144,0,0,1-2.146,2.143,2.144,2.144,0,0,1-2.145-2.143,2.146,2.146,0,0,1,2.145-2.146,2.147,2.147,0,0,1,2.146,2.146" transform="translate(-76.686 602.661)" fill="#7b8286"/>
      <path id="path496" d="M273.731-194.159a2.144,2.144,0,0,1-2.146,2.143,2.144,2.144,0,0,1-2.145-2.143,2.146,2.146,0,0,1,2.145-2.146,2.147,2.147,0,0,1,2.146,2.146" transform="translate(-76.257 602.661)" fill="#7b8286"/>
      <path id="path498" d="M281.253-194.159a2.143,2.143,0,0,1-2.145,2.143,2.143,2.143,0,0,1-2.145-2.143,2.145,2.145,0,0,1,2.145-2.146,2.145,2.145,0,0,1,2.145,2.146" transform="translate(-75.829 602.661)" fill="#7b8286"/>
      <path id="path500" d="M288.777-194.159a2.143,2.143,0,0,1-2.145,2.143,2.143,2.143,0,0,1-2.145-2.143,2.145,2.145,0,0,1,2.145-2.146,2.145,2.145,0,0,1,2.145,2.146" transform="translate(-75.4 602.661)" fill="#7b8286"/>
      <path id="path502" d="M296.3-194.159a2.144,2.144,0,0,1-2.145,2.143,2.144,2.144,0,0,1-2.146-2.143,2.147,2.147,0,0,1,2.146-2.146,2.146,2.146,0,0,1,2.145,2.146" transform="translate(-74.972 602.661)" fill="#7b8286"/>
      <path id="path504" d="M303.824-194.159a2.143,2.143,0,0,1-2.145,2.143,2.144,2.144,0,0,1-2.145-2.143,2.146,2.146,0,0,1,2.145-2.146,2.145,2.145,0,0,1,2.145,2.146" transform="translate(-74.543 602.661)" fill="#7b8286"/>
      <path id="path506" d="M311.348-194.159a2.143,2.143,0,0,1-2.145,2.143,2.144,2.144,0,0,1-2.145-2.143A2.146,2.146,0,0,1,309.2-196.3a2.145,2.145,0,0,1,2.145,2.146" transform="translate(-74.115 602.661)" fill="#7b8286"/>
      <path id="path508" d="M318.872-194.159a2.144,2.144,0,0,1-2.145,2.143,2.143,2.143,0,0,1-2.145-2.143,2.145,2.145,0,0,1,2.145-2.146,2.146,2.146,0,0,1,2.145,2.146" transform="translate(-73.686 602.661)" fill="#7b8286"/>
      <path id="path510" d="M326.4-194.159a2.144,2.144,0,0,1-2.145,2.143,2.143,2.143,0,0,1-2.145-2.143,2.145,2.145,0,0,1,2.145-2.146,2.146,2.146,0,0,1,2.145,2.146" transform="translate(-73.258 602.661)" fill="#7b8286"/>
      <path id="path512" d="M333.92-194.159a2.144,2.144,0,0,1-2.146,2.143,2.144,2.144,0,0,1-2.145-2.143,2.146,2.146,0,0,1,2.145-2.146,2.147,2.147,0,0,1,2.146,2.146" transform="translate(-72.829 602.661)" fill="#7b8286"/>
      <path id="path514" d="M341.442-194.159a2.143,2.143,0,0,1-2.145,2.143,2.144,2.144,0,0,1-2.145-2.143A2.146,2.146,0,0,1,339.3-196.3a2.145,2.145,0,0,1,2.145,2.146" transform="translate(-72.401 602.661)" fill="#7b8286"/>
      <path id="path516" d="M251.159-187.791a2.145,2.145,0,0,1-2.145,2.146,2.145,2.145,0,0,1-2.145-2.146,2.143,2.143,0,0,1,2.145-2.143,2.143,2.143,0,0,1,2.145,2.143" transform="translate(-77.543 603.024)" fill="#7b8286"/>
      <path id="path518" d="M258.683-187.791a2.146,2.146,0,0,1-2.145,2.146,2.147,2.147,0,0,1-2.146-2.146,2.144,2.144,0,0,1,2.146-2.143,2.144,2.144,0,0,1,2.145,2.143" transform="translate(-77.114 603.024)" fill="#7b8286"/>
      <path id="path520" d="M266.207-187.791a2.147,2.147,0,0,1-2.146,2.146,2.146,2.146,0,0,1-2.145-2.146,2.144,2.144,0,0,1,2.145-2.143,2.144,2.144,0,0,1,2.146,2.143" transform="translate(-76.686 603.024)" fill="#7b8286"/>
      <path id="path522" d="M273.731-187.791a2.147,2.147,0,0,1-2.146,2.146,2.146,2.146,0,0,1-2.145-2.146,2.144,2.144,0,0,1,2.145-2.143,2.144,2.144,0,0,1,2.146,2.143" transform="translate(-76.257 603.024)" fill="#7b8286"/>
      <path id="path524" d="M281.253-187.791a2.145,2.145,0,0,1-2.145,2.146,2.145,2.145,0,0,1-2.145-2.146,2.143,2.143,0,0,1,2.145-2.143,2.143,2.143,0,0,1,2.145,2.143" transform="translate(-75.829 603.024)" fill="#7b8286"/>
      <path id="path526" d="M288.777-187.791a2.145,2.145,0,0,1-2.145,2.146,2.145,2.145,0,0,1-2.145-2.146,2.143,2.143,0,0,1,2.145-2.143,2.143,2.143,0,0,1,2.145,2.143" transform="translate(-75.4 603.024)" fill="#7b8286"/>
      <path id="path528" d="M296.3-187.791a2.146,2.146,0,0,1-2.145,2.146,2.147,2.147,0,0,1-2.146-2.146,2.144,2.144,0,0,1,2.146-2.143,2.144,2.144,0,0,1,2.145,2.143" transform="translate(-74.972 603.024)" fill="#7b8286"/>
      <path id="path530" d="M303.824-187.791a2.145,2.145,0,0,1-2.145,2.146,2.146,2.146,0,0,1-2.145-2.146,2.144,2.144,0,0,1,2.145-2.143,2.143,2.143,0,0,1,2.145,2.143" transform="translate(-74.543 603.024)" fill="#7b8286"/>
      <path id="path532" d="M311.348-187.791a2.145,2.145,0,0,1-2.145,2.146,2.146,2.146,0,0,1-2.145-2.146,2.144,2.144,0,0,1,2.145-2.143,2.143,2.143,0,0,1,2.145,2.143" transform="translate(-74.115 603.024)" fill="#7b8286"/>
      <path id="path534" d="M318.872-187.791a2.146,2.146,0,0,1-2.145,2.146,2.145,2.145,0,0,1-2.145-2.146,2.143,2.143,0,0,1,2.145-2.143,2.144,2.144,0,0,1,2.145,2.143" transform="translate(-73.686 603.024)" fill="#7b8286"/>
      <path id="path536" d="M326.4-187.791a2.146,2.146,0,0,1-2.145,2.146,2.145,2.145,0,0,1-2.145-2.146,2.143,2.143,0,0,1,2.145-2.143,2.144,2.144,0,0,1,2.145,2.143" transform="translate(-73.258 603.024)" fill="#7b8286"/>
      <path id="path538" d="M333.92-187.791a2.147,2.147,0,0,1-2.146,2.146,2.146,2.146,0,0,1-2.145-2.146,2.144,2.144,0,0,1,2.145-2.143,2.144,2.144,0,0,1,2.146,2.143" transform="translate(-72.829 603.024)" fill="#7b8286"/>
      <path id="path540" d="M341.442-187.791a2.145,2.145,0,0,1-2.145,2.146,2.146,2.146,0,0,1-2.145-2.146,2.144,2.144,0,0,1,2.145-2.143,2.143,2.143,0,0,1,2.145,2.143" transform="translate(-72.401 603.024)" fill="#7b8286"/>
      <path id="path542" d="M597.929-481.357H441.5v-99.408H597.929v99.408" transform="translate(-66.458 580.765)" fill="#45444d"/>
      <path id="path544" d="M611.542-476.5H429.278v-8.108H611.542v8.108" transform="translate(-67.154 586.242)" fill="#45444d"/>
      <path id="path546" d="M591.492-492.481H447.278v-81.7H591.492v81.7" transform="translate(-66.129 581.141)" fill="#7b8286"/>
      <path id="path548" d="M550.774-483.408h-66.94V-488.2h66.94v4.794" transform="translate(-64.047 586.037)" fill="#45444d"/>
      <path id="path550" d="M519.039-490.563a3.36,3.36,0,0,1-3.358,3.36,3.361,3.361,0,0,1-3.36-3.36,3.36,3.36,0,0,1,3.36-3.358,3.358,3.358,0,0,1,3.358,3.358" transform="translate(-62.425 585.711)" fill="#31baad"/>
      <path id="path552" d="M591.492-574.177l-144.214,81.7H591.492Z" transform="translate(-66.129 581.141)" fill="#a9a6c4"/>
      <path id="path554" d="M167.43-230.624H112v-99.284H167.43v99.284" transform="translate(-85.224 595.052)" fill="#45444d"/>
      <path id="path556" d="M162.16-249.048H118.942v-74.181H162.16v74.181" transform="translate(-84.828 595.432)" fill="#a9a6c4"/>
      <path id="path558" d="M141.762-242.264a3.36,3.36,0,0,1-3.358,3.36,3.361,3.361,0,0,1-3.36-3.36,3.36,3.36,0,0,1,3.36-3.358,3.358,3.358,0,0,1,3.358,3.358" transform="translate(-83.911 599.852)" fill="#31baad"/>
      <path id="path560" d="M160.995-323.228l-43.217,74.181v-74.181h43.217" transform="translate(-84.895 595.432)" fill="#7b8286"/>
    </g>
  </g>
</svg>
