<svg xmlns="http://www.w3.org/2000/svg" width="61.915" height="51.897" viewBox="0 0 61.915 51.897">
  <g id="_001-twitter-logo-silhouette" data-name="001-twitter-logo-silhouette" transform="translate(6.193) rotate(8)">
    <g id="Group_1280" data-name="Group 1280" transform="translate(0 0)">
      <path id="Path_1202" data-name="Path 1202" d="M56.269,5.265a23.542,23.542,0,0,1-6.628,1.77A11.344,11.344,0,0,0,54.715.822,23.657,23.657,0,0,1,47.38,3.55,11.658,11.658,0,0,0,38.955,0,11.394,11.394,0,0,0,27.412,11.235a10.985,10.985,0,0,0,.3,2.561A33.074,33.074,0,0,1,3.92,2.054,10.928,10.928,0,0,0,2.359,7.7a11.158,11.158,0,0,0,5.134,9.352,11.783,11.783,0,0,1-5.229-1.41v.14A11.33,11.33,0,0,0,11.522,26.8a11.991,11.991,0,0,1-3.041.394,11.372,11.372,0,0,1-2.173-.209,11.515,11.515,0,0,0,10.781,7.805A23.562,23.562,0,0,1,2.753,39.6,25.191,25.191,0,0,1,0,39.443,33.274,33.274,0,0,0,17.693,44.5,32.163,32.163,0,0,0,50.534,12.526L50.5,11.071A22.727,22.727,0,0,0,56.269,5.265Z" transform="translate(0)" fill="#4eb848"/>
    </g>
  </g>
</svg>
