<svg xmlns="http://www.w3.org/2000/svg" width="361" height="339" viewBox="0 0 361 339">
  <g id="Group_2603" data-name="Group 2603" transform="translate(-50.661 -247)">
    <g id="Rectangle_2244" data-name="Rectangle 2244" transform="translate(50.661 247)" fill="rgba(242,246,255,0.68)" stroke="rgba(52,131,226,0.61)" stroke-width="1" stroke-dasharray="6" opacity="0">
      <rect width="361" height="339" rx="20" stroke="none"/>
      <rect x="0.5" y="0.5" width="360" height="338" rx="19.5" fill="none"/>
    </g>
    <g id="Group_2602" data-name="Group 2602" transform="translate(86.623 274.736)" opacity="0.481">
      <g id="BACKGROUND" transform="translate(0 0)">
        <g id="Group_9" data-name="Group 9" transform="translate(3.43 10.536)">
          <g id="Group_8" data-name="Group 8" transform="translate(0 0)">
            <g id="Group_3" data-name="Group 3" transform="translate(0 6.407)" opacity="0.41">
              <g id="Group_2" data-name="Group 2">
                <g id="Group_1" data-name="Group 1">
                  <path id="Path_1" data-name="Path 1" d="M28.523,207.614a86.469,86.469,0,0,1-.341-14.438,94.239,94.239,0,0,1,27.467-60.211c5.661-5.647,12.167-10.782,15.673-18.026,5.9-12.2,4.73-25.8,12.208-37.929a68.744,68.744,0,0,1,31.824-27.306c38.855-16.09,95.373,3.758,92.82,52.679-.009.176-.016.43-.021.753a17.53,17.53,0,0,0,17.937,17.943c36.539-1.052,69.39,26.01,77.932,62.044,5.493,23.173-.3,49.2-16.242,66.643-11.9,13.021-28.351,20.7-44.919,26.257-33.219,11.14-68.57,14.979-103.483,13.245-32.68-1.624-67.453-9.349-89.757-33.773C37.723,242.467,30.423,225.337,28.523,207.614Z" transform="translate(-28.026 -44.223)" fill="#e1e2fe"/>
                </g>
              </g>
            </g>
            <g id="Group_4" data-name="Group 4" transform="translate(167.284)" opacity="0.31">
              <ellipse id="Ellipse_1" data-name="Ellipse 1" cx="8.395" cy="8.222" rx="8.395" ry="8.222" transform="matrix(0.021, -1, 1, 0.021, 0, 16.787)" fill="#e1e2fe"/>
            </g>
            <g id="Group_5" data-name="Group 5" transform="translate(36.366 4.235)" opacity="0.31">
              <path id="Path_2" data-name="Path 2" d="M85.615,45.341a4.244,4.244,0,1,0,4.02-4.55A4.272,4.272,0,0,0,85.615,45.341Z" transform="translate(-85.609 -40.785)" fill="#e1e2fe"/>
            </g>
            <g id="Group_6" data-name="Group 6" transform="translate(280.44 103.658)" opacity="0.31">
              <path id="Path_3" data-name="Path 3" d="M472.09,201.23a2.809,2.809,0,1,0,2.661-3.012A2.828,2.828,0,0,0,472.09,201.23Z" transform="translate(-472.086 -198.215)" fill="#e1e2fe"/>
            </g>
            <g id="Group_7" data-name="Group 7" transform="translate(241.191 237.456)" opacity="0.31">
              <ellipse id="Ellipse_2" data-name="Ellipse 2" cx="13.217" cy="12.944" rx="13.217" ry="12.944" transform="translate(0 26.427) rotate(-88.801)" fill="#e1e2fe"/>
            </g>
          </g>
        </g>
        <g id="Group_13" data-name="Group 13">
          <g id="Group_10" data-name="Group 10">
            <path id="Path_4" data-name="Path 4" d="M24.569,84.349A15.118,15.118,0,0,1,29.889,63.93c6.99-4.143,20.8-4.6,24.85,2.536S48.058,80.475,43.894,87.549C38.088,97.414,28.62,91.482,24.569,84.349Z" transform="translate(-22.594 -33.437)" fill="#ecf1f7" opacity="0.47"/>
            <path id="Path_5" data-name="Path 5" d="M82.236,438.579A11.057,11.057,0,0,1,66.591,436c-3.618-5.125-4.994-15.839.029-19.537s10.962,4.131,16.556,6.831C90.978,427.058,87.259,434.88,82.236,438.579Z" transform="translate(-37.609 -164.077)" fill="#e1e2fe" opacity="0.47"/>
            <path id="Path_6" data-name="Path 6" d="M405.559,21.775a13.93,13.93,0,0,1,19.988-.3c5.6,5.551,9.611,18.544,4.169,24.264s-14.5-2.67-22.032-4.767C397.182,38.042,400.117,27.494,405.559,21.775Z" transform="translate(-161.89 -17.395)" fill="#e1e2fe" opacity="0.47"/>
          </g>
          <g id="Group_12" data-name="Group 12" transform="translate(10.576 21.299)">
            <path id="Path_7" data-name="Path 7" d="M42.926,119a61.612,61.612,0,0,0-2.3,33.087c3.2,14.71,14.215,27.641,12.338,43.329-1.127,9.414-.926,18.044-1.154,27.293-.466,18.993,12.805,34.716,28.372,42.586,12.644,6.392,27.021,8.078,40.9,6.856,12.49-1.1,24.79-4.378,36.663-8.442,11.442-3.917,22.548-8.785,34.885-8.42,10.261.3,19.774,4.116,29.512,6.764,23.247,6.322,50.75,5.424,70.509-8.278,21.659-15.019,30.407-43.519,22.838-68.424-4.06-13.359-9.48-24.937-7.519-39.17.964-7,2.4-14.127,1.075-21.069-1.222-6.389-4.725-12.138-8.879-17.142-11.2-13.5-27.145-22.1-43.722-27.164-18.8-5.744-39.681-8.876-59.234-5.9-37.983,5.777-46.249.159-85.955-5.479-26.6-3.776-51.566,17.372-63.687,39.19A65.869,65.869,0,0,0,42.926,119Z" transform="translate(-39.34 -57.702)" fill="#e1e2fe" opacity="0.32"/>
            <g id="Group_11" data-name="Group 11" transform="translate(16.321)" opacity="0.83">
              <path id="Path_8" data-name="Path 8" d="M70.832,142.98C76.3,135.762,84.76,130.859,88.9,122.564c4.961-9.93,3.916-21.65,8.346-31.8A68.986,68.986,0,0,1,130.5,56.052c7.156-3.37,15.009-5.42,22.67-4.832,11.81.906,22,7.936,29.963,16.332,11.856,12.5,20.239,30.242,34.467,40.254,7.852,5.525,17.079-.337,25.4-2.2a57.555,57.555,0,0,1,28.171.95,59.921,59.921,0,0,1,37.935,32.2c7.611,16.692,6.529,39.769-7.757,54.12-6.609,6.639-15.571,11.077-20.476,19.029-6.155,9.98-6.877,23.47-8.6,34.567a73.338,73.338,0,0,1-15.007,34.1l-.269.337a48.348,48.348,0,0,1-56.7,14.211l-41.869-18.139c-42.482-18.4-74.734-48.062-90.217-91.045-3.351-9.3-4.568-29.13-.3-38.21A26.639,26.639,0,0,1,70.832,142.98Z" transform="translate(-65.183 -51.12)" fill="#e1e2fe" opacity="0.81"/>
            </g>
          </g>
        </g>
        <circle id="Ellipse_3" data-name="Ellipse 3" cx="2.842" cy="2.842" r="2.842" transform="translate(225.441 259.546)" fill="#3e479b" opacity="0.58"/>
        <circle id="Ellipse_4" data-name="Ellipse 4" cx="1.421" cy="1.421" r="1.421" transform="translate(154.942 11.346)" fill="#3e479b" opacity="0.58"/>
        <circle id="Ellipse_5" data-name="Ellipse 5" cx="2.842" cy="2.842" r="2.842" transform="translate(65.82 266.37)" fill="#3e479b" opacity="0.58"/>
        <circle id="Ellipse_6" data-name="Ellipse 6" cx="2.21" cy="2.21" r="2.21" transform="translate(237.648 279.817)" fill="#ef929c" opacity="0.58"/>
        <circle id="Ellipse_7" data-name="Ellipse 7" cx="0.947" cy="0.947" r="0.947" transform="translate(21.45 13.824)" fill="#3e479b" opacity="0.58"/>
        <circle id="Ellipse_8" data-name="Ellipse 8" cx="3.413" cy="3.413" r="3.413" transform="translate(274.314 41.487) rotate(-63.039)" fill="#ef929c" opacity="0.58"/>
        <path id="Path_9" data-name="Path 9" d="M73.6,25.86a1.338,1.338,0,1,1-1.029-1.588A1.339,1.339,0,0,1,73.6,25.86Z" transform="translate(-40.413 -19.918)" fill="#ef929c" opacity="0.58"/>
        <path id="Path_10" data-name="Path 10" d="M288.228,19.013a1.338,1.338,0,1,1-1.029-1.588A1.339,1.339,0,0,1,288.228,19.013Z" transform="translate(-119.495 -17.395)" fill="#ef929c" opacity="0.58"/>
        <path id="Path_11" data-name="Path 11" d="M437.331,85.7a1.138,1.138,0,1,1-.875-1.35A1.138,1.138,0,0,1,437.331,85.7Z" transform="translate(-174.58 -42.056)" fill="#3e479b" opacity="0.58"/>
        <path id="Path_12" data-name="Path 12" d="M39.788,396.106a1.138,1.138,0,1,1-.875-1.35A1.136,1.136,0,0,1,39.788,396.106Z" transform="translate(-28.1 -156.429)" fill="#3e479b" opacity="0.58"/>
      </g>
      <g id="OBJECTS" transform="translate(27.132 16.619)">
        <g id="Group_28" data-name="Group 28" transform="translate(9.365 37.855)">
          <g id="Group_18" data-name="Group 18" transform="translate(48.297)" opacity="0.66">
            <g id="Group_17" data-name="Group 17">
              <g id="Group_14" data-name="Group 14" transform="translate(99.779)">
                <path id="Path_13" data-name="Path 13" d="M350.39,169.793h-4.93a3.757,3.757,0,0,1-3.753-3.753v-5.546a2.5,2.5,0,0,0-1.636-2.338c-.582-.213-1.162-.454-1.723-.714a2.523,2.523,0,0,0-2.836.486l-3.921,3.922a3.754,3.754,0,0,1-5.308,0l-3.486-3.485a3.758,3.758,0,0,1,0-5.308l3.922-3.922a2.522,2.522,0,0,0,.485-2.835c-.261-.566-.5-1.146-.714-1.724a2.5,2.5,0,0,0-2.339-1.636h-5.545a3.758,3.758,0,0,1-3.754-3.753v-4.93a3.758,3.758,0,0,1,3.754-3.753h5.545a2.5,2.5,0,0,0,2.339-1.636c.212-.579.453-1.159.714-1.723a2.523,2.523,0,0,0-.485-2.836l-3.922-3.922a3.757,3.757,0,0,1,0-5.307l3.486-3.486a3.757,3.757,0,0,1,5.308,0l3.921,3.922a2.522,2.522,0,0,0,2.836.486c.566-.262,1.146-.5,1.724-.714a2.5,2.5,0,0,0,1.636-2.339V107.4a3.757,3.757,0,0,1,3.753-3.753h4.93a3.758,3.758,0,0,1,3.753,3.753v5.545a2.5,2.5,0,0,0,1.636,2.339c.577.212,1.158.452,1.723.714a2.521,2.521,0,0,0,2.836-.485l3.921-3.922a3.757,3.757,0,0,1,5.308,0l3.486,3.486a3.758,3.758,0,0,1,0,5.307l-3.922,3.922a2.52,2.52,0,0,0-.486,2.835c.261.565.5,1.145.714,1.724A2.5,2.5,0,0,0,371.7,130.5h5.545A3.758,3.758,0,0,1,381,134.257v4.93a3.758,3.758,0,0,1-3.754,3.753H371.7a2.5,2.5,0,0,0-2.339,1.636c-.212.578-.452,1.158-.713,1.723a2.52,2.52,0,0,0,.485,2.836l3.922,3.922a3.759,3.759,0,0,1,0,5.308l-3.486,3.485a3.755,3.755,0,0,1-5.308,0l-3.921-3.922a2.523,2.523,0,0,0-2.836-.486c-.561.26-1.141.5-1.723.714a2.5,2.5,0,0,0-1.636,2.338v5.546A3.757,3.757,0,0,1,350.39,169.793Zm-13.113-13.85a3.8,3.8,0,0,1,1.6.353c.53.245,1.078.472,1.629.674a3.769,3.769,0,0,1,2.464,3.524v5.546a2.493,2.493,0,0,0,2.489,2.49h4.93a2.493,2.493,0,0,0,2.49-2.49v-5.546a3.769,3.769,0,0,1,2.464-3.524c.55-.2,1.1-.429,1.628-.674a3.789,3.789,0,0,1,4.26.738l3.921,3.922a2.494,2.494,0,0,0,3.522,0l3.486-3.485a2.494,2.494,0,0,0,0-3.522l-3.922-3.922a3.786,3.786,0,0,1-.738-4.26c.246-.534.474-1.082.674-1.627a3.769,3.769,0,0,1,3.524-2.464h5.545a2.493,2.493,0,0,0,2.491-2.49v-4.93a2.493,2.493,0,0,0-2.491-2.49H371.7a3.769,3.769,0,0,1-3.524-2.464c-.2-.548-.428-1.1-.674-1.628a3.786,3.786,0,0,1,.738-4.259l3.922-3.922a2.494,2.494,0,0,0,0-3.521l-3.486-3.486a2.5,2.5,0,0,0-3.522,0l-3.921,3.922a3.79,3.79,0,0,1-4.26.738c-.534-.247-1.082-.474-1.627-.674a3.769,3.769,0,0,1-2.465-3.525V107.4a2.492,2.492,0,0,0-2.49-2.49h-4.93a2.493,2.493,0,0,0-2.489,2.49v5.545a3.769,3.769,0,0,1-2.464,3.525c-.546.2-1.094.427-1.629.674a3.788,3.788,0,0,1-4.259-.738l-3.921-3.922a2.494,2.494,0,0,0-3.522,0l-3.486,3.486a2.494,2.494,0,0,0,0,3.521l3.922,3.922a3.79,3.79,0,0,1,.738,4.259c-.246.533-.473,1.081-.675,1.628a3.767,3.767,0,0,1-3.524,2.464h-5.545a2.493,2.493,0,0,0-2.491,2.49v4.93a2.493,2.493,0,0,0,2.491,2.49h5.545a3.767,3.767,0,0,1,3.524,2.464c.2.545.428,1.093.675,1.628a3.791,3.791,0,0,1-.739,4.258l-3.922,3.922a2.494,2.494,0,0,0,0,3.522l3.486,3.485a2.494,2.494,0,0,0,3.522,0l3.921-3.922A3.759,3.759,0,0,1,337.277,155.944Zm10.648-1.886a17.336,17.336,0,1,1,17.336-17.336A17.356,17.356,0,0,1,347.925,154.057Zm0-33.408A16.073,16.073,0,1,0,364,136.722,16.091,16.091,0,0,0,347.925,120.649Z" transform="translate(-314.853 -103.65)" fill="#fff"/>
              </g>
              <g id="Group_15" data-name="Group 15" transform="translate(57.646 126.475)" opacity="0.84">
                <path id="Path_14" data-name="Path 14" d="M316.629,333.7h-6.15a3.463,3.463,0,0,1-3.25-2.274q-.348-.947-.77-1.858a3.482,3.482,0,0,1,.679-3.934l4.349-4.349a3.462,3.462,0,0,0,0-4.9l-3.866-3.866a3.461,3.461,0,0,0-4.9,0l-4.349,4.349a3.481,3.481,0,0,1-3.934.679q-.91-.422-1.859-.77a3.464,3.464,0,0,1-2.273-3.251v-6.15a3.462,3.462,0,0,0-3.462-3.462h-5.467a3.462,3.462,0,0,0-3.462,3.462v6.15a3.464,3.464,0,0,1-2.274,3.251q-.948.348-1.858.77a3.482,3.482,0,0,1-3.934-.679l-4.349-4.349a3.462,3.462,0,0,0-4.9,0l-3.866,3.866a3.462,3.462,0,0,0,0,4.9l4.349,4.349a3.483,3.483,0,0,1,.679,3.934q-.422.909-.77,1.858a3.462,3.462,0,0,1-3.25,2.274H251.6a3.462,3.462,0,0,0-3.462,3.462v5.467a3.462,3.462,0,0,0,3.462,3.462h6.15a3.463,3.463,0,0,1,3.25,2.274q.348.947.77,1.858a3.483,3.483,0,0,1-.679,3.934l-4.349,4.349a3.462,3.462,0,0,0,0,4.9l3.866,3.866a3.462,3.462,0,0,0,4.9,0l4.349-4.349a3.483,3.483,0,0,1,3.934-.679q.909.422,1.858.77a3.464,3.464,0,0,1,2.274,3.251v6.15a3.462,3.462,0,0,0,3.462,3.462h5.467a3.462,3.462,0,0,0,3.462-3.462v-6.15a3.464,3.464,0,0,1,2.273-3.251q.948-.348,1.859-.77a3.482,3.482,0,0,1,3.934.679l4.349,4.349a3.461,3.461,0,0,0,4.9,0l3.866-3.866a3.462,3.462,0,0,0,0-4.9l-4.349-4.349a3.482,3.482,0,0,1-.679-3.934q.422-.91.77-1.858a3.463,3.463,0,0,1,3.25-2.274h6.15a3.462,3.462,0,0,0,3.462-3.462V337.16A3.462,3.462,0,0,0,316.629,333.7Zm-32.515,24.721a18.525,18.525,0,1,1,18.526-18.526A18.525,18.525,0,0,1,284.115,358.418Z" transform="translate(-248.138 -303.916)" fill="#fff"/>
              </g>
              <g id="Group_16" data-name="Group 16" transform="translate(0 137.324)">
                <path id="Path_15" data-name="Path 15" d="M186.812,376.86h-4.141a3.258,3.258,0,0,1-3.254-3.254v-4.658a2,2,0,0,0-1.309-1.87c-.488-.178-.978-.381-1.455-.6a2.019,2.019,0,0,0-2.268.388l-3.295,3.294a3.252,3.252,0,0,1-4.6,0l-2.928-2.928a3.253,3.253,0,0,1,0-4.6l3.294-3.293a2.016,2.016,0,0,0,.388-2.268c-.22-.475-.423-.964-.6-1.456a2,2,0,0,0-1.869-1.309h-4.658a3.258,3.258,0,0,1-3.254-3.254v-4.14a3.258,3.258,0,0,1,3.254-3.254h4.658a2,2,0,0,0,1.869-1.309c.181-.495.384-.984.6-1.455a2.017,2.017,0,0,0-.388-2.268l-3.294-3.295a3.252,3.252,0,0,1,0-4.6l2.928-2.928a3.258,3.258,0,0,1,4.6,0l3.295,3.295a2.015,2.015,0,0,0,2.268.387c.47-.219.961-.421,1.455-.6a2,2,0,0,0,1.309-1.869v-4.659a3.257,3.257,0,0,1,3.254-3.254h4.141a3.257,3.257,0,0,1,3.254,3.254v4.659a2,2,0,0,0,1.309,1.869c.5.182.985.384,1.455.6a2.017,2.017,0,0,0,2.268-.387l3.294-3.295a3.258,3.258,0,0,1,4.6,0l2.928,2.928a3.254,3.254,0,0,1,0,4.6l-3.294,3.295a2.018,2.018,0,0,0-.388,2.268c.219.47.422.961.6,1.455a2,2,0,0,0,1.869,1.308h4.658a3.258,3.258,0,0,1,3.254,3.254v4.14a3.258,3.258,0,0,1-3.254,3.254h-4.658a2,2,0,0,0-1.869,1.309c-.18.491-.383.981-.6,1.456a2.016,2.016,0,0,0,.388,2.268l3.294,3.293a3.255,3.255,0,0,1,0,4.6l-2.928,2.928a3.252,3.252,0,0,1-4.6,0l-3.294-3.294a2.02,2.02,0,0,0-2.268-.388c-.479.222-.968.424-1.456.6a2,2,0,0,0-1.308,1.869v4.658A3.258,3.258,0,0,1,186.812,376.86ZM175.8,365.024a3.3,3.3,0,0,1,1.387.306c.445.207.9.4,1.359.562a3.27,3.27,0,0,1,2.137,3.056v4.658a1.993,1.993,0,0,0,1.991,1.991h4.141a1.993,1.993,0,0,0,1.991-1.991v-4.658a3.268,3.268,0,0,1,2.137-3.055c.455-.166.913-.356,1.36-.563a3.287,3.287,0,0,1,3.692.64l3.294,3.294a2.037,2.037,0,0,0,2.815,0l2.928-2.928a1.991,1.991,0,0,0,0-2.815l-3.295-3.293a3.284,3.284,0,0,1-.64-3.692c.205-.443.395-.9.563-1.359a3.267,3.267,0,0,1,3.055-2.137h4.658a1.993,1.993,0,0,0,1.991-1.991v-4.14a1.993,1.993,0,0,0-1.991-1.991h-4.658a3.269,3.269,0,0,1-3.055-2.136c-.169-.462-.358-.919-.563-1.36a3.284,3.284,0,0,1,.64-3.692l3.295-3.295a1.991,1.991,0,0,0,0-2.815L202.1,328.69a1.994,1.994,0,0,0-2.815,0l-3.294,3.295a3.283,3.283,0,0,1-3.693.64c-.439-.2-.9-.393-1.359-.563a3.267,3.267,0,0,1-2.137-3.055v-4.659a1.993,1.993,0,0,0-1.991-1.991h-4.141a1.993,1.993,0,0,0-1.991,1.991v4.659a3.268,3.268,0,0,1-2.136,3.055c-.463.17-.92.359-1.36.563a3.282,3.282,0,0,1-3.692-.64L170.2,328.69a1.994,1.994,0,0,0-2.815,0l-2.928,2.928a1.99,1.99,0,0,0,0,2.815l3.294,3.295a3.284,3.284,0,0,1,.64,3.691c-.2.441-.393.9-.563,1.36a3.266,3.266,0,0,1-3.055,2.136h-4.658a1.993,1.993,0,0,0-1.991,1.991v4.14a1.993,1.993,0,0,0,1.991,1.991h4.658a3.267,3.267,0,0,1,3.055,2.136c.168.458.357.916.563,1.36a3.283,3.283,0,0,1-.64,3.692l-3.294,3.293a1.99,1.99,0,0,0,0,2.815l2.928,2.928a2.038,2.038,0,0,0,2.815,0l3.295-3.294A3.256,3.256,0,0,1,175.8,365.024Zm8.944-1.383A14.664,14.664,0,1,1,199.4,348.977,14.68,14.68,0,0,1,184.742,363.641Zm0-28.064a13.4,13.4,0,1,0,13.4,13.4A13.416,13.416,0,0,0,184.742,335.577Z" transform="translate(-156.859 -321.095)" fill="#fff"/>
              </g>
            </g>
          </g>
          <g id="Group_27" data-name="Group 27" transform="translate(0 35.258)">
            <g id="Group_22" data-name="Group 22" transform="translate(166.276 71.319)" opacity="0.81">
              <path id="Path_16" data-name="Path 16" d="M411.26,300.185h-8.233a.632.632,0,0,1,0-1.263h8.233a.632.632,0,0,1,0,1.263Z" transform="translate(-365.309 -282.177)" fill="#fff"/>
              <path id="Path_17" data-name="Path 17" d="M411.26,321.667h-8.233a.632.632,0,1,1,0-1.263h8.233a.632.632,0,0,1,0,1.263Z" transform="translate(-365.309 -290.093)" fill="#fff"/>
              <g id="Group_21" data-name="Group 21">
                <g id="Group_20" data-name="Group 20">
                  <g id="Group_19" data-name="Group 19">
                    <path id="Path_18" data-name="Path 18" d="M395.442,317.684H345.385a1.715,1.715,0,0,1-1.713-1.713V274.12a1.714,1.714,0,0,1,1.713-1.712h50.058a1.714,1.714,0,0,1,1.713,1.712v41.851A1.715,1.715,0,0,1,395.442,317.684Zm-50.058-44.013a.45.45,0,0,0-.45.449v41.851a.45.45,0,0,0,.45.45h50.058a.45.45,0,0,0,.45-.45V274.12a.45.45,0,0,0-.45-.449Z" transform="translate(-343.672 -272.408)" fill="#fff"/>
                    <path id="Path_19" data-name="Path 19" d="M395.442,317.684H345.385a1.715,1.715,0,0,1-1.713-1.713V274.12a1.714,1.714,0,0,1,1.713-1.712h50.058a1.714,1.714,0,0,1,1.713,1.712v41.851A1.715,1.715,0,0,1,395.442,317.684Zm-50.058-44.013a.45.45,0,0,0-.45.449v41.851a.45.45,0,0,0,.45.45h50.058a.45.45,0,0,0,.45-.45V274.12a.45.45,0,0,0-.45-.449Z" transform="translate(-343.672 -272.408)" fill="#fff" opacity="0.66"/>
                  </g>
                </g>
                <path id="Path_20" data-name="Path 20" d="M393.173,289.759H353.941a.632.632,0,1,1,0-1.263h39.233a.632.632,0,1,1,0,1.263Z" transform="translate(-347.223 -278.336)" fill="#fff"/>
                <path id="Path_21" data-name="Path 21" d="M393.173,310.61H353.941a.632.632,0,1,1,0-1.263h39.233a.632.632,0,1,1,0,1.263Z" transform="translate(-347.223 -286.019)" fill="#fff"/>
                <path id="Path_22" data-name="Path 22" d="M375.093,300.185H353.941a.632.632,0,1,1,0-1.263h21.152a.632.632,0,0,1,0,1.263Z" transform="translate(-347.223 -282.177)" fill="#fff"/>
                <path id="Path_23" data-name="Path 23" d="M375.093,321.667H353.941a.632.632,0,1,1,0-1.263h21.152a.632.632,0,0,1,0,1.263Z" transform="translate(-347.223 -290.093)" fill="#fff"/>
                <path id="Path_24" data-name="Path 24" d="M368.205,331.619H353.941a.632.632,0,1,1,0-1.263h14.265a.632.632,0,0,1,0,1.263Z" transform="translate(-347.223 -293.76)" fill="#fff"/>
              </g>
            </g>
            <g id="Group_26" data-name="Group 26" opacity="0.81">
              <path id="Path_25" data-name="Path 25" d="M156.98,190.823h-9.341a.632.632,0,0,1,0-1.263h9.341a.632.632,0,0,1,0,1.263Z" transform="translate(-104.932 -170.563)" fill="#fff"/>
              <path id="Path_26" data-name="Path 26" d="M156.98,215.2h-9.341a.632.632,0,0,1,0-1.263h9.341a.632.632,0,0,1,0,1.263Z" transform="translate(-104.932 -179.543)" fill="#fff"/>
              <g id="Group_25" data-name="Group 25">
                <g id="Group_24" data-name="Group 24">
                  <g id="Group_23" data-name="Group 23">
                    <path id="Path_27" data-name="Path 27" d="M139.18,210.676H82.1a1.714,1.714,0,0,1-1.712-1.712V161.191a1.714,1.714,0,0,1,1.712-1.712H139.18a1.714,1.714,0,0,1,1.712,1.712v47.773A1.714,1.714,0,0,1,139.18,210.676ZM82.1,160.742a.45.45,0,0,0-.449.449v47.773a.45.45,0,0,0,.449.449H139.18a.45.45,0,0,0,.449-.449V161.191a.45.45,0,0,0-.449-.449Z" transform="translate(-80.384 -159.479)" fill="#fff"/>
                    <path id="Path_28" data-name="Path 28" d="M139.18,210.676H82.1a1.714,1.714,0,0,1-1.712-1.712V161.191a1.714,1.714,0,0,1,1.712-1.712H139.18a1.714,1.714,0,0,1,1.712,1.712v47.773A1.714,1.714,0,0,1,139.18,210.676ZM82.1,160.742a.45.45,0,0,0-.449.449v47.773a.45.45,0,0,0,.449.449H139.18a.45.45,0,0,0,.449-.449V161.191a.45.45,0,0,0-.449-.449Z" transform="translate(-80.384 -159.479)" fill="#fff" opacity="0.66"/>
                  </g>
                </g>
                <path id="Path_29" data-name="Path 29" d="M136.46,178.994H91.949a.632.632,0,0,1,0-1.263H136.46a.632.632,0,1,1,0,1.263Z" transform="translate(-84.412 -166.204)" fill="#fff"/>
                <path id="Path_30" data-name="Path 30" d="M136.46,202.651H91.949a.632.632,0,0,1,0-1.263H136.46a.632.632,0,1,1,0,1.263Z" transform="translate(-84.412 -174.921)" fill="#fff"/>
                <path id="Path_31" data-name="Path 31" d="M115.946,190.823h-24a.632.632,0,0,1,0-1.263h24a.632.632,0,0,1,0,1.263Z" transform="translate(-84.412 -170.563)" fill="#fff"/>
                <path id="Path_32" data-name="Path 32" d="M115.946,215.2h-24a.632.632,0,0,1,0-1.263h24a.632.632,0,0,1,0,1.263Z" transform="translate(-84.412 -179.543)" fill="#fff"/>
                <path id="Path_33" data-name="Path 33" d="M108.132,226.487H91.949a.632.632,0,0,1,0-1.263h16.184a.632.632,0,0,1,0,1.263Z" transform="translate(-84.412 -183.704)" fill="#fff"/>
              </g>
            </g>
          </g>
        </g>
        <g id="Group_34" data-name="Group 34" transform="translate(0 72.191)">
          <g id="Group_30" data-name="Group 30" transform="translate(147.285 0)">
            <g id="Group_29" data-name="Group 29">
              <path id="Path_34" data-name="Path 34" d="M377.348,158.019H348.963a3.044,3.044,0,0,0-2.816,2.31l-.94,3.12a3.045,3.045,0,0,1-2.816,2.31H301.753a3.235,3.235,0,0,0-2.981,3.44h0v46.009a3.235,3.235,0,0,0,2.981,3.441h75.6a3.32,3.32,0,0,0,3.184-3.441V161.46A3.32,3.32,0,0,0,377.348,158.019Z" transform="translate(-298.772 -158.019)" fill="#3e479b"/>
              <path id="Path_35" data-name="Path 35" d="M348.348,167.875l1-3.12a3.21,3.21,0,0,1,3.006-2.31h24.99a3.32,3.32,0,0,1,3.184,3.441v53.749a3.319,3.319,0,0,1-3.184,3.44H301.955a3.319,3.319,0,0,1-3.183-3.44V173.626a3.319,3.319,0,0,1,3.183-3.441h43.387A3.211,3.211,0,0,0,348.348,167.875Z" transform="translate(-298.772 -159.65)" fill="#6d6cd4"/>
              <path id="Path_36" data-name="Path 36" d="M352.937,173.078l.946-2.941a3.027,3.027,0,0,1,2.834-2.178h23.554a3.129,3.129,0,0,1,3,3.243v50.662a3.129,3.129,0,0,1-3,3.243H309.208a3.129,3.129,0,0,1-3-3.243V178.5a3.129,3.129,0,0,1,3-3.243h40.9A3.026,3.026,0,0,0,352.937,173.078Z" transform="translate(-301.512 -161.682)" fill="#fff" opacity="0.12"/>
            </g>
            <path id="Path_37" data-name="Path 37" d="M403.346,241.3H384.7a.632.632,0,1,1,0-1.263h18.649a2.185,2.185,0,0,0,2.182-2.183V223.058a.632.632,0,1,1,1.263,0v14.794A3.45,3.45,0,0,1,403.346,241.3Z" transform="translate(-330.199 -181.751)" fill="#fff"/>
          </g>
          <g id="Group_33" data-name="Group 33" transform="translate(0 52.327)">
            <g id="Group_32" data-name="Group 32">
              <g id="Group_31" data-name="Group 31">
                <path id="Path_38" data-name="Path 38" d="M68.759,240.875H97.328a3.163,3.163,0,0,1,2.834,2.6l.947,3.509a3.163,3.163,0,0,0,2.834,2.6h40.9c1.657,0,3,1.733,3,3.87h0v51.756c0,2.137-1.343,3.87-3,3.87H68.759c-1.77,0-3.2-1.733-3.2-3.87V244.745C65.555,242.607,66.989,240.875,68.759,240.875Z" transform="translate(-65.555 -240.875)" fill="#f28393"/>
                <path id="Path_39" data-name="Path 39" d="M97.947,251.962l-1.01-3.509a3.31,3.31,0,0,0-3.026-2.6H68.759c-1.77,0-3.2,1.733-3.2,3.87v60.462c0,2.137,1.434,3.87,3.2,3.87h75.88c1.77,0,3.2-1.733,3.2-3.87V258.431c0-2.138-1.434-3.87-3.2-3.87H100.972A3.309,3.309,0,0,1,97.947,251.962Z" transform="translate(-65.555 -242.71)" fill="#fff" opacity="0.12"/>
                <path id="Path_40" data-name="Path 40" d="M96.086,257.814l-.952-3.308a3.119,3.119,0,0,0-2.853-2.449H68.574c-1.667,0-3.019,1.633-3.019,3.648v56.989c0,2.015,1.352,3.648,3.019,3.648H140.1c1.668,0,3.019-1.633,3.019-3.648V263.912c0-2.015-1.351-3.648-3.019-3.648H98.938A3.118,3.118,0,0,1,96.086,257.814Z" transform="translate(-65.555 -244.995)" fill="#fff" opacity="0.12"/>
              </g>
            </g>
            <path id="Path_41" data-name="Path 41" d="M74.468,269.314a.6.6,0,0,1-.565-.631v-8.766a2.052,2.052,0,0,1,1.927-2.154H87.6a.635.635,0,0,1,0,1.263H75.83a.848.848,0,0,0-.8.89v8.766A.6.6,0,0,1,74.468,269.314Z" transform="translate(-68.631 -247.098)" fill="#fff"/>
          </g>
        </g>
        <g id="Group_49" data-name="Group 49" transform="translate(38.749 0)">
          <g id="Group_42" data-name="Group 42" transform="translate(14.475)">
            <g id="Group_36" data-name="Group 36" transform="translate(0 17.968)">
              <g id="Group_35" data-name="Group 35">
                <rect id="Rectangle_2" data-name="Rectangle 2" width="129.963" height="48.806" rx="24.403" transform="translate(0 30.588)" fill="#c5d9ff"/>
                <circle id="Ellipse_9" data-name="Ellipse 9" cx="34.32" cy="34.32" r="34.32" transform="translate(30.662)" fill="#599af2"/>
              </g>
            </g>
            <g id="Group_37" data-name="Group 37">
              <rect id="Rectangle_3" data-name="Rectangle 3" width="129.963" height="48.806" rx="24.403" transform="translate(0 41.367)" fill="#599af2"/>
              <circle id="Ellipse_10" data-name="Ellipse 10" cx="34.32" cy="34.32" r="34.32" transform="translate(19.883 27.159) rotate(-23.309)" fill="#599af2"/>
            </g>
            <g id="Group_39" data-name="Group 39" opacity="0.35">
              <g id="Group_38" data-name="Group 38">
                <rect id="Rectangle_4" data-name="Rectangle 4" width="129.963" height="48.806" rx="24.403" transform="translate(0 41.367)" fill="#ecf1f7"/>
                <circle id="Ellipse_11" data-name="Ellipse 11" cx="34.32" cy="34.32" r="34.32" transform="translate(19.883 27.159) rotate(-23.309)" fill="#ecf1f7"/>
              </g>
            </g>
            <g id="Group_41" data-name="Group 41" transform="translate(45.911 38.448)">
              <g id="Group_40" data-name="Group 40" transform="translate(9.466)">
                <path id="Path_42" data-name="Path 42" d="M239.1,116.348a1.579,1.579,0,0,1-1.106-2.7l9.21-9.054,9.064,9.064a1.579,1.579,0,1,1-2.232,2.232l-6.85-6.85-6.978,6.859A1.573,1.573,0,0,1,239.1,116.348Z" transform="translate(-237.52 -104.589)" fill="#fff"/>
                <path id="Path_43" data-name="Path 43" d="M251.806,129.281a1.579,1.579,0,0,1-1.579-1.579V107.188a1.579,1.579,0,0,1,3.158,0V127.7A1.579,1.579,0,0,1,251.806,129.281Z" transform="translate(-242.202 -104.965)" fill="#fff"/>
              </g>
              <path id="Path_44" data-name="Path 44" d="M256.525,148.938H226.442a3.915,3.915,0,0,1-3.911-3.911V134.1a1.579,1.579,0,1,1,3.158,0v10.929a.754.754,0,0,0,.753.753h30.083a.99.99,0,0,0,.99-.989V134.1a1.579,1.579,0,1,1,3.158,0v10.693A4.152,4.152,0,0,1,256.525,148.938Z" transform="translate(-222.531 -114.88)" fill="#fff"/>
            </g>
          </g>
          <g id="Group_44" data-name="Group 44" transform="translate(0 78.809)">
            <path id="Path_45" data-name="Path 45" d="M258.418,269.136l-86.094,28.445a4.015,4.015,0,0,1-5.072-2.553l-28.445-86.094a4.015,4.015,0,0,1,2.553-5.072l86.094-28.445a4.014,4.014,0,0,1,5.071,2.553l28.445,86.094A4.015,4.015,0,0,1,258.418,269.136Z" transform="translate(-131.22 -170.974)" fill="#4c65ba" opacity="0.36"/>
            <rect id="Rectangle_5" data-name="Rectangle 5" width="98.701" height="98.701" rx="6.357" transform="translate(0 30.964) rotate(-18.283)" fill="#fff"/>
            <g id="Group_43" data-name="Group 43" transform="translate(10.565 10.636)">
              <rect id="Rectangle_6" data-name="Rectangle 6" width="81.89" height="81.89" transform="translate(0 25.69) rotate(-18.283)" fill="#c5d9ff"/>
              <path id="Path_46" data-name="Path 46" d="M179.879,312.489l-5.816-17.6,8.507-20.506A5.887,5.887,0,0,1,189.785,271l15.748,4.891a2.1,2.1,0,0,0,2.433-.927l13.111-21.822a10.9,10.9,0,0,1,13.6-4.382l14.44,6.212.133.4,10.185,30.83-.9.3Zm-3.8-17.529,5,15.136L257.041,285l-9.458-28.625L233.926,250.5a8.993,8.993,0,0,0-11.224,3.617L209.59,275.938a3.992,3.992,0,0,1-4.619,1.761l-15.747-4.891a4,4,0,0,0-4.9,2.3Z" transform="translate(-154.85 -208.385)" fill="#fff" opacity="0.47"/>
              <path id="Path_47" data-name="Path 47" d="M218.495,242.416a10.081,10.081,0,1,1,3.155-.51A10.1,10.1,0,0,1,218.495,242.416Zm-.013-18.263a8.184,8.184,0,1,0,7.776,5.617A8.134,8.134,0,0,0,218.481,224.153Z" transform="translate(-167.505 -198.944)" fill="#fff" opacity="0.47"/>
            </g>
          </g>
          <g id="Group_46" data-name="Group 46" transform="translate(78.071 113.413)">
            <rect id="Rectangle_7" data-name="Rectangle 7" width="75.241" height="75.241" rx="6.357" transform="translate(3.819 3.819)" fill="#4c65ba" opacity="0.36"/>
            <rect id="Rectangle_8" data-name="Rectangle 8" width="75.241" height="75.241" rx="6.357" fill="#fff"/>
            <g id="Group_45" data-name="Group 45" transform="translate(5.504 6.408)">
              <rect id="Rectangle_9" data-name="Rectangle 9" width="62.426" height="62.426" transform="translate(0.861)" fill="#6081a8" opacity="0.79"/>
              <path id="Path_48" data-name="Path 48" d="M323.568,312.406H259.247V297.964l11.116-12.872a4.714,4.714,0,0,1,6.333-.758l10.228,7.307a1.381,1.381,0,0,0,1.705-.077L303.339,278.9a8.53,8.53,0,0,1,11.186.082L323.568,287Zm-62.426-1.895h60.531V287.856l-8.4-7.451a6.631,6.631,0,0,0-8.694-.064L289.866,293a3.268,3.268,0,0,1-4.042.183l-10.229-7.306a2.828,2.828,0,0,0-3.8.453l-10.655,12.339Z" transform="translate(-259.247 -249.436)" fill="#fff" opacity="0.47"/>
              <path id="Path_49" data-name="Path 49" d="M311.512,264.867a7.907,7.907,0,1,1,7.908-7.908A7.916,7.916,0,0,1,311.512,264.867Zm0-13.92a6.013,6.013,0,1,0,6.013,6.013A6.02,6.02,0,0,0,311.512,250.947Z" transform="translate(-275.591 -239.191)" fill="#fff" opacity="0.47"/>
            </g>
          </g>
          <g id="Group_48" data-name="Group 48" transform="translate(43.15 150.552)">
            <rect id="Rectangle_10" data-name="Rectangle 10" width="48.604" height="48.604" rx="6.357" transform="translate(3.175 18.498) rotate(-20.54)" fill="#4c65ba" opacity="0.36"/>
            <rect id="Rectangle_11" data-name="Rectangle 11" width="48.604" height="48.604" rx="6.357" transform="translate(0 17.054) rotate(-20.54)" fill="#fff"/>
            <g id="Group_47" data-name="Group 47" transform="translate(5.302 5.338)">
              <rect id="Rectangle_12" data-name="Rectangle 12" width="40.326" height="40.326" transform="matrix(0.936, -0.351, 0.351, 0.936, 0, 14.149)" fill="#599af2"/>
              <path id="Path_50" data-name="Path 50" d="M223.094,354.5l-3.435-9.167,3.85-10.423a3.378,3.378,0,0,1,4.06-2.1l7.844,2.1a.555.555,0,0,0,.633-.27l6.028-10.992a5.852,5.852,0,0,1,7.2-2.637l7.427,2.855,5.928,15.821Zm-1.413-9.172,2.522,6.733,35.988-13.484-4.964-13.25-6.632-2.548a3.946,3.946,0,0,0-4.859,1.78l-6.029,10.992a2.446,2.446,0,0,1-2.784,1.19l-7.844-2.1a1.488,1.488,0,0,0-1.792.927Z" transform="translate(-209.539 -301.634)" fill="#fff" opacity="0.47"/>
              <path id="Path_51" data-name="Path 51" d="M240.423,319.66a5.444,5.444,0,1,1,5.091-7.354h0a5.444,5.444,0,0,1-5.091,7.354Zm-.01-8.993a3.55,3.55,0,1,0,3.327,2.3A3.538,3.538,0,0,0,240.413,310.667Z" transform="translate(-215.181 -297.266)" fill="#fff" opacity="0.47"/>
            </g>
          </g>
        </g>
      </g>
    </g>
  </g>
</svg>
