<svg xmlns="http://www.w3.org/2000/svg" width="329" height="329" viewBox="0 0 329 329">
  <g id="Group_3148" data-name="Group 3148" transform="translate(0 -0.055)">
    <circle id="Ellipse_327" data-name="Ellipse 327" cx="164.5" cy="164.5" r="164.5" transform="translate(0 0.055)" fill="red"/>
    <path id="Icon_awesome-user" data-name="Icon awesome-user" d="M78.171,89.338A44.669,44.669,0,1,0,33.5,44.669,44.665,44.665,0,0,0,78.171,89.338ZM109.439,100.5h-5.828a60.748,60.748,0,0,1-50.881,0H46.9A46.914,46.914,0,0,0,0,147.407v14.517a16.755,16.755,0,0,0,16.751,16.751H139.59a16.755,16.755,0,0,0,16.751-16.751V147.407A46.914,46.914,0,0,0,109.439,100.5Z" transform="translate(86.329 75.217)" fill="#fff"/>
  </g>
</svg>
