<svg xmlns="http://www.w3.org/2000/svg" width="270" height="270" viewBox="0 0 270 270">
  <g id="Group_4185" data-name="Group 4185" transform="translate(-280 -1230.279)">
    <rect id="Rectangle_2286" data-name="Rectangle 2286" width="270" height="270" transform="translate(280 1230.279)" fill="none"/>
    <g id="Group_2" data-name="Group 2" transform="translate(348.503 1261.128)">
      <path id="Path_7" data-name="Path 7" d="M576,131.925a27.225,27.225,0,0,0-9.635-9.875,25.853,25.853,0,0,0-31.111,3.02c-4.314,3.979-6.759,9.2-8.677,14.621a78.927,78.927,0,0,0-4.218,21c-.527,8.677-.911,17.4-.815,26.125.1,10.5.671,21.044,1.055,31.542.671,16.826-5.657,31.063-16.011,43.862A81.93,81.93,0,0,1,488.9,278.324a14.115,14.115,0,0,1-1.678,1.007,3.4,3.4,0,0,1-5.177-2.924c-.048-.911-.048-1.822-.048-2.732q0-68.022.048-136.044c.048-16.874,5.944-31.542,17.353-43.958a63.236,63.236,0,0,1,40.363-20.852c20.181-2.4,37.966,3.26,53.018,17.065a63.647,63.647,0,0,1,21.044,43.91,63.621,63.621,0,0,1-12.032,42.664c-10.786,15.052-25.359,23.968-43.526,27.036a85.54,85.54,0,0,1-9.923.671,3.3,3.3,0,0,1-3.643-2.589c-.479-1.87.575-3.116,2.109-3.979,2.4-1.438,4.889-2.732,7.19-4.266,6.28-4.075,11.457-9.156,14.716-16.059,3.979-8.341,3.835-16.922,1.294-25.646a71.591,71.591,0,0,1-2.445-11.792c-.671-5.513,1.678-7.766,7.238-7.814C575.045,132.021,575.333,131.973,576,131.925Z" transform="translate(-482 -72.285)" fill="#fff"/>
      <path id="Path_8" data-name="Path 8" d="M496.793,276.842c.863-.575,1.39-.911,1.87-1.294a74.908,74.908,0,0,0,18.791-23.441,54.458,54.458,0,0,0,5.992-26.749c-.24-7.574-.815-15.2-1.007-22.77-.192-6.951-.24-13.9-.048-20.852.192-6.567.479-13.135,1.246-19.654a73.711,73.711,0,0,1,7.286-25.358c9.587-18.791,30.584-21.476,44.389-14.381,9.2,4.746,14.764,12.655,18.551,22.051a3.482,3.482,0,0,1-4.6,4.458c-1.87-.815-3.691-1.678-5.561-2.4-1.294-.527-2.109-.144-1.774,1.39.575,2.541,1.055,5.129,1.822,7.622,1.917,6.376,3.212,12.847,2.4,19.558a40.731,40.731,0,0,1-12.9,25.406,26.222,26.222,0,0,0-2.013,2.013,7.957,7.957,0,0,0,1.294-.144c1.151-.336,2.4-.671,3.547-1.1q23.441-8.988,33.7-32.022a56.808,56.808,0,0,0,4.6-28.57,57.481,57.481,0,0,0-18.168-37.63c-12.8-12.08-28.139-17.5-45.492-16.107-16.826,1.342-30.727,8.868-41.369,22.051-7.91,9.827-12.607,21.14-12.7,33.747-.24,43.91-.1,87.82-.1,131.73,0,.671.144,1.342.24,2.445Z" transform="translate(-489.555 -79.767)" fill="#fff"/>
      <path id="Path_9" data-name="Path 9" d="M626.752,183.1a3.335,3.335,0,0,1,3.356,3.356,3.5,3.5,0,0,1-3.4,3.5,3.7,3.7,0,0,1-3.4-3.643A3.362,3.362,0,0,1,626.752,183.1Z" transform="translate(-555.566 -129.978)" fill="#fff"/>
    </g>
  </g>
</svg>
