<svg xmlns="http://www.w3.org/2000/svg" width="930.288" height="693.267" viewBox="0 0 930.288 693.267">
  <g id="g10" transform="translate(250 -1118.189)">
    <g id="g12" transform="translate(-250 1118.189)">
      <path id="path14" d="M930.288-59.752H0v-.465H930.288v.465" transform="translate(0 669.455)" fill="#e7e8e5"/>
      <path id="path16" d="M555.7-38.756H617.33v.465H555.7v-.465" transform="translate(219.745 677.942)" fill="#e7e8e5"/>
      <path id="path18" d="M347.113-42.935H371.09v.465H347.113v-.465" transform="translate(137.26 676.289)" fill="#e7e8e5"/>
      <path id="path20" d="M430.035-41.061h50.5v-.465h-50.5Z" transform="translate(170.051 676.846)" fill="#e7e8e5"/>
      <path id="path22" d="M479.555-51.137h104.4v.465h-104.4v-.465" transform="translate(189.633 673.046)" fill="#e7e8e5"/>
      <path id="path24" d="M69.945-35.712H119.3v.465H69.945v-.465" transform="translate(27.659 679.145)" fill="#e7e8e5"/>
      <path id="path26" d="M117.185-35.712h42.793v.465H117.185v-.465" transform="translate(46.339 679.145)" fill="#e7e8e5"/>
      <path id="path28" d="M287.815-42.636H174.666V-43.1H287.815v.465" transform="translate(69.069 676.223)" fill="#e7e8e5"/>
      <path id="path30" d="M61.563-496.346a10.165,10.165,0,0,0-10.155,10.153V18.827A10.166,10.166,0,0,0,61.563,28.982H420.838a10.165,10.165,0,0,0,10.153-10.155v-505.02a10.165,10.165,0,0,0-10.153-10.153H61.563M420.838,29.447H61.563a10.631,10.631,0,0,1-10.621-10.62v-505.02a10.632,10.632,0,0,1,10.621-10.618H420.838a10.632,10.632,0,0,1,10.618,10.618V18.827a10.631,10.631,0,0,1-10.618,10.62" transform="translate(20.144 496.811)" fill="#e7e8e5"/>
      <path id="path32" d="M349.957-496.346A10.165,10.165,0,0,0,339.8-486.193V18.827a10.165,10.165,0,0,0,10.153,10.155H709.231a10.167,10.167,0,0,0,10.157-10.155v-505.02a10.167,10.167,0,0,0-10.157-10.153H349.957M709.231,29.447H349.957a10.63,10.63,0,0,1-10.618-10.62v-505.02a10.631,10.631,0,0,1,10.618-10.618H709.231a10.633,10.633,0,0,1,10.622,10.618V18.827a10.632,10.632,0,0,1-10.622,10.62" transform="translate(134.187 496.811)" fill="#e7e8e5"/>
      <path id="path34" d="M387.234-111.359c-3.727-10.7-33.111,3.85-45.035,21.579-7.943,11.805-12.793,24.409-15.059,41.338.272-19.317.581-40.071.882-59.658,2.413-4.884,7.919-16.144,11.88-25.066,13.214-29.769,44.639-40.855,55.5-59.65,14.224-24.628,14.142-61.57,2.034-74.9-10.523-11.586-45.372,66.748-49.3,75.5-13.5,30.1-17.426,52.44-19.957,74.083.288-18.4.564-35.286.791-48.319.737-42.507,1.66-56.18,2.08-60.387,1.457-2.054,3.174-4.449,4.171-5.734,8.434-10.856,27.144-23.78,36.5-39.563,13.655-23.045,11.448-50.626,1.872-60.895-10.014-10.737-27.717,14.641-37.115,39.787s-5.383,49.216-8.019,70.1c-.551,4.1-1.118,19.653-1.648,41.234-2.852-23.22-8.531-38.776-19.056-53.272-12.946-17.83-24.12-39.541-34.787-36.735s-4.925,31.533,3.513,51.7c7.517,17.962,44.589,35.876,50.051,50.316-.644,29.252-1.219,66.311-1.626,100.815-2.923-17.822-.914-19.318-12.89-46.6-7.12-16.222-36.311-36.227-39.792-25.081-3.416,10.936,1.81,32.21,12.831,46.963,8.89,11.9,28.614,11.889,33.178,19.274,1.064,1.723,4.584,8.328,6.6,12.125-.476,42.123-.688,79.307-.454,91.985l1.915.128c-.091-3.273.14-24.7.515-53.058,4.789-15.091,37.033-23.9,46.993-39.59,10.425-16.421,17.915-35.583,13.444-48.416" transform="translate(105.642 560.574)" fill="#e2e2e0"/>
      <path id="path36" d="M352.236-52.465H290.348a7.108,7.108,0,0,1-6.968-5.7l-4.393-21.659H363.6L359.2-58.162a7.108,7.108,0,0,1-6.966,5.7" transform="translate(110.321 661.703)" fill="#ededeb"/>
      <path id="path38" d="M367.555-66.915H279.406a4.151,4.151,0,0,1-4.125-3.686l-1.8-16.012a4.149,4.149,0,0,1,4.123-4.614h91.752a4.15,4.15,0,0,1,4.125,4.614l-1.8,16.012a4.15,4.15,0,0,1-4.123,3.686" transform="translate(108.133 657.193)" fill="#ededeb"/>
      <path id="path40" d="M534.349,5.884h59.259V-246.985H534.349Z" transform="translate(211.3 595.601)" fill="#ededeb"/>
      <path id="path42" d="M353.936-65.773H660.959v7.753H353.936v-7.753" transform="translate(139.959 667.258)" fill="#ededeb"/>
      <path id="path44" d="M351.076,5.884H606.822V-246.985H351.076Z" transform="translate(138.828 595.601)" fill="#f3f2f1"/>
      <path id="path46" d="M576.919-122.02H367.774v-53.544H576.919v53.544" transform="translate(145.431 623.843)" fill="#ededeb"/>
      <path id="path48" d="M576.919-72.634H367.774v-53.543H576.919v53.543" transform="translate(145.431 643.372)" fill="#ededeb"/>
      <path id="path50" d="M427.525-165.668h46.959a5.8,5.8,0,0,0,5.779-5.779,5.8,5.8,0,0,0-5.779-5.781H427.525a5.8,5.8,0,0,0-5.779,5.781,5.8,5.8,0,0,0,5.779,5.779" transform="translate(166.773 623.185)" fill="#f3f2f1"/>
      <path id="path52" d="M367.774-171.408H576.919v-53.544H367.774Z" transform="translate(145.431 604.313)" fill="#ededeb"/>
      <path id="path54" d="M427.525-215.056h46.959a5.8,5.8,0,0,0,5.779-5.779,5.8,5.8,0,0,0-5.779-5.779H427.525a5.8,5.8,0,0,0-5.779,5.779,5.8,5.8,0,0,0,5.779,5.779" transform="translate(166.773 603.656)" fill="#f3f2f1"/>
      <path id="path56" d="M427.525-116.282h46.959a5.8,5.8,0,0,0,5.779-5.779,5.8,5.8,0,0,0-5.779-5.779H427.525a5.8,5.8,0,0,0-5.779,5.779,5.8,5.8,0,0,0,5.779,5.779" transform="translate(166.773 642.715)" fill="#f3f2f1"/>
      <path id="path58" d="M347.309-244.941h261v-7.213h-261Z" transform="translate(137.338 593.557)" fill="#ededeb"/>
      <path id="path60" d="M599.254-252.154h-64.9v7.213h64.9v-7.213" transform="translate(211.3 593.557)" fill="#e2e2e0"/>
      <path id="path62" d="M196.558,47.091H255.1V-331.584H196.558Z" transform="translate(77.726 562.147)" fill="#dadbd8"/>
      <path id="path64" d="M89.615,71.865H285.665l20.595-466.1H110.21L89.615,71.865" transform="translate(35.437 537.373)" fill="#e2e2e0"/>
      <path id="path66" d="M69.12,71.865h216.86l20.595-466.1H89.714L69.12,71.865" transform="translate(27.332 537.373)" fill="#ededeb"/>
      <path id="path68" d="M257.817,42.54l17.348-420.4H104.007L86.658,42.54H257.817" transform="translate(34.268 543.849)" fill="#fff"/>
      <path id="path70" d="M161.784,42.54l58.178-420.4H201.708L143.532,42.54h18.252" transform="translate(56.757 543.849)" fill="#fafaf9"/>
      <path id="path72" d="M146.807,42.54l58.178-420.4H173.862L115.684,42.54h31.123" transform="translate(45.746 543.849)" fill="#fafaf9"/>
      <path id="path74" d="M391.284-240.36H628.565V-462.319H391.284Z" transform="translate(154.728 510.45)" fill="#e2e2e0"/>
      <path id="path76" d="M386.007-240.36h241.2V-462.319h-241.2Z" transform="translate(152.641 510.45)" fill="#f3f2f1"/>
      <path id="path78" d="M391.284-294.175H628.565v-9.083H391.284Z" transform="translate(154.728 573.348)" fill="#e2e2e0"/>
      <path id="path80" d="M381.271-294.175H606.362v-9.083H381.271Z" transform="translate(150.768 573.348)" fill="#f3f2f1"/>
      <path id="path82" d="M393.4-258.01H613.981V-452.464H393.4Z" transform="translate(155.562 514.347)" fill="#fafaf9"/>
      <path id="path84" d="M393.4-258.01h1.47V-452.464H393.4Z" transform="translate(155.562 514.347)" fill="#e2e2e0"/>
      <path id="path86" d="M550.234-258.01l-38.14-194.452h-50L500.237-258.01h50" transform="translate(182.729 514.348)" fill="#fff"/>
      <path id="path88" d="M500.836-258.01,462.7-452.463h-22.58l38.14,194.453h22.58" transform="translate(174.037 514.348)" fill="#fff"/>
      <path id="path90" d="M546.857-262.178V-467.471a1.138,1.138,0,0,0-1.135-1.135h-.089a1.138,1.138,0,0,0-1.135,1.135v205.292a1.137,1.137,0,0,0,1.135,1.135h.089a1.137,1.137,0,0,0,1.135-1.135" transform="translate(215.313 507.964)" fill="#e7e8e5"/>
      <path id="path92" d="M571.637-434.633h-4v-25.2H546.51v-7.636a1.138,1.138,0,0,0-1.135-1.135h26.262v33.972" transform="translate(215.66 507.964)" fill="#f0f0ee"/>
      <path id="path94" d="M567.311-437.119h-3.44v-25.2h3.44v25.2" transform="translate(215.982 510.45)" fill="#e2e2e0"/>
      <path id="path96" d="M563.871-437.119H553.561v-11.446h-7.373V-462.32h17.683v25.2" transform="translate(215.982 510.45)" fill="#eaeae7"/>
      <path id="path98" d="M546.188-441.017h7.373v-11.446h-7.373Z" transform="translate(215.982 514.348)" fill="#ededeb"/>
      <path id="path100" d="M387.54-434.633h-5.409v-33.972H609.838a1.138,1.138,0,0,0-1.135,1.135v7.636H387.54v25.2" transform="translate(151.108 507.964)" fill="#f0f0ee"/>
      <path id="path102" d="M396.316-437.119H386.007v-25.2H607.17v13.755H396.316v11.446" transform="translate(152.641 510.45)" fill="#eaeae7"/>
      <path id="path104" d="M604.248-441.017H541.5l-2.244-11.446h-50l2.246,11.446h-8.092l-2.244-11.446h-22.58l2.244,11.446h-65.97v-11.446H393.4v0H604.248v11.446" transform="translate(155.562 514.348)" fill="#ededeb"/>
      <path id="path106" d="M393.4-441.017h1.47v-11.446H393.4Z" transform="translate(155.562 514.348)" fill="#e2e2e0"/>
      <path id="path108" d="M514.338-441.017h-50l-2.246-11.446h50l2.244,11.446" transform="translate(182.729 514.348)" fill="#efefed"/>
      <path id="path110" d="M464.94-441.017H442.36l-2.244-11.446H462.7l2.244,11.446" transform="translate(174.037 514.348)" fill="#efefed"/>
      <path id="path112" d="M546.857-434.633H544.5v-32.837a1.138,1.138,0,0,1,1.135-1.135h.089a1.138,1.138,0,0,1,1.135,1.135v32.837" transform="translate(215.313 507.964)" fill="#e4e4e2"/>
      <path id="path114" d="M382.131-464.386H636.189v-4.22H382.131v4.22" transform="translate(151.108 507.964)" fill="#dadbd8"/>
      <path id="path116" d="M382.89-466.23H636.11a1.623,1.623,0,0,0,1.619-1.619v-.465a1.622,1.622,0,0,0-1.619-1.619H382.89a1.623,1.623,0,0,0-1.619,1.619v.465a1.625,1.625,0,0,0,1.619,1.619" transform="translate(150.768 507.44)" fill="#e7e8e5"/>
      <path id="path118" d="M382.157-443.125H636.845a.887.887,0,0,0,.884-.884.887.887,0,0,0-.884-.886H382.157a.888.888,0,0,0-.886.886.887.887,0,0,0,.886.884" transform="translate(150.768 517.34)" fill="#fff"/>
      <path id="path120" d="M796.3-9.128C796.3,2.508,634.794,11.94,435.56,11.94S74.814,2.508,74.814-9.128,236.326-30.2,435.56-30.2,796.3-20.763,796.3-9.128" transform="translate(29.584 681.327)" fill="#f3f2f1"/>
      <path id="path122" d="M88.465-178.444l-3.351-28.645,1.877-.22,3.351,28.645-1.877.22" transform="translate(33.657 611.29)" fill="#406fbf"/>
      <path id="path124" d="M90.1-164.485l-1.69-14.446,1.877-.221,1.69,14.447-1.877.22" transform="translate(34.959 622.424)" fill="#406fbf"/>
      <path id="path126" d="M216.406-243.584l-2.231-6.259a20.218,20.218,0,0,0-21.395-13.292l-88.919,10.4A20.222,20.222,0,0,0,86.127-230.3L111.436-13.911A13.866,13.866,0,0,0,126.82-1.748L444.958-38.958A13.867,13.867,0,0,0,457.12-54.341L435.242-241.4a13.867,13.867,0,0,0-15.385-12.163L235.118-231.959a17.688,17.688,0,0,1-18.712-11.625" transform="translate(34.003 589.16)" fill="#2a989d"/>
      <path id="path128" d="M241.905-178.114,141.382-158.081l-27.6-138.488L214.3-316.6l27.6,138.488" transform="translate(44.994 568.072)" fill="#406fbf"/>
      <path id="path130" d="M127.514-230.716l-13.732-68.9,46.523-9.271,1.658,19.017-25.173,5.018a5.543,5.543,0,0,0-4.353,6.519,5.545,5.545,0,0,0,5.431,4.462,5.594,5.594,0,0,0,1.09-.108l23.975-4.778L164-266.471l-22.649,4.514A5.545,5.545,0,0,0,137-255.436a5.546,5.546,0,0,0,5.431,4.462,5.577,5.577,0,0,0,1.088-.108l21.451-4.276,1.072,12.289-20.126,4.011a5.545,5.545,0,0,0-4.354,6.521c.013.058.024.115.039.171l-14.089,1.648" transform="translate(44.994 571.121)" fill="#b8d2ef"/>
      <path id="path132" d="M132.613-279.263a5.545,5.545,0,0,1-5.431-4.462,5.543,5.543,0,0,1,4.353-6.519l25.173-5.018.969,11.113L133.7-279.371a5.6,5.6,0,0,1-1.09.108" transform="translate(50.25 576.51)" fill="#80a8de"/>
      <path id="path134" d="M135.884-262.995a5.546,5.546,0,0,1-5.431-4.462,5.544,5.544,0,0,1,4.352-6.521l22.649-4.514.969,11.113L136.973-263.1a5.578,5.578,0,0,1-1.088.108" transform="translate(51.543 583.142)" fill="#80a8de"/>
      <path id="path136" d="M133.761-251.017c-.015-.056-.026-.113-.039-.171a5.545,5.545,0,0,1,4.354-6.521l20.126-4.011.675,7.768-25.116,2.936" transform="translate(52.836 589.774)" fill="#80a8de"/>
      <path id="path138" d="M336.385-195.834l-101.552,13.9L215.686-321.843l101.552-13.9,19.147,139.908" transform="translate(85.29 560.503)" fill="#406fbf"/>
      <path id="path140" d="M232.08-202.058l-2.2-16.04-8.471-97.2-4.774.415-.953-6.959,101.552-13.9,2.034,14.862-75.791,3.66.514,10.656-6.239.852a5.546,5.546,0,0,0-4.741,6.246,5.547,5.547,0,0,0,5.487,4.793,5.851,5.851,0,0,0,.759-.052l5.271-.722.594,12.295-4.2.575a5.544,5.544,0,0,0-4.741,6.244,5.543,5.543,0,0,0,5.485,4.793,5.52,5.52,0,0,0,.759-.052l3.236-.443.594,12.295-2.166.3a5.545,5.545,0,0,0-4.741,6.244h0a5.545,5.545,0,0,0,5.485,4.793,5.516,5.516,0,0,0,.759-.052l1.2-.164.594,12.295-.13.019a5.543,5.543,0,0,0-4.743,6.244,5.544,5.544,0,0,0,5.407,4.791l.614,12.713a5.546,5.546,0,0,0-2.854,5.628,5.513,5.513,0,0,0,1.513,3.107l-15.113,1.768" transform="translate(85.29 560.503)" fill="#b8d2ef"/>
      <path id="path142" d="M233.606-302.942a5.547,5.547,0,0,1-5.487-4.793,5.546,5.546,0,0,1,4.741-6.246l6.239-.852.538,11.117-5.271.722a5.851,5.851,0,0,1-.759.052" transform="translate(90.186 568.771)" fill="#80a8de"/>
      <path id="path144" d="M235.874-286.443a5.543,5.543,0,0,1-5.485-4.793,5.545,5.545,0,0,1,4.741-6.244l4.2-.575.536,11.117-3.236.443a5.521,5.521,0,0,1-.759.052" transform="translate(91.083 575.406)" fill="#80a8de"/>
      <path id="path146" d="M238.143-269.943a5.545,5.545,0,0,1-5.485-4.793h0a5.544,5.544,0,0,1,4.741-6.244l2.166-.3.538,11.119-1.2.164a5.52,5.52,0,0,1-.759.052" transform="translate(91.981 582.04)" fill="#80a8de"/>
      <path id="path148" d="M240.333-253.446a5.544,5.544,0,0,1-5.407-4.791,5.544,5.544,0,0,1,4.743-6.244l.13-.019.534,11.054" transform="translate(92.878 588.675)" fill="#80a8de"/>
      <path id="path150" d="M238.708-238.732a5.513,5.513,0,0,1-1.513-3.107,5.545,5.545,0,0,1,2.854-5.628l.411,8.531-1.753.2" transform="translate(93.775 595.41)" fill="#80a8de"/>
      <path id="path152" d="M260.987-180.414l-102.112,8.9L146.616-312.193l102.11-8.9,12.261,140.678" transform="translate(57.977 566.296)" fill="#406fbf"/>
      <path id="path154" d="M236.167-205.255a15.508,15.508,0,0,1-15.339-11.459l-.378-1.423,17.363-1.513a5.544,5.544,0,0,0,5.04-6,5.543,5.543,0,0,0-5.517-5.063c-.16,0-.324.006-.487.02L216.261-228.9a18.092,18.092,0,0,0-14.6-7.039,20.591,20.591,0,0,0-2.4.141l-45.526,5.325-1.747-20.057-.969-11.113-1.07-12.289-.969-11.113-2.365-27.146,102.11-8.9L258.6-207.757l-20.34,2.38a18.225,18.225,0,0,1-2.1.123m-.856-48.725c-.162,0-.324.007-.487.022l-62.9,5.481a5.544,5.544,0,0,0-5.042,6,5.544,5.544,0,0,0,5.517,5.065c.162,0,.324-.007.487-.022l62.9-5.481a5.546,5.546,0,0,0,5.042-6.006,5.545,5.545,0,0,0-5.517-5.063m-2.028-23.261c-.16,0-.324.007-.487.022l-62.9,5.481a5.545,5.545,0,0,0-5.042,6,5.544,5.544,0,0,0,5.517,5.063c.162,0,.326-.006.487-.02l62.9-5.483a5.542,5.542,0,0,0,5.042-6,5.544,5.544,0,0,0-5.517-5.063M231.255-300.5c-.16,0-.324.007-.487.02L167.867-295a5.542,5.542,0,0,0-5.04,6,5.544,5.544,0,0,0,5.517,5.063c.16,0,.324-.008.487-.021l62.9-5.483a5.544,5.544,0,0,0,5.04-6,5.543,5.543,0,0,0-5.517-5.063" transform="translate(57.977 566.296)" fill="#cfe0f5"/>
      <path id="path156" d="M163.756-289.766a5.544,5.544,0,0,1-5.517-5.063,5.542,5.542,0,0,1,5.04-6l62.9-5.483c.164-.013.327-.02.487-.02a5.543,5.543,0,0,1,5.517,5.063,5.544,5.544,0,0,1-5.04,6l-62.9,5.483c-.164.013-.327.02-.487.02" transform="translate(62.565 572.131)" fill="#8bb2e3"/>
      <path id="path158" d="M165.208-273.1a5.544,5.544,0,0,1-5.517-5.063,5.545,5.545,0,0,1,5.042-6l62.9-5.481c.164-.015.327-.022.487-.022a5.544,5.544,0,0,1,5.517,5.063,5.542,5.542,0,0,1-5.042,6l-62.9,5.483c-.162.015-.326.02-.487.02" transform="translate(63.139 578.723)" fill="#8bb2e3"/>
      <path id="path160" d="M166.661-256.426a5.544,5.544,0,0,1-5.517-5.065,5.544,5.544,0,0,1,5.042-6l62.9-5.481c.164-.015.326-.022.487-.022a5.545,5.545,0,0,1,5.517,5.063,5.546,5.546,0,0,1-5.042,6.006l-62.9,5.481c-.164.015-.326.022-.487.022" transform="translate(63.714 585.314)" fill="#8bb2e3"/>
      <path id="path162" d="M200.715-243.748l-1.252-4.7a17.529,17.529,0,0,0-2.938-6.064l20.589-1.794c.164-.015.327-.02.487-.02a5.543,5.543,0,0,1,5.517,5.063,5.544,5.544,0,0,1-5.04,6l-17.363,1.513" transform="translate(77.713 591.906)" fill="#8bb2e3"/>
      <path id="path164" d="M344.793-184.963l-102.378,4.942L235.6-321.068l102.38-4.944,6.808,141.048" transform="translate(93.166 564.351)" fill="#406fbf"/>
      <path id="path166" d="M241.069-207.878l-2.153-44.592-.538-11.119-.594-12.295L237.25-287l-.594-12.295-.538-11.117-.514-10.656,102.38-4.943,5.126,106.2L241.069-207.878m81.823-28.27c-.089,0-.18,0-.272.006L259.554-233.1a5.544,5.544,0,0,0-5.269,5.8,5.543,5.543,0,0,0,5.531,5.277q.137,0,.273-.006l63.064-3.044a5.546,5.546,0,0,0,5.271-5.8h0a5.544,5.544,0,0,0-5.533-5.277m-46.814-21.118c-.091,0-.18,0-.272.006l-17.378.839a5.546,5.546,0,0,0-5.271,5.8,5.545,5.545,0,0,0,5.533,5.277c.091,0,.18,0,.272-.006l17.378-.839a5.544,5.544,0,0,0,5.271-5.8,5.544,5.544,0,0,0-5.533-5.277m33.7-1.626c-.091,0-.182,0-.272.006l-17.378.839a5.544,5.544,0,0,0-5.271,5.8,5.544,5.544,0,0,0,5.533,5.277c.089,0,.18,0,.272-.006l17.378-.839a5.544,5.544,0,0,0,5.269-5.8,5.543,5.543,0,0,0-5.531-5.277m10.866-23.9c-.091,0-.182,0-.272.007L257.3-279.742a5.546,5.546,0,0,0-5.271,5.805,5.544,5.544,0,0,0,5.533,5.277c.091,0,.18,0,.272-.006l63.066-3.046a5.541,5.541,0,0,0,5.269-5.8,5.545,5.545,0,0,0-5.531-5.278m-1.128-23.322c-.089,0-.18,0-.272.008l-63.064,3.044a5.546,5.546,0,0,0-5.271,5.8,5.544,5.544,0,0,0,5.533,5.277c.089,0,.18,0,.272-.006l63.066-3.046a5.542,5.542,0,0,0,5.269-5.8,5.545,5.545,0,0,0-5.533-5.279" transform="translate(93.166 564.351)" fill="#cfe0f5"/>
      <path id="path168" d="M252.105-297.621a5.544,5.544,0,0,1-5.533-5.277,5.546,5.546,0,0,1,5.271-5.805l63.064-3.044c.091,0,.182-.007.272-.007a5.545,5.545,0,0,1,5.533,5.278,5.542,5.542,0,0,1-5.269,5.8l-63.066,3.046c-.091,0-.182.006-.272.006" transform="translate(97.501 569.989)" fill="#8bb2e3"/>
      <path id="path170" d="M252.912-280.908a5.544,5.544,0,0,1-5.533-5.277,5.546,5.546,0,0,1,5.271-5.8l63.066-3.044c.089,0,.18-.007.272-.007a5.545,5.545,0,0,1,5.531,5.279,5.541,5.541,0,0,1-5.269,5.8l-63.066,3.046c-.091,0-.18.006-.272.006" transform="translate(97.82 576.598)" fill="#8bb2e3"/>
      <path id="path172" d="M253.719-264.82a5.545,5.545,0,0,1-5.533-5.277,5.546,5.546,0,0,1,5.271-5.8l17.378-.839c.091,0,.18-.006.272-.006a5.544,5.544,0,0,1,5.533,5.277,5.544,5.544,0,0,1-5.271,5.805l-17.378.839c-.091,0-.18.006-.272.006" transform="translate(98.139 583.832)" fill="#8bb2e3"/>
      <path id="path174" d="M277.867-265.985a5.544,5.544,0,0,1-5.533-5.277,5.544,5.544,0,0,1,5.271-5.8l17.378-.839c.089,0,.18-.006.272-.006a5.543,5.543,0,0,1,5.531,5.277,5.544,5.544,0,0,1-5.269,5.805l-17.378.839c-.091,0-.182.006-.272.006" transform="translate(107.688 583.371)" fill="#8bb2e3"/>
      <path id="path176" d="M254.525-247.482a5.543,5.543,0,0,1-5.531-5.277,5.544,5.544,0,0,1,5.269-5.805l63.066-3.044c.091,0,.182-.006.272-.006a5.544,5.544,0,0,1,5.533,5.277h0a5.546,5.546,0,0,1-5.271,5.8L254.8-247.487q-.137.006-.274.006" transform="translate(98.458 589.816)" fill="#8bb2e3"/>
      <path id="path178" d="M236.667-240.844l-1.63-6.125c-2.311-8.68-10.577-14.057-19.936-12.961l-88.918,10.4c-11.091,1.3-19.874,11.15-19.615,22.009l5.045,211.815c.177,7.446,6.487,12.762,14.094,11.872L443.846-41.044c7.606-.89,13.629-7.647,13.452-15.093l-4.361-183.107c-.179-7.446-6.488-12.76-14.1-11.87L254.1-229.508c-8.183.956-15.415-3.745-17.435-11.337" transform="translate(42.139 590.426)" fill="#406fbf"/>
      <path id="path180" d="M124.054-3.738a12.143,12.143,0,0,1-12.44-11.969l-5.045-211.815c0-.149-.006-.3-.006-.445-.012-10.682,8.681-20.284,19.621-21.564l88.918-10.4a20.591,20.591,0,0,1,2.4-.141,17.733,17.733,0,0,1,17.538,13.1l1.63,6.125a15.508,15.508,0,0,0,15.339,11.459,18.224,18.224,0,0,0,2.1-.123l184.738-21.607a14.307,14.307,0,0,1,1.654-.1,12.146,12.146,0,0,1,12.442,11.969L457.3-56.138c0,.1,0,.2,0,.305a15.25,15.25,0,0,1-9.535,13.77,14.881,14.881,0,0,1-3.92,1.018l-53.782,6.29-2.236.261L177.208-9.859,158.655-7.69l-7.863.921L127.441-4.038l-1.734.2a14.2,14.2,0,0,1-1.654.1" transform="translate(42.138 590.426)" fill="#62c1c5"/>
      <path id="path182" d="M435.271-318.464c-1.375,6.914-2.849,13.711-4.5,20.509-1.619,6.795-3.276,13.578-5.081,20.327l-2.748,10.114-.361,1.291c-.167.556-.35,1.12-.567,1.695a17.208,17.208,0,0,1-1.822,3.593,12.863,12.863,0,0,1-3.472,3.531,11.1,11.1,0,0,1-5.081,1.833,14.55,14.55,0,0,1-7.978-1.762,28.111,28.111,0,0,1-5.171-3.578,46.131,46.131,0,0,1-7.573-8.536l5.174-4.653a63.454,63.454,0,0,0,7.993,5.308,19.147,19.147,0,0,0,3.831,1.66c1.144.372,2.14.322,2.151.132l-.279-.06c-.108,0-.086-.047,0-.311s.218-.649.337-1.144l.428-2.048,2.171-10.164,4.37-20.317c1.418-6.771,2.936-13.558,4.413-20.26l13.759,2.841" transform="translate(154.584 566.212)" fill="#f9a8b3"/>
      <path id="path184" d="M422.564-333.8c-15.873,12.151-15.234,35.048-15.234,35.048l28.389,6.785s8.709-23.021,5.176-31.451c-3.688-8.795-9.4-17.221-18.33-10.382" transform="translate(161.071 560.284)" fill="#346264"/>
      <path id="path186" d="M400.227-284.258l-10.438-10.436-5.63,16.328s8.812,4.758,17.246.272l-1.178-6.164" transform="translate(151.91 576.735)" fill="#f9a8b3"/>
      <path id="path188" d="M378.387-295.849l-1.918,12.9,10.732,5.037,5.63-16.328-14.444-1.611" transform="translate(148.869 576.278)" fill="#f9a8b3"/>
      <path id="path190" d="M493.394-14.169l-15.966,1.56-16.613-38,15.966-1.559,16.613,38" transform="translate(182.222 672.638)" fill="#f9a8b3"/>
      <path id="path192" d="M568.6-57.135l-11.991,11.26L530.72-74.327l11.99-11.259L568.6-57.135" transform="translate(209.865 659.424)" fill="#f9a8b3"/>
      <path id="path194" d="M546.033-56.2l9.011-16.235a1.306,1.306,0,0,1,1.626-.6l13.872,5.279a2.656,2.656,0,0,1,1.284,3.743c-3.239,5.606-5.085,8.15-9.048,15.29-2.437,4.391-7.186,14.466-10.551,20.532-3.293,5.933-9.545,3.06-8.685.233,3.85-12.676,3.126-19.733,2.039-25.328a4.308,4.308,0,0,1,.452-2.909" transform="translate(214.904 664.349)" fill="#17282f"/>
      <path id="path196" d="M479.494-27.355H499.1a1.625,1.625,0,0,1,1.548,1.193l4.264,15.512a2.44,2.44,0,0,1-2.393,3.1c-6.91.063-10.185.033-18.809.033H457.361c-7.165,0-8.663-7.245-5.7-7.9,13.292-2.941,20.956-7,25.056-10.868a4.027,4.027,0,0,1,2.776-1.073" transform="translate(178.035 682.45)" fill="#17282f"/>
      <path id="path198" d="M479.662-35.244h-.007l-2.718-6.221h.008l2.718,6.221" transform="translate(188.597 676.87)" fill="#c3c5c2"/>
      <path id="path200" d="M484.32-35.244H467.673l-2.534-5.8,16.462-.422,2.718,6.221" transform="translate(183.932 676.87)" fill="#d8898c"/>
      <path id="path202" d="M550.041-73.793l-4.1-4.5.007-.006,4.1,4.5-.009.007" transform="translate(215.885 662.304)" fill="#b6b8b6"/>
      <path id="path204" d="M541.3-62.54l-3.583-3.935L549.2-78.3l4.1,4.5L541.3-62.54" transform="translate(212.634 662.306)" fill="#d8898c"/>
      <path id="path206" d="M421.964-333.459s-7.176,3.156,16.894,98.417c26.537-2.294,53.964-4.666,66.876-5.785-3.477-27.12-4.96-43.9,3.217-100.886A198.238,198.238,0,0,0,480.23-343c-11.3.43-20.552.869-30.366,2.627a282.627,282.627,0,0,0-27.9,6.91" transform="translate(166.463 557.594)" fill="#346264"/>
      <path id="path208" d="M470.2-343.362s3.794.069,8.276.069c2.69,4.157-6.062,22.321-20.539,34.222a36.549,36.549,0,0,0-11.625-16.849L470.2-343.362" transform="translate(176.489 557.49)" fill="#fff"/>
      <path id="path210" d="M444.374-341.316s-1.691.24-5.74,1.163c-2.688,4.158-7.251,21.879.687,30.926a35.681,35.681,0,0,1,11.523-17.5l-6.469-14.587" transform="translate(171.963 558.299)" fill="#fff"/>
      <path id="path212" d="M466.4-367.344c-1.072,9.937-1.434,28.005,5.965,33.935,0,0-7.9,8.066-23.888,16.972C436.845-324.473,442-330.782,442-330.782c10.67-3.544,9.69-11.6,7.135-19.032l17.266-17.53" transform="translate(174.331 548.006)" fill="#f9a8b3"/>
      <path id="path214" d="M446.123-328.31s9.807-10.676,14.868-8.624,1.154,5.708.7,9.143,1.967,12.6-4.823,10.22-10.749-10.739-10.749-10.739" transform="translate(176.413 559.928)" fill="#406fbf"/>
      <path id="path216" d="M449.378-328.943s-4.625-8.192-9.63-7.1-2.024,3.97-1.581,7.048c.568,3.959-3.6,11.536,2.434,9.4,5.872-2.082,8.778-9.348,8.778-9.348" transform="translate(172.759 560.345)" fill="#406fbf"/>
      <path id="path218" d="M444.687-328.593s0,0,0,0c.166-.26.32-.514.46-.755-.14.242-.292.5-.456.759" transform="translate(175.843 563.03)" fill="#111d23"/>
      <path id="path220" d="M444.948-327.021a10.429,10.429,0,0,1-.932-4.806,4.188,4.188,0,0,1,.175-1.511,22.185,22.185,0,0,1,2.363,3.291,20.6,20.6,0,0,1-1.146,2.27c-.14.242-.294.495-.46.755" transform="translate(175.579 561.454)" fill="#3563b7"/>
      <path id="path222" d="M446.126-330.792v0s.045-.048.13-.138h0l-.13.14" transform="translate(176.414 562.405)" fill="#c3c5c2"/>
      <path id="path224" d="M446.219-329.994h0c.4-.426,1.7-1.782,3.433-3.308,0,0,0,0,0,.006-1.725,1.516-3.027,2.871-3.435,3.3" transform="translate(176.451 561.468)" fill="#d8898c"/>
      <path id="path226" d="M448.04-326.633a27.613,27.613,0,0,1-1.914-3.223l.13-.14c.407-.432,1.71-1.786,3.435-3.3a4.283,4.283,0,0,1,.164,2.437c-.3,2.236-.984,3.524-1.814,4.227" transform="translate(176.414 561.47)" fill="#3563b7"/>
      <path id="path228" d="M446.7-326.364c-1.384.006-2.24-1.514-2.341-5.111s2.662-1.6,2.662-1.6,3.677-1.922,3.053,2.45c-.484,3.4-1.942,4.253-3.375,4.259" transform="translate(175.713 561.34)" fill="#406fbf"/>
      <path id="path230" d="M448.2-348.969c-.021-.13-.043-.262-.067-.395.024.13.048.264.071.395h0m-1.4-5.308h0l1.777-1.8-1.777,1.8" transform="translate(176.677 552.461)" fill="#bfc0be"/>
      <path id="path232" d="M448.2-346.542c-.022-.13-.047-.264-.071-.394a32.351,32.351,0,0,0-1.336-4.914l1.777-1.8,8.443-8.566a17.569,17.569,0,0,1,1.308,6.049c-.065,4.395-6.011,8.665-10.121,9.629" transform="translate(176.677 550.033)" fill="#d8898c"/>
      <path id="path234" d="M453.575-389.017s-11.128,15.463-12.968,22.4c-7.593,4.417-9.126-17.367-5.1-30.8,12.473,7.773,18.068,8.4,18.068,8.4" transform="translate(171.359 536.114)" fill="#17282f"/>
      <path id="path236" d="M479.379-370.453c-4.145,15.871-5.561,22.678-15.3,29.328-14.643,10-33.23,1.442-33.911-15.348-.614-15.112,6.268-38.527,23.25-41.829a22.374,22.374,0,0,1,25.957,27.849" transform="translate(170.09 535.59)" fill="#f9a8b3"/>
      <path id="path238" d="M476.078-380.5s-7.974,12.916-9.046,18.537c-5.788,3.937-8.233-13.29-5.788-24.2,2.661-9.625,14.834,5.66,14.834,5.66" transform="translate(182.019 539.307)" fill="#17282f"/>
      <path id="path240" d="M475.594-377.493c-2.3,1.747-4.748-4.711-2.443-9.655-4.415.272-9.72-2.346-8.588-6.6-8.68,2.912-11.9-5.926-10.9-12.044,1.209-7.39,7.693-9.024,11.5-7.072.076-3.323,8.408-10.274,11.6-4.839,5.937-2.093,15.5-1.449,15.309,5.842,3.922.123,15.5,4.562,11.234,14.978,5.109.305,7.878,6.8,5.035,11.707,6.549,3.84,4.121,10.509,1.628,12.844,2.357,4.91-4.813,12.215-8.613,11.336-2.906,4.458-7.357,7.8-10.268,4-5.652,4.119-11.984-1.1-10.551-5.126-6.4-1.055-12.868-11.619-4.944-15.374" transform="translate(179.323 527.299)" fill="#17282f"/>
      <path id="path242" d="M481.647-398.223c4.168,6.955,3.822,14.827-.774,17.581s-11.7-.655-15.865-7.61-3.822-14.827.772-17.579,11.7.653,15.867,7.608" transform="translate(182.729 532.41)" fill="#406fbf"/>
      <path id="path244" d="M456.648-385.867c-.255,2-5.744,1.481-7.325-2.034-2.261,2.376-7.6,3.613-9.428,1.023-3.083,5.8-9.271,4.279-10.894,1.494s-2.663-7.922.547-8.936c-1.87-1.611-1.3-9.143,3.574-8.2,2.049-4.013,7.658-8.575,11.748-5.027,2.221-1.939,11.121-5.731,14.775,1.371,2.973-2.458,8.229-.791,9.493,2.979,5.8-1.516,8.3,2.876,8.28,5.251,4.117,1.126,4.389,8.231,1.8,9.751.973,3.589.458,7.437-3.323,7.12-.727,4.826-7.2,5.576-8.73,2.943-4.117,2.759-12.7-1.928-10.52-7.74" transform="translate(169.032 531.018)" fill="#17282f"/>
      <path id="path246" d="M441.36-400.923c4.713-6.521,21.873-9.225,36.739.543,13.4,8.8,12.529,29.231,1.879,28.145s-21.19-13.584-21.19-13.584l-17.428-15.1" transform="translate(174.529 532.41)" fill="#17282f"/>
      <path id="path248" d="M469.873-365.882a11.985,11.985,0,0,1-7.048,5.844c-4.024,1.213-6.121-2.369-5.072-6.211.945-3.459,4.177-8.255,8.25-7.787,4.013.465,5.654,4.7,3.87,8.153" transform="translate(180.906 545.348)" fill="#f9a8b3"/>
      <path id="path250" d="M437.391-264.463S414.765-164.37,429.869-93.8c10.116,47.261,46.6,142.736,46.6,142.736l28.525-.733S477.377-51.993,471.667-91.4c-9.768-67.4,14.7-177.3,14.7-177.3l-48.972,4.235" transform="translate(167.93 587.015)" fill="#13676b"/>
      <path id="path252" d="M460.34-154.666c-14.189-25.4-13.588-56.93-10.443-79.936,3,16.146,6.973,35.126,11.956,54.2-.7,8.551-1.234,17.2-1.513,25.737" transform="translate(177.176 600.497)" fill="#084548"/>
      <path id="path254" d="M459.69-36.694l35.237-.9L492.888-48.42l-35.952,1.7,2.754,10.022" transform="translate(180.689 674.12)" fill="#17282f"/>
      <path id="path256" d="M444.266-265.09s13.273,106.151,42.047,164.1c23.24,46.81,85.257,113.443,85.257,113.443L587.426-3.879S545.537-76.3,528.265-107.39c-42.354-76.243-7.74-134.425-31.745-162.419l-52.254,4.718" transform="translate(175.678 586.575)" fill="#13676b"/>
      <path id="path258" d="M536.618-57.695l20.463-19.947-6.789-9.236-21.7,21.659,8.026,7.525" transform="translate(209.024 658.912)" fill="#17282f"/>
      <path id="path260" d="M502.006-272.566l3.533,5.727c.273.443-.234.964-1.008,1.031L434.4-259.741c-.6.052-1.128-.2-1.2-.577l-1.12-5.933c-.078-.411.415-.807,1.074-.865l67.723-5.857a1.223,1.223,0,0,1,1.133.407" transform="translate(170.855 585.321)" fill="#406fbf"/>
      <path id="path262" d="M448.275-261.5l.7-7.541,45.493-3.935q.078-.006.156-.006a1.146,1.146,0,0,1,.977.413l3.533,5.727a.484.484,0,0,1,.074.253c0,.37-.454.724-1.083.778L448.275-261.5" transform="translate(177.264 585.322)" fill="#90b4e3"/>
      <path id="path264" d="M476.779-264.232l1.814-.156c.361-.032.62-.242.575-.467l-1.522-7.7c-.045-.225-.378-.383-.739-.352l-1.814.156c-.361.032-.62.242-.575.467l1.524,7.7c.045.227.376.385.737.353" transform="translate(187.639 585.347)" fill="#406fbf"/>
      <path id="path266" d="M438.072-260.884l1.812-.156c.363-.032.621-.242.577-.467l-1.524-7.7c-.045-.225-.376-.383-.737-.352l-1.814.156c-.361.032-.621.242-.577.467l1.524,7.7c.045.227.376.385.739.353" transform="translate(172.332 586.671)" fill="#406fbf"/>
      <path id="path268" d="M457.425-262.557l1.814-.158c.361-.03.621-.24.577-.465l-1.524-7.7c-.045-.225-.376-.385-.739-.354l-1.812.156c-.363.032-.621.242-.577.467l1.524,7.7c.045.225.376.383.737.354" transform="translate(179.986 586.008)" fill="#406fbf"/>
      <path id="path270" d="M447.066-378.1c-.257,1.308-1.159,2.231-2.013,2.063s-1.34-1.366-1.083-2.672,1.159-2.233,2.013-2.065,1.341,1.366,1.083,2.674" transform="translate(175.534 542.69)" fill="#17282f"/>
      <path id="path272" d="M436.472-380.178c-.259,1.308-1.159,2.231-2.015,2.063s-1.34-1.366-1.083-2.674,1.159-2.231,2.015-2.063,1.34,1.364,1.083,2.674" transform="translate(171.344 541.866)" fill="#17282f"/>
      <path id="path274" d="M435.9-382.321l-2.964-1.524s1.129,2.77,2.964,1.524" transform="translate(171.198 541.482)" fill="#17282f"/>
      <path id="path276" d="M441-378.606s-3.329,5.195-6.306,7.431c1.41,1.952,4.491,1.792,4.491,1.792L441-378.606" transform="translate(171.895 543.553)" fill="#f46878"/>
      <path id="path278" d="M443.02-366.593a10.831,10.831,0,0,0,7.452-2.837l-.006-.46-.459.005a10.66,10.66,0,0,1-9.3,2.409.32.32,0,0,0-.383.255.326.326,0,0,0,.257.383,12.727,12.727,0,0,0,2.445.244" transform="translate(174.115 547)" fill="#17282f"/>
      <path id="path280" d="M454.238-381.133l.335-.095a.647.647,0,0,0,.22-.893,7.624,7.624,0,0,0-5.894-3.812.653.653,0,0,0-.67.627.649.649,0,0,0,.623.674,6.333,6.333,0,0,1,4.828,3.185.654.654,0,0,0,.558.314" transform="translate(177.245 540.655)" fill="#17282f"/>
      <path id="path282" d="M432.817-385.6l.316-.082a6.38,6.38,0,0,1,5.77-.38.647.647,0,0,0,.878-.273.65.65,0,0,0-.273-.878,7.619,7.619,0,0,0-7.009.394.651.651,0,0,0-.251.886.653.653,0,0,0,.569.333" transform="translate(170.893 539.885)" fill="#17282f"/>
      <path id="path284" d="M497.8-331.2c1.26,1.232,2.134,2.186,3.128,3.288.949,1.079,1.861,2.169,2.748,3.276q2.665,3.313,5.046,6.806a112.486,112.486,0,0,1,8.324,14.713,96.1,96.1,0,0,1,5.8,15.943c.713,2.746,1.366,5.511,1.833,8.317.644,2.943.9,7.712-1.271,11.761a15.4,15.4,0,0,1-4.16,4.953,20.291,20.291,0,0,1-4.862,2.789,34.861,34.861,0,0,1-9.243,2.2,77.684,77.684,0,0,1-16.981-.22,173.481,173.481,0,0,1-31.816-6.761l1.7-6.748c5.061.834,10.274,1.621,15.422,2.151,5.15.6,10.3,1.021,15.385,1.133a79.544,79.544,0,0,0,14.706-.806,23.474,23.474,0,0,0,6.065-1.809,5.1,5.1,0,0,0,2.742-2.43,3.789,3.789,0,0,0,.227-1.347,9.206,9.206,0,0,0-.071-1c-.078-.385-.119-.722-.292-1.4-.521-2.4-1.209-4.756-1.942-7.1a97.973,97.973,0,0,0-5.658-13.625,98.46,98.46,0,0,0-7.6-12.719c-1.394-2.041-2.86-4.032-4.4-5.948-.767-.96-1.55-1.9-2.346-2.809-.752-.886-1.658-1.89-2.274-2.527L497.8-331.2" transform="translate(180.456 562.3)" fill="#f9a8b3"/>
      <path id="path286" d="M464.458-285.283l-13.043-6.908-.584,17.262s9.212.581,14.619-3.658l-.992-6.7" transform="translate(178.274 577.725)" fill="#f9a8b3"/>
      <path id="path288" d="M471.013-180.813l10.765-116.865-22.98-17.6-70.151-6.464L376.468-189.522l94.545,8.709" transform="translate(148.869 566.041)" fill="#406fbf"/>
      <path id="path290" d="M471.013-180.813l-94.545-8.709,12.179-132.214,70.151,6.464,22.98,17.6-5.109,55.46-2.008,21.806-3.649,39.6m-67.379-83.356a7.82,7.82,0,0,0-7.777,7.1,7.819,7.819,0,0,0,7.07,8.5l35.758,3.289q.366.033.726.034a7.824,7.824,0,0,0,7.779-7.106,7.82,7.82,0,0,0-7.072-8.5l-35.758-3.289q-.366-.033-.726-.033m2.023-22.533a7.822,7.822,0,0,0-7.779,7.1,7.822,7.822,0,0,0,7.072,8.5l51.166,4.707q.366.033.726.033a7.822,7.822,0,0,0,7.779-7.106,7.82,7.82,0,0,0-7.072-8.5l-51.166-4.707q-.366-.034-.726-.034" transform="translate(148.869 566.041)" fill="#cfe0f5"/>
      <path id="path292" d="M458.448-299.509l-22.98-17.6,6.025,21.06Z" transform="translate(172.199 567.873)" fill="#406fbf"/>
      <path id="path294" d="M418.932-221.422a28.648,28.648,0,0,1-31.792,25.114A28.649,28.649,0,0,1,362.025-228.1a28.648,28.648,0,0,1,31.792-25.114,28.649,28.649,0,0,1,25.116,31.792" transform="translate(143.079 593.059)" fill="#406fbf"/>
      <path id="path296" d="M411.526-223.741a22.848,22.848,0,0,1-25.354,20.029,22.849,22.849,0,0,1-20.029-25.354A22.848,22.848,0,0,1,391.5-249.1a22.849,22.849,0,0,1,20.029,25.356" transform="translate(144.723 594.703)" fill="#fff"/>
      <path id="path298" d="M400.478-230.886,390.4-232.069l1.183-10.081L384.352-243l-1.181,10.082L373.088-234.1l-.847,7.227,10.081,1.183-1.183,10.081,7.227.848,1.183-10.081,10.081,1.181.848-7.226" transform="translate(147.197 597.177)" fill="#406fbf"/>
      <path id="path300" d="M450.784-276.281q-.36,0-.726-.033l-51.166-4.707a7.822,7.822,0,0,1-7.072-8.5,7.822,7.822,0,0,1,7.779-7.1q.36,0,.726.034l51.166,4.707a7.82,7.82,0,0,1,7.072,8.5,7.822,7.822,0,0,1-7.779,7.106" transform="translate(154.926 575.969)" fill="#8bb2e3"/>
      <path id="path302" d="M433.927-261.551q-.36,0-.726-.033l-35.758-3.29a7.819,7.819,0,0,1-7.07-8.5,7.82,7.82,0,0,1,7.777-7.1q.36,0,.726.033l35.758,3.29a7.82,7.82,0,0,1,7.072,8.5,7.824,7.824,0,0,1-7.779,7.105" transform="translate(154.354 582.355)" fill="#8bb2e3"/>
      <path id="path304" d="M445.552-291.16l1.957,12.9,5.409,3.334.584-17.262-7.95,1.031" transform="translate(176.187 577.725)" fill="#f9a8b3"/>
      <path id="path306" d="M488.716-342.029c8.2,1.451,19.687,24.965,19.687,24.965l-20.667,18.691S471.3-316.3,472.174-326.982c.744-9.07,6.1-16.892,16.542-15.047" transform="translate(186.701 557.909)" fill="#346264"/>
      <path id="path308" d="M547.231-58.719c-.91,2.9-2.084,4.824-3.2,5.2a1.538,1.538,0,0,1-1.474-.335.621.621,0,0,1-.3-.584C542.364-55.706,545.434-57.7,547.231-58.719ZM543.6-52.795a2.02,2.02,0,0,0,.638-.108c1.961-.661,3.247-4.29,3.84-6.395l-.108-.34-.357-.036c-.6.313-5.835,3.115-6.006,5.182a1.271,1.271,0,0,0,.558,1.157,2.38,2.38,0,0,0,1.434.539" transform="translate(214.17 669.67)" fill="#406fbf"/>
      <path id="path310" d="M547.505-58.892c-1.775.757-5.215,1.223-6.186.4-.162-.137-.322-.36-.115-.867a1.327,1.327,0,0,1,.835-.787C543.561-60.687,546.325-59.472,547.505-58.892ZM543.248-57.4a11.8,11.8,0,0,0,5.145-1.206l.154-.285-.167-.279c-.175-.1-4.326-2.377-6.557-1.583A1.963,1.963,0,0,0,540.6-59.6a1.3,1.3,0,0,0,.3,1.605,3.761,3.761,0,0,0,2.352.59" transform="translate(213.716 669.175)" fill="#406fbf"/>
      <path id="path312" d="M470.548-25.06c-2.112.4-6.017.91-7.627-.308a1.73,1.73,0,0,1-.711-1.352.429.429,0,0,1,.179-.432C463.39-27.831,467.595-26.361,470.548-25.06Zm-4.233,1.116a26.181,26.181,0,0,0,5.353-.68l.253-.283-.186-.329c-.806-.379-7.919-3.667-9.71-2.454a1.061,1.061,0,0,0-.463,1.006,2.368,2.368,0,0,0,.967,1.835,6.456,6.456,0,0,0,3.786.9" transform="translate(182.516 682.212)" fill="#406fbf"/>
      <path id="path314" d="M465.723-30.135c2.465,0,3.9,4.084,4.38,5.718-2.316-1.213-5.522-4.138-5.368-5.28.011-.086.047-.341.716-.421ZM470.6-23.5l.21-.079.106-.32c-.067-.3-1.682-7.314-5.543-6.868-.966.116-1.232.6-1.282.977-.242,1.786,4.242,5.388,6.384,6.263l.125.026" transform="translate(183.514 681.094)" fill="#406fbf"/>
      <path id="path316" d="M446.495-380.238l-2.964-1.524s1.129,2.772,2.964,1.524" transform="translate(175.388 542.305)" fill="#17282f"/>
    </g>
  </g>
</svg>
